<?xml version="1.0" encoding="UTF-8"?><svg xmlns="http://www.w3.org/2000/svg" width="288.16" height="109.42" viewBox="0 0 288.16 109.42"><defs><style>.d{fill:#df9b90;}.e{fill:#e17d70;}.f{fill:#2e3e0e;}</style></defs><g id="a"/><g id="b"><g id="c"><g><g><path class="e" d="M287.64,25.3c6.39,22.68-46.46,69.64-121.47,78.55-105.92,12.59-122.27-.45-152.94,2.01-38.23,3.06,45.36-63.79,129.8-84.13,114.86-27.66,138.22-19.11,144.61,3.57Z"/><path class="d" d="M283.94,20.93c6.39,22.68-46.46,69.64-121.47,78.55-105.92,12.59-122.27-.45-152.94,2.01-38.23,3.06,45.36-63.79,129.8-84.13,114.86-27.66,138.22-19.11,144.61,3.57Z"/></g><g><path class="f" d="M45.78,73.13c-.39-1.96,1.4-3.02,3.93-3.84-.26-1.16-.71-1.46-1.5-1.3-.67,.13-1.5,.69-2.18,1.61-.53-.66-.81-.97-1.34-1.37,.72-.72,1.94-1.57,3.41-1.86,2.17-.43,3.21,.5,3.59,2.4,.22,1.2,.42,2.38,.62,3.47,.1,.5,.19,.99,.3,1.44-.98,.55-1.79,.84-3.09,1.1-2.34,.46-3.44-.14-3.74-1.65Zm1.96-.63c.16,.79,.69,.93,1.54,.76,.96-.19,1.1-.5,.67-2.6-1.43,.28-2.39,.98-2.22,1.84Z"/><path class="f" d="M54.89,73.63c-.31-.87-.65-2.19-.95-3.72-.44-2.17-.79-5.16-.72-7.12,.73-.1,1.49-.25,2.26-.45-.08,.79-.23,2.29-.08,3.42,.35-.38,1.32-1.08,2.33-1.28,1.46-.29,2.47,.33,2.96,2.79,.32,1.63,.57,3.94,.64,5.09-.77,.11-1.52,.26-2.27,.45-.05-1.1-.16-3.15-.44-4.57-.33-1.66-.7-2.01-1.47-1.85-.85,.17-1.43,.9-1.11,2.53,.37,1.8,.9,3.56,1.14,4.27-.79,.1-1.54,.25-2.27,.45Z"/><path class="f" d="M63.76,71.88c-.31-.87-.65-2.19-.95-3.72-.44-2.17-.79-5.16-.72-7.12,.73-.1,1.49-.25,2.26-.45-.08,.79-.23,2.29-.08,3.42,.35-.38,1.32-1.08,2.33-1.28,1.46-.29,2.47,.33,2.96,2.79,.32,1.63,.57,3.94,.64,5.09-.77,.11-1.52,.26-2.27,.45-.05-1.1-.16-3.15-.44-4.57-.33-1.66-.7-2.01-1.47-1.85-.85,.17-1.43,.9-1.11,2.53,.37,1.8,.9,3.56,1.14,4.27-.79,.1-1.54,.25-2.27,.45Z"/><path class="f" d="M79.91,68.69c-.05-.52-.21-2.72-.65-4.95-.23-1.08-.54-1.61-1.34-1.46-.39,.08-.75,.28-.98,.56-.27,.34-.36,.8-.11,2.04,.35,1.72,.93,3.52,1.13,4.19-.75,.09-1.47,.24-2.19,.43-.32-1.08-.69-2.46-1.01-4.06-.21-1.06-.41-2.25-.59-4.08,.69-.08,1.36-.21,2.04-.4,.03,.35,.06,.6,.12,.89,.59-.62,1.21-1.25,2.24-1.45,1.47-.29,2.39,.44,2.89,2.95,.4,2.04,.59,4.31,.6,4.91-.72,.07-1.45,.22-2.14,.42Z"/><path class="f" d="M83.12,64.05c-.61-3.06,.92-4.75,3.12-5.19,1.41-.28,2.69,.15,2.97,1.56,.42,2.14-2.35,3.36-3.91,4.13,.43,.92,1.13,1.22,1.98,1.06,.96-.19,1.71-.8,2.12-1.99,.31,.07,.55,.36,.65,.87,.28,1.41-1,2.56-2.68,2.89-2.55,.5-3.8-1.01-4.26-3.32Zm1.83-.71c1.23-.6,2.58-1.55,2.4-2.43-.08-.41-.46-.65-1.03-.53-1.08,.21-1.63,1.35-1.37,2.96Z"/><path class="f" d="M90.38,56.49c-.11-.58,.24-1.05,1.11-1.22,.93-.18,1.38,.12,1.49,.7,.11,.57-.19,.99-1.12,1.18-.87,.17-1.37-.1-1.48-.66Zm.96,7.99c.27,.07,.46,.13,.66,.09,.41-.08,.59-.42,.2-2.35-.26-1.3-.65-2.88-1.17-4.18,.72-.1,1.41-.24,2.12-.42,.54,1.48,.85,2.85,1.06,3.93,.68,3.38,.26,4.43-1.32,4.74-.67,.13-1.13,.07-1.56-.06,.04-.56,.05-1.13,0-1.75Z"/><path class="f" d="M102.65,64.41c-2.14-.87-3.45-3.03-4.08-6.19-.14-.7-.19-1.16-.16-1.65,.79-.1,1.56-.25,2.33-.46,.03,.47,.11,1.67,.32,2.74,.26,1.31,.78,2.56,1.66,3.21,.59-1.25,.8-2.11,.38-4.23-.13-.67-.45-1.93-.48-2.08,.73-.1,1.47-.25,2.18-.43,.05,.25,.26,2,.45,2.98,.31,1.59,.78,2.15,1.77,2.87,.62-1.13,.51-2.76,.22-4.22-.15-.75-.39-1.55-.56-2.02,.8-.12,1.62-.28,2.39-.47,.11,.33,.21,.7,.31,1.22,.85,4.3-.64,6.65-1.79,7.78-1.18-.53-2.12-1.26-2.86-2.06-.39,.95-1.25,2.25-2.07,2.99Z"/><path class="f" d="M111.14,58.51c-.61-3.06,.92-4.75,3.12-5.19,1.41-.28,2.69,.15,2.97,1.56,.42,2.14-2.35,3.36-3.91,4.13,.43,.92,1.13,1.22,1.98,1.05,.96-.19,1.71-.8,2.12-1.99,.32,.07,.55,.36,.65,.87,.28,1.41-1,2.56-2.68,2.89-2.55,.5-3.8-1.01-4.26-3.32Zm1.83-.71c1.23-.6,2.58-1.55,2.4-2.43-.08-.41-.46-.65-1.03-.53-1.08,.21-1.63,1.35-1.37,2.96Z"/><path class="f" d="M123.76,60.02c-.37-.75-.93-2.63-1.27-4.35-.29-1.46-.44-2.86-.42-3.77,.64-.09,1.27-.21,1.77-.35,.03,.24,.06,.47,.11,.7,.45-.54,.92-1,1.91-1.2,.04,.77,.14,1.52,.26,2.27-.47-.02-.77-.03-1.1,.04-.57,.11-.76,.45-.58,1.34,.42,2.1,1.23,4.03,1.67,4.85-.81,.11-1.59,.26-2.35,.46Z"/><path class="f" d="M133.25,57.27c-.57,.7-1.3,1.24-2.24,1.43-1.72,.34-2.51-.68-3.05-3.43-.28-1.42-.5-3.79-.49-4.44,.72-.1,1.44-.24,2.14-.42,.1,1.4,.19,2.93,.58,4.82,.27,1.34,.73,1.69,1.43,1.55,.41-.08,.68-.27,.87-.51,.36-.41,.41-1.02,.19-2.13-.42-2.13-.82-3.39-1.15-4.1,.75-.09,1.47-.24,2.17-.43,.41,1.19,.79,2.51,1.08,3.95,.22,1.13,.41,2.32,.65,4.16-.87,.1-1.15,.17-1.98,.39-.04-.2-.1-.51-.18-.84Z"/><path class="f" d="M141.88,56.44c-.05-.52-.21-2.72-.65-4.95-.23-1.08-.54-1.61-1.34-1.46-.39,.08-.75,.28-.98,.56-.27,.34-.36,.8-.12,2.04,.35,1.72,.93,3.52,1.13,4.19-.75,.09-1.47,.24-2.2,.43-.32-1.08-.69-2.46-1.01-4.06-.21-1.06-.4-2.25-.59-4.08,.69-.08,1.36-.21,2.04-.4,.03,.35,.06,.6,.12,.89,.59-.62,1.21-1.25,2.24-1.45,1.47-.29,2.4,.44,2.89,2.95,.4,2.04,.59,4.31,.6,4.91-.72,.07-1.45,.22-2.14,.42Z"/><path class="f" d="M148.31,51.07c-.51-2.59,.38-4.59,2.78-5.07,2.43-.48,3.79,1.01,4.32,3.67,.57,2.89-.71,4.4-2.83,4.82-2.09,.41-3.68-.53-4.27-3.42Zm4.98-1.12c-.34-1.74-1.07-2.53-1.97-2.36-.96,.19-1.29,1.2-.95,2.93,.34,1.65,.91,2.4,1.95,2.2,1.06-.21,1.31-1.13,.97-2.77Z"/><path class="f" d="M162.32,51.53c-.57,.7-1.3,1.24-2.24,1.43-1.72,.34-2.51-.68-3.05-3.43-.28-1.42-.5-3.79-.49-4.44,.72-.1,1.44-.24,2.14-.42,.1,1.4,.2,2.93,.58,4.82,.27,1.34,.73,1.69,1.43,1.55,.41-.08,.68-.27,.87-.51,.36-.41,.41-1.02,.19-2.13-.42-2.13-.82-3.39-1.15-4.1,.75-.09,1.47-.24,2.17-.43,.41,1.19,.8,2.5,1.08,3.95,.22,1.13,.41,2.32,.64,4.16-.87,.1-1.15,.17-1.98,.39-.04-.2-.1-.51-.18-.84Z"/><path class="f" d="M167.74,51.66c-.68-1.3-1.15-2.97-1.47-4.53-.1-.51-.23-1.29-.34-2.13-.38,.09-.76,.18-1.1,.26-.03-.62-.06-1.28-.14-1.82,.42-.04,.67-.06,1.05-.13-.05-.51-.09-1.01-.1-1.43,.76-.57,1.59-.89,2.19-1.06-.08,.51-.13,1.26-.1,2.14,.47-.09,.92-.19,1.48-.33,.07,.6,.13,1.16,.3,1.77-.31,.02-.92,.1-1.65,.23,.04,.35,.1,.71,.17,1.06,.29,1.48,.88,3.14,1.87,4.97-.82,.28-1.41,.58-2.16,1Z"/><path class="f" d="M174.19,45.96c-.51-2.59,.38-4.59,2.78-5.07,2.43-.48,3.79,1.01,4.32,3.67,.57,2.89-.71,4.4-2.83,4.82-2.09,.41-3.68-.53-4.27-3.42Zm4.98-1.12c-.34-1.74-1.07-2.53-1.97-2.36-.96,.19-1.29,1.2-.95,2.93,.34,1.65,.91,2.4,1.95,2.2,1.06-.21,1.31-1.13,.97-2.77Z"/><path class="f" d="M184.96,41.32c.41,1.82,1.06,4.46,1.69,6.28-.86,.06-1.64,.21-2.42,.48-.27-.96-.54-2.13-.87-3.78-.18-.91-.34-1.78-.44-2.56-.3,.07-.63,.15-.97,.23-.04-.54-.11-1.17-.2-1.83,.23-.03,.55-.07,.95-.12-.26-2.23,.37-3.15,1.87-3.44,.6-.12,.97-.08,1.31,0-.08,.49-.1,1.02-.09,1.55-.23-.05-.46-.1-.72-.05-.5,.1-.68,.56-.52,1.39,.01,.05,.02,.12,.04,.18,.59-.13,1.21-.28,1.52-.35,.04,.54,.12,1.1,.26,1.81-.49,.07-.95,.15-1.42,.23Z"/><path class="f" d="M192.84,46.37c-.41-1.16-.76-2.53-1.04-3.97-.44-2.25-.79-4.76-.9-6.82,.69-.1,1.36-.23,2.06-.41,.11,1.26,.33,3.42,.73,5.4,.53,2.69,1.21,4.66,1.48,5.33-.81,.11-1.57,.26-2.33,.46Z"/><path class="f" d="M195.93,41.76c-.61-3.06,.92-4.75,3.13-5.19,1.41-.28,2.69,.15,2.97,1.56,.42,2.14-2.35,3.36-3.91,4.13,.43,.93,1.13,1.22,1.98,1.06,.96-.19,1.71-.8,2.12-1.99,.32,.07,.55,.36,.65,.87,.28,1.41-1,2.56-2.68,2.89-2.55,.5-3.8-1.01-4.26-3.32Zm1.83-.71c1.23-.6,2.58-1.55,2.4-2.43-.08-.41-.46-.65-1.03-.53-1.08,.21-1.63,1.35-1.37,2.96Z"/><path class="f" d="M213.34,42.32c-.02-.86-.14-2.59-.5-4.39-.31-1.59-.68-2.19-1.48-2.03-.64,.13-1.19,.69-1.01,1.59,.12,.63,.29,1.25,.42,1.94,.21,1.06,.36,2.52,.38,3.32-.69,.08-1.39,.22-2.09,.41-.03-.65-.29-2.77-.6-4.33-.32-1.54-.55-2.18-1.34-2.03-.96,.19-1.28,1.03-.97,2.64,.42,2.13,.92,3.55,1.11,4.08-.69,.08-1.38,.22-2.05,.41-.5-1.51-.84-2.72-1.13-4.19-.2-1-.38-2.12-.53-3.94,.72-.09,1.42-.23,2.12-.42,.01,.27,.03,.57,.07,.86,.42-.49,1.23-1.24,2.11-1.41,1-.2,1.55,.29,1.86,.62,.41-.43,1.09-1.2,2.13-1.4,1.8-.36,2.75,.94,3.28,3.6,.33,1.68,.48,3.41,.5,4.23-.75,.09-1.5,.24-2.27,.45Z"/><path class="f" d="M216.73,37.55c-.51-2.59,.38-4.59,2.78-5.07,2.43-.48,3.79,1.01,4.32,3.67,.57,2.89-.71,4.4-2.83,4.82-2.09,.41-3.68-.53-4.27-3.42Zm4.98-1.12c-.34-1.74-1.07-2.53-1.97-2.36-.96,.19-1.29,1.2-.95,2.93,.34,1.65,.91,2.4,1.95,2.2,1.06-.21,1.31-1.13,.97-2.77Z"/><path class="f" d="M230.55,38.92c-.05-.52-.21-2.72-.65-4.95-.23-1.08-.54-1.61-1.34-1.46-.39,.08-.75,.28-.98,.56-.27,.34-.36,.8-.11,2.04,.35,1.72,.93,3.52,1.13,4.19-.75,.09-1.47,.24-2.19,.43-.32-1.08-.69-2.46-1.01-4.06-.21-1.06-.41-2.25-.59-4.08,.69-.08,1.36-.21,2.04-.4,.03,.35,.06,.6,.12,.89,.59-.62,1.21-1.25,2.24-1.45,1.47-.29,2.39,.44,2.89,2.95,.4,2.04,.59,4.31,.6,4.91-.72,.07-1.45,.22-2.14,.42Z"/><path class="f" d="M234.12,35.9c-.39-1.96,1.4-3.02,3.93-3.84-.26-1.16-.71-1.46-1.5-1.3-.67,.13-1.5,.69-2.18,1.6-.53-.66-.81-.97-1.34-1.37,.72-.72,1.94-1.57,3.42-1.86,2.17-.43,3.21,.5,3.59,2.4,.22,1.2,.42,2.38,.62,3.47,.1,.5,.19,.99,.3,1.44-.98,.55-1.79,.84-3.09,1.1-2.34,.46-3.44-.14-3.74-1.65Zm1.96-.63c.16,.79,.69,.93,1.54,.76,.96-.19,1.1-.5,.67-2.6-1.43,.28-2.39,.98-2.22,1.84Z"/><path class="f" d="M247.29,24.44c.44,1.14,1.14,3.69,1.62,6.1,.3,1.47,.48,2.94,.56,4.16-.79,.58-1.67,.89-3.06,1.16-2.58,.51-3.87-.57-4.35-3-.6-3.05,.19-4.84,1.84-5.17,.79-.16,1.49,.06,2.29,.48-.3-1.4-.9-2.83-1.14-3.28,.77-.11,1.51-.26,2.23-.44Zm-.38,6.92c-.38-1.93-1.26-2.43-1.95-2.29-.84,.17-1.2,1.06-.79,3.13,.37,1.85,1.04,2.33,2.01,2.14,1.06-.21,1.22-.58,.73-2.99Z"/><path class="f" d="M250.63,30.95c-.6-3.06,.92-4.75,3.13-5.19,1.41-.28,2.69,.15,2.97,1.56,.42,2.14-2.35,3.36-3.91,4.13,.43,.92,1.13,1.22,1.98,1.06,.96-.19,1.71-.8,2.12-1.99,.32,.07,.55,.36,.65,.87,.28,1.41-1,2.56-2.68,2.89-2.55,.5-3.81-1.01-4.26-3.32Zm1.83-.71c1.23-.6,2.58-1.55,2.4-2.43-.08-.41-.46-.65-1.03-.53-1.08,.21-1.63,1.35-1.37,2.96Z"/><path class="f" d="M260.39,22.59c-.04,1.25,.21,4.46,.71,7.1-.52,.13-1.05,.29-1.56,.47-.85-1.84-1.41-4.15-1.73-5.76-.12-.6-.14-.93-.18-1.26l2.76-.55Zm-1.06,9.63c-.14-.72,.28-1.26,1.1-1.42,.84-.17,1.41,.17,1.56,.89,.14,.71-.27,1.19-1.11,1.35-.82,.16-1.4-.12-1.54-.83Z"/><path class="f" d="M49.86,91.01c-.31-.87-.65-2.19-.95-3.72-.44-2.17-.79-5.16-.72-7.12,.73-.1,1.49-.25,2.26-.45-.08,.79-.23,2.29-.08,3.42,.35-.38,1.32-1.08,2.33-1.28,1.46-.29,2.47,.33,2.96,2.79,.32,1.63,.57,3.94,.64,5.09-.77,.11-1.52,.26-2.27,.45-.05-1.1-.16-3.15-.44-4.57-.33-1.66-.7-2.01-1.47-1.85-.85,.17-1.43,.9-1.11,2.53,.37,1.8,.89,3.56,1.14,4.27-.79,.1-1.54,.25-2.27,.45Z"/><path class="f" d="M57.34,85.53c-.61-3.06,.92-4.76,3.12-5.19,1.41-.28,2.69,.15,2.97,1.56,.42,2.14-2.35,3.36-3.91,4.13,.43,.93,1.13,1.22,1.98,1.06,.96-.19,1.71-.8,2.12-1.99,.31,.07,.55,.35,.65,.87,.28,1.41-1,2.56-2.68,2.89-2.55,.5-3.8-1.01-4.26-3.32Zm1.83-.71c1.23-.6,2.58-1.55,2.4-2.43-.08-.41-.46-.65-1.03-.53-1.08,.21-1.63,1.35-1.37,2.96Z"/><path class="f" d="M66.84,87.66c-.41-1.16-.76-2.53-1.04-3.97-.44-2.25-.79-4.76-.9-6.81,.69-.1,1.36-.23,2.06-.41,.11,1.26,.33,3.42,.73,5.4,.53,2.69,1.21,4.66,1.48,5.33-.81,.11-1.57,.26-2.33,.46Z"/><path class="f" d="M71.63,87.07c-.61-1.29-1.19-3.26-1.52-4.9-.26-1.31-.37-2.44-.38-3.3,.52-.35,1.34-.63,2.3-.82,3.29-.65,4.44,.48,4.77,2.16,.51,2.58-.68,4.42-2.06,4.7-.8,.16-1.76-.48-2.06-.67,.17,.68,.54,1.56,.88,2.16-.67,.19-1.36,.43-1.93,.68Zm.45-5.4c.31,1.59,1,1.87,1.72,1.72,.97-.19,1.24-1.42,.95-2.88-.19-.99-.88-1.3-2.08-1.06-.8,.16-.93,.46-.59,2.22Z"/><path class="f" d="M86.96,82.81c-.57,.7-1.3,1.24-2.24,1.43-1.72,.34-2.51-.68-3.05-3.43-.28-1.42-.5-3.79-.5-4.44,.72-.1,1.44-.24,2.14-.42,.1,1.4,.2,2.92,.58,4.81,.26,1.34,.73,1.69,1.43,1.55,.41-.08,.68-.27,.87-.51,.36-.41,.41-1.02,.19-2.13-.42-2.13-.82-3.39-1.15-4.1,.75-.09,1.47-.24,2.17-.43,.41,1.19,.79,2.51,1.08,3.95,.22,1.13,.41,2.32,.64,4.16-.87,.1-1.15,.17-1.98,.39-.04-.2-.1-.51-.18-.84Z"/><path class="f" d="M90.77,79.69c.69,.86,1.62,1.41,2.83,1.18,.76-.15,1.04-.48,.95-.94-.1-.44-.45-.69-1.6-.93-1.62-.32-2.74-.67-3.01-2.04-.28-1.43,.74-2.61,2.73-3,.93-.18,1.9-.2,2.89,.18-.19,.62-.34,1.27-.44,1.9-.87-.44-1.66-.66-2.42-.5-.64,.13-.94,.49-.86,.88,.09,.46,.47,.6,1.63,.84,1.54,.31,2.88,.66,3.17,2.15,.31,1.59-.71,2.67-2.63,3.05-1.98,.39-3.28-.21-3.51-1.38-.11-.55,.02-.94,.3-1.38Z"/><path class="f" d="M107.28,77.55c.24,1.21-.61,2.4-2.5,2.77-2.37,.47-3.64-.82-4.09-3.06-.65-3.27,.66-5.02,2.72-5.43,1.7-.34,2.74,.69,3.22,2.52-.61,.32-.98,.59-1.64,1.02-.26-1.03-.55-2.03-1.43-1.86-.78,.15-1.17,1.21-.82,2.89,.26,1.31,.79,2.25,1.98,2.01,1.1-.22,1.53-1.05,1.7-1.89,.42,.13,.75,.48,.86,1.02Z"/><path class="f" d="M108.1,75.41c-.51-2.59,.38-4.59,2.78-5.07,2.43-.48,3.79,1.01,4.32,3.67,.57,2.89-.71,4.4-2.83,4.82-2.09,.41-3.68-.53-4.27-3.42Zm4.98-1.12c-.34-1.73-1.07-2.53-1.97-2.35-.96,.19-1.29,1.2-.95,2.93,.34,1.65,.91,2.4,1.95,2.2,1.06-.21,1.31-1.13,.97-2.77Z"/><path class="f" d="M118.07,77.53c-.41-1.16-.76-2.53-1.04-3.97-.44-2.25-.79-4.76-.9-6.81,.69-.1,1.36-.23,2.06-.41,.11,1.26,.33,3.42,.73,5.4,.53,2.69,1.21,4.66,1.48,5.33-.81,.11-1.57,.26-2.33,.46Z"/><path class="f" d="M122.76,76.61c-.41-1.16-.76-2.53-1.04-3.97-.44-2.25-.79-4.76-.9-6.81,.69-.1,1.36-.23,2.06-.41,.11,1.26,.33,3.42,.73,5.4,.53,2.69,1.21,4.66,1.48,5.33-.81,.11-1.57,.26-2.33,.46Z"/><path class="f" d="M125.85,71.99c-.6-3.06,.92-4.76,3.13-5.19,1.41-.28,2.69,.15,2.97,1.56,.42,2.14-2.35,3.36-3.91,4.13,.43,.93,1.13,1.22,1.98,1.06,.96-.19,1.71-.8,2.12-1.99,.32,.07,.55,.36,.65,.87,.28,1.41-1,2.56-2.68,2.89-2.55,.5-3.81-1.01-4.26-3.32Zm1.83-.71c1.23-.6,2.58-1.55,2.4-2.43-.08-.41-.46-.65-1.03-.53-1.08,.21-1.63,1.35-1.37,2.96Z"/><path class="f" d="M140.4,71c.24,1.21-.6,2.4-2.5,2.77-2.37,.47-3.65-.82-4.09-3.06-.65-3.27,.66-5.02,2.72-5.43,1.7-.33,2.75,.69,3.22,2.52-.61,.32-.98,.59-1.64,1.02-.26-1.03-.55-2.04-1.43-1.86-.78,.15-1.17,1.21-.82,2.89,.26,1.31,.79,2.25,1.98,2.01,1.1-.22,1.53-1.05,1.7-1.89,.42,.13,.75,.48,.86,1.02Z"/><path class="f" d="M143.58,72.82c-.68-1.3-1.15-2.97-1.47-4.53-.1-.51-.23-1.29-.34-2.13-.38,.09-.76,.18-1.1,.26-.03-.62-.06-1.28-.14-1.81,.42-.04,.67-.06,1.05-.13-.05-.51-.09-1.01-.1-1.43,.76-.57,1.59-.89,2.19-1.06-.08,.51-.13,1.26-.1,2.13,.47-.09,.92-.19,1.48-.33,.06,.6,.13,1.16,.29,1.77-.31,.02-.92,.1-1.65,.23,.04,.35,.1,.7,.17,1.06,.29,1.49,.88,3.15,1.87,4.97-.82,.29-1.42,.58-2.17,1Z"/><path class="f" d="M152.27,71.1c-.68-1.3-1.15-2.97-1.47-4.53-.1-.51-.23-1.29-.34-2.13-.38,.09-.76,.18-1.1,.26-.03-.62-.06-1.28-.14-1.81,.42-.04,.67-.06,1.05-.13-.05-.51-.09-1.01-.1-1.43,.76-.57,1.59-.89,2.19-1.06-.08,.51-.13,1.26-.1,2.13,.47-.09,.92-.19,1.48-.33,.06,.6,.13,1.16,.29,1.77-.31,.02-.92,.1-1.65,.23,.04,.35,.1,.7,.17,1.06,.29,1.49,.88,3.15,1.87,4.97-.82,.29-1.42,.58-2.17,1Z"/><path class="f" d="M156.82,69.87c-.31-.87-.65-2.19-.95-3.72-.44-2.17-.79-5.16-.72-7.12,.73-.1,1.49-.25,2.26-.45-.08,.79-.23,2.29-.08,3.42,.35-.38,1.32-1.08,2.33-1.28,1.46-.29,2.47,.33,2.95,2.79,.32,1.63,.58,3.94,.64,5.09-.77,.11-1.52,.26-2.27,.45-.05-1.1-.16-3.15-.44-4.57-.33-1.66-.7-2.01-1.47-1.85-.85,.17-1.43,.9-1.11,2.53,.37,1.8,.9,3.56,1.14,4.27-.79,.1-1.54,.25-2.27,.45Z"/><path class="f" d="M164.3,64.39c-.61-3.06,.92-4.76,3.12-5.19,1.41-.28,2.69,.15,2.97,1.56,.42,2.14-2.35,3.36-3.91,4.13,.43,.93,1.13,1.23,1.98,1.06,.96-.19,1.71-.8,2.12-1.99,.32,.07,.55,.35,.65,.87,.28,1.41-1,2.56-2.68,2.89-2.55,.5-3.8-1.01-4.26-3.32Zm1.83-.71c1.23-.6,2.58-1.55,2.4-2.43-.08-.41-.46-.65-1.03-.53-1.08,.21-1.63,1.35-1.37,2.96Z"/><path class="f" d="M177.02,65.88c-.41-1.16-.76-2.53-1.04-3.97-.44-2.25-.79-4.76-.9-6.81,.69-.1,1.36-.23,2.06-.41,.11,1.26,.33,3.42,.73,5.4,.53,2.69,1.21,4.66,1.48,5.33-.81,.11-1.57,.26-2.33,.46Z"/><path class="f" d="M180.11,61.27c-.6-3.06,.92-4.76,3.13-5.19,1.41-.28,2.69,.15,2.97,1.56,.42,2.14-2.35,3.36-3.91,4.13,.43,.93,1.13,1.22,1.98,1.06,.96-.19,1.71-.8,2.12-1.99,.32,.07,.55,.36,.65,.87,.28,1.41-1,2.56-2.68,2.89-2.55,.5-3.8-1.01-4.26-3.32Zm1.83-.71c1.23-.6,2.58-1.55,2.4-2.43-.08-.41-.46-.65-1.03-.53-1.08,.21-1.63,1.35-1.37,2.96Z"/><path class="f" d="M197.52,61.83c-.02-.86-.14-2.59-.5-4.39-.31-1.59-.68-2.19-1.48-2.03-.64,.13-1.19,.69-1.01,1.59,.12,.63,.29,1.25,.42,1.94,.21,1.06,.36,2.52,.38,3.33-.69,.08-1.39,.22-2.09,.41-.03-.65-.29-2.77-.6-4.33-.32-1.53-.56-2.18-1.34-2.03-.96,.19-1.28,1.03-.97,2.64,.42,2.13,.92,3.55,1.11,4.08-.69,.08-1.38,.22-2.05,.4-.5-1.51-.84-2.72-1.13-4.19-.2-1-.38-2.12-.53-3.94,.72-.09,1.42-.23,2.12-.42,.01,.27,.03,.57,.07,.86,.42-.49,1.23-1.24,2.11-1.41,1-.2,1.55,.3,1.86,.62,.41-.43,1.09-1.2,2.13-1.4,1.8-.36,2.75,.94,3.28,3.6,.33,1.68,.48,3.41,.5,4.23-.75,.09-1.5,.24-2.27,.45Z"/><path class="f" d="M200.91,57.06c-.51-2.59,.38-4.59,2.78-5.07,2.43-.48,3.79,1.01,4.32,3.67,.57,2.89-.71,4.4-2.83,4.82-2.09,.41-3.68-.53-4.27-3.42Zm4.98-1.12c-.34-1.73-1.07-2.53-1.97-2.35-.96,.19-1.29,1.2-.95,2.93,.34,1.65,.91,2.4,1.95,2.2,1.06-.21,1.31-1.13,.97-2.77Z"/><path class="f" d="M214.73,58.43c-.05-.52-.21-2.72-.65-4.95-.23-1.07-.54-1.61-1.34-1.46-.39,.08-.75,.29-.98,.56-.27,.34-.36,.8-.11,2.04,.35,1.72,.93,3.52,1.13,4.19-.75,.09-1.47,.24-2.2,.43-.32-1.08-.69-2.46-1.01-4.06-.21-1.06-.4-2.26-.59-4.08,.69-.08,1.36-.21,2.04-.4,.03,.35,.06,.6,.12,.89,.59-.62,1.21-1.25,2.24-1.45,1.47-.29,2.39,.44,2.89,2.95,.4,2.04,.59,4.31,.6,4.91-.72,.07-1.45,.22-2.14,.42Z"/><path class="f" d="M218.56,54.44c.69,.86,1.62,1.41,2.83,1.18,.76-.15,1.04-.48,.95-.94-.1-.44-.45-.69-1.6-.93-1.62-.32-2.74-.67-3.01-2.04-.28-1.43,.74-2.61,2.73-3,.93-.18,1.9-.2,2.89,.18-.19,.62-.34,1.27-.44,1.9-.87-.44-1.66-.66-2.42-.5-.64,.13-.94,.49-.86,.88,.09,.46,.47,.6,1.63,.84,1.54,.31,2.87,.66,3.17,2.15,.31,1.59-.71,2.67-2.63,3.05-1.99,.39-3.28-.21-3.51-1.38-.11-.55,.02-.94,.3-1.38Z"/><path class="f" d="M227.07,45.56c-.04,1.25,.21,4.46,.71,7.1-.52,.13-1.05,.29-1.56,.47-.86-1.84-1.41-4.15-1.73-5.76-.12-.6-.14-.93-.18-1.26l2.76-.55Zm-1.06,9.63c-.14-.72,.28-1.26,1.1-1.42,.84-.17,1.41,.17,1.55,.89,.14,.71-.27,1.19-1.11,1.35-.82,.16-1.4-.12-1.54-.83Z"/></g></g></g></g></svg>