<?xml version="1.0" encoding="UTF-8"?><svg xmlns="http://www.w3.org/2000/svg" width="100" height="95.76" viewBox="0 0 100 95.76"><defs><style>.k{fill:#f4be58;}.l{fill:#e7a947;}.m{fill:#638dbb;}.n{fill:#709dcc;}</style></defs><g id="a"/><g id="b"/><g id="c"/><g id="d"/><g id="e"/><g id="f"/><g id="g"/><g id="h"/><g id="i"><g><path class="n" d="M98.22,52.42c-3.63,24.71-24.81,45.41-49.41,41.05-30.48-5.41-44.74-20.69-40.07-45.23C13.67,22.43,23.84,9.41,48.57,8.42c24.58-.98,53.34,18.93,49.65,44Z"/><path class="m" d="M95.97,47.59c-3.76,25.54-25.67,46.93-51.11,42.42C13.34,84.42-1.41,68.63,3.42,43.27,8.51,16.6,19.03,3.15,44.61,2.13c25.43-1.02,55.17,19.56,51.36,45.47Z"/></g><g><path class="k" d="M54.02,39.65c11.02,13.44,21.46,26.18,16.75,30.04-4.15,3.4-15.42-8.66-26.44-22.1-11.02-13.44-19.95-24.34-15.11-28.31,4.84-3.97,13.77,6.93,24.79,20.37Z"/><path class="l" d="M51.47,39.96c11.02,13.44,21.46,26.18,16.75,30.04-4.15,3.4-15.42-8.66-26.44-22.1-11.02-13.44-19.95-24.34-15.11-28.31s13.77,6.93,24.79,20.37Z"/></g><g><path class="k" d="M54.74,49.75c-12.67,14.22-24.67,27.69-29.65,23.26-4.39-3.91,6.74-18.17,19.4-32.38,12.67-14.22,22.94-25.74,28.06-21.18s-5.15,16.09-17.81,30.31Z"/><path class="l" d="M53.97,47.04c-12.67,14.22-24.67,27.69-29.65,23.26-4.39-3.91,6.74-18.17,19.4-32.38,12.67-14.22,22.94-25.74,28.06-21.18,5.12,4.56-5.15,16.09-17.81,30.31Z"/></g></g><g id="j"/></svg>