<?xml version="1.0" encoding="UTF-8"?><svg xmlns="http://www.w3.org/2000/svg" width="1920" height="1080" viewBox="0 0 1920 1080"><defs><style>.j{fill:#eedec0;}.k{fill:#ea968c;}.l{fill:#fff;}.m{fill:#df4b37;}.n{fill:#293f02;}.o{fill:#2e3e0e;}</style></defs><g id="a"/><g id="b"/><g id="c"/><g id="d"><g><rect class="m" width="1920" height="1080"/><g><g><rect class="n" x="263.28" y="634.55" width="17.4" height="329.07" rx="3.94" ry="3.94"/><rect class="n" x="228.49" y="942.85" width="52.19" height="20.77" rx="3.58" ry="3.58"/></g><g><rect class="n" x="300.63" y="623.7" width="17.4" height="329.07" rx="3.94" ry="3.94" transform="translate(618.65 1576.46) rotate(180)"/><rect class="n" x="300.63" y="932" width="52.19" height="20.77" rx="3.58" ry="3.58" transform="translate(653.44 1884.76) rotate(-180)"/></g><g><rect class="n" x="232.84" y="638.9" width="17.4" height="298.62" rx="3.94" ry="3.94"/><rect class="n" x="198.05" y="918.67" width="52.19" height="18.85" rx="3.58" ry="3.58"/></g><path class="k" d="M386.5,399.71c-36.97,142.92-52.04,260.17-117.42,258.03-82.58-2.7-130.38-112.89-120.32-252.24,10.18-141.03-19.96-259.66,120.32-265.28,151.94-6.09,155.11,113.78,117.42,259.48Z"/><ellipse class="l" cx="264.73" cy="376.51" rx="57.99" ry="82.63"/><ellipse cx="264.73" cy="404.78" rx="18.85" ry="28.27"/><path class="l" d="M308.73,583.27c-.19,.03-.4,.05-.58,.04-.95-.06-1.79-.74-1.99-1.72-2.54-11.88-6.55-21.55-11.85-28.79-2.44-3.38-5.18-6.22-8.18-8.5-6-4.62-13.02-7.01-20.92-7.05-6.45-.02-12.84,1.46-18.77,3.99-3.89,1.64-7.58,3.73-10.96,6.15-10,7.09-17.38,16.86-19.36,25.86-.27,1.16-1.43,1.9-2.6,1.65-1.18-.26-1.92-1.42-1.66-2.6,2.1-9.46,9.11-19.3,19.26-27,1.17-.89,2.35-1.73,3.58-2.53,3.78-2.49,7.75-4.55,11.79-6.11,6.26-2.46,12.67-3.77,18.74-3.74,5.6,.03,13.64,1.11,21.45,5.63,3.79,2.2,7.52,5.21,10.89,9.28,5.91,7.15,10.74,17.61,12.84,32.85,.16,1.19-.5,2.34-1.68,2.59Z"/><path class="l" d="M246.49,536.66c-4.04,1.56-8.01,3.62-11.79,6.11l.23-29.49c.03-2.93,3.23-17.09,6.46-17.1,3.23-.03,5.34,13.49,5.33,16.41l-.23,24.08Z"/><path class="l" d="M301.38,507.3l-3.75,40.13c0,.13-.03,.27-.05,.4-3.37-4.08-7.1-7.09-10.89-9.28l2.92-31.69c.33-3.65,5.04-21.05,8.25-20.73,3.2,.33,3.86,17.51,3.53,21.16Z"/></g><g><g><path class="j" d="M641.18,830.79h0c-6.24-4.11-7.6,4.43-7.62,9.92l-1.04,51.49c-.03,9.95,5.15,12.3,9.34,12.32h0c7.58,2.95,7.6-4.43,7.62-9.92l.08-28.09c.02-5.49-4.37-33.95-8.38-35.72Z"/><path class="j" d="M643.3,97.92h0c-6.24-4.11-7.6,4.43-7.62,9.92l-1.04,51.49c-.03,9.95,5.15,12.3,9.34,12.32h0c7.58,2.95,7.6-4.43,7.62-9.92l.08-28.09c.02-5.49-4.37-33.95-8.38-35.72Z"/><path class="j" d="M642.95,216.71h0c-6.24-4.11-7.6,4.43-7.62,9.92l-1.04,51.49c-.03,9.95,5.15,12.3,9.34,12.32h0c7.58,2.95,7.6-4.43,7.62-9.92l.08-28.09c.02-5.49-4.37-33.95-8.38-35.72Z"/><path class="j" d="M642.59,341.34h0c-6.24-4.11-7.6,4.43-7.62,9.92l-1.04,51.49c-.03,9.95,5.15,12.3,9.34,12.32h0c7.58,2.95,7.6-4.43,7.62-9.92l.08-28.09c.02-5.49-4.37-33.95-8.38-35.72Z"/><path class="j" d="M642.21,474.75h0c-6.24-4.11-7.6,4.43-7.62,9.92l-1.04,51.49c-.03,9.95,5.15,12.3,9.34,12.32h0c7.58,2.95,7.6-4.43,7.62-9.92l.08-28.09c.02-5.49-4.37-33.95-8.38-35.72Z"/><path class="j" d="M641.83,602.9h0c-6.24-4.11-7.6,4.43-7.62,9.92l-1.04,51.49c-.03,9.95,5.15,12.3,9.34,12.32h0c7.58,2.95,7.6-4.43,7.62-9.92l.08-28.09c.02-5.49-4.37-33.95-8.38-35.72Z"/><path class="j" d="M641.5,717.58h0c-6.24-4.11-7.6,4.43-7.62,9.92l-1.04,51.49c-.03,9.95,5.15,12.3,9.34,12.32h0c7.58,2.95,7.6-4.43,7.62-9.92l.08-28.09c.02-5.49-4.37-33.95-8.38-35.72Z"/></g><g><path class="j" d="M1700.82,833.19h0c6.24-4.11,7.6,4.43,7.62,9.92l1.04,51.49c.03,9.95-5.15,12.3-9.34,12.32h0c-7.58,2.95-7.6-4.43-7.62-9.92l-.08-28.09c-.02-5.49,4.37-33.95,8.38-35.72Z"/><path class="j" d="M1698.7,100.32h0c6.24-4.11,7.6,4.43,7.62,9.92l1.04,51.49c.03,9.95-5.15,12.3-9.34,12.32h0c-7.58,2.95-7.6-4.43-7.62-9.92l-.08-28.09c-.02-5.49,4.37-33.95,8.38-35.72Z"/><path class="j" d="M1699.04,219.11h0c6.24-4.11,7.6,4.43,7.62,9.92l1.04,51.49c.03,9.95-5.15,12.3-9.34,12.32h0c-7.58,2.95-7.6-4.43-7.62-9.92l-.08-28.09c-.02-5.49,4.37-33.95,8.38-35.72Z"/><path class="j" d="M1699.4,343.74h0c6.24-4.11,7.6,4.43,7.62,9.92l1.04,51.49c.03,9.95-5.15,12.3-9.34,12.32h0c-7.58,2.95-7.6-4.43-7.62-9.92l-.08-28.09c-.02-5.49,4.37-33.95,8.38-35.72Z"/><path class="j" d="M1699.79,477.15h0c6.24-4.11,7.6,4.43,7.62,9.92l1.04,51.49c.03,9.95-5.15,12.3-9.34,12.32h0c-7.58,2.95-7.6-4.43-7.62-9.92l-.08-28.09c-.02-5.49,4.37-33.95,8.38-35.72Z"/><path class="j" d="M1700.16,605.3h0c6.24-4.11,7.6,4.43,7.62,9.92l1.04,51.49c.03,9.95-5.15,12.3-9.34,12.32h0c-7.58,2.95-7.6-4.43-7.62-9.92l-.08-28.09c-.02-5.49,4.37-33.95,8.38-35.72Z"/><path class="j" d="M1700.49,719.99h0c6.24-4.11,7.6,4.43,7.62,9.92l1.04,51.49c.03,9.95-5.15,12.3-9.34,12.32h0c-7.58,2.95-7.6-4.43-7.62-9.92l-.08-28.09c-.02-5.49,4.37-33.95,8.38-35.72Z"/></g><path class="j" d="M1654.99,787.78c35.69,204.5-552.92-23.8-786.58,107.27-225.26,126.37-238.8-790.33-55.41-765.47,315.18,42.73,471.4-70.91,767.51,6.36,148.01,38.63-1.08,218.83,74.48,651.83Z"/><g><path class="j" d="M1607,929.6h0c-4.08-6.32,4.33-7.74,9.74-7.78l50.71-1.27c9.8-.07,12.14,5.18,12.17,9.43h0c2.93,7.69-4.33,7.74-9.74,7.78l-27.66,.2c-5.41,.04-33.46-4.3-35.22-8.36Z"/><path class="j" d="M885.16,934.74h0c-4.08-6.32,4.33-7.74,9.74-7.78l50.71-1.27c9.8-.07,12.14,5.18,12.17,9.43h0c2.93,7.69-4.33,7.74-9.74,7.78l-27.66,.2c-5.41,.04-33.46-4.3-35.22-8.36Z"/><path class="j" d="M1002.16,933.91h0c-4.08-6.32,4.33-7.74,9.74-7.78l50.71-1.27c9.8-.07,12.14,5.18,12.17,9.43h0c2.93,7.69-4.33,7.74-9.74,7.78l-27.66,.2c-5.41,.04-33.46-4.3-35.22-8.36Z"/><path class="j" d="M1124.92,933.04h0c-4.08-6.32,4.33-7.74,9.74-7.78l50.71-1.27c9.8-.07,12.14,5.18,12.17,9.43h0c2.93,7.69-4.33,7.74-9.74,7.78l-27.66,.2c-5.41,.04-33.46-4.3-35.22-8.36Z"/><path class="j" d="M1256.32,932.1h0c-4.08-6.32,4.33-7.74,9.74-7.78l50.71-1.27c9.8-.07,12.14,5.18,12.17,9.43h0c2.93,7.69-4.33,7.74-9.74,7.78l-27.66,.2c-5.41,.04-33.46-4.3-35.22-8.36Z"/><path class="j" d="M1382.54,931.2h0c-4.08-6.32,4.33-7.74,9.74-7.78l50.71-1.27c9.8-.07,12.14,5.18,12.17,9.43h0c2.93,7.69-4.33,7.74-9.74,7.78l-27.66,.2c-5.41,.04-33.46-4.3-35.22-8.36Z"/><path class="j" d="M1495.5,930.4h0c-4.08-6.32,4.33-7.74,9.74-7.78l50.71-1.27c9.8-.07,12.14,5.18,12.17,9.43h0c2.93,7.69-4.33,7.74-9.74,7.78l-27.66,.2c-5.41,.04-33.46-4.3-35.22-8.36Z"/><path class="j" d="M658.4,935.59h0c-4.08-6.32,4.33-7.74,9.74-7.78l50.71-1.27c9.8-.07,12.14,5.18,12.17,9.43h0c2.93,7.69-4.33,7.74-9.74,7.78l-27.66,.2c-5.41,.04-33.46-4.3-35.22-8.36Z"/><path class="j" d="M775.4,934.76h0c-4.08-6.32,4.33-7.74,9.74-7.78l50.71-1.27c9.8-.07,12.14,5.18,12.17,9.43h0c2.93,7.69-4.33,7.74-9.74,7.78l-27.66,.2c-5.41,.04-33.46-4.3-35.22-8.36Z"/></g><g><path class="j" d="M1615.73,80.18h0c-4.08-6.32,4.33-7.74,9.74-7.78l50.71-1.27c9.8-.07,12.14,5.18,12.17,9.43h0c2.93,7.69-4.33,7.74-9.74,7.78l-27.66,.2c-5.41,.04-33.46-4.3-35.22-8.36Z"/><path class="j" d="M893.89,85.32h0c-4.08-6.32,4.33-7.74,9.74-7.78l50.71-1.27c9.8-.07,12.14,5.18,12.17,9.43h0c2.93,7.69-4.33,7.74-9.74,7.78l-27.66,.2c-5.41,.04-33.46-4.3-35.22-8.36Z"/><path class="j" d="M1010.88,84.49h0c-4.08-6.32,4.33-7.74,9.74-7.78l50.71-1.27c9.8-.07,12.14,5.18,12.17,9.43h0c2.93,7.69-4.33,7.74-9.74,7.78l-27.66,.2c-5.41,.04-33.46-4.3-35.22-8.36Z"/><path class="j" d="M1133.64,83.61h0c-4.08-6.32,4.33-7.74,9.74-7.78l50.71-1.27c9.8-.07,12.14,5.18,12.17,9.43h0c2.93,7.69-4.33,7.74-9.74,7.78l-27.66,.2c-5.41,.04-33.46-4.3-35.22-8.36Z"/><path class="j" d="M1265.05,82.68h0c-4.08-6.32,4.33-7.74,9.74-7.78l50.71-1.27c9.8-.07,12.14,5.18,12.17,9.43h0c2.93,7.69-4.33,7.74-9.74,7.78l-27.66,.2c-5.41,.04-33.46-4.3-35.22-8.36Z"/><path class="j" d="M1391.26,81.78h0c-4.08-6.32,4.33-7.74,9.74-7.78l50.71-1.27c9.8-.07,12.14,5.18,12.17,9.43h0c2.93,7.69-4.33,7.74-9.74,7.78l-27.66,.2c-5.41,.04-33.46-4.3-35.22-8.36Z"/><path class="j" d="M1504.23,80.98h0c-4.08-6.32,4.33-7.74,9.74-7.78l50.71-1.27c9.8-.07,12.14,5.18,12.17,9.43h0c2.93,7.69-4.33,7.74-9.74,7.78l-27.66,.2c-5.41,.04-33.46-4.3-35.22-8.36Z"/><path class="j" d="M667.13,86.17h0c-4.08-6.32,4.33-7.74,9.74-7.78l50.71-1.27c9.8-.07,12.14,5.18,12.17,9.43h0c2.93,7.69-4.33,7.74-9.74,7.78l-27.66,.2c-5.41,.04-33.46-4.3-35.22-8.36Z"/><path class="j" d="M784.13,85.33h0c-4.08-6.32,4.33-7.74,9.74-7.78l50.71-1.27c9.8-.07,12.14,5.18,12.17,9.43h0c2.93,7.69-4.33,7.74-9.74,7.78l-27.66,.2c-5.41,.04-33.46-4.3-35.22-8.36Z"/></g></g><g><g><path class="o" d="M904.88,298.58c-2.68-.14-4.09-.71-4.37-3.25-.56-6.35-.99-12.84-.99-19.61,0-33.02,8.32-69.7,37.96-86.35,1.41-.71,2.4-1.13,3.39-1.13,1.13,0,1.98,.42,3.25,1.13,26.81,17.21,36.83,48.11,36.83,85.65,0,6.07-.28,12.42-.99,19.19-.28,2.96-1.83,3.81-4.52,4.09-3.25,.28-7.2,.42-11.01,.42-4.66,0-9.17-.14-12.13-.42-1.83-.28-2.82-1.13-2.82-2.96,0-3.1,2.26-9.59,2.26-18.2,0-5.64-2.82-8.04-9.03-8.04-8.33,0-15.52,3.25-15.52,11.29,0,6.35,1.55,11.57,1.55,15.24,.14,1.55-.42,2.4-2.26,2.68-3.1,.28-7.34,.42-11.85,.42-3.53,0-6.49,0-9.74-.14Zm36.69-47.97c3.39-.28,5.64-.42,7.34-.71,1.69-.42,2.26-1.41,2.26-3.39,0-8.89-4.52-20.88-8.75-26.95-.71-.85-1.13-1.41-1.69-1.41-.71,0-1.27,.42-2.12,1.41-7.05,8.04-10.58,23-10.58,32.03,0,1.27,.56,1.69,1.41,1.69,1.69,0,6.07-2.26,12.13-2.68Z"/><path class="o" d="M1019.87,183.58c1.41,.28,2.12,1.41,2.12,2.96,0,3.25-5.22,15.1-5.22,24.13,0,2.26,.71,3.39,2.26,3.39,2.96,0,9.03-6.07,19.75-6.07,13.55,0,21.73,8.89,21.73,37.11,0,20.18-1.98,41.2-3.39,49.67-.42,2.68-1.83,3.81-3.81,3.95-1.69,0-4.8,.14-8.18,.14-3.81,0-8.18-.14-11.29-.42-1.83-.14-3.39-.71-3.39-3.25,0-3.39,3.67-25.82,3.67-43.32,0-15.8-2.12-19.19-7.34-19.19-5.93,0-10.16,5.36-10.16,21.02,0,22.15,1.41,37.39,1.41,41.34,0,2.68-1.83,3.25-3.67,3.53-2.54,.14-5.93,.28-9.45,.28s-7.34-.14-10.3-.28c-1.41-.14-2.82-.71-3.39-3.39-.71-5.93-1.27-18.2-1.27-33.3,0-22.58,1.27-50.65,5.22-73.79,.56-2.82,2.12-4.23,3.67-4.37,3.39-.42,7.34-.56,11.29-.56,3.39,0,6.77,0,9.74,.42Z"/><path class="o" d="M1099.73,183.58c1.41,.28,2.12,1.41,2.12,2.96,0,3.25-5.22,15.1-5.22,24.13,0,2.26,.71,3.39,2.26,3.39,2.96,0,9.03-6.07,19.75-6.07,13.55,0,21.73,8.89,21.73,37.11,0,20.18-1.98,41.2-3.39,49.67-.42,2.68-1.83,3.81-3.81,3.95-1.69,0-4.8,.14-8.18,.14-3.81,0-8.18-.14-11.29-.42-1.83-.14-3.39-.71-3.39-3.25,0-3.39,3.67-25.82,3.67-43.32,0-15.8-2.12-19.19-7.34-19.19-5.93,0-10.16,5.36-10.16,21.02,0,22.15,1.41,37.39,1.41,41.34,0,2.68-1.83,3.25-3.67,3.53-2.54,.14-5.93,.28-9.45,.28s-7.34-.14-10.3-.28c-1.41-.14-2.82-.71-3.39-3.39-.71-5.93-1.27-18.2-1.27-33.3,0-22.58,1.27-50.65,5.22-73.79,.56-2.82,2.12-4.23,3.67-4.37,3.39-.42,7.34-.56,11.29-.56,3.39,0,6.77,0,9.74,.42Z"/><path class="o" d="M1179.59,183.58c1.41,.28,2.12,1.41,2.12,2.96,0,3.25-5.22,15.1-5.22,24.13,0,2.26,.71,3.39,2.26,3.39,2.96,0,9.03-6.07,19.75-6.07,13.55,0,21.73,8.89,21.73,37.11,0,20.18-1.98,41.2-3.39,49.67-.42,2.68-1.83,3.81-3.81,3.95-1.69,0-4.8,.14-8.18,.14-3.81,0-8.18-.14-11.29-.42-1.83-.14-3.39-.71-3.39-3.25,0-3.39,3.67-25.82,3.67-43.32,0-15.8-2.12-19.19-7.34-19.19-5.93,0-10.16,5.36-10.16,21.02,0,22.15,1.41,37.39,1.41,41.34,0,2.68-1.83,3.25-3.67,3.53-2.54,.14-5.93,.28-9.45,.28s-7.34-.14-10.3-.28c-1.41-.14-2.82-.71-3.39-3.39-.71-5.93-1.27-18.2-1.27-33.3,0-22.58,1.27-50.65,5.22-73.79,.56-2.82,2.12-4.23,3.67-4.37,3.39-.42,7.34-.56,11.29-.56,3.39,0,6.77,0,9.74,.42Z"/><path class="o" d="M1321.96,244.53c0,21.45-2.12,44.02-2.96,49.95-.42,2.68-1.83,3.95-3.95,4.09-2.26,.28-5.36,.28-8.61,.28-3.53,0-6.91-.14-9.88-.28-2.26-.28-3.1-1.27-3.1-2.96,0-6.49,2.12-30.05,2.12-48.54,0-10.02-1.69-14.81-6.91-14.81-2.54,0-4.8,.85-6.49,2.54-2.4,2.26-3.39,6.21-3.39,16.51,0,21.17,1.98,39.37,1.98,43.6,0,2.54-1.13,3.53-3.67,3.67-2.54,.14-5.22,.28-7.9,.28-3.53,0-6.91-.14-9.45-.28-2.4-.14-3.95-.85-4.23-4.52-.99-10.86-1.69-24.69-1.69-40.64,0-11.43,.28-23.99,1.27-37.25,.28-4.52,2.96-5.64,6.63-6.07,2.54-.14,5.5-.28,8.32-.28,2.4,0,4.8,.14,6.49,.28,2.54,.14,3.53,1.27,3.53,3.25s.71,2.68,1.98,2.68c4.23,0,9.59-7.48,20.18-7.48,13.4,0,19.75,9.74,19.75,35.98Z"/><path class="o" d="M1362.46,300.41c-25.4,0-33.86-19.47-33.86-43.18,0-34.85,17.78-49.1,38.94-49.1,14.25,0,25.4,7.62,25.4,23.42,0,24.13-20.18,26.95-32.59,32.45-4.37,1.55-6.21,2.82-6.21,5.22,0,4.09,2.96,7.34,9.74,7.34,9.74,0,18.62-4.23,24.13-11.43,.85-.71,1.41-1.13,2.12-1.13,1.98,0,3.53,3.67,3.53,10.3,0,16.37-14.53,26.1-31.18,26.1Zm1.98-72.67c-7.76,0-13.12,8.47-13.12,18.2,0,1.41,.42,2.54,1.69,2.54,.85,0,1.83-.28,2.68-.71,5.64-3.39,15.24-6.91,15.24-13.69,0-3.67-2.4-6.35-6.49-6.35Z"/><path class="o" d="M1432.16,214.2c1.69,12.7,2.26,27.51,2.26,39.51,0,37.53-7.2,46.99-22.43,46.99-7.76,0-12.42-1.69-13.97-2.54-.99-.56-1.55-1.55-1.55-3.53,0-4.8,.99-13.69,1.83-16.65,.42-1.41,1.27-2.12,2.26-2.4,1.41-.14,2.26,.42,3.53-.14,2.26-.85,2.96-4.09,2.96-11.99,0-21.45-1.41-43.74-1.41-48.11,0-2.4,.56-3.81,2.82-4.52,2.12-.71,6.49-.85,11.01-.85,3.39,0,6.63,.14,9.03,.42,2.54,.28,3.39,1.55,3.67,3.81Zm-28.5-21.45c0-7.48,4.94-12.13,15.38-12.13,11.01,0,15.38,4.66,15.38,12.13s-4.37,11.57-15.38,11.57-15.38-4.23-15.38-11.57Z"/><path class="o" d="M1475.48,191.2c1.98,.28,2.68,1.41,2.68,2.96,0,3.67-5.64,17.21-7.76,65.33-.14,3.81-1.69,4.94-8.61,5.64-2.12,.28-3.95,.28-5.5,.28-3.53,0-5.22-.71-5.93-3.25-3.1-11.99-5.08-25.26-5.93-41.06-.42-8.47-.56-15.38-.56-24.27,.14-3.1,.85-5.36,5.36-5.79,3.39-.28,8.04-.42,12.84-.42s9.88,.14,13.4,.56Zm-30.9,94.68c0-9.17,6.07-14.53,15.52-14.53s15.52,5.36,15.52,14.53-5.64,13.83-15.52,13.83-15.52-4.8-15.52-13.83Z"/></g><path class="o" d="M928.31,172.41c0-9.44,4.05-15.83,12.11-15.83s11.39,6.1,11.39,15.83c0,10.82-5.24,15.4-12.06,15.4s-11.44-4.58-11.44-15.4Zm15.11-.67c0-5.48-1.24-8.06-3.34-8.06-2.24,0-3.43,2.57-3.43,8.06s.95,7.82,3.38,7.82,3.38-2.48,3.38-7.82Z"/></g><g><g><path class="o" d="M829.11,402.87c-.29-.29-.52-.46-.75-.46s-.46,.17-.75,.46c-2.06,2.29-4.24,4.41-6.65,6.08-.52,.34-.97,.52-1.49,.52-.46,0-.97-.17-1.6-.52-9.28-5.27-14.04-15.53-14.04-30.78,0-3.9,.29-8.14,.92-12.67,.11-.75,.75-1.15,1.38-1.2,1.66-.11,3.84-.17,6.07-.17,1.72,0,3.5,.06,4.87,.17,1.03,.06,1.38,.52,1.38,1.32,0,.75-.75,7.79-.75,15.13,0,5.44,.75,8.02,1.55,9.74,.23,.4,.46,.63,.75,.63,.23,0,.52-.23,.69-.63,.92-1.38,1.43-5.1,1.43-9.69,0-6.82-.92-14.27-.92-15.42,0-.69,.29-1.03,1.15-1.09,1.43-.11,3.67-.17,5.9-.17,2.35,0,4.76,.06,6.36,.17,1.03,.06,1.38,.52,1.38,1.32,0,.75-.8,8.94-.8,15.13,0,5.44,.69,8.02,1.49,9.74,.23,.4,.46,.63,.75,.63s.52-.23,.74-.63c.86-1.38,1.38-5.1,1.38-9.69,0-6.71-.63-14.27-.63-15.42,0-.69,.29-1.03,1.15-1.09,1.2-.06,2.92-.11,4.64-.11,2.29,0,4.64,0,6.08,.11,1.15,.06,1.89,.57,2.06,1.89,.52,3.73,.75,7.28,.75,10.55,0,16.33-5.73,27.45-14.04,32.21-.57,.34-1.03,.52-1.55,.52-.46,0-.97-.17-1.55-.52-2.75-1.55-4.87-3.32-7.34-6.08Z"/><path class="o" d="M868.88,409.06c-11,0-14.5-8.48-14.5-17.65,0-15.02,7.68-20.75,16.56-20.75,6.36,0,11.06,3.32,11.06,10.09,0,9.63-6.82,11.58-11.92,12.9-2.23,.57-3.09,.97-3.09,1.89,0,.86,.75,1.38,2.64,1.38,3.73,0,7.91-1.49,10.32-3.38,.4-.34,.75-.52,1.03-.52,.86,0,1.49,1.66,1.49,4.58,0,7.28-6.42,11.46-13.58,11.46Zm.29-28.77c-1.83,0-3.5,2.29-3.5,4.81,0,.52,.11,.92,.57,.92s.92-.17,1.38-.4c1.49-.8,3.44-1.78,3.44-3.5,0-.97-.63-1.83-1.89-1.83Z"/><path class="o" d="M893.92,391.63c0-12.95,4.07-20.92,9.91-20.92,2.69,0,4.76,1.78,5.96,3.04,.17,.17,.34,.23,.52,.23,.34,0,.63-.23,.63-.75,0-2.46-1.55-9.46-1.55-10.49,0-.8,.69-1.26,1.6-1.32,1.26-.06,2.58-.11,3.95-.11,2.06,0,4.24,.06,6.25,.23,1.15,.11,1.83,.4,2.06,2.12,.63,4.7,1.2,14.9,1.2,24.53,0,6.36-.23,12.44-.86,16.62-.11,.92-.75,1.72-1.89,2.18-2.01,.75-5.67,1.55-12.67,1.55-10.66,0-15.13-4.47-15.13-16.91Zm17.48-3.5c0-5.56-.57-7.22-2.01-7.22-1.2,0-1.95,1.66-1.95,9.11s.69,9.11,1.95,9.11,2.01-1.72,2.01-11Z"/><path class="o" d="M926.41,389.8c0-11.46,5.16-19.14,15.47-19.14s14.44,7.39,14.44,19.14c0,13.47-6.94,19.26-15.36,19.26s-14.56-5.79-14.56-19.26Zm17.37-1.03c0-5.5-.86-7.68-2.46-7.68s-2.46,2.18-2.46,7.68,.69,7.85,2.46,7.85,2.46-2.29,2.46-7.85Z"/><path class="o" d="M988.02,385.33c0,9.17-.86,18.51-1.2,21.03-.17,1.2-.8,1.78-1.72,1.83-1.2,.11-2.92,.11-4.7,.11s-3.5,0-5.04-.11c-1.03-.06-1.38-.52-1.38-1.2,0-3.27,.69-13.58,.69-19.26,0-3.44-.69-4.7-1.78-4.7-.46,0-.86,.11-1.15,.4-.69,.69-.8,2.06-.8,4.76,0,9.8,.8,16.51,.8,18.51,0,1.03-.52,1.43-1.6,1.49-1.38,.06-2.87,.11-4.3,.11-1.89,0-3.67-.06-4.99-.11-1.09-.06-1.78-.4-1.89-2.01-.34-4.53-.63-10.26-.63-16.85,0-4.58,.11-9.63,.52-14.96,.11-2.01,1.43-2.58,3.15-2.75,1.32-.11,2.98-.17,4.47-.17,1.26,0,2.46,.06,3.27,.11,1.2,.11,1.6,.57,1.6,1.43s.34,1.15,.97,1.15c2.01,0,3.67-3.21,8.08-3.21,5.33,0,7.62,3.95,7.62,14.39Z"/><path class="o" d="M987.33,361.31c.63-.8,3.61-3.04,5.39-3.95,.46-.23,1.03-.46,1.66-.46,2.01,0,4.58,2.52,4.58,6.71,0,6.88-6.93,9.92-9.74,9.92-.52,0-.97-.46-.97-1.15s.17-1.38,.17-2.12c0-5.04-1.66-6.53-1.66-7.57,0-.4,.17-.86,.57-1.38Z"/><path class="o" d="M1013.4,364.35c-.23,.69-1.72,4.3-1.72,6.59,0,.57,.29,.86,1.15,.86,.34,0,1.09-.29,1.6-.29s.8,.4,.97,1.09c.23,1.2,.4,3.09,.4,5.16,0,1.95-.17,4.07-.57,5.9-.11,.52-.46,.69-.86,.69-.52,0-1.15-.23-1.83-.23-.97,0-1.2,.69-1.26,1.66-.06,.69-.06,1.43-.06,2.18,0,5.79,1.6,11.81,2.92,16.56,.11,.46,.34,.92,.34,1.26,0,.46-.29,.75-.69,1.03-2.58,1.78-9,3.04-12.32,3.04-.8,0-1.26-.17-1.49-.8-1.03-2.58-1.83-10.09-1.89-16.68,0-2.58,.11-5.1,.11-6.59,0-.92-.23-1.32-.8-1.32-.29,0-.52,.06-.75,.06-.46,0-.8-.4-.92-1.09-.06-.46-.11-1.09-.11-1.78,0-3.04,.34-6.71,.69-8.71,.17-1.09,.63-1.38,1.2-1.38,.29,0,.46,.06,.75,.06,1.55,0,1.55-1.38,2.01-4.7,.06-.52,.46-1.15,1.15-1.49,3.32-1.72,9.86-2.29,11.29-2.29,.69,0,.92,.57,.69,1.2Z"/><path class="o" d="M1041.71,361.6c.63,.11,.92,.63,.92,1.2,0,1.2-2.18,5.33-2.18,9.11,0,.92,.34,1.32,.97,1.32,1.03,0,3.5-2.58,7.85-2.58,5.44,0,8.94,3.73,8.94,15.99,0,8.25-.8,16.28-1.49,20.12-.17,1.03-.74,1.43-1.49,1.49-.86,0-2.46,.06-4.3,.06-2.12,0-4.47-.06-6.19-.17-.63-.06-1.38-.23-1.38-1.43,0-1.38,1.38-10.03,1.38-16.85,0-5.56-.52-6.48-1.78-6.48-1.6,0-2.29,1.72-2.29,7.28,0,10.2,.46,14.61,.46,16.1,0,1.2-.92,1.38-1.6,1.43-1.32,.11-3.15,.17-5.1,.17s-3.84-.06-5.44-.17c-.46-.06-1.09-.17-1.32-1.09-.29-1.2-.57-5.85-.57-12.21,0-8.77,.52-20.86,2.06-31.52,.17-1.09,.86-1.72,1.43-1.78,1.78-.17,3.9-.23,5.96-.23,1.89,0,3.73,0,5.16,.23Z"/><path class="o" d="M1059.53,396.73c0-8.77,6.71-11.92,13.12-12.9,1.89-.29,3.04-.52,3.04-1.49,0-.57-.46-1.2-2.35-1.2-2.98,0-6.19,1.2-9.23,3.78-.34,.34-.75,.52-1.03,.52s-.57-.11-.8-.34c-1.38-1.26-2.69-3.55-2.69-6.65,0-4.58,5.33-7.79,14.56-7.79,10.37,0,14.04,4.93,14.04,13.7,0,2.18-.23,8.2-.23,13.07,0,3.55,.4,7.39,.4,8.54,0,1.03-.52,1.66-1.49,1.83-2.06,.4-8.71,.46-13.35,.46-8.94,0-13.98-3.27-13.98-11.52Zm16.28-3.04c0-1.89-.17-2.35-1.09-2.35-1.55,0-3.15,1.43-3.15,3.38,0,1.78,1.26,2.81,2.64,2.81,1.2,0,1.6-.75,1.6-2.52v-1.32Z"/><path class="o" d="M1105.49,408.42c-.52,.23-.97,.46-1.49,.46-.46,0-.97-.17-1.55-.46-8.42-4.36-12.67-12.61-12.67-31.24,0-1.09,0-2.24,.06-3.38,.06-1.43,.4-2.01,2.06-2.18,1.32-.17,3.38-.23,5.39-.23s3.95,.06,5.1,.23c.52,.06,.92,.46,.92,1.26,0,2.24-.52,7.56-.52,12.55,0,3.09,.23,5.96,.92,7.57,.17,.4,.4,.52,.69,.52s.57-.17,.75-.52c.8-1.72,1.03-5.04,1.03-8.54,0-5.1-.46-10.26-.46-11.63,0-.92,.4-1.2,1.03-1.26,1.15-.17,2.98-.23,4.81-.23s3.73,.06,5.04,.23c1.6,.17,1.83,.69,1.95,2.35,.06,1.09,.06,2.12,.06,3.15,0,19.31-4.7,27.22-13.12,31.35Z"/><path class="o" d="M1133.97,409.06c-11,0-14.5-8.48-14.5-17.65,0-15.02,7.68-20.75,16.56-20.75,6.36,0,11.06,3.32,11.06,10.09,0,9.63-6.82,11.58-11.92,12.9-2.24,.57-3.1,.97-3.1,1.89,0,.86,.75,1.38,2.64,1.38,3.73,0,7.91-1.49,10.32-3.38,.4-.34,.75-.52,1.03-.52,.86,0,1.49,1.66,1.49,4.58,0,7.28-6.42,11.46-13.58,11.46Zm.29-28.77c-1.83,0-3.5,2.29-3.5,4.81,0,.52,.11,.92,.57,.92s.92-.17,1.38-.4c1.49-.8,3.44-1.78,3.44-3.5,0-.97-.63-1.83-1.89-1.83Z"/><path class="o" d="M1172.94,409.06c-11,0-14.5-8.48-14.5-17.65,0-15.02,7.68-20.75,16.56-20.75,6.36,0,11.06,3.32,11.06,10.09,0,9.63-6.82,11.58-11.92,12.9-2.23,.57-3.09,.97-3.09,1.89,0,.86,.75,1.38,2.64,1.38,3.73,0,7.91-1.49,10.32-3.38,.4-.34,.75-.52,1.03-.52,.86,0,1.49,1.66,1.49,4.58,0,7.28-6.42,11.46-13.58,11.46Zm.29-28.77c-1.83,0-3.5,2.29-3.5,4.81,0,.52,.11,.92,.57,.92s.92-.17,1.38-.4c1.49-.8,3.44-1.78,3.44-3.5,0-.97-.63-1.83-1.89-1.83Z"/><path class="o" d="M1218.1,385.33c0,9.17-.86,18.51-1.2,21.03-.17,1.2-.8,1.78-1.72,1.83-1.2,.11-2.92,.11-4.7,.11s-3.5,0-5.04-.11c-1.03-.06-1.38-.52-1.38-1.2,0-3.27,.69-13.58,.69-19.26,0-3.44-.69-4.7-1.78-4.7-.46,0-.86,.11-1.15,.4-.69,.69-.8,2.06-.8,4.76,0,9.8,.8,16.51,.8,18.51,0,1.03-.52,1.43-1.6,1.49-1.38,.06-2.87,.11-4.3,.11-1.89,0-3.67-.06-4.99-.11-1.09-.06-1.78-.4-1.89-2.01-.34-4.53-.63-10.26-.63-16.85,0-4.58,.11-9.63,.52-14.96,.11-2.01,1.43-2.58,3.15-2.75,1.32-.11,2.98-.17,4.47-.17,1.26,0,2.46,.06,3.27,.11,1.2,.11,1.6,.57,1.6,1.43s.34,1.15,.97,1.15c2.01,0,3.67-3.21,8.08-3.21,5.33,0,7.62,3.95,7.62,14.39Z"/><path class="o" d="M1219.81,389.8c0-11.46,5.16-19.14,15.47-19.14s14.44,7.39,14.44,19.14c0,13.47-6.94,19.26-15.36,19.26s-14.56-5.79-14.56-19.26Zm17.37-1.03c0-5.5-.86-7.68-2.46-7.68s-2.46,2.18-2.46,7.68,.69,7.85,2.46,7.85,2.46-2.29,2.46-7.85Z"/><path class="o" d="M1251.73,389.23c0-4.01,.86-13.35,1.2-15.88,.17-1.2,.8-1.72,1.72-1.83,1.49-.11,3.32-.17,5.04-.17s3.32,.06,4.64,.17c1.09,.11,1.38,.57,1.38,1.38,0,2.06-.63,11.92-.63,19.08,0,3.44,.69,4.7,1.78,4.7,.4,0,.75-.11,1.03-.4,.69-.69,.92-2.06,.92-4.76,0-11.12-.63-17.14-.69-18.23-.11-1.2,.4-1.66,1.6-1.78,1.09-.11,2.46-.17,3.95-.17,1.89,0,3.84,.06,5.22,.17,1.09,.06,1.72,.4,1.89,2.01,.57,4.64,.8,9.28,.8,14.56s-.23,10.77-.69,17.25c-.11,2.01-1.43,2.58-3.15,2.75-1.15,.11-2.64,.17-3.9,.17-.92,0-1.78-.06-2.35-.11-1.2-.11-1.6-.52-1.6-1.43,0-.86-.34-1.15-.97-1.15-1.89,0-4.3,3.21-8.48,3.21-6.36,0-8.71-3.95-8.71-19.54Z"/><path class="o" d="M1298.15,370.66c2.35,0,2.92,.06,4.13,.06,1.89,0,2.81-2.64,4.36-4.58,.34-.46,.86-.69,1.38-.69,1.6,0,6.19,4.36,6.19,5.9,0,.34-.17,.75-.57,.97-1.26,.69-2.58,1.32-2.58,2.81,0,1.66,2.52,2.46,2.52,8.42,0,6.71-4.47,11.23-14.27,11.23-4.24,0-5.33,.8-5.33,1.95,0,.69,.46,1.09,1.66,1.09,2.29,0,6.99-2.29,11.69-2.29,2.41,0,4.41,.52,5.79,1.43,.8,.52,.97,1.32,.97,2.12,0,3.1-1.6,9.69-3.67,9.69-.46,0-.92-.11-1.38-.23-1.09-.34-2.52-.69-4.99-.69-3.55,0-6.36,1.2-11.23,1.2-5.96,0-9.34-2.69-9.34-7.57,0-3.78,2.01-6.42,3.84-7.91,.46-.4,.69-.69,.69-.97s-.23-.57-.52-.92c-1.43-1.49-3.32-4.47-3.32-8.88,0-7.62,5.73-12.15,13.98-12.15Zm.97,13.87c1.38,0,2.52-.97,2.52-2.64s-1.15-2.64-2.52-2.64-2.52,.97-2.52,2.64c0,1.55,.97,2.64,2.52,2.64Z"/><path class="o" d="M1330.58,361.6c.63,.11,.92,.63,.92,1.2,0,1.2-2.18,5.33-2.18,9.11,0,.92,.34,1.32,.97,1.32,1.03,0,3.5-2.58,7.85-2.58,5.44,0,8.94,3.73,8.94,15.99,0,8.25-.8,16.28-1.49,20.12-.17,1.03-.75,1.43-1.49,1.49-.86,0-2.46,.06-4.3,.06-2.12,0-4.47-.06-6.19-.17-.63-.06-1.38-.23-1.38-1.43,0-1.38,1.38-10.03,1.38-16.85,0-5.56-.52-6.48-1.78-6.48-1.6,0-2.29,1.72-2.29,7.28,0,10.2,.46,14.61,.46,16.1,0,1.2-.92,1.38-1.6,1.43-1.32,.11-3.15,.17-5.1,.17s-3.84-.06-5.44-.17c-.46-.06-1.09-.17-1.32-1.09-.29-1.2-.57-5.85-.57-12.21,0-8.77,.52-20.86,2.06-31.52,.17-1.09,.86-1.72,1.43-1.78,1.78-.17,3.9-.23,5.96-.23,1.89,0,3.73,0,5.16,.23Z"/><path class="o" d="M1365.94,364.35c-.23,.69-1.72,4.3-1.72,6.59,0,.57,.29,.86,1.15,.86,.34,0,1.09-.29,1.6-.29s.8,.4,.97,1.09c.23,1.2,.4,3.09,.4,5.16,0,1.95-.17,4.07-.57,5.9-.11,.52-.46,.69-.86,.69-.52,0-1.15-.23-1.83-.23-.97,0-1.2,.69-1.26,1.66-.06,.69-.06,1.43-.06,2.18,0,5.79,1.6,11.81,2.92,16.56,.11,.46,.34,.92,.34,1.26,0,.46-.29,.75-.69,1.03-2.58,1.78-9,3.04-12.32,3.04-.8,0-1.26-.17-1.49-.8-1.03-2.58-1.83-10.09-1.89-16.68,0-2.58,.11-5.1,.11-6.59,0-.92-.23-1.32-.8-1.32-.29,0-.52,.06-.75,.06-.46,0-.8-.4-.92-1.09-.06-.46-.11-1.09-.11-1.78,0-3.04,.34-6.71,.69-8.71,.17-1.09,.63-1.38,1.2-1.38,.29,0,.46,.06,.75,.06,1.55,0,1.55-1.38,2.01-4.7,.06-.52,.46-1.15,1.15-1.49,3.32-1.72,9.86-2.29,11.29-2.29,.69,0,.92,.57,.69,1.2Z"/><path class="o" d="M1394.54,408.2c-1.78,.11-3.9,.17-6.08,.17s-4.24-.06-6.08-.17c-.57-.06-1.49-.34-1.6-1.66-.46-4.7-.63-10.2-.63-15.93,0-9.34,.57-19.43,1.78-27.8,.17-1.2,.92-1.43,1.66-1.49,1.72-.11,3.44-.17,5.16-.17s3.5,.06,5.16,.17c.92,.06,1.49,.4,1.49,1.2,0,.97-1.09,12.09-1.09,21.03,0,10.37,1.38,21.78,1.38,23.44,0,.75-.52,1.15-1.15,1.2Z"/><path class="o" d="M1411.38,409.06c-11,0-14.5-8.48-14.5-17.65,0-15.02,7.68-20.75,16.56-20.75,6.36,0,11.06,3.32,11.06,10.09,0,9.63-6.82,11.58-11.92,12.9-2.23,.57-3.09,.97-3.09,1.89,0,.86,.75,1.38,2.64,1.38,3.73,0,7.91-1.49,10.32-3.38,.4-.34,.75-.52,1.03-.52,.86,0,1.49,1.66,1.49,4.58,0,7.28-6.42,11.46-13.58,11.46Zm.29-28.77c-1.83,0-3.5,2.29-3.5,4.81,0,.52,.11,.92,.57,.92s.92-.17,1.38-.4c1.49-.8,3.44-1.78,3.44-3.5,0-.97-.63-1.83-1.89-1.83Z"/><path class="o" d="M1438.09,408.2c-.97,.11-2.24,.11-3.61,.11-1.55,0-3.21,0-4.99-.11-1.09-.06-1.78-.4-1.89-2.01-.4-4.87-.75-10.43-.75-17.02,0-4.47,.17-9.4,.63-14.96,.17-2.01,1.43-2.58,3.15-2.75,1.09-.11,2.64-.17,4.18-.17,1.78,0,3.5,.06,4.24,.17,.86,.11,1.15,.46,1.15,1.03,0,.52-.34,1.26-.34,1.89,0,.34,.23,.57,.63,.57,1.55,0,3.55-4.01,7.34-4.01s4.99,2.64,6.42,2.64c1.6,0,3.9-2.64,8.2-2.64,6.76,0,9.69,6.59,9.69,19.31,0,8.94-.57,14.5-1.15,16.39-.34,1.15-1.38,1.49-2.24,1.55-1.09,.06-2.64,.11-4.24,.11s-3.44-.06-5.16-.11c-1.43-.06-1.83-.75-1.83-1.72,0-1.66,1.03-7.05,1.03-16.33,0-4.99-.34-7.11-1.66-7.11-1.15,0-1.72,1.15-1.72,4.47,0,3.5,.06,5.33,.06,8.37,0,4.99-.34,8.83-.57,10.49-.17,1.2-.8,1.78-1.72,1.83-1.26,.11-3.04,.17-4.87,.17-1.49,0-3.09-.06-4.53-.17-1.09-.06-1.38-.57-1.38-1.38,0-.86,.34-11.58,.34-19.2,0-3.44-.57-4.58-1.83-4.58-1.03,0-1.66,1.32-1.66,5.16,0,11.06,.75,17.14,.75,18.51,0,1.03-.57,1.38-1.66,1.49Z"/><path class="o" d="M1473.85,389.8c0-11.46,5.16-19.14,15.47-19.14s14.44,7.39,14.44,19.14c0,13.47-6.94,19.26-15.36,19.26s-14.56-5.79-14.56-19.26Zm17.37-1.03c0-5.5-.86-7.68-2.46-7.68s-2.46,2.18-2.46,7.68,.69,7.85,2.46,7.85,2.46-2.29,2.46-7.85Z"/><path class="o" d="M1535.45,385.33c0,9.17-.86,18.51-1.2,21.03-.17,1.2-.8,1.78-1.72,1.83-1.2,.11-2.92,.11-4.7,.11s-3.5,0-5.04-.11c-1.03-.06-1.38-.52-1.38-1.2,0-3.27,.69-13.58,.69-19.26,0-3.44-.69-4.7-1.78-4.7-.46,0-.86,.11-1.15,.4-.69,.69-.8,2.06-.8,4.76,0,9.8,.8,16.51,.8,18.51,0,1.03-.52,1.43-1.6,1.49-1.38,.06-2.87,.11-4.3,.11-1.89,0-3.67-.06-4.99-.11-1.09-.06-1.78-.4-1.89-2.01-.34-4.53-.63-10.26-.63-16.85,0-4.58,.11-9.63,.52-14.96,.11-2.01,1.43-2.58,3.15-2.75,1.32-.11,2.98-.17,4.47-.17,1.26,0,2.46,.06,3.27,.11,1.2,.11,1.6,.57,1.6,1.43s.34,1.15,.97,1.15c2.01,0,3.67-3.21,8.08-3.21,5.33,0,7.62,3.95,7.62,14.39Z"/><path class="o" d="M1549.43,398.45c1.09,0,1.49-.34,1.49-1.09,0-.92-.92-1.55-3.15-2.58-5.27-2.46-10.37-4.87-10.37-12.26s5.73-11.86,14.5-11.86c4.01,0,8.2,.92,10.26,2.06,.92,.52,1.09,1.09,1.09,2.01,0,2.75-.92,6.93-1.89,9.34-.23,.57-.57,.8-.97,.8-.29,0-.57-.11-.8-.29-2.41-1.83-6.53-4.13-9.23-4.13-1.2,0-1.66,.46-1.66,1.09,0,.86,.8,1.32,3.27,2.35,4.76,2.01,11.63,4.81,11.63,12.55,0,8.54-5.39,12.61-13.24,12.61s-13.35-3.55-13.35-10.26c0-2.75,.69-4.64,1.15-5.44,.23-.4,.52-.63,.86-.63,.29,0,.57,.11,.8,.4,2.06,2.29,6.25,5.33,9.63,5.33Z"/><path class="o" d="M823.89,430.25c-.11,2.01-.52,5.56-.97,7.11-.17,.52-.4,.69-.75,.69-.46,0-1.32-.34-2.12-.34-1.03,0-1.6,.52-1.6,1.43,0,.8,.57,1.32,1.89,1.32,.75,0,1.66-.17,2.18-.17,.57,0,.8,.4,.97,1.09,.17,1.15,.4,2.98,.4,4.99s-.17,4.24-.57,6.19c-.11,.52-.46,.69-.86,.69-.52,0-1.2-.34-1.89-.34-.57,0-.8,.4-.92,1.66-.06,.52-.06,1.2-.06,2.12,0,4.99,.52,11.12,1.49,18.68,.11,.69,.06,1.32-.52,1.43-1.6,.34-4.3,.46-6.99,.46-1.95,0-3.9,0-5.39-.11-.8-.06-1.43-.17-1.49-.8-.4-3.61-.52-7.22-.52-10.49,0-5.44,.34-9.8,.34-11.29,0-.86-.23-1.49-1.03-1.49h-.69c-.57,0-1.03-.4-1.09-1.15-.06-.63-.11-1.55-.11-2.52,0-3.15,.29-6.71,.8-8.2,.17-.52,.52-.75,1.09-.75,.29,0,.69,.06,.86,.06,1.2,0,1.09-1.43,1.66-4.81,.69-4.07,3.38-7.57,10.32-7.57,3.32,0,4.47,.46,4.93,.69,.4,.23,.69,.63,.63,1.43Z"/><path class="o" d="M824.06,458.57c0-11.46,5.16-19.14,15.47-19.14s14.44,7.39,14.44,19.14c0,13.47-6.93,19.26-15.36,19.26s-14.56-5.79-14.56-19.26Zm17.37-1.03c0-5.5-.86-7.68-2.46-7.68s-2.46,2.18-2.46,7.68,.69,7.85,2.46,7.85,2.46-2.29,2.46-7.85Z"/><path class="o" d="M869.85,476.91c-1.38,.11-3.09,.11-4.99,.11s-3.95,0-6.08-.11c-.86-.06-1.43-.57-1.66-1.55-.69-2.92-1.2-9-1.2-16.79,0-9.97,.46-14.67,.97-16.68,.23-.86,.63-1.2,1.09-1.38,.8-.23,3.27-.46,5.56-.46,1.32,0,2.58,.06,3.38,.23,.63,.11,.86,.52,.92,1.32,.06,.63,.34,.86,.63,.86s.63-.23,1.03-.57c.8-.69,1.78-1.83,2.98-1.83s1.95,1.78,1.95,7.74c0,2.58-.17,5.16-.63,6.42-.34,1.03-.8,1.26-1.32,1.26s-1.09-.63-1.95-.63-1.49,.86-1.49,3.78c0,5.79,2.58,15.76,2.58,16.91,0,.75-.46,1.26-1.78,1.38Z"/><path class="o" d="M885.55,458.57c0-11.46,5.16-19.14,15.47-19.14s14.44,7.39,14.44,19.14c0,13.47-6.94,19.26-15.36,19.26s-14.56-5.79-14.56-19.26Zm17.37-1.03c0-5.5-.86-7.68-2.46-7.68s-2.46,2.18-2.46,7.68,.69,7.85,2.46,7.85,2.46-2.29,2.46-7.85Z"/><path class="o" d="M917.47,457.99c0-4.01,.86-13.35,1.2-15.88,.17-1.2,.8-1.72,1.72-1.83,1.49-.11,3.32-.17,5.04-.17s3.32,.06,4.64,.17c1.09,.11,1.38,.57,1.38,1.38,0,2.06-.63,11.92-.63,19.08,0,3.44,.69,4.7,1.78,4.7,.4,0,.75-.11,1.03-.4,.69-.69,.92-2.06,.92-4.76,0-11.12-.63-17.14-.69-18.23-.11-1.2,.4-1.66,1.6-1.78,1.09-.11,2.46-.17,3.95-.17,1.89,0,3.84,.06,5.22,.17,1.09,.06,1.72,.4,1.89,2.01,.57,4.64,.8,9.28,.8,14.56s-.23,10.77-.69,17.25c-.11,2.01-1.43,2.58-3.15,2.75-1.15,.11-2.64,.17-3.9,.17-.92,0-1.78-.06-2.35-.11-1.2-.11-1.6-.52-1.6-1.43,0-.86-.34-1.15-.97-1.15-1.89,0-4.3,3.21-8.48,3.21-6.36,0-8.71-3.95-8.71-19.54Z"/><path class="o" d="M964.18,476.91c-1.38,.11-3.09,.11-4.99,.11s-3.95,0-6.08-.11c-.86-.06-1.43-.57-1.66-1.55-.69-2.92-1.2-9-1.2-16.79,0-9.97,.46-14.67,.97-16.68,.23-.86,.63-1.2,1.09-1.38,.8-.23,3.27-.46,5.56-.46,1.32,0,2.58,.06,3.38,.23,.63,.11,.86,.52,.92,1.32,.06,.63,.34,.86,.63,.86s.63-.23,1.03-.57c.8-.69,1.78-1.83,2.98-1.83s1.95,1.78,1.95,7.74c0,2.58-.17,5.16-.63,6.42-.34,1.03-.8,1.26-1.32,1.26s-1.09-.63-1.95-.63-1.49,.86-1.49,3.78c0,5.79,2.58,15.76,2.58,16.91,0,.75-.46,1.26-1.78,1.38Z"/><path class="o" d="M995.35,476.96c-1.78,.11-3.9,.17-6.08,.17s-4.24-.06-6.08-.17c-.57-.06-1.49-.34-1.6-1.66-.46-4.7-.63-10.2-.63-15.93,0-9.34,.57-19.43,1.78-27.8,.17-1.2,.92-1.43,1.66-1.49,1.72-.11,3.44-.17,5.16-.17s3.5,.06,5.16,.17c.92,.06,1.49,.4,1.49,1.2,0,.97-1.09,12.09-1.09,21.03,0,10.37,1.38,21.78,1.38,23.44,0,.75-.52,1.15-1.15,1.2Z"/><path class="o" d="M1012.2,477.82c-11,0-14.5-8.48-14.5-17.65,0-15.02,7.68-20.75,16.56-20.75,6.36,0,11.06,3.32,11.06,10.09,0,9.63-6.82,11.58-11.92,12.9-2.24,.57-3.1,.97-3.1,1.89,0,.86,.75,1.38,2.64,1.38,3.73,0,7.91-1.49,10.32-3.38,.4-.34,.75-.52,1.03-.52,.86,0,1.49,1.66,1.49,4.58,0,7.28-6.42,11.46-13.58,11.46Zm.29-28.77c-1.83,0-3.5,2.29-3.5,4.81,0,.52,.11,.92,.57,.92s.92-.17,1.38-.4c1.49-.8,3.44-1.78,3.44-3.5,0-.97-.63-1.83-1.89-1.83Z"/><path class="o" d="M1038.9,476.96c-.97,.11-2.24,.11-3.61,.11-1.55,0-3.21,0-4.99-.11-1.09-.06-1.78-.4-1.89-2.01-.4-4.87-.75-10.43-.75-17.02,0-4.47,.17-9.4,.63-14.96,.17-2.01,1.43-2.58,3.15-2.75,1.09-.11,2.64-.17,4.18-.17,1.78,0,3.5,.06,4.24,.17,.86,.11,1.15,.46,1.15,1.03,0,.52-.34,1.26-.34,1.89,0,.34,.23,.57,.63,.57,1.55,0,3.55-4.01,7.34-4.01s4.99,2.64,6.42,2.64c1.6,0,3.9-2.64,8.2-2.64,6.76,0,9.69,6.59,9.69,19.31,0,8.94-.57,14.5-1.15,16.39-.34,1.15-1.38,1.49-2.24,1.55-1.09,.06-2.64,.11-4.24,.11s-3.44-.06-5.16-.11c-1.43-.06-1.83-.75-1.83-1.72,0-1.66,1.03-7.05,1.03-16.33,0-4.99-.34-7.11-1.66-7.11-1.15,0-1.72,1.15-1.72,4.47,0,3.5,.06,5.33,.06,8.37,0,4.99-.34,8.83-.57,10.49-.17,1.2-.8,1.78-1.72,1.83-1.26,.11-3.04,.17-4.87,.17-1.49,0-3.09-.06-4.53-.17-1.09-.06-1.38-.57-1.38-1.38,0-.86,.34-11.58,.34-19.2,0-3.44-.57-4.58-1.83-4.58-1.03,0-1.66,1.32-1.66,5.16,0,11.06,.75,17.14,.75,18.51,0,1.03-.57,1.38-1.66,1.49Z"/><path class="o" d="M1074.66,458.57c0-11.46,5.16-19.14,15.47-19.14s14.44,7.39,14.44,19.14c0,13.47-6.93,19.26-15.36,19.26s-14.56-5.79-14.56-19.26Zm17.37-1.03c0-5.5-.86-7.68-2.46-7.68s-2.46,2.18-2.46,7.68,.69,7.85,2.46,7.85,2.46-2.29,2.46-7.85Z"/><path class="o" d="M1136.27,454.1c0,9.17-.86,18.51-1.2,21.03-.17,1.2-.8,1.78-1.72,1.83-1.2,.11-2.92,.11-4.7,.11s-3.5,0-5.04-.11c-1.03-.06-1.38-.52-1.38-1.2,0-3.27,.69-13.58,.69-19.26,0-3.44-.69-4.7-1.78-4.7-.46,0-.86,.11-1.15,.4-.69,.69-.8,2.06-.8,4.76,0,9.8,.8,16.51,.8,18.51,0,1.03-.52,1.43-1.6,1.49-1.38,.06-2.87,.11-4.3,.11-1.89,0-3.67-.06-4.99-.11-1.09-.06-1.78-.4-1.89-2.01-.34-4.53-.63-10.26-.63-16.85,0-4.58,.11-9.63,.52-14.96,.11-2.01,1.43-2.58,3.15-2.75,1.32-.11,2.98-.17,4.47-.17,1.26,0,2.46,.06,3.27,.11,1.2,.11,1.6,.57,1.6,1.43s.34,1.15,.97,1.15c2.01,0,3.67-3.21,8.08-3.21,5.33,0,7.62,3.95,7.62,14.39Z"/><path class="o" d="M1137.87,465.5c0-8.77,6.71-11.92,13.12-12.9,1.89-.29,3.04-.52,3.04-1.49,0-.57-.46-1.2-2.35-1.2-2.98,0-6.19,1.2-9.23,3.78-.34,.34-.75,.52-1.03,.52s-.57-.11-.8-.34c-1.38-1.26-2.69-3.55-2.69-6.65,0-4.58,5.33-7.79,14.56-7.79,10.37,0,14.04,4.93,14.04,13.7,0,2.18-.23,8.2-.23,13.07,0,3.55,.4,7.39,.4,8.54,0,1.03-.52,1.66-1.49,1.83-2.06,.4-8.71,.46-13.35,.46-8.94,0-13.98-3.27-13.98-11.52Zm16.28-3.04c0-1.89-.17-2.35-1.09-2.35-1.55,0-3.15,1.43-3.15,3.38,0,1.78,1.26,2.81,2.64,2.81,1.2,0,1.6-.75,1.6-2.52v-1.32Z"/><path class="o" d="M1168.93,460.4c0-12.95,4.07-20.92,9.91-20.92,2.69,0,4.76,1.78,5.96,3.04,.17,.17,.34,.23,.52,.23,.34,0,.63-.23,.63-.75,0-2.46-1.55-9.46-1.55-10.49,0-.8,.69-1.26,1.6-1.32,1.26-.06,2.58-.11,3.95-.11,2.06,0,4.24,.06,6.25,.23,1.15,.11,1.83,.4,2.06,2.12,.63,4.7,1.2,14.9,1.2,24.53,0,6.36-.23,12.44-.86,16.62-.11,.92-.75,1.72-1.89,2.18-2.01,.75-5.67,1.55-12.67,1.55-10.66,0-15.13-4.47-15.13-16.91Zm17.48-3.5c0-5.56-.57-7.22-2.01-7.22-1.2,0-1.95,1.66-1.95,9.11s.69,9.11,1.95,9.11,2.01-1.72,2.01-11Z"/><path class="o" d="M1215.92,477.82c-11,0-14.5-8.48-14.5-17.65,0-15.02,7.68-20.75,16.56-20.75,6.36,0,11.06,3.32,11.06,10.09,0,9.63-6.82,11.58-11.92,12.9-2.23,.57-3.09,.97-3.09,1.89,0,.86,.75,1.38,2.64,1.38,3.73,0,7.91-1.49,10.32-3.38,.4-.34,.75-.52,1.03-.52,.86,0,1.49,1.66,1.49,4.58,0,7.28-6.42,11.46-13.58,11.46Zm.29-28.77c-1.83,0-3.5,2.29-3.5,4.81,0,.52,.11,.92,.57,.92s.92-.17,1.38-.4c1.49-.8,3.44-1.78,3.44-3.5,0-.97-.63-1.83-1.89-1.83Z"/></g><g><path class="o" d="M811.69,589.92c-.8-.06-1.43-.23-1.66-1.38-.92-4.3-1.49-10.49-1.49-17.42,0-7.45,.57-15.93,2.35-23.73,.17-.69,.69-1.15,1.55-1.2,1.95-.17,4.99-.23,7.91-.23,9.57,0,13.35,.86,16.68,4.18,2.46,2.46,3.21,6.08,3.21,10.49,0,10.89-6.48,15.3-11.46,18.05-3.27,1.78-4.58,2.98-4.58,5.04,0,1.95,1.09,4.47,1.09,5.22,0,.63-.4,.92-1.09,.97-1.66,.12-4.13,.17-6.65,.17-2.01,0-4.07-.06-5.85-.17Zm12.78-21.15c1.38-1.38,2.52-5.1,2.52-8.88,0-2.81-.8-4.13-1.89-4.13-.4,0-.8,.17-1.15,.52-1.03,1.03-1.72,3.78-1.72,9.34,0,2.58,.4,3.61,1.32,3.61,.34,0,.63-.17,.92-.46Z"/><path class="o" d="M856.62,589.97c-1.78,.11-3.9,.17-6.08,.17s-4.24-.06-6.08-.17c-.57-.06-1.49-.34-1.6-1.66-.46-4.7-.63-10.2-.63-15.93,0-9.34,.57-19.43,1.78-27.8,.17-1.2,.92-1.43,1.66-1.49,1.72-.11,3.44-.17,5.16-.17s3.5,.06,5.16,.17c.92,.06,1.49,.4,1.49,1.2,0,.97-1.09,12.09-1.09,21.03,0,10.37,1.38,21.78,1.38,23.44,0,.74-.52,1.15-1.15,1.2Z"/><path class="o" d="M858.85,578.51c0-8.77,6.71-11.92,13.12-12.9,1.89-.29,3.04-.52,3.04-1.49,0-.57-.46-1.2-2.35-1.2-2.98,0-6.19,1.2-9.23,3.78-.34,.34-.75,.52-1.03,.52s-.57-.11-.8-.34c-1.38-1.26-2.69-3.55-2.69-6.65,0-4.58,5.33-7.79,14.56-7.79,10.37,0,14.04,4.93,14.04,13.7,0,2.18-.23,8.2-.23,13.07,0,3.55,.4,7.39,.4,8.54,0,1.03-.52,1.66-1.49,1.83-2.06,.4-8.71,.46-13.35,.46-8.94,0-13.98-3.27-13.98-11.52Zm16.28-3.04c0-1.89-.17-2.35-1.09-2.35-1.55,0-3.15,1.43-3.15,3.38,0,1.78,1.26,2.81,2.64,2.81,1.2,0,1.6-.75,1.6-2.52v-1.32Z"/><path class="o" d="M891.23,576.85c.92,0,2.75,.75,4.41,1.2,1.72,.52,3.27,.75,3.27-.4,0-.4-.34-.75-.86-1.03-5.79-3.32-8.37-7.79-8.37-21.44,0-1.38,.63-1.78,2.18-1.89,1.38-.11,2.92-.17,4.64-.17,1.83,0,3.84,.06,5.73,.17,.69,.06,1.32,.23,1.32,.97s-.29,2.92-.29,5.22c0,4.41,.63,10.66,2.06,10.66,.23,0,.52-.17,.63-.57,.57-1.66,.86-4.93,.86-8.14s-.52-6.3-.52-6.99c0-.75,.69-1.09,1.26-1.15,1.2-.11,3.04-.17,4.76-.17s3.44,.06,4.36,.17c1.89,.29,2.52,1.78,2.52,3.73,0,19.89-3.38,33.99-27.34,33.99-1.89,0-2.29-.75-2.41-2.18-.06-.97-.11-2.12-.11-3.44,0-2.24,.11-4.76,.34-6.93,.06-.97,.69-1.6,1.55-1.6Z"/><path class="o" d="M929.79,578.51c0-8.77,6.71-11.92,13.12-12.9,1.89-.29,3.04-.52,3.04-1.49,0-.57-.46-1.2-2.35-1.2-2.98,0-6.19,1.2-9.23,3.78-.34,.34-.75,.52-1.03,.52s-.57-.11-.8-.34c-1.38-1.26-2.69-3.55-2.69-6.65,0-4.58,5.33-7.79,14.56-7.79,10.37,0,14.04,4.93,14.04,13.7,0,2.18-.23,8.2-.23,13.07,0,3.55,.4,7.39,.4,8.54,0,1.03-.52,1.66-1.49,1.83-2.06,.4-8.71,.46-13.35,.46-8.94,0-13.98-3.27-13.98-11.52Zm16.28-3.04c0-1.89-.17-2.35-1.09-2.35-1.55,0-3.15,1.43-3.15,3.38,0,1.78,1.26,2.81,2.64,2.81,1.2,0,1.6-.75,1.6-2.52v-1.32Z"/><path class="o" d="M974.72,552.44c2.35,0,2.92,.06,4.13,.06,1.89,0,2.81-2.64,4.36-4.58,.34-.46,.86-.69,1.38-.69,1.6,0,6.19,4.36,6.19,5.9,0,.34-.17,.75-.57,.97-1.26,.69-2.58,1.32-2.58,2.81,0,1.66,2.52,2.46,2.52,8.42,0,6.71-4.47,11.23-14.27,11.23-4.24,0-5.33,.8-5.33,1.95,0,.69,.46,1.09,1.66,1.09,2.29,0,6.99-2.29,11.69-2.29,2.41,0,4.41,.52,5.79,1.43,.8,.52,.97,1.32,.97,2.12,0,3.1-1.6,9.69-3.67,9.69-.46,0-.92-.11-1.38-.23-1.09-.34-2.52-.69-4.99-.69-3.55,0-6.36,1.2-11.23,1.2-5.96,0-9.34-2.69-9.34-7.56,0-3.78,2.01-6.42,3.84-7.91,.46-.4,.69-.69,.69-.97s-.23-.57-.52-.92c-1.43-1.49-3.32-4.47-3.32-8.88,0-7.62,5.73-12.15,13.98-12.15Zm.97,13.87c1.38,0,2.52-.97,2.52-2.64s-1.15-2.64-2.52-2.64-2.52,.97-2.52,2.64c0,1.55,.97,2.64,2.52,2.64Z"/><path class="o" d="M991.85,578.51c0-8.77,6.71-11.92,13.12-12.9,1.89-.29,3.04-.52,3.04-1.49,0-.57-.46-1.2-2.35-1.2-2.98,0-6.19,1.2-9.23,3.78-.34,.34-.75,.52-1.03,.52s-.57-.11-.8-.34c-1.38-1.26-2.69-3.55-2.69-6.65,0-4.58,5.33-7.79,14.56-7.79,10.37,0,14.04,4.93,14.04,13.7,0,2.18-.23,8.2-.23,13.07,0,3.55,.4,7.39,.4,8.54,0,1.03-.52,1.66-1.49,1.83-2.06,.4-8.71,.46-13.35,.46-8.94,0-13.98-3.27-13.98-11.52Zm16.28-3.04c0-1.89-.17-2.35-1.09-2.35-1.55,0-3.15,1.43-3.15,3.38,0,1.78,1.26,2.81,2.64,2.81,1.2,0,1.6-.75,1.6-2.52v-1.32Z"/><path class="o" d="M1037.7,589.97c-1.78,.11-3.9,.17-6.07,.17s-4.3-.06-6.13-.17c-.57-.06-1.43-.34-1.6-1.66-.46-3.78-.69-8.25-.69-12.9,0-7.11,.52-14.61,1.6-20.58,.23-1.2,.92-1.43,1.66-1.49,1.72-.11,3.21-.17,4.64-.17s2.98,.06,4.64,.17c.97,.06,1.49,.52,1.49,1.26,0,1.38-.29,6.07-.29,9.69,0,13.12,1.89,22.24,1.89,24.59,0,.75-.52,1.03-1.15,1.09Zm-14.04-43.5c0-3.61,2.41-5.73,7.68-5.73s7.68,2.12,7.68,5.73-2.18,5.5-7.68,5.5-7.68-1.95-7.68-5.5Z"/><path class="o" d="M1070.54,567.11c0,9.17-.86,18.51-1.2,21.03-.17,1.2-.8,1.78-1.72,1.83-1.2,.11-2.92,.11-4.7,.11s-3.5,0-5.04-.11c-1.03-.06-1.38-.52-1.38-1.2,0-3.27,.69-13.58,.69-19.26,0-3.44-.69-4.7-1.78-4.7-.46,0-.86,.11-1.15,.4-.69,.69-.8,2.06-.8,4.76,0,9.8,.8,16.51,.8,18.51,0,1.03-.52,1.43-1.6,1.49-1.38,.06-2.87,.11-4.3,.11-1.89,0-3.67-.06-4.99-.11-1.09-.06-1.78-.4-1.89-2.01-.34-4.53-.63-10.26-.63-16.85,0-4.58,.11-9.63,.52-14.96,.11-2.01,1.43-2.58,3.15-2.75,1.32-.11,2.98-.17,4.47-.17,1.26,0,2.46,.06,3.27,.11,1.2,.11,1.6,.57,1.6,1.43s.34,1.15,.97,1.15c2.01,0,3.67-3.21,8.08-3.21,5.33,0,7.62,3.95,7.62,14.39Z"/><path class="o" d="M1082,578.51c0-8.77,6.71-11.92,13.12-12.9,1.89-.29,3.04-.52,3.04-1.49,0-.57-.46-1.2-2.35-1.2-2.98,0-6.19,1.2-9.23,3.78-.34,.34-.75,.52-1.03,.52s-.57-.11-.8-.34c-1.38-1.26-2.69-3.55-2.69-6.65,0-4.58,5.33-7.79,14.56-7.79,10.37,0,14.04,4.93,14.04,13.7,0,2.18-.23,8.2-.23,13.07,0,3.55,.4,7.39,.4,8.54,0,1.03-.52,1.66-1.49,1.83-2.06,.4-8.71,.46-13.35,.46-8.94,0-13.98-3.27-13.98-11.52Zm16.28-3.04c0-1.89-.17-2.35-1.09-2.35-1.55,0-3.15,1.43-3.15,3.38,0,1.78,1.26,2.81,2.64,2.81,1.2,0,1.6-.75,1.6-2.52v-1.32Z"/><path class="o" d="M1143.03,567.11c0,9.17-.86,18.51-1.2,21.03-.17,1.2-.8,1.78-1.72,1.83-1.2,.11-2.92,.11-4.7,.11s-3.5,0-5.04-.11c-1.03-.06-1.38-.52-1.38-1.2,0-3.27,.69-13.58,.69-19.26,0-3.44-.69-4.7-1.78-4.7-.46,0-.86,.11-1.15,.4-.69,.69-.8,2.06-.8,4.76,0,9.8,.8,16.51,.8,18.51,0,1.03-.52,1.43-1.6,1.49-1.38,.06-2.87,.11-4.3,.11-1.89,0-3.67-.06-4.99-.11-1.09-.06-1.78-.4-1.89-2.01-.34-4.53-.63-10.26-.63-16.85,0-4.58,.11-9.63,.52-14.96,.11-2.01,1.43-2.58,3.15-2.75,1.32-.11,2.98-.17,4.47-.17,1.26,0,2.46,.06,3.27,.11,1.2,.11,1.6,.57,1.6,1.43s.34,1.15,.97,1.15c2.01,0,3.67-3.21,8.08-3.21,5.33,0,7.62,3.95,7.62,14.39Z"/><path class="o" d="M1145.32,573.41c0-12.95,4.07-20.92,9.91-20.92,2.69,0,4.76,1.78,5.96,3.04,.17,.17,.34,.23,.52,.23,.34,0,.63-.23,.63-.75,0-2.46-1.55-9.46-1.55-10.49,0-.8,.69-1.26,1.6-1.32,1.26-.06,2.58-.11,3.95-.11,2.06,0,4.24,.06,6.25,.23,1.15,.11,1.83,.4,2.06,2.12,.63,4.7,1.2,14.9,1.2,24.53,0,6.36-.23,12.44-.86,16.62-.11,.92-.75,1.72-1.89,2.18-2.01,.74-5.67,1.55-12.67,1.55-10.66,0-15.13-4.47-15.13-16.91Zm17.48-3.5c0-5.56-.57-7.22-2.01-7.22-1.2,0-1.95,1.66-1.95,9.11s.69,9.11,1.95,9.11,2.01-1.72,2.01-11Z"/><path class="o" d="M1202.85,543.38c.63,.11,.92,.63,.92,1.2,0,1.2-2.18,5.33-2.18,9.11,0,.92,.34,1.32,.97,1.32,1.03,0,3.5-2.58,7.85-2.58,5.44,0,8.94,3.73,8.94,15.99,0,8.25-.8,16.28-1.49,20.12-.17,1.03-.75,1.43-1.49,1.49-.86,0-2.46,.06-4.3,.06-2.12,0-4.47-.06-6.19-.17-.63-.06-1.38-.23-1.38-1.43,0-1.38,1.38-10.03,1.38-16.85,0-5.56-.52-6.48-1.78-6.48-1.6,0-2.29,1.72-2.29,7.28,0,10.2,.46,14.61,.46,16.1,0,1.2-.92,1.38-1.6,1.43-1.32,.11-3.15,.17-5.1,.17s-3.84-.06-5.44-.17c-.46-.06-1.09-.17-1.32-1.09-.29-1.2-.57-5.85-.57-12.21,0-8.77,.52-20.86,2.06-31.52,.17-1.09,.86-1.72,1.43-1.78,1.78-.17,3.9-.23,5.96-.23,1.89,0,3.73,0,5.16,.23Z"/><path class="o" d="M1235.29,590.83c-11,0-14.5-8.48-14.5-17.65,0-15.02,7.68-20.75,16.56-20.75,6.36,0,11.06,3.32,11.06,10.09,0,9.63-6.82,11.58-11.92,12.9-2.23,.57-3.09,.97-3.09,1.89,0,.86,.75,1.38,2.64,1.38,3.73,0,7.91-1.49,10.32-3.38,.4-.34,.75-.52,1.03-.52,.86,0,1.49,1.66,1.49,4.58,0,7.28-6.42,11.46-13.58,11.46Zm.29-28.77c-1.83,0-3.5,2.29-3.5,4.81,0,.52,.11,.92,.57,.92s.92-.17,1.38-.4c1.49-.8,3.44-1.78,3.44-3.5,0-.97-.63-1.83-1.89-1.83Z"/><path class="o" d="M1265.37,589.97c-1.78,.11-3.9,.17-6.08,.17s-4.24-.06-6.08-.17c-.57-.06-1.49-.34-1.6-1.66-.46-4.7-.63-10.2-.63-15.93,0-9.34,.57-19.43,1.78-27.8,.17-1.2,.92-1.43,1.66-1.49,1.72-.11,3.44-.17,5.16-.17s3.5,.06,5.16,.17c.92,.06,1.49,.4,1.49,1.2,0,.97-1.09,12.09-1.09,21.03,0,10.37,1.38,21.78,1.38,23.44,0,.74-.52,1.15-1.15,1.2Z"/><path class="o" d="M1272.48,591.29c-.92,0-1.55-.4-2.18-2.58-1.32-4.7-1.78-11.12-1.78-18.4,0-15.99,1.26-17.88,11.92-17.88,13.64,0,17.37,6.02,17.37,13.81,0,13.98-7.16,19.66-10.72,19.66-2.35,0-3.73-4.3-4.81-4.3-.46,0-.69,.4-.69,.92,0,3.67,1.2,5.44,1.2,6.25,0,.63-.57,.97-1.43,1.15-2.75,.57-7.05,1.38-8.88,1.38Zm8.83-20.75c0,4.24,.4,5.16,1.26,5.16,1.6,0,2.41-3.5,2.41-9.86,0-3.15-.63-4.36-1.83-4.36s-1.83,1.78-1.83,9.06Z"/><path class="o" d="M1309.61,571c0-4.01,.86-13.35,1.2-15.88,.17-1.2,.8-1.72,1.72-1.83,1.49-.11,3.32-.17,5.04-.17s3.32,.06,4.64,.17c1.09,.11,1.38,.57,1.38,1.38,0,2.06-.63,11.92-.63,19.08,0,3.44,.69,4.7,1.78,4.7,.4,0,.75-.11,1.03-.4,.69-.69,.92-2.06,.92-4.76,0-11.12-.63-17.14-.69-18.23-.11-1.2,.4-1.66,1.6-1.78,1.09-.11,2.46-.17,3.95-.17,1.89,0,3.84,.06,5.22,.17,1.09,.06,1.72,.4,1.89,2.01,.57,4.64,.8,9.28,.8,14.56s-.23,10.77-.69,17.25c-.11,2.01-1.43,2.58-3.15,2.75-1.15,.11-2.64,.17-3.9,.17-.92,0-1.78-.06-2.35-.12-1.2-.11-1.6-.52-1.6-1.43,0-.86-.34-1.15-.97-1.15-1.89,0-4.3,3.21-8.48,3.21-6.36,0-8.71-3.95-8.71-19.54Z"/><path class="o" d="M1353.85,580.23c1.09,0,1.49-.34,1.49-1.09,0-.92-.92-1.55-3.15-2.58-5.27-2.46-10.37-4.87-10.37-12.26s5.73-11.86,14.5-11.86c4.01,0,8.2,.92,10.26,2.06,.92,.52,1.09,1.09,1.09,2.01,0,2.75-.92,6.93-1.89,9.34-.23,.57-.57,.8-.97,.8-.29,0-.57-.11-.8-.29-2.41-1.83-6.53-4.13-9.23-4.13-1.2,0-1.66,.46-1.66,1.09,0,.86,.8,1.32,3.27,2.35,4.76,2.01,11.63,4.81,11.63,12.55,0,8.54-5.39,12.61-13.24,12.61s-13.35-3.55-13.35-10.26c0-2.75,.69-4.64,1.15-5.44,.23-.4,.52-.63,.86-.63,.29,0,.57,.11,.8,.4,2.06,2.29,6.25,5.33,9.63,5.33Z"/><path class="o" d="M1390.81,589.97c-.97,.11-2.24,.11-3.61,.11-1.55,0-3.21,0-4.99-.11-1.09-.06-1.78-.4-1.89-2.01-.4-4.87-.75-10.43-.75-17.02,0-4.47,.17-9.4,.63-14.96,.17-2.01,1.43-2.58,3.15-2.75,1.09-.11,2.64-.17,4.18-.17,1.78,0,3.5,.06,4.24,.17,.86,.11,1.15,.46,1.15,1.03,0,.52-.34,1.26-.34,1.89,0,.34,.23,.57,.63,.57,1.55,0,3.55-4.01,7.34-4.01s4.99,2.64,6.42,2.64c1.6,0,3.9-2.64,8.2-2.64,6.76,0,9.69,6.59,9.69,19.31,0,8.94-.57,14.5-1.15,16.39-.34,1.15-1.38,1.49-2.23,1.55-1.09,.06-2.64,.11-4.24,.11s-3.44-.06-5.16-.11c-1.43-.06-1.83-.75-1.83-1.72,0-1.66,1.03-7.05,1.03-16.33,0-4.99-.34-7.11-1.66-7.11-1.15,0-1.72,1.15-1.72,4.47,0,3.5,.06,5.33,.06,8.37,0,4.99-.34,8.83-.57,10.49-.17,1.2-.8,1.78-1.72,1.83-1.26,.11-3.04,.17-4.87,.17-1.49,0-3.09-.06-4.53-.17-1.09-.06-1.38-.57-1.38-1.38,0-.86,.34-11.58,.34-19.2,0-3.44-.57-4.58-1.83-4.58-1.03,0-1.66,1.32-1.66,5.16,0,11.06,.75,17.14,.75,18.51,0,1.03-.57,1.38-1.66,1.49Z"/><path class="o" d="M1426.46,578.51c0-8.77,6.71-11.92,13.12-12.9,1.89-.29,3.04-.52,3.04-1.49,0-.57-.46-1.2-2.35-1.2-2.98,0-6.19,1.2-9.23,3.78-.34,.34-.75,.52-1.03,.52s-.57-.11-.8-.34c-1.38-1.26-2.69-3.55-2.69-6.65,0-4.58,5.33-7.79,14.56-7.79,10.37,0,14.04,4.93,14.04,13.7,0,2.18-.23,8.2-.23,13.07,0,3.55,.4,7.39,.4,8.54,0,1.03-.52,1.66-1.49,1.83-2.06,.4-8.71,.46-13.35,.46-8.94,0-13.98-3.27-13.98-11.52Zm16.28-3.04c0-1.89-.17-2.35-1.09-2.35-1.55,0-3.15,1.43-3.15,3.38,0,1.78,1.26,2.81,2.64,2.81,1.2,0,1.6-.75,1.6-2.52v-1.32Z"/><path class="o" d="M1471.9,589.97c-1.72,.11-3.9,.17-6.02,.17s-4.3-.06-6.13-.17c-.57-.06-1.49-.34-1.6-1.66-.34-4.7-.34-10.2-.34-15.93,0-9.34,.4-19.49,1.49-27.8,.17-1.2,.92-1.43,1.66-1.49,1.55-.11,3.27-.17,5.04-.17s3.61,.06,5.27,.17c.92,.06,1.49,.4,1.49,1.15,0,.63-2.06,14.56-2.06,22.24,0,.86,.29,1.38,.86,1.38,2.24,0,3.55-6.13,3.84-13.18,.06-.97,.52-1.26,1.38-1.32,1.09-.06,3.04-.11,5.04-.11,2.41,0,4.93,.06,5.96,.11,.69,.06,1.26,.29,1.26,1.43,0,6.19-3.73,12.09-5.44,14.1-.34,.4-.52,.69-.52,.97s.17,.52,.52,.86c3.5,3.09,6.65,6.76,6.65,17.42,0,1.32-.17,1.72-1.6,1.83-1.09,.11-2.92,.11-4.87,.11s-3.9,0-5.39-.11c-1.55-.11-1.89-.29-1.95-1.78-.34-7.85-2.06-13.12-4.07-13.12-.92,0-1.32,1.15-1.32,2.98,0,3.38,2.01,9.46,2.01,10.77,0,.69-.46,1.09-1.15,1.15Z"/><path class="o" d="M1505.54,590.83c-11,0-14.5-8.48-14.5-17.65,0-15.02,7.68-20.75,16.56-20.75,6.36,0,11.06,3.32,11.06,10.09,0,9.63-6.82,11.58-11.92,12.9-2.23,.57-3.09,.97-3.09,1.89,0,.86,.75,1.38,2.64,1.38,3.73,0,7.91-1.49,10.32-3.38,.4-.34,.75-.52,1.03-.52,.86,0,1.49,1.66,1.49,4.58,0,7.28-6.42,11.46-13.58,11.46Zm.29-28.77c-1.83,0-3.5,2.29-3.5,4.81,0,.52,.11,.92,.57,.92s.92-.17,1.38-.4c1.49-.8,3.44-1.78,3.44-3.5,0-.97-.63-1.83-1.89-1.83Z"/><path class="o" d="M822.58,658.74c-1.78,.11-3.9,.17-6.08,.17s-4.24-.06-6.07-.17c-.57-.06-1.49-.34-1.6-1.66-.46-4.7-.63-10.2-.63-15.93,0-9.34,.57-19.43,1.78-27.8,.17-1.2,.92-1.43,1.66-1.49,1.72-.12,3.44-.17,5.16-.17s3.5,.06,5.16,.17c.92,.06,1.49,.4,1.49,1.2,0,.97-1.09,12.09-1.09,21.03,0,10.37,1.38,21.78,1.38,23.44,0,.74-.52,1.15-1.15,1.2Z"/><path class="o" d="M839.42,659.6c-11,0-14.5-8.48-14.5-17.65,0-15.02,7.68-20.75,16.56-20.75,6.36,0,11.06,3.32,11.06,10.09,0,9.63-6.82,11.58-11.92,12.89-2.23,.57-3.09,.97-3.09,1.89,0,.86,.75,1.38,2.64,1.38,3.73,0,7.91-1.49,10.32-3.38,.4-.34,.75-.52,1.03-.52,.86,0,1.49,1.66,1.49,4.58,0,7.28-6.42,11.46-13.58,11.46Zm.29-28.77c-1.83,0-3.5,2.29-3.5,4.81,0,.52,.11,.92,.57,.92s.92-.17,1.38-.4c1.49-.8,3.44-1.78,3.44-3.5,0-.97-.63-1.83-1.89-1.83Z"/><path class="o" d="M866.13,658.74c-.97,.11-2.24,.11-3.61,.11-1.55,0-3.21,0-4.99-.11-1.09-.06-1.78-.4-1.89-2.01-.4-4.87-.75-10.43-.75-17.02,0-4.47,.17-9.4,.63-14.96,.17-2.01,1.43-2.58,3.15-2.75,1.09-.11,2.64-.17,4.18-.17,1.78,0,3.5,.06,4.24,.17,.86,.12,1.15,.46,1.15,1.03,0,.52-.34,1.26-.34,1.89,0,.34,.23,.57,.63,.57,1.55,0,3.55-4.01,7.34-4.01s4.99,2.64,6.42,2.64c1.6,0,3.9-2.64,8.2-2.64,6.76,0,9.69,6.59,9.69,19.31,0,8.94-.57,14.5-1.15,16.39-.34,1.15-1.38,1.49-2.23,1.55-1.09,.06-2.64,.11-4.24,.11s-3.44-.06-5.16-.11c-1.43-.06-1.83-.75-1.83-1.72,0-1.66,1.03-7.05,1.03-16.33,0-4.99-.34-7.11-1.66-7.11-1.15,0-1.72,1.15-1.72,4.47,0,3.5,.06,5.33,.06,8.37,0,4.99-.34,8.83-.57,10.49-.17,1.2-.8,1.78-1.72,1.83-1.26,.11-3.04,.17-4.87,.17-1.49,0-3.09-.06-4.53-.17-1.09-.06-1.38-.57-1.38-1.38,0-.86,.34-11.58,.34-19.2,0-3.44-.57-4.58-1.83-4.58-1.03,0-1.66,1.32-1.66,5.16,0,11.06,.75,17.14,.75,18.51,0,1.03-.57,1.38-1.66,1.49Z"/><path class="o" d="M901.89,640.34c0-11.46,5.16-19.14,15.47-19.14s14.44,7.39,14.44,19.14c0,13.47-6.93,19.26-15.36,19.26s-14.56-5.79-14.56-19.26Zm17.37-1.03c0-5.5-.86-7.68-2.46-7.68s-2.46,2.18-2.46,7.68,.69,7.85,2.46,7.85,2.46-2.29,2.46-7.85Z"/><path class="o" d="M963.49,635.88c0,9.17-.86,18.51-1.2,21.03-.17,1.2-.8,1.78-1.72,1.83-1.2,.11-2.92,.11-4.7,.11s-3.5,0-5.04-.11c-1.03-.06-1.38-.52-1.38-1.2,0-3.27,.69-13.58,.69-19.26,0-3.44-.69-4.7-1.78-4.7-.46,0-.86,.12-1.15,.4-.69,.69-.8,2.06-.8,4.76,0,9.8,.8,16.51,.8,18.51,0,1.03-.52,1.43-1.6,1.49-1.38,.06-2.87,.11-4.3,.11-1.89,0-3.67-.06-4.99-.11-1.09-.06-1.78-.4-1.89-2.01-.34-4.53-.63-10.26-.63-16.85,0-4.58,.11-9.63,.52-14.96,.11-2.01,1.43-2.58,3.15-2.75,1.32-.11,2.98-.17,4.47-.17,1.26,0,2.46,.06,3.27,.12,1.2,.11,1.6,.57,1.6,1.43s.34,1.15,.97,1.15c2.01,0,3.67-3.21,8.08-3.21,5.33,0,7.62,3.96,7.62,14.39Z"/><path class="o" d="M965.09,647.28c0-8.77,6.71-11.92,13.12-12.89,1.89-.29,3.04-.52,3.04-1.49,0-.57-.46-1.2-2.35-1.2-2.98,0-6.19,1.2-9.23,3.78-.34,.34-.75,.52-1.03,.52s-.57-.11-.8-.34c-1.38-1.26-2.69-3.55-2.69-6.65,0-4.58,5.33-7.79,14.56-7.79,10.37,0,14.04,4.93,14.04,13.7,0,2.18-.23,8.2-.23,13.07,0,3.55,.4,7.39,.4,8.54,0,1.03-.52,1.66-1.49,1.83-2.06,.4-8.71,.46-13.35,.46-8.94,0-13.98-3.27-13.98-11.52Zm16.28-3.04c0-1.89-.17-2.35-1.09-2.35-1.55,0-3.15,1.43-3.15,3.38,0,1.78,1.26,2.81,2.64,2.81,1.2,0,1.6-.75,1.6-2.52v-1.32Z"/><path class="o" d="M996.15,642.18c0-12.95,4.07-20.92,9.91-20.92,2.69,0,4.76,1.78,5.96,3.04,.17,.17,.34,.23,.52,.23,.34,0,.63-.23,.63-.75,0-2.46-1.55-9.46-1.55-10.49,0-.8,.69-1.26,1.6-1.32,1.26-.06,2.58-.11,3.95-.11,2.06,0,4.24,.06,6.25,.23,1.15,.12,1.83,.4,2.06,2.12,.63,4.7,1.2,14.9,1.2,24.53,0,6.36-.23,12.44-.86,16.62-.11,.92-.75,1.72-1.89,2.18-2.01,.74-5.67,1.55-12.67,1.55-10.66,0-15.13-4.47-15.13-16.91Zm17.48-3.5c0-5.56-.57-7.22-2.01-7.22-1.2,0-1.95,1.66-1.95,9.11s.69,9.11,1.95,9.11,2.01-1.72,2.01-11Z"/><path class="o" d="M1043.14,659.6c-11,0-14.5-8.48-14.5-17.65,0-15.02,7.68-20.75,16.56-20.75,6.36,0,11.06,3.32,11.06,10.09,0,9.63-6.82,11.58-11.92,12.89-2.24,.57-3.1,.97-3.1,1.89,0,.86,.75,1.38,2.64,1.38,3.73,0,7.91-1.49,10.32-3.38,.4-.34,.75-.52,1.03-.52,.86,0,1.49,1.66,1.49,4.58,0,7.28-6.42,11.46-13.58,11.46Zm.29-28.77c-1.83,0-3.5,2.29-3.5,4.81,0,.52,.11,.92,.57,.92s.92-.17,1.38-.4c1.49-.8,3.44-1.78,3.44-3.5,0-.97-.63-1.83-1.89-1.83Z"/><path class="o" d="M1087.67,612.03c-.11,2.01-.52,5.56-.97,7.11-.17,.52-.4,.69-.75,.69-.46,0-1.32-.34-2.12-.34-1.03,0-1.6,.52-1.6,1.43,0,.8,.57,1.32,1.89,1.32,.75,0,1.66-.17,2.18-.17,.57,0,.8,.4,.97,1.09,.17,1.15,.4,2.98,.4,4.99s-.17,4.24-.57,6.19c-.11,.52-.46,.69-.86,.69-.52,0-1.2-.34-1.89-.34-.57,0-.8,.4-.92,1.66-.06,.52-.06,1.2-.06,2.12,0,4.99,.52,11.12,1.49,18.68,.11,.69,.06,1.32-.52,1.43-1.6,.34-4.3,.46-6.99,.46-1.95,0-3.9,0-5.39-.11-.8-.06-1.43-.17-1.49-.8-.4-3.61-.52-7.22-.52-10.49,0-5.45,.34-9.8,.34-11.29,0-.86-.23-1.49-1.03-1.49h-.69c-.57,0-1.03-.4-1.09-1.15-.06-.63-.11-1.55-.11-2.52,0-3.15,.29-6.71,.8-8.2,.17-.52,.52-.75,1.09-.75,.29,0,.69,.06,.86,.06,1.2,0,1.09-1.43,1.66-4.81,.69-4.07,3.38-7.57,10.32-7.57,3.32,0,4.47,.46,4.93,.69,.4,.23,.69,.63,.63,1.43Z"/><path class="o" d="M1087.84,640.34c0-11.46,5.16-19.14,15.47-19.14s14.44,7.39,14.44,19.14c0,13.47-6.94,19.26-15.36,19.26s-14.56-5.79-14.56-19.26Zm17.37-1.03c0-5.5-.86-7.68-2.46-7.68s-2.46,2.18-2.46,7.68,.69,7.85,2.46,7.85,2.46-2.29,2.46-7.85Z"/><path class="o" d="M1133.63,658.68c-1.38,.12-3.09,.12-4.99,.12s-3.95,0-6.07-.12c-.86-.06-1.43-.57-1.66-1.55-.69-2.92-1.2-9-1.2-16.79,0-9.97,.46-14.67,.97-16.68,.23-.86,.63-1.2,1.09-1.38,.8-.23,3.27-.46,5.56-.46,1.32,0,2.58,.06,3.38,.23,.63,.11,.86,.52,.92,1.32,.06,.63,.34,.86,.63,.86s.63-.23,1.03-.57c.8-.69,1.78-1.83,2.98-1.83s1.95,1.78,1.95,7.74c0,2.58-.17,5.16-.63,6.42-.34,1.03-.8,1.26-1.32,1.26s-1.09-.63-1.95-.63-1.49,.86-1.49,3.78c0,5.79,2.58,15.76,2.58,16.91,0,.75-.46,1.26-1.78,1.38Z"/><path class="o" d="M1149.33,640.34c0-11.46,5.16-19.14,15.47-19.14s14.44,7.39,14.44,19.14c0,13.47-6.93,19.26-15.36,19.26s-14.56-5.79-14.56-19.26Zm17.37-1.03c0-5.5-.86-7.68-2.46-7.68s-2.46,2.18-2.46,7.68,.69,7.85,2.46,7.85,2.46-2.29,2.46-7.85Z"/><path class="o" d="M1181.25,639.77c0-4.01,.86-13.35,1.2-15.88,.17-1.2,.8-1.72,1.72-1.83,1.49-.11,3.32-.17,5.04-.17s3.32,.06,4.64,.17c1.09,.11,1.38,.57,1.38,1.38,0,2.06-.63,11.92-.63,19.08,0,3.44,.69,4.7,1.78,4.7,.4,0,.75-.12,1.03-.4,.69-.69,.92-2.06,.92-4.76,0-11.12-.63-17.14-.69-18.23-.11-1.2,.4-1.66,1.6-1.78,1.09-.11,2.46-.17,3.95-.17,1.89,0,3.84,.06,5.22,.17,1.09,.06,1.72,.4,1.89,2.01,.57,4.64,.8,9.28,.8,14.56s-.23,10.77-.69,17.25c-.11,2.01-1.43,2.58-3.15,2.75-1.15,.11-2.64,.17-3.9,.17-.92,0-1.78-.06-2.35-.12-1.2-.11-1.6-.52-1.6-1.43,0-.86-.34-1.15-.97-1.15-1.89,0-4.3,3.21-8.48,3.21-6.36,0-8.71-3.96-8.71-19.54Z"/><path class="o" d="M1227.95,658.68c-1.38,.12-3.09,.12-4.99,.12s-3.95,0-6.07-.12c-.86-.06-1.43-.57-1.66-1.55-.69-2.92-1.2-9-1.2-16.79,0-9.97,.46-14.67,.97-16.68,.23-.86,.63-1.2,1.09-1.38,.8-.23,3.27-.46,5.56-.46,1.32,0,2.58,.06,3.38,.23,.63,.11,.86,.52,.92,1.32,.06,.63,.34,.86,.63,.86s.63-.23,1.03-.57c.8-.69,1.78-1.83,2.98-1.83s1.95,1.78,1.95,7.74c0,2.58-.17,5.16-.63,6.42-.34,1.03-.8,1.26-1.32,1.26s-1.09-.63-1.95-.63-1.49,.86-1.49,3.78c0,5.79,2.58,15.76,2.58,16.91,0,.75-.46,1.26-1.78,1.38Z"/><path class="o" d="M1248.41,660.06c-.92,0-1.55-.4-2.18-2.58-1.32-4.7-1.78-11.12-1.78-18.4,0-15.99,1.26-17.88,11.92-17.88,13.64,0,17.37,6.02,17.37,13.81,0,13.98-7.16,19.66-10.72,19.66-2.35,0-3.73-4.3-4.81-4.3-.46,0-.69,.4-.69,.92,0,3.67,1.2,5.44,1.2,6.25,0,.63-.57,.97-1.43,1.15-2.75,.57-7.05,1.38-8.88,1.38Zm8.83-20.75c0,4.24,.4,5.16,1.26,5.16,1.6,0,2.41-3.5,2.41-9.86,0-3.15-.63-4.36-1.83-4.36s-1.83,1.78-1.83,9.06Z"/><path class="o" d="M1290.19,658.74c-1.78,.11-3.9,.17-6.08,.17s-4.3-.06-6.13-.17c-.57-.06-1.43-.34-1.6-1.66-.46-3.78-.69-8.25-.69-12.9,0-7.11,.52-14.61,1.6-20.57,.23-1.2,.92-1.43,1.66-1.49,1.72-.12,3.21-.17,4.64-.17s2.98,.06,4.64,.17c.97,.06,1.49,.52,1.49,1.26,0,1.38-.29,6.08-.29,9.69,0,13.12,1.89,22.24,1.89,24.59,0,.75-.52,1.03-1.15,1.09Zm-14.04-43.5c0-3.61,2.41-5.73,7.68-5.73s7.68,2.12,7.68,5.73-2.18,5.5-7.68,5.5-7.68-1.95-7.68-5.5Z"/><path class="o" d="M1292.48,642.24c0-14.27,6.88-21.03,15.88-21.03,7.11,0,10.55,4.64,10.55,10.54,0,4.7-4.93,8.02-8.83,8.02-.86,0-1.2-.23-1.26-.86-.17-3.15-.11-6.25-1.6-6.25-1.2,0-1.95,2.41-1.95,6.82,0,3.9,.69,6.59,3.55,6.59,3.27,0,5.44-2.64,6.71-4.76,.17-.34,.46-.46,.74-.46,.17,0,.4,.06,.75,.4,1.03,1.09,2.12,3.21,2.12,6.25,0,6.53-4.18,12.09-13.12,12.09-9.51,0-13.53-7.62-13.53-17.37Z"/><path class="o" d="M1350.7,635.88c0,9.17-.86,18.51-1.2,21.03-.17,1.2-.8,1.78-1.72,1.83-1.2,.11-2.92,.11-4.7,.11s-3.5,0-5.04-.11c-1.03-.06-1.38-.52-1.38-1.2,0-3.27,.69-13.58,.69-19.26,0-3.44-.69-4.7-1.78-4.7-.46,0-.86,.12-1.15,.4-.69,.69-.8,2.06-.8,4.76,0,9.8,.8,16.51,.8,18.51,0,1.03-.52,1.43-1.6,1.49-1.38,.06-2.87,.11-4.3,.11-1.89,0-3.67-.06-4.99-.11-1.09-.06-1.78-.4-1.89-2.01-.34-4.53-.63-10.26-.63-16.85,0-4.58,.11-9.63,.52-14.96,.11-2.01,1.43-2.58,3.15-2.75,1.32-.11,2.98-.17,4.47-.17,1.26,0,2.46,.06,3.27,.12,1.2,.11,1.6,.57,1.6,1.43s.34,1.15,.97,1.15c2.01,0,3.67-3.21,8.08-3.21,5.33,0,7.62,3.96,7.62,14.39Z"/><path class="o" d="M1367.78,658.74c-1.78,.11-3.9,.17-6.07,.17s-4.3-.06-6.13-.17c-.57-.06-1.43-.34-1.6-1.66-.46-3.78-.69-8.25-.69-12.9,0-7.11,.52-14.61,1.6-20.57,.23-1.2,.92-1.43,1.66-1.49,1.72-.12,3.21-.17,4.64-.17s2.98,.06,4.64,.17c.97,.06,1.49,.52,1.49,1.26,0,1.38-.29,6.08-.29,9.69,0,13.12,1.89,22.24,1.89,24.59,0,.75-.52,1.03-1.15,1.09Zm-14.04-43.5c0-3.61,2.41-5.73,7.68-5.73s7.68,2.12,7.68,5.73-2.18,5.5-7.68,5.5-7.68-1.95-7.68-5.5Z"/><path class="o" d="M1370.07,642.24c0-14.27,6.88-21.03,15.88-21.03,7.11,0,10.55,4.64,10.55,10.54,0,4.7-4.93,8.02-8.83,8.02-.86,0-1.2-.23-1.26-.86-.17-3.15-.11-6.25-1.6-6.25-1.2,0-1.95,2.41-1.95,6.82,0,3.9,.69,6.59,3.55,6.59,3.27,0,5.44-2.64,6.71-4.76,.17-.34,.46-.46,.74-.46,.17,0,.4,.06,.75,.4,1.03,1.09,2.12,3.21,2.12,6.25,0,6.53-4.18,12.09-13.12,12.09-9.51,0-13.53-7.62-13.53-17.37Z"/><path class="o" d="M1414.54,615.13c.86,.11,1.15,.63,1.15,1.26,0,1.66-2.52,7.34-3.78,25.1-.11,1.78-.86,2.24-4.41,2.58-1.15,.11-2.12,.17-2.92,.17-1.72,0-2.64-.34-2.98-1.38-1.55-4.64-2.58-8.88-3.04-14.73-.29-3.61-.4-6.3-.4-10.32,0-1.43,.4-2.52,2.46-2.69,1.78-.17,4.36-.23,6.99-.23s5.22,.06,6.94,.23Zm-15.7,37.42c0-4.3,2.98-6.88,7.68-6.88s7.68,2.58,7.68,6.88-2.75,6.59-7.68,6.59-7.68-2.29-7.68-6.59Z"/></g></g><g><path class="o" d="M1263.47,428.75c7.29-.06,11.54,4.03,11.59,10.46,.05,6.71-4.14,10.58-11.42,10.64-7.19,.06-10.96-3.75-11.02-10.46-.05-6.42,3.66-10.58,10.85-10.63Zm31.36-.25c7.29-.06,11.54,4.03,11.59,10.46,.05,6.71-4.14,10.58-11.42,10.64-7.19,.06-10.96-3.75-11.02-10.46-.05-6.42,3.66-10.58,10.85-10.63Z"/><path class="o" d="M1293.41,454.69c25.13-.2,39.86,7.07,39.94,17.62,.05,6.71-7.03,8.69-8.27,8.7-.77,0-1.35-.28-2.02-1.04-6.09-5.9-18.29-8.77-33.06-8.66-13.71,.11-27.5,3.19-35.82,6.13-.48,.2-.77,.29-1.05,.3-.67,0-.96-.28-1.45-.95-1.17-2.1-2.56-7.84-2.57-9.19,0-.77,.18-1.44,.94-2.02,4.48-3.97,24.56-10.74,43.36-10.89Z"/></g></g></g><g id="e"/><g id="f"/><g id="g"/><g id="h"/><g id="i"/></svg>