<svg xmlns="http://www.w3.org/2000/svg" width="200" height="600" viewBox="0 0 200 600"><defs><style>.cls-1{fill:#293f02;}.cls-2{fill:#ea968c;}.cls-3{fill:#fff;}</style></defs><g id="monsters"><rect class="cls-1" x="93.38" y="366.48" width="12" height="227" rx="4.58"/><rect class="cls-1" x="69.38" y="579.15" width="36" height="14.33" rx="3.58"/><rect class="cls-1" x="119.14" y="358.99" width="12" height="227" rx="4.58" transform="translate(250.28 944.99) rotate(-180)"/><rect class="cls-1" x="119.14" y="571.67" width="36" height="14.33" rx="3.58" transform="translate(274.28 1157.66) rotate(-180)"/><rect class="cls-1" x="72.38" y="369.48" width="12" height="206" rx="4.58"/><rect class="cls-1" x="48.38" y="562.48" width="36" height="13" rx="3.58"/><path class="cls-2" d="M178.38,204.48c-25.5,98.59-35.9,179.47-81,178-57-1.86-89.94-77.88-83-174,7-97.29-13.77-179.12,83-183C202.19,21.28,204.38,104,178.38,204.48Z"/><path class="cls-3" d="M81.41,306.72v.15a.22.22,0,0,1,0,.08,42.21,42.21,0,0,1-8.34-4.45l-.83-14.29c-.1-1.76,1.53-10.42,3.75-10.55s4.23,7.95,4.34,9.71Z"/><path class="cls-3" d="M126.92,287.48c-2.61,7.67-6.16,13.09-10.08,16.89a29.16,29.16,0,0,1-6.1,4.57,30.91,30.91,0,0,1-15.26,3.85c-.84,0-1.63,0-2.38-.08a42.75,42.75,0,0,1-13.34-3.22,46.91,46.91,0,0,1-6.49-3.27c-7.53-4.57-13.24-11-14.51-17.38a1.5,1.5,0,1,1,2.94-.58c.94,4.72,5.24,10.07,11.36,14.24A42.21,42.21,0,0,0,81.4,307a39.44,39.44,0,0,0,11.9,2.77,27.68,27.68,0,0,0,15.56-3.19,28,28,0,0,0,8.16-6.91,42.66,42.66,0,0,0,7.06-13.11,1.5,1.5,0,0,1,2.84,1Z"/><path class="cls-3" d="M117.74,281.23,117,299.62a28,28,0,0,1-8.16,6.91,3.91,3.91,0,0,1-.15-1.24l.9-23.9c.08-2.22,2.61-12.89,4.83-12.81S117.82,279,117.74,281.23Z"/><ellipse class="cls-3" cx="94.38" cy="188.48" rx="40" ry="57"/><ellipse cx="94.38" cy="207.98" rx="13" ry="19.5"/></g></svg>