<?xml version="1.0" encoding="UTF-8"?><svg xmlns="http://www.w3.org/2000/svg" width="250" height="150" viewBox="0 0 250 150"><defs><style>.j{fill:#f8d347;}.k{fill:#df9b90;}.l{fill:#638dbb;}</style></defs><g id="a"/><g id="b"/><g id="c"/><g id="d"/><g id="e"/><g id="f"/><g id="g"/><g id="h"/><g id="i"><g><path class="l" d="M76.01,134.09c-6.19,17.29-36.42,14.86-40.11,7.6-11.3-22.24-9.65-71.9-11.86-77.59-10.2-26.15,56.6-24.79,57.62-5.43,1.84,34.95,.56,58.05-5.65,75.41Z"/><path class="j" d="M70.63,96.05c0,19.63,5.81,34.82-17.8,35.54-17.8,.54-17.83-15.91-17.8-35.54,.04-22.53-9.3-37.66,15.82-29.57,17.68,5.7,19.77,9.94,19.77,29.57Z"/><path class="k" d="M6.96,39.59C16.09,17.11,32.84,7.03,39.02,9.03c9.8,3.18,13.66,34.92,12.5,102.82-.02,1.22-1.08,2.19-2.35,2.14h0c-1.23-.05-2.19-1.03-2.17-2.21,.53-31.18-.07-55.25-1.78-71.57-.73-6.98-7.65-20.77-11.93-22.16-1.74-.56-19.43,16.23-22.03,23.33-.44,1.21-4.48,3.71-5.65,2.71"/></g><g><path class="l" d="M157.62,132.52c-6.19,17.29-36.42,14.86-40.11,7.6-11.3-22.24-9.65-71.9-11.86-77.59-10.2-26.15,56.6-24.79,57.62-5.43,1.84,34.95,.56,58.05-5.65,75.41Z"/><path class="j" d="M152.25,94.47c0,19.63,5.81,34.82-17.8,35.54-17.8,.54-17.83-15.91-17.8-35.54,.04-22.53-9.3-37.66,15.82-29.57,17.68,5.7,19.77,9.94,19.77,29.57Z"/><path class="k" d="M88.58,38.01C97.71,15.54,114.46,5.45,120.63,7.45c9.8,3.18,13.66,34.92,12.5,102.82-.02,1.22-1.08,2.19-2.35,2.14h0c-1.23-.05-2.19-1.03-2.17-2.21,.53-31.18-.07-55.25-1.78-71.57-.73-6.98-7.65-20.77-11.93-22.16-1.74-.56-19.43,16.23-22.03,23.33-.44,1.21-4.48,3.71-5.65,2.71"/></g><path class="l" d="M239.18,131.79c-6.19,17.29-36.42,14.86-40.11,7.6-11.3-22.24-9.65-71.9-11.86-77.59-10.2-26.15,56.6-24.79,57.62-5.43,1.84,34.95,.56,58.05-5.65,75.41Z"/></g></svg>