<?xml version="1.0" encoding="UTF-8"?><svg xmlns="http://www.w3.org/2000/svg" width="250" height="150" viewBox="0 0 250 150"><defs><style>.j{fill:#f8d347;}.k{fill:#df9b90;}.l{fill:#638dbb;}</style></defs><g id="a"/><g id="b"/><g id="c"/><g id="d"/><g id="e"/><g id="f"/><g id="g"/><g id="h"/><g id="i"><g><path class="l" d="M76.01,135.58c-6.19,17.49-36.42,15.03-40.11,7.68-11.3-22.5-9.65-72.72-11.86-78.47-10.2-26.45,56.6-25.07,57.62-5.49,1.84,35.35,.56,58.72-5.65,76.28Z"/><path class="j" d="M70.63,97.1c0,19.85,5.81,35.21-17.8,35.94-17.8,.55-17.83-16.09-17.8-35.94,.04-22.79-9.3-38.09,15.82-29.91,17.68,5.77,19.77,10.06,19.77,29.91Z"/><path class="k" d="M6.96,39.99C16.09,17.26,32.84,7.06,39.02,9.09c9.8,3.22,13.66,35.32,12.5,104-.02,1.23-1.08,2.21-2.35,2.16h0c-1.23-.05-2.19-1.04-2.17-2.23,.53-31.54-.07-55.88-1.78-72.39-.73-7.06-7.65-21.01-11.93-22.42-1.74-.57-19.43,16.41-22.03,23.6-.44,1.22-4.48,3.75-5.65,2.74"/></g><path class="l" d="M157.62,133.98c-6.19,17.49-36.42,15.03-40.11,7.68-11.3-22.5-9.65-72.72-11.86-78.47-10.2-26.45,56.6-25.07,57.62-5.49,1.84,35.35,.56,58.72-5.65,76.28Z"/><path class="l" d="M239.18,133.25c-6.19,17.49-36.42,15.03-40.11,7.68-11.3-22.5-9.65-72.72-11.86-78.47-10.2-26.45,56.6-25.07,57.62-5.49,1.84,35.35,.56,58.72-5.65,76.28Z"/></g></svg>