<?xml version="1.0" encoding="UTF-8"?><svg xmlns="http://www.w3.org/2000/svg" width="250" height="150" viewBox="0 0 250 150"><defs><style>.j{fill:#638dbb;}</style></defs><g id="a"/><g id="b"/><g id="c"/><g id="d"/><g id="e"/><g id="f"/><g id="g"/><g id="h"/><g id="i"><path class="j" d="M76.01,135.58c-6.19,17.49-36.42,15.03-40.11,7.68-11.3-22.5-9.65-72.72-11.86-78.47-10.2-26.45,56.6-25.07,57.62-5.49,1.84,35.35,.56,58.72-5.65,76.28Z"/><path class="j" d="M157.62,133.98c-6.19,17.49-36.42,15.03-40.11,7.68-11.3-22.5-9.65-72.72-11.86-78.47-10.2-26.45,56.6-25.07,57.62-5.49,1.84,35.35,.56,58.72-5.65,76.28Z"/><path class="j" d="M239.18,133.25c-6.19,17.49-36.42,15.03-40.11,7.68-11.3-22.5-9.65-72.72-11.86-78.47-10.2-26.45,56.6-25.07,57.62-5.49,1.84,35.35,.56,58.72-5.65,76.28Z"/></g></svg>