<?xml version="1.0" encoding="UTF-8"?><svg xmlns="http://www.w3.org/2000/svg" width="250" height="150" viewBox="0 0 250 150"><defs><style>.j{fill:#f8d347;}.k{fill:#df9b90;}.l{fill:#638dbb;}</style></defs><g id="a"/><g id="b"/><g id="c"/><g id="d"/><g id="e"/><g id="f"/><g id="g"/><g id="h"/><g id="i"><g><path class="l" d="M76.01,133.41c-6.19,17.2-36.42,14.79-40.11,7.56-11.3-22.13-9.65-71.53-11.86-77.19-10.2-26.02,56.6-24.66,57.62-5.4,1.84,34.77,.56,57.75-5.65,75.03Z"/><path class="j" d="M70.63,95.56c0,19.53,5.81,34.64-17.8,35.35-17.8,.54-17.83-15.83-17.8-35.35,.04-22.41-9.3-37.47,15.82-29.42,17.68,5.67,19.77,9.89,19.77,29.42Z"/><path class="k" d="M6.96,39.39C16.09,17.03,32.84,7,39.02,9c9.8,3.17,13.66,34.74,12.5,102.29-.02,1.21-1.08,2.17-2.35,2.12h0c-1.23-.05-2.19-1.02-2.17-2.2,.53-31.02-.07-54.97-1.78-71.2-.73-6.94-7.65-20.66-11.93-22.05-1.74-.56-19.43,16.15-22.03,23.21-.44,1.2-4.48,3.69-5.65,2.7"/></g><g><path class="l" d="M157.62,131.84c-6.19,17.2-36.42,14.79-40.11,7.56-11.3-22.13-9.65-71.53-11.86-77.19-10.2-26.02,56.6-24.66,57.62-5.4,1.84,34.77,.56,57.75-5.65,75.03Z"/><path class="j" d="M152.25,93.99c0,19.53,5.81,34.64-17.8,35.35-17.8,.54-17.83-15.83-17.8-35.35,.04-22.41-9.3-37.47,15.82-29.42,17.68,5.67,19.77,9.89,19.77,29.42Z"/><path class="k" d="M88.58,37.82C97.71,15.46,114.46,5.43,120.63,7.42c9.8,3.17,13.66,34.74,12.5,102.29-.02,1.21-1.08,2.17-2.35,2.12h0c-1.23-.05-2.19-1.02-2.17-2.2,.53-31.02-.07-54.97-1.78-71.2-.73-6.94-7.65-20.66-11.93-22.05-1.74-.56-19.43,16.15-22.03,23.21-.44,1.2-4.48,3.69-5.65,2.7"/></g><g><path class="l" d="M239.18,131.12c-6.19,17.2-36.42,14.79-40.11,7.56-11.3-22.13-9.65-71.53-11.86-77.19-10.2-26.02,56.6-24.66,57.62-5.4,1.84,34.77,.56,57.75-5.65,75.03Z"/><path class="j" d="M233.8,93.27c0,19.53,5.81,34.64-17.8,35.35-17.8,.54-17.83-15.83-17.8-35.35,.04-22.41-9.3-37.47,15.82-29.42,17.68,5.67,19.77,9.89,19.77,29.42Z"/><path class="k" d="M170.14,37.1c9.13-22.36,25.88-32.39,32.05-30.4,9.8,3.17,13.66,34.74,12.5,102.29-.02,1.21-1.08,2.17-2.35,2.12h0c-1.23-.05-2.19-1.02-2.17-2.2,.53-31.02-.07-54.97-1.78-71.2-.73-6.94-7.65-20.66-11.93-22.05-1.74-.56-19.43,16.15-22.03,23.21-.44,1.2-4.48,3.69-5.65,2.7"/></g></g></svg>