<?xml version="1.0" encoding="UTF-8"?><svg xmlns="http://www.w3.org/2000/svg" width="230" height="100" viewBox="0 0 230 100"><defs><style>.m{fill:#f4be58;}.n{fill:#deac59;}.o{fill:#578a55;}.p{fill:#387945;}</style></defs><g id="a"/><g id="b"/><g id="c"/><g id="d"/><g id="e"/><g id="f"/><g id="g"/><g id="h"/><g id="i"/><g id="j"/><g id="k"/><g id="l"><g><path class="n" d="M208.43,66.4c-16.33,15.8-55.99,26.2-109.32,27.16C21.87,94.96,5.94,62.18,9.03,39.68S56.97,12.69,110.3,12.06c108.69-1.3,121.32,31.9,98.13,54.35Z"/><path class="m" d="M203.26,61.32c-16.33,15.8-55.99,26.2-109.32,27.16C16.7,89.88,.77,57.1,3.86,34.59,6.95,12.08,51.8,7.61,105.13,6.97c108.69-1.3,121.32,31.9,98.13,54.35Z"/><g><path class="o" d="M43.54,63.48c-1.02,0-1.77-.29-2.3-1.81-1.27-3.74-1.9-9.93-1.87-15.46,.08-12.66,1.52-14.16,13.01-14.08,15.43,.1,19.61,4.95,19.57,11.23-.07,10.29-7.65,15.39-12.95,15.36-3.13-.02-5.28-3.25-6.44-3.25-.54,0-.82,.32-.82,.75-.02,2.97,1.33,4.87,1.32,5.58,0,.52-.62,.75-1.5,.89-2.52,.31-6.33,.81-8.02,.8Zm7.93-17.47c-.03,4.68,1.52,5.77,3.63,5.79,3.06,.02,4.65-3.46,4.68-8.71,.02-3.31-1.67-4.69-5.07-4.71-2.24-.01-3.2,1.4-3.25,7.63Z"/><path class="o" d="M92.83,62.72c-1.56,.08-3.4,.07-5.3,.06-1.9-.01-3.87-.03-5.5-.13-.75-.05-1.77-.29-1.89-1.38-.52-3.88-.76-8.41-.73-13.13,.05-7.7,.79-16.01,2.19-22.89,.21-.99,.96-1.13,1.84-1.22,1.56-.04,3.06-.07,4.62-.06,1.56,0,3.13,.07,4.55,.12,.95,.05,1.56,.34,1.56,1,0,.8-1.28,9.06-1.34,17.75-.06,9.16,1.31,17.58,1.3,18.95,0,.61-.55,.89-1.3,.94Z"/><path class="o" d="M100.91,53.85c.05-6.85,7.81-9.54,16.65-10.37,2.11-.22,3.13-.55,3.14-1.4,0-1.46-1.14-2.42-4.4-2.44-3.53-.02-7.07,.99-10.28,2.95-.41,.28-.82,.42-1.16,.42-.27,0-.61-.1-.88-.29-1.29-.86-2.5-2.38-2.49-4.31,.02-3.35,5.95-5.91,15.67-5.85,11.42,.08,15.4,4.07,15.35,11.11-.02,2.88-.39,7.41-.41,10.91-.02,2.74,.5,5.86,.5,6.62,0,.8-.55,1.32-1.71,1.45-2.18,.32-9.65,.31-14.14,.28-10.4-.07-15.88-2.8-15.84-9.08Zm19.8-3.22c0-1.42-.26-1.8-1.42-1.8-3.74-.03-6.81,1.46-6.82,3.92-.01,2.08,2.02,2.99,5.48,3.01,2.17,.01,2.72-.64,2.73-2.06l.02-3.07Z"/><path class="o" d="M141.62,54.5c1.9,.01,4.42,.31,6.59,.37,2.45,.02,4.28-.21,4.29-1.2,0-.28-.34-.52-.88-.71-8.07-2.79-11.71-7.16-11.64-17.79,0-1.28,.56-1.7,2.25-1.78,1.22-.09,2.72-.12,4.35-.11,1.63,.01,3.47,.07,5.1,.18,.75,.05,1.43,.2,1.42,.86,0,.47-.29,1.98-.29,3.4-.04,5.95,2.99,10.6,5.37,10.61,.48,0,.82-.18,1.02-.65,.76-1.6,1.19-4.71,1.21-7.74,.02-2.36-.44-4.91-.44-5.48,0-.61,.75-.89,1.43-.94,1.16-.09,2.92-.07,4.49-.06,1.63,.01,3.19,.02,4.08,.12,1.9,.2,2.44,1.2,2.43,2.61-.11,16.34-4.67,27.83-30.5,27.66-1.83-.01-2.24-.54-2.37-1.53-.06-.66-.13-1.42-.12-2.27,0-1.46,.16-3.02,.37-4.39,.14-.8,.82-1.18,1.84-1.17Z"/></g><g><path class="p" d="M39.97,61.87c-1.02,0-1.76-.29-2.3-1.81-1.27-3.74-1.9-9.93-1.87-15.46,.08-12.66,1.52-14.16,13.01-14.08,15.43,.1,19.61,4.95,19.57,11.23-.07,10.29-7.65,15.39-12.95,15.36-3.13-.02-5.28-3.25-6.44-3.25-.54,0-.82,.32-.82,.75-.02,2.97,1.33,4.87,1.32,5.58,0,.52-.62,.75-1.5,.89-2.52,.31-6.33,.81-8.02,.8Zm7.93-17.47c-.03,4.68,1.52,5.77,3.63,5.79,3.06,.02,4.65-3.46,4.68-8.71,.02-3.31-1.67-4.69-5.07-4.71-2.24-.02-3.2,1.4-3.25,7.63Z"/><path class="p" d="M89.25,61.11c-1.56,.08-3.4,.07-5.3,.06-1.9-.01-3.87-.03-5.5-.13-.75-.05-1.77-.29-1.89-1.38-.52-3.88-.76-8.41-.73-13.13,.05-7.7,.79-16,2.19-22.89,.21-.99,.96-1.13,1.84-1.21,1.56-.04,3.06-.07,4.62-.06,1.56,.01,3.13,.07,4.55,.12,.95,.05,1.56,.34,1.56,1,0,.8-1.28,9.06-1.34,17.75-.06,9.16,1.31,17.58,1.3,18.95,0,.61-.55,.89-1.3,.94Z"/><path class="p" d="M97.33,52.24c.05-6.85,7.81-9.54,16.65-10.37,2.11-.22,3.13-.55,3.14-1.4,0-1.46-1.14-2.42-4.4-2.44-3.53-.02-7.07,.99-10.28,2.95-.41,.28-.82,.42-1.16,.42-.27,0-.61-.1-.88-.29-1.29-.86-2.5-2.38-2.49-4.31,.02-3.35,5.95-5.91,15.67-5.85,11.42,.08,15.4,4.07,15.35,11.11-.02,2.88-.39,7.41-.41,10.91-.02,2.74,.51,5.86,.5,6.62,0,.8-.55,1.32-1.71,1.45-2.18,.32-9.65,.31-14.14,.28-10.4-.07-15.88-2.8-15.84-9.08Zm19.8-3.22c0-1.42-.26-1.8-1.42-1.8-3.74-.03-6.81,1.46-6.82,3.92-.01,2.08,2.02,2.99,5.48,3.01,2.17,.01,2.72-.64,2.73-2.06l.02-3.07Z"/><path class="p" d="M138.04,52.88c1.9,.01,4.42,.31,6.59,.37,2.45,.02,4.28-.21,4.29-1.2,0-.28-.34-.52-.88-.71-8.07-2.79-11.71-7.16-11.64-17.79,0-1.28,.55-1.7,2.25-1.78,1.22-.08,2.72-.12,4.35-.11,1.63,.01,3.47,.07,5.1,.18,.75,.05,1.43,.2,1.42,.86,0,.47-.29,1.98-.29,3.4-.04,5.95,2.99,10.6,5.37,10.61,.48,0,.82-.18,1.02-.65,.76-1.6,1.19-4.71,1.21-7.74,.02-2.36-.44-4.92-.44-5.48,0-.61,.75-.89,1.43-.94,1.16-.09,2.92-.07,4.49-.06,1.63,.01,3.19,.02,4.08,.12,1.9,.2,2.44,1.2,2.43,2.61-.11,16.34-4.67,27.83-30.5,27.66-1.83-.01-2.24-.53-2.37-1.53-.06-.66-.13-1.42-.12-2.27,0-1.46,.16-3.02,.37-4.39,.14-.8,.82-1.18,1.84-1.17Z"/></g></g></g></svg>