<?xml version="1.0" encoding="UTF-8"?><svg xmlns="http://www.w3.org/2000/svg" width="225.58" height="90.6" viewBox="0 0 225.58 90.6"><defs><style>.j{fill:#f4be58;}.k{fill:#e7a947;}.l{fill:#578a55;}.m{fill:#387945;}</style></defs><g id="a"/><g id="b"/><g id="c"/><g id="d"/><g id="e"/><g id="f"/><g id="g"/><g id="h"><g><path class="m" d="M208.17,59.85c-15.95,14.67-54.65,24.3-106.68,25.15C26.13,86.22,10.62,55.73,13.65,34.81,16.69,13.89,60.45,9.77,112.49,9.23c106.04-1.1,118.34,29.77,95.69,50.62Z"/><path class="l" d="M203.14,55.11c-15.95,14.67-54.65,24.3-106.68,25.15C21.09,81.49,5.58,51,8.62,30.08,11.65,9.16,55.42,5.04,107.45,4.5c106.04-1.1,118.34,29.77,95.69,50.62Z"/><g><path class="k" d="M38.05,48.03c-.47,0-.82-.13-1.07-.8-.59-1.66-.88-4.4-.86-6.85,.05-5.61,.71-6.27,6.06-6.23,7.17,.05,9.11,2.2,9.09,4.98-.04,4.56-3.56,6.82-6.03,6.8-1.45,0-2.45-1.44-2.99-1.44-.25,0-.38,.14-.38,.33-.01,1.32,.61,2.16,.61,2.47,0,.23-.29,.33-.7,.39-1.17,.14-2.94,.36-3.73,.35Zm3.7-7.74c-.02,2.07,.71,2.56,1.69,2.57,1.42,0,2.16-1.53,2.18-3.85,.01-1.46-.77-2.08-2.35-2.09-1.04,0-1.49,.62-1.51,3.38Z"/><path class="k" d="M60.96,47.72c-.73,.04-1.58,.03-2.47,.02s-1.8-.01-2.56-.06c-.35-.02-.82-.13-.88-.61-.24-1.72-.35-3.73-.33-5.82,.03-3.41,.37-7.09,1.03-10.14,.1-.44,.45-.5,.86-.54,.73-.02,1.42-.03,2.15-.03,.73,0,1.45,.03,2.12,.06,.44,.02,.73,.15,.72,.44,0,.36-.6,4.01-.63,7.86-.03,4.06,.6,7.79,.6,8.39,0,.27-.26,.4-.6,.41Z"/><path class="k" d="M64.72,43.79c.02-3.03,3.64-4.22,7.75-4.59,.98-.1,1.46-.24,1.46-.62,0-.65-.53-1.07-2.05-1.08-1.64-.01-3.29,.44-4.78,1.3-.19,.12-.38,.19-.54,.18-.13,0-.28-.04-.41-.13-.6-.38-1.16-1.05-1.15-1.91,.01-1.49,2.77-2.62,7.29-2.58,5.31,.04,7.16,1.81,7.13,4.93-.01,1.28-.18,3.28-.2,4.83,0,1.21,.23,2.6,.23,2.93,0,.36-.26,.58-.8,.64-1.01,.14-4.49,.13-6.57,.12-4.83-.04-7.39-1.25-7.36-4.03Zm9.21-1.42c0-.63-.12-.79-.66-.8-1.74-.01-3.17,.65-3.17,1.73,0,.92,.94,1.32,2.55,1.34,1.01,0,1.27-.28,1.27-.91v-1.36Z"/><path class="k" d="M83.64,44.1c.88,0,2.05,.14,3.06,.17,1.14,0,1.99-.09,2-.53,0-.13-.16-.23-.41-.32-3.75-1.24-5.44-3.18-5.4-7.88,0-.56,.26-.75,1.05-.79,.57-.04,1.26-.05,2.02-.05,.76,0,1.61,.03,2.37,.08,.35,.02,.66,.09,.66,.38,0,.21-.13,.88-.14,1.5-.02,2.63,1.38,4.7,2.49,4.7,.22,0,.38-.08,.48-.29,.35-.71,.55-2.09,.57-3.43,0-1.05-.2-2.18-.2-2.43,0-.27,.35-.39,.67-.41,.54-.04,1.36-.03,2.09-.03,.76,0,1.49,.01,1.9,.06,.88,.09,1.13,.53,1.13,1.16-.06,7.24-2.19,12.33-14.19,12.24-.85,0-1.04-.24-1.1-.68-.03-.29-.06-.63-.05-1,0-.65,.07-1.34,.17-1.94,.07-.35,.38-.52,.86-.52Z"/><path class="k" d="M107.47,44.1c.02-3.03,3.64-4.22,7.75-4.59,.98-.1,1.46-.24,1.46-.62,0-.65-.53-1.07-2.05-1.08-1.64-.01-3.29,.44-4.78,1.3-.19,.12-.38,.19-.54,.18-.13,0-.28-.04-.41-.13-.6-.38-1.16-1.05-1.15-1.91,.01-1.49,2.77-2.62,7.29-2.58,5.31,.04,7.16,1.81,7.13,4.93-.01,1.28-.18,3.28-.2,4.83-.01,1.21,.23,2.6,.23,2.93,0,.36-.26,.58-.8,.64-1.01,.14-4.49,.13-6.57,.12-4.83-.04-7.39-1.25-7.36-4.03Zm9.21-1.42c0-.63-.12-.8-.66-.8-1.74-.01-3.17,.65-3.17,1.74,0,.92,.94,1.32,2.55,1.34,1.01,0,1.27-.28,1.27-.91v-1.36Z"/><path class="k" d="M133.1,34.82c1.33,0,1.86,.14,2.46,.14,.82,0,1.27-.74,1.94-1.33,.32-.35,.67-.52,1.02-.52,.79,0,2.83,1.34,2.83,1.88,0,.12-.1,.27-.32,.35-.7,.25-1.43,.49-1.43,1.01,0,.56,1.38,.91,1.37,2.9-.02,2.41-2.34,4.04-7.46,4-2.72-.02-3.48,.66-3.49,1.29,0,.42,.34,.61,1.07,.62,1.45,0,3.8-.89,6.42-.87,1.3,0,2.37,.21,3.06,.52,.44,.19,.57,.46,.56,.76,0,.96-.91,2.92-1.92,2.92-.22,0-.44-.05-.66-.11-.6-.26-1.35-.47-2.65-.48-1.93-.01-3.39,.64-6.04,.62-2.94-.02-4.61-.98-4.59-2.69,.01-1.44,1.19-2.42,2.24-3.02,.22-.15,.35-.25,.35-.38,0-.1-.12-.21-.25-.32-.85-.57-1.88-1.58-1.87-3.15,.02-2.61,2.97-4.2,7.37-4.17Zm.34,5.44c1.23,0,2.22-.53,2.22-1.39,0-.82-.87-1.39-2.17-1.4-1.33,0-2.18,.55-2.19,1.36,0,.82,.84,1.41,2.14,1.42Z"/><path class="k" d="M143.92,44.37c.02-3.03,3.64-4.22,7.75-4.59,.98-.1,1.46-.24,1.46-.62,0-.65-.53-1.07-2.05-1.08-1.64-.01-3.29,.44-4.78,1.3-.19,.12-.38,.19-.54,.18-.13,0-.28-.04-.41-.13-.6-.38-1.16-1.05-1.15-1.91,.01-1.49,2.77-2.62,7.29-2.58,5.31,.04,7.16,1.81,7.13,4.93-.01,1.28-.18,3.28-.2,4.83-.01,1.21,.23,2.6,.23,2.93,0,.36-.26,.58-.8,.64-1.01,.14-4.49,.13-6.57,.12-4.83-.04-7.39-1.25-7.36-4.03Zm9.21-1.42c0-.63-.12-.8-.66-.8-1.74-.01-3.17,.65-3.17,1.73,0,.92,.94,1.32,2.55,1.34,1.01,0,1.27-.28,1.27-.91v-1.36Z"/><path class="k" d="M168.63,48.51c-.76,.04-1.64,.05-2.56,.04s-1.8-.03-2.59-.08c-.32-.02-.73-.11-.79-.55-.24-1.4-.35-3.06-.34-4.77,.02-2.53,.29-5.19,.85-7.29,.13-.42,.48-.5,.89-.52,.7-.04,1.33-.03,1.93-.03,.63,0,1.26,0,1.96,.06,.47,.02,.73,.17,.72,.42,0,.46-.24,2.36-.26,4.58-.03,4.16,.8,7.04,.79,7.77,0,.25-.29,.35-.6,.37Zm-5.94-15.73c0-1.11,1.12-1.79,3.46-1.77,2.46,.02,3.44,.72,3.43,1.83,0,1.09-.99,1.71-3.46,1.69-2.34-.02-3.44-.65-3.43-1.74Z"/><path class="k" d="M188.16,40.64c-.03,3.18-.53,6.52-.72,7.4-.1,.4-.42,.58-.89,.6-.51,.04-1.2,.03-1.93,.03-.79,0-1.55-.03-2.21-.06-.51-.05-.69-.19-.69-.44,0-.96,.51-4.45,.53-7.19,.01-1.49-.36-2.2-1.53-2.21-.57,0-1.08,.12-1.46,.36-.54,.33-.77,.92-.78,2.44-.03,3.14,.4,5.84,.39,6.47,0,.38-.26,.52-.83,.54-.57,.02-1.17,.03-1.77,.03-.79,0-1.55-.03-2.12-.06-.54-.02-.88-.13-.94-.68-.21-1.61-.35-3.66-.33-6.03,.01-1.69,.09-3.56,.33-5.52,.07-.67,.67-.83,1.49-.89,.57-.02,1.23-.03,1.86-.03,.54,0,1.07,.03,1.45,.05,.57,.03,.79,.19,.79,.49s.15,.4,.44,.4c.95,0,2.16-1.09,4.53-1.08,3,.02,4.41,1.48,4.38,5.37Z"/></g><g><path class="j" d="M36.76,46.67c-.47,0-.82-.13-1.07-.8-.59-1.66-.88-4.4-.86-6.85,.04-5.61,.71-6.27,6.05-6.23,7.17,.05,9.11,2.2,9.09,4.98-.04,4.56-3.56,6.81-6.03,6.8-1.45-.01-2.45-1.44-2.99-1.44-.25,0-.38,.14-.38,.33-.01,1.32,.61,2.16,.61,2.47,0,.23-.29,.33-.7,.39-1.17,.14-2.94,.36-3.73,.35Zm3.7-7.74c-.02,2.07,.71,2.56,1.69,2.57,1.42,.01,2.16-1.53,2.18-3.85,.01-1.46-.77-2.08-2.35-2.09-1.04,0-1.49,.62-1.51,3.38Z"/><path class="j" d="M59.67,46.36c-.73,.04-1.58,.03-2.46,.02-.88,0-1.8-.01-2.56-.06-.35-.02-.82-.13-.88-.61-.24-1.72-.35-3.73-.33-5.82,.03-3.41,.37-7.09,1.03-10.14,.1-.44,.45-.5,.86-.54,.73-.02,1.42-.03,2.15-.03,.73,0,1.45,.03,2.12,.06,.44,.02,.73,.15,.72,.45,0,.36-.6,4.01-.63,7.86-.03,4.06,.6,7.79,.6,8.39,0,.27-.26,.4-.6,.41Z"/><path class="j" d="M63.43,42.43c.02-3.03,3.64-4.22,7.75-4.59,.98-.1,1.46-.24,1.46-.62,0-.65-.53-1.07-2.05-1.08-1.64-.01-3.29,.44-4.78,1.3-.19,.12-.38,.19-.54,.18-.13,0-.28-.04-.41-.13-.6-.38-1.16-1.05-1.15-1.91,.01-1.49,2.77-2.62,7.29-2.58,5.31,.04,7.16,1.81,7.13,4.93-.01,1.28-.19,3.28-.2,4.83,0,1.21,.23,2.59,.23,2.93,0,.36-.26,.58-.79,.64-1.01,.14-4.49,.13-6.57,.12-4.83-.04-7.38-1.25-7.36-4.03Zm9.21-1.42c0-.63-.12-.8-.66-.8-1.74-.01-3.17,.65-3.17,1.73,0,.92,.94,1.32,2.55,1.34,1.01,0,1.27-.28,1.27-.91v-1.36Z"/><path class="j" d="M82.35,42.74c.88,0,2.05,.14,3.06,.17,1.14,0,1.99-.09,2-.53,0-.13-.16-.23-.41-.32-3.75-1.24-5.44-3.18-5.4-7.88,0-.56,.26-.75,1.05-.79,.57-.04,1.26-.05,2.02-.05,.76,0,1.61,.03,2.37,.08,.35,.02,.66,.09,.66,.38,0,.21-.13,.88-.14,1.5-.02,2.64,1.38,4.7,2.49,4.7,.22,0,.38-.08,.48-.29,.35-.71,.55-2.09,.56-3.43,0-1.05-.2-2.18-.2-2.43,0-.27,.35-.39,.67-.41,.54-.04,1.36-.03,2.09-.03,.76,0,1.49,.01,1.9,.06,.88,.09,1.13,.53,1.13,1.16-.06,7.24-2.19,12.33-14.19,12.24-.85,0-1.04-.24-1.1-.68-.03-.29-.06-.63-.05-1.01,0-.65,.07-1.34,.17-1.94,.07-.35,.38-.52,.86-.52Z"/><path class="j" d="M106.17,42.74c.02-3.03,3.64-4.22,7.75-4.59,.98-.1,1.46-.24,1.46-.62,0-.65-.53-1.07-2.05-1.08-1.64-.01-3.29,.44-4.78,1.3-.19,.12-.38,.19-.54,.18-.13,0-.28-.04-.41-.13-.6-.38-1.16-1.05-1.15-1.91,.01-1.49,2.77-2.62,7.29-2.58,5.31,.04,7.16,1.81,7.13,4.93-.01,1.28-.19,3.28-.2,4.83,0,1.21,.23,2.6,.23,2.93,0,.36-.26,.58-.79,.64-1.01,.14-4.49,.13-6.57,.12-4.83-.04-7.38-1.25-7.36-4.03Zm9.21-1.42c0-.63-.12-.8-.66-.8-1.74-.01-3.17,.65-3.17,1.74,0,.92,.94,1.32,2.55,1.34,1.01,0,1.27-.28,1.27-.91v-1.36Z"/><path class="j" d="M131.81,33.46c1.33,0,1.86,.14,2.46,.14,.82,0,1.27-.74,1.94-1.33,.32-.35,.67-.52,1.02-.52,.79,0,2.83,1.34,2.83,1.88,0,.12-.1,.27-.32,.35-.7,.25-1.43,.49-1.43,1.01,0,.56,1.38,.91,1.37,2.9-.02,2.4-2.34,4.04-7.46,4-2.72-.02-3.48,.67-3.49,1.29,0,.42,.34,.61,1.07,.61,1.45,.01,3.8-.89,6.42-.87,1.29,0,2.37,.21,3.06,.52,.44,.19,.56,.46,.56,.76,0,.96-.91,2.92-1.92,2.92-.22,0-.44-.04-.66-.11-.6-.26-1.35-.47-2.65-.48-1.93-.01-3.39,.64-6.04,.62-2.94-.02-4.61-.98-4.59-2.69,.01-1.44,1.19-2.42,2.24-3.02,.22-.15,.35-.25,.35-.38,0-.1-.12-.21-.25-.32-.85-.57-1.88-1.58-1.87-3.15,.02-2.61,2.97-4.2,7.37-4.17Zm.33,5.44c1.23,0,2.22-.53,2.22-1.38,0-.82-.87-1.39-2.17-1.4-1.33,0-2.18,.55-2.19,1.37,0,.82,.84,1.41,2.14,1.42Z"/><path class="j" d="M142.63,43.01c.02-3.03,3.64-4.22,7.75-4.59,.98-.1,1.46-.24,1.46-.62,0-.65-.53-1.07-2.05-1.08-1.64-.01-3.29,.44-4.78,1.3-.19,.12-.38,.19-.54,.18-.13,0-.28-.04-.41-.13-.6-.38-1.16-1.05-1.15-1.91,.01-1.49,2.77-2.62,7.29-2.58,5.31,.04,7.16,1.81,7.13,4.93-.01,1.28-.19,3.28-.2,4.83,0,1.21,.23,2.6,.23,2.93,0,.36-.26,.58-.79,.64-1.01,.14-4.49,.13-6.57,.12-4.83-.04-7.38-1.25-7.36-4.03Zm9.21-1.42c0-.63-.12-.8-.66-.8-1.74-.01-3.17,.65-3.17,1.73,0,.92,.94,1.32,2.55,1.34,1.01,0,1.27-.28,1.27-.91v-1.36Z"/><path class="j" d="M167.34,47.15c-.76,.04-1.64,.05-2.56,.04-.92,0-1.8-.03-2.59-.08-.32-.02-.73-.11-.79-.55-.24-1.4-.35-3.06-.34-4.77,.02-2.53,.29-5.19,.85-7.29,.13-.42,.48-.5,.89-.52,.7-.04,1.33-.03,1.93-.03,.63,0,1.26,0,1.96,.06,.47,.02,.73,.17,.72,.42,0,.46-.24,2.36-.26,4.58-.03,4.16,.8,7.04,.79,7.77,0,.25-.29,.35-.6,.37Zm-5.94-15.73c0-1.11,1.12-1.79,3.46-1.77,2.46,.02,3.44,.72,3.43,1.83,0,1.09-.99,1.71-3.46,1.69-2.34-.02-3.44-.65-3.43-1.74Z"/><path class="j" d="M186.86,39.28c-.03,3.18-.53,6.52-.72,7.4-.1,.4-.42,.58-.89,.6-.51,.04-1.2,.03-1.93,.03-.79,0-1.55-.03-2.21-.06-.51-.05-.69-.19-.69-.44,0-.96,.51-4.45,.53-7.19,.01-1.48-.36-2.2-1.53-2.21-.57,0-1.08,.12-1.46,.37-.54,.33-.77,.92-.78,2.44-.03,3.14,.4,5.84,.39,6.47,0,.38-.26,.52-.83,.54-.57,.02-1.17,.03-1.77,.03-.79,0-1.55-.03-2.12-.06-.54-.02-.88-.13-.94-.68-.21-1.61-.35-3.66-.33-6.03,.01-1.69,.09-3.55,.33-5.52,.07-.67,.67-.83,1.49-.89,.57-.02,1.23-.03,1.86-.03,.54,0,1.07,.03,1.45,.05,.57,.03,.79,.19,.79,.49s.15,.4,.44,.4c.95,0,2.16-1.09,4.53-1.08,3,.02,4.41,1.48,4.38,5.37Z"/></g></g></g><g id="i"/></svg>