<svg xmlns="http://www.w3.org/2000/svg" width="230" height="100" viewBox="0 0 230 100"><defs><style>.cls-1{fill:#387945;}.cls-2{fill:#578a55;}.cls-3{fill:#e7a947;}.cls-4{fill:#f4be58;}</style></defs><g id="buttons"><path class="cls-1" d="M214.2,72C196.71,87.31,155.14,96.47,99.67,95.75,19.34,94.7,3.85,61.35,7.81,38.9S58.53,13.38,114,14.44C227,16.58,239.05,50.25,214.2,72Z"/><path class="cls-2" d="M209,66.74C191.5,82.06,149.93,91.22,94.47,90.49c-80.34-1-95.82-34.4-91.87-56.85S53.32,8.12,108.78,9.18C221.8,11.33,233.84,45,209,66.74Z"/><path class="cls-3" d="M42.9,63.84c-1.06,0-1.82-.35-2.33-1.88-1.19-3.79-1.65-10-1.43-15.54.5-12.68,2-14.14,14-13.7,16,.6,20.22,5.58,20,11.87-.41,10.31-8.45,15.18-14,15-3.25-.12-5.38-3.42-6.58-3.46a.75.75,0,0,0-.88.73c-.12,3,1.22,4.92,1.19,5.63,0,.52-.66.73-1.59.84C48.65,63.53,44.67,63.91,42.9,63.84ZM51.72,46.6c-.18,4.68,1.4,5.83,3.59,5.91,3.18.11,4.94-3.33,5.15-8.58.13-3.31-1.58-4.74-5.11-4.87C53,39,52,40.35,51.72,46.6Z"/><path class="cls-3" d="M94.16,64.65c-1.63,0-3.54,0-5.52-.11s-4-.15-5.71-.31c-.78-.07-1.83-.35-1.93-1.44a93.37,93.37,0,0,1-.32-13.18,119.9,119.9,0,0,1,3-22.86c.25-1,1-1.1,2-1.16,1.62,0,3.18,0,4.8.08s3.25.17,4.73.27c1,.09,1.61.39,1.59,1.06a163.34,163.34,0,0,0-2,17.73c-.37,9.18.78,17.65.73,19C95.51,64.37,94.94,64.63,94.16,64.65Z"/><path class="cls-3" d="M102.85,56c.27-6.86,8.43-9.31,17.65-9.87,2.2-.15,3.27-.44,3.31-1.3,0-1.46-1.11-2.45-4.5-2.58a20.87,20.87,0,0,0-10.79,2.64,2.32,2.32,0,0,1-1.21.38,1.7,1.7,0,0,1-.91-.32,5.22,5.22,0,0,1-2.44-4.4c.13-3.36,6.38-5.73,16.48-5.36,11.87.44,15.87,4.57,15.59,11.61-.11,2.89-.64,7.42-.78,10.92-.11,2.74.33,5.88.3,6.64s-.62,1.3-1.83,1.4c-2.27.25-10,0-14.7-.17C108.21,65.21,102.6,62.31,102.85,56Zm20.69-2.6c0-1.42-.22-1.81-1.42-1.85-3.88-.15-7.12,1.25-7.22,3.71-.08,2.08,2,3.06,5.6,3.19,2.27.08,2.86-.56,2.91-2Z"/><path class="cls-3" d="M145.14,58c2,.07,4.58.45,6.84.58,2.54.1,4.46-.07,4.5-1.06,0-.29-.33-.53-.89-.75-8.3-3-11.94-7.54-11.51-18.18,0-1.28.63-1.68,2.4-1.71,1.27-.05,2.83,0,4.52,0s3.6.18,5.3.34c.77.08,1.47.24,1.45.91,0,.47-.37,2-.42,3.39-.24,6,2.75,10.71,5.23,10.8a1,1,0,0,0,1.08-.62C164.48,50.1,165,47,165.15,44c.1-2.37-.3-4.94-.27-5.51s.81-.87,1.52-.89c1.2,0,3,0,4.66.08s3.32.12,4.24.25c2,.26,2.49,1.28,2.44,2.7C177.08,57,172,68.33,145.12,67.34c-1.9-.07-2.31-.61-2.41-1.61,0-.66-.08-1.42-.05-2.27a29.44,29.44,0,0,1,.53-4.39C143.36,58.27,144.08,57.92,145.14,58Z"/><path class="cls-4" d="M40.62,62.42c-1.06,0-1.82-.35-2.33-1.88-1.19-3.79-1.65-10-1.43-15.55.51-12.67,2-14.13,14-13.69,16,.59,20.22,5.58,20,11.87-.4,10.31-8.45,15.18-14,15-3.25-.12-5.38-3.42-6.58-3.46a.75.75,0,0,0-.88.72c-.12,3,1.22,4.93,1.19,5.64,0,.52-.66.73-1.59.84C46.37,62.11,42.39,62.49,40.62,62.42Zm8.82-17.25c-.18,4.69,1.4,5.83,3.59,5.91,3.18.12,4.94-3.32,5.15-8.57.13-3.31-1.58-4.74-5.11-4.87C50.74,37.55,49.69,38.93,49.44,45.17Z"/><path class="cls-4" d="M91.88,63.23c-1.63,0-3.54,0-5.52-.11s-4-.15-5.71-.31c-.78-.07-1.83-.35-1.93-1.44a93.37,93.37,0,0,1-.32-13.18,119.9,119.9,0,0,1,3-22.86c.25-1,1-1.1,2-1.16,1.62,0,3.18,0,4.8.08s3.25.17,4.73.27c1,.08,1.61.39,1.59,1.05a166.91,166.91,0,0,0-2,17.74c-.37,9.17.78,17.65.73,19C93.23,62.94,92.66,63.21,91.88,63.23Z"/><path class="cls-4" d="M100.57,54.59c.27-6.85,8.43-9.3,17.65-9.86,2.2-.15,3.27-.44,3.31-1.3,0-1.46-1.11-2.45-4.5-2.58a20.8,20.8,0,0,0-10.78,2.63,2.31,2.31,0,0,1-1.22.39,1.76,1.76,0,0,1-.91-.32,5.22,5.22,0,0,1-2.44-4.4c.13-3.36,6.38-5.73,16.48-5.36,11.87.44,15.88,4.56,15.6,11.61-.12,2.89-.65,7.41-.79,10.91-.11,2.75.33,5.89.3,6.65s-.62,1.3-1.83,1.4c-2.27.24-10,0-14.7-.17C105.93,63.79,100.32,60.89,100.57,54.59ZM121.26,52c0-1.42-.22-1.81-1.42-1.86-3.88-.14-7.12,1.26-7.22,3.72-.08,2.08,2,3,5.61,3.19,2.26.08,2.85-.56,2.9-2Z"/><path class="cls-4" d="M142.86,56.54c2,.07,4.58.45,6.84.58,2.55.09,4.46-.07,4.5-1.06,0-.29-.33-.54-.89-.75-8.29-3.05-11.94-7.54-11.51-18.19,0-1.27.63-1.68,2.4-1.7,1.27-.05,2.83,0,4.53,0s3.6.18,5.29.34c.77.07,1.47.24,1.45.9,0,.48-.36,2-.42,3.4-.24,6,2.76,10.71,5.23,10.8a1,1,0,0,0,1.08-.62c.84-1.58,1.39-4.69,1.51-7.72.1-2.36-.3-4.93-.27-5.5s.81-.87,1.52-.89c1.2,0,3,0,4.66.08s3.32.12,4.24.25c2,.26,2.49,1.28,2.44,2.69-.65,16.37-5.78,27.74-32.62,26.74-1.9-.07-2.31-.6-2.41-1.6,0-.67-.08-1.42-.05-2.28a29.46,29.46,0,0,1,.53-4.38C141.08,56.85,141.8,56.5,142.86,56.54Z"/></g></svg>