<?xml version="1.0" encoding="UTF-8"?><svg xmlns="http://www.w3.org/2000/svg" width="870.26" height="490.32" viewBox="0 0 870.26 490.32"><defs><style>.j{fill:#f4be58;}.k{fill:#eedec0;}.l{fill:#e7a947;}.m{fill:#ea968c;}.n{fill:#ebc8c3;}.o{fill:#fff;}.p{fill:#f5bd57;}.q{fill:#f5bd58;}.r{fill:#f1622c;}.s{fill:#df9b90;}.t{fill:#df4b37;}.u{fill:#cd3d31;}.v{fill:#e17d70;}.w{fill:#da7e68;}.x{fill:#e16b3d;}.y{fill:#151225;}.a`{fill:#22210c;}.aa{fill:#141a21;}.ab{fill:#565d88;}.ac{fill:#638dbb;}.ad{fill:#293f02;}.ae{fill:#2e3e0e;}.af{fill:#3c6087;}.ag{fill:#3c6088;}.ah{fill:#578a55;}.ai{fill:#5e7c9d;}.aj{fill:#4f7f50;}</style></defs><g id="a"/><g id="b"><g id="c"><rect class="ah" x=".26" width="870" height="490"/><path class="l" d="M276.05,71.32C142.42,83.81,50.9,143.96,.26,93.81V1H280.43c3.4,29.66,5.98,69.35-4.38,70.32Z"/><path class="p" d="M270.33,66.46C138.57,78.77,48.96,138.81,.26,85.99V1H274.9c3.13,28.43,5.16,64.55-4.57,65.46Z"/><path class="k" d="M303.99,413.5c-62.35,23.19-113.06,50.62-155.9,76.82H0v-179.46c49.31-17.61,110.26-43.59,186.05-86.51,54.2-30.7,209.83,154.96,117.95,189.14Z"/><g id="d"><path class="q" d="M103.54,343.36c.04,10.26,1.02,17.9-1.06,18.58-1.14,.37-2.36-8.38-1.22-18.57,1.07-9.53-.84-18.57,1.06-18.58,2.26,0,1.17,8.31,1.22,18.57Z"/><path class="q" d="M102.53,340.12h0c-2.57,.01-4.68-2.2-4.69-4.91l-.04-8.94c1.65-2.27,4.54,8.6,4.54,8.6,1.93-1.91,2.23-11.4,4.81-8.13l.04,8.43c.01,2.71-2.08,4.94-4.65,4.95Z"/></g><g id="e"><path class="q" d="M114.98,336.6c0,9.45,.92,16.49-1.11,17.11-1.11,.34-2.26-7.73-1.11-17.11,1.08-8.77-.74-17.11,1.11-17.11,2.19,0,1.11,7.66,1.11,17.11Z"/><path class="q" d="M117.3,326.22c0,5.65-1.58,6.72-3.53,6.72-3.8,0-3.42-3.82-3.53-6.72-.13-3.43,1.58-6.72,3.53-6.72,3.53,0,3.53,3.01,3.53,6.72Z"/></g><g id="f"><g><path class="ac" d="M140.08,285.17v4.58h-4.01c.96-2.32,2.33-3.72,4.01-4.58Z"/><path class="ac" d="M135.65,290.93h4.43v6.08h-5.43c.15-2.46,.49-4.46,1-6.08Z"/><path class="ac" d="M134.59,298.18h5.49v7.53h-5.27c-.21-1.86-.25-3.77-.25-5.59,0-.67,.01-1.32,.03-1.93Z"/><path class="ac" d="M134.96,306.88h5.11v5.11h-3.6c-.77-1.55-1.24-3.3-1.52-5.11Z"/><path class="ac" d="M137.15,313.17h2.93v2.99c-1.23-.82-2.19-1.83-2.93-2.99Z"/><path class="ac" d="M141.25,284.67c1.87-.65,4.05-.82,6.42-.9v5.98h-6.42v-5.08Z"/><rect class="ac" x="141.25" y="290.93" width="6.42" height="6.08"/><rect class="ac" x="141.25" y="298.18" width="6.42" height="7.53"/><rect class="ac" x="141.25" y="306.88" width="6.42" height="5.11"/><path class="ac" d="M141.25,313.17h6.42v5.12c-2.63-.1-4.74-.62-6.42-1.45v-3.67Z"/><path class="ac" d="M152.65,283.61c1.02-.06,1.99-.1,2.9-.12v6.26h-6.7v-6.01c1.23-.03,2.5-.06,3.8-.13Z"/><rect class="ac" x="148.85" y="290.93" width="6.7" height="6.08"/><rect class="ac" x="148.85" y="298.18" width="6.7" height="7.53"/><rect class="ac" x="148.85" y="306.88" width="6.7" height="5.11"/><path class="ac" d="M148.85,313.17h6.7v4.43c-.85,.14-1.75,.27-2.69,.4-1.45,.19-2.78,.29-4.01,.3v-5.14Z"/><path class="ac" d="M156.72,283.48c2.69-.01,4.9,.16,6.7,.48v5.8h-6.7v-6.28Z"/><rect class="ac" x="156.72" y="290.93" width="6.7" height="6.08"/><rect class="ac" x="156.72" y="298.18" width="6.7" height="7.53"/><rect class="ac" x="156.72" y="306.88" width="6.7" height="5.11"/><path class="ac" d="M156.72,313.17h6.7v2.45c-1.78,.68-3.98,1.27-6.7,1.78v-4.23Z"/><path class="ac" d="M164.59,313.17h3.16c-.82,.71-1.85,1.37-3.16,1.96v-1.96Z"/><path class="ac" d="M164.59,306.88h6.1c-.18,1.91-.65,3.62-1.82,5.11h-4.28v-5.11Z"/><path class="ac" d="M170.8,298.18c-.04,.64-.06,1.29-.06,1.93,0,2.01,.1,3.88,.03,5.59h-6.18v-7.53h6.21Z"/><path class="ac" d="M170.95,289.75h-6.35v-5.55c4.19,1.01,5.82,3.01,6.35,5.55Z"/><path class="ac" d="M170.88,297h-6.29v-6.08h6.53c.17,1.84-.07,3.92-.24,6.08Z"/><path class="o" d="M164.59,290.93h6.53c-.04-.4-.09-.79-.17-1.17h-6.35v-5.55c-.37-.09-.76-.17-1.17-.24v5.8h-6.7v-6.28c-.38,0-.77,0-1.17,.01v6.26h-6.7v-6.01c-.4,.01-.79,.02-1.17,.03v5.98h-6.42v-5.08c-.41,.14-.8,.31-1.17,.5v4.58h-4.01c-.15,.37-.29,.76-.42,1.17h4.43v6.08h-5.43c-.02,.38-.04,.77-.06,1.17h5.49v7.53h-5.27c.04,.39,.1,.79,.16,1.17h5.11v5.11h-3.6c.2,.4,.42,.8,.67,1.17h2.93v2.99c.37,.24,.76,.47,1.17,.68v-3.67h6.42v5.12c.38,.01,.77,.02,1.17,.02v-5.14h6.7v4.43c.4-.07,.79-.14,1.17-.21v-4.23h6.7v2.45c.41-.16,.8-.32,1.17-.49v-1.96h3.16c.43-.37,.8-.77,1.12-1.17h-4.28v-5.11h6.1c.04-.38,.06-.77,.07-1.17h-6.18v-7.53h6.21c.02-.39,.05-.79,.08-1.17h-6.29v-6.08Zm-16.92,21.06h-6.42v-5.11h6.42v5.11Zm0-6.28h-6.42v-7.53h6.42v7.53Zm0-8.7h-6.42v-6.08h6.42v6.08Zm7.87,14.99h-6.7v-5.11h6.7v5.11Zm0-6.28h-6.7v-7.53h6.7v7.53Zm0-8.7h-6.7v-6.08h6.7v6.08Zm7.87,14.99h-6.7v-5.11h6.7v5.11Zm0-6.28h-6.7v-7.53h6.7v7.53Zm0-8.7h-6.7v-6.08h6.7v6.08Z"/></g><path class="k" d="M153.44,293.71c-.29,3.17-3.5,7.51-7.65,6.63-4.67-1-7.37-3.47-7.72-6.63-.37-3.39,3.47-6.25,7.72-6.25s8.09,1.49,7.65,6.25Z"/><path class="q" d="M145.85,299.14c-.76,0-1.48-.16-2.1-.49-1.25-.65-2.27-2-2.67-3.51-.31-1.19-.18-2.31,.37-3.16,.91-1.4,2.8-1.82,4.26-1.74,1.61,.09,2.91,.72,3.37,1.64,.54,1.07,.02,2.66-.73,3.75-.74,1.09-1.66,1.69-2.44,1.61-1.11-.11-2-1.55-2.4-2.94-.14-.49-.41-1.68,.13-2.1,.5-.38,1.41,.03,3.06,1.37l-.39,.48c-1.91-1.56-2.13-.96-2.14-.96-.07,.06-.33,.14-.03,1.11,.35,1.14,1.09,1.61,1.84,1.69,.54,.05,1.27,.24,1.87-.63,.77-1.12,.49-2.45,.12-3.17-.36-.7-.94-1.18-2.29-1.25-1.29-.07-2.35,.32-3.12,1.5-.45,.7-1.14,1.59-.87,2.61,.35,1.33,1.34,1.92,2.43,2.49,1.22,.64,2.79,1.17,4.32,.38,1.59-.83,2.16-2.4,2.34-3.8,.16-1.24,.08-2.85-1.64-4.07-2.44-1.73-6.97-.36-10.06,2.2l.27-1.27c3.3-2.74,7.48-3.34,10.15-1.45,1.39,.98,2.68,2.86,2.43,4.84-.21,1.6-1.43,3.17-3.2,4.1-.94,.49-1.93,.74-2.86,.74Z"/><path class="k" d="M168.57,306.61c-.32,3.51-3.89,8.34-8.49,7.35-5.18-1.1-8.18-3.85-8.56-7.35-.41-3.76,3.85-6.94,8.56-6.94s8.98,1.66,8.49,6.94Z"/><path class="q" d="M160.14,312.64c-.84,0-1.64-.18-2.34-.55-1.39-.73-2.52-2.22-2.96-3.9-.35-1.32-.2-2.57,.41-3.5,1.01-1.56,3.11-2.02,4.73-1.93,1.79,.1,3.23,.8,3.74,1.82,.6,1.19,.03,2.95-.81,4.17-.82,1.2-1.84,1.87-2.71,1.79-1.23-.12-2.22-1.72-2.67-3.26-.16-.55-.46-1.87,.14-2.33,.55-.42,1.57,.03,3.4,1.53l-.44,.54c-2.12-1.73-2.37-1.06-2.37-1.06-.08,.06-.37,.15-.04,1.24,.38,1.26,1.21,1.79,2.04,1.87,.6,.06,1.41,.27,2.07-.7,.85-1.24,.54-2.72,.14-3.52-.39-.78-1.04-1.31-2.54-1.39-1.43-.08-2.61,.36-3.47,1.67-.5,.77-1.26,1.77-.97,2.9,.38,1.47,1.49,2.13,2.69,2.76,1.36,.71,3.1,1.3,4.79,.42,1.77-.92,2.4-2.66,2.6-4.22,.18-1.37,.09-3.17-1.82-4.52-2.71-1.92-7.73-.4-11.16,2.45l.3-1.41c3.67-3.04,8.3-3.7,11.26-1.6,1.55,1.09,2.98,3.18,2.7,5.37-.23,1.78-1.59,3.52-3.55,4.55-1.05,.55-2.14,.82-3.18,.82Z"/></g><g id="g"><path class="j" d="M235.19,306.79c1.84,2.52-7.08,16.72-24.02,32-16.24,14.66-30.6,26.81-32,24.02-2.1-4.18,7.73-17.55,24.02-32,16.36-14.52,28.35-29.02,32-24.02Z"/><path class="l" d="M188.6,351.07c.48,1.79,1.64,2.6,2.64,2.77s1.38-1.92,.9-3.71c-.48-1.79-1.11-4.16-2.64-2.77-.75,.68-1.38,1.92-.9,3.71Z"/><path class="l" d="M196.03,344c.58,2.31,2,3.38,3.22,3.63,1.28,.26,1.7-2.42,1.12-4.72-.58-2.31-1.35-5.36-3.22-3.63-.92,.85-1.7,2.42-1.12,4.72Z"/><path class="l" d="M203.9,336.45c.59,2.35,2.09,3.43,3.39,3.67s1.84-2.49,1.24-4.84c-.59-2.35-1.38-5.46-3.39-3.67-.99,.88-1.84,2.49-1.24,4.84Z"/><path class="l" d="M211.75,329.16c.53,2.11,1.84,3.09,2.97,3.31s1.57-2.21,1.04-4.32-1.24-4.9-2.97-3.31c-.85,.78-1.57,2.21-1.04,4.32Z"/><path class="l" d="M219.3,321.6c.49,1.93,1.81,2.79,2.97,2.96s1.69-2.09,1.2-4.01c-.49-1.93-1.13-4.48-2.97-2.96-.9,.74-1.69,2.09-1.2,4.01Z"/></g><g id="h"><path id="i" class="ac" d="M294.54,333.34c3.32,8.5-14.1,25.99-20.63,20.63-8.81-7.23-18.68-11.88-20.63-20.63-2.49-11.12,8.49-16.98,20.63-20.63,10.91-3.29,14.74,5.54,20.63,20.63Z"/><g><path class="l" d="M287.01,324.59c0-1.93-2.71-3.5-13.09-3.5-7.44,0-13.09,1.56-13.09,3.5,0,1.23,2.37,2.31,5.96,2.93-.88,1.63,.11,8.81-.26,10.88-1.18,6.6,2.64,5.14,7.3,5.14s10.28,1.45,9.72-4.18c-.2-2.08-.1-10.53-.97-12.16,3.68-.62,4.43-1.37,4.43-2.62Z"/><path class="t" d="M280.52,328.64c3.7-2.81-1.09-2.91-2.6-3.37-.46-.14-.83-.52-1.02-1.02-.46-1.24-1.32,1.15-2.11,1.15s-1.33-2.42-1.79-1.22c-.25,.66-.81,1.08-1.43,1.07h-.03c-1.88,0-5.07,4.75-3.4,4.97,1,.14-.87,2.23,.74,3.1,.37,.2,.47,.99,.2,1.34-2.42,3.1-.02,2.18-.02,2.65,0,2.75,1.41,3.67,3.29,3.67,1.01,0,1.92-.65,2.54-1.67,.34-.55,.91-.85,1.48-.75,.13,.02,.28-.01,.41,.04,6.77,2.38,1.11-4.32,3.4-4.98,2.63-.75-.48-2.19,.5-2.97,1.43-1.13-2.07-.76-1.83-1.22,.26-.48,1.24-.48,1.65-.79Z"/></g></g><g><path class="w" d="M75.13,463.39c-.49,2.15-1.05,3.9-1.4,4.9-.19,.55-.71,.92-1.3,.92H35.09c-.06-.2-.84-2.53-1.5-5.76-1.07-5.16-1.88-12.64,.87-17.43,1.37-2.39,9.91-1.52,12.86-1.15,.6,.08,1.17-.24,1.42-.79l.56-1.22c.22-.49,.71-.8,1.25-.8h6.46c1.1,0,2.1,.64,2.57,1.64l.2,.43c.24,.53,.79,.84,1.37,.79,2.89-.26,11.43-.8,12.9,1.53,3.04,4.83,2.24,11.94,1.1,16.93Z"/><path class="y" d="M75.06,463.71c-.65,2.74-1.39,4.79-1.6,5.35-.04,.09-.13,.16-.23,.16H35.16s-.06,0-.08-.01c-.14-.13-.8-2.41-1.46-5.52-.03-.16,.09-.31,.25-.29h0c23.44,2.39,31.35,.55,40.92,.02,.16,0,.29,.14,.25,.3Z"/><circle class="aa" cx="54.35" cy="456.92" r="8.88"/><circle class="n" cx="54.35" cy="456.92" r="7.25"/><g><circle class="n" cx="54.35" cy="456.92" r="6.26"/><path d="M54.35,463.36c-3.55,0-6.44-2.89-6.44-6.44s2.89-6.44,6.44-6.44,6.44,2.89,6.44,6.44-2.89,6.44-6.44,6.44Zm0-12.53c-3.36,0-6.09,2.73-6.09,6.09s2.73,6.09,6.09,6.09,6.09-2.73,6.09-6.09-2.73-6.09-6.09-6.09Z"/></g><path class="s" d="M70.72,445.34h-3.75c-.47,.14-.61-.27-.61-.61v-.06c0-.34,.14-.61,.61-.61h3.75c.47-.07,.61,.27,.61,.61v.06c0,.34-.14,.75-.61,.61Z"/><path class="s" d="M43.09,444.77h-4.3c-.75,.18-.75-.32-.75-.71h0c0-.39-.11-.75,.71-.71h4.33c.68-.07,.71,.32,.71,.71h0c.04,.78-.32,.71-.71,.71Z"/><path class="s" d="M41.88,443.49h-1.92c-.33,0-.6,.07-.6-.6h0c0-.33-.18-.46,.57-.53l1.95-.07c.53,0,.6,.27,.6,.6h0c0,.68-.27,.6-.6,.6Z"/><g><path class="s" d="M69.69,450.88l-1.55,.07c-.48,0-.86-.39-.86-.86v-1.62c0-.48,.39-.86,.86-.86h1.55c.48,0,.93,.17,.93,.65l-.07,1.76c0,.48-.39,.86-.86,.86Z"/><path d="M69.69,450.88l-1.62,.07c-.48,0-.86-.39-.86-.86v-1.69c0-.48,.39-.86,.86-.86h1.62c.48,0,.93,.17,.93,.65l-.07,1.83c0,.48-.39,.86-.86,.86Zm-1.55,0l1.47-.07c.48,0,.86-.39,.86-.86l.07-1.7c0-.48-.28-.64-.93-.64h-1.47c-.48,0-.86,.39-.86,.86v1.55c0,.48,.39,.86,.86,.86Z"/></g></g><g><path class="aj" d="M226.77,401.33c.94,1.61,8.33,11.02,7.75,11.51s-5.01-3.88-9.87-9.75c-4.87-5.87-6.59-7.78-6.18-8.42,1.03-1.65,4.48,.07,8.31,6.66Z"/><path class="aj" d="M229.04,396.9c.32,2.82,4.06,20.78,3.31,20.95s-3.43-8.94-6.01-20.34c-2.57-11.4-3.55-15.21-2.92-15.73,1.59-1.32,4.3,3.6,5.62,15.13Z"/><path class="aj" d="M235.72,395.71c-.61,2.98-2.87,22.5-3.63,22.42s-.36-10.24,.89-22.7c1.25-12.46,1.56-16.66,2.32-16.98,1.93-.82,2.91,5.09,.43,17.26Z"/><path class="aj" d="M237.09,395.45c-1.19,2.79-7.35,21.45-8.08,21.23s1.71-10.1,5.45-22.05,4.89-16,5.7-16.17c2.06-.41,1.82,5.58-3.06,16.99Z"/><path class="aj" d="M236.67,404.38c-1.28,1.36-8.23,11.1-8.86,10.68s2.31-5.9,6.57-12.22c4.26-6.32,5.6-8.51,6.34-8.31,1.87,.52,1.19,4.31-4.05,9.85Z"/><path class="aj" d="M232.42,400.72c-.29,1.84-.51,13.81-1.27,13.82s-1.43-6.17-1.49-13.79c-.06-7.62-.19-10.19,.53-10.43,1.84-.63,3.42,2.88,2.23,10.41Z"/><g><path class="x" d="M248.11,385.92c0-.09-.06-.23,0-.28,3.22-2.42-.62-6.72-2.77-6.72-1.48,0-3.89,2.66-4.55,4.25-1.7-.84-4.86-4.19-5.59,.39-.33,2.04,.06,4.19,1.65,6.47-1.51,2.72-1.42,5.83,.27,7.09,1.52,1.13,3.5,2.82,5.23,.83,1.51,2.11,4.94,2.49,6.18,1.71,1.02-.64,2.65-4.06,2.21-6.02,2.27-.1,4.77-2.21,4.29-3.58-1.5-4.33-3.96-2.79-6.92-4.13Z"/><path class="aa" d="M246.36,389.75c0,1.52-.95,2.49-2.34,2.75-2.16,.4-2.69-1.23-2.69-2.75s.67-3.63,2.69-2.76c2.03,.88,2.34,1.24,2.34,2.76Z"/></g><g><path class="l" d="M251.83,374.57c-.66-.65-2.13-.83-1.75-1.49,3.02-5.26,3.02-8.2-4.15-7.78-1,.06-2.35,1.55-3.19,2.03-.89-1.3-2.41-2.27-3.64-3.43-2.81-2.66-4.94,2.26-4.94,5.05,0,.46,.16,2.38,.27,2.8-1.72,.82-5.01,.81-3.84,3.43,1.06,2.38,3.36,3.25,5.84,3.57,.17,2.77-.37,5.88,3.38,6.94,4.45,1.26,3.76-1.82,5.2-3.86,2.58,1.68,3.98,1.33,7.99,.87,2.77-.32,1.3-5.71-1.15-8.14Z"/><path class="v" d="M246.23,374.62c-.41,2-2.26,3.08-3.95,3.08s-4.5-2.35-3.67-4.14c.72-1.56,3.05-2.52,4.74-2.52s3.47,.73,2.88,3.57Z"/></g><g><path class="u" d="M237.12,380.17c5.01-.39,4.97-4.41,2.94-6.61-.07-.08,1.13,1.9,.03-.26-1.77-3.46,5.11-2.02,1.77-7.53-.95-1.56-3.23-2.57-5.79-1.59-.09,.04-.2-.02-.22-.12-.57-2.27-.81-5.09-4.21-3.3-1.59,.84-3.6,2.87-4.21,5.32-.03,.1-.13,.16-.23,.11-2.61-1.1-1.98-.52-5.89,1.46-1.67,.85-1.04,4.18,2.52,5.71,.1,.04,.14,.18,.06,.26-1.66,2.04-3.93,7.49-2.49,8.04,4.57,1.76,4.92-.42,8.64-1.72"/><path class="k" d="M234.78,371.62c-.46,1.16-.71,3.06-2.61,2.31-3.54-1.4-2.64-1.03-2.64-2.31s1.19-2.31,2.64-2.31,3.53,0,2.61,2.31Z"/></g><g><path class="u" d="M225.55,396.83c4.08-2.51,2.3-5.91-.37-6.89-.09-.03,1.79,1.12-.09-.23-3.01-2.17,3.46-3.94-1.77-7.17-1.48-.92-3.86-.78-5.6,1.17-.06,.07-.18,.07-.24,0-1.47-1.68-2.9-3.96-5.01-.97-.99,1.4-1.81,4-1.26,6.35,.02,.1-.05,.19-.15,.2-2.7,.2-1.91,.42-4.36,3.8-1.05,1.45,.94,4,4.62,3.75,.11,0,.19,.09,.17,.2-.52,2.45-.08,8.06,1.38,7.91,4.65-.49,3.99-2.49,6.59-5.21"/><path class="k" d="M219.84,390.59c.11,1.18,.73,2.91-1.22,3.1-3.61,.35-2.69,.27-3.24-.82s0-2.48,1.23-3.1,2.99-1.53,3.22,.82Z"/></g><g><path class="l" d="M237.5,384.67c-.7-.38-1.95-.17-1.8-.81,1.22-5.04,.52-7.46-5.28-5.4-.81,.29-1.56,1.84-2.14,2.43-1.05-.85-2.53-1.29-3.81-1.95-2.95-1.51-3.52,3.04-2.85,5.33,.11,.38,.7,1.92,.9,2.24-1.22,1.09-3.93,1.86-2.34,3.74,1.44,1.71,3.54,1.86,5.65,1.54,.81,2.23,1.11,4.92,4.44,4.9,3.95-.03,2.66-2.39,3.35-4.42,2.53,.77,3.59,.14,6.77-1.19,2.2-.92-.3-5-2.9-6.42Z"/><path class="v" d="M232.91,386.05c.14,1.74-1.12,3.08-2.51,3.48s-4.26-.85-4.01-2.52c.22-1.45,1.9-2.8,3.29-3.21s3.03-.23,3.23,2.25Z"/></g><g><path class="x" d="M225.16,373.26c0-.09-.06-.21,0-.26,3.01-2.26-.58-6.28-2.59-6.28-1.38,0-3.64,2.48-4.25,3.97-1.59-.78-4.54-3.91-5.22,.36-.31,1.91,.05,3.92,1.54,6.04-1.41,2.54-1.33,5.44,.25,6.62,1.42,1.06,3.27,2.63,4.88,.77,1.41,1.97,4.61,2.33,5.77,1.59,.95-.6,2.47-3.79,2.06-5.63,2.12-.09,4.45-2.06,4.01-3.34-1.4-4.04-3.7-2.6-6.46-3.86Z"/><path class="aa" d="M223.52,376.84c0,1.42-.89,2.32-2.19,2.56-2.02,.38-2.51-1.14-2.51-2.56s.63-3.39,2.51-2.58,2.19,1.16,2.19,2.58Z"/></g></g><g><path class="r" d="M201.11,262.81s-4.95-12.43-3.68-13.36,6.59,8.92,6.59,8.92c0,0-1.23-10.4-.45-11.65,2.84-4.57,3.64,8.46,3.64,8.46,0,0,2.06-10.16,3.35-9.6s3.41,12.38,3.41,12.38c0,0,6.37-9.67,7.27-8.52,3.9,4.98-4.26,14.6-4.26,14.6,0,0,6.89-4.78,7.38-3.29,1.99,5.96-9.34,11.16-9.34,11.16,0,0,9.08,3.57,9.57,5.6,1.28,5.36-7.1,1.87-7.1,1.87,0,0,3.46,7.14,1.65,8.46-4.26,3.12-6.87-5.23-6.87-5.23,0,0-1.29,6.47-5.91,4.89-5.86-2.01-.82-7.46-.82-7.46,0,0-4.95,5.06-6.24,4.5s1.31-7.42,1.31-7.42c0,0-4.91-.33-5.7-1.56-.76-1.18,7.42-5.01,7.42-5.01,0,0-7.27,1.27-7.6-.26-1.58-7.26,7.17-2.64,7.17-2.64,0,0-11.56-8.81-9.46-12.07,2.25-3.5,8.68,7.23,8.68,7.23Z"/><ellipse class="o" cx="202.36" cy="266.91" rx="5.24" ry="14.68"/><ellipse class="o" cx="215.33" cy="265.04" rx="5.62" ry="15.59"/><path class="a`" d="M205.27,274.16c0,3.63-.56,5.53-2.45,5.53s-3.41-2.94-3.41-6.57,1.53-6.57,3.41-6.57,2.45,3.98,2.45,7.61Z"/><ellipse class="a`" cx="215.84" cy="272.6" rx="2.62" ry="6.8"/><path class="a`" d="M214.93,280.24c0,.53-1.71,2.78-4.94,2.78s-5.57-2.31-5.57-2.84,2.34,1.87,5.57,1.87,4.94-2.35,4.94-1.82Z"/></g><g><g><rect x="148.77" y="390.44" width="40.09" height="2.76" rx=".71" ry=".71" transform="translate(-227.62 234.13) rotate(-45)"/><rect x="158.94" y="368.25" width="27.97" height="3.18" rx=".82" ry=".82" transform="translate(312.17 -13.95) rotate(45)"/></g><g><rect x="106.09" y="396.8" width="40.09" height="2.76" rx=".71" ry=".71" transform="translate(-66.24 768.91) rotate(-135)"/><rect x="108.03" y="374.61" width="27.97" height="3.18" rx=".82" ry=".82" transform="translate(474.31 555.93) rotate(135)"/></g><path class="ag" d="M147.5,435.62h0c-5.72,0-10.39-4.68-10.39-10.39,0,0-3.98-22.66,0-40.09,1.27-5.57,4.68-10.39,10.39-10.39h0c5.72,0,10.39,4.68,10.39,10.39,0,0,6.63,30.58,0,40.09-4.9,7.02-4.68,10.39-10.39,10.39Z"/><path class="ai" d="M200,446.22c.34-.01,.69-.04,1.02-.08-.27,.06-.54,.09-.81,.09-.07,0-.14,0-.21,0Z"/><path class="ai" d="M202.68,422.67c-.71-.2-1.45-.32-2.21-.38,.17-.02,.35-.04,.52-.04,.56,0,1.13,.14,1.69,.42Z"/><g><path class="af" d="M201.91,445.62c-.14,0-.29,0-.43,0,0,0-55.62,1.48-74.93,.64-.61-.03-34.03-.68-34.61-.77,.06,0,.12-.01,.18-.02h0c3.32-.36,7.13-5.53,7.13-11.79,0-4.9-1.96-9.03-4.33-10.94-.64-.52-1.41-.83-2.22-.97-.09-.02-.17-.03-.26-.04,.42-.04,.85-.07,1.28-.07,0,0,80.97-6.36,107.75,0,.3,.07,.61,.01,.91,.04,5.19,11.63-11.23,6.59-6.95,11.42,4.51,5.09,9.38-1.48,6.48,12.51Z"/><path class="ai" d="M209.64,433.75c0,6.26-3.86,11.07-7.13,11.79h0c-.34,.04-.68,.07-1.02,.08-7.7,.43-6.48-5.85-6.48-12.51s-9.59-10.98,6.67-11.41c.19,0,.38,0,.56,.02,.33,.03,.65,.08,.97,.14,.77,.14,1.5,.46,2.1,.95,2.37,1.91,4.33,6.04,4.33,10.94Z"/><path class="ai" d="M99.26,433.68c0,6.26,6.51,10.03-7.13,11.79h0c-.06,.01-.12,.02-.18,.02-.62-.09-1.23-.24-1.82-.43-.88-.28-1.68-.79-2.27-1.5-1.87-2.25-3.23-6.16-3.23-10.52s1.77-8.03,3.95-9.93c.52-.45,1.14-.78,1.8-.98,.34-.1,.69-.19,1.05-.26,.66-.13,1.35-.12,2.01,.04h.01c.23,.06,.47,.09,.7,.11,6.89,.46,5.11,6.08,5.11,11.65Z"/></g><path class="ai" d="M90.54,422.33c-1.04,.11-2.04,.36-2.99,.72,.7-.45,1.41-.73,2.11-.82,.29,.02,.59,.05,.87,.1Z"/><g><path d="M220.26,433.39h-18.79v-1.7h18.56v1.24c0,.19,.09,.35,.23,.46Z"/><path d="M221.31,428.97v3.97c0,.12-.04,.24-.11,.33-.04,.05-.08,.09-.13,.13h-.81c-.14-.1-.23-.27-.23-.46v-3.97c0-.31,.25-.56,.56-.56h.15c.31,0,.56,.25,.56,.56Z"/></g><g><path d="M73.69,434.56h18.79v-1.7h-18.56v1.24c0,.19-.09,.35-.23,.46Z"/><path d="M72.65,430.14v3.97c0,.12,.04,.24,.11,.33,.04,.05,.08,.09,.13,.13h.81c.14-.1,.23-.27,.23-.46v-3.97c0-.31-.25-.56-.56-.56h-.15c-.31,0-.56,.25-.56,.56Z"/></g><g><circle class="ag" cx="146.75" cy="373.79" r="20.26"/><path class="ai" d="M147.39,394.68c-11.87,0-21.53-9.66-21.53-21.53s9.81-19.62,21.53-21.53c15.43-2.51,21.53,9.66,21.53,21.53s-9.66,21.53-21.53,21.53Zm0-40.51c-10.47,0-17.18,8.67-18.98,18.98-2.28,13.08,8.52,18.98,18.98,18.98s18.98-8.52,18.98-18.98-8.52-18.98-18.98-18.98Z"/></g><path class="o" d="M147.48,389.83c-.3,0-.58,0-.86-.03-5.47-.38-10.64-2.89-13.82-6.71-2.26-2.71-3.27-5.8-2.91-8.92v.14c-.34,2.94,1.26,5.79,3.4,8.37,3.07,3.69,8.07,6.11,13.37,6.48,3.75,.26,9.47-1.29,13.16-5.3,2.48-2.69,3.92-6.59,3.36-10.18l.21,.48c.58,3.79-.49,7.29-3.1,10.13-3.56,3.87-8.94,5.53-12.81,5.53Z"/><path class="o" d="M147.24,386.06c-.24,0-.47,0-.69-.02-4.41-.28-8.57-2.14-11.13-4.96-1.82-2.01-2.63-4.29-2.35-6.6v.11c-.27,2.18,1.01,4.28,2.74,6.19,2.47,2.73,6.5,4.52,10.77,4.79,3.02,.19,7.63-.95,10.6-3.92,2-1.99,3.15-4.88,2.71-7.53l.17,.36c.47,2.8-.39,5.39-2.5,7.5-2.87,2.86-7.2,4.09-10.32,4.09Z"/><circle class="o" cx="138.69" cy="368.07" r="2.86"/><circle class="o" cx="142.72" cy="377.4" r="2.86"/><circle class="o" cx="146.75" cy="362.34" r="2.86"/><circle class="o" cx="154.81" cy="367.43" r="2.86"/><circle class="o" cx="152.48" cy="377.19" r="2.86"/><circle cx="137.53" cy="367.54" r="1.06"/><circle cx="143.68" cy="378.35" r="1.06"/><circle cx="151.95" cy="378.35" r="1.06"/><circle cx="155.77" cy="367.11" r="1.06"/><circle cx="146.65" cy="361.38" r="1.06"/></g><g><g><rect class="ad" x="56.19" y="318.21" width="4.25" height="80.46" rx="1.1" ry="1.1"/><rect class="ad" x="47.68" y="393.6" width="12.76" height="5.08" rx="1.31" ry="1.31"/></g><g><rect class="ad" x="81.05" y="307.61" width="4.25" height="80.46" rx="1.1" ry="1.1" transform="translate(318.31 617.32) rotate(152.34)"/><rect class="ad" x="98.06" y="376.71" width="12.76" height="5.08" rx="1.31" ry="1.31" transform="translate(373 666.68) rotate(152.34)"/></g><g><path class="ad" d="M30.55,315.16h2.06c.63,0,1.14,.51,1.14,1.14v70.83c0,.58-.47,1.05-1.05,1.05h-2.16c-.58,0-1.05-.47-1.05-1.05v-70.92c0-.58,.47-1.05,1.05-1.05Z" transform="translate(161.36 23.28) rotate(26.7)"/><rect class="ad" x="6.08" y="378.02" width="12.76" height="4.61" rx="1.19" ry="1.19" transform="translate(172.19 34.94) rotate(26.7)"/></g><path class="m" d="M86.32,260.79c-9.04,34.95-12.73,63.62-28.71,63.09-20.19-.66-31.88-27.6-29.42-61.68,2.49-34.48-4.88-63.49,29.42-64.87,37.15-1.49,37.93,27.82,28.71,63.45Z"/><ellipse class="o" cx="56.54" cy="255.12" rx="14.18" ry="20.2"/><ellipse class="aa" cx="56.54" cy="265.2" rx="4.61" ry="6.91"/><path class="ac" d="M70.26,278.67c0,3.41-.63,3.5-1.49,3.5s-1.65-.09-1.65-3.5,.86-8.29,1.73-8.29,1.41,4.89,1.41,8.29Z"/><path class="o" d="M64.5,304.79s-.08,.01-.12,0c-.2-.01-.37-.15-.41-.35-.52-2.44-1.35-4.43-2.44-5.92-.5-.7-1.06-1.28-1.68-1.75-1.23-.95-2.68-1.44-4.3-1.45-1.33,0-2.64,.3-3.86,.82-.8,.34-1.56,.77-2.25,1.26-2.06,1.46-3.57,3.47-3.98,5.32-.06,.24-.29,.39-.53,.34-.24-.05-.39-.29-.34-.53,.43-1.94,1.87-3.97,3.96-5.55,.24-.18,.48-.36,.74-.52,.78-.51,1.59-.94,2.42-1.26,1.29-.51,2.6-.77,3.85-.77,1.15,0,2.8,.23,4.41,1.16,.78,.45,1.55,1.07,2.24,1.91,1.21,1.47,2.21,3.62,2.64,6.75,.03,.24-.1,.48-.34,.53Z"/><path class="o" d="M51.71,295.21c-.83,.32-1.65,.74-2.42,1.26l.05-6.06c0-.6,.66-3.51,1.33-3.52,.66,0,1.1,2.77,1.1,3.37l-.05,4.95Z"/><path class="o" d="M62.99,289.17l-.77,8.25s0,.06-.01,.08c-.69-.84-1.46-1.46-2.24-1.91l.6-6.51c.07-.75,1.04-4.33,1.7-4.26,.66,.07,.79,3.6,.72,4.35Z"/></g><g><path class="ab" d="M798.64,414.04c-6.56,86.26-329.8,95.51-333.15,9.08-7.56-195.22-105.09-249.52-30.24-321.43,63.65-61.16,226.82-21.34,325.11-7.72,104.77,14.52,49.14,177.06,38.28,320.07Z"/><path class="ac" d="M787.39,402.65c-6.56,86.26-329.8,95.51-333.15,9.08-7.56-195.22-105.09-249.52-30.24-321.43,63.65-61.16,226.82-21.34,325.11-7.72,104.77,14.52,49.14,177.06,38.28,320.07Z"/></g><g><g><path class="v" d="M391.81,135.95c6.39,22.68-46.46,69.64-121.47,78.55-105.92,12.59-122.27-.45-152.94,2.01-38.23,3.06,45.36-63.79,129.8-84.13,114.86-27.66,138.22-19.11,144.61,3.57Z"/><path class="s" d="M388.11,131.58c6.39,22.68-46.46,69.64-121.47,78.55-105.92,12.59-122.27-.45-152.94,2.01-38.23,3.06,45.36-63.79,129.8-84.13,114.86-27.66,138.22-19.11,144.61,3.57Z"/></g><g><path class="ae" d="M149.95,183.78c-.39-1.96,1.4-3.02,3.93-3.84-.26-1.16-.71-1.46-1.5-1.3-.67,.13-1.5,.69-2.18,1.61-.53-.66-.81-.97-1.34-1.37,.72-.72,1.94-1.57,3.41-1.86,2.17-.43,3.21,.5,3.59,2.4,.22,1.2,.42,2.38,.62,3.47,.1,.5,.19,.99,.3,1.44-.98,.55-1.79,.84-3.09,1.1-2.34,.46-3.44-.14-3.74-1.65Zm1.96-.63c.16,.79,.69,.93,1.54,.76,.96-.19,1.1-.5,.67-2.6-1.43,.28-2.39,.98-2.22,1.84Z"/><path class="ae" d="M159.06,184.28c-.31-.87-.65-2.19-.95-3.72-.44-2.17-.79-5.16-.72-7.12,.73-.1,1.49-.25,2.26-.45-.08,.79-.23,2.29-.08,3.42,.35-.38,1.32-1.08,2.33-1.28,1.46-.29,2.47,.33,2.96,2.79,.32,1.63,.57,3.94,.64,5.09-.77,.11-1.52,.26-2.27,.45-.05-1.1-.16-3.15-.44-4.57-.33-1.66-.7-2.01-1.47-1.85-.85,.17-1.43,.9-1.11,2.53,.37,1.8,.9,3.56,1.14,4.27-.79,.1-1.54,.25-2.27,.45Z"/><path class="ae" d="M167.93,182.53c-.31-.87-.65-2.19-.95-3.72-.44-2.17-.79-5.16-.72-7.12,.73-.1,1.49-.25,2.26-.45-.08,.79-.23,2.29-.08,3.42,.35-.38,1.32-1.08,2.33-1.28,1.46-.29,2.47,.33,2.96,2.79,.32,1.63,.57,3.94,.64,5.09-.77,.11-1.52,.26-2.27,.45-.05-1.1-.16-3.15-.44-4.57-.33-1.66-.7-2.01-1.47-1.85-.85,.17-1.43,.9-1.11,2.53,.37,1.8,.9,3.56,1.14,4.27-.79,.1-1.54,.25-2.27,.45Z"/><path class="ae" d="M184.08,179.34c-.05-.52-.21-2.72-.65-4.95-.23-1.08-.54-1.61-1.34-1.46-.39,.08-.75,.28-.98,.56-.27,.34-.36,.8-.11,2.04,.35,1.72,.93,3.52,1.13,4.19-.75,.09-1.47,.24-2.19,.43-.32-1.08-.69-2.46-1.01-4.06-.21-1.06-.41-2.25-.59-4.08,.69-.08,1.36-.21,2.04-.4,.03,.35,.06,.6,.12,.89,.59-.62,1.21-1.25,2.24-1.45,1.47-.29,2.39,.44,2.89,2.95,.4,2.04,.59,4.31,.6,4.91-.72,.07-1.45,.22-2.14,.42Z"/><path class="ae" d="M187.29,174.7c-.61-3.06,.92-4.75,3.12-5.19,1.41-.28,2.69,.15,2.97,1.56,.42,2.14-2.35,3.36-3.91,4.13,.43,.92,1.13,1.22,1.98,1.06,.96-.19,1.71-.8,2.12-1.99,.31,.07,.55,.36,.65,.87,.28,1.41-1,2.56-2.68,2.89-2.55,.5-3.8-1.01-4.26-3.32Zm1.83-.71c1.23-.6,2.58-1.55,2.4-2.43-.08-.41-.46-.65-1.03-.53-1.08,.21-1.63,1.35-1.37,2.96Z"/><path class="ae" d="M194.55,167.14c-.11-.58,.24-1.05,1.11-1.22,.93-.18,1.38,.12,1.49,.7,.11,.57-.19,.99-1.12,1.18-.87,.17-1.37-.1-1.48-.66Zm.96,7.99c.27,.07,.46,.13,.66,.09,.41-.08,.59-.42,.2-2.35-.26-1.3-.65-2.88-1.17-4.18,.72-.1,1.41-.24,2.12-.42,.54,1.48,.85,2.85,1.06,3.93,.68,3.38,.26,4.43-1.32,4.74-.67,.13-1.13,.07-1.56-.06,.04-.56,.05-1.13,0-1.75Z"/><path class="ae" d="M206.82,175.06c-2.14-.87-3.45-3.03-4.08-6.19-.14-.7-.19-1.16-.16-1.65,.79-.1,1.56-.25,2.33-.46,.03,.47,.11,1.67,.32,2.74,.26,1.31,.78,2.56,1.66,3.21,.59-1.25,.8-2.11,.38-4.23-.13-.67-.45-1.93-.48-2.08,.73-.1,1.47-.25,2.18-.43,.05,.25,.26,2,.45,2.98,.31,1.59,.78,2.15,1.77,2.87,.62-1.13,.51-2.76,.22-4.22-.15-.75-.39-1.55-.56-2.02,.8-.12,1.62-.28,2.39-.47,.11,.33,.21,.7,.31,1.22,.85,4.3-.64,6.65-1.79,7.78-1.18-.53-2.12-1.26-2.86-2.06-.39,.95-1.25,2.25-2.07,2.99Z"/><path class="ae" d="M215.31,169.16c-.61-3.06,.92-4.75,3.12-5.19,1.41-.28,2.69,.15,2.97,1.56,.42,2.14-2.35,3.36-3.91,4.13,.43,.92,1.13,1.22,1.98,1.05,.96-.19,1.71-.8,2.12-1.99,.32,.07,.55,.36,.65,.87,.28,1.41-1,2.56-2.68,2.89-2.55,.5-3.8-1.01-4.26-3.32Zm1.83-.71c1.23-.6,2.58-1.55,2.4-2.43-.08-.41-.46-.65-1.03-.53-1.08,.21-1.63,1.35-1.37,2.96Z"/><path class="ae" d="M227.92,170.67c-.37-.75-.93-2.63-1.27-4.35-.29-1.46-.44-2.86-.42-3.77,.64-.09,1.27-.21,1.77-.35,.03,.24,.06,.47,.11,.7,.45-.54,.92-1,1.91-1.2,.04,.77,.14,1.52,.26,2.27-.47-.02-.77-.03-1.1,.04-.57,.11-.76,.45-.58,1.34,.42,2.1,1.23,4.03,1.67,4.85-.81,.11-1.59,.26-2.35,.46Z"/><path class="ae" d="M237.41,167.92c-.57,.7-1.3,1.24-2.24,1.43-1.72,.34-2.51-.68-3.05-3.43-.28-1.42-.5-3.79-.49-4.44,.72-.1,1.44-.24,2.14-.42,.1,1.4,.19,2.93,.58,4.82,.27,1.34,.73,1.69,1.43,1.55,.41-.08,.68-.27,.87-.51,.36-.41,.41-1.02,.19-2.13-.42-2.13-.82-3.39-1.15-4.1,.75-.09,1.47-.24,2.17-.43,.41,1.19,.79,2.51,1.08,3.95,.22,1.13,.41,2.32,.65,4.16-.87,.1-1.15,.17-1.98,.39-.04-.2-.1-.51-.18-.84Z"/><path class="ae" d="M246.04,167.09c-.05-.52-.21-2.72-.65-4.95-.23-1.08-.54-1.61-1.34-1.46-.39,.08-.75,.28-.98,.56-.27,.34-.36,.8-.12,2.04,.35,1.72,.93,3.52,1.13,4.19-.75,.09-1.47,.24-2.2,.43-.32-1.08-.69-2.46-1.01-4.06-.21-1.06-.4-2.25-.59-4.08,.69-.08,1.36-.21,2.04-.4,.03,.35,.06,.6,.12,.89,.59-.62,1.21-1.25,2.24-1.45,1.47-.29,2.4,.44,2.89,2.95,.4,2.04,.59,4.31,.6,4.91-.72,.07-1.45,.22-2.14,.42Z"/><path class="ae" d="M252.48,161.72c-.51-2.59,.38-4.59,2.78-5.07,2.43-.48,3.79,1.01,4.32,3.67,.57,2.89-.71,4.4-2.83,4.82-2.09,.41-3.68-.53-4.27-3.42Zm4.98-1.12c-.34-1.74-1.07-2.53-1.97-2.36-.96,.19-1.29,1.2-.95,2.93,.34,1.65,.91,2.4,1.95,2.2,1.06-.21,1.31-1.13,.97-2.77Z"/><path class="ae" d="M266.48,162.18c-.57,.7-1.3,1.24-2.24,1.43-1.72,.34-2.51-.68-3.05-3.43-.28-1.42-.5-3.79-.49-4.44,.72-.1,1.44-.24,2.14-.42,.1,1.4,.2,2.93,.58,4.82,.27,1.34,.73,1.69,1.43,1.55,.41-.08,.68-.27,.87-.51,.36-.41,.41-1.02,.19-2.13-.42-2.13-.82-3.39-1.15-4.1,.75-.09,1.47-.24,2.17-.43,.41,1.19,.8,2.5,1.08,3.95,.22,1.13,.41,2.32,.64,4.16-.87,.1-1.15,.17-1.98,.39-.04-.2-.1-.51-.18-.84Z"/><path class="ae" d="M271.9,162.31c-.68-1.3-1.15-2.97-1.47-4.53-.1-.51-.23-1.29-.34-2.13-.38,.09-.76,.18-1.1,.26-.03-.62-.06-1.28-.14-1.82,.42-.04,.67-.06,1.05-.13-.05-.51-.09-1.01-.1-1.43,.76-.57,1.59-.89,2.19-1.06-.08,.51-.13,1.26-.1,2.14,.47-.09,.92-.19,1.48-.33,.07,.6,.13,1.16,.3,1.77-.31,.02-.92,.1-1.65,.23,.04,.35,.1,.71,.17,1.06,.29,1.48,.88,3.14,1.87,4.97-.82,.28-1.41,.58-2.16,1Z"/><path class="ae" d="M278.36,156.61c-.51-2.59,.38-4.59,2.78-5.07,2.43-.48,3.79,1.01,4.32,3.67,.57,2.89-.71,4.4-2.83,4.82-2.09,.41-3.68-.53-4.27-3.42Zm4.98-1.12c-.34-1.74-1.07-2.53-1.97-2.36-.96,.19-1.29,1.2-.95,2.93,.34,1.65,.91,2.4,1.95,2.2,1.06-.21,1.31-1.13,.97-2.77Z"/><path class="ae" d="M289.13,151.97c.41,1.82,1.06,4.46,1.69,6.28-.86,.06-1.64,.21-2.42,.48-.27-.96-.54-2.13-.87-3.78-.18-.91-.34-1.78-.44-2.56-.3,.07-.63,.15-.97,.23-.04-.54-.11-1.17-.2-1.83,.23-.03,.55-.07,.95-.12-.26-2.23,.37-3.15,1.87-3.44,.6-.12,.97-.08,1.31,0-.08,.49-.1,1.02-.09,1.55-.23-.05-.46-.1-.72-.05-.5,.1-.68,.56-.52,1.39,.01,.05,.02,.12,.04,.18,.59-.13,1.21-.28,1.52-.35,.04,.54,.12,1.1,.26,1.81-.49,.07-.95,.15-1.42,.23Z"/><path class="ae" d="M297.01,157.02c-.41-1.16-.76-2.53-1.04-3.97-.44-2.25-.79-4.76-.9-6.82,.69-.1,1.36-.23,2.06-.41,.11,1.26,.33,3.42,.73,5.4,.53,2.69,1.21,4.66,1.48,5.33-.81,.11-1.57,.26-2.33,.46Z"/><path class="ae" d="M300.1,152.41c-.61-3.06,.92-4.75,3.13-5.19,1.41-.28,2.69,.15,2.97,1.56,.42,2.14-2.35,3.36-3.91,4.13,.43,.93,1.13,1.22,1.98,1.06,.96-.19,1.71-.8,2.12-1.99,.32,.07,.55,.36,.65,.87,.28,1.41-1,2.56-2.68,2.89-2.55,.5-3.8-1.01-4.26-3.32Zm1.83-.71c1.23-.6,2.58-1.55,2.4-2.43-.08-.41-.46-.65-1.03-.53-1.08,.21-1.63,1.35-1.37,2.96Z"/><path class="ae" d="M317.51,152.97c-.02-.86-.14-2.59-.5-4.39-.31-1.59-.68-2.19-1.48-2.03-.64,.13-1.19,.69-1.01,1.59,.12,.63,.29,1.25,.42,1.94,.21,1.06,.36,2.52,.38,3.32-.69,.08-1.39,.22-2.09,.41-.03-.65-.29-2.77-.6-4.33-.32-1.54-.55-2.18-1.34-2.03-.96,.19-1.28,1.03-.97,2.64,.42,2.13,.92,3.55,1.11,4.08-.69,.08-1.38,.22-2.05,.41-.5-1.51-.84-2.72-1.13-4.19-.2-1-.38-2.12-.53-3.94,.72-.09,1.42-.23,2.12-.42,.01,.27,.03,.57,.07,.86,.42-.49,1.23-1.24,2.11-1.41,1-.2,1.55,.29,1.86,.62,.41-.43,1.09-1.2,2.13-1.4,1.8-.36,2.75,.94,3.28,3.6,.33,1.68,.48,3.41,.5,4.23-.75,.09-1.5,.24-2.27,.45Z"/><path class="ae" d="M320.9,148.2c-.51-2.59,.38-4.59,2.78-5.07,2.43-.48,3.79,1.01,4.32,3.67,.57,2.89-.71,4.4-2.83,4.82-2.09,.41-3.68-.53-4.27-3.42Zm4.98-1.12c-.34-1.74-1.07-2.53-1.97-2.36-.96,.19-1.29,1.2-.95,2.93,.34,1.65,.91,2.4,1.95,2.2,1.06-.21,1.31-1.13,.97-2.77Z"/><path class="ae" d="M334.71,149.57c-.05-.52-.21-2.72-.65-4.95-.23-1.08-.54-1.61-1.34-1.46-.39,.08-.75,.28-.98,.56-.27,.34-.36,.8-.11,2.04,.35,1.72,.93,3.52,1.13,4.19-.75,.09-1.47,.24-2.19,.43-.32-1.08-.69-2.46-1.01-4.06-.21-1.06-.41-2.25-.59-4.08,.69-.08,1.36-.21,2.04-.4,.03,.35,.06,.6,.12,.89,.59-.62,1.21-1.25,2.24-1.45,1.47-.29,2.39,.44,2.89,2.95,.4,2.04,.59,4.31,.6,4.91-.72,.07-1.45,.22-2.14,.42Z"/><path class="ae" d="M338.28,146.55c-.39-1.96,1.4-3.02,3.93-3.84-.26-1.16-.71-1.46-1.5-1.3-.67,.13-1.5,.69-2.18,1.6-.53-.66-.81-.97-1.34-1.37,.72-.72,1.94-1.57,3.42-1.86,2.17-.43,3.21,.5,3.59,2.4,.22,1.2,.42,2.38,.62,3.47,.1,.5,.19,.99,.3,1.44-.98,.55-1.79,.84-3.09,1.1-2.34,.46-3.44-.14-3.74-1.65Zm1.96-.63c.16,.79,.69,.93,1.54,.76,.96-.19,1.1-.5,.67-2.6-1.43,.28-2.39,.98-2.22,1.84Z"/><path class="ae" d="M351.46,135.09c.44,1.14,1.14,3.69,1.62,6.1,.3,1.47,.48,2.94,.56,4.16-.79,.58-1.67,.89-3.06,1.16-2.58,.51-3.87-.57-4.35-3-.6-3.05,.19-4.84,1.84-5.17,.79-.16,1.49,.06,2.29,.48-.3-1.4-.9-2.83-1.14-3.28,.77-.11,1.51-.26,2.23-.44Zm-.38,6.92c-.38-1.93-1.26-2.43-1.95-2.29-.84,.17-1.2,1.06-.79,3.13,.37,1.85,1.04,2.33,2.01,2.14,1.06-.21,1.22-.58,.73-2.99Z"/><path class="ae" d="M354.79,141.6c-.6-3.06,.92-4.75,3.13-5.19,1.41-.28,2.69,.15,2.97,1.56,.42,2.14-2.35,3.36-3.91,4.13,.43,.92,1.13,1.22,1.98,1.06,.96-.19,1.71-.8,2.12-1.99,.32,.07,.55,.36,.65,.87,.28,1.41-1,2.56-2.68,2.89-2.55,.5-3.81-1.01-4.26-3.32Zm1.83-.71c1.23-.6,2.58-1.55,2.4-2.43-.08-.41-.46-.65-1.03-.53-1.08,.21-1.63,1.35-1.37,2.96Z"/><path class="ae" d="M364.56,133.23c-.04,1.25,.21,4.46,.71,7.1-.52,.13-1.05,.29-1.56,.47-.85-1.84-1.41-4.15-1.73-5.76-.12-.6-.14-.93-.18-1.26l2.76-.55Zm-1.06,9.63c-.14-.72,.28-1.26,1.1-1.42,.84-.17,1.41,.17,1.56,.89,.14,.71-.27,1.19-1.11,1.35-.82,.16-1.4-.12-1.54-.83Z"/><path class="ae" d="M154.03,201.66c-.31-.87-.65-2.19-.95-3.72-.44-2.17-.79-5.16-.72-7.12,.73-.1,1.49-.25,2.26-.45-.08,.79-.23,2.29-.08,3.42,.35-.38,1.32-1.08,2.33-1.28,1.46-.29,2.47,.33,2.96,2.79,.32,1.63,.57,3.94,.64,5.09-.77,.11-1.52,.26-2.27,.45-.05-1.1-.16-3.15-.44-4.57-.33-1.66-.7-2.01-1.47-1.85-.85,.17-1.43,.9-1.11,2.53,.37,1.8,.89,3.56,1.14,4.27-.79,.1-1.54,.25-2.27,.45Z"/><path class="ae" d="M161.51,196.18c-.61-3.06,.92-4.76,3.12-5.19,1.41-.28,2.69,.15,2.97,1.56,.42,2.14-2.35,3.36-3.91,4.13,.43,.93,1.13,1.22,1.98,1.06,.96-.19,1.71-.8,2.12-1.99,.31,.07,.55,.35,.65,.87,.28,1.41-1,2.56-2.68,2.89-2.55,.5-3.8-1.01-4.26-3.32Zm1.83-.71c1.23-.6,2.58-1.55,2.4-2.43-.08-.41-.46-.65-1.03-.53-1.08,.21-1.63,1.35-1.37,2.96Z"/><path class="ae" d="M171.01,198.31c-.41-1.16-.76-2.53-1.04-3.97-.44-2.25-.79-4.76-.9-6.81,.69-.1,1.36-.23,2.06-.41,.11,1.26,.33,3.42,.73,5.4,.53,2.69,1.21,4.66,1.48,5.33-.81,.11-1.57,.26-2.33,.46Z"/><path class="ae" d="M175.79,197.72c-.61-1.29-1.19-3.26-1.52-4.9-.26-1.31-.37-2.44-.38-3.3,.52-.35,1.34-.63,2.3-.82,3.29-.65,4.44,.48,4.77,2.16,.51,2.58-.68,4.42-2.06,4.7-.8,.16-1.76-.48-2.06-.67,.17,.68,.54,1.56,.88,2.16-.67,.19-1.36,.43-1.93,.68Zm.45-5.4c.31,1.59,1,1.87,1.72,1.72,.97-.19,1.24-1.42,.95-2.88-.19-.99-.88-1.3-2.08-1.06-.8,.16-.93,.46-.59,2.22Z"/><path class="ae" d="M191.13,193.46c-.57,.7-1.3,1.24-2.24,1.43-1.72,.34-2.51-.68-3.05-3.43-.28-1.42-.5-3.79-.5-4.44,.72-.1,1.44-.24,2.14-.42,.1,1.4,.2,2.92,.58,4.81,.26,1.34,.73,1.69,1.43,1.55,.41-.08,.68-.27,.87-.51,.36-.41,.41-1.02,.19-2.13-.42-2.13-.82-3.39-1.15-4.1,.75-.09,1.47-.24,2.17-.43,.41,1.19,.79,2.51,1.08,3.95,.22,1.13,.41,2.32,.64,4.16-.87,.1-1.15,.17-1.98,.39-.04-.2-.1-.51-.18-.84Z"/><path class="ae" d="M194.94,190.34c.69,.86,1.62,1.41,2.83,1.18,.76-.15,1.04-.48,.95-.94-.1-.44-.45-.69-1.6-.93-1.62-.32-2.74-.67-3.01-2.04-.28-1.43,.74-2.61,2.73-3,.93-.18,1.9-.2,2.89,.18-.19,.62-.34,1.27-.44,1.9-.87-.44-1.66-.66-2.42-.5-.64,.13-.94,.49-.86,.88,.09,.46,.47,.6,1.63,.84,1.54,.31,2.88,.66,3.17,2.15,.31,1.59-.71,2.67-2.63,3.05-1.98,.39-3.28-.21-3.51-1.38-.11-.55,.02-.94,.3-1.38Z"/><path class="ae" d="M211.45,188.2c.24,1.21-.61,2.4-2.5,2.77-2.37,.47-3.64-.82-4.09-3.06-.65-3.27,.66-5.02,2.72-5.43,1.7-.34,2.74,.69,3.22,2.52-.61,.32-.98,.59-1.64,1.02-.26-1.03-.55-2.03-1.43-1.86-.78,.15-1.17,1.21-.82,2.89,.26,1.31,.79,2.25,1.98,2.01,1.1-.22,1.53-1.05,1.7-1.89,.42,.13,.75,.48,.86,1.02Z"/><path class="ae" d="M212.27,186.06c-.51-2.59,.38-4.59,2.78-5.07,2.43-.48,3.79,1.01,4.32,3.67,.57,2.89-.71,4.4-2.83,4.82-2.09,.41-3.68-.53-4.27-3.42Zm4.98-1.12c-.34-1.73-1.07-2.53-1.97-2.35-.96,.19-1.29,1.2-.95,2.93,.34,1.65,.91,2.4,1.95,2.2,1.06-.21,1.31-1.13,.97-2.77Z"/><path class="ae" d="M222.23,188.18c-.41-1.16-.76-2.53-1.04-3.97-.44-2.25-.79-4.76-.9-6.81,.69-.1,1.36-.23,2.06-.41,.11,1.26,.33,3.42,.73,5.4,.53,2.69,1.21,4.66,1.48,5.33-.81,.11-1.57,.26-2.33,.46Z"/><path class="ae" d="M226.92,187.26c-.41-1.16-.76-2.53-1.04-3.97-.44-2.25-.79-4.76-.9-6.81,.69-.1,1.36-.23,2.06-.41,.11,1.26,.33,3.42,.73,5.4,.53,2.69,1.21,4.66,1.48,5.33-.81,.11-1.57,.26-2.33,.46Z"/><path class="ae" d="M230.01,182.64c-.6-3.06,.92-4.76,3.13-5.19,1.41-.28,2.69,.15,2.97,1.56,.42,2.14-2.35,3.36-3.91,4.13,.43,.93,1.13,1.22,1.98,1.06,.96-.19,1.71-.8,2.12-1.99,.32,.07,.55,.36,.65,.87,.28,1.41-1,2.56-2.68,2.89-2.55,.5-3.81-1.01-4.26-3.32Zm1.83-.71c1.23-.6,2.58-1.55,2.4-2.43-.08-.41-.46-.65-1.03-.53-1.08,.21-1.63,1.35-1.37,2.96Z"/><path class="ae" d="M244.57,181.65c.24,1.21-.6,2.4-2.5,2.77-2.37,.47-3.65-.82-4.09-3.06-.65-3.27,.66-5.02,2.72-5.43,1.7-.33,2.75,.69,3.22,2.52-.61,.32-.98,.59-1.64,1.02-.26-1.03-.55-2.04-1.43-1.86-.78,.15-1.17,1.21-.82,2.89,.26,1.31,.79,2.25,1.98,2.01,1.1-.22,1.53-1.05,1.7-1.89,.42,.13,.75,.48,.86,1.02Z"/><path class="ae" d="M247.75,183.47c-.68-1.3-1.15-2.97-1.47-4.53-.1-.51-.23-1.29-.34-2.13-.38,.09-.76,.18-1.1,.26-.03-.62-.06-1.28-.14-1.81,.42-.04,.67-.06,1.05-.13-.05-.51-.09-1.01-.1-1.43,.76-.57,1.59-.89,2.19-1.06-.08,.51-.13,1.26-.1,2.13,.47-.09,.92-.19,1.48-.33,.06,.6,.13,1.16,.29,1.77-.31,.02-.92,.1-1.65,.23,.04,.35,.1,.7,.17,1.06,.29,1.49,.88,3.15,1.87,4.97-.82,.29-1.42,.58-2.17,1Z"/><path class="ae" d="M256.44,181.75c-.68-1.3-1.15-2.97-1.47-4.53-.1-.51-.23-1.29-.34-2.13-.38,.09-.76,.18-1.1,.26-.03-.62-.06-1.28-.14-1.81,.42-.04,.67-.06,1.05-.13-.05-.51-.09-1.01-.1-1.43,.76-.57,1.59-.89,2.19-1.06-.08,.51-.13,1.26-.1,2.13,.47-.09,.92-.19,1.48-.33,.06,.6,.13,1.16,.29,1.77-.31,.02-.92,.1-1.65,.23,.04,.35,.1,.7,.17,1.06,.29,1.49,.88,3.15,1.87,4.97-.82,.29-1.42,.58-2.17,1Z"/><path class="ae" d="M260.99,180.52c-.31-.87-.65-2.19-.95-3.72-.44-2.17-.79-5.16-.72-7.12,.73-.1,1.49-.25,2.26-.45-.08,.79-.23,2.29-.08,3.42,.35-.38,1.32-1.08,2.33-1.28,1.46-.29,2.47,.33,2.95,2.79,.32,1.63,.58,3.94,.64,5.09-.77,.11-1.52,.26-2.27,.45-.05-1.1-.16-3.15-.44-4.57-.33-1.66-.7-2.01-1.47-1.85-.85,.17-1.43,.9-1.11,2.53,.37,1.8,.9,3.56,1.14,4.27-.79,.1-1.54,.25-2.27,.45Z"/><path class="ae" d="M268.47,175.04c-.61-3.06,.92-4.76,3.12-5.19,1.41-.28,2.69,.15,2.97,1.56,.42,2.14-2.35,3.36-3.91,4.13,.43,.93,1.13,1.23,1.98,1.06,.96-.19,1.71-.8,2.12-1.99,.32,.07,.55,.35,.65,.87,.28,1.41-1,2.56-2.68,2.89-2.55,.5-3.8-1.01-4.26-3.32Zm1.83-.71c1.23-.6,2.58-1.55,2.4-2.43-.08-.41-.46-.65-1.03-.53-1.08,.21-1.63,1.35-1.37,2.96Z"/><path class="ae" d="M281.19,176.53c-.41-1.16-.76-2.53-1.04-3.97-.44-2.25-.79-4.76-.9-6.81,.69-.1,1.36-.23,2.06-.41,.11,1.26,.33,3.42,.73,5.4,.53,2.69,1.21,4.66,1.48,5.33-.81,.11-1.57,.26-2.33,.46Z"/><path class="ae" d="M284.28,171.92c-.6-3.06,.92-4.76,3.13-5.19,1.41-.28,2.69,.15,2.97,1.56,.42,2.14-2.35,3.36-3.91,4.13,.43,.93,1.13,1.22,1.98,1.06,.96-.19,1.71-.8,2.12-1.99,.32,.07,.55,.36,.65,.87,.28,1.41-1,2.56-2.68,2.89-2.55,.5-3.8-1.01-4.26-3.32Zm1.83-.71c1.23-.6,2.58-1.55,2.4-2.43-.08-.41-.46-.65-1.03-.53-1.08,.21-1.63,1.35-1.37,2.96Z"/><path class="ae" d="M301.69,172.48c-.02-.86-.14-2.59-.5-4.39-.31-1.59-.68-2.19-1.48-2.03-.64,.13-1.19,.69-1.01,1.59,.12,.63,.29,1.25,.42,1.94,.21,1.06,.36,2.52,.38,3.33-.69,.08-1.39,.22-2.09,.41-.03-.65-.29-2.77-.6-4.33-.32-1.53-.56-2.18-1.34-2.03-.96,.19-1.28,1.03-.97,2.64,.42,2.13,.92,3.55,1.11,4.08-.69,.08-1.38,.22-2.05,.4-.5-1.51-.84-2.72-1.13-4.19-.2-1-.38-2.12-.53-3.94,.72-.09,1.42-.23,2.12-.42,.01,.27,.03,.57,.07,.86,.42-.49,1.23-1.24,2.11-1.41,1-.2,1.55,.3,1.86,.62,.41-.43,1.09-1.2,2.13-1.4,1.8-.36,2.75,.94,3.28,3.6,.33,1.68,.48,3.41,.5,4.23-.75,.09-1.5,.24-2.27,.45Z"/><path class="ae" d="M305.07,167.71c-.51-2.59,.38-4.59,2.78-5.07,2.43-.48,3.79,1.01,4.32,3.67,.57,2.89-.71,4.4-2.83,4.82-2.09,.41-3.68-.53-4.27-3.42Zm4.98-1.12c-.34-1.73-1.07-2.53-1.97-2.35-.96,.19-1.29,1.2-.95,2.93,.34,1.65,.91,2.4,1.95,2.2,1.06-.21,1.31-1.13,.97-2.77Z"/><path class="ae" d="M318.89,169.08c-.05-.52-.21-2.72-.65-4.95-.23-1.07-.54-1.61-1.34-1.46-.39,.08-.75,.29-.98,.56-.27,.34-.36,.8-.11,2.04,.35,1.72,.93,3.52,1.13,4.19-.75,.09-1.47,.24-2.2,.43-.32-1.08-.69-2.46-1.01-4.06-.21-1.06-.4-2.26-.59-4.08,.69-.08,1.36-.21,2.04-.4,.03,.35,.06,.6,.12,.89,.59-.62,1.21-1.25,2.24-1.45,1.47-.29,2.39,.44,2.89,2.95,.4,2.04,.59,4.31,.6,4.91-.72,.07-1.45,.22-2.14,.42Z"/><path class="ae" d="M322.73,165.08c.69,.86,1.62,1.41,2.83,1.18,.76-.15,1.04-.48,.95-.94-.1-.44-.45-.69-1.6-.93-1.62-.32-2.74-.67-3.01-2.04-.28-1.43,.74-2.61,2.73-3,.93-.18,1.9-.2,2.89,.18-.19,.62-.34,1.27-.44,1.9-.87-.44-1.66-.66-2.42-.5-.64,.13-.94,.49-.86,.88,.09,.46,.47,.6,1.63,.84,1.54,.31,2.87,.66,3.17,2.15,.31,1.59-.71,2.67-2.63,3.05-1.99,.39-3.28-.21-3.51-1.38-.11-.55,.02-.94,.3-1.38Z"/><path class="ae" d="M331.23,156.21c-.04,1.25,.21,4.46,.71,7.1-.52,.13-1.05,.29-1.56,.47-.86-1.84-1.41-4.15-1.73-5.76-.12-.6-.14-.93-.18-1.26l2.76-.55Zm-1.06,9.63c-.14-.72,.28-1.26,1.1-1.42,.84-.17,1.41,.17,1.55,.89,.14,.71-.27,1.19-1.11,1.35-.82,.16-1.4-.12-1.54-.83Z"/></g></g></g></g></svg>