<?xml version="1.0" encoding="UTF-8"?><svg xmlns="http://www.w3.org/2000/svg" width="300" height="300" viewBox="0 0 300 300"><defs><style>.k{fill:#f6c945;}.l{fill:#638dbb;}</style></defs><g id="a"/><g id="b"/><g id="c"/><g id="d"/><g id="e"/><g id="f"/><g id="g"/><g id="h"/><g id="i"/><g id="j"><g><path class="l" d="M288.84,135.85c-4.91-25.77-15.58-41.79-38.05-55.23-11.43-6.84-25.59-9.73-40.67-10.74-4.25-36.59-21.82-60.87-71.02-54.31C10.23,32.75,24.04-20.36,40.91,79.39c14.36,84.88-49.27,173.56-9.82,193.92,38.05,19.64,168.15,44.36,168.15-41.73,0-4.21,.13-8.56,.35-13.03,17.56-4.56,31.11-13.15,43.84-21.34,28.45-18.29,49.36-40.63,45.41-61.37Zm-47.51,44.92c-11.1,8.21-24.94,14.27-40.23,17.76,3.26-33.94,9.7-71.87,10.11-104.44,9.52,2.52,18.35,6.15,26.13,10.8,16.52,9.88,25.96,23.04,26.58,37.05,.61,13.81-7.41,27.6-22.59,38.83Z"/><path class="k" d="M121.88,47.06c36.91-15.23,60.38,0,60.38,0,19.37,281.67-79.99,232.98-111.98,216.56-29.47-15.13-8.78-97.29-8.78-216.56,0-.23,0-.45,0-.68,0,0,46.42,6.44,60.38,.68Z"/></g><g><path class="l" d="M287.28,136.11c-4.89-25.79-15.5-41.81-37.86-55.26-11.38-6.84-25.46-9.73-40.47-10.75-4.22-36.61-21.71-60.9-70.67-54.34C10.03,32.96,23.77-20.18,40.56,79.63c14.29,84.92-49.03,173.65-9.77,194.02,37.86,19.65,167.33,44.38,167.33-41.75,0-4.21,.12-8.57,.35-13.04,17.47-4.56,30.96-13.16,43.62-21.35,28.32-18.3,49.12-40.65,45.19-61.4Zm-47.28,44.95c-11.05,8.22-24.82,14.28-40.03,17.77,3.24-33.96,9.66-71.91,10.06-104.49,9.47,2.52,18.26,6.15,26,10.8,16.44,9.88,25.83,23.05,26.45,37.07,.61,13.82-7.37,27.62-22.48,38.85Z"/><g><path class="k" d="M187.07,85.61c-.03-1.15-.07-2.3-.11-3.45-.41-11.9-1.05-24.33-1.94-37.27l-.1-1.41-1.18-.77c-.26-.17-6.44-4.14-17.3-6.12-17.91-3.27-34.57,1.39-45.39,5.88-10.81,4.48-45.98,.9-58.62-.87l-3.2-.45v3.93c0,13.64-.27,26.73-.7,39.3v.32c-.84,24.07-2.27,46.21-3.58,66.56-1.92,29.79-3.59,55.52-2.27,74.46,.71,10.15,2.24,18.04,4.68,24.12,2.78,6.93,6.75,11.64,12.13,14.43,6.62,3.42,18.94,9.77,32.48,12.61,4.77,1,9.38,1.5,13.8,1.5,10.34,0,19.69-2.73,27.9-8.17,16.41-10.87,28.37-32.71,35.53-64.89,6.75-30.35,9.39-70.5,7.89-119.71Zm-13.38,118.47c-.61,3.31-2.2,11.24-5.86,20.95-5.76,15.27-12.28,30.52-27.27,40.45-10.42,6.9-23.02,8.87-37.45,5.85-12.79-2.68-24.67-8.81-31.05-12.1-8.07-4.16-12.44-14.93-13.76-33.9-1.29-18.56,.36-44.11,2.27-73.7,1.3-20.2,2.72-42.15,3.56-66.01,.08-2.26,.15-4.53,.22-6.83,.3-10.05,.49-20.44,.51-31.17,10.89,1.36,45.96,5.21,58.35,.07,18.2-7.55,32.85-7.21,41.94-5.6,7.26,1.29,12.23,3.57,14.37,4.69,.05,3.03,.23,16.4,.2,34.47,0,1.51,0,3.05-.01,4.62-.13,37.57-1.21,91.99-6.01,118.2Z"/><path class="k" d="M146.27,263.12c-5.85-.54-13.59-4.89-22.76-10.04-20.35-11.44-45.67-25.67-64.99-7.49l-2.25-3.47c9.46-8.9,20.91-11.6,35.02-8.27,11.89,2.81,23.59,9.38,33.91,15.18,10.63,5.97,20.66,11.61,25.06,9.06,1.23-.71,2.06-2.16,2.55-4.44l3.62,.98c-.78,3.62-2.34,6.13-4.63,7.46-1.59,.92-3.43,1.21-5.52,1.02Z"/><path class="k" d="M60.58,218.31c6.82,1.73,17.15,.41,29.37-1.15,27.15-3.46,60.94-7.76,76.28,17.68l3.8-2.57c-7.51-12.45-19.5-19.55-36.67-21.7-14.48-1.81-30.08,.18-43.85,1.93-14.18,1.81-27.57,3.51-31.63-.71-1.14-1.18-1.56-2.94-1.3-5.38l-4.45-.43c-.42,3.89,.44,6.97,2.56,9.17,1.46,1.52,3.45,2.53,5.89,3.14Z"/><path class="k" d="M168.8,194.36c-7.36,0-17.51-3.62-29.53-7.9-26.68-9.51-59.89-21.35-81.93-1.5l-3.21-3.25c10.79-9.71,24.77-13.45,42.74-11.43,15.16,1.71,30.49,7.17,44.03,12,13.93,4.97,27.09,9.66,32.29,6.72,1.45-.82,2.33-2.34,2.68-4.65l4.62,.64c-.56,3.68-2.22,6.32-4.93,7.85-1.87,1.06-4.15,1.52-6.78,1.52Z"/><path class="k" d="M65.26,146.87c7.44,1.91,18.6,1.03,31.8-.01,29.32-2.31,65.81-5.18,83.23,19.76l4.04-2.32c-8.52-12.21-21.74-19.45-40.42-22.15-15.75-2.27-32.6-.95-47.47,.23-15.31,1.21-29.77,2.34-34.31-1.85-1.27-1.17-1.78-2.87-1.57-5.2l-4.84-.57c-.33,3.71,.69,6.69,3.06,8.88,1.63,1.51,3.82,2.55,6.48,3.23Z"/><path class="k" d="M175.14,103.5c-7.39-.89-18.01,1.48-30.58,4.29-27.91,6.23-62.65,13.98-82.43-8.39l-3.6,2.84c9.68,10.95,23.28,16.35,41.56,16.51,15.42,.14,31.46-3.44,45.62-6.6,14.58-3.25,28.34-6.32,33.21-2.78,1.36,.99,2.06,2.61,2.14,4.94l4.72-.08c-.13-3.72-1.48-6.54-4.02-8.38-1.76-1.28-3.98-2.01-6.62-2.33Z"/><path class="k" d="M69.78,82.81c7.25,1.14,17.81-.88,30.31-3.25,27.75-5.28,62.28-11.86,80.96,11.16l3.66-2.72c-9.14-11.26-22.35-17.11-40.37-17.89-15.2-.65-31.15,2.38-45.22,5.06-14.49,2.76-28.18,5.37-32.85,1.66-1.31-1.04-1.94-2.67-1.93-5.01l-4.66-.08c0,3.72,1.22,6.58,3.65,8.51,1.68,1.34,3.85,2.14,6.44,2.55Z"/></g></g><g><path class="l" d="M287.28,136.11c-4.89-25.79-15.5-41.81-37.86-55.26-11.38-6.84-25.46-9.73-40.47-10.75-4.22-36.61-21.71-60.9-70.67-54.34C10.03,32.96,23.77-20.18,40.56,79.63c14.29,84.92-49.03,173.65-9.77,194.02,37.86,19.65,167.33,44.38,167.33-41.75,0-4.21,.12-8.57,.35-13.04,17.47-4.56,30.96-13.16,43.62-21.35,28.32-18.3,49.12-40.65,45.19-61.4Zm-47.28,44.95c-11.05,8.22-24.82,14.28-40.03,17.77,3.24-33.96,9.66-71.91,10.06-104.49,9.47,2.52,18.26,6.15,26,10.8,16.44,9.88,25.83,23.05,26.45,37.07,.61,13.82-7.37,27.62-22.48,38.85Z"/><g><path class="k" d="M148.93,258.58c.48-.1,.92-.26,1.32-.49,1.08-.62,1.86-1.81,2.35-3.61-1.14,1.42-2.36,2.79-3.67,4.1Zm38.14-172.97c-.03-1.15-.07-2.3-.11-3.45-.41-11.91-1.05-24.33-1.94-37.26l-.1-1.41-1.18-.77c-.26-.17-6.43-4.14-17.3-6.12-17.91-3.27-34.57,1.39-45.39,5.88-10.81,4.48-45.98,.9-58.63-.86l-3.2-.45v3.93c0,13.65-.27,26.73-.7,39.3v.33c-.62,17.73-1.55,34.4-2.53,50.09-.07,1.06-.13,2.1-.2,3.15h0c-.28,4.53-.57,8.96-.85,13.32-1.32,20.45-2.52,38.99-2.71,54.73-.01,1.38-.03,2.73-.03,4.07h0c0,5.63,.14,10.87,.47,15.66,.71,10.15,2.24,18.04,4.67,24.12,2.78,6.93,6.75,11.64,12.14,14.43,6.62,3.42,18.94,9.77,32.48,12.61,4.77,1,9.38,1.5,13.8,1.5,10.35,0,19.69-2.73,27.89-8.17,16.41-10.87,28.36-32.71,35.52-64.89,6.76-30.35,9.39-70.5,7.89-119.71Zm-11.74,107.36c-.49,4.09-1.04,7.83-1.64,11.11-.6,3.31-2.2,11.24-5.86,20.95-.33,.87-.66,1.74-1,2.61-.64,1.68-1.31,3.37-2,5.04-3.07,7.46-6.65,14.7-11.65,21.08-.19,.24-.37,.47-.57,.71h0c-1.14,1.43-2.36,2.8-3.67,4.11-1.45,1.48-3.01,2.9-4.7,4.22-1.16,.94-2.39,1.83-3.68,2.68-10.41,6.91-23.02,8.88-37.45,5.86-12.78-2.67-24.67-8.81-31.05-12.1-5.03-2.6-8.62-7.76-10.93-15.87-.39-1.38-.75-2.84-1.07-4.39-.82-3.96-1.41-8.5-1.76-13.63-.17-2.52-.3-5.17-.37-7.94-.05-1.82-.08-3.7-.08-5.63-.04-8.4,.27-17.76,.78-27.91,.1-1.94,.2-3.92,.31-5.92,.46-8.31,1.03-17.11,1.63-26.28,.14-2.12,.28-4.27,.41-6.43,.12-1.87,.24-3.74,.37-5.63h0c.66-10.46,1.32-21.37,1.88-32.74h0c.1-1.98,.19-3.98,.28-5.98,.23-4.99,.44-10.07,.62-15.24,.06-1.57,.1-3.14,.15-4.72,.03-.7,.05-1.4,.07-2.1,.05-1.72,.1-3.45,.14-5.19h0c.22-8.44,.35-17.09,.37-25.98,10.89,1.36,45.96,5.21,58.34,.07,18.2-7.54,32.85-7.21,41.94-5.6,7.26,1.29,12.24,3.57,14.37,4.69,.05,3.04,.23,16.4,.2,34.47v1.47c0,1.04,0,2.08,0,3.15,0,1.07,0,2.14-.01,3.23,0,0,0,0,0,0-.03,4.93-.07,10.12-.13,15.47-.02,1.73-.04,3.48-.07,5.25,0,0,0,0,0,0-.22,15.41-.64,31.85-1.38,47.19h0c-.1,2.13-.21,4.23-.34,6.31,0,0,0,0,0,0-.42,7.45-.92,14.55-1.53,21.04-.28,3-.57,5.86-.9,8.57h0Zm-26.4,65.62c.48-.1,.92-.26,1.32-.49,1.08-.62,1.86-1.81,2.35-3.61-1.14,1.42-2.36,2.79-3.67,4.1Z"/><path class="k" d="M177.76,163.35s0,0,0,0c-.42,7.45-.92,14.55-1.53,21.04l-.35-.05c-.35,2.3-1.23,3.83-2.68,4.65-5.2,2.93-18.36-1.76-32.29-6.73-13.53-4.82-28.87-10.29-44.03-12-15.42-1.74-27.9,.77-37.94,7.65,.46-8.31,1.03-17.11,1.63-26.28,.14-2.12,.28-4.27,.41-6.43,1.24,.7,2.68,1.25,4.29,1.66,7.44,1.91,18.6,1.02,31.81-.01,27.97-2.2,62.45-4.92,80.69,16.49Z"/><path class="k" d="M175.33,192.97c-.49,4.09-1.04,7.83-1.64,11.11-.6,3.31-2.2,11.24-5.86,20.95-.33,.87-.66,1.74-1,2.61-7.55-9.6-18.56-15.2-33.47-17.06-14.47-1.81-30.08,.17-43.85,1.93-14.18,1.8-27.57,3.51-31.63-.7-.01-.01-.03-.03-.03-.04-.04-8.4,.27-17.76,.78-27.91,22.03-18.3,54.48-6.73,80.65,2.6,12.01,4.28,22.17,7.9,29.53,7.9,2.52,0,4.71-.42,6.53-1.39Z"/><path class="k" d="M164.83,232.68c-3.07,7.46-6.65,14.7-11.65,21.08l-.37-.1c-.06,.29-.12,.56-.2,.81h0c-1.14,1.43-2.36,2.8-3.67,4.11-4.89,1.04-14.07-4.11-23.74-9.55-10.32-5.8-22.02-12.37-33.91-15.18-12.28-2.9-22.53-1.23-31.22,5.12-.82-3.96-1.41-8.5-1.76-13.63-.17-2.52-.3-5.17-.37-7.94,.81,.37,1.7,.68,2.65,.91,6.81,1.73,17.15,.41,29.37-1.14,26.35-3.36,58.96-7.51,74.88,15.52Z"/><path class="k" d="M144.24,262.8c-1.16,.94-2.39,1.83-3.68,2.68-10.41,6.91-23.02,8.88-37.45,5.86-12.78-2.67-24.67-8.81-31.05-12.1-5.03-2.6-8.62-7.76-10.93-15.87,18.95-14.69,42.95-1.2,62.39,9.72,8.14,4.57,15.16,8.52,20.73,9.72Z"/><path class="k" d="M156.42,254.64c-.78,3.62-2.34,6.13-4.63,7.46-1.59,.92-3.43,1.22-5.52,1.02-.66-.06-1.33-.17-2.04-.32-5.57-1.2-12.59-5.15-20.73-9.72-19.44-10.92-43.43-24.41-62.39-9.72-.88,.68-1.75,1.43-2.61,2.23l-2.25-3.47c1.23-1.16,2.49-2.21,3.79-3.15,8.69-6.35,18.95-8.02,31.22-5.12,11.89,2.81,23.59,9.38,33.91,15.18,9.67,5.44,18.85,10.6,23.74,9.55,.48-.1,.92-.26,1.32-.49,1.08-.62,1.86-1.81,2.35-3.61h0c.08-.26,.14-.54,.2-.82l.37,.1,3.25,.88Z"/><path class="k" d="M170.03,232.28l-3.8,2.56c-.45-.74-.91-1.46-1.4-2.16-15.92-23.03-48.53-18.87-74.88-15.52-12.23,1.55-22.56,2.87-29.37,1.14-.96-.24-1.84-.54-2.65-.91-1.26-.56-2.35-1.3-3.23-2.23-1.32-1.36-2.15-3.06-2.49-5.09h0c-.21-1.25-.24-2.6-.08-4.08h.1l4.35,.42c-.26,2.42,.15,4.16,1.26,5.34,0,.01,.02,.03,.03,.04,4.06,4.21,17.45,2.51,31.63,.7,13.77-1.75,29.37-3.74,43.85-1.93,14.92,1.87,25.92,7.46,33.47,17.06,1.15,1.45,2.21,3,3.2,4.64Z"/><path class="k" d="M180.5,184.99c-.56,3.68-2.22,6.31-4.93,7.85-.08,.05-.16,.09-.24,.13h0c-1.82,.97-4.01,1.39-6.53,1.39-7.36,0-17.51-3.62-29.53-7.9-26.17-9.34-58.61-20.9-80.65-2.6-.43,.35-.86,.72-1.28,1.1l-3.21-3.24c1.53-1.39,3.13-2.65,4.8-3.78,10.04-6.89,22.52-9.39,37.94-7.65,15.16,1.71,30.5,7.17,44.03,12,13.93,4.96,27.09,9.66,32.29,6.73,1.45-.82,2.33-2.35,2.68-4.65l.35,.05,4.27,.6Z"/><path class="k" d="M184.33,164.31l-4.04,2.32c-.8-1.15-1.65-2.24-2.53-3.27,0,0,0,0,0,0-18.24-21.4-52.73-18.69-80.69-16.49-13.21,1.04-24.36,1.92-31.81,.01-1.61-.41-3.05-.95-4.29-1.66-.81-.45-1.54-.97-2.19-1.57-1.64-1.52-2.64-3.42-2.98-5.68h0c-.15-1-.18-2.06-.08-3.2l.28,.03,4.56,.54c-.16,1.75,.1,3.15,.78,4.24h0c.21,.36,.48,.68,.79,.96,4.54,4.19,19,3.05,34.31,1.84,14.87-1.17,31.72-2.5,47.47-.22,14.62,2.11,25.89,7,34.19,14.88h0c2.31,2.2,4.38,4.62,6.23,7.27Z"/><path class="k" d="M175.14,103.5c-7.39-.89-18.01,1.48-30.58,4.29-27.91,6.23-62.65,13.98-82.43-8.39l-3.6,2.84c9.68,10.95,23.28,16.35,41.56,16.51,15.42,.14,31.46-3.44,45.62-6.6,14.58-3.25,28.34-6.32,33.21-2.78,1.36,.99,2.06,2.61,2.14,4.94l4.72-.08c-.13-3.72-1.48-6.54-4.02-8.38-1.76-1.28-3.98-2.01-6.62-2.33Z"/><path class="k" d="M69.78,82.81c7.25,1.14,17.81-.88,30.31-3.25,27.75-5.28,62.28-11.86,80.96,11.16l3.66-2.72c-9.14-11.26-22.35-17.11-40.37-17.89-15.2-.65-31.15,2.38-45.22,5.06-14.49,2.76-28.18,5.37-32.85,1.66-1.31-1.04-1.94-2.67-1.93-5.01l-4.66-.08c0,3.72,1.22,6.58,3.65,8.51,1.68,1.34,3.85,2.14,6.44,2.55Z"/></g></g></g></svg>