<?xml version="1.0" encoding="UTF-8"?><svg xmlns="http://www.w3.org/2000/svg" width="300" height="300" viewBox="0 0 300 300"><defs><style>.j{fill:#f6c945;}.k{fill:#638dbb;}</style></defs><g id="a"/><g id="b"/><g id="c"/><g id="d"/><g id="e"/><g id="f"/><g id="g"/><g id="h"><g><path class="k" d="M292.92,133.06c-4.91-25.77-15.58-41.79-38.05-55.23-11.43-6.84-25.59-9.73-40.67-10.74-4.25-36.59-21.82-60.87-71.02-54.31C14.31,29.97,28.12-23.15,44.99,76.61c14.36,84.88-49.27,173.56-9.82,193.92,38.05,19.64,168.15,44.36,168.15-41.73,0-4.21,.13-8.56,.35-13.03,17.56-4.56,31.11-13.15,43.84-21.34,28.45-18.29,49.36-40.63,45.41-61.37Zm-47.51,44.92c-11.1,8.21-24.94,14.27-40.23,17.76,3.26-33.94,9.7-71.87,10.11-104.44,9.52,2.52,18.35,6.15,26.13,10.8,16.52,9.88,25.96,23.04,26.58,37.05,.61,13.81-7.41,27.6-22.59,38.83Z"/><g><path class="j" d="M192.23,82.59c-.03-1.15-.07-2.3-.11-3.45-.41-11.9-1.06-24.32-1.95-37.25l-.1-1.41-1.19-.77c-.26-.17-6.47-4.14-17.38-6.12-18-3.27-34.74,1.39-45.62,5.88-10.86,4.48-46.21,.89-58.91-.87l-3.22-.45v3.93c0,13.64-.27,26.72-.7,39.28v.32c-.84,24.06-2.28,46.18-3.6,66.53-1.93,29.78-3.6,55.49-2.28,74.43,.71,10.14,2.25,18.03,4.7,24.11,2.79,6.92,6.78,11.64,12.19,14.42,6.65,3.41,19.04,9.77,32.64,12.6,4.8,1,9.43,1.5,13.87,1.5,10.4,0,19.78-2.73,28.03-8.16,16.49-10.87,28.5-32.69,35.7-64.86,6.79-30.33,9.44-70.46,7.92-119.65Zm-13.45,118.41c-.61,3.31-2.21,11.24-5.89,20.94-5.79,15.26-12.34,30.51-27.4,40.43-10.47,6.9-23.13,8.87-37.63,5.85-12.85-2.68-24.79-8.8-31.2-12.1-8.11-4.16-12.5-14.93-13.83-33.88-1.3-18.55,.36-44.09,2.28-73.66,1.31-20.19,2.74-42.12,3.57-65.98,.08-2.26,.16-4.53,.22-6.83,.3-10.05,.49-20.43,.52-31.15,10.94,1.36,46.18,5.21,58.63,.07,18.28-7.54,33.01-7.2,42.14-5.6,7.3,1.29,12.29,3.57,14.44,4.69,.05,3.03,.23,16.39,.2,34.45,0,1.51,0,3.05-.01,4.61-.13,37.56-1.21,91.95-6.04,118.14Z"/><path class="j" d="M151.22,260.01c-5.88-.54-13.66-4.89-22.87-10.03-20.45-11.43-45.89-25.66-65.31-7.48l-2.26-3.47c9.5-8.89,21.01-11.6,35.19-8.27,11.95,2.81,23.71,9.38,34.08,15.18,10.68,5.97,20.76,11.61,25.18,9.06,1.24-.71,2.07-2.16,2.57-4.44l3.64,.98c-.78,3.62-2.35,6.13-4.65,7.46-1.59,.92-3.45,1.21-5.55,1.02Z"/><path class="j" d="M65.11,215.22c6.85,1.73,17.23,.41,29.52-1.15,27.28-3.46,61.23-7.76,76.65,17.67l3.82-2.56c-7.54-12.45-19.6-19.54-36.85-21.69-14.55-1.81-30.23,.18-44.07,1.93-14.25,1.8-27.7,3.51-31.79-.71-1.14-1.18-1.57-2.94-1.3-5.37l-4.47-.43c-.42,3.88,.44,6.97,2.57,9.16,1.47,1.52,3.47,2.52,5.92,3.14Z"/><path class="j" d="M173.86,191.28c-7.4,0-17.6-3.62-29.67-7.9-26.81-9.51-60.18-21.34-82.33-1.5l-3.22-3.25c10.84-9.71,24.89-13.45,42.95-11.43,15.23,1.7,30.64,7.17,44.24,11.99,14,4.96,27.23,9.65,32.45,6.72,1.46-.82,2.34-2.34,2.7-4.65l4.65,.64c-.56,3.67-2.23,6.31-4.95,7.84-1.88,1.06-4.17,1.52-6.81,1.52Z"/><path class="j" d="M69.82,143.82c7.48,1.91,18.69,1.03,31.96-.01,29.46-2.31,66.13-5.18,83.64,19.75l4.06-2.32c-8.57-12.2-21.85-19.44-40.62-22.14-15.82-2.27-32.76-.95-47.71,.22-15.39,1.2-29.92,2.34-34.47-1.85-1.27-1.17-1.79-2.87-1.58-5.2l-4.86-.57c-.34,3.71,.7,6.69,3.07,8.87,1.64,1.51,3.84,2.55,6.51,3.23Z"/><path class="j" d="M180.23,100.46c-7.43-.89-18.1,1.48-30.73,4.28-28.05,6.22-62.95,13.97-82.84-8.39l-3.62,2.84c9.73,10.94,23.39,16.34,41.77,16.5,15.49,.14,31.62-3.44,45.84-6.6,14.65-3.25,28.48-6.32,33.37-2.78,1.37,.99,2.07,2.61,2.16,4.94l4.74-.08c-.13-3.72-1.49-6.54-4.04-8.38-1.76-1.28-4-2.01-6.66-2.33Z"/><path class="j" d="M74.36,79.78c7.29,1.13,17.9-.87,30.46-3.25,27.88-5.28,62.58-11.85,81.36,11.15l3.67-2.71c-9.19-11.26-22.46-17.11-40.57-17.88-15.27-.65-31.3,2.38-45.44,5.06-14.56,2.76-28.31,5.36-33.01,1.66-1.31-1.03-1.95-2.67-1.94-5l-4.68-.08c0,3.72,1.23,6.58,3.67,8.51,1.69,1.33,3.87,2.14,6.48,2.55Z"/></g></g></g><g id="i"/></svg>