<svg xmlns="http://www.w3.org/2000/svg" width="300" height="300" viewBox="0 0 300 300"><defs><style>.cls-1{fill:#638dbb;}.cls-2{fill:#f6c945;}</style></defs><g id="ui_elements"><path class="cls-1" d="M292.92,133.06c-4.91-25.77-15.58-41.79-38.05-55.23C243.44,71,229.28,68.11,214.2,67.09c-4.25-36.58-21.82-60.87-71-54.31C14.31,30,28.12-23.15,45,76.61c14.36,84.88-49.27,173.55-9.82,193.92,38.05,19.64,168.15,44.35,168.15-41.73,0-4.21.13-8.57.35-13,17.56-4.56,31.11-13.16,43.84-21.34C276,176.14,296.87,153.81,292.92,133.06ZM245.41,178c-11.1,8.21-24.94,14.27-40.23,17.76,3.26-33.94,9.7-71.87,10.11-104.44a101.65,101.65,0,0,1,26.13,10.8c16.52,9.88,26,23,26.58,37.05C268.61,153,260.59,166.76,245.41,178Z"/><path class="cls-2" d="M192.23,82.59l-.12-3.45q-.6-17.85-1.94-37.25l-.1-1.41-1.19-.77c-.26-.17-6.47-4.14-17.38-6.12-18-3.27-34.74,1.39-45.62,5.88S79.67,40.36,67,38.6l-3.22-.44v3.92c0,13.64-.27,26.73-.7,39.29v.32c-.83,24.06-2.27,46.18-3.59,66.53-1.93,29.77-3.6,55.49-2.28,74.42.71,10.14,2.25,18,4.7,24.11,2.79,6.92,6.78,11.63,12.19,14.41,6.66,3.42,19,9.77,32.64,12.61a68.71,68.71,0,0,0,13.87,1.49,50,50,0,0,0,28-8.16c16.49-10.87,28.51-32.69,35.7-64.86C191.09,171.91,193.74,131.77,192.23,82.59ZM178.78,201a121.54,121.54,0,0,1-5.89,20.94c-5.79,15.26-12.34,30.51-27.41,40.43-10.46,6.9-23.13,8.87-37.63,5.85-12.85-2.67-24.79-8.8-31.2-12.09-8.11-4.17-12.5-14.93-13.83-33.88-1.3-18.55.36-44.09,2.28-73.67,1.31-20.19,2.74-42.12,3.57-66,.08-2.26.16-4.54.22-6.83q.45-15.07.52-31.15C80.35,46,115.59,49.84,128,44.7c18.29-7.54,33-7.2,42.14-5.59a50.08,50.08,0,0,1,14.44,4.69c0,3,.23,16.39.2,34.45,0,1.5,0,3,0,4.61C184.68,120.42,183.6,174.81,178.78,201Z"/><path class="cls-2" d="M151.22,260c-5.88-.54-13.66-4.89-22.87-10-20.44-11.43-45.89-25.66-65.31-7.49L60.77,239c9.51-8.89,21-11.6,35.19-8.27,12,2.81,23.71,9.38,34.08,15.18,10.68,6,20.76,11.6,25.18,9.06,1.24-.71,2.08-2.17,2.57-4.44l3.63,1c-.78,3.62-2.35,6.13-4.65,7.46A9.17,9.17,0,0,1,151.22,260Z"/><path class="cls-2" d="M65.11,215.22c6.85,1.73,17.23.41,29.52-1.15,27.28-3.45,61.23-7.76,76.65,17.68l3.82-2.57c-7.55-12.44-19.6-19.54-36.85-21.69-14.55-1.81-30.23.18-44.07,1.93-14.25,1.81-27.7,3.51-31.78-.7-1.15-1.18-1.57-2.94-1.31-5.38l-4.47-.42c-.42,3.88.45,7,2.57,9.16A12.14,12.14,0,0,0,65.11,215.22Z"/><path class="cls-2" d="M173.86,191.28c-7.39,0-17.6-3.62-29.67-7.9C117.38,173.87,84,162,61.86,181.88l-3.22-3.25c10.84-9.71,24.88-13.44,43-11.42,15.23,1.7,30.64,7.17,44.24,12,14,5,27.23,9.65,32.45,6.72,1.46-.82,2.34-2.34,2.69-4.65l4.65.65c-.56,3.67-2.23,6.31-5,7.84A13.71,13.71,0,0,1,173.86,191.28Z"/><path class="cls-2" d="M69.82,143.82c7.48,1.9,18.69,1,32,0,29.46-2.31,66.13-5.18,83.63,19.75l4.06-2.32c-8.57-12.2-21.85-19.44-40.62-22.13-15.82-2.27-32.76-1-47.7.22-15.39,1.21-29.92,2.35-34.48-1.84-1.27-1.17-1.79-2.87-1.58-5.2l-4.86-.57c-.33,3.7.7,6.69,3.08,8.87A14.78,14.78,0,0,0,69.82,143.82Z"/><path class="cls-2" d="M180.23,100.46c-7.42-.88-18.1,1.49-30.73,4.29-28,6.22-62.95,14-82.84-8.39L63,99.19c9.73,11,23.4,16.34,41.77,16.5,15.49.14,31.62-3.44,45.84-6.59,14.65-3.25,28.48-6.32,33.38-2.78,1.37,1,2.07,2.6,2.15,4.93l4.75-.08c-.13-3.71-1.49-6.53-4-8.38A14.05,14.05,0,0,0,180.23,100.46Z"/><path class="cls-2" d="M74.36,79.78c7.29,1.14,17.9-.87,30.45-3.25,27.89-5.28,62.59-11.85,81.36,11.15L189.85,85c-9.19-11.26-22.46-17.11-40.57-17.88-15.27-.66-31.3,2.38-45.44,5.06-14.56,2.76-28.31,5.36-33,1.66-1.31-1-2-2.67-1.94-5l-4.68-.08c0,3.72,1.23,6.58,3.67,8.51A13.71,13.71,0,0,0,74.36,79.78Z"/></g></svg>