<?xml version="1.0" encoding="UTF-8"?><svg xmlns="http://www.w3.org/2000/svg" width="300" height="300" viewBox="0 0 300 300"><defs><style>.j{fill:#f6c945;}.k{fill:#638dbb;}</style></defs><g id="a"/><g id="b"/><g id="c"/><g id="d"/><g id="e"/><g id="f"/><g id="g"/><g id="h"/><g id="i"><g><path class="k" d="M288.84,135.85c-4.91-25.77-15.58-41.79-38.05-55.23-11.43-6.84-25.59-9.73-40.67-10.74-4.25-36.59-21.82-60.87-71.02-54.31C10.23,32.75,24.04-20.36,40.91,79.39c14.36,84.88-49.27,173.56-9.82,193.92,38.05,19.64,168.15,44.36,168.15-41.73,0-4.21,.13-8.56,.35-13.03,17.56-4.56,31.11-13.15,43.84-21.34,28.45-18.29,49.36-40.63,45.41-61.37Zm-47.51,44.92c-11.1,8.21-24.94,14.27-40.23,17.76,3.26-33.94,9.7-71.87,10.11-104.44,9.52,2.52,18.35,6.15,26.13,10.8,16.52,9.88,25.96,23.04,26.58,37.05,.61,13.81-7.41,27.6-22.59,38.83Z"/><path class="j" d="M121.88,47.06c36.91-15.23,60.38,0,60.38,0,19.37,281.67-79.99,232.98-111.98,216.56-29.47-15.13-8.78-97.29-8.78-216.56,0-.23,0-.45,0-.68,0,0,46.42,6.44,60.38,.68Z"/></g><g><path class="k" d="M289.92,135.79c-4.89-25.79-15.5-41.81-37.86-55.26-11.38-6.84-25.46-9.73-40.47-10.75-4.22-36.61-21.71-60.9-70.67-54.34C12.67,32.64,26.42-20.51,43.21,79.3c14.29,84.92-49.03,173.65-9.77,194.02,37.86,19.65,167.33,44.38,167.33-41.75,0-4.21,.12-8.57,.35-13.04,17.47-4.56,30.96-13.16,43.62-21.35,28.32-18.3,49.12-40.65,45.19-61.4Zm-47.28,44.95c-11.05,8.22-24.82,14.28-40.03,17.77,3.24-33.96,9.66-71.91,10.06-104.49,9.47,2.52,18.26,6.15,26,10.8,16.44,9.88,25.83,23.05,26.45,37.07,.61,13.82-7.37,27.62-22.48,38.85Z"/><g><path class="j" d="M151.58,258.26c.48-.1,.92-.26,1.32-.49,1.07-.62,1.84-1.8,2.35-3.61-1.14,1.41-2.36,2.79-3.66,4.09Zm38.14-172.97c-.03-1.15-.07-2.3-.11-3.45-.41-11.91-1.05-24.33-1.94-37.27l-.1-1.41-1.18-.77c-.26-.17-6.43-4.14-17.3-6.12-17.91-3.27-34.57,1.39-45.39,5.88-10.81,4.48-45.98,.9-58.63-.86l-3.2-.45v3.93c0,13.65-.27,26.73-.7,39.3v.32c-.62,17.73-1.55,34.41-2.53,50.09-.07,1.06-.13,2.1-.2,3.15h0c-.28,4.53-.57,8.96-.85,13.32-1.32,20.45-2.52,38.99-2.71,54.73-.01,1.38-.03,2.73-.03,4.07h0c0,5.63,.14,10.87,.47,15.66,.71,10.14,2.24,18.03,4.67,24.12,2.78,6.92,6.75,11.64,12.14,14.43,6.62,3.41,18.94,9.77,32.48,12.6,4.77,1,9.38,1.5,13.8,1.5,10.35,0,19.69-2.74,27.89-8.17,16.41-10.87,28.36-32.7,35.52-64.89,6.76-30.35,9.39-70.5,7.89-119.71Zm-13.39,118.47c-.6,3.31-2.2,11.24-5.86,20.95-.33,.87-.66,1.74-1,2.61-.64,1.68-1.31,3.37-2,5.04-3.07,7.46-6.65,14.7-11.65,21.07-.19,.24-.38,.49-.59,.73-1.14,1.41-2.36,2.79-3.66,4.09-1.45,1.48-3.01,2.89-4.69,4.22-1.16,.93-2.4,1.82-3.68,2.68-10.41,6.9-23.02,8.88-37.45,5.86-12.78-2.68-24.67-8.81-31.05-12.1-5.03-2.6-8.62-7.76-10.93-15.87-.39-1.38-.75-2.84-1.07-4.4-.82-3.96-1.4-8.49-1.76-13.63-.17-2.52-.3-5.17-.37-7.94-.05-1.82-.08-3.7-.08-5.64-.04-8.4,.27-17.76,.78-27.9,.1-1.95,.2-3.93,.31-5.93,.46-8.31,1.03-17.11,1.63-26.28,.14-2.12,.28-4.26,.42-6.42,.12-1.87,.24-3.73,.37-5.63h0c.66-10.46,1.32-21.37,1.88-32.74h0c.1-1.98,.19-3.98,.28-5.98,.23-4.99,.44-10.07,.62-15.24,.06-1.57,.1-3.14,.15-4.72,.03-.7,.05-1.41,.07-2.11,.05-1.72,.1-3.44,.14-5.18h0c.22-8.43,.35-17.09,.37-25.98,10.89,1.36,45.96,5.21,58.34,.07,18.2-7.54,32.85-7.21,41.94-5.6,7.26,1.29,12.24,3.57,14.37,4.69,.04,3.03,.23,16.4,.2,34.47v1.47c0,1.04,0,2.08,0,3.15,0,1.07,0,2.14-.01,3.23-.02,4.93-.06,10.12-.12,15.48-.02,1.73-.05,3.49-.07,5.26-.23,15.41-.64,31.85-1.39,47.19h0c-.1,2.13-.21,4.23-.34,6.31h0c-.42,7.46-.92,14.56-1.53,21.05-.28,2.99-.57,5.86-.9,8.56-.49,4.09-1.04,7.83-1.64,11.13Zm-24.76,54.5c.48-.1,.92-.26,1.32-.49,1.07-.62,1.84-1.8,2.35-3.61-1.14,1.41-2.36,2.79-3.66,4.09Z"/><path class="j" d="M182.14,109.52c-.23,15.41-.64,31.85-1.39,47.19-8.3-7.87-19.57-12.77-34.19-14.88-15.75-2.28-32.6-.95-47.47,.22-15.32,1.2-29.78,2.35-34.31-1.85-.3-.29-.57-.6-.78-.95h0c.66-10.46,1.32-21.37,1.88-32.74,9.23,7.85,21.36,11.75,36.86,11.88,15.42,.13,31.47-3.45,45.62-6.6,14.58-3.25,28.34-6.32,33.21-2.78,.21,.15,.4,.32,.57,.5Z"/><path class="j" d="M180.41,163.02s0,0,0,0c-.42,7.45-.92,14.55-1.53,21.04l-.35-.05c-.35,2.3-1.23,3.83-2.68,4.64-5.2,2.94-18.36-1.75-32.29-6.72-13.53-4.82-28.87-10.3-44.03-12-15.42-1.73-27.9,.77-37.94,7.65,.46-8.31,1.03-17.11,1.63-26.28,.14-2.12,.28-4.26,.42-6.42,1.24,.7,2.67,1.25,4.28,1.66,7.44,1.9,18.6,1.02,31.81-.01,27.97-2.21,62.45-4.92,80.69,16.49Z"/><path class="j" d="M177.98,192.63c-.49,4.09-1.04,7.83-1.64,11.13-.6,3.31-2.2,11.24-5.86,20.95-.33,.87-.66,1.74-1,2.61-7.56-9.59-18.57-15.2-33.47-17.06-14.47-1.82-30.08,.17-43.85,1.93-14.17,1.8-27.56,3.51-31.63-.71-.01-.01-.03-.03-.03-.04-.04-8.4,.27-17.76,.78-27.9,22.03-18.3,54.48-6.73,80.65,2.6,12.01,4.28,22.17,7.9,29.53,7.9,2.52,0,4.71-.42,6.53-1.4Z"/><path class="j" d="M167.48,232.36c-3.07,7.46-6.65,14.7-11.65,21.07l-.38-.1c-.06,.29-.13,.57-.21,.84-1.14,1.41-2.36,2.79-3.66,4.09-4.89,1.04-14.07-4.11-23.74-9.55-10.32-5.8-22.02-12.37-33.92-15.18-12.27-2.9-22.53-1.23-31.22,5.12-.82-3.96-1.4-8.49-1.76-13.63-.17-2.52-.3-5.17-.37-7.94,.81,.37,1.7,.68,2.65,.91,6.81,1.73,17.15,.41,29.38-1.15,26.35-3.35,58.96-7.51,74.88,15.53Z"/><path class="j" d="M146.89,262.48c-1.16,.93-2.4,1.82-3.68,2.68-10.41,6.9-23.02,8.88-37.45,5.86-12.78-2.68-24.67-8.81-31.05-12.1-5.03-2.6-8.62-7.76-10.93-15.87,18.96-14.69,42.95-1.21,62.39,9.72,8.14,4.58,15.17,8.53,20.73,9.72Z"/><path class="j" d="M159.07,254.31c-.78,3.63-2.34,6.13-4.63,7.46-1.59,.92-3.43,1.21-5.53,1.02-.65-.06-1.32-.17-2.02-.32-5.56-1.19-12.59-5.14-20.73-9.72-19.44-10.93-43.43-24.41-62.39-9.72-.88,.68-1.75,1.43-2.61,2.23l-2.25-3.47c1.23-1.16,2.49-2.21,3.79-3.16,8.68-6.34,18.95-8.01,31.22-5.12,11.9,2.81,23.59,9.39,33.92,15.18,9.67,5.44,18.85,10.6,23.74,9.55,.48-.1,.92-.26,1.32-.49,1.07-.62,1.84-1.8,2.35-3.61,.08-.26,.15-.54,.21-.84l.38,.1,3.24,.88Z"/><path class="j" d="M172.67,231.95l-3.79,2.57c-.45-.74-.91-1.46-1.4-2.16-15.92-23.03-48.53-18.87-74.88-15.53-12.23,1.56-22.56,2.88-29.38,1.15-.96-.24-1.84-.54-2.65-.91-1.26-.57-2.35-1.3-3.23-2.23-1.32-1.36-2.15-3.06-2.49-5.09h0c-.21-1.25-.24-2.6-.08-4.08h.1l4.35,.42c-.26,2.41,.15,4.16,1.26,5.33,0,.01,.02,.03,.03,.04,4.06,4.22,17.45,2.51,31.63,.71,13.77-1.75,29.38-3.75,43.85-1.93,14.91,1.87,25.92,7.47,33.47,17.06,1.14,1.45,2.21,2.99,3.19,4.63Z"/><path class="j" d="M183.15,184.66c-.56,3.68-2.22,6.31-4.93,7.85-.08,.05-.16,.09-.24,.13-1.82,.97-4.01,1.4-6.53,1.4-7.36,0-17.51-3.62-29.53-7.9-26.17-9.34-58.61-20.9-80.65-2.6-.43,.35-.86,.72-1.28,1.1l-3.21-3.25c1.53-1.38,3.13-2.64,4.8-3.78,10.04-6.88,22.52-9.39,37.94-7.65,15.16,1.71,30.5,7.18,44.03,12,13.93,4.96,27.09,9.66,32.29,6.72,1.45-.81,2.33-2.34,2.68-4.64l.35,.05,4.27,.59Z"/><path class="j" d="M186.98,163.98l-4.04,2.32c-.8-1.15-1.65-2.24-2.53-3.27h0c-18.24-21.41-52.73-18.7-80.69-16.49-13.21,1.04-24.36,1.91-31.81,.01-1.61-.41-3.04-.95-4.28-1.66-.82-.45-1.55-.97-2.2-1.57-1.64-1.52-2.64-3.42-2.98-5.68h0c-.15-1-.18-2.06-.08-3.2l.28,.03,4.56,.54c-.16,1.76,.1,3.16,.79,4.25h0c.21,.36,.48,.67,.78,.95,4.54,4.19,18.99,3.05,34.31,1.85,14.87-1.17,31.72-2.5,47.47-.22,14.62,2.11,25.89,7,34.19,14.88h0c2.31,2.19,4.38,4.62,6.23,7.27Z"/><path class="j" d="M188.43,113.88l-4.72,.08c-.07-1.98-.58-3.44-1.57-4.44-.17-.18-.37-.35-.57-.5-4.87-3.54-18.63-.47-33.21,2.78-14.15,3.15-30.2,6.73-45.62,6.6-15.5-.13-27.63-4.04-36.86-11.88h0c-1.66-1.41-3.23-2.95-4.7-4.62l3.6-2.84c.45,.51,.91,1,1.38,1.48,19.98,20.53,53.78,13,81.05,6.91,12.57-2.81,23.19-5.17,30.58-4.29,1.63,.2,3.12,.56,4.42,1.1,.8,.34,1.54,.74,2.2,1.23,2.53,1.85,3.89,4.66,4.02,8.38Z"/><path class="j" d="M72.43,82.48c7.25,1.14,17.81-.88,30.31-3.25,27.75-5.28,62.28-11.86,80.96,11.16l3.66-2.72c-9.14-11.26-22.35-17.11-40.37-17.89-15.2-.65-31.15,2.38-45.22,5.06-14.49,2.76-28.18,5.37-32.85,1.66-1.31-1.04-1.94-2.67-1.93-5.01l-4.66-.08c0,3.72,1.22,6.58,3.65,8.51,1.68,1.34,3.85,2.14,6.44,2.55Z"/></g></g></g></svg>