<?xml version="1.0" encoding="UTF-8"?><svg xmlns="http://www.w3.org/2000/svg" width="300" height="300" viewBox="0 0 300 300"><defs><style>.j{fill:#f6c945;}.k{fill:#638dbb;}</style></defs><g id="a"/><g id="b"/><g id="c"/><g id="d"/><g id="e"/><g id="f"/><g id="g"/><g id="h"><g><path class="k" d="M288.18,135.84c-4.89-25.79-15.5-41.81-37.86-55.26-11.38-6.84-25.46-9.73-40.47-10.75-4.22-36.61-21.71-60.9-70.67-54.34C10.93,32.69,24.67-20.45,41.46,79.36c14.29,84.92-49.03,173.65-9.77,194.02,37.86,19.65,167.33,44.38,167.33-41.75,0-4.21,.12-8.57,.35-13.04,17.47-4.56,30.96-13.16,43.62-21.35,28.32-18.3,49.12-40.65,45.19-61.4Zm-47.28,44.95c-11.05,8.22-24.82,14.28-40.03,17.77,3.24-33.96,9.66-71.91,10.06-104.49,9.47,2.52,18.26,6.15,26,10.8,16.44,9.88,25.83,23.05,26.45,37.07,.61,13.82-7.37,27.62-22.48,38.85Z"/><path class="j" d="M122.03,47.01c36.73-15.23,60.09,0,60.09,0,19.28,281.81-79.6,233.1-111.44,216.67-29.32-15.13-8.73-97.34-8.73-216.67,0-.23,0-.45,0-.68,0,0,46.2,6.44,60.08,.68Z"/></g></g><g id="i"/></svg>