<?xml version="1.0" encoding="UTF-8"?><svg xmlns="http://www.w3.org/2000/svg" width="300" height="300" viewBox="0 0 300 300"><defs><style>.j{fill:#f6c945;}.k{fill:#638dbb;}</style></defs><g id="a"/><g id="b"/><g id="c"/><g id="d"/><g id="e"/><g id="f"/><g id="g"/><g id="h"/><g id="i"><g><path class="k" d="M288.84,135.85c-4.91-25.77-15.58-41.79-38.05-55.23-11.43-6.84-25.59-9.73-40.67-10.74-4.25-36.59-21.82-60.87-71.02-54.31C10.23,32.75,24.04-20.36,40.91,79.39c14.36,84.88-49.27,173.56-9.82,193.92,38.05,19.64,168.15,44.36,168.15-41.73,0-4.21,.13-8.56,.35-13.03,17.56-4.56,31.11-13.15,43.84-21.34,28.45-18.29,49.36-40.63,45.41-61.37Zm-47.51,44.92c-11.1,8.21-24.94,14.27-40.23,17.76,3.26-33.94,9.7-71.87,10.11-104.44,9.52,2.52,18.35,6.15,26.13,10.8,16.52,9.88,25.96,23.04,26.58,37.05,.61,13.81-7.41,27.6-22.59,38.83Z"/><path class="j" d="M121.88,47.06c36.91-15.23,60.38,0,60.38,0,19.37,281.67-79.99,232.98-111.98,216.56-29.47-15.13-8.78-97.29-8.78-216.56,0-.23,0-.45,0-.68,0,0,46.42,6.44,60.38,.68Z"/></g><g><path class="k" d="M287.28,135.11c-4.89-25.79-15.5-41.81-37.86-55.26-11.38-6.84-25.46-9.73-40.47-10.75-4.22-36.61-21.71-60.9-70.67-54.34C10.03,31.96,23.77-21.18,40.56,78.63c14.29,84.92-49.03,173.65-9.77,194.02,37.86,19.65,167.33,44.38,167.33-41.75,0-4.21,.12-8.57,.35-13.04,17.47-4.56,30.96-13.16,43.62-21.35,28.32-18.3,49.12-40.65,45.19-61.4Zm-47.28,44.95c-11.05,8.22-24.82,14.28-40.03,17.77,3.24-33.96,9.66-71.91,10.06-104.49,9.47,2.52,18.26,6.15,26,10.8,16.44,9.88,25.83,23.05,26.45,37.07,.61,13.82-7.37,27.62-22.48,38.85Z"/><g><path class="j" d="M148.93,257.59c.48-.1,.93-.26,1.32-.49,1.07-.62,1.84-1.8,2.34-3.61-1.14,1.41-2.36,2.78-3.66,4.09Zm38.14-172.97c-.03-1.15-.07-2.3-.11-3.45-.41-11.91-1.05-24.33-1.94-37.27l-.1-1.41-1.18-.77c-.26-.17-6.43-4.14-17.29-6.13-17.91-3.27-34.58,1.4-45.4,5.88-10.81,4.48-45.98,.89-58.63-.87l-3.2-.45v3.93c0,13.64-.27,26.73-.7,39.3v.32c-.62,17.73-1.55,34.4-2.53,50.09-.07,1.06-.13,2.1-.2,3.15h0c-.28,4.53-.57,8.96-.85,13.32-1.32,20.45-2.52,39-2.71,54.74-.01,1.38-.03,2.73-.03,4.07h0c0,5.63,.14,10.87,.47,15.66,.71,10.14,2.24,18.03,4.68,24.12,2.78,6.92,6.74,11.64,12.13,14.43,6.62,3.41,18.94,9.77,32.48,12.6,4.77,1,9.38,1.5,13.8,1.5,10.35,0,19.69-2.74,27.89-8.17,16.41-10.87,28.36-32.7,35.53-64.89,6.75-30.35,9.39-70.5,7.88-119.71Zm-13.39,118.47c-.6,3.31-2.2,11.24-5.86,20.95-.33,.87-.66,1.73-1,2.6-.64,1.69-1.31,3.38-2,5.05-3.07,7.46-6.65,14.7-11.65,21.07-.19,.24-.39,.49-.59,.73-1.14,1.41-2.36,2.78-3.66,4.09-1.45,1.48-3.01,2.9-4.7,4.22-1.16,.94-2.39,1.83-3.68,2.68-10.41,6.9-23.02,8.87-37.44,5.86-12.79-2.68-24.67-8.81-31.05-12.11-5.03-2.6-8.63-7.76-10.94-15.87-.39-1.38-.75-2.84-1.07-4.39-.82-3.97-1.41-8.5-1.76-13.63-.17-2.52-.3-5.17-.37-7.94-.05-1.82-.08-3.7-.08-5.63-.05-8.4,.27-17.77,.78-27.92,.1-1.95,.2-3.93,.31-5.93,.46-8.31,1.03-17.1,1.62-26.28,.14-2.12,.28-4.26,.41-6.42,.12-1.87,.25-3.75,.37-5.65h0c.66-10.46,1.32-21.35,1.88-32.72h0c.1-1.98,.19-3.98,.28-5.98,.23-4.99,.44-10.07,.62-15.24,.06-1.57,.11-3.14,.16-4.72,.02-.7,.04-1.41,.06-2.11,.05-1.72,.1-3.45,.14-5.19,.22-8.42,.35-17.09,.37-25.98,10.89,1.36,45.96,5.21,58.35,.07,18.19-7.55,32.84-7.21,41.93-5.6,7.26,1.29,12.24,3.56,14.37,4.69,.05,3.03,.23,16.4,.2,34.47v1.46c0,1.04,0,2.09,0,3.16,0,1.06,0,2.14-.01,3.22-.02,4.94-.06,10.13-.12,15.48-.02,1.73-.04,3.48-.07,5.25,0,0,0,0,0,0-.22,15.41-.64,31.85-1.38,47.2h0c-.11,2.13-.22,4.23-.34,6.31,0,0,0,0,0,0-.42,7.45-.92,14.54-1.53,21.03-.28,2.99-.58,5.86-.91,8.56-.49,4.09-1.04,7.83-1.64,11.13Zm-24.76,54.5c.48-.1,.93-.26,1.32-.49,1.07-.62,1.84-1.8,2.34-3.61-1.14,1.41-2.36,2.78-3.66,4.09Z"/><path class="j" d="M164.83,231.69c-3.07,7.46-6.65,14.7-11.65,21.07l-.38-.1c-.06,.29-.13,.57-.21,.84-1.14,1.41-2.36,2.78-3.66,4.09-4.89,1.04-14.07-4.11-23.74-9.55-10.32-5.8-22.02-12.37-33.91-15.18-12.28-2.9-22.53-1.23-31.22,5.12-.82-3.97-1.41-8.5-1.76-13.63-.17-2.52-.3-5.17-.37-7.94,.81,.37,1.69,.67,2.65,.91,6.81,1.73,17.15,.41,29.37-1.15,26.35-3.35,58.96-7.51,74.88,15.53Z"/><path class="j" d="M144.24,261.81c-1.16,.94-2.39,1.83-3.68,2.68-10.41,6.9-23.02,8.87-37.44,5.86-12.79-2.68-24.67-8.81-31.05-12.11-5.03-2.6-8.63-7.76-10.94-15.87,18.95-14.7,42.94-1.21,62.39,9.72,8.14,4.57,15.17,8.51,20.73,9.72Z"/><path class="j" d="M156.42,253.64c-.78,3.63-2.34,6.13-4.63,7.46-1.59,.92-3.43,1.21-5.52,1.02-.66-.06-1.33-.17-2.04-.32-5.56-1.2-12.58-5.15-20.73-9.72-19.44-10.93-43.43-24.42-62.39-9.72-.88,.68-1.75,1.42-2.6,2.23l-2.26-3.47c1.23-1.16,2.49-2.21,3.79-3.15,8.69-6.35,18.95-8.02,31.22-5.12,11.89,2.81,23.59,9.39,33.91,15.18,9.67,5.44,18.85,10.6,23.74,9.55,.48-.1,.93-.26,1.32-.49,1.07-.62,1.84-1.8,2.34-3.61,.08-.26,.15-.54,.21-.84l.38,.1,3.24,.88Z"/><path class="j" d="M170.03,231.28l-3.8,2.57c-.45-.74-.91-1.46-1.4-2.16-15.92-23.04-48.53-18.87-74.88-15.53-12.23,1.56-22.56,2.88-29.37,1.15-.96-.24-1.83-.54-2.65-.91-1.27-.57-2.35-1.3-3.24-2.23-1.32-1.36-2.15-3.06-2.49-5.09h0c-.21-1.25-.24-2.6-.08-4.08h.1l4.35,.42c-.26,2.42,.15,4.16,1.27,5.34,0,.01,.01,.02,.03,.03,4.06,4.22,17.45,2.51,31.63,.71,13.77-1.75,29.37-3.75,43.85-1.93,14.92,1.87,25.92,7.46,33.47,17.06,1.14,1.46,2.21,3,3.2,4.64Z"/><path class="j" d="M168.8,193.36c-7.36,0-17.51-3.62-29.53-7.9-26.68-9.51-59.89-21.35-81.93-1.5l-3.21-3.25c10.79-9.71,24.77-13.45,42.74-11.43,15.16,1.71,30.49,7.17,44.03,12,13.93,4.97,27.09,9.66,32.29,6.72,1.45-.82,2.33-2.34,2.68-4.65l4.62,.64c-.56,3.68-2.22,6.32-4.93,7.85-1.87,1.06-4.15,1.52-6.78,1.52Z"/><path class="j" d="M65.26,145.87c7.44,1.91,18.6,1.03,31.8-.01,29.32-2.31,65.81-5.18,83.23,19.76l4.04-2.32c-8.52-12.21-21.74-19.45-40.42-22.15-15.75-2.27-32.6-.95-47.47,.23-15.31,1.21-29.77,2.34-34.31-1.85-1.27-1.17-1.78-2.87-1.57-5.2l-4.84-.57c-.33,3.71,.69,6.69,3.06,8.88,1.63,1.51,3.82,2.55,6.48,3.23Z"/><path class="j" d="M175.14,102.5c-7.39-.89-18.01,1.48-30.58,4.29-27.91,6.23-62.65,13.98-82.43-8.39l-3.6,2.84c9.68,10.95,23.28,16.35,41.56,16.51,15.42,.14,31.46-3.44,45.62-6.6,14.58-3.25,28.34-6.32,33.21-2.78,1.36,.99,2.06,2.61,2.14,4.94l4.72-.08c-.13-3.72-1.48-6.54-4.02-8.38-1.76-1.28-3.98-2.01-6.62-2.33Z"/><path class="j" d="M69.78,81.81c7.25,1.14,17.81-.88,30.31-3.25,27.75-5.28,62.28-11.86,80.96,11.16l3.66-2.72c-9.14-11.26-22.35-17.11-40.37-17.89-15.2-.65-31.15,2.38-45.22,5.06-14.49,2.76-28.18,5.37-32.85,1.66-1.31-1.04-1.94-2.67-1.93-5.01l-4.66-.08c0,3.72,1.22,6.58,3.65,8.51,1.68,1.34,3.85,2.14,6.44,2.55Z"/></g></g></g></svg>