<?xml version="1.0" encoding="UTF-8"?><svg xmlns="http://www.w3.org/2000/svg" width="100" height="95.76" viewBox="0 0 100 95.76"><defs><style>.k{fill:#f4be58;}.l{fill:#e7a947;}.m{fill:#638dbb;}.n{fill:#709dcc;}</style></defs><g id="a"/><g id="b"/><g id="c"/><g id="d"/><g id="e"/><g id="f"/><g id="g"/><g id="h"/><g id="i"/><g id="j"><path class="l" d="M97.64,51.41c-3.63,24.71-24.81,45.41-49.41,41.05C17.76,87.05,3.5,71.77,8.17,47.23,13.09,21.42,23.26,8.4,47.99,7.41c24.58-.98,53.34,18.93,49.65,44Z"/><path class="k" d="M95.39,46.59c-3.76,25.54-25.67,46.93-51.11,42.42C12.76,83.42-1.99,67.62,2.84,42.27,7.93,15.6,18.45,2.14,44.03,1.12,69.46,.11,99.21,20.68,95.39,46.59Z"/><path class="m" d="M46.94,76.21c-3.08,0-6-.94-8.72-2.82-3.91-2.69-7.4-7.37-10.38-13.92-3.12-6.85-3.77-13.85-1.87-20.23,1.76-5.9,5.61-10.87,10.86-14.01,5.71-3.42,12.57-4.36,19.31-2.67,4.55,1.15,8.95,3.47,13.01,6.84-2.17-2.6-4.37-5.22-5.96-7.12-.79-.94-1.45-1.73-1.91-2.28-.23-.28-.42-.5-.54-.65-.07-.08-.12-.15-.16-.19-.91-1.13-.55-2.45,.24-3.13,.07-.06,1.68-1.39,3.27,.43,.12,.14,.31,.35,.56,.65l-.02,.02c.48,.57,1.18,1.4,1.93,2.31,3.67,4.37,10.49,12.49,13.01,15.72,1.29,1.65,1.12,3.64-.43,4.94-2.54,2.13-9.15,2.3-12.86,2.21-3.7-.09-10.2-.56-12.12-2.69-1.1-1.22-1.01-2.9,.21-4.09,.87-.84,1.88-.71,3.57-.5,1.05,.13,2.42,.34,4.01,.57,2.14,.32,5.73,.85,8.46,1.14-4.65-5.13-9.9-8.52-15.36-9.9-5.59-1.41-11.26-.64-15.96,2.17-4.3,2.57-7.45,6.65-8.9,11.48-1.59,5.34-1.02,11.27,1.65,17.14,4.2,9.21,9.17,13.97,14.78,14.14,5.66,.17,11.29-4.29,15.02-8.06,2.86-2.89,5.09-5.84,6.37-7.7,.44-.73,.74-1.22,.92-1.51,.45-.71,1.28-2.02,2.91-1.53l1.57,2.23c-.02,.47-.04,.83-1.68,3.18-.07,.12-.15,.25-.23,.39l-.03-.02c-.07,.1-.15,.21-.23,.32-1.04,1.47-2.74,3.71-4.91,6.09-5.58,6.11-11.1,9.72-16.42,10.73-1.01,.19-2.01,.29-3,.29Z"/><path class="n" d="M45.76,74.43c-3.08,0-6-.94-8.72-2.82-3.91-2.69-7.4-7.37-10.38-13.92-3.12-6.85-3.77-13.85-1.87-20.23,1.76-5.9,5.61-10.87,10.86-14.01,5.71-3.42,12.57-4.36,19.31-2.67,4.55,1.15,8.95,3.47,13.01,6.84-2.17-2.6-4.37-5.22-5.96-7.12-.79-.94-1.45-1.73-1.91-2.28-.23-.28-.42-.5-.54-.65-.07-.08-.12-.15-.16-.19-.91-1.13-.55-2.45,.24-3.13,.07-.06,1.68-1.39,3.27,.43,.12,.14,.31,.35,.56,.65l-.02,.02c.48,.57,1.18,1.4,1.93,2.31,3.67,4.37,10.49,12.49,13.01,15.72,1.29,1.65,1.12,3.64-.43,4.94-2.54,2.13-9.15,2.3-12.86,2.21-3.7-.09-10.2-.56-12.12-2.69-1.1-1.22-1.01-2.9,.21-4.09,.87-.84,1.88-.71,3.57-.5,1.05,.13,2.42,.34,4.01,.57,2.14,.32,5.73,.85,8.46,1.14-4.65-5.13-9.9-8.52-15.36-9.9-5.59-1.41-11.26-.64-15.96,2.17-4.3,2.57-7.45,6.65-8.9,11.48-1.59,5.34-1.02,11.27,1.65,17.14,4.2,9.21,9.17,13.97,14.78,14.14,5.66,.17,11.29-4.29,15.02-8.06,2.86-2.89,5.09-5.84,6.37-7.7,.44-.73,.74-1.22,.92-1.51,.45-.71,1.28-2.02,2.91-1.53l1.57,2.23c-.02,.47-.04,.83-1.68,3.18-.07,.12-.15,.25-.23,.39l-.03-.02c-.07,.1-.15,.21-.23,.32-1.04,1.47-2.74,3.71-4.91,6.09-5.58,6.11-11.1,9.72-16.42,10.73-1.01,.19-2.01,.29-3,.29Z"/></g></svg>