<?xml version="1.0" encoding="UTF-8"?><svg xmlns="http://www.w3.org/2000/svg" width="870" height="490" viewBox="0 0 870 490"><defs><style>.j{fill:#f4be58;}.k{fill:#f4be56;}.l{fill:#eedec0;}.m{fill:#ecc069;}.n{fill:#e7a947;}.o{fill:#ea968c;}.p{fill:#ebc8c3;}.q{fill:#fff;}.r{fill:#f5bd58;}.s{fill:#f1622c;}.t{fill:#7e9e77;}.u{fill:#df9b90;}.v{fill:#df4b37;}.w{fill:#cd3d31;}.x{fill:#e17d70;}.y{fill:#da7e68;}.a`{fill:#e16b3d;}.aa{fill:#151225;}.ab{fill:#22210c;}.ac{fill:#141a21;}.ad{fill:#3e773f;}.ae{fill:#638dbb;}.af{fill:#293f02;}.ag{fill:#3c6087;}.ah{fill:#3c6088;}.ai{fill:#5e7c9d;}.aj{fill:#4f7f50;}</style></defs><g id="a"/><g id="b"><g id="c"><rect class="t" width="870" height="490"/><g><g><path class="m" d="M24.32,411.42h0c-4.77-2.17-5.81,2.34-5.82,5.24l-.8,27.16c-.02,5.25,3.93,6.49,7.14,6.5h0c5.79,1.55,5.81-2.34,5.82-5.24l.06-14.82c.01-2.9-3.33-17.91-6.4-18.84Z"/><path class="m" d="M26.01,24.81h0c-4.77-2.17-5.81,2.34-5.82,5.24l-.8,27.16c-.02,5.25,3.93,6.49,7.14,6.5h0c5.79,1.55,5.81-2.34,5.82-5.24l.06-14.82c.01-2.9-3.33-17.91-6.4-18.84Z"/><path class="m" d="M25.74,87.47h0c-4.77-2.17-5.81,2.34-5.82,5.24l-.8,27.16c-.02,5.25,3.93,6.49,7.14,6.5h0c5.79,1.55,5.81-2.34,5.82-5.24l.06-14.82c.01-2.9-3.33-17.91-6.4-18.84Z"/><path class="m" d="M25.45,153.22h0c-4.77-2.17-5.81,2.34-5.82,5.24l-.8,27.16c-.02,5.25,3.93,6.49,7.14,6.5h0c5.79,1.55,5.81-2.34,5.82-5.24l.06-14.82c.01-2.9-3.33-17.91-6.4-18.84Z"/><path class="m" d="M25.14,223.6h0c-4.77-2.17-5.81,2.34-5.82,5.24l-.8,27.16c-.02,5.25,3.93,6.49,7.14,6.5h0c5.79,1.55,5.81-2.34,5.82-5.24l.06-14.82c.01-2.9-3.33-17.91-6.4-18.84Z"/><path class="m" d="M24.84,291.2h0c-4.77-2.17-5.81,2.34-5.82,5.24l-.8,27.16c-.02,5.25,3.93,6.49,7.14,6.5h0c5.79,1.55,5.81-2.34,5.82-5.24l.06-14.82c.01-2.9-3.33-17.91-6.4-18.84Z"/><path class="m" d="M24.58,351.7h0c-4.77-2.17-5.81,2.34-5.82,5.24l-.8,27.16c-.02,5.25,3.93,6.49,7.14,6.5h0c5.79,1.55,5.81-2.34,5.82-5.24l.06-14.82c.01-2.9-3.33-17.91-6.4-18.84Z"/></g><g><path class="m" d="M766.97,462.36h0c-3.13-4.5,3.3-5.48,7.43-5.5l38.74-.78c7.49-.03,9.28,3.71,9.31,6.73h0c2.25,5.47-3.3,5.48-7.43,5.5l-21.14,.07c-4.13,.01-25.57-3.13-26.92-6.02Z"/><path class="m" d="M215.48,464.27h0c-3.13-4.5,3.3-5.48,7.43-5.5l38.74-.78c7.49-.03,9.28,3.71,9.31,6.73h0c2.25,5.47-3.3,5.48-7.43,5.5l-21.14,.07c-4.13,.01-25.57-3.13-26.92-6.02Z"/><path class="m" d="M304.87,463.96h0c-3.13-4.5,3.3-5.48,7.43-5.5l38.74-.78c7.49-.03,9.28,3.71,9.31,6.73h0c2.25,5.47-3.3,5.48-7.43,5.5l-21.14,.07c-4.13,.01-25.57-3.13-26.92-6.02Z"/><path class="m" d="M398.66,463.63h0c-3.13-4.5,3.3-5.48,7.43-5.5l38.74-.78c7.49-.03,9.28,3.71,9.31,6.73h0c2.25,5.47-3.3,5.48-7.43,5.5l-21.14,.07c-4.13,.01-25.57-3.13-26.92-6.02Z"/><path class="m" d="M499.05,463.28h0c-3.13-4.5,3.3-5.48,7.43-5.5l38.74-.78c7.49-.03,9.28,3.71,9.31,6.73h0c2.25,5.47-3.3,5.48-7.43,5.5l-21.14,.07c-4.13,.01-25.57-3.13-26.92-6.02Z"/><path class="m" d="M595.48,462.95h0c-3.13-4.5,3.3-5.48,7.43-5.5l38.74-.78c7.49-.03,9.28,3.71,9.31,6.73h0c2.25,5.47-3.3,5.48-7.43,5.5l-21.14,.07c-4.13,.01-25.57-3.13-26.92-6.02Z"/><path class="m" d="M681.78,462.65h0c-3.13-4.5,3.3-5.48,7.43-5.5l38.74-.78c7.49-.03,9.28,3.71,9.31,6.73h0c2.25,5.47-3.3,5.48-7.43,5.5l-21.14,.07c-4.13,.01-25.57-3.13-26.92-6.02Z"/><path class="m" d="M42.24,464.32h0c-3.13-4.5,3.3-5.48,7.43-5.5l38.74-.78c7.49-.03,9.28,3.71,9.31,6.73h0c2.25,5.47-3.3,5.48-7.43,5.5l-21.14,.07c-4.13,.01-25.57-3.13-26.92-6.02Z"/><path class="m" d="M131.63,464.01h0c-3.13-4.5,3.3-5.48,7.43-5.5l38.74-.78c7.49-.03,9.28,3.71,9.31,6.73h0c2.25,5.47-3.3,5.48-7.43,5.5l-21.14,.07c-4.13,.01-25.57-3.13-26.92-6.02Z"/></g><g><path class="m" d="M845.68,408.98h0c4.77-2.14,5.81,2.31,5.82,5.16l.8,26.78c.02,5.17-3.93,6.4-7.14,6.4h0c-5.79,1.53-5.81-2.31-5.82-5.16l-.06-14.61c-.01-2.86,3.33-17.66,6.4-18.58Z"/><path class="m" d="M844.01,27.79h0c4.77-2.14,5.81,2.31,5.82,5.16l.8,26.78c.02,5.17-3.93,6.4-7.14,6.4h0c-5.79,1.53-5.81-2.31-5.82-5.16l-.06-14.61c-.01-2.86,3.33-17.66,6.4-18.58Z"/><path class="m" d="M844.28,89.57h0c4.77-2.14,5.81,2.31,5.82,5.16l.8,26.78c.02,5.17-3.93,6.4-7.14,6.4h0c-5.79,1.53-5.81-2.31-5.82-5.16l-.06-14.61c-.01-2.86,3.33-17.66,6.4-18.58Z"/><path class="m" d="M844.56,154.4h0c4.77-2.14,5.81,2.31,5.82,5.16l.8,26.78c.02,5.17-3.93,6.4-7.14,6.4h0c-5.79,1.53-5.81-2.31-5.82-5.16l-.06-14.61c-.01-2.86,3.33-17.66,6.4-18.58Z"/><path class="m" d="M844.87,223.79h0c4.77-2.14,5.81,2.31,5.82,5.16l.8,26.78c.02,5.17-3.93,6.4-7.14,6.4h0c-5.79,1.53-5.81-2.31-5.82-5.16l-.06-14.61c-.01-2.86,3.33-17.66,6.4-18.58Z"/><path class="m" d="M845.16,290.44h0c4.77-2.14,5.81,2.31,5.82,5.16l.8,26.78c.02,5.17-3.93,6.4-7.14,6.4h0c-5.79,1.53-5.81-2.31-5.82-5.16l-.06-14.61c-.01-2.86,3.33-17.66,6.4-18.58Z"/><path class="m" d="M845.42,350.1h0c4.77-2.14,5.81,2.31,5.82,5.16l.8,26.78c.02,5.17-3.93,6.4-7.14,6.4h0c-5.79,1.53-5.81-2.31-5.82-5.16l-.06-14.61c-.01-2.86,3.33-17.66,6.4-18.58Z"/></g><g><path class="m" d="M766.97,19.32h0c-3.13-4.91,3.3-5.98,7.43-5.99l38.74-.82c7.49-.02,9.28,4.05,9.32,7.34h0c2.26,5.96-3.3,5.98-7.43,5.99l-21.14,.07c-4.13,.01-25.57-3.43-26.92-6.59Z"/><path class="m" d="M215.48,21.04h0c-3.13-4.91,3.3-5.98,7.43-5.99l38.74-.82c7.49-.02,9.28,4.05,9.32,7.34h0c2.26,5.96-3.3,5.98-7.43,5.99l-21.14,.07c-4.13,.01-25.57-3.43-26.92-6.59Z"/><path class="m" d="M304.87,20.76h0c-3.13-4.91,3.3-5.98,7.43-5.99l38.74-.82c7.49-.02,9.28,4.05,9.32,7.34h0c2.26,5.96-3.3,5.98-7.43,5.99l-21.14,.07c-4.13,.01-25.57-3.43-26.92-6.59Z"/><path class="m" d="M398.66,20.47h0c-3.13-4.91,3.3-5.98,7.43-5.99l38.74-.82c7.49-.02,9.28,4.05,9.32,7.34h0c2.26,5.96-3.3,5.98-7.43,5.99l-21.14,.07c-4.13,.01-25.57-3.43-26.92-6.59Z"/><path class="m" d="M499.05,20.16h0c-3.13-4.91,3.3-5.98,7.43-5.99l38.74-.82c7.49-.02,9.28,4.05,9.32,7.34h0c2.26,5.96-3.3,5.98-7.43,5.99l-21.14,.07c-4.13,.01-25.57-3.43-26.92-6.59Z"/><path class="m" d="M595.48,19.85h0c-3.13-4.91,3.3-5.98,7.43-5.99l38.74-.82c7.49-.02,9.28,4.05,9.32,7.34h0c2.26,5.96-3.3,5.98-7.43,5.99l-21.14,.07c-4.13,.01-25.57-3.43-26.92-6.59Z"/><path class="m" d="M681.78,19.58h0c-3.13-4.91,3.3-5.98,7.43-5.99l38.74-.82c7.49-.02,9.28,4.05,9.32,7.34h0c2.26,5.96-3.3,5.98-7.43,5.99l-21.14,.07c-4.13,.01-25.57-3.43-26.92-6.59Z"/><path class="m" d="M42.24,20.99h0c-3.13-4.91,3.3-5.98,7.43-5.99l38.74-.82c7.49-.02,9.28,4.05,9.32,7.34h0c2.26,5.96-3.3,5.98-7.43,5.99l-21.14,.07c-4.13,.01-25.57-3.43-26.92-6.59Z"/><path class="m" d="M131.62,20.71h0c-3.13-4.91,3.3-5.98,7.43-5.99l38.74-.82c7.49-.02,9.28,4.05,9.32,7.34h0c2.26,5.96-3.3,5.98-7.43,5.99l-21.14,.07c-4.13,.01-25.57-3.43-26.92-6.59Z"/></g></g><path class="l" d="M15.28,313.92c3.74-3.64,8.21-6.6,13.25-8.63,40.58-16.33,88.75-39.02,146.13-72.57,50.04-29.26,193.72,147.7,108.9,180.27-52.91,20.32-96.74,44.04-134.2,67.14-6.46,3.98-13.89,6.08-21.48,6.08H43.9c-22.65,0-41.01-18.36-41.01-41.01v-101.9c0-11.28,4.62-21.81,12.39-29.39"/><g id="d"><path class="r" d="M105.73,338.5c.04,8.99,.9,15.69-.93,16.28-1,.33-2.07-7.35-1.07-16.27,.93-8.35-.74-16.28,.93-16.28,1.98,0,1.03,7.28,1.07,16.27Z"/><path class="r" d="M104.84,335.66h0c-2.25,0-4.1-1.93-4.11-4.3l-.03-7.84c1.45-1.99,3.97,7.53,3.97,7.53,1.69-1.67,1.96-9.99,4.21-7.12l.03,7.39c.01,2.38-1.82,4.33-4.07,4.34Z"/></g><g id="e"><path class="r" d="M115.75,332.57c0,8.28,.81,14.45-.97,14.99-.97,.3-1.98-6.77-.97-14.99,.94-7.68-.65-14.99,.97-14.99,1.92,0,.97,6.71,.97,14.99Z"/><path class="r" d="M117.79,323.48c0,4.95-1.38,5.89-3.09,5.89-3.33,0-2.99-3.34-3.09-5.89-.12-3,1.38-5.89,3.09-5.89,3.09,0,3.09,2.64,3.09,5.89Z"/></g><g id="f"><g><path class="ae" d="M137.75,287.51v4.01h-3.51c.84-2.03,2.04-3.26,3.51-4.01Z"/><path class="ae" d="M133.86,292.55h3.88v5.33h-4.76c.13-2.15,.43-3.9,.88-5.33Z"/><path class="ae" d="M132.93,298.91h4.81v6.6h-4.62c-.18-1.63-.22-3.3-.22-4.9,0-.59,0-1.15,.03-1.69Z"/><path class="ae" d="M133.27,306.53h4.48v4.48h-3.15c-.67-1.36-1.08-2.89-1.33-4.48Z"/><path class="ae" d="M135.18,312.04h2.57v2.62c-1.08-.72-1.91-1.61-2.57-2.62Z"/><path class="ae" d="M138.78,287.07c1.64-.57,3.55-.72,5.63-.79v5.24h-5.63v-4.45Z"/><rect class="ae" x="138.78" y="292.55" width="5.63" height="5.33"/><rect class="ae" x="138.78" y="298.91" width="5.63" height="6.6"/><rect class="ae" x="138.78" y="306.53" width="5.63" height="4.48"/><path class="ae" d="M138.78,312.04h5.63v4.49c-2.31-.08-4.15-.54-5.63-1.27v-3.21Z"/><path class="ae" d="M148.76,286.14c.89-.05,1.74-.08,2.54-.1v5.49h-5.87v-5.27c1.07-.03,2.19-.05,3.33-.12Z"/><rect class="ae" x="145.43" y="292.55" width="5.87" height="5.33"/><rect class="ae" x="145.43" y="298.91" width="5.87" height="6.6"/><rect class="ae" x="145.43" y="306.53" width="5.87" height="4.48"/><path class="ae" d="M145.43,312.04h5.87v3.89c-.74,.12-1.53,.24-2.36,.35-1.27,.17-2.43,.25-3.51,.26v-4.5Z"/><path class="ae" d="M152.33,286.02c2.36,0,4.29,.14,5.87,.42v5.08h-5.87v-5.5Z"/><rect class="ae" x="152.33" y="292.55" width="5.87" height="5.33"/><rect class="ae" x="152.33" y="298.91" width="5.87" height="6.6"/><rect class="ae" x="152.33" y="306.53" width="5.87" height="4.48"/><path class="ae" d="M152.33,312.04h5.87v2.15c-1.56,.6-3.48,1.12-5.87,1.56v-3.7Z"/><path class="ae" d="M159.23,312.04h2.77c-.72,.63-1.62,1.2-2.77,1.72v-1.72Z"/><path class="ae" d="M159.23,306.53h5.35c-.15,1.68-.57,3.17-1.59,4.48h-3.75v-4.48Z"/><path class="ae" d="M164.67,298.91c-.03,.56-.06,1.13-.06,1.69,0,1.76,.08,3.4,.03,4.9h-5.41v-6.6h5.44Z"/><path class="ae" d="M164.8,291.52h-5.57v-4.87c3.67,.88,5.1,2.63,5.57,4.87Z"/><path class="ae" d="M164.74,297.88h-5.51v-5.33h5.72c.15,1.62-.06,3.43-.21,5.33Z"/><path class="q" d="M159.23,292.55h5.72c-.03-.35-.08-.7-.15-1.03h-5.57v-4.87c-.32-.08-.67-.15-1.03-.21v5.08h-5.87v-5.5c-.33,0-.68,0-1.03,.01v5.49h-5.87v-5.27c-.35,0-.69,.02-1.03,.03v5.24h-5.63v-4.45c-.36,.12-.7,.27-1.03,.44v4.01h-3.51c-.13,.32-.26,.67-.37,1.03h3.88v5.33h-4.76c-.02,.33-.04,.68-.05,1.03h4.81v6.6h-4.62c.04,.34,.08,.69,.14,1.03h4.48v4.48h-3.15c.18,.35,.37,.7,.58,1.03h2.57v2.62c.32,.21,.66,.41,1.03,.59v-3.21h5.63v4.49c.33,.01,.68,.02,1.03,.01v-4.5h5.87v3.89c.35-.06,.7-.12,1.03-.18v-3.7h5.87v2.15c.36-.14,.7-.28,1.03-.43v-1.72h2.77c.38-.33,.7-.67,.98-1.03h-3.75v-4.48h5.35c.03-.34,.05-.68,.07-1.03h-5.41v-6.6h5.44c.02-.34,.04-.69,.07-1.03h-5.51v-5.33Zm-14.83,18.46h-5.63v-4.48h5.63v4.48Zm0-5.51h-5.63v-6.6h5.63v6.6Zm0-7.62h-5.63v-5.33h5.63v5.33Zm6.9,13.13h-5.87v-4.48h5.87v4.48Zm0-5.51h-5.87v-6.6h5.87v6.6Zm0-7.62h-5.87v-5.33h5.87v5.33Zm6.9,13.13h-5.87v-4.48h5.87v4.48Zm0-5.51h-5.87v-6.6h5.87v6.6Zm0-7.62h-5.87v-5.33h5.87v5.33Z"/></g><path class="l" d="M149.46,294.99c-.25,2.77-3.07,6.58-6.71,5.81-4.09-.87-6.46-3.04-6.76-5.81-.33-2.97,3.04-5.48,6.76-5.48s7.09,1.31,6.71,5.48Z"/><path class="r" d="M142.8,299.75c-.66,0-1.29-.14-1.84-.43-1.09-.57-1.99-1.75-2.34-3.08-.27-1.04-.16-2.03,.33-2.77,.8-1.23,2.45-1.59,3.73-1.52,1.41,.08,2.55,.63,2.96,1.44,.47,.94,.02,2.33-.64,3.29-.65,.95-1.45,1.48-2.14,1.41-.97-.09-1.76-1.36-2.1-2.58-.12-.43-.36-1.48,.11-1.84,.43-.33,1.24,.03,2.68,1.2l-.34,.42c-1.68-1.37-1.87-.84-1.87-.84-.06,.05-.29,.12-.03,.98,.3,1,.95,1.41,1.61,1.48,.47,.05,1.12,.21,1.64-.55,.67-.98,.43-2.15,.11-2.78-.31-.62-.82-1.03-2.01-1.1-1.13-.06-2.06,.28-2.74,1.32-.4,.61-1,1.4-.76,2.29,.3,1.16,1.18,1.69,2.13,2.18,1.07,.56,2.45,1.03,3.78,.33,1.39-.73,1.89-2.1,2.05-3.33,.14-1.08,.07-2.5-1.44-3.57-2.14-1.51-6.11-.31-8.81,1.93l.23-1.11c2.89-2.4,6.55-2.92,8.89-1.27,1.22,.86,2.35,2.51,2.13,4.24-.18,1.41-1.25,2.78-2.8,3.59-.83,.43-1.69,.65-2.51,.65Z"/><path class="l" d="M162.71,306.29c-.28,3.08-3.41,7.31-7.44,6.44-4.54-.97-7.17-3.37-7.5-6.44-.36-3.3,3.38-6.08,7.5-6.08s7.87,1.45,7.44,6.08Z"/><path class="r" d="M155.33,311.58c-.74,0-1.43-.16-2.05-.48-1.21-.64-2.21-1.94-2.59-3.41-.3-1.16-.17-2.25,.36-3.07,.89-1.36,2.72-1.77,4.14-1.69,1.57,.09,2.83,.7,3.28,1.6,.52,1.04,.02,2.58-.71,3.65-.72,1.06-1.61,1.64-2.38,1.57-1.08-.1-1.95-1.51-2.34-2.86-.14-.48-.4-1.64,.12-2.04,.48-.37,1.37,.03,2.98,1.34l-.38,.47c-1.86-1.52-2.07-.93-2.08-.93-.07,.06-.32,.13-.03,1.08,.34,1.11,1.06,1.57,1.79,1.64,.53,.05,1.24,.24,1.82-.61,.75-1.09,.47-2.38,.12-3.08-.35-.68-.91-1.15-2.23-1.22-1.25-.07-2.29,.31-3.04,1.46-.44,.68-1.1,1.55-.85,2.54,.34,1.29,1.31,1.87,2.36,2.42,1.19,.62,2.72,1.14,4.2,.37,1.55-.81,2.1-2.33,2.28-3.7,.15-1.2,.08-2.77-1.6-3.96-2.38-1.68-6.78-.35-9.78,2.14l.26-1.23c3.21-2.67,7.27-3.24,9.87-1.41,1.35,.96,2.61,2.78,2.36,4.7-.2,1.56-1.39,3.09-3.11,3.98-.92,.48-1.88,.72-2.79,.72Z"/></g><g id="g"><path class="j" d="M221.09,306.45c1.61,2.21-6.21,14.65-21.05,28.04-14.23,12.84-26.82,23.49-28.04,21.05-1.84-3.66,6.77-15.38,21.05-28.04,14.34-12.72,24.84-25.43,28.04-21.05Z"/><path class="n" d="M180.26,345.25c.42,1.57,1.44,2.27,2.31,2.42s1.21-1.69,.79-3.25-.97-3.64-2.31-2.42c-.65,.6-1.21,1.69-.79,3.25Z"/><path class="n" d="M186.78,339.06c.51,2.02,1.75,2.96,2.83,3.18s1.49-2.12,.98-4.14c-.51-2.02-1.18-4.69-2.83-3.18-.8,.74-1.49,2.12-.98,4.14Z"/><path class="n" d="M193.67,332.44c.52,2.06,1.83,3,2.97,3.22s1.61-2.18,1.09-4.24-1.21-4.78-2.97-3.22c-.86,.77-1.61,2.18-1.09,4.24Z"/><path class="n" d="M200.55,326.05c.47,1.85,1.61,2.7,2.6,2.9s1.38-1.94,.91-3.79c-.47-1.85-1.08-4.29-2.6-2.9-.74,.68-1.38,1.94-.91,3.79Z"/><path class="n" d="M207.17,319.43c.43,1.69,1.58,2.44,2.6,2.6s1.48-1.83,1.05-3.52c-.43-1.69-.99-3.92-2.6-2.6-.79,.65-1.48,1.83-1.05,3.52Z"/></g><g id="h"><path id="i" class="ae" d="M273.09,329.71c2.91,7.45-12.36,22.77-18.08,18.08-7.72-6.33-16.36-10.41-18.08-18.08-2.18-9.74,7.44-14.88,18.08-18.08,9.56-2.88,12.91,4.85,18.08,18.08Z"/><g><path class="n" d="M266.5,322.05c0-1.69-2.38-3.06-11.47-3.06-6.52,0-11.47,1.37-11.47,3.06,0,1.08,2.08,2.02,5.22,2.57-.77,1.43,.1,7.72-.23,9.53-1.03,5.78,2.32,4.51,6.4,4.51s9.01,1.27,8.52-3.66c-.18-1.82-.09-9.23-.85-10.65,3.23-.54,3.88-1.2,3.88-2.29Z"/><path class="v" d="M260.81,325.6c3.24-2.46-.96-2.55-2.28-2.95-.4-.12-.73-.45-.89-.9-.4-1.09-1.15,1.01-1.85,1.01s-1.17-2.12-1.57-1.07c-.22,.58-.71,.95-1.25,.94h-.03c-1.65,0-4.44,4.16-2.98,4.36,.87,.12-.77,1.95,.65,2.71,.32,.17,.41,.87,.17,1.18-2.12,2.72-.01,1.91-.01,2.32,0,2.41,1.24,3.22,2.88,3.22,.89,0,1.68-.57,2.23-1.46,.29-.48,.79-.75,1.3-.66,.12,.02,.24,0,.36,.03,5.93,2.09,.97-3.79,2.98-4.36,2.31-.66-.42-1.92,.44-2.61,1.25-.99-1.81-.67-1.6-1.07,.23-.42,1.09-.42,1.45-.69Z"/></g></g><g><path class="y" d="M80.84,443.67c-.43,1.88-.92,3.42-1.23,4.3-.17,.48-.62,.81-1.14,.81H45.75c-.06-.18-.73-2.21-1.32-5.04-.94-4.52-1.65-11.07,.76-15.27,1.2-2.09,8.69-1.33,11.27-1,.52,.07,1.03-.21,1.25-.69l.49-1.07c.2-.43,.62-.7,1.09-.7h5.66c.97,0,1.84,.56,2.25,1.44l.17,.37c.21,.46,.69,.74,1.2,.69,2.53-.23,10.02-.7,11.3,1.34,2.66,4.23,1.97,10.47,.96,14.83Z"/><path class="aa" d="M80.77,443.95c-.57,2.4-1.22,4.2-1.4,4.69-.03,.08-.11,.14-.2,.14H45.82s-.05,0-.07-.01c-.13-.12-.7-2.11-1.28-4.84-.03-.14,.08-.27,.22-.26h0c20.54,2.09,27.47,.48,35.86,.02,.14,0,.25,.12,.22,.26Z"/><circle class="ac" cx="62.63" cy="438" r="7.78"/><circle class="p" cx="62.63" cy="438" r="6.35"/><g><circle class="p" cx="62.63" cy="438" r="5.49"/><path d="M62.63,443.65c-3.11,0-5.64-2.53-5.64-5.64s2.53-5.64,5.64-5.64,5.64,2.53,5.64,5.64-2.53,5.64-5.64,5.64Zm0-10.98c-2.94,0-5.33,2.39-5.33,5.33s2.39,5.33,5.33,5.33,5.33-2.39,5.33-5.33-2.39-5.33-5.33-5.33Z"/></g><path class="u" d="M76.98,427.85h-3.29c-.41,.12-.54-.24-.54-.54v-.05c0-.3,.12-.54,.54-.54h3.29c.41-.06,.54,.24,.54,.54v.05c0,.3-.12,.66-.54,.54Z"/><path class="u" d="M52.76,427.36h-3.77c-.65,.16-.65-.28-.65-.62h0c0-.34-.09-.65,.62-.62h3.8c.59-.06,.62,.28,.62,.62h0c.03,.68-.28,.62-.62,.62Z"/><path class="u" d="M51.7,426.24h-1.68c-.29,0-.53,.06-.53-.53h0c0-.29-.16-.4,.5-.47l1.71-.06c.47,0,.53,.24,.53,.53h0c0,.59-.24,.53-.53,.53Z"/><g><path class="u" d="M76.07,432.71l-1.35,.06c-.42,0-.75-.34-.75-.75v-1.42c0-.42,.34-.75,.75-.75h1.35c.42,0,.82,.15,.82,.57l-.06,1.54c0,.42-.34,.75-.75,.75Z"/><path d="M76.07,432.71l-1.42,.06c-.42,0-.75-.34-.75-.75v-1.48c0-.42,.34-.75,.75-.75h1.42c.42,0,.82,.15,.82,.57l-.06,1.6c0,.42-.34,.75-.75,.75Zm-1.35,0l1.29-.06c.42,0,.75-.34,.75-.75l.06-1.49c0-.42-.25-.56-.82-.56h-1.29c-.42,0-.75,.34-.75,.75v1.35c0,.42,.34,.75,.75,.75Z"/></g></g><g><path class="aj" d="M213.71,389.29c.82,1.41,7.3,9.66,6.79,10.09s-4.39-3.4-8.65-8.54c-4.26-5.14-5.77-6.81-5.42-7.38,.9-1.44,3.92,.06,7.28,5.84Z"/><path class="aj" d="M215.7,385.41c.28,2.47,3.56,18.21,2.9,18.36s-3.01-7.83-5.26-17.82-3.11-13.33-2.56-13.79c1.39-1.16,3.77,3.16,4.92,13.25Z"/><path class="aj" d="M221.55,384.37c-.53,2.61-2.52,19.71-3.18,19.65s-.32-8.97,.78-19.89,1.37-14.6,2.03-14.88c1.69-.72,2.55,4.46,.38,15.12Z"/><path class="aj" d="M222.75,384.14c-1.05,2.45-6.44,18.8-7.08,18.6s1.5-8.85,4.77-19.32c3.27-10.47,4.28-14.02,4.99-14.17,1.8-.36,1.6,4.89-2.68,14.89Z"/><path class="aj" d="M222.39,391.97c-1.12,1.19-7.21,9.73-7.76,9.36s2.02-5.17,5.76-10.71c3.73-5.54,4.91-7.46,5.55-7.28,1.64,.46,1.05,3.78-3.55,8.63Z"/><path class="aj" d="M218.66,388.76c-.26,1.61-.45,12.1-1.12,12.11s-1.25-5.41-1.3-12.09c-.05-6.68-.16-8.93,.47-9.14,1.61-.55,3,2.53,1.95,9.12Z"/><g><path class="a`" d="M232.41,375.79c0-.08-.06-.2,0-.24,2.82-2.12-.54-5.89-2.43-5.89-1.29,0-3.41,2.33-3.99,3.73-1.49-.73-4.26-3.67-4.9,.34-.29,1.79,.05,3.67,1.45,5.67-1.33,2.39-1.24,5.11,.24,6.21,1.33,.99,3.06,2.47,4.58,.72,1.32,1.85,4.32,2.18,5.41,1.5,.89-.56,2.32-3.56,1.94-5.28,1.99-.09,4.18-1.93,3.76-3.14-1.31-3.79-3.47-2.44-6.06-3.62Z"/><path class="ac" d="M230.87,379.15c0,1.33-.83,2.18-2.05,2.41-1.89,.35-2.36-1.07-2.36-2.41s.59-3.18,2.36-2.42c1.78,.77,2.05,1.09,2.05,2.42Z"/></g><g><path class="n" d="M235.66,365.85c-.58-.57-1.87-.73-1.54-1.31,2.65-4.61,2.65-7.19-3.64-6.82-.88,.05-2.06,1.36-2.8,1.78-.78-1.14-2.11-1.99-3.19-3.01-2.47-2.33-4.33,1.98-4.33,4.42,0,.4,.14,2.09,.24,2.46-1.51,.72-4.39,.71-3.37,3.01,.93,2.09,2.94,2.84,5.11,3.13,.15,2.42-.32,5.16,2.96,6.08,3.9,1.1,3.3-1.59,4.56-3.38,2.26,1.48,3.49,1.17,7,.77,2.43-.28,1.14-5-1.01-7.14Z"/><path class="x" d="M230.76,365.89c-.36,1.75-1.98,2.7-3.46,2.7s-3.94-2.06-3.22-3.62c.63-1.37,2.67-2.21,4.15-2.21s3.04,.64,2.53,3.13Z"/></g><g><path class="w" d="M222.78,370.75c4.39-.35,4.36-3.87,2.58-5.79-.06-.07,.99,1.67,.02-.22-1.55-3.03,4.48-1.77,1.55-6.6-.83-1.37-2.83-2.25-5.07-1.39-.08,.03-.17-.02-.2-.1-.5-1.99-.71-4.46-3.69-2.89-1.39,.73-3.15,2.52-3.69,4.66-.02,.09-.12,.14-.2,.1-2.29-.97-1.74-.45-5.16,1.28-1.47,.74-.91,3.66,2.2,5,.09,.04,.12,.15,.06,.23-1.45,1.78-3.44,6.56-2.18,7.04,4.01,1.54,4.31-.37,7.57-1.5l6.21,.18Z"/><path class="l" d="M220.73,363.26c-.4,1.01-.62,2.68-2.29,2.02-3.1-1.22-2.31-.91-2.31-2.02s1.04-2.02,2.31-2.02,3.09,0,2.29,2.02Z"/></g><g><path class="w" d="M212.64,385.35c3.58-2.2,2.02-5.18-.33-6.03-.08-.03,1.57,.98-.08-.2-2.64-1.9,3.03-3.45-1.55-6.28-1.3-.8-3.38-.68-4.91,1.02-.06,.06-.16,.06-.21,0-1.29-1.47-2.54-3.47-4.39-.85-.86,1.23-1.58,3.5-1.11,5.56,.02,.09-.04,.17-.13,.17-2.36,.17-1.67,.37-3.82,3.33-.92,1.27,.82,3.5,4.04,3.29,.09,0,.17,.08,.15,.17-.46,2.15-.07,7.06,1.21,6.93,4.07-.43,3.5-2.19,5.77-4.57l5.35-2.54Z"/><path class="l" d="M207.64,379.88c.1,1.03,.64,2.55-1.07,2.71-3.16,.31-2.35,.23-2.84-.71s0-2.17,1.08-2.72,2.62-1.34,2.82,.72Z"/></g><g><path class="n" d="M223.12,374.69c-.61-.33-1.71-.15-1.58-.71,1.07-4.42,.45-6.54-4.62-4.73-.71,.25-1.37,1.61-1.87,2.13-.92-.75-2.21-1.13-3.34-1.71-2.59-1.33-3.09,2.66-2.5,4.67,.1,.33,.62,1.68,.79,1.96-1.07,.95-3.44,1.63-2.05,3.28,1.26,1.49,3.1,1.63,4.95,1.35,.71,1.96,.97,4.31,3.89,4.29,3.47-.03,2.33-2.1,2.94-3.87,2.21,.67,3.15,.12,5.93-1.05,1.93-.81-.26-4.38-2.54-5.62Z"/><path class="x" d="M219.09,375.9c.12,1.52-.98,2.7-2.2,3.05s-3.73-.75-3.51-2.21c.19-1.27,1.67-2.46,2.88-2.81s2.65-.2,2.83,1.97Z"/></g><g><path class="a`" d="M212.3,364.69c0-.08-.05-.19,0-.23,2.64-1.98-.5-5.5-2.27-5.5-1.21,0-3.19,2.17-3.73,3.48-1.39-.69-3.97-3.43-4.58,.32-.27,1.67,.05,3.43,1.35,5.3-1.24,2.23-1.16,4.77,.22,5.8,1.24,.93,2.86,2.31,4.28,.68,1.24,1.73,4.04,2.04,5.06,1.4,.83-.53,2.17-3.32,1.81-4.93,1.86-.08,3.9-1.8,3.51-2.93-1.23-3.54-3.24-2.28-5.66-3.38Z"/><path class="ac" d="M210.86,367.83c0,1.24-.78,2.03-1.92,2.25-1.77,.33-2.2-1-2.2-2.25s.55-2.97,2.2-2.26,1.92,1.01,1.92,2.26Z"/></g></g><g><path class="s" d="M191.23,267.91s-4.34-10.89-3.23-11.71,5.77,7.81,5.77,7.81c0,0-1.08-9.11-.4-10.2,2.49-4.01,3.19,7.42,3.19,7.42,0,0,1.81-8.91,2.94-8.41s2.99,10.85,2.99,10.85c0,0,5.58-8.47,6.37-7.47,3.41,4.36-3.73,12.79-3.73,12.79,0,0,6.04-4.19,6.47-2.89,1.75,5.22-8.19,9.78-8.19,9.78,0,0,7.96,3.13,8.38,4.91,1.12,4.69-6.22,1.64-6.22,1.64,0,0,3.03,6.25,1.44,7.42-3.74,2.74-6.02-4.58-6.02-4.58,0,0-1.13,5.67-5.18,4.28-5.14-1.76-.72-6.53-.72-6.53,0,0-4.34,4.43-5.47,3.94s1.15-6.5,1.15-6.5c0,0-4.3-.29-4.99-1.37s6.5-4.39,6.5-4.39c0,0-6.37,1.11-6.66-.23-1.38-6.36,6.29-2.31,6.29-2.31,0,0-10.13-7.72-8.29-10.58,1.97-3.07,7.61,6.33,7.61,6.33Z"/><ellipse class="q" cx="192.32" cy="271.51" rx="4.59" ry="12.87"/><ellipse class="q" cx="203.68" cy="269.87" rx="4.93" ry="13.66"/><path class="ab" d="M194.87,277.86c0,3.18-.49,4.85-2.15,4.85s-2.99-2.58-2.99-5.76,1.34-5.76,2.99-5.76,2.15,3.49,2.15,6.67Z"/><ellipse class="ab" cx="204.13" cy="276.5" rx="2.29" ry="5.96"/><path class="ab" d="M203.33,283.18c0,.47-1.5,2.44-4.33,2.44s-4.88-2.02-4.88-2.49,2.05,1.64,4.88,1.64,4.33-2.06,4.33-1.59Z"/></g><g><g><rect x="145.36" y="379.75" width="35.13" height="2.42" rx="1.05" ry="1.05" transform="translate(-221.66 226.79) rotate(-45)"/><rect x="154.27" y="360.31" width="24.51" height="2.79" rx="1.22" ry="1.22" transform="translate(304.54 -11.81) rotate(45)"/></g><g><rect x="107.96" y="385.32" width="35.13" height="2.42" rx="1.05" ry="1.05" transform="translate(-59.03 748.6) rotate(-135)"/><rect x="109.67" y="365.88" width="24.51" height="2.79" rx="1.22" ry="1.22" transform="translate(467.83 540.76) rotate(135)"/></g><path class="ah" d="M144.25,419.34h0c-5.01,0-9.11-4.1-9.11-9.11,0,0-3.49-19.85,0-35.13,1.11-4.88,4.1-9.11,9.11-9.11h0c5.01,0,9.11,4.1,9.11,9.11,0,0,5.81,26.8,0,35.13-4.29,6.15-4.1,9.11-9.11,9.11Z"/><path class="ai" d="M190.25,428.62c.3-.01,.6-.03,.89-.07-.24,.05-.48,.08-.71,.08-.06,0-.12,0-.19,0Z"/><path class="ai" d="M192.6,407.99c-.62-.17-1.27-.28-1.94-.33,.15-.02,.3-.03,.46-.03,.49,0,.99,.13,1.48,.36Z"/><g><path class="ag" d="M191.93,428.1c-.13,0-.25,0-.38,0,0,0-48.74,1.3-65.65,.56-.53-.02-29.81-.6-30.33-.67,.05,0,.11-.01,.16-.02h0c2.91-.32,6.24-4.84,6.24-10.33,0-4.3-1.72-7.91-3.79-9.59-.56-.45-1.24-.73-1.94-.85-.08-.01-.15-.03-.23-.04,.37-.04,.74-.06,1.12-.06,0,0,70.95-5.58,94.41,0,.26,.06,.53,0,.8,.03,4.55,10.19-9.84,5.77-6.09,10,3.95,4.46,8.22-1.3,5.68,10.96Z"/><path class="ai" d="M198.7,417.7c0,5.49-3.38,9.7-6.24,10.33h0c-.29,.04-.59,.06-.89,.07-6.75,.38-5.68-5.13-5.68-10.96s-8.41-9.62,5.84-10c.16,0,.33,0,.49,.01,.29,.03,.57,.07,.85,.12,.67,.12,1.31,.41,1.84,.84,2.08,1.68,3.79,5.29,3.79,9.59Z"/><path class="ai" d="M101.98,417.64c0,5.49,5.7,8.79-6.24,10.33h0c-.05,0-.11,.01-.16,.02-.55-.08-1.08-.21-1.6-.37-.77-.25-1.47-.69-1.99-1.31-1.64-1.97-2.83-5.4-2.83-9.22s1.55-7.04,3.46-8.7c.46-.4,1-.69,1.58-.86,.3-.09,.61-.16,.92-.23,.58-.11,1.18-.11,1.76,.03h.01c.2,.05,.41,.08,.62,.1,6.03,.4,4.48,5.33,4.48,10.21Z"/></g><path class="ai" d="M94.34,407.69c-.91,.1-1.79,.31-2.62,.63,.61-.39,1.24-.64,1.85-.72,.26,.02,.51,.05,.77,.09Z"/><g><path d="M208.01,417.39h-16.46v-1.49h16.26v1.09c0,.17,.08,.31,.2,.4Z"/><path d="M208.92,413.51v3.48c0,.11-.04,.21-.09,.29-.03,.04-.07,.08-.11,.11h-.71c-.12-.09-.2-.23-.2-.4v-3.48c0-.27,.22-.49,.49-.49h.13c.27,0,.49,.22,.49,.49Z"/></g><g><path d="M79.57,418.41h16.46v-1.49h-16.26v1.09c0,.17-.08,.31-.2,.4Z"/><path d="M78.66,414.54v3.48c0,.11,.04,.21,.09,.29,.03,.04,.07,.08,.11,.11h.71c.12-.09,.2-.23,.2-.4v-3.48c0-.27-.22-.49-.49-.49h-.13c-.27,0-.49,.22-.49,.49Z"/></g><g><circle class="ah" cx="143.6" cy="365.16" r="17.75"/><path class="ai" d="M144.15,383.47c-10.4,0-18.86-8.46-18.86-18.86s8.6-17.2,18.86-18.86c13.52-2.2,18.86,8.46,18.86,18.86s-8.46,18.86-18.86,18.86Zm0-35.5c-9.17,0-15.06,7.6-16.63,16.63-2,11.46,7.46,16.63,16.63,16.63s16.63-7.46,16.63-16.63-7.46-16.63-16.63-16.63Z"/></g><path class="q" d="M144.23,379.22c-.26,0-.51,0-.75-.03-4.79-.33-9.32-2.53-12.11-5.88-1.98-2.38-2.86-5.08-2.55-7.81v.12c-.29,2.58,1.1,5.07,2.98,7.33,2.69,3.23,7.07,5.36,11.72,5.68,3.29,.23,8.3-1.13,11.53-4.64,2.17-2.36,3.43-5.78,2.95-8.92l.18,.42c.51,3.32-.43,6.39-2.72,8.88-3.12,3.39-7.83,4.85-11.23,4.85Z"/><path class="q" d="M144.02,375.91c-.21,0-.41,0-.61-.02-3.86-.25-7.51-1.87-9.75-4.35-1.59-1.76-2.31-3.76-2.06-5.78v.09c-.24,1.91,.89,3.75,2.4,5.42,2.17,2.39,5.7,3.96,9.44,4.2,2.65,.17,6.68-.83,9.29-3.44,1.75-1.75,2.76-4.27,2.37-6.6l.15,.31c.41,2.46-.35,4.73-2.19,6.57-2.51,2.51-6.31,3.59-9.04,3.59Z"/><circle class="q" cx="136.53" cy="360.15" r="2.51"/><circle class="q" cx="140.06" cy="368.32" r="2.51"/><circle class="q" cx="143.6" cy="355.13" r="2.51"/><circle class="q" cx="150.66" cy="359.59" r="2.51"/><circle class="q" cx="148.61" cy="368.14" r="2.51"/><circle cx="135.51" cy="359.68" r=".93"/><circle cx="140.9" cy="369.16" r=".93"/><circle cx="148.15" cy="369.16" r=".93"/><circle cx="151.49" cy="359.31" r=".93"/><circle cx="143.5" cy="354.29" r=".93"/></g><g><g><rect class="af" x="64.24" y="316.46" width="3.73" height="70.51" rx="1.63" ry="1.63"/><rect class="af" x="56.78" y="382.52" width="11.18" height="4.45" rx="1.94" ry="1.94"/></g><g><rect class="af" x="86.02" y="307.17" width="3.73" height="70.51" rx="1.63" ry="1.63" transform="translate(324.68 604.92) rotate(152.34)"/><rect class="af" x="100.93" y="367.72" width="11.18" height="4.45" rx="1.94" ry="1.94" transform="translate(372.6 648.17) rotate(152.34)"/></g><g><path class="af" d="M42.41,313.79h.47c.94,0,1.7,.76,1.7,1.7v60.73c0,.86-.7,1.56-1.56,1.56h-.62c-.86,0-1.56-.7-1.56-1.56v-60.87c0-.86,.7-1.56,1.56-1.56Z" transform="translate(159.9 17.67) rotate(26.7)"/><rect class="af" x="20.33" y="368.86" width="11.18" height="4.04" rx="1.76" ry="1.76" transform="translate(169.39 27.89) rotate(26.7)"/></g><path class="o" d="M90.64,266.14c-7.92,30.62-11.15,55.74-25.16,55.29-17.69-.58-27.93-24.19-25.78-54.04,2.18-30.22-4.28-55.63,25.78-56.84,32.56-1.3,33.23,24.38,25.16,55.6Z"/><ellipse class="q" cx="64.55" cy="261.17" rx="12.42" ry="17.7"/><ellipse class="ac" cx="64.55" cy="270.01" rx="4.04" ry="6.06"/><path class="ae" d="M76.57,281.81c0,2.99-.55,3.07-1.31,3.07s-1.45-.08-1.45-3.07,.75-7.27,1.52-7.27,1.24,4.28,1.24,7.27Z"/><path class="q" d="M71.53,304.7s-.07,0-.11,0c-.17-.01-.32-.13-.36-.31-.46-2.14-1.18-3.88-2.13-5.19-.44-.61-.93-1.12-1.47-1.53-1.08-.83-2.35-1.26-3.77-1.27-1.16,0-2.31,.26-3.38,.72-.7,.3-1.37,.67-1.98,1.11-1.8,1.28-3.13,3.04-3.49,4.66-.05,.21-.26,.34-.47,.3-.21-.05-.35-.26-.3-.47,.38-1.7,1.64-3.48,3.47-4.86,.21-.16,.42-.31,.64-.46,.68-.45,1.4-.82,2.12-1.1,1.13-.44,2.28-.68,3.38-.67,1.01,0,2.46,.2,3.86,1.01,.68,.4,1.35,.94,1.96,1.67,1.06,1.29,1.93,3.17,2.31,5.92,.03,.21-.09,.42-.3,.47Z"/><path class="q" d="M60.31,296.31c-.73,.28-1.44,.65-2.12,1.1l.04-5.31c0-.53,.58-3.08,1.16-3.08,.58,0,.96,2.43,.96,2.96l-.04,4.34Z"/><path class="q" d="M70.2,291.02l-.68,7.23s0,.05,0,.07c-.61-.73-1.28-1.28-1.96-1.67l.53-5.71c.06-.66,.91-3.79,1.49-3.73,.58,.06,.7,3.15,.64,3.81Z"/></g><g><g><path class="j" d="M272.83,80.67c-1.22,.11-2.65,.11-4.13,.11s-3.02,0-4.29-.11c-.58-.05-1.38-.32-1.48-1.53-.42-4.34-.64-9.42-.64-14.71,0-8.62,.53-17.94,1.59-25.66,.16-1.11,.74-1.27,1.43-1.38,1.22-.05,2.38-.11,3.6-.11s2.43,.05,3.54,.11c.74,.05,1.22,.37,1.22,1.11,0,.9-.95,10.16-.95,19.89,0,10.26,1.11,19.68,1.11,21.22,0,.69-.42,1.01-1.01,1.06Z"/><path class="j" d="M299.71,81.36c-9.52,0-12.7-7.3-12.7-16.19,0-13.07,6.67-18.41,14.6-18.41,5.34,0,9.52,2.86,9.52,8.78,0,9.05-7.57,10.11-12.22,12.17-1.64,.58-2.33,1.06-2.33,1.96,0,1.53,1.11,2.75,3.65,2.75,3.65,0,6.98-1.59,9.05-4.29,.32-.26,.53-.42,.79-.42,.74,0,1.32,1.38,1.32,3.86,0,6.14-5.45,9.79-11.69,9.79Zm.74-27.25c-2.91,0-4.92,3.17-4.92,6.83,0,.53,.16,.95,.64,.95,.32,0,.69-.11,1.01-.26,2.12-1.27,5.71-2.59,5.71-5.13,0-1.38-.9-2.38-2.43-2.38Z"/><path class="j" d="M333.41,80.67c-.74,.05-1.75,.11-2.75,.11-1.06,0-2.28,0-3.55-.11-.9-.05-1.43-.37-1.53-1.85-.37-4.44-.69-9.47-.69-15.45,0-4.07,.16-8.62,.58-13.7,.11-1.64,1.06-2.12,2.38-2.28,.9-.11,1.96-.11,3.12-.11s2.38,0,2.96,.11c.74,.11,1.01,.37,1.01,.95,0,.42-.21,1.01-.21,1.53,0,.32,.21,.53,.58,.53,1.38,0,3.44-3.49,7.14-3.49,3.44,0,4.6,2.59,5.93,2.59,1.53,0,3.76-2.59,7.78-2.59,6.24,0,8.78,5.87,8.78,17.09,0,8.36-.58,13.49-1.11,15.24-.26,1.06-1.16,1.38-1.9,1.43s-1.8,.11-2.91,.11-2.38-.05-3.6-.11c-1.22-.05-1.59-.69-1.59-1.53,0-1.53,1.01-6.67,1.01-15.5,0-5.56-.58-7.83-2.59-7.83-1.69,0-3.12,1.43-3.12,4.76,0,2.91,.11,5.03,.11,7.78,0,4.44-.32,8.2-.64,10.58-.16,1.11-.63,1.59-1.43,1.64-.95,.11-2.22,.16-3.49,.16-1.06,0-2.22-.05-3.23-.11-1.01-.11-1.22-.53-1.22-1.27,0-.79,.53-10.11,.53-16.77,0-4.71-.42-6.67-2.43-6.67-2.22,0-3.33,2.17-3.33,7.25,0,9.37,.69,15.08,.69,16.19,0,.85-.48,1.22-1.27,1.32Z"/><path class="j" d="M443.25,60.41c0,8.04-.79,16.51-1.11,18.73-.16,1.01-.69,1.48-1.48,1.53-.85,.11-2.01,.11-3.23,.11-1.32,0-2.59-.05-3.7-.11-.85-.11-1.16-.48-1.16-1.11,0-2.43,.79-11.27,.79-18.2,0-3.76-.63-5.56-2.59-5.56-.95,0-1.8,.32-2.43,.95-.9,.85-1.27,2.33-1.27,6.19,0,7.94,.74,14.76,.74,16.35,0,.95-.42,1.32-1.38,1.38s-1.96,.11-2.96,.11c-1.32,0-2.59-.05-3.55-.11-.9-.05-1.48-.32-1.59-1.69-.37-4.07-.63-9.26-.63-15.24,0-4.29,.11-8.99,.48-13.97,.11-1.69,1.11-2.12,2.49-2.28,.95-.05,2.06-.11,3.12-.11,.9,0,1.8,.05,2.43,.11,.95,.05,1.32,.48,1.32,1.22s.26,1.01,.74,1.01c1.59,0,3.6-2.8,7.57-2.8,5.03,0,7.41,3.65,7.41,13.49Z"/><path class="j" d="M467.17,73.37c1.85,0,2.65-.74,2.65-2.06s-.95-2.22-3.86-3.6c-5.08-2.43-9.21-4.6-9.21-10.79s4.76-10.21,12.28-10.21c3.39,0,6.88,.85,8.68,1.9,.79,.48,1.01,.95,1.01,1.75,0,1.96-.95,5.19-1.8,6.93-.21,.48-.53,.64-.85,.64-.26,0-.53-.11-.74-.32-1.96-1.64-5.03-3.33-7.51-3.33-1.69,0-2.54,.79-2.54,1.9,0,1.38,.95,2.01,3.97,3.39,4.71,2.12,9.95,4.6,9.95,11.16,0,7.09-4.55,10.64-11.48,10.64s-11.48-3.39-11.48-8.84c0-2.17,.53-3.81,1.01-4.55,.21-.32,.48-.53,.79-.53,.26,0,.53,.11,.69,.42,1.53,2.65,4.76,5.5,8.47,5.5Z"/><path class="j" d="M504.15,39.72c.48,0,.74,.32,.74,.69,0,.79-1.75,3.97-1.75,6.51,0,.48,.26,.74,.85,.74,.69,0,1.8-.21,2.54-.21,.48,0,.74,.32,.85,.95,.16,.9,.26,2.22,.26,3.6s-.11,2.86-.37,4.18c-.11,.48-.42,.63-.79,.63-.69,0-1.59-.26-2.54-.26-.79,0-1.01,.48-1.11,1.85-.11,.9-.16,2.06-.16,3.28,0,5.5,1.27,11.96,2.54,16.51,.05,.26,.11,.42,.11,.58,0,.42-.21,.69-.58,.95-2.01,1.32-6.61,2.12-8.84,2.12-.64,0-1.01-.21-1.22-.74-1.16-2.91-1.64-7.3-1.64-12.01,0-5.29,.58-9.58,.63-11.22,.05-.58-.16-.79-.63-.9-.26-.05-.53-.11-.69-.11-.53-.11-.85-.42-.85-1.11,0-2.22,.11-4.5,.42-7.14,.16-.79,.48-1.11,.95-1.11h.79c.69,0,.79-.85,.95-2.7,.21-2.22,.32-2.59,1.32-3.17,2.54-1.48,7.2-1.9,8.2-1.9Z"/><path class="j" d="M532.09,81.36c-9.52,0-12.7-7.3-12.7-16.19,0-13.07,6.67-18.41,14.6-18.41,5.34,0,9.52,2.86,9.52,8.78,0,9.05-7.57,10.11-12.22,12.17-1.64,.58-2.33,1.06-2.33,1.96,0,1.53,1.11,2.75,3.65,2.75,3.65,0,6.98-1.59,9.05-4.29,.32-.26,.53-.42,.79-.42,.74,0,1.32,1.38,1.32,3.86,0,6.14-5.45,9.79-11.69,9.79Zm.74-27.25c-2.91,0-4.92,3.17-4.92,6.83,0,.53,.16,.95,.63,.95,.32,0,.69-.11,1.01-.26,2.12-1.27,5.71-2.59,5.71-5.13,0-1.38-.9-2.38-2.43-2.38Z"/><path class="j" d="M567.64,80.62c-1.01,.05-2.22,.11-3.6,.11s-2.8,0-4.29-.11c-.74-.05-1.27-.53-1.48-1.43-.63-2.7-1.06-8.31-1.06-15.13,0-9.21,.42-13.39,.9-15.13,.21-.85,.58-1.16,1.01-1.32,.64-.16,2.38-.32,4.02-.32,.9,0,1.75,0,2.38,.16,.58,.11,.74,.48,.79,1.11s.32,.85,.58,.85,.53-.16,.9-.42c1.06-.95,2.17-1.85,3.33-1.85,.95,0,1.59,1.22,1.59,5.4,0,1.96-.11,3.81-.42,4.76-.26,.9-.69,1.11-1.16,1.11-.64,0-1.48-.48-2.49-.48s-1.85,1.01-1.85,5.13c0,6.67,2.22,15.24,2.22,16.3,0,.69-.32,1.16-1.38,1.27Z"/><path class="j" d="M595.69,73.37c1.85,0,2.65-.74,2.65-2.06s-.95-2.22-3.86-3.6c-5.08-2.43-9.21-4.6-9.21-10.79s4.76-10.21,12.28-10.21c3.39,0,6.88,.85,8.68,1.9,.79,.48,1.01,.95,1.01,1.75,0,1.96-.95,5.19-1.8,6.93-.21,.48-.53,.64-.85,.64-.26,0-.53-.11-.74-.32-1.96-1.64-5.03-3.33-7.51-3.33-1.69,0-2.54,.79-2.54,1.9,0,1.38,.95,2.01,3.97,3.39,4.71,2.12,9.95,4.6,9.95,11.16,0,7.09-4.55,10.64-11.48,10.64s-11.48-3.39-11.48-8.84c0-2.17,.53-3.81,1.01-4.55,.21-.32,.48-.53,.79-.53,.26,0,.53,.11,.69,.42,1.53,2.65,4.76,5.5,8.47,5.5Z"/></g><path class="k" d="M404.42,71.51c-20.19,19.96-20.06,24.47-25.8,12.02-3.18-6.89-11.81-16.62-4.55-29.18,7.25-12.56,31.37-29.97,32.92-13.07,.8,8.75,7.75,20.04-2.57,30.23Z"/><path class="ad" d="M386.35,32.85c-6.7-2.21-20.38-11.59-12.93,.04,.74,1.16,6.22,8.42,12.92,10.64,6.7,2.21,10.9-1.32,11.33-2.63s-4.62-5.83-11.32-8.05Z"/><path class="ad" d="M410.92,24.66c1.98-6.42,8.79-13.5-4.66-6.49-1.09,.57-7.24,5.89-8.94,11.94-1.69,6.05,1.63,9.65,2.81,9.98s9.45-11.08,10.79-15.43Z"/></g></g></g></svg>