<svg xmlns="http://www.w3.org/2000/svg" width="200" height="600" viewBox="0 0 200 600"><defs><style>.cls-1{fill:#293f02;}.cls-2{fill:#ea968c;}.cls-3{fill:#fff;}</style></defs><g id="monsters"><rect class="cls-1" x="89.29" y="361.98" width="12" height="227" rx="4.58"/><rect class="cls-1" x="65.29" y="574.65" width="36" height="14.33" rx="3.58"/><rect class="cls-1" x="115.05" y="354.49" width="12" height="227" rx="4.58" transform="translate(242.09 935.98) rotate(-180)"/><rect class="cls-1" x="115.05" y="567.17" width="36" height="14.33" rx="3.58" transform="translate(266.09 1148.66) rotate(-180)"/><rect class="cls-1" x="68.29" y="364.98" width="12" height="206" rx="4.58"/><rect class="cls-1" x="44.29" y="557.98" width="36" height="13" rx="3.58"/><path class="cls-2" d="M174.29,200c-25.51,98.59-35.91,179.47-81,178-57-1.87-89.94-77.88-83-174,7-97.29-13.77-179.13,83-183C198.1,16.78,200.28,99.47,174.29,200Z"/><ellipse class="cls-3" cx="90.29" cy="183.98" rx="40" ry="57"/><ellipse cx="90.29" cy="203.48" rx="13" ry="19.5"/><path class="cls-3" d="M120.64,326.61a1.79,1.79,0,0,1-.4,0,1.49,1.49,0,0,1-1.37-1.18c-1.75-8.2-4.52-14.86-8.18-19.86a27.42,27.42,0,0,0-5.64-5.86,23.22,23.22,0,0,0-14.43-4.86,32.85,32.85,0,0,0-12.94,2.75,39.5,39.5,0,0,0-7.57,4.24c-6.9,4.89-12,11.63-13.35,17.84A1.52,1.52,0,0,1,55,320.84a1.51,1.51,0,0,1-1.15-1.79c1.45-6.53,6.29-13.32,13.28-18.63.81-.62,1.63-1.2,2.47-1.75a43.39,43.39,0,0,1,8.13-4.22,35.37,35.37,0,0,1,12.93-2.58,30.13,30.13,0,0,1,14.8,3.88,28.1,28.1,0,0,1,7.51,6.41c4.08,4.93,7.41,12.15,8.86,22.66A1.56,1.56,0,0,1,120.64,326.61Z"/><path class="cls-3" d="M77.7,294.45a43.39,43.39,0,0,0-8.13,4.22l.16-20.35c0-2,2.23-11.78,4.46-11.79s3.68,9.3,3.68,11.31Z"/><path class="cls-3" d="M115.57,274.19,113,301.88a2.7,2.7,0,0,1,0,.28,28.1,28.1,0,0,0-7.51-6.41l2-21.86c.23-2.52,3.47-14.52,5.69-14.3S115.8,271.67,115.57,274.19Z"/></g></svg>