<?xml version="1.0" encoding="UTF-8"?><svg xmlns="http://www.w3.org/2000/svg" width="100" height="95.76" viewBox="0 0 100 95.76"><defs><style>.k{fill:#f4be58;}.l{fill:#e7a947;}.m{fill:#638dbb;}.n{fill:#709dcc;}</style></defs><g id="a"/><g id="b"/><g id="c"/><g id="d"/><g id="e"/><g id="f"/><g id="g"/><g id="h"/><g id="i"/><g id="j"><path class="l" d="M97.64,51.41c-3.63,24.71-24.81,45.41-49.41,41.05C17.76,87.05,3.5,71.77,8.17,47.23,13.09,21.42,23.26,8.4,47.99,7.41c24.58-.98,53.34,18.93,49.65,44Z"/><path class="k" d="M95.39,46.59c-3.76,25.54-25.67,46.93-51.11,42.42C12.76,83.42-1.99,67.62,2.84,42.27,7.93,15.6,18.45,2.14,44.03,1.12,69.46,.11,99.21,20.68,95.39,46.59Z"/><path class="m" d="M58.05,51.81c.77-5.63,1.74-19.83-1.98-25.08-.39-.55-1.34-1.12-2.27-1.12,0,0-.01,0-.02,0-9.74-1.15-11.74,3.11-16.96,10.03-.7,.93-2.52,1.29-4.09,1.18-.09,0-.19-.03-.28-.03-12.73,.81-19.96,3.51-18.4,11.58,2.03,10.43,6.03,10.93,19.38,12.14,.1,0,.2-.02,.3-.03,1.51-.1,3.55,.14,3.97,1.09,2.23,4.99,15.51,15.1,19.12,8.43"/><path class="n" d="M56.38,49.08c.77-5.63,1.74-19.83-1.98-25.08-.39-.55-1.34-1.12-2.27-1.12,0,0-.01,0-.02,0-9.74-1.15-11.74,3.11-16.96,10.03-.7,.93-2.52,1.29-4.09,1.18-.09,0-.19-.03-.28-.03-12.73,.81-19.96,3.51-18.4,11.58,2.03,10.43,6.03,10.93,19.38,12.14,.1,0,.2-.02,.3-.03,1.51-.1,3.55,.14,3.97,1.09,2.23,4.99,15.51,15.1,19.12,8.43"/><g><path class="m" d="M74.23,33.79c-3.65,3.27-7.09,5.12-7.96,4.43-1.92-1.53,1.61-4.16,5.26-7.43s6.97-4.94,7.96-4.43c3.06,1.6-1.61,4.16-5.26,7.43Z"/><path class="m" d="M76.09,46.93c-4.77,1.15-8.67,1.14-9.11,.12-.96-2.26,3.39-2.89,8.16-4.04,4.77-1.15,8.48-1.04,9.11-.12,1.93,2.86-3.39,2.89-8.16,4.04Z"/><path class="m" d="M73.21,60.73c-4.69-1.45-8.04-3.45-7.89-4.55,.33-2.43,4.39-.75,9.08,.7,4.69,1.45,7.82,3.44,7.89,4.55,.2,3.44-4.39,.75-9.08-.7Z"/></g><g><path class="n" d="M73.38,32.02c-3.68,3.24-7.14,5.06-8,4.35-1.9-1.55,1.65-4.14,5.33-7.38,3.68-3.24,7.02-4.88,8-4.35,3.04,1.62-1.65,4.14-5.33,7.38Z"/><path class="n" d="M75.47,44.95c-4.78,1.1-8.68,1.06-9.11,.03-.94-2.27,3.42-2.86,8.2-3.96s8.49-.96,9.11-.03c1.91,2.87-3.42,2.86-8.2,3.96Z"/><path class="n" d="M73.07,58.45c-4.67-1.49-8-3.52-7.84-4.63,.35-2.43,4.4-.71,9.07,.78s7.79,3.51,7.84,4.63c.17,3.44-4.4,.71-9.07-.78Z"/></g></g></svg>