<?xml version="1.0" encoding="UTF-8"?><svg xmlns="http://www.w3.org/2000/svg" width="100" height="95.76" viewBox="0 0 100 95.76"><defs><style>.k{fill:#f4be58;}.l{fill:#e7a947;}.m{fill:#638dbb;}.n{fill:#709dcc;}</style></defs><g id="a"/><g id="b"/><g id="c"/><g id="d"/><g id="e"/><g id="f"/><g id="g"/><g id="h"/><g id="i"/><g id="j"><path class="l" d="M97.64,51.41c-3.63,24.71-24.81,45.41-49.41,41.05C17.76,87.05,3.5,71.77,8.17,47.23,13.09,21.42,23.26,8.4,47.99,7.41c24.58-.98,53.34,18.93,49.65,44Z"/><path class="k" d="M95.39,46.59c-3.76,25.54-25.67,46.93-51.11,42.42C12.76,83.42-1.99,67.62,2.84,42.27,7.93,15.6,18.45,2.14,44.03,1.12,69.46,.11,99.21,20.68,95.39,46.59Z"/><path class="m" d="M58.05,51.81c.77-5.63,1.74-19.83-1.98-25.08-.39-.55-1.34-1.12-2.27-1.12,0,0-.01,0-.02,0-9.74-1.15-11.74,3.11-16.96,10.03-.7,.93-2.52,1.29-4.09,1.18-.09,0-.19-.03-.28-.03-12.73,.81-19.96,3.51-18.4,11.58,2.03,10.43,6.03,10.93,19.38,12.14,.1,0,.2-.02,.3-.03,1.51-.1,3.55,.14,3.97,1.09,2.23,4.99,15.51,15.1,19.12,8.43"/><path class="n" d="M56.38,49.08c.77-5.63,1.74-19.83-1.98-25.08-.39-.55-1.34-1.12-2.27-1.12,0,0-.01,0-.02,0-9.74-1.15-11.74,3.11-16.96,10.03-.7,.93-2.52,1.29-4.09,1.18-.09,0-.19-.03-.28-.03-12.73,.81-19.96,3.51-18.4,11.58,2.03,10.43,6.03,10.93,19.38,12.14,.1,0,.2-.02,.3-.03,1.51-.1,3.55,.14,3.97,1.09,2.23,4.99,15.51,15.1,19.12,8.43"/><path class="m" d="M77.94,49.06c-.1,.13-.19,.26-.29,.39-.51,.68-1.04,1.38-1.59,2.09-.51,.67-1.02,1.31-1.53,1.93-.1,.12-.2,.24-.3,.36-4.11,4.96-7.94,8.16-8.98,7.36-.08-.06-.16-.13-.22-.21-1.52-1.71,1.58-6.04,5.69-11.44,.1-.13,.2-.26,.3-.39,.23-.3,.47-.61,.71-.93,.81-1.06,1.62-2.06,2.42-3,.79,.93,1.61,1.91,2.46,2.93,.23,.28,.46,.56,.69,.84,.1-.13,.19-.26,.29-.38-.13-.16-.27-.33-.4-.49-.94-1.13-1.85-2.23-2.72-3.24,3.49-4.04,6.63-6.64,7.84-6.41,.1,.02,.18,.06,.25,.11,1.87,1.43-.76,5.41-4.59,10.49Z"/><path class="m" d="M84.17,60.81c-.34,.28-.73,.39-1.17,.35-1.98-.19-4.95-3.47-8.48-7.68-.12-.15-.25-.29-.37-.44-.39-.47-.78-.94-1.18-1.42-.69-.83-1.35-1.65-1.96-2.46-.12-.16-.24-.31-.35-.47-3.62-4.84-5.66-8.95-4.7-9.76,.19-.16,.39-.26,.6-.31,1.7-.43,4.32,2.14,7.5,5.83,.12,.14,.25,.29,.37,.43-.1,.11-.2,.23-.3,.35,.79,.93,1.61,1.91,2.46,2.93,.23,.28,.46,.56,.69,.84,.1-.13,.19-.26,.29-.38,.13,.15,.25,.3,.37,.45,4.57,5.68,7.33,10.83,6.23,11.74Z"/><path class="n" d="M74.44,43.88c-.1,.11-.2,.23-.3,.35,.79,.93,1.61,1.91,2.46,2.93,.23,.28,.46,.56,.69,.84-.55,.72-1.12,1.47-1.7,2.23-.48,.62-.95,1.23-1.43,1.81-.1,.12-.2,.24-.29,.36-3.88,4.69-7.52,7.84-8.84,7.59-.09-.02-.18-.05-.25-.11-2.03-1.55,1.24-6.1,5.58-11.8,.1-.13,.2-.26,.3-.39,.19-.26,.39-.51,.59-.77,.85-1.11,1.69-2.15,2.52-3.12,.1-.12,.2-.24,.3-.35,3.73-4.29,7.03-6.92,7.99-6.19,.08,.06,.16,.13,.22,.21,1.4,1.57-1.11,5.35-4.71,10.15-.13-.16-.27-.33-.4-.49-.94-1.13-1.85-2.23-2.72-3.24Z"/><path class="l" d="M77.57,48.61c-.1,.13-.19,.25-.29,.38-.22-.28-.45-.56-.69-.84-.85-1.02-1.67-2.01-2.46-2.93,.1-.12,.2-.23,.3-.35,.87,1.02,1.78,2.11,2.72,3.24,.14,.16,.27,.33,.4,.49Z"/><path class="n" d="M83.61,58.84c-.19,.16-.39,.26-.61,.31-1.92,.48-5.01-2.86-8.77-7.32-.12-.15-.25-.29-.37-.44-.48-.57-.96-1.15-1.46-1.74-.59-.71-1.15-1.41-1.69-2.11-.12-.16-.24-.31-.36-.46-3.78-4.99-5.96-9.29-4.96-10.11,.34-.28,.73-.39,1.17-.35,1.74,.17,4.24,2.71,7.2,6.18,.12,.14,.24,.29,.37,.43,.79,.93,1.61,1.91,2.46,2.93,.23,.28,.46,.56,.69,.84,.12,.15,.24,.3,.36,.46,4.41,5.54,7.04,10.5,5.96,11.39Z"/></g></svg>