<?xml version="1.0" encoding="UTF-8"?><svg xmlns="http://www.w3.org/2000/svg" width="550" height="100" viewBox="0 0 550 100"><defs><style>.k{fill:#f4be58;}.l{fill:#e7a947;}</style></defs><g id="a"/><g id="b"/><g id="c"/><g id="d"/><g id="e"/><g id="f"/><g id="g"/><g id="h"><g id="i"><path class="k" d="M248.11,45.64c-.65,1.21-1.23,2.41-1.72,3.59-29.91,6.55-48.52,15.74-48.52,25.92,0,2.48,1.11,4.9,3.21,7.24C88.54,75.56,3.22,66.09,8.65,50.54,17.85,24.22,114.59,8.62,246.17,13.56c-9.81,4.72-15.3,10-15.3,15.59,0,5.94,6.22,11.55,17.24,16.49Z"/><path class="l" d="M108.46,40.22c-6.17,10.15-4.51,18.95-.62,24.16,4.07,5.45,15.57-2.44,21.74-12.59,6.17-10.15,14.35-23.58,.62-24.16-6.73-.29-15.57,2.44-21.74,12.59Z"/><path class="l" d="M176.81,41.86c-8.12,12.92-6.48,24.07-1.89,30.65,4.79,6.88,19.4-3.22,27.52-16.14,8.12-12.92,18.88-30.01,1.89-30.65-8.32-.31-19.4,3.22-27.52,16.14Z"/></g></g><g id="j"/></svg>