<?xml version="1.0" encoding="UTF-8"?><svg xmlns="http://www.w3.org/2000/svg" width="550" height="100" viewBox="0 0 550 100"><defs><style>.k{fill:#f4be58;}.l{fill:#e7a947;}</style></defs><g id="a"/><g id="b"/><g id="c"/><g id="d"/><g id="e"/><g id="f"/><g id="g"/><g id="h"><g id="i"><path class="k" d="M536.85,50.53c-3.19,19.5-112.22,43.12-264.1,35.72C127.08,79.17,2.1,69.26,8.64,50.53,18.45,22.47,127.78,6.59,272.75,14.81c145.6,8.25,270.45-3.01,264.1,35.72Z"/><path class="l" d="M108.46,40.22c-6.17,10.15-4.51,18.95-.62,24.16,4.07,5.45,15.57-2.44,21.74-12.59,6.17-10.15,14.35-23.58,.62-24.16-6.73-.29-15.57,2.44-21.74,12.59Z"/><path class="l" d="M176.81,41.86c-8.12,12.92-6.48,24.07-1.89,30.65,4.79,6.88,19.4-3.22,27.52-16.14,8.12-12.92,18.88-30.01,1.89-30.65-8.32-.31-19.4,3.22-27.52,16.14Z"/><path class="l" d="M249.5,43.28c-8.28,13.17-6.29,24.7-1.31,31.59,5.21,7.19,20.39-2.93,28.67-16.1,8.28-13.17,19.25-30.59,1.31-31.59-8.79-.49-20.39,2.93-28.67,16.1Z"/><path class="l" d="M320.91,45.78c-7.43,11.81-5.87,22.04-1.62,28.08,4.44,6.32,17.85-2.88,25.27-14.69,7.43-11.81,17.26-27.44,1.62-28.08-7.66-.31-17.85,2.88-25.27,14.69Z"/><path class="l" d="M392.14,45.74c-6.79,10.8-4.62,20.56,.02,26.52s17.81-1.78,24.6-12.58c6.79-10.8,15.78-25.08-.02-26.52-7.74-.7-17.81,1.78-24.6,12.58Z"/></g></g><g id="j"/></svg>