<?xml version="1.0" encoding="UTF-8"?><svg xmlns="http://www.w3.org/2000/svg" width="550" height="100" viewBox="0 0 550 100"><defs><style>.k{fill:#f4be58;}.l{fill:#e7a947;}</style></defs><g id="a"/><g id="b"/><g id="c"/><g id="d"/><g id="e"/><g id="f"/><g id="g"/><g id="h"><g id="i"><path class="k" d="M137.1,77.92C57.93,71.5,4.3,62.96,8.64,50.53,15.61,30.58,72.89,16.79,157.5,13.43c-2.15,3.99-3.28,8.13-3.28,12.37,0,6.62,2.76,12.99,7.87,18.97-21.08,5.73-33.87,13.27-33.87,21.53,0,4.1,3.14,8.01,8.88,11.62Z"/><path class="l" d="M108.46,40.22c-6.17,10.15-4.51,18.95-.62,24.16,4.07,5.45,15.57-2.44,21.74-12.59,6.17-10.15,14.35-23.58,.62-24.16-6.73-.29-15.57,2.44-21.74,12.59Z"/></g></g><g id="j"/></svg>