<?xml version="1.0" encoding="UTF-8"?><svg xmlns="http://www.w3.org/2000/svg" width="870" height="490" viewBox="0 0 870 490"><defs><style>.j{fill:#f4be58;}.k{fill:#f4be56;}.l{fill:#eedec0;}.m{fill:#ea968c;}.n{fill:#fff;}.o{fill:#f1622c;}.p{fill:#cf5540;}.q{fill:#c62c26;}.r{fill:#22210c;}.s{fill:#3e773f;}.t{fill:#293f02;}.u{fill:#3c6087;}.v{fill:#3c6088;}.w{fill:#5e7c9d;}</style></defs><g id="a"/><g id="b"/><g id="c"/><g id="d"/><g id="e"/><g id="f"/><g id="g"/><g id="h"><g><rect class="p" width="870" height="490"/><path class="l" d="M700.77,421.75H162.68s15.83-120.64-3.61-171.4c-40.59-105.99,366.7,1.35,523.66-46.91,51.95-15.97,18.04,218.3,18.04,218.3h0Z"/><g><g><path class="l" d="M142.42,211.91h0c-4.34,1.68-5.28-1.83-5.28-4.09l-.62-21.16c0-4.09,3.6-5.05,6.52-5.05h0c5.28-1.2,5.28,1.83,5.28,4.09v11.54c0,2.26-3.1,13.95-5.9,14.67h0Z"/><path class="l" d="M142.42,435.25h0c-4.34,1.68-5.28-1.83-5.28-4.09l-.62-21.16c0-4.09,3.6-5.05,6.52-5.05h0c5.28-1.2,5.28,1.83,5.28,4.09v11.54c0,2.26-3.1,13.95-5.9,14.67h0Z"/><path class="l" d="M142.42,391.73h0c-4.34,1.68-5.28-1.83-5.28-4.09l-.62-21.16c0-4.09,3.6-5.05,6.52-5.05h0c5.28-1.2,5.28,1.83,5.28,4.09v11.54c0,2.26-3.1,13.95-5.9,14.67h0Z"/><path class="l" d="M142.42,346.77h0c-4.34,1.68-5.28-1.83-5.28-4.09l-.62-21.16c0-4.09,3.6-5.05,6.52-5.05h0c5.28-1.2,5.28,1.83,5.28,4.09v11.54c0,2.26-3.1,13.95-5.9,14.67h0Z"/><path class="l" d="M142.42,301.81h0c-4.34,1.68-5.28-1.83-5.28-4.09l-.62-21.16c0-4.09,3.6-5.05,6.52-5.05h0c5.28-1.2,5.28,1.83,5.28,4.09v11.54c0,2.26-3.1,13.95-5.9,14.67h0Z"/><path class="l" d="M142.42,256.84h0c-4.34,1.68-5.28-1.83-5.28-4.09l-.62-21.16c0-4.09,3.6-5.05,6.52-5.05h0c5.28-1.2,5.28,1.83,5.28,4.09v11.54c0,2.26-3.1,13.95-5.9,14.67h0Z"/></g><g><path class="l" d="M194.28,186.9h0c2.17,3.37-2.36,4.09-5.28,4.09l-27.31,.48c-5.28,0-6.52-2.79-6.52-5.05h0c-1.55-4.09,2.36-4.09,5.28-4.09h14.9c2.91,0,18,2.4,18.93,4.57Z"/><path class="l" d="M708.33,186.9h0c2.17,3.37-2.36,4.09-5.28,4.09l-27.31,.48c-5.28,0-6.52-2.79-6.52-5.05h0c-1.55-4.09,2.36-4.09,5.28-4.09h14.9c2.91,0,18,2.4,18.93,4.57Z"/><path class="l" d="M648.74,186.9h0c2.17,3.37-2.36,4.09-5.28,4.09l-27.31,.48c-5.28,0-6.52-2.79-6.52-5.05h0c-1.55-4.09,2.36-4.09,5.28-4.09h14.9c2.91,0,18,2.4,18.93,4.57Z"/><path class="l" d="M582.95,186.9h0c2.17,3.37-2.36,4.09-5.28,4.09l-27.31,.48c-5.28,0-6.52-2.79-6.52-5.05h0c-1.55-4.09,2.36-4.09,5.28-4.09h14.9c2.91,0,18,2.4,18.93,4.57Z"/><path class="l" d="M519.96,186.9h0c2.17,3.37-2.36,4.09-5.28,4.09l-27.31,.48c-5.28,0-6.52-2.79-6.52-5.05h0c-1.55-4.09,2.36-4.09,5.28-4.09h14.9c2.91,0,18,2.4,18.93,4.57Z"/><path class="l" d="M453.86,186.9h0c2.17,3.37-2.36,4.09-5.28,4.09l-27.31,.48c-5.28,0-6.52-2.79-6.52-5.05h0c-1.55-4.09,2.36-4.09,5.28-4.09h14.9c2.91,0,18,2.4,18.93,4.57Z"/><path class="l" d="M383.1,186.9h0c2.17,3.37-2.36,4.09-5.28,4.09l-27.31,.48c-5.28,0-6.52-2.79-6.52-5.05h0c-1.55-4.09,2.36-4.09,5.28-4.09h14.9c2.91,0,18,2.4,18.93,4.57Z"/><path class="l" d="M315.14,186.9h0c2.17,3.37-2.36,4.09-5.28,4.09l-27.31,.48c-5.28,0-6.52-2.79-6.52-5.05h0c-1.55-4.09,2.36-4.09,5.28-4.09h14.9c2.91,0,18,2.4,18.93,4.57Z"/><path class="l" d="M254.32,186.9h0c2.17,3.37-2.36,4.09-5.28,4.09l-27.31,.48c-5.28,0-6.52-2.79-6.52-5.05h0c-1.55-4.09,2.36-4.09,5.28-4.09h14.9c2.91,0,18,2.4,18.93,4.57Z"/></g><g><path class="l" d="M664.33,432.88h0c-2.17,3.37,2.36,4.09,5.28,4.09l27.31,.48c5.28,0,6.52-2.79,6.52-5.05h0c1.55-4.09-2.36-4.09-5.28-4.09h-14.9c-2.91,0-18,2.4-18.93,4.57h0Z"/><path class="l" d="M150.28,432.88h0c-2.17,3.37,2.36,4.09,5.28,4.09l27.31,.48c5.28,0,6.52-2.79,6.52-5.05h0c1.55-4.09-2.36-4.09-5.28-4.09h-14.9c-2.91,0-18,2.4-18.93,4.57h0Z"/><path class="l" d="M209.87,432.88h0c-2.17,3.37,2.36,4.09,5.28,4.09l27.31,.48c5.28,0,6.52-2.79,6.52-5.05h0c1.55-4.09-2.36-4.09-5.28-4.09h-14.9c-2.91,0-18,2.4-18.93,4.57h0Z"/><path class="l" d="M275.66,432.88h0c-2.17,3.37,2.36,4.09,5.28,4.09l27.31,.48c5.28,0,6.52-2.79,6.52-5.05h0c1.55-4.09-2.36-4.09-5.28-4.09h-14.9c-2.91,0-18,2.4-18.93,4.57h0Z"/><path class="l" d="M338.65,432.88h0c-2.17,3.37,2.36,4.09,5.28,4.09l27.31,.48c5.28,0,6.52-2.79,6.52-5.05h0c1.55-4.09-2.36-4.09-5.28-4.09h-14.9c-2.91,0-18,2.4-18.93,4.57h0Z"/><path class="l" d="M404.75,432.88h0c-2.17,3.37,2.36,4.09,5.28,4.09l27.31,.48c5.28,0,6.52-2.79,6.52-5.05h0c1.55-4.09-2.36-4.09-5.28-4.09h-14.9c-2.91,0-18,2.4-18.93,4.57h0Z"/><path class="l" d="M475.51,432.88h0c-2.17,3.37,2.36,4.09,5.28,4.09l27.31,.48c5.28,0,6.52-2.79,6.52-5.05h0c1.55-4.09-2.36-4.09-5.28-4.09h-14.9c-2.91,0-18,2.4-18.93,4.57h0Z"/><path class="l" d="M543.47,432.88h0c-2.17,3.37,2.36,4.09,5.28,4.09l27.31,.48c5.28,0,6.52-2.79,6.52-5.05h0c1.55-4.09-2.36-4.09-5.28-4.09h-14.9c-2.91,0-18,2.4-18.93,4.57h0Z"/><path class="l" d="M604.29,432.88h0c-2.17,3.37,2.36,4.09,5.28,4.09l27.31,.48c5.28,0,6.52-2.79,6.52-5.05h0c1.55-4.09-2.36-4.09-5.28-4.09h-14.9c-2.91,0-18,2.4-18.93,4.57h0Z"/></g><g><path class="l" d="M721.49,214.08h0c4.34,1.68,5.28-1.83,5.28-4.09l.62-21.16c0-4.09-3.6-5.05-6.52-5.05h0c-5.28-1.2-5.28,1.83-5.28,4.09v11.54c0,2.26,3.1,13.95,5.9,14.67h0Z"/><path class="l" d="M721.49,437.42h0c4.34,1.68,5.28-1.83,5.28-4.09l.62-21.16c0-4.09-3.6-5.05-6.52-5.05h0c-5.28-1.2-5.28,1.83-5.28,4.09v11.54c0,2.26,3.1,13.95,5.9,14.67h0Z"/><path class="l" d="M721.49,393.9h0c4.34,1.68,5.28-1.83,5.28-4.09l.62-21.16c0-4.09-3.6-5.05-6.52-5.05h0c-5.28-1.2-5.28,1.83-5.28,4.09v11.54c0,2.26,3.1,13.95,5.9,14.67h0Z"/><path class="l" d="M721.49,348.93h0c4.34,1.68,5.28-1.83,5.28-4.09l.62-21.16c0-4.09-3.6-5.05-6.52-5.05h0c-5.28-1.2-5.28,1.83-5.28,4.09v11.54c0,2.26,3.1,13.95,5.9,14.67h0Z"/><path class="l" d="M721.49,303.97h0c4.34,1.68,5.28-1.83,5.28-4.09l.62-21.16c0-4.09-3.6-5.05-6.52-5.05h0c-5.28-1.2-5.28,1.83-5.28,4.09v11.54c0,2.26,3.1,13.95,5.9,14.67h0Z"/><path class="l" d="M721.49,259.01h0c4.34,1.68,5.28-1.83,5.28-4.09l.62-21.16c0-4.09-3.6-5.05-6.52-5.05h0c-5.28-1.2-5.28,1.83-5.28,4.09v11.54c0,2.26,3.1,13.95,5.9,14.67Z"/></g></g><g><path class="o" d="M299.45,282.27s-8.26-20.41-6.14-21.94c2.18-1.58,10.99,14.64,10.99,14.64,0,0-2.05-17.08-.76-19.12,4.74-7.51,6.06,13.9,6.06,13.9,0,0,3.44-16.69,5.59-15.76s5.69,20.33,5.69,20.33c0,0,10.63-15.88,12.13-13.99,6.5,8.17-7.11,23.97-7.11,23.97,0,0,11.49-7.85,12.32-5.41,3.32,9.79-15.58,18.32-15.58,18.32,0,0,15.15,5.86,15.96,9.19,2.14,8.8-11.84,3.08-11.84,3.08,0,0,5.77,11.72,2.75,13.9-7.11,5.13-11.47-8.58-11.47-8.58,0,0-2.14,10.62-9.85,8.02-9.78-3.3-1.37-12.24-1.37-12.24,0,0-8.26,8.3-10.4,7.38-2.23-.96,2.19-12.18,2.19-12.18,0,0-8.19-.55-9.5-2.57s12.38-8.22,12.38-8.22c0,0-12.13,2.08-12.69-.43-2.63-11.92,11.97-4.33,11.97-4.33,0,0-19.29-14.46-15.79-19.82,3.75-5.75,14.48,11.86,14.48,11.86h-.01Z"/><ellipse class="n" cx="301.53" cy="289.02" rx="8.74" ry="24.11"/><ellipse class="n" cx="323.16" cy="285.94" rx="9.38" ry="25.6"/><path class="r" d="M306.39,299.32c0,5.96-.94,9.09-4.08,9.09s-5.69-4.83-5.69-10.79,2.55-10.79,5.69-10.79,4.08,6.54,4.08,12.5h0Z"/><ellipse class="r" cx="324.11" cy="296.77" rx="4.37" ry="11.16"/><path class="r" d="M324.62,308.92c0,2.06-3.86,10.77-11.16,10.77s-12.57-8.92-12.57-10.99,5.27,7.25,12.57,7.25,11.16-9.09,11.16-7.03Z"/></g><g><g><rect class="t" x="423.26" y="307.63" width="6.28" height="118.85" rx="2.51" ry="2.51"/><rect class="t" x="410.69" y="418.98" width="18.85" height="7.5" rx="2.99" ry="2.99"/></g><g><rect class="t" x="436.74" y="303.71" width="6.28" height="118.85" rx="2.51" ry="2.51"/><rect class="t" x="436.74" y="415.07" width="18.85" height="7.5" rx="2.99" ry="2.99"/></g><g><rect class="t" x="412.26" y="309.2" width="6.28" height="107.85" rx="2.51" ry="2.51"/><rect class="t" x="399.7" y="410.25" width="18.85" height="6.81" rx="2.72" ry="2.72"/></g><path class="m" d="M467.76,222.82c-13.35,51.62-18.8,93.96-42.41,93.19-29.83-.97-47.09-40.77-43.46-91.1,3.68-50.93-7.21-93.78,43.46-95.81,54.88-2.2,56.02,41.09,42.41,93.72Z"/><path class="n" d="M416.99,276.35v.12c-1.58-.63-3.05-1.42-4.37-2.33l-.43-7.48c-.05-.92,.8-5.46,1.96-5.52,1.16-.07,2.21,4.16,2.27,5.08l.57,10.13Z"/><path class="n" d="M440.82,266.27c-1.37,4.02-3.23,6.85-5.28,8.84-1.03,1-2.1,1.79-3.19,2.39-2.81,1.59-5.69,2.02-7.99,2.02-.44,0-.85-.02-1.25-.04-2.36-.16-4.75-.76-6.98-1.69-1.19-.49-2.32-1.06-3.4-1.71-3.94-2.39-6.93-5.74-7.6-9.1-.08-.42,.19-.84,.62-.92,.42-.08,.84,.19,.92,.62,.49,2.47,2.74,5.27,5.95,7.46,1.31,.91,2.79,1.7,4.37,2.33,1.95,.78,4.07,1.3,6.23,1.45,3.3,.22,5.97-.47,8.15-1.67,1.73-.95,3.13-2.23,4.27-3.62,1.85-2.26,3.01-4.84,3.7-6.86,.14-.41,.59-.63,.99-.49,.41,.14,.63,.59,.49,.99h0Z"/><path class="n" d="M436.01,263l-.38,9.63c-1.14,1.39-2.54,2.67-4.27,3.62-.06-.2-.09-.42-.08-.65l.47-12.51c.04-1.16,1.37-6.75,2.53-6.71,1.17,.04,1.77,5.46,1.73,6.62h0Z"/><ellipse class="n" cx="423.78" cy="214.44" rx="20.94" ry="29.84"/><ellipse cx="423.78" cy="224.65" rx="6.81" ry="10.21"/></g><g><g><path class="j" d="M200.31,111.21c-1.87,.16-4.07,.16-6.35,.16s-4.64,0-6.6-.16c-.9-.08-2.12-.49-2.28-2.36-.65-6.68-.98-14.49-.98-22.64,0-13.27,.81-27.61,2.44-39.49,.24-1.71,1.14-1.95,2.2-2.12,1.87-.08,3.66-.16,5.54-.16s3.75,.08,5.46,.16c1.14,.08,1.87,.57,1.87,1.71,0,1.38-1.47,15.63-1.47,30.62,0,15.8,1.71,30.29,1.71,32.65,0,1.06-.65,1.55-1.55,1.63h.01Z"/><path class="j" d="M241.68,112.27c-14.66,0-19.54-11.24-19.54-24.92,0-20.11,10.26-28.34,22.48-28.34,8.22,0,14.66,4.4,14.66,13.52,0,13.92-11.64,15.55-18.81,18.73-2.52,.9-3.58,1.63-3.58,3.01,0,2.36,1.71,4.23,5.62,4.23,5.62,0,10.75-2.44,13.93-6.6,.49-.41,.81-.65,1.22-.65,1.14,0,2.04,2.12,2.04,5.94,0,9.45-8.39,15.06-18,15.06l-.02,.02Zm1.14-41.94c-4.48,0-7.57,4.89-7.57,10.5,0,.81,.24,1.47,.98,1.47,.49,0,1.06-.16,1.55-.41,3.26-1.95,8.79-3.99,8.79-7.9,0-2.12-1.38-3.66-3.75-3.66h0Z"/><path class="j" d="M293.55,111.21c-1.14,.08-2.69,.16-4.23,.16-1.63,0-3.5,0-5.46-.16-1.38-.08-2.2-.57-2.36-2.85-.57-6.84-1.06-14.58-1.06-23.78,0-6.27,.24-13.27,.9-21.09,.16-2.52,1.63-3.26,3.66-3.5,1.38-.16,3.01-.16,4.8-.16s3.66,0,4.56,.16c1.14,.16,1.55,.57,1.55,1.47,0,.65-.33,1.55-.33,2.36,0,.49,.33,.81,.9,.81,2.12,0,5.29-5.37,10.99-5.37,5.29,0,7.08,3.99,9.12,3.99,2.36,0,5.78-3.99,11.97-3.99,9.61,0,13.52,9.04,13.52,26.3,0,12.87-.9,20.77-1.71,23.45-.41,1.63-1.79,2.12-2.93,2.2s-2.77,.16-4.48,.16-3.66-.08-5.54-.16c-1.87-.08-2.44-1.06-2.44-2.36,0-2.36,1.55-10.26,1.55-23.86,0-8.55-.9-12.05-3.99-12.05-2.61,0-4.8,2.2-4.8,7.33,0,4.48,.16,7.74,.16,11.97,0,6.84-.49,12.62-.98,16.29-.24,1.71-.98,2.44-2.2,2.52-1.47,.16-3.42,.24-5.37,.24-1.63,0-3.42-.08-4.97-.16-1.55-.16-1.87-.81-1.87-1.95,0-1.22,.81-15.55,.81-25.81,0-7.25-.65-10.26-3.75-10.26-3.42,0-5.13,3.34-5.13,11.16,0,14.41,1.06,23.21,1.06,24.92,0,1.3-.73,1.87-1.95,2.04v-.02Z"/><path class="j" d="M462.6,80.02c0,12.38-1.22,25.41-1.71,28.83-.24,1.55-1.06,2.28-2.28,2.36-1.3,.16-3.09,.16-4.97,.16-2.04,0-3.99-.08-5.7-.16-1.3-.16-1.79-.73-1.79-1.71,0-3.75,1.22-17.35,1.22-28.01,0-5.78-.98-8.55-3.99-8.55-1.47,0-2.77,.49-3.75,1.47-1.38,1.3-1.95,3.58-1.95,9.53,0,12.21,1.14,22.72,1.14,25.16,0,1.47-.65,2.04-2.12,2.12s-3.01,.16-4.56,.16c-2.04,0-3.99-.08-5.46-.16-1.38-.08-2.28-.49-2.44-2.61-.57-6.27-.98-14.25-.98-23.45,0-6.6,.16-13.84,.73-21.5,.16-2.61,1.71-3.26,3.83-3.5,1.47-.08,3.18-.16,4.8-.16,1.38,0,2.77,.08,3.75,.16,1.47,.08,2.04,.73,2.04,1.87s.41,1.55,1.14,1.55c2.44,0,5.54-4.32,11.65-4.32,7.74,0,11.4,5.62,11.4,20.77h0Z"/><path class="j" d="M499.41,99.97c2.85,0,4.07-1.14,4.07-3.18s-1.47-3.42-5.94-5.54c-7.82-3.75-14.17-7.08-14.17-16.61s7.33-15.72,18.89-15.72c5.21,0,10.59,1.3,13.35,2.93,1.22,.73,1.55,1.47,1.55,2.69,0,3.01-1.47,7.98-2.77,10.67-.33,.73-.81,.98-1.3,.98-.41,0-.81-.16-1.14-.49-3.01-2.52-7.74-5.13-11.56-5.13-2.61,0-3.91,1.22-3.91,2.93,0,2.12,1.47,3.09,6.11,5.21,7.25,3.26,15.31,7.08,15.31,17.18,0,10.91-7,16.37-17.67,16.37s-17.67-5.21-17.67-13.6c0-3.34,.81-5.86,1.55-7,.33-.49,.73-.81,1.22-.81,.41,0,.81,.16,1.06,.65,2.36,4.07,7.33,8.47,13.03,8.47h0Z"/><path class="j" d="M556.33,48.18c.73,0,1.14,.49,1.14,1.06,0,1.22-2.69,6.11-2.69,10.02,0,.73,.41,1.14,1.3,1.14,1.06,0,2.77-.33,3.91-.33,.73,0,1.14,.49,1.3,1.47,.24,1.38,.41,3.42,.41,5.54s-.16,4.4-.57,6.43c-.16,.73-.65,.98-1.22,.98-1.06,0-2.44-.41-3.91-.41-1.22,0-1.55,.73-1.71,2.85-.16,1.38-.24,3.18-.24,5.05,0,8.47,1.95,18.4,3.91,25.41,.08,.41,.16,.65,.16,.9,0,.65-.33,1.06-.9,1.47-3.09,2.04-10.18,3.26-13.6,3.26-.98,0-1.55-.33-1.87-1.14-1.79-4.48-2.52-11.24-2.52-18.49,0-8.14,.9-14.74,.98-17.26,.08-.9-.24-1.22-.98-1.38-.41-.08-.81-.16-1.06-.16-.81-.16-1.3-.65-1.3-1.71,0-3.42,.16-6.92,.65-10.99,.24-1.22,.73-1.71,1.47-1.71h1.22c1.06,0,1.22-1.3,1.47-4.15,.33-3.42,.49-3.99,2.04-4.89,3.91-2.28,11.07-2.93,12.62-2.93v-.03Z"/><path class="j" d="M599.32,112.27c-14.66,0-19.54-11.24-19.54-24.92,0-20.11,10.26-28.34,22.48-28.34,8.22,0,14.66,4.4,14.66,13.52,0,13.92-11.64,15.55-18.81,18.73-2.52,.9-3.58,1.63-3.58,3.01,0,2.36,1.71,4.23,5.62,4.23,5.62,0,10.75-2.44,13.92-6.6,.49-.41,.81-.65,1.22-.65,1.14,0,2.04,2.12,2.04,5.94,0,9.45-8.39,15.06-18,15.06v.02Zm1.13-41.94c-4.48,0-7.57,4.89-7.57,10.5,0,.81,.24,1.47,.98,1.47,.49,0,1.06-.16,1.55-.41,3.26-1.95,8.79-3.99,8.79-7.9,0-2.12-1.38-3.66-3.75-3.66h0Z"/><path class="j" d="M654.04,111.13c-1.55,.08-3.42,.16-5.54,.16s-4.32,0-6.6-.16c-1.14-.08-1.95-.81-2.28-2.2-.98-4.15-1.63-12.78-1.63-23.29,0-14.17,.65-20.6,1.38-23.29,.33-1.3,.9-1.79,1.55-2.04,.98-.24,3.66-.49,6.19-.49,1.38,0,2.69,0,3.66,.24,.9,.16,1.14,.73,1.22,1.71,.08,.98,.49,1.3,.9,1.3s.81-.24,1.38-.65c1.63-1.47,3.34-2.85,5.13-2.85,1.47,0,2.44,1.87,2.44,8.31,0,3.01-.16,5.86-.65,7.33-.41,1.38-1.06,1.71-1.79,1.71-.98,0-2.28-.73-3.83-.73s-2.85,1.55-2.85,7.9c0,10.26,3.42,23.45,3.42,25.08,0,1.06-.49,1.79-2.12,1.95h.02Z"/><path class="j" d="M697.2,99.97c2.85,0,4.07-1.14,4.07-3.18s-1.47-3.42-5.94-5.54c-7.82-3.75-14.17-7.08-14.17-16.61s7.33-15.72,18.89-15.72c5.21,0,10.59,1.3,13.35,2.93,1.22,.73,1.55,1.47,1.55,2.69,0,3.01-1.47,7.98-2.77,10.67-.33,.73-.81,.98-1.3,.98-.41,0-.81-.16-1.14-.49-3.01-2.52-7.74-5.13-11.56-5.13-2.61,0-3.91,1.22-3.91,2.93,0,2.12,1.47,3.09,6.11,5.21,7.25,3.26,15.31,7.08,15.31,17.18,0,10.91-7,16.37-17.67,16.37s-17.67-5.21-17.67-13.6c0-3.34,.81-5.86,1.55-7,.33-.49,.73-.81,1.22-.81,.41,0,.81,.16,1.06,.65,2.36,4.07,7.33,8.47,13.03,8.47h-.01Z"/></g><path class="k" d="M402.83,97.1c-31.08,30.72-30.87,37.66-39.7,18.5-4.89-10.6-18.17-25.58-7.01-44.91,11.16-19.33,48.27-46.12,50.66-20.12,1.24,13.47,11.92,30.84-3.95,46.53h0Z"/><path class="s" d="M375.02,37.61c-10.31-3.4-31.37-17.84-19.9,.06,1.14,1.78,9.58,12.97,19.89,16.37s16.77-2.04,17.44-4.05-7.11-8.98-17.42-12.38h-.01Z"/><path class="s" d="M412.83,25c3.05-9.88,13.53-20.78-7.18-9.99-1.67,.87-11.15,9.06-13.75,18.38s2.51,14.85,4.32,15.36,14.54-17.05,16.61-23.75h0Z"/></g><g><path d="M576.36,296.87l54.86-54.86c.69-.69,1.8-.69,2.49,0h0c.69,.69,.69,1.8,0,2.49l-54.86,54.86c-.69,.69-1.8,.69-2.49,0h0c-.69-.69-.69-1.8,0-2.49Z"/><rect x="520" y="234.57" width="3.04" height="90.94" rx="1.52" ry="1.52" transform="translate(-45.27 450.79) rotate(-45)"/><path class="v" d="M563.82,344.97h0c-6.98,0-12.7-5.71-12.7-12.7,0,0-4.86-27.68,0-48.97,1.55-6.81,5.71-12.7,12.7-12.7h0c6.98,0,12.7,5.71,12.7,12.7,0,0,8.09,37.36,0,48.97-5.98,8.58-5.71,12.7-12.7,12.7Z"/><path class="w" d="M627.96,357.91c.42-.02,.84-.05,1.25-.1-.33,.07-.66,.11-.98,.11-.09,0-.17,0-.26-.01h-.01Z"/><path class="w" d="M631.23,329.15c-.87-.24-1.77-.4-2.7-.46,.21-.03,.42-.04,.63-.04,.68,0,1.38,.18,2.07,.51h0Z"/><path class="u" d="M630.29,357.18c-.18,0-.35,.01-.53,.01,0,0-67.95,1.81-91.53,.78-.74-.03-41.57-.83-42.28-.94,.08,0,.15-.02,.22-.03h.01c4.06-.44,8.71-6.75,8.71-14.4,0-5.99-2.4-11.03-5.29-13.37-.78-.63-1.72-1.02-2.71-1.19-.11-.02-.21-.04-.32-.05,.51-.05,1.03-.08,1.56-.08,0,0,98.91-7.77,131.62,0,.36,.09,.74,.01,1.11,.04,6.34,14.21-13.72,8.05-8.49,13.95,5.5,6.22,11.46-1.81,7.92,15.28h0Z"/><path class="w" d="M639.73,342.69c0,7.65-4.72,13.53-8.71,14.4h-.01c-.41,.05-.83,.09-1.25,.1-9.41,.53-7.92-7.15-7.92-15.28s-11.72-13.41,8.15-13.94c.23,0,.46,0,.69,.02,.4,.04,.79,.09,1.18,.17,.94,.17,1.83,.57,2.57,1.16,2.89,2.34,5.29,7.38,5.29,13.36h.01Z"/><path class="w" d="M504.89,342.61c0,7.65,7.95,12.26-8.71,14.4h-.01c-.08,.01-.15,.02-.22,.03-.76-.11-1.51-.29-2.23-.52-1.08-.34-2.05-.96-2.77-1.83-2.28-2.75-3.94-7.53-3.94-12.85s2.17-9.81,4.83-12.13c.64-.55,1.39-.96,2.2-1.19,.42-.12,.85-.23,1.28-.31,.81-.16,1.65-.15,2.45,.04h.02c.28,.07,.57,.11,.86,.13,8.41,.56,6.24,7.42,6.24,14.24h0Z"/><path class="w" d="M494.24,328.73c-1.27,.14-2.5,.44-3.65,.88,.85-.54,1.73-.89,2.58-1,.36,.03,.72,.06,1.07,.12Z"/><g><path d="M652.71,342.25h-22.95v-2.07h22.67v1.52c0,.23,.11,.43,.28,.56h0Z"/><path d="M653.98,336.85v4.85c0,.15-.05,.29-.13,.4-.04,.06-.1,.11-.15,.15h-.99c-.17-.12-.28-.33-.28-.56v-4.85c0-.38,.31-.69,.69-.69h.18c.38,0,.69,.31,.69,.69h0Z"/></g><g><path d="M473.65,343.68h22.95v-2.07h-22.67v1.52c0,.23-.11,.43-.28,.56h0Z"/><path d="M472.38,338.28v4.85c0,.15,.05,.29,.13,.4,.04,.06,.1,.11,.15,.15h.99c.17-.12,.28-.33,.28-.56v-4.85c0-.38-.31-.69-.69-.69h-.18c-.38,0-.69,.31-.69,.69h.01Z"/></g><g><circle class="v" cx="562.91" cy="269.44" r="24.74"/><path class="w" d="M563.69,294.96c-14.5,0-26.3-11.8-26.3-26.3s11.99-23.97,26.3-26.3c18.85-3.06,26.3,11.8,26.3,26.3s-11.8,26.3-26.3,26.3Zm0-49.49c-12.79,0-20.99,10.59-23.19,23.19-2.79,15.98,10.4,23.19,23.19,23.19s23.19-10.4,23.19-23.19-10.4-23.19-23.19-23.19h0Z"/></g><path class="n" d="M563.8,289.04c-.36,0-.71-.01-1.05-.04-6.68-.46-13-3.53-16.88-8.2-2.76-3.32-3.99-7.08-3.56-10.89v.17c-.41,3.59,1.53,7.07,4.15,10.22,3.75,4.51,9.86,7.47,16.34,7.92,4.58,.32,11.57-1.57,16.07-6.48,3.03-3.29,4.78-8.05,4.11-12.44l.25,.59c.71,4.63-.6,8.91-3.79,12.38-4.35,4.73-10.92,6.76-15.65,6.76h0Z"/><path class="n" d="M563.5,284.42c-.29,0-.57,0-.85-.03-5.38-.34-10.47-2.61-13.6-6.06-2.22-2.45-3.21-5.24-2.86-8.06v.13c-.33,2.66,1.24,5.23,3.35,7.56,3.02,3.34,7.94,5.52,13.16,5.86,3.69,.23,9.32-1.16,12.95-4.79,2.44-2.43,3.85-5.96,3.31-9.2l.21,.44c.57,3.42-.48,6.59-3.05,9.16-3.5,3.5-8.8,5-12.6,5h-.02Z"/><circle class="n" cx="553.06" cy="262.45" r="3.5"/><circle class="n" cx="557.99" cy="273.85" r="3.5"/><circle class="n" cx="562.91" cy="255.45" r="3.5"/><circle class="n" cx="572.75" cy="261.67" r="3.5"/><circle class="n" cx="569.9" cy="273.59" r="3.5"/><circle cx="551.64" cy="261.8" r="1.3"/><circle cx="559.15" cy="275.01" r="1.3"/><circle cx="569.26" cy="275.01" r="1.3"/><circle cx="573.92" cy="261.28" r="1.3"/><circle cx="562.78" cy="254.28" r="1.3"/><path class="q" d="M570.93,287.83l2.82-1.3c1.58,3.42,1.6,6.82,.06,7.54s-4.12-1.51-5.7-4.93l-.18-.39,3-.91h0Z"/><path class="q" d="M560.32,284.02l3.09,.36c-.44,3.74-2.19,6.66-3.88,6.46s-2.73-3.44-2.29-7.18c.02-.14,.04-.29,.06-.43l3.03,.79h-.01Z"/></g></g></g><g id="i"/></svg>