<?xml version="1.0" encoding="UTF-8"?><svg xmlns="http://www.w3.org/2000/svg" width="870" height="490" viewBox="0 0 870 490"><defs><style>.m{fill:#eedec0;}.n{fill:#f6c945;}.o{fill:#ea968c;}.p{fill:#fff;}.q{fill:#3e773f;}.r{fill:#638dbb;}.s{fill:#293f02;}.t{fill:#2e3e0e;}</style></defs><g id="a"/><g id="b"/><g id="c"/><g id="d"/><g id="e"/><g id="f"><g><rect class="r" x="-1" y="1" width="870" height="490"/><g><g><rect class="s" x="131.57" y="284.96" width="8.21" height="155.44" rx="4.1" ry="4.1"/><rect class="s" x="115.16" y="430.59" width="24.62" height="9.81" rx="3.58" ry="3.58"/></g><g><rect class="s" x="149.19" y="279.84" width="8.21" height="155.44" rx="4.1" ry="4.1" transform="translate(306.58 715.12) rotate(-180)"/><rect class="s" x="149.19" y="425.47" width="24.62" height="9.81" rx="3.58" ry="3.58" transform="translate(323 860.74) rotate(-180)"/></g><g><rect class="s" x="117.21" y="287.02" width="8.21" height="141.06" rx="4.1" ry="4.1"/><rect class="s" x="100.8" y="419.17" width="24.62" height="8.9" rx="3.58" ry="3.58"/></g><path class="o" d="M189.7,174.04c-17.44,67.51-24.55,122.89-55.39,121.88-38.96-1.27-61.51-53.33-56.76-119.15,4.8-66.61-9.41-122.65,56.76-125.31,71.68-2.88,73.17,53.75,55.39,122.57Z"/><path class="p" d="M123.39,244.04v.1s0,.03,0,.05c-2.07-.82-3.99-1.86-5.7-3.05l-.57-9.78c-.07-1.21,1.05-7.14,2.56-7.22,1.52-.09,2.89,5.44,2.97,6.65l.75,13.25Z"/><path class="p" d="M154.51,230.87c-1.78,5.25-4.21,8.96-6.89,11.57-1.35,1.31-2.75,2.33-4.17,3.13-3.67,2.07-7.43,2.64-10.44,2.64-.57,0-1.11-.02-1.63-.05-3.08-.21-6.21-1-9.12-2.2-1.55-.64-3.04-1.39-4.44-2.24-5.15-3.13-9.05-7.51-9.92-11.9-.11-.55,.25-1.1,.81-1.21,.55-.11,1.09,.25,1.2,.81,.64,3.23,3.58,6.9,7.77,9.75,1.72,1.18,3.64,2.23,5.7,3.05,2.55,1.02,5.31,1.71,8.14,1.9,4.31,.29,7.8-.62,10.64-2.18,2.26-1.24,4.09-2.91,5.58-4.73,2.42-2.96,3.93-6.33,4.83-8.98,.18-.53,.77-.82,1.3-.64,.54,.18,.83,.77,.64,1.3Z"/><path class="p" d="M148.23,226.59l-.49,12.59c-1.49,1.82-3.32,3.49-5.58,4.73-.08-.27-.12-.55-.1-.85l.62-16.37c.05-1.52,1.78-8.83,3.3-8.77,1.53,.05,2.31,7.14,2.26,8.66Z"/><ellipse class="p" cx="132.26" cy="163.08" rx="27.35" ry="39.03"/><ellipse cx="132.26" cy="176.43" rx="8.89" ry="13.35"/></g><g><path class="n" d="M176.62,435.2c-33.82,33.43-33.59,40.98-43.2,20.14-5.32-11.54-19.77-27.84-7.62-48.87,12.15-21.04,52.53-50.19,55.13-21.9,1.35,14.65,12.98,33.56-4.3,50.63Z"/><path class="q" d="M146.35,370.45c-11.22-3.7-34.13-19.41-21.66,.06,1.24,1.94,10.42,14.11,21.64,17.81,11.22,3.7,18.25-2.22,18.98-4.4,.72-2.19-7.74-9.77-18.96-13.47Z"/><path class="q" d="M187.5,356.73c3.32-10.75,14.73-22.61-7.81-10.87-1.82,.95-12.13,9.86-14.96,20-2.83,10.14,2.73,16.16,4.7,16.71,1.98,.55,15.82-18.55,18.07-25.84Z"/></g><g><path class="n" d="M144.18,335.95c-26.53,26.22-26.35,32.14-33.89,15.79-4.17-9.05-15.51-21.83-5.98-38.34,9.53-16.5,41.21-39.37,43.24-17.17,1.06,11.5,10.18,26.32-3.37,39.72Z"/><path class="q" d="M120.44,285.17c-8.8-2.9-26.77-15.23-16.99,.05,.97,1.52,8.18,11.07,16.97,13.97s14.32-1.74,14.88-3.45c.57-1.71-6.07-7.66-14.87-10.57Z"/><path class="q" d="M152.71,274.41c2.61-8.43,11.55-17.73-6.13-8.53-1.43,.74-9.52,7.74-11.74,15.69-2.22,7.95,2.14,12.68,3.69,13.11s12.41-14.55,14.18-20.27Z"/></g><g><path class="n" d="M86.74,334.83c-28.4,28.07-28.21,34.41-36.28,16.91-4.47-9.69-16.6-23.37-6.4-41.04,10.2-17.67,44.11-42.15,46.29-18.39,1.13,12.31,10.9,28.18-3.61,42.52Z"/><path class="q" d="M61.32,280.46c-9.42-3.11-28.66-16.3-18.19,.05,1.04,1.63,8.75,11.85,18.17,14.96,9.42,3.11,15.33-1.86,15.93-3.7,.61-1.84-6.5-8.2-15.92-11.31Z"/><path class="q" d="M95.88,268.94c2.79-9.03,12.37-18.99-6.56-9.13-1.53,.8-10.19,8.28-12.57,16.8-2.38,8.51,2.29,13.57,3.95,14.03,1.66,.46,13.28-15.58,15.18-21.7Z"/></g><g><path class="n" d="M221.93,345.7c-31.55,31.19-31.34,38.23-40.3,18.78-4.96-10.77-18.44-25.97-7.11-45.59,11.33-19.63,49.01-46.82,51.43-20.43,1.26,13.67,12.11,31.3-4.01,47.23Z"/><path class="q" d="M193.69,285.3c-10.46-3.45-31.84-18.11-20.21,.06,1.16,1.81,9.72,13.16,20.19,16.62s17.03-2.07,17.7-4.11c.67-2.04-7.22-9.11-17.68-12.57Z"/><path class="q" d="M232.08,272.5c3.1-10.03,13.74-21.09-7.29-10.14-1.7,.88-11.32,9.2-13.96,18.66-2.64,9.46,2.54,15.08,4.39,15.59,1.84,.52,14.76-17.3,16.86-24.11Z"/></g><g><path class="n" d="M108.89,388.32c-32.14,31.77-31.93,38.95-41.06,19.14-5.06-10.97-18.79-26.46-7.25-46.45,11.54-20,49.93-47.7,52.4-20.81,1.28,13.93,12.33,31.89-4.09,48.12Z"/><path class="q" d="M80.12,326.78c-10.66-3.52-32.44-18.45-20.59,.06,1.18,1.84,9.91,13.41,20.57,16.93,10.66,3.52,17.35-2.11,18.03-4.18,.69-2.08-7.36-9.29-18.02-12.81Z"/><path class="q" d="M119.23,313.74c3.16-10.22,14-21.49-7.42-10.33-1.73,.9-11.53,9.37-14.22,19.01-2.69,9.64,2.59,15.36,4.47,15.88,1.88,.52,15.04-17.63,17.18-24.56Z"/></g><g><path class="n" d="M186.83,375.39c-22.55,30.54-21.44,36.46-31.59,21.21-5.62-8.44-19.03-19.51-12.04-37.6,6.98-18.09,35.24-46.06,40.78-24.07,2.87,11.39,14.37,24.86,2.86,40.46Z"/><path class="q" d="M154.97,328.06c-9.3-1.54-29.31-11.1-17.07,2.72,1.22,1.38,9.96,9.84,19.26,11.38s14.12-4,14.42-5.81c.3-1.81-7.31-6.75-16.61-8.29Z"/><path class="q" d="M185.73,312.17c1.29-8.89,8.82-19.65-7.5-7.61-1.32,.97-8.35,9.28-9.33,17.62-.98,8.35,4.15,12.41,5.77,12.6s10.19-16.58,11.06-22.61Z"/></g><g><path class="n" d="M133.43,415.15c-27,26.68-26.82,32.71-34.49,16.07-4.25-9.21-15.78-22.22-6.09-39.01,9.7-16.79,41.93-40.06,44.01-17.48,1.07,11.7,10.36,26.79-3.43,40.42Z"/><path class="q" d="M109.27,363.47c-8.95-2.96-27.25-15.5-17.29,.05,.99,1.55,8.32,11.26,17.27,14.22s14.57-1.77,15.15-3.51c.58-1.74-6.18-7.8-15.13-10.76Z"/><path class="q" d="M142.12,352.52c2.65-8.58,11.76-18.05-6.24-8.68-1.45,.76-9.68,7.87-11.95,15.97-2.26,8.09,2.18,12.9,3.75,13.34s12.63-14.81,14.43-20.63Z"/></g><g><path class="n" d="M132.14,360.99c-21.96,30.15-20.84,35.97-30.91,21.04-5.58-8.26-18.82-19.05-12.07-36.87,6.75-17.82,34.33-45.48,39.92-23.91,2.89,11.18,14.28,24.34,3.06,39.74Z"/><path class="q" d="M100.54,314.68c-9.15-1.45-28.87-10.72-16.76,2.78,1.21,1.34,9.85,9.61,19,11.06s13.85-4.02,14.13-5.8c.28-1.78-7.23-6.59-16.38-8.04Z"/><path class="q" d="M130.67,298.87c1.22-8.74,8.55-19.36-7.42-7.43-1.29,.96-8.15,9.17-9.06,17.37s4.15,12.17,5.75,12.34,9.91-16.36,10.73-22.29Z"/></g><g><path class="n" d="M153.71,390.93c-26.53,26.22-26.35,32.14-33.89,15.79-4.17-9.05-15.51-21.83-5.98-38.34,9.53-16.5,41.21-39.37,43.24-17.17,1.06,11.5,10.18,26.32-3.37,39.72Z"/><path class="q" d="M129.96,340.14c-8.8-2.9-26.77-15.23-16.99,.05,.97,1.52,8.18,11.07,16.97,13.97s14.32-1.74,14.88-3.45c.57-1.71-6.07-7.66-14.87-10.57Z"/><path class="q" d="M162.24,329.38c2.61-8.43,11.55-17.73-6.13-8.53-1.43,.74-9.52,7.74-11.74,15.69-2.22,7.95,2.14,12.68,3.69,13.11s12.41-14.55,14.18-20.27Z"/></g><g><path class="n" d="M238.35,448.92c-26.53,26.22-26.35,32.14-33.89,15.79-4.17-9.05-15.51-21.83-5.98-38.34,9.53-16.5,41.21-39.37,43.24-17.17,1.06,11.5,10.18,26.32-3.37,39.72Z"/><path class="q" d="M214.61,398.14c-8.8-2.9-26.77-15.23-16.99,.05,.97,1.52,8.18,11.07,16.97,13.97,8.8,2.9,14.32-1.74,14.88-3.45,.57-1.71-6.07-7.66-14.87-10.57Z"/><path class="q" d="M246.89,387.38c2.61-8.43,11.55-17.73-6.13-8.53-1.43,.74-9.52,7.74-11.74,15.69s2.14,12.68,3.69,13.11,12.41-14.55,14.18-20.27Z"/></g><g><path class="n" d="M228.35,395.92c-26.53,26.22-26.35,32.14-33.89,15.79-4.17-9.05-15.51-21.83-5.98-38.34,9.53-16.5,41.21-39.37,43.24-17.17,1.06,11.5,10.18,26.32-3.37,39.72Z"/><path class="q" d="M204.61,345.14c-8.8-2.9-26.77-15.23-16.99,.05,.97,1.52,8.18,11.07,16.97,13.97,8.8,2.9,14.32-1.74,14.88-3.45,.57-1.71-6.07-7.66-14.87-10.57Z"/><path class="q" d="M236.89,334.38c2.61-8.43,11.55-17.73-6.13-8.53-1.43,.74-9.52,7.74-11.74,15.69s2.14,12.68,3.69,13.11,12.41-14.55,14.18-20.27Z"/></g><g><path class="n" d="M173.73,413.2c-26.53,26.22-26.35,32.14-33.89,15.79-4.17-9.05-15.51-21.83-5.98-38.34,9.53-16.5,41.21-39.37,43.24-17.17,1.06,11.5,10.18,26.32-3.37,39.72Z"/><path class="q" d="M149.99,362.41c-8.8-2.9-26.77-15.23-16.99,.05,.97,1.52,8.18,11.07,16.97,13.97,8.8,2.9,14.32-1.74,14.88-3.45,.57-1.71-6.07-7.66-14.87-10.57Z"/><path class="q" d="M182.27,351.65c2.61-8.43,11.55-17.73-6.13-8.53-1.43,.74-9.52,7.74-11.74,15.69s2.14,12.68,3.69,13.11,12.41-14.55,14.18-20.27Z"/></g><g><path class="n" d="M117.35,451.92c-26.53,26.22-26.35,32.14-33.89,15.79-4.17-9.05-15.51-21.83-5.98-38.34,9.53-16.5,41.21-39.37,43.24-17.17,1.06,11.5,10.18,26.32-3.37,39.72Z"/><path class="q" d="M93.61,401.14c-8.8-2.9-26.77-15.23-16.99,.05,.97,1.52,8.18,11.07,16.97,13.97,8.8,2.9,14.32-1.74,14.88-3.45,.57-1.71-6.07-7.66-14.87-10.57Z"/><path class="q" d="M125.89,390.38c2.61-8.43,11.55-17.73-6.13-8.53-1.43,.74-9.52,7.74-11.74,15.69s2.14,12.68,3.69,13.11,12.41-14.55,14.18-20.27Z"/></g><g><path class="n" d="M211.17,446.35c-13.19,34.89-10.56,40.2-24.22,28.48-7.57-6.49-23.2-13.38-21.41-32.35,1.78-18.97,21.05-52.96,32.15-33.64,5.75,10.01,20.22,19.68,13.49,37.51Z"/><path class="q" d="M168.43,410.08c-9.21,1.03-30.68-2.68-15.42,7.13,1.52,.98,12.05,6.65,21.25,5.63,9.21-1.03,12.29-7.55,12.09-9.34-.2-1.79-8.71-4.44-17.92-3.41Z"/><path class="q" d="M193.28,386.84c-1.15-8.75,3.11-20.94-9.13-5.2-.99,1.27-5.42,11-4.13,19.15,1.29,8.16,7.23,10.63,8.82,10.38s5.21-18.4,4.44-24.33Z"/></g><g><path class="n" d="M68.35,455.92c-26.53,26.22-26.35,32.14-33.89,15.79-4.17-9.05-15.51-21.83-5.98-38.34,9.53-16.5,41.21-39.37,43.24-17.17,1.06,11.5,10.18,26.32-3.37,39.72Z"/><path class="q" d="M44.61,405.14c-8.8-2.9-26.77-15.23-16.99,.05,.97,1.52,8.18,11.07,16.97,13.97,8.8,2.9,14.32-1.74,14.88-3.45,.57-1.71-6.07-7.66-14.87-10.57Z"/><path class="q" d="M76.89,394.38c2.61-8.43,11.55-17.73-6.13-8.53-1.43,.74-9.52,7.74-11.74,15.69s2.14,12.68,3.69,13.11,12.41-14.55,14.18-20.27Z"/></g><g><path class="n" d="M61.35,388.92c-26.53,26.22-26.35,32.14-33.89,15.79-4.17-9.05-15.51-21.83-5.98-38.34,9.53-16.5,41.21-39.37,43.24-17.17,1.06,11.5,10.18,26.32-3.37,39.72Z"/><path class="q" d="M37.61,338.14c-8.8-2.9-26.77-15.23-16.99,.05,.97,1.52,8.18,11.07,16.97,13.97,8.8,2.9,14.32-1.74,14.88-3.45,.57-1.71-6.07-7.66-14.87-10.57Z"/><path class="q" d="M69.89,327.38c2.61-8.43,11.55-17.73-6.13-8.53-1.43,.74-9.52,7.74-11.74,15.69s2.14,12.68,3.69,13.11,12.41-14.55,14.18-20.27Z"/></g><g><path class="n" d="M192.35,289.92c-26.53,26.22-26.35,32.14-33.89,15.79-4.17-9.05-15.51-21.83-5.98-38.34,9.53-16.5,41.21-39.37,43.24-17.17,1.06,11.5,10.18,26.32-3.37,39.72Z"/><path class="q" d="M168.61,239.14c-8.8-2.9-26.77-15.23-16.99,.05,.97,1.52,8.18,11.07,16.97,13.97s14.32-1.74,14.88-3.45c.57-1.71-6.07-7.66-14.87-10.57Z"/><path class="q" d="M200.89,228.38c2.61-8.43,11.55-17.73-6.13-8.53-1.43,.74-9.52,7.74-11.74,15.69-2.22,7.95,2.14,12.68,3.69,13.11s12.41-14.55,14.18-20.27Z"/></g><g><path class="m" d="M269.4,408.65h0c-3.14-2.05-3.83,2.2-3.84,4.93l-.53,25.59c-.01,4.94,2.6,6.11,4.71,6.12h0c3.82,1.47,3.83-2.2,3.84-4.93l.04-13.96c0-2.73-2.2-16.87-4.22-17.75Z"/><path class="m" d="M270.47,44.4h0c-3.14-2.05-3.83,2.2-3.84,4.93l-.53,25.59c-.01,4.94,2.6,6.11,4.71,6.12h0c3.82,1.47,3.83-2.2,3.84-4.93l.04-13.96c0-2.73-2.2-16.87-4.22-17.75Z"/><path class="m" d="M270.29,103.44h0c-3.14-2.05-3.83,2.2-3.84,4.93l-.53,25.59c-.01,4.94,2.6,6.11,4.71,6.12h0c3.82,1.47,3.83-2.2,3.84-4.93l.04-13.96c0-2.73-2.2-16.87-4.22-17.75Z"/><path class="m" d="M270.11,165.39h0c-3.14-2.05-3.83,2.2-3.84,4.93l-.53,25.59c-.01,4.94,2.6,6.11,4.71,6.12h0c3.82,1.47,3.83-2.2,3.84-4.93l.04-13.96c0-2.73-2.2-16.87-4.22-17.75Z"/><path class="m" d="M269.92,231.69h0c-3.14-2.05-3.83,2.2-3.84,4.93l-.53,25.59c-.01,4.94,2.6,6.11,4.71,6.12h0c3.82,1.47,3.83-2.2,3.84-4.93l.04-13.96c0-2.73-2.2-16.87-4.22-17.75Z"/><path class="m" d="M269.73,295.38h0c-3.14-2.05-3.83,2.2-3.84,4.93l-.53,25.59c-.01,4.94,2.6,6.11,4.71,6.12h0c3.82,1.47,3.83-2.2,3.84-4.93l.04-13.96c0-2.73-2.2-16.87-4.22-17.75Z"/><path class="m" d="M269.56,352.39h0c-3.14-2.05-3.83,2.2-3.84,4.93l-.53,25.59c-.01,4.94,2.6,6.11,4.71,6.12h0c3.82,1.47,3.83-2.2,3.84-4.93l.04-13.96c0-2.73-2.2-16.87-4.22-17.75Z"/></g><g><path class="m" d="M811.11,411.66h0c3.14-2.05,3.83,2.2,3.84,4.93l.53,25.59c.01,4.94-2.6,6.11-4.71,6.12h0c-3.82,1.47-3.83-2.2-3.84-4.93l-.04-13.96c0-2.73,2.2-16.87,4.22-17.75Z"/><path class="m" d="M810.04,47.41h0c3.14-2.05,3.83,2.2,3.84,4.93l.53,25.59c.01,4.94-2.6,6.11-4.71,6.12h0c-3.82,1.47-3.83-2.2-3.84-4.93l-.04-13.96c0-2.73,2.2-16.87,4.22-17.75Z"/><path class="m" d="M810.22,106.45h0c3.14-2.05,3.83,2.2,3.84,4.93l.53,25.59c.01,4.94-2.6,6.11-4.71,6.12h0c-3.82,1.47-3.83-2.2-3.84-4.93l-.04-13.96c0-2.73,2.2-16.87,4.22-17.75Z"/><path class="m" d="M810.4,168.39h0c3.14-2.05,3.83,2.2,3.84,4.93l.53,25.59c.01,4.94-2.6,6.11-4.71,6.12h0c-3.82,1.47-3.83-2.2-3.84-4.93l-.04-13.96c0-2.73,2.2-16.87,4.22-17.75Z"/><path class="m" d="M810.59,234.7h0c3.14-2.05,3.83,2.2,3.84,4.93l.53,25.59c.01,4.94-2.6,6.11-4.71,6.12h0c-3.82,1.47-3.83-2.2-3.84-4.93l-.04-13.96c0-2.73,2.2-16.87,4.22-17.75Z"/><path class="m" d="M810.78,298.39h0c3.14-2.05,3.83,2.2,3.84,4.93l.53,25.59c.01,4.94-2.6,6.11-4.71,6.12h0c-3.82,1.47-3.83-2.2-3.84-4.93l-.04-13.96c0-2.73,2.2-16.87,4.22-17.75Z"/><path class="m" d="M810.95,355.39h0c3.14-2.05,3.83,2.2,3.84,4.93l.53,25.59c.01,4.94-2.6,6.11-4.71,6.12h0c-3.82,1.47-3.83-2.2-3.84-4.93l-.04-13.96c0-2.73,2.2-16.87,4.22-17.75Z"/></g><path class="m" d="M788.01,389.09c17.98,101.64-278.65-11.83-396.4,53.32-113.52,62.81-120.34-392.81-27.92-380.45,158.83,21.24,237.57-35.24,386.79,3.16,74.59,19.2-.55,108.76,37.53,323.97Z"/><g><path class="m" d="M763.83,459.58h0c-2.06-3.14,2.18-3.85,4.91-3.87l25.56-.63c4.94-.03,6.12,2.57,6.13,4.69h0c1.48,3.82-2.18,3.85-4.91,3.87l-13.94,.1c-2.73,.02-16.86-2.14-17.75-4.16Z"/><path class="m" d="M400.06,462.13h0c-2.06-3.14,2.18-3.85,4.91-3.87l25.56-.63c4.94-.03,6.12,2.57,6.13,4.69h0c1.48,3.82-2.18,3.85-4.91,3.87l-13.94,.1c-2.73,.02-16.86-2.14-17.75-4.16Z"/><path class="m" d="M459.02,461.72h0c-2.06-3.14,2.18-3.85,4.91-3.87l25.56-.63c4.94-.03,6.12,2.57,6.13,4.69h0c1.48,3.82-2.18,3.85-4.91,3.87l-13.94,.1c-2.73,.02-16.86-2.14-17.75-4.16Z"/><path class="m" d="M520.88,461.28h0c-2.06-3.14,2.18-3.85,4.91-3.87l25.56-.63c4.94-.03,6.12,2.57,6.13,4.69h0c1.48,3.82-2.18,3.85-4.91,3.87l-13.94,.1c-2.73,.02-16.86-2.14-17.75-4.16Z"/><path class="m" d="M587.11,460.82h0c-2.06-3.14,2.18-3.85,4.91-3.87l25.56-.63c4.94-.03,6.12,2.57,6.13,4.69h0c1.48,3.82-2.18,3.85-4.91,3.87l-13.94,.1c-2.73,.02-16.86-2.14-17.75-4.16Z"/><path class="m" d="M650.71,460.37h0c-2.06-3.14,2.18-3.85,4.91-3.87l25.56-.63c4.94-.03,6.12,2.57,6.13,4.69h0c1.48,3.82-2.18,3.85-4.91,3.87l-13.94,.1c-2.73,.02-16.86-2.14-17.75-4.16Z"/><path class="m" d="M707.64,459.97h0c-2.06-3.14,2.18-3.85,4.91-3.87l25.56-.63c4.94-.03,6.12,2.57,6.13,4.69h0c1.48,3.82-2.18,3.85-4.91,3.87l-13.94,.1c-2.73,.02-16.86-2.14-17.75-4.16Z"/><path class="m" d="M285.78,462.55h0c-2.06-3.14,2.18-3.85,4.91-3.87l25.56-.63c4.94-.03,6.12,2.57,6.13,4.69h0c1.48,3.82-2.18,3.85-4.91,3.87l-13.94,.1c-2.73,.02-16.86-2.14-17.75-4.16Z"/><path class="m" d="M344.74,462.14h0c-2.06-3.14,2.18-3.85,4.91-3.87l25.56-.63c4.94-.03,6.12,2.57,6.13,4.69h0c1.48,3.82-2.18,3.85-4.91,3.87l-13.94,.1c-2.73,.02-16.86-2.14-17.75-4.16Z"/></g><g><path class="m" d="M768.23,37.4h0c-2.06-3.14,2.18-3.85,4.91-3.87l25.56-.63c4.94-.03,6.12,2.57,6.13,4.69h0c1.48,3.82-2.18,3.85-4.91,3.87l-13.94,.1c-2.73,.02-16.86-2.14-17.75-4.16Z"/><path class="m" d="M404.46,39.95h0c-2.06-3.14,2.18-3.85,4.91-3.87l25.56-.63c4.94-.03,6.12,2.57,6.13,4.69h0c1.48,3.82-2.18,3.85-4.91,3.87l-13.94,.1c-2.73,.02-16.86-2.14-17.75-4.16Z"/><path class="m" d="M463.42,39.54h0c-2.06-3.14,2.18-3.85,4.91-3.87l25.56-.63c4.94-.03,6.12,2.57,6.13,4.69h0c1.48,3.82-2.18,3.85-4.91,3.87l-13.94,.1c-2.73,.02-16.86-2.14-17.75-4.16Z"/><path class="m" d="M525.28,39.11h0c-2.06-3.14,2.18-3.85,4.91-3.87l25.56-.63c4.94-.03,6.12,2.57,6.13,4.69h0c1.48,3.82-2.18,3.85-4.91,3.87l-13.94,.1c-2.73,.02-16.86-2.14-17.75-4.16Z"/><path class="m" d="M591.5,38.64h0c-2.06-3.14,2.18-3.85,4.91-3.87l25.56-.63c4.94-.03,6.12,2.57,6.13,4.69h0c1.48,3.82-2.18,3.85-4.91,3.87l-13.94,.1c-2.73,.02-16.86-2.14-17.75-4.16Z"/><path class="m" d="M655.11,38.2h0c-2.06-3.14,2.18-3.85,4.91-3.87l25.56-.63c4.94-.03,6.12,2.57,6.13,4.69h0c1.48,3.82-2.18,3.85-4.91,3.87l-13.94,.1c-2.73,.02-16.86-2.14-17.75-4.16Z"/><path class="m" d="M712.04,37.8h0c-2.06-3.14,2.18-3.85,4.91-3.87l25.56-.63c4.94-.03,6.12,2.57,6.13,4.69h0c1.48,3.82-2.18,3.85-4.91,3.87l-13.94,.1c-2.73,.02-16.86-2.14-17.75-4.16Z"/><path class="m" d="M290.18,40.38h0c-2.06-3.14,2.18-3.85,4.91-3.87l25.56-.63c4.94-.03,6.12,2.57,6.13,4.69h0c1.48,3.82-2.18,3.85-4.91,3.87l-13.94,.1c-2.73,.02-16.86-2.14-17.75-4.16Z"/><path class="m" d="M349.14,39.96h0c-2.06-3.14,2.18-3.85,4.91-3.87l25.56-.63c4.94-.03,6.12,2.57,6.13,4.69h0c1.48,3.82-2.18,3.85-4.91,3.87l-13.94,.1c-2.73,.02-16.86-2.14-17.75-4.16Z"/></g><g><path class="t" d="M399.93,148.03c-1.83-.07-2.11-1.22-2.11-2.79,0-6.46,2.99-11.64,3.94-14.36,.14-.41,.2-.75,.2-1.09,0-.48-.27-.95-.82-1.63-3.26-3.95-11.08-12.59-11.08-29.67,0-1.97,.68-2.31,2.11-2.45,1.63-.2,3.53-.2,5.5-.2s3.81,.07,4.96,.14c2.38,.14,2.58,1.02,2.45,2.18-.2,1.36-.68,4.83-.68,8.37,0,6.67,2.31,11.98,4.28,13.75,.48,.48,.82,.68,1.29,.68,.34,0,.68-.2,1.02-.48,2.04-2.18,4.01-9.32,4.01-15.45,0-4.15-.41-6.26-.41-7.42,0-1.02,.54-1.43,1.5-1.57,1.02-.07,2.79-.14,4.55-.14,2.17,0,4.42,.07,5.78,.2,2.17,.14,2.65,.61,2.65,2.72,0,10.62-3.87,17.01-7.54,23.21-3.26,5.65-6.39,11.16-6.39,19.6,0,1.97,.41,3.61,.41,4.83,0,.75-.27,1.5-1.83,1.57-1.63,.07-4.21,.14-6.8,.14s-5.23-.07-7-.14Z"/><path class="t" d="M443.97,148.91c-12.23,0-16.31-9.39-16.31-20.82,0-16.81,8.56-23.68,18.76-23.68,6.86,0,12.23,3.67,12.23,11.3,0,11.64-9.72,13-15.7,15.65-2.11,.75-2.99,1.36-2.99,2.52,0,1.97,1.43,3.54,4.69,3.54,4.69,0,8.97-2.04,11.62-5.51,.41-.34,.68-.54,1.02-.54,.95,0,1.7,1.77,1.7,4.97,0,7.89-7,12.59-15.02,12.59Zm.95-35.05c-3.74,0-6.32,4.08-6.32,8.78,0,.68,.2,1.22,.82,1.22,.41,0,.88-.14,1.29-.34,2.72-1.63,7.34-3.33,7.34-6.6,0-1.77-1.16-3.06-3.13-3.06Z"/><path class="t" d="M477.75,148.91c-12.23,0-16.31-9.39-16.31-20.82,0-16.81,8.56-23.68,18.76-23.68,6.86,0,12.23,3.67,12.23,11.3,0,11.64-9.72,13-15.7,15.65-2.11,.75-2.99,1.36-2.99,2.52,0,1.97,1.43,3.54,4.69,3.54,4.69,0,8.97-2.04,11.62-5.51,.41-.34,.68-.54,1.02-.54,.95,0,1.7,1.77,1.7,4.97,0,7.89-7,12.59-15.02,12.59Zm.95-35.05c-3.74,0-6.32,4.08-6.32,8.78,0,.68,.2,1.22,.82,1.22,.41,0,.88-.14,1.29-.34,2.72-1.63,7.34-3.33,7.34-6.6,0-1.77-1.16-3.06-3.13-3.06Z"/><path class="t" d="M511.53,148.91c-12.23,0-16.31-9.39-16.31-20.82,0-16.81,8.56-23.68,18.76-23.68,6.86,0,12.23,3.67,12.23,11.3,0,11.64-9.72,13-15.7,15.65-2.11,.75-2.99,1.36-2.99,2.52,0,1.97,1.43,3.54,4.69,3.54,4.69,0,8.97-2.04,11.62-5.51,.41-.34,.68-.54,1.02-.54,.95,0,1.7,1.77,1.7,4.97,0,7.89-7,12.59-15.02,12.59Zm.95-35.05c-3.74,0-6.32,4.08-6.32,8.78,0,.68,.2,1.22,.82,1.22,.41,0,.88-.14,1.29-.34,2.72-1.63,7.34-3.33,7.34-6.6,0-1.77-1.16-3.06-3.13-3.06Z"/><path class="t" d="M545.31,148.91c-12.23,0-16.31-9.39-16.31-20.82,0-16.81,8.56-23.68,18.76-23.68,6.86,0,12.23,3.67,12.23,11.3,0,11.64-9.72,13-15.7,15.65-2.11,.75-2.99,1.36-2.99,2.52,0,1.97,1.43,3.54,4.69,3.54,4.69,0,8.97-2.04,11.62-5.51,.41-.34,.68-.54,1.02-.54,.95,0,1.7,1.77,1.7,4.97,0,7.89-7,12.59-15.02,12.59Zm.95-35.05c-3.74,0-6.32,4.08-6.32,8.78,0,.68,.2,1.22,.82,1.22,.41,0,.88-.14,1.29-.34,2.72-1.63,7.34-3.33,7.34-6.6,0-1.77-1.16-3.06-3.13-3.06Z"/><path class="t" d="M565.02,135.71c1.9,0,4.42,.41,6.59,.48,2.45,0,4.28-.34,4.28-1.77,0-.41-.34-.75-.88-1.02-8.09-3.95-11.76-10.21-11.76-25.52,0-1.84,.54-2.45,2.24-2.59,1.22-.14,2.72-.2,4.35-.2s3.47,.07,5.1,.2c.75,.07,1.43,.27,1.43,1.23,0,.68-.27,2.86-.27,4.9,0,8.58,3.06,15.24,5.44,15.24,.48,0,.82-.27,1.02-.95,.75-2.31,1.16-6.81,1.16-11.16,0-3.4-.48-7.08-.48-7.89,0-.88,.75-1.29,1.43-1.36,1.16-.14,2.92-.14,4.49-.14s3.19,0,4.08,.14c1.9,.27,2.45,1.7,2.45,3.74,0,23.55-4.49,40.15-30.31,40.15-1.83,0-2.24-.75-2.38-2.18-.07-.95-.14-2.04-.14-3.27,0-2.11,.14-4.36,.34-6.33,.14-1.16,.82-1.7,1.84-1.7Z"/><path class="t" d="M599.82,135.71c1.9,0,4.42,.41,6.59,.48,2.45,0,4.28-.34,4.28-1.77,0-.41-.34-.75-.88-1.02-8.09-3.95-11.76-10.21-11.76-25.52,0-1.84,.54-2.45,2.24-2.59,1.22-.14,2.72-.2,4.35-.2s3.47,.07,5.1,.2c.75,.07,1.43,.27,1.43,1.23,0,.68-.27,2.86-.27,4.9,0,8.58,3.06,15.24,5.44,15.24,.48,0,.82-.27,1.02-.95,.75-2.31,1.16-6.81,1.16-11.16,0-3.4-.48-7.08-.48-7.89,0-.88,.75-1.29,1.43-1.36,1.16-.14,2.92-.14,4.49-.14s3.19,0,4.08,.14c1.9,.27,2.45,1.7,2.45,3.74,0,23.55-4.49,40.15-30.31,40.15-1.83,0-2.24-.75-2.38-2.18-.07-.95-.14-2.04-.14-3.27,0-2.11,.14-4.36,.34-6.33,.14-1.16,.82-1.7,1.83-1.7Z"/><path class="t" d="M634.62,135.71c1.9,0,4.42,.41,6.59,.48,2.45,0,4.28-.34,4.28-1.77,0-.41-.34-.75-.88-1.02-8.09-3.95-11.76-10.21-11.76-25.52,0-1.84,.54-2.45,2.24-2.59,1.22-.14,2.72-.2,4.35-.2s3.47,.07,5.1,.2c.75,.07,1.43,.27,1.43,1.23,0,.68-.27,2.86-.27,4.9,0,8.58,3.06,15.24,5.44,15.24,.48,0,.82-.27,1.02-.95,.75-2.31,1.16-6.81,1.16-11.16,0-3.4-.48-7.08-.48-7.89,0-.88,.75-1.29,1.43-1.36,1.16-.14,2.92-.14,4.49-.14s3.19,0,4.08,.14c1.9,.27,2.45,1.7,2.45,3.74,0,23.55-4.49,40.15-30.31,40.15-1.83,0-2.24-.75-2.38-2.18-.07-.95-.14-2.04-.14-3.27,0-2.11,.14-4.36,.34-6.33,.14-1.16,.82-1.7,1.83-1.7Z"/><path class="t" d="M683.22,96.24c.95,.14,1.29,.68,1.29,1.43,0,1.77-2.72,8.3-3.74,31.51-.07,1.84-.82,2.38-4.15,2.72-1.02,.14-1.9,.14-2.65,.14-1.7,0-2.51-.34-2.85-1.56-1.5-5.79-2.45-12.18-2.85-19.8-.2-4.08-.27-7.42-.27-11.71,.07-1.5,.41-2.59,2.58-2.79,1.63-.14,3.87-.2,6.19-.2s4.76,.07,6.46,.27Zm-14.88,45.66c0-4.42,2.92-7.01,7.48-7.01s7.48,2.59,7.48,7.01-2.72,6.67-7.48,6.67-7.48-2.31-7.48-6.67Z"/><path class="t" d="M702.18,96.24c.95,.14,1.29,.68,1.29,1.43,0,1.77-2.72,8.3-3.74,31.51-.07,1.84-.82,2.38-4.15,2.72-1.02,.14-1.9,.14-2.65,.14-1.7,0-2.51-.34-2.85-1.56-1.5-5.79-2.45-12.18-2.85-19.8-.2-4.08-.27-7.42-.27-11.71,.07-1.5,.41-2.59,2.58-2.79,1.63-.14,3.87-.2,6.18-.2s4.76,.07,6.46,.27Zm-14.88,45.66c0-4.42,2.92-7.01,7.48-7.01s7.48,2.59,7.48,7.01-2.72,6.67-7.48,6.67-7.48-2.31-7.48-6.67Z"/></g><g><path class="t" d="M369.64,212.28c-.72-.03-.82-.48-.82-1.09,0-2.53,1.17-4.54,1.54-5.61,.05-.16,.08-.29,.08-.43,0-.19-.11-.37-.32-.64-1.27-1.54-4.33-4.92-4.33-11.59,0-.77,.27-.9,.82-.96,.64-.08,1.38-.08,2.15-.08s1.49,.03,1.94,.05c.93,.05,1.01,.4,.96,.85-.08,.53-.27,1.89-.27,3.27,0,2.6,.9,4.68,1.67,5.37,.19,.19,.32,.27,.5,.27,.13,0,.27-.08,.4-.19,.8-.85,1.57-3.64,1.57-6.03,0-1.62-.16-2.45-.16-2.9,0-.4,.21-.56,.58-.61,.4-.03,1.09-.05,1.78-.05,.85,0,1.73,.03,2.26,.08,.85,.05,1.04,.24,1.04,1.06,0,4.15-1.51,6.65-2.95,9.06-1.27,2.21-2.5,4.36-2.5,7.66,0,.77,.16,1.41,.16,1.89,0,.29-.11,.58-.72,.61-.64,.03-1.65,.05-2.65,.05s-2.04-.03-2.74-.05Z"/><path class="t" d="M380.39,204.04c0-5.26,2.26-8.82,6.74-8.82s6.35,3.4,6.35,8.82c0,6.03-2.92,8.59-6.72,8.59s-6.37-2.55-6.37-8.59Zm8.42-.37c0-3.06-.69-4.49-1.86-4.49-1.25,0-1.91,1.44-1.91,4.49s.53,4.36,1.89,4.36,1.88-1.38,1.88-4.36Z"/><path class="t" d="M394.89,204.09c0-2.23,.37-6.49,.56-7.66,.08-.56,.32-.8,.74-.85,.53-.03,1.19-.05,1.83-.05s1.17,.03,1.62,.05c.45,.05,.58,.27,.58,.61,0,.85-.4,5.45-.4,8.9,0,2.18,.5,2.9,1.38,2.9,.45,0,.8-.16,1.09-.43,.53-.5,.74-1.41,.74-3.19,0-4.71-.4-7.52-.42-8.03-.03-.53,.19-.72,.69-.77,.4-.05,.9-.05,1.43-.05,.66,0,1.3,0,1.81,.05,.5,.03,.8,.19,.88,.93,.27,2.15,.37,4.44,.37,6.96,0,2.31-.11,4.84-.34,7.66-.05,.8-.56,1.04-1.17,1.09-.42,.05-.96,.05-1.43,.05-.37,0-.74,0-1.01-.03-.45-.05-.64-.24-.64-.67,0-.37-.13-.5-.42-.5-.85,0-1.99,1.44-3.88,1.44-2.97,0-4.01-2.07-4.01-8.43Z"/><path class="t" d="M414.13,204.78c0-6.11,1.91-9.54,4.7-9.54,1.33,0,2.31,.82,2.95,1.38,.08,.08,.19,.11,.26,.11,.16,0,.27-.11,.27-.37,0-1.62-.66-4.62-.66-5.18,0-.4,.27-.56,.64-.58,.48-.03,.98-.05,1.49-.05,.72,0,1.46,.03,2.15,.08,.45,.05,.74,.19,.82,.9,.29,2.21,.58,7.02,.58,11.48,0,2.98-.13,5.85-.42,7.79-.05,.4-.32,.77-.82,.96-.85,.32-2.5,.69-5.31,.69-4.7,0-6.64-2.34-6.64-7.66Zm8.39-1.7c0-2.92-.8-3.96-1.75-3.96-1.04,0-1.67,1.2-1.67,5.02,0,3.56,.64,4.6,1.8,4.6,1.27,0,1.62-.72,1.62-5.66Z"/><path class="t" d="M434.47,212.28c-.64,.05-1.38,.08-2.15,.08s-1.51-.03-2.18-.08c-.27-.03-.61-.13-.66-.69-.21-1.78-.32-3.88-.32-6.06,0-3.22,.21-6.59,.66-9.28,.11-.53,.4-.64,.74-.66,.58-.05,1.12-.05,1.62-.05,.53,0,1.06,0,1.65,.05,.4,.03,.61,.21,.61,.53,0,.58-.19,3-.19,5.82,0,5.29,.72,8.93,.72,9.86,0,.32-.24,.45-.5,.48Zm-5.1-19.94c0-1.41,.93-2.29,2.89-2.29,2.07,0,2.89,.88,2.89,2.29s-.82,2.18-2.89,2.18c-1.96,0-2.89-.8-2.89-2.18Z"/><path class="t" d="M436.41,204.78c0-6.11,1.91-9.54,4.7-9.54,1.33,0,2.31,.82,2.95,1.38,.08,.08,.19,.11,.27,.11,.16,0,.27-.11,.27-.37,0-1.62-.66-4.62-.66-5.18,0-.4,.27-.56,.64-.58,.48-.03,.98-.05,1.49-.05,.72,0,1.46,.03,2.15,.08,.45,.05,.74,.19,.82,.9,.29,2.21,.58,7.02,.58,11.48,0,2.98-.13,5.85-.42,7.79-.05,.4-.32,.77-.82,.96-.85,.32-2.5,.69-5.31,.69-4.7,0-6.64-2.34-6.64-7.66Zm8.39-1.7c0-2.92-.8-3.96-1.75-3.96-1.04,0-1.67,1.2-1.67,5.02,0,3.56,.64,4.6,1.81,4.6,1.27,0,1.62-.72,1.62-5.66Z"/><path class="t" d="M461.39,212.28c-.64,.05-1.38,.08-2.15,.08s-1.51-.03-2.18-.08c-.27-.03-.61-.13-.66-.69-.21-1.78-.32-3.88-.32-6.06,0-3.22,.21-6.59,.66-9.28,.11-.53,.4-.64,.74-.66,.58-.05,1.11-.05,1.62-.05,.53,0,1.06,0,1.65,.05,.4,.03,.61,.21,.61,.53,0,.58-.19,3-.19,5.82,0,5.29,.72,8.93,.72,9.86,0,.32-.24,.45-.5,.48Zm-5.1-19.94c0-1.41,.93-2.29,2.89-2.29,2.07,0,2.89,.88,2.89,2.29s-.82,2.18-2.89,2.18-2.89-.8-2.89-2.18Z"/><path class="t" d="M470.2,192.18c-.08,.34-.85,2.05-.85,3.14,0,.24,.13,.37,.5,.37,.27,0,.82-.11,1.19-.11,.24,0,.37,.16,.42,.48,.08,.45,.13,1.09,.13,1.78s-.05,1.46-.19,2.13c-.05,.24-.21,.32-.4,.32-.35,0-.8-.13-1.27-.13-.42,0-.53,.32-.56,.77-.05,.45-.08,1.04-.08,1.65,0,2.76,.61,5.85,1.22,8.24,.03,.19,.11,.37,.11,.5,0,.21-.11,.35-.29,.48-.98,.64-3.13,1.06-4.35,1.06-.37,0-.58-.08-.69-.37-.53-1.46-.82-4.81-.85-7.79,0-1.52,.08-2.95,.11-3.75,.03-.45-.11-.64-.4-.64-.21,0-.45,.03-.61,.03-.24,0-.37-.13-.4-.45-.03-.19-.05-.4-.05-.66,0-1.04,.13-2.29,.26-2.98,.08-.5,.29-.64,.58-.64,.21,0,.4,.03,.58,.03,.64,0,.66-.58,.82-1.94,.03-.58,.19-.8,.58-1.04,1.3-.72,3.61-.96,4.12-.96,.29,0,.4,.21,.34,.48Z"/><path class="t" d="M478.46,192.05c.37,.05,.5,.27,.5,.56,0,.69-1.06,3.24-1.46,12.31-.03,.72-.32,.93-1.62,1.06-.4,.05-.74,.05-1.04,.05-.66,0-.98-.13-1.12-.61-.58-2.26-.96-4.76-1.12-7.74-.08-1.59-.11-2.9-.11-4.57,.03-.58,.16-1.01,1.01-1.09,.64-.05,1.51-.08,2.42-.08s1.86,.03,2.52,.11Zm-5.81,17.83c0-1.73,1.14-2.74,2.92-2.74s2.92,1.01,2.92,2.74-1.06,2.61-2.92,2.61-2.92-.9-2.92-2.61Z"/><path class="t" d="M506.7,212.28c-.72-.03-.82-.48-.82-1.09,0-2.53,1.17-4.54,1.54-5.61,.05-.16,.08-.29,.08-.43,0-.19-.11-.37-.32-.64-1.27-1.54-4.33-4.92-4.33-11.59,0-.77,.27-.9,.82-.96,.64-.08,1.38-.08,2.15-.08s1.49,.03,1.94,.05c.93,.05,1.01,.4,.96,.85-.08,.53-.27,1.89-.27,3.27,0,2.6,.9,4.68,1.67,5.37,.19,.19,.32,.27,.5,.27,.13,0,.27-.08,.4-.19,.8-.85,1.57-3.64,1.57-6.03,0-1.62-.16-2.45-.16-2.9,0-.4,.21-.56,.58-.61,.4-.03,1.09-.05,1.78-.05,.85,0,1.73,.03,2.26,.08,.85,.05,1.04,.24,1.04,1.06,0,4.15-1.51,6.65-2.95,9.06-1.27,2.21-2.5,4.36-2.5,7.66,0,.77,.16,1.41,.16,1.89,0,.29-.11,.58-.72,.61-.64,.03-1.65,.05-2.65,.05s-2.04-.03-2.74-.05Z"/><path class="t" d="M517.45,204.04c0-5.26,2.26-8.82,6.74-8.82s6.35,3.4,6.35,8.82c0,6.03-2.92,8.59-6.72,8.59s-6.37-2.55-6.37-8.59Zm8.42-.37c0-3.06-.69-4.49-1.86-4.49-1.25,0-1.91,1.44-1.91,4.49s.53,4.36,1.89,4.36,1.88-1.38,1.88-4.36Z"/><path class="t" d="M531.95,204.09c0-2.23,.37-6.49,.56-7.66,.08-.56,.32-.8,.74-.85,.53-.03,1.19-.05,1.83-.05s1.17,.03,1.62,.05c.45,.05,.58,.27,.58,.61,0,.85-.4,5.45-.4,8.9,0,2.18,.5,2.9,1.38,2.9,.45,0,.8-.16,1.09-.43,.53-.5,.74-1.41,.74-3.19,0-4.71-.4-7.52-.42-8.03-.03-.53,.19-.72,.69-.77,.4-.05,.9-.05,1.43-.05,.66,0,1.3,0,1.81,.05,.5,.03,.8,.19,.88,.93,.27,2.15,.37,4.44,.37,6.96,0,2.31-.11,4.84-.34,7.66-.05,.8-.56,1.04-1.17,1.09-.42,.05-.96,.05-1.43,.05-.37,0-.74,0-1.01-.03-.45-.05-.64-.24-.64-.67,0-.37-.13-.5-.42-.5-.85,0-1.99,1.44-3.88,1.44-2.97,0-4.01-2.07-4.01-8.43Z"/><path class="t" d="M556.4,208.61c.93,0,1.33-.37,1.33-1.04s-.48-1.12-1.94-1.81c-2.55-1.22-4.62-2.31-4.62-5.42s2.39-5.13,6.16-5.13c1.7,0,3.45,.42,4.35,.96,.4,.24,.5,.48,.5,.88,0,.98-.48,2.6-.9,3.48-.11,.24-.27,.32-.42,.32-.13,0-.27-.05-.37-.16-.98-.82-2.52-1.67-3.77-1.67-.85,0-1.27,.4-1.27,.96,0,.69,.48,1.01,1.99,1.7,2.36,1.06,4.99,2.31,4.99,5.61,0,3.56-2.28,5.34-5.76,5.34s-5.76-1.7-5.76-4.44c0-1.09,.27-1.91,.5-2.29,.11-.16,.24-.27,.4-.27,.13,0,.27,.05,.34,.21,.77,1.33,2.39,2.76,4.25,2.76Z"/><path class="t" d="M563.38,207.25c0-3.85,3.03-5.4,6.48-5.9,.82-.13,1.22-.32,1.22-.8,0-.82-.45-1.36-1.73-1.36-1.38,0-2.76,.58-4.01,1.7-.16,.16-.32,.24-.45,.24-.11,0-.24-.05-.35-.16-.5-.48-.98-1.33-.98-2.42,0-1.89,2.31-3.35,6.11-3.35,4.46,0,6.03,2.23,6.03,6.19,0,1.62-.13,4.17-.13,6.14,0,1.54,.21,3.3,.21,3.72,0,.45-.21,.74-.66,.82-.85,.19-3.77,.21-5.52,.21-4.06,0-6.21-1.51-6.21-5.05Zm7.73-1.89c0-.8-.11-1.01-.56-1.01-1.46,0-2.66,.85-2.66,2.23,0,1.17,.8,1.67,2.15,1.67,.85,0,1.06-.37,1.06-1.17v-1.73Z"/><path class="t" d="M583.79,212.38c-.24,.11-.45,.21-.69,.21-.21,0-.45-.08-.72-.21-3.64-1.99-5.39-6.06-5.39-13.56,0-.72,0-1.46,.08-2.21,.03-.66,.19-.93,.96-1.01,.48-.05,1.19-.08,1.88-.08s1.35,.03,1.75,.08c.24,.03,.42,.21,.42,.56,0,.88-.27,3.11-.27,5.58,0,1.65,.21,3.83,1.09,4.97,.11,.16,.21,.21,.35,.21,.11,0,.24-.05,.32-.21,.9-1.33,1.12-3.61,1.12-5.48,0-2.23-.27-4.47-.27-5.05,0-.43,.19-.56,.48-.58,.4-.08,1.06-.08,1.73-.08s1.3,0,1.78,.08c.74,.05,.82,.32,.9,1.09,.05,.66,.05,1.3,.05,1.94,0,7.87-1.96,11.83-5.58,13.74Z"/><path class="t" d="M596.54,212.62c-4.78,0-6.37-3.67-6.37-8.13,0-6.57,3.35-9.25,7.33-9.25,2.68,0,4.78,1.44,4.78,4.41,0,4.55-3.8,5.08-6.13,6.11-.82,.29-1.17,.53-1.17,.98,0,.77,.56,1.38,1.83,1.38,1.83,0,3.5-.8,4.54-2.15,.16-.13,.27-.21,.4-.21,.37,0,.66,.69,.66,1.94,0,3.08-2.73,4.92-5.87,4.92Zm.37-13.69c-1.46,0-2.47,1.59-2.47,3.43,0,.27,.08,.48,.32,.48,.16,0,.35-.05,.5-.13,1.06-.64,2.87-1.3,2.87-2.58,0-.69-.45-1.2-1.22-1.2Z"/><path class="t" d="M603.6,204.78c0-6.11,1.91-9.54,4.7-9.54,1.33,0,2.31,.82,2.95,1.38,.08,.08,.19,.11,.27,.11,.16,0,.27-.11,.27-.37,0-1.62-.66-4.62-.66-5.18,0-.4,.27-.56,.64-.58,.48-.03,.98-.05,1.49-.05,.72,0,1.46,.03,2.15,.08,.45,.05,.74,.19,.82,.9,.29,2.21,.58,7.02,.58,11.48,0,2.98-.13,5.85-.42,7.79-.05,.4-.32,.77-.82,.96-.85,.32-2.5,.69-5.31,.69-4.7,0-6.64-2.34-6.64-7.66Zm8.39-1.7c0-2.92-.8-3.96-1.75-3.96-1.04,0-1.67,1.2-1.67,5.02,0,3.56,.64,4.6,1.81,4.6,1.27,0,1.62-.72,1.62-5.66Z"/><path class="t" d="M622.84,204.04c0-5.26,2.26-8.82,6.74-8.82s6.35,3.4,6.35,8.82c0,6.03-2.92,8.59-6.72,8.59s-6.37-2.55-6.37-8.59Zm8.42-.37c0-3.06-.69-4.49-1.86-4.49-1.25,0-1.91,1.44-1.91,4.49s.53,4.36,1.89,4.36,1.88-1.38,1.88-4.36Z"/><path class="t" d="M637.34,204.09c0-2.23,.37-6.49,.56-7.66,.08-.56,.32-.8,.74-.85,.53-.03,1.2-.05,1.83-.05s1.17,.03,1.62,.05c.45,.05,.58,.27,.58,.61,0,.85-.4,5.45-.4,8.9,0,2.18,.5,2.9,1.38,2.9,.45,0,.8-.16,1.09-.43,.53-.5,.74-1.41,.74-3.19,0-4.71-.4-7.52-.42-8.03-.03-.53,.19-.72,.69-.77,.4-.05,.9-.05,1.43-.05,.66,0,1.3,0,1.8,.05,.5,.03,.8,.19,.88,.93,.27,2.15,.37,4.44,.37,6.96,0,2.31-.11,4.84-.34,7.66-.05,.8-.56,1.04-1.17,1.09-.43,.05-.96,.05-1.43,.05-.37,0-.74,0-1.01-.03-.45-.05-.64-.24-.64-.67,0-.37-.13-.5-.42-.5-.85,0-1.99,1.44-3.88,1.44-2.97,0-4.01-2.07-4.01-8.43Z"/><path class="t" d="M657.41,212.25c-.5,.03-1.12,.05-1.81,.05s-1.41,0-2.15-.05c-.37-.03-.64-.27-.74-.72-.32-1.36-.53-4.17-.53-7.6,0-4.62,.21-6.72,.45-7.6,.11-.43,.29-.58,.5-.67,.32-.08,1.19-.16,2.02-.16,.45,0,.88,0,1.19,.08,.29,.05,.37,.24,.4,.56,.03,.32,.16,.43,.29,.43s.27-.08,.45-.21c.53-.48,1.09-.93,1.67-.93,.48,0,.8,.61,.8,2.71,0,.98-.05,1.91-.21,2.39-.13,.45-.34,.56-.58,.56-.32,0-.74-.24-1.25-.24s-.93,.5-.93,2.58c0,3.35,1.12,7.66,1.12,8.19,0,.34-.16,.58-.69,.64Z"/><path class="t" d="M667.52,212.89c-.4,0-.69-.16-.9-1.01-.5-2.1-.77-5.58-.77-8.69,0-7.12,.56-7.97,5.04-7.97,6.03,0,7.67,2.71,7.67,6.25,0,5.79-2.95,8.69-5.02,8.69-1.22,0-2.07-1.81-2.52-1.81-.21,0-.32,.19-.32,.42,0,1.67,.53,2.74,.53,3.14,0,.29-.24,.42-.58,.5-.98,.19-2.47,.48-3.13,.48Zm3.05-9.86c0,2.63,.61,3.24,1.43,3.24,1.2,0,1.81-1.97,1.81-4.92,0-1.86-.66-2.63-1.99-2.63-.88,0-1.25,.8-1.25,4.31Z"/><path class="t" d="M685.15,212.28c-.64,.05-1.38,.08-2.15,.08s-1.51-.03-2.18-.08c-.27-.03-.61-.13-.66-.69-.21-1.78-.32-3.88-.32-6.06,0-3.22,.21-6.59,.66-9.28,.11-.53,.4-.64,.74-.66,.58-.05,1.12-.05,1.62-.05,.53,0,1.06,0,1.65,.05,.4,.03,.61,.21,.61,.53,0,.58-.19,3-.19,5.82,0,5.29,.72,8.93,.72,9.86,0,.32-.24,.45-.5,.48Zm-5.1-19.94c0-1.41,.93-2.29,2.89-2.29,2.07,0,2.89,.88,2.89,2.29s-.82,2.18-2.89,2.18c-1.96,0-2.89-.8-2.89-2.18Z"/><path class="t" d="M686.85,204.86c0-6.62,2.97-9.65,6.88-9.65,3.11,0,4.62,2.18,4.62,4.94,0,1.78-1.88,3.14-3.29,3.14-.37,0-.53-.11-.56-.42-.08-1.7-.11-3.35-1.19-3.35-.98,0-1.67,1.51-1.67,4.28,0,2.26,.45,3.91,2.18,3.91s2.68-1.3,3.24-2.52c.08-.16,.19-.24,.35-.24,.08,0,.19,.05,.29,.19,.42,.48,.82,1.33,.82,2.5,0,2.74-1.89,5-5.6,5-4.25,0-6.05-3.24-6.05-7.76Z"/><path class="t" d="M712.65,202.1c0,4.04-.4,8.29-.56,9.41-.08,.5-.35,.74-.74,.77-.42,.05-1.01,.05-1.62,.05-.66,0-1.3-.03-1.86-.05-.42-.05-.58-.24-.58-.56,0-1.22,.4-5.66,.4-9.14,0-1.89-.32-2.79-1.3-2.79-.48,0-.9,.16-1.22,.48-.45,.43-.64,1.17-.64,3.11,0,3.99,.37,7.42,.37,8.21,0,.48-.21,.67-.69,.69s-.98,.05-1.49,.05c-.66,0-1.3-.03-1.78-.05-.45-.03-.74-.16-.8-.85-.19-2.05-.32-4.65-.32-7.66,0-2.15,.05-4.52,.24-7.02,.05-.85,.56-1.06,1.25-1.14,.48-.03,1.04-.05,1.57-.05,.45,0,.9,.03,1.22,.05,.48,.03,.66,.24,.66,.61s.13,.5,.37,.5c.8,0,1.81-1.41,3.8-1.41,2.52,0,3.72,1.83,3.72,6.78Z"/><path class="t" d="M719.66,212.28c-.64,.05-1.38,.08-2.15,.08s-1.51-.03-2.18-.08c-.27-.03-.61-.13-.66-.69-.21-1.78-.32-3.88-.32-6.06,0-3.22,.21-6.59,.66-9.28,.11-.53,.4-.64,.74-.66,.58-.05,1.12-.05,1.62-.05,.53,0,1.06,0,1.65,.05,.4,.03,.61,.21,.61,.53,0,.58-.19,3-.19,5.82,0,5.29,.72,8.93,.72,9.86,0,.32-.24,.45-.5,.48Zm-5.1-19.94c0-1.41,.93-2.29,2.89-2.29,2.07,0,2.89,.88,2.89,2.29s-.82,2.18-2.89,2.18c-1.96,0-2.89-.8-2.89-2.18Z"/><path class="t" d="M721.36,204.86c0-6.62,2.97-9.65,6.88-9.65,3.11,0,4.62,2.18,4.62,4.94,0,1.78-1.88,3.14-3.29,3.14-.37,0-.53-.11-.56-.42-.08-1.7-.11-3.35-1.2-3.35-.98,0-1.67,1.51-1.67,4.28,0,2.26,.45,3.91,2.18,3.91s2.68-1.3,3.24-2.52c.08-.16,.19-.24,.34-.24,.08,0,.19,.05,.29,.19,.42,.48,.82,1.33,.82,2.5,0,2.74-1.89,5-5.6,5-4.25,0-6.05-3.24-6.05-7.76Z"/><path class="t" d="M740.1,192.05c.37,.05,.5,.27,.5,.56,0,.69-1.06,3.24-1.46,12.31-.03,.72-.32,.93-1.62,1.06-.4,.05-.74,.05-1.04,.05-.66,0-.98-.13-1.12-.61-.58-2.26-.96-4.76-1.12-7.74-.08-1.59-.11-2.9-.11-4.57,.03-.58,.16-1.01,1.01-1.09,.64-.05,1.51-.08,2.42-.08s1.86,.03,2.52,.11Zm-5.81,17.83c0-1.73,1.14-2.74,2.92-2.74s2.92,1.01,2.92,2.74-1.06,2.61-2.92,2.61-2.92-.9-2.92-2.61Z"/></g><g><path class="t" d="M345.43,255.99c-.13-.13-.19-.3-.19-.51,0-.75,.4-2.85,.99-4.6,.08-.24,.27-.32,.4-.32,.21,0,.35,.13,.56,.35,.19,.19,.46,.35,.83,.35,1.02,0,1.37-1.59,1.37-3.9,0-5.27-1.05-9.79-1.05-10.33,0-.48,.24-.62,.62-.65,.54-.03,1.4-.05,2.26-.05s1.8,0,2.42,.05c.35,.03,.59,.16,.7,.59,.29,1.18,.56,6.4,.56,9.28,0,8.42-2.47,11.08-5.99,11.08-2.01,0-3.06-.73-3.49-1.34Z"/><path class="t" d="M356.42,248.59c0-5.33,2.28-8.93,6.83-8.93s6.42,3.44,6.42,8.93c0,6.11-2.96,8.69-6.8,8.69s-6.45-2.58-6.45-8.69Zm8.52-.38c0-3.09-.7-4.55-1.88-4.55-1.26,0-1.93,1.45-1.93,4.55s.54,4.41,1.91,4.41,1.91-1.4,1.91-4.41Z"/><path class="t" d="M376.44,256.93c-.65,.05-1.4,.08-2.18,.08s-1.53-.03-2.2-.08c-.27-.03-.62-.13-.67-.7-.21-1.8-.32-3.93-.32-6.13,0-3.25,.22-6.67,.67-9.39,.11-.54,.4-.65,.75-.67,.59-.05,1.13-.05,1.64-.05,.54,0,1.08,0,1.67,.05,.4,.03,.62,.21,.62,.54,0,.59-.19,3.04-.19,5.89,0,5.35,.72,9.04,.72,9.98,0,.32-.24,.46-.51,.48Zm-5.16-20.18c0-1.43,.94-2.31,2.93-2.31,2.1,0,2.93,.89,2.93,2.31s-.83,2.21-2.93,2.21-2.93-.81-2.93-2.21Z"/><path class="t" d="M391.65,246.63c0,4.09-.4,8.39-.56,9.52-.08,.51-.35,.75-.75,.78-.43,.05-1.02,.05-1.64,.05-.67,0-1.32-.03-1.88-.05-.43-.05-.59-.24-.59-.56,0-1.24,.4-5.73,.4-9.25,0-1.91-.32-2.82-1.32-2.82-.48,0-.91,.16-1.24,.48-.46,.43-.64,1.18-.64,3.15,0,4.04,.38,7.5,.38,8.31,0,.48-.21,.67-.7,.7-.48,.03-.99,.05-1.5,.05-.67,0-1.32-.03-1.8-.05-.46-.03-.75-.16-.81-.86-.19-2.07-.32-4.71-.32-7.75,0-2.18,.05-4.57,.24-7.1,.05-.86,.56-1.08,1.26-1.16,.48-.03,1.05-.05,1.59-.05,.46,0,.91,.03,1.24,.05,.48,.03,.67,.24,.67,.62s.13,.51,.38,.51c.81,0,1.83-1.43,3.84-1.43,2.55,0,3.76,1.86,3.76,6.86Z"/><path class="t" d="M398.1,248.65c0-2.26,.38-6.56,.56-7.75,.08-.56,.32-.81,.75-.86,.54-.03,1.21-.05,1.85-.05s1.18,.03,1.64,.05c.46,.05,.59,.27,.59,.62,0,.86-.4,5.51-.4,9.01,0,2.21,.51,2.93,1.4,2.93,.46,0,.81-.16,1.1-.43,.54-.51,.75-1.43,.75-3.23,0-4.76-.4-7.61-.43-8.12-.03-.54,.19-.73,.7-.78,.4-.05,.91-.05,1.45-.05,.67,0,1.32,0,1.83,.05,.51,.03,.81,.19,.89,.94,.27,2.18,.38,4.49,.38,7.05,0,2.34-.11,4.9-.35,7.75-.05,.81-.56,1.05-1.18,1.1-.43,.05-.97,.05-1.45,.05-.38,0-.75,0-1.02-.03-.46-.05-.64-.24-.64-.67,0-.38-.13-.51-.43-.51-.86,0-2.01,1.45-3.92,1.45-3.01,0-4.06-2.1-4.06-8.53Z"/><path class="t" d="M418.14,253.22c.94,0,1.34-.38,1.34-1.05s-.48-1.13-1.96-1.83c-2.58-1.24-4.68-2.34-4.68-5.49s2.42-5.19,6.23-5.19c1.72,0,3.49,.43,4.41,.97,.4,.24,.51,.48,.51,.89,0,1-.48,2.64-.91,3.52-.11,.24-.27,.32-.43,.32-.13,0-.27-.05-.38-.16-.99-.83-2.55-1.7-3.82-1.7-.86,0-1.29,.4-1.29,.97,0,.7,.48,1.02,2.02,1.72,2.39,1.08,5.05,2.34,5.05,5.68,0,3.6-2.31,5.41-5.83,5.41s-5.83-1.72-5.83-4.49c0-1.1,.27-1.94,.51-2.31,.11-.16,.24-.27,.4-.27,.13,0,.27,.05,.35,.22,.78,1.34,2.42,2.8,4.3,2.8Z"/><path class="t" d="M429.7,251.85c0-3.9,3.06-5.46,6.56-5.97,.83-.13,1.24-.32,1.24-.81,0-.83-.46-1.37-1.75-1.37-1.4,0-2.79,.59-4.06,1.72-.16,.16-.32,.24-.46,.24-.11,0-.24-.05-.35-.16-.51-.48-.99-1.35-.99-2.45,0-1.91,2.34-3.39,6.18-3.39,4.51,0,6.1,2.26,6.1,6.27,0,1.64-.13,4.22-.13,6.21,0,1.56,.21,3.33,.21,3.77,0,.46-.21,.75-.67,.83-.86,.19-3.82,.22-5.59,.22-4.11,0-6.29-1.53-6.29-5.11Zm7.82-1.91c0-.81-.11-1.02-.56-1.02-1.48,0-2.69,.86-2.69,2.26,0,1.18,.81,1.69,2.18,1.69,.86,0,1.08-.38,1.08-1.18v-1.75Z"/><path class="t" d="M457.06,246.63c0,4.09-.4,8.39-.56,9.52-.08,.51-.35,.75-.75,.78-.43,.05-1.02,.05-1.64,.05-.67,0-1.32-.03-1.88-.05-.43-.05-.59-.24-.59-.56,0-1.24,.4-5.73,.4-9.25,0-1.91-.32-2.82-1.32-2.82-.48,0-.91,.16-1.24,.48-.46,.43-.64,1.18-.64,3.15,0,4.04,.38,7.5,.38,8.31,0,.48-.21,.67-.7,.7-.48,.03-.99,.05-1.5,.05-.67,0-1.32-.03-1.8-.05-.46-.03-.75-.16-.81-.86-.19-2.07-.32-4.71-.32-7.75,0-2.18,.05-4.57,.24-7.1,.05-.86,.56-1.08,1.26-1.16,.48-.03,1.05-.05,1.59-.05,.46,0,.91,.03,1.24,.05,.48,.03,.67,.24,.67,.62s.13,.51,.38,.51c.81,0,1.83-1.43,3.84-1.43,2.55,0,3.76,1.86,3.76,6.86Z"/><path class="t" d="M458.56,249.35c0-6.19,1.93-9.66,4.76-9.66,1.34,0,2.34,.83,2.98,1.4,.08,.08,.19,.11,.27,.11,.16,0,.27-.11,.27-.38,0-1.64-.67-4.68-.67-5.25,0-.4,.27-.57,.65-.59,.48-.03,.99-.05,1.5-.05,.72,0,1.48,.03,2.18,.08,.46,.05,.75,.19,.83,.92,.3,2.23,.59,7.1,.59,11.62,0,3.01-.13,5.92-.43,7.88-.05,.4-.32,.78-.83,.97-.86,.32-2.53,.7-5.37,.7-4.76,0-6.72-2.37-6.72-7.75Zm8.49-1.72c0-2.96-.81-4.01-1.77-4.01-1.05,0-1.69,1.21-1.69,5.08,0,3.6,.64,4.65,1.83,4.65,1.29,0,1.64-.73,1.64-5.73Z"/><path class="t" d="M484.46,257.28c-4.84,0-6.45-3.71-6.45-8.23,0-6.64,3.38-9.36,7.42-9.36,2.71,0,4.84,1.45,4.84,4.47,0,4.6-3.84,5.14-6.21,6.19-.83,.3-1.18,.54-1.18,1,0,.78,.56,1.4,1.85,1.4,1.85,0,3.55-.81,4.6-2.18,.16-.13,.27-.21,.4-.21,.38,0,.67,.7,.67,1.96,0,3.12-2.77,4.98-5.94,4.98Zm.38-13.85c-1.48,0-2.5,1.61-2.5,3.47,0,.27,.08,.48,.32,.48,.16,0,.35-.05,.51-.13,1.08-.65,2.9-1.32,2.9-2.61,0-.7-.46-1.21-1.24-1.21Z"/><path class="t" d="M504.86,246.63c0,4.09-.4,8.39-.56,9.52-.08,.51-.35,.75-.75,.78-.43,.05-1.02,.05-1.64,.05-.67,0-1.32-.03-1.88-.05-.43-.05-.59-.24-.59-.56,0-1.24,.4-5.73,.4-9.25,0-1.91-.32-2.82-1.32-2.82-.48,0-.91,.16-1.24,.48-.46,.43-.64,1.18-.64,3.15,0,4.04,.38,7.5,.38,8.31,0,.48-.21,.67-.7,.7-.48,.03-.99,.05-1.5,.05-.67,0-1.32-.03-1.8-.05-.46-.03-.75-.16-.81-.86-.19-2.07-.32-4.71-.32-7.75,0-2.18,.05-4.57,.24-7.1,.05-.86,.56-1.08,1.26-1.16,.48-.03,1.05-.05,1.59-.05,.46,0,.91,.03,1.24,.05,.48,.03,.67,.24,.67,.62s.13,.51,.38,.51c.81,0,1.83-1.43,3.84-1.43,2.55,0,3.76,1.86,3.76,6.86Z"/><path class="t" d="M512.49,240.85c.32,2.42,.43,5.25,.43,7.53,0,7.16-1.37,8.96-4.27,8.96-1.48,0-2.36-.32-2.66-.48-.19-.11-.3-.3-.3-.67,0-.92,.19-2.61,.35-3.17,.08-.27,.24-.4,.43-.46,.27-.03,.43,.08,.67-.03,.43-.16,.56-.78,.56-2.29,0-4.09-.27-8.34-.27-9.17,0-.46,.11-.73,.54-.86,.4-.13,1.24-.16,2.1-.16,.65,0,1.26,.03,1.72,.08,.48,.05,.64,.3,.7,.73Zm-5.43-4.09c0-1.43,.94-2.31,2.93-2.31,2.1,0,2.93,.89,2.93,2.31s-.83,2.21-2.93,2.21-2.93-.81-2.93-2.21Z"/><path class="t" d="M514.43,248.59c0-5.33,2.28-8.93,6.83-8.93s6.42,3.44,6.42,8.93c0,6.11-2.96,8.69-6.8,8.69s-6.45-2.58-6.45-8.69Zm8.52-.38c0-3.09-.7-4.55-1.88-4.55-1.26,0-1.94,1.45-1.94,4.55s.54,4.41,1.91,4.41,1.91-1.4,1.91-4.41Z"/><path class="t" d="M529.5,252.06c.75,0,1.75,.16,2.61,.19,.97,0,1.69-.13,1.69-.7,0-.16-.13-.3-.35-.4-3.2-1.56-4.65-4.04-4.65-10.09,0-.73,.21-.97,.89-1.02,.48-.05,1.08-.08,1.72-.08s1.37,.03,2.02,.08c.29,.03,.56,.11,.56,.48,0,.27-.11,1.13-.11,1.94,0,3.39,1.21,6.03,2.15,6.03,.19,0,.32-.11,.4-.38,.3-.92,.46-2.69,.46-4.41,0-1.34-.19-2.8-.19-3.12,0-.35,.3-.51,.56-.54,.46-.05,1.16-.05,1.77-.05s1.26,0,1.61,.05c.75,.11,.97,.67,.97,1.48,0,9.31-1.77,15.87-11.98,15.87-.73,0-.89-.3-.94-.86-.03-.38-.05-.81-.05-1.29,0-.83,.05-1.72,.13-2.5,.05-.46,.32-.67,.73-.67Z"/><path class="t" d="M554.28,236.6c-.08,.35-.86,2.07-.86,3.17,0,.24,.13,.38,.51,.38,.27,0,.83-.11,1.21-.11,.24,0,.38,.16,.43,.48,.08,.46,.13,1.1,.13,1.8s-.05,1.48-.19,2.15c-.05,.24-.21,.32-.4,.32-.35,0-.81-.13-1.29-.13-.43,0-.54,.32-.56,.78-.05,.46-.08,1.05-.08,1.67,0,2.8,.62,5.92,1.24,8.34,.03,.19,.11,.38,.11,.51,0,.22-.11,.35-.3,.48-.99,.65-3.17,1.08-4.41,1.08-.38,0-.59-.08-.7-.38-.54-1.48-.83-4.87-.86-7.88,0-1.53,.08-2.99,.11-3.79,.03-.46-.11-.65-.4-.65-.21,0-.46,.03-.62,.03-.24,0-.38-.13-.4-.46-.03-.19-.05-.4-.05-.67,0-1.05,.13-2.31,.27-3.01,.08-.51,.29-.65,.59-.65,.21,0,.4,.03,.59,.03,.65,0,.67-.59,.83-1.96,.03-.59,.19-.81,.59-1.05,1.32-.73,3.65-.97,4.17-.97,.29,0,.4,.21,.35,.48Z"/><path class="t" d="M562.45,235.01c.27,.05,.4,.27,.4,.57,0,.62-.99,2.88-.99,4.6,0,.43,.13,.65,.43,.65,.56,0,1.72-1.16,3.76-1.16,2.58,0,4.14,1.69,4.14,7.08,0,3.85-.38,7.85-.64,9.47-.08,.51-.35,.73-.73,.75-.32,0-.91,.03-1.56,.03-.73,0-1.56-.03-2.15-.08-.35-.03-.64-.13-.64-.62,0-.65,.7-4.92,.7-8.26,0-3.01-.4-3.66-1.4-3.66-1.13,0-1.94,1.02-1.94,4.01,0,4.22,.27,7.13,.27,7.88,0,.51-.35,.62-.7,.67-.48,.03-1.13,.05-1.8,.05s-1.4-.03-1.96-.05c-.27-.03-.54-.13-.64-.65-.13-1.13-.24-3.47-.24-6.35,0-4.3,.24-9.66,.99-14.07,.11-.54,.4-.81,.7-.83,.64-.08,1.4-.11,2.15-.11,.64,0,1.29,0,1.85,.08Z"/><path class="t" d="M577.82,257.28c-4.84,0-6.45-3.71-6.45-8.23,0-6.64,3.39-9.36,7.42-9.36,2.71,0,4.84,1.45,4.84,4.47,0,4.6-3.84,5.14-6.21,6.19-.83,.3-1.18,.54-1.18,1,0,.78,.56,1.4,1.85,1.4,1.85,0,3.55-.81,4.59-2.18,.16-.13,.27-.21,.4-.21,.38,0,.67,.7,.67,1.96,0,3.12-2.77,4.98-5.94,4.98Zm.38-13.85c-1.48,0-2.5,1.61-2.5,3.47,0,.27,.08,.48,.32,.48,.16,0,.35-.05,.51-.13,1.08-.65,2.9-1.32,2.9-2.61,0-.7-.46-1.21-1.24-1.21Z"/><path class="t" d="M595.55,256.93c-.62,.05-1.34,.05-2.1,.05s-1.53,0-2.18-.05c-.3-.03-.7-.16-.75-.78-.21-2.21-.32-4.79-.32-7.48,0-4.38,.27-9.12,.81-13.05,.08-.57,.38-.65,.73-.7,.62-.03,1.21-.05,1.83-.05s1.24,.03,1.8,.05c.38,.03,.62,.19,.62,.56,0,.46-.48,5.17-.48,10.12,0,5.22,.56,10.01,.56,10.79,0,.35-.21,.51-.51,.54Z"/><path class="t" d="M603.83,257.28c-4.84,0-6.45-3.71-6.45-8.23,0-6.64,3.39-9.36,7.42-9.36,2.71,0,4.84,1.45,4.84,4.47,0,4.6-3.84,5.14-6.21,6.19-.83,.3-1.18,.54-1.18,1,0,.78,.56,1.4,1.85,1.4,1.85,0,3.55-.81,4.59-2.18,.16-.13,.27-.21,.4-.21,.38,0,.67,.7,.67,1.96,0,3.12-2.77,4.98-5.94,4.98Zm.38-13.85c-1.48,0-2.5,1.61-2.5,3.47,0,.27,.08,.48,.32,.48,.16,0,.35-.05,.51-.13,1.08-.65,2.9-1.32,2.9-2.61,0-.7-.46-1.21-1.24-1.21Z"/><path class="t" d="M615.57,256.93c-.38,.03-.89,.05-1.4,.05-.54,0-1.16,0-1.8-.05-.46-.03-.73-.19-.78-.94-.19-2.26-.35-4.82-.35-7.86,0-2.07,.08-4.38,.3-6.97,.05-.83,.54-1.08,1.21-1.16,.46-.05,.99-.05,1.58-.05s1.21,0,1.5,.05c.38,.05,.51,.19,.51,.48,0,.21-.11,.51-.11,.78,0,.16,.11,.27,.3,.27,.7,0,1.75-1.78,3.63-1.78,1.75,0,2.34,1.32,3.01,1.32,.78,0,1.91-1.32,3.95-1.32,3.17,0,4.46,2.99,4.46,8.69,0,4.25-.29,6.86-.56,7.75-.13,.54-.59,.7-.97,.73s-.91,.05-1.48,.05-1.21-.03-1.83-.05-.81-.35-.81-.78c0-.78,.51-3.39,.51-7.88,0-2.83-.3-3.98-1.32-3.98-.86,0-1.59,.73-1.59,2.42,0,1.48,.05,2.56,.05,3.96,0,2.26-.16,4.17-.32,5.38-.08,.56-.32,.81-.73,.83-.48,.05-1.13,.08-1.77,.08-.54,0-1.13-.03-1.64-.05-.51-.05-.62-.27-.62-.65,0-.4,.27-5.14,.27-8.53,0-2.39-.21-3.39-1.24-3.39-1.13,0-1.69,1.1-1.69,3.69,0,4.76,.35,7.67,.35,8.23,0,.43-.24,.62-.64,.67Z"/><path class="t" d="M632.93,248.59c0-5.33,2.28-8.93,6.83-8.93s6.42,3.44,6.42,8.93c0,6.11-2.96,8.69-6.8,8.69s-6.45-2.58-6.45-8.69Zm8.52-.38c0-3.09-.7-4.55-1.88-4.55-1.26,0-1.93,1.45-1.93,4.55s.54,4.41,1.91,4.41,1.91-1.4,1.91-4.41Z"/><path class="t" d="M660.61,246.63c0,4.09-.4,8.39-.56,9.52-.08,.51-.35,.75-.75,.78-.43,.05-1.02,.05-1.64,.05-.67,0-1.32-.03-1.88-.05-.43-.05-.59-.24-.59-.56,0-1.24,.4-5.73,.4-9.25,0-1.91-.32-2.82-1.32-2.82-.48,0-.91,.16-1.24,.48-.46,.43-.64,1.18-.64,3.15,0,4.04,.38,7.5,.38,8.31,0,.48-.21,.67-.7,.7-.48,.03-.99,.05-1.5,.05-.67,0-1.32-.03-1.8-.05-.46-.03-.75-.16-.81-.86-.19-2.07-.32-4.71-.32-7.75,0-2.18,.05-4.57,.24-7.1,.05-.86,.56-1.08,1.26-1.16,.48-.03,1.05-.05,1.59-.05,.46,0,.91,.03,1.24,.05,.48,.03,.67,.24,.67,.62s.13,.51,.38,.51c.81,0,1.83-1.43,3.84-1.43,2.55,0,3.76,1.86,3.76,6.86Z"/><path class="t" d="M661.87,251.85c0-3.9,3.06-5.46,6.56-5.97,.83-.13,1.24-.32,1.24-.81,0-.83-.46-1.37-1.75-1.37-1.4,0-2.79,.59-4.06,1.72-.16,.16-.32,.24-.46,.24-.11,0-.24-.05-.35-.16-.51-.48-.99-1.35-.99-2.45,0-1.91,2.34-3.39,6.18-3.39,4.51,0,6.1,2.26,6.1,6.27,0,1.64-.13,4.22-.13,6.21,0,1.56,.21,3.33,.21,3.77,0,.46-.21,.75-.67,.83-.86,.19-3.82,.22-5.59,.22-4.11,0-6.29-1.53-6.29-5.11Zm7.82-1.91c0-.81-.11-1.02-.56-1.02-1.48,0-2.69,.86-2.69,2.26,0,1.18,.81,1.69,2.18,1.69,.86,0,1.08-.38,1.08-1.18v-1.75Z"/><path class="t" d="M675.98,249.35c0-6.19,1.93-9.66,4.76-9.66,1.34,0,2.34,.83,2.98,1.4,.08,.08,.19,.11,.27,.11,.16,0,.27-.11,.27-.38,0-1.64-.67-4.68-.67-5.25,0-.4,.27-.57,.64-.59,.48-.03,.99-.05,1.5-.05,.73,0,1.48,.03,2.18,.08,.46,.05,.75,.19,.83,.92,.29,2.23,.59,7.1,.59,11.62,0,3.01-.13,5.92-.43,7.88-.05,.4-.32,.78-.83,.97-.86,.32-2.53,.7-5.37,.7-4.76,0-6.72-2.37-6.72-7.75Zm8.49-1.72c0-2.96-.81-4.01-1.77-4.01-1.05,0-1.69,1.21-1.69,5.08,0,3.6,.65,4.65,1.83,4.65,1.29,0,1.64-.73,1.64-5.73Z"/><path class="t" d="M697.18,257.28c-4.84,0-6.45-3.71-6.45-8.23,0-6.64,3.39-9.36,7.42-9.36,2.71,0,4.84,1.45,4.84,4.47,0,4.6-3.84,5.14-6.21,6.19-.83,.3-1.18,.54-1.18,1,0,.78,.56,1.4,1.85,1.4,1.85,0,3.55-.81,4.59-2.18,.16-.13,.27-.21,.4-.21,.38,0,.67,.7,.67,1.96,0,3.12-2.77,4.98-5.94,4.98Zm.38-13.85c-1.48,0-2.5,1.61-2.5,3.47,0,.27,.08,.48,.32,.48,.16,0,.35-.05,.51-.13,1.07-.65,2.9-1.32,2.9-2.61,0-.7-.46-1.21-1.24-1.21Z"/><path class="t" d="M715.99,236.6c-.08,.35-.86,2.07-.86,3.17,0,.24,.13,.38,.51,.38,.27,0,.83-.11,1.21-.11,.24,0,.38,.16,.43,.48,.08,.46,.13,1.1,.13,1.8s-.05,1.48-.19,2.15c-.05,.24-.21,.32-.4,.32-.35,0-.81-.13-1.29-.13-.43,0-.54,.32-.56,.78-.05,.46-.08,1.05-.08,1.67,0,2.8,.62,5.92,1.24,8.34,.03,.19,.11,.38,.11,.51,0,.22-.11,.35-.3,.48-.99,.65-3.17,1.08-4.41,1.08-.38,0-.59-.08-.7-.38-.54-1.48-.83-4.87-.86-7.88,0-1.53,.08-2.99,.11-3.79,.03-.46-.11-.65-.4-.65-.21,0-.46,.03-.62,.03-.24,0-.38-.13-.4-.46-.03-.19-.05-.4-.05-.67,0-1.05,.13-2.31,.27-3.01,.08-.51,.29-.65,.59-.65,.21,0,.4,.03,.59,.03,.65,0,.67-.59,.83-1.96,.03-.59,.19-.81,.59-1.05,1.32-.73,3.65-.97,4.17-.97,.29,0,.4,.21,.35,.48Z"/><path class="t" d="M718.04,248.59c0-5.33,2.28-8.93,6.83-8.93s6.42,3.44,6.42,8.93c0,6.11-2.96,8.69-6.8,8.69s-6.45-2.58-6.45-8.69Zm8.52-.38c0-3.09-.7-4.55-1.88-4.55-1.26,0-1.93,1.45-1.93,4.55s.54,4.41,1.91,4.41,1.91-1.4,1.91-4.41Z"/><path class="t" d="M732.25,248.59c0-5.33,2.28-8.93,6.83-8.93s6.42,3.44,6.42,8.93c0,6.11-2.96,8.69-6.8,8.69s-6.45-2.58-6.45-8.69Zm8.52-.38c0-3.09-.7-4.55-1.88-4.55-1.26,0-1.94,1.45-1.94,4.55s.54,4.41,1.91,4.41,1.91-1.4,1.91-4.41Z"/><path class="t" d="M752.78,236.46c.38,.05,.51,.27,.51,.56,0,.7-1.07,3.28-1.48,12.46-.03,.73-.32,.94-1.64,1.08-.4,.05-.75,.05-1.05,.05-.67,0-.99-.13-1.13-.62-.59-2.29-.97-4.82-1.13-7.83-.08-1.61-.11-2.93-.11-4.63,.03-.59,.16-1.02,1.02-1.1,.64-.05,1.53-.08,2.45-.08s1.88,.03,2.55,.11Zm-5.88,18.05c0-1.75,1.16-2.77,2.96-2.77s2.96,1.02,2.96,2.77-1.07,2.64-2.96,2.64-2.96-.91-2.96-2.64Z"/></g><g><path class="t" d="M356.77,302.45c-6.05,0-7.95-3.6-7.95-8.1,0-6.91,2.71-13.32,7.9-13.32s7.9,6.4,7.9,13.32c0,4.49-1.88,8.1-7.85,8.1Zm2.5-9.12c0-4.33-1.08-7.4-2.55-7.4-1.56,0-2.53,3.12-2.53,7.37,0,2.83,.91,3.93,2.55,3.93s2.53-1.13,2.53-3.9Z"/><path class="t" d="M371.47,302.02c-.51,.03-1.13,.05-1.83,.05s-1.42,0-2.18-.05c-.38-.03-.64-.27-.75-.73-.32-1.37-.54-4.22-.54-7.69,0-4.68,.22-6.81,.46-7.69,.11-.43,.3-.59,.51-.67,.32-.08,1.21-.16,2.04-.16,.46,0,.89,0,1.21,.08,.3,.05,.38,.24,.4,.56,.03,.32,.16,.43,.3,.43s.27-.08,.46-.22c.54-.48,1.1-.94,1.69-.94,.48,0,.81,.62,.81,2.74,0,1-.05,1.94-.22,2.42-.13,.46-.35,.57-.59,.57-.32,0-.75-.24-1.26-.24s-.94,.51-.94,2.61c0,3.39,1.13,7.75,1.13,8.29,0,.35-.16,.59-.7,.65Z"/><path class="t" d="M381.71,302.66c-.4,0-.7-.16-.91-1.02-.51-2.12-.78-5.65-.78-8.8,0-7.21,.56-8.07,5.11-8.07,6.1,0,7.77,2.74,7.77,6.32,0,5.87-2.98,8.8-5.08,8.8-1.24,0-2.1-1.83-2.55-1.83-.21,0-.32,.19-.32,.43,0,1.69,.54,2.77,.54,3.17,0,.3-.24,.43-.59,.51-.99,.19-2.5,.48-3.17,.48Zm3.09-9.98c0,2.66,.62,3.28,1.45,3.28,1.21,0,1.83-1.99,1.83-4.98,0-1.88-.67-2.66-2.01-2.66-.89,0-1.26,.81-1.26,4.36Z"/><path class="t" d="M399.85,302.04c-.62,.05-1.34,.05-2.1,.05s-1.53,0-2.18-.05c-.3-.03-.7-.16-.75-.78-.21-2.21-.32-4.79-.32-7.48,0-4.38,.27-9.12,.81-13.05,.08-.57,.38-.65,.73-.7,.62-.03,1.21-.05,1.83-.05s1.24,.03,1.8,.05c.38,.03,.62,.19,.62,.56,0,.46-.48,5.17-.48,10.12,0,5.22,.56,10.01,.56,10.79,0,.35-.21,.51-.51,.54Z"/><path class="t" d="M401.68,296.96c0-3.9,3.06-5.46,6.56-5.97,.83-.13,1.24-.32,1.24-.81,0-.83-.46-1.37-1.75-1.37-1.4,0-2.79,.59-4.06,1.72-.16,.16-.32,.24-.46,.24-.11,0-.24-.05-.35-.16-.51-.48-.99-1.35-.99-2.45,0-1.91,2.34-3.39,6.18-3.39,4.51,0,6.1,2.26,6.1,6.27,0,1.64-.13,4.22-.13,6.21,0,1.56,.21,3.33,.21,3.77,0,.46-.21,.75-.67,.83-.86,.19-3.82,.22-5.59,.22-4.11,0-6.29-1.53-6.29-5.11Zm7.82-1.91c0-.81-.11-1.02-.56-1.02-1.48,0-2.69,.86-2.69,2.26,0,1.18,.81,1.69,2.18,1.69,.86,0,1.07-.38,1.07-1.18v-1.75Z"/><path class="t" d="M416.43,297.17c.75,0,1.75,.16,2.61,.19,.97,0,1.69-.13,1.69-.7,0-.16-.13-.3-.35-.4-3.2-1.56-4.65-4.04-4.65-10.09,0-.73,.21-.97,.89-1.02,.48-.05,1.07-.08,1.72-.08s1.37,.03,2.01,.08c.3,.03,.56,.11,.56,.48,0,.27-.11,1.13-.11,1.94,0,3.39,1.21,6.03,2.15,6.03,.19,0,.32-.11,.4-.38,.3-.92,.46-2.69,.46-4.41,0-1.34-.19-2.8-.19-3.12,0-.35,.3-.51,.56-.54,.46-.05,1.16-.05,1.77-.05s1.26,0,1.61,.05c.75,.11,.97,.67,.97,1.48,0,9.31-1.77,15.87-11.98,15.87-.73,0-.89-.3-.94-.86-.03-.38-.05-.81-.05-1.29,0-.83,.05-1.72,.13-2.5,.05-.46,.32-.67,.73-.67Z"/><path class="t" d="M434,296.96c0-3.9,3.06-5.46,6.56-5.97,.83-.13,1.24-.32,1.24-.81,0-.83-.46-1.37-1.75-1.37-1.4,0-2.79,.59-4.06,1.72-.16,.16-.32,.24-.46,.24-.11,0-.24-.05-.35-.16-.51-.48-1-1.35-1-2.45,0-1.91,2.34-3.39,6.18-3.39,4.51,0,6.1,2.26,6.1,6.27,0,1.64-.13,4.22-.13,6.21,0,1.56,.21,3.33,.21,3.77,0,.46-.21,.75-.67,.83-.86,.19-3.82,.22-5.59,.22-4.11,0-6.29-1.53-6.29-5.11Zm7.82-1.91c0-.81-.11-1.02-.56-1.02-1.48,0-2.69,.86-2.69,2.26,0,1.18,.81,1.69,2.18,1.69,.86,0,1.08-.38,1.08-1.18v-1.75Z"/><path class="t" d="M454.4,284.77c1.13,0,1.58,.16,2.1,.16,.7,0,1.08-.97,1.64-1.72,.27-.46,.56-.67,.86-.67,.67,0,2.42,1.69,2.42,2.39,0,.16-.08,.35-.27,.46-.59,.32-1.21,.65-1.21,1.32,0,.73,1.18,1.16,1.18,3.71,0,3.09-1.96,5.22-6.31,5.22-2.31,0-2.96,.89-2.96,1.69,0,.54,.3,.78,.91,.78,1.24,0,3.22-1.18,5.46-1.18,1.1,0,2.02,.24,2.61,.65,.38,.24,.48,.59,.48,.97,0,1.24-.75,3.77-1.61,3.77-.19,0-.38-.05-.56-.13-.51-.32-1.16-.59-2.26-.59-1.64,0-2.88,.86-5.13,.86-2.5,0-3.92-1.21-3.92-3.42,0-1.86,.99-3.12,1.88-3.9,.19-.19,.29-.32,.29-.48,0-.13-.11-.27-.21-.4-.73-.73-1.61-2.02-1.61-4.04,0-3.36,2.5-5.43,6.23-5.43Zm.32,6.99c1.05,0,1.88-.7,1.88-1.8s-.75-1.78-1.85-1.78-1.85,.73-1.85,1.78,.73,1.8,1.83,1.8Z"/><path class="t" d="M462.33,296.96c0-3.9,3.06-5.46,6.56-5.97,.83-.13,1.24-.32,1.24-.81,0-.83-.46-1.37-1.75-1.37-1.4,0-2.79,.59-4.06,1.72-.16,.16-.32,.24-.46,.24-.11,0-.24-.05-.35-.16-.51-.48-1-1.35-1-2.45,0-1.91,2.34-3.39,6.18-3.39,4.51,0,6.1,2.26,6.1,6.27,0,1.64-.13,4.22-.13,6.21,0,1.56,.21,3.33,.21,3.77,0,.46-.21,.75-.67,.83-.86,.19-3.82,.22-5.59,.22-4.11,0-6.29-1.53-6.29-5.11Zm7.82-1.91c0-.81-.11-1.02-.56-1.02-1.48,0-2.69,.86-2.69,2.26,0,1.18,.81,1.69,2.18,1.69,.86,0,1.08-.38,1.08-1.18v-1.75Z"/><path class="t" d="M482.02,302.04c-.64,.05-1.4,.08-2.18,.08s-1.53-.03-2.2-.08c-.27-.03-.62-.13-.67-.7-.22-1.8-.32-3.93-.32-6.13,0-3.25,.21-6.67,.67-9.39,.11-.54,.4-.65,.75-.67,.59-.05,1.13-.05,1.64-.05,.54,0,1.08,0,1.67,.05,.4,.03,.62,.21,.62,.54,0,.59-.19,3.04-.19,5.89,0,5.35,.73,9.04,.73,9.98,0,.32-.24,.46-.51,.48Zm-5.16-20.18c0-1.43,.94-2.31,2.93-2.31,2.1,0,2.93,.89,2.93,2.31s-.83,2.21-2.93,2.21-2.93-.81-2.93-2.21Z"/><path class="t" d="M497.23,291.74c0,4.09-.4,8.39-.56,9.52-.08,.51-.35,.75-.75,.78-.43,.05-1.02,.05-1.64,.05-.67,0-1.32-.03-1.88-.05-.43-.05-.59-.24-.59-.56,0-1.24,.4-5.73,.4-9.25,0-1.91-.32-2.82-1.32-2.82-.48,0-.91,.16-1.24,.48-.46,.43-.64,1.18-.64,3.15,0,4.04,.38,7.5,.38,8.31,0,.48-.21,.67-.7,.7-.48,.03-.99,.05-1.5,.05-.67,0-1.32-.03-1.8-.05-.46-.03-.75-.16-.81-.86-.19-2.07-.32-4.71-.32-7.75,0-2.18,.05-4.57,.24-7.1,.05-.86,.56-1.08,1.26-1.16,.48-.03,1.05-.05,1.59-.05,.46,0,.91,.03,1.24,.05,.48,.03,.67,.24,.67,.62s.13,.51,.38,.51c.81,0,1.83-1.43,3.84-1.43,2.55,0,3.76,1.86,3.76,6.86Z"/><path class="t" d="M508.71,298.33c.94,0,1.34-.38,1.34-1.05s-.48-1.13-1.96-1.83c-2.58-1.24-4.68-2.34-4.68-5.49s2.42-5.19,6.23-5.19c1.72,0,3.49,.43,4.41,.97,.4,.24,.51,.48,.51,.89,0,1-.48,2.64-.91,3.52-.11,.24-.27,.32-.43,.32-.13,0-.27-.05-.38-.16-.99-.83-2.55-1.7-3.82-1.7-.86,0-1.29,.4-1.29,.97,0,.7,.48,1.02,2.02,1.72,2.39,1.08,5.05,2.34,5.05,5.68,0,3.6-2.31,5.41-5.83,5.41s-5.83-1.72-5.83-4.49c0-1.1,.27-1.94,.51-2.31,.11-.16,.24-.27,.4-.27,.13,0,.27,.05,.35,.22,.78,1.34,2.42,2.8,4.3,2.8Z"/><path class="t" d="M515.59,293.7c0-5.33,2.28-8.93,6.83-8.93s6.42,3.44,6.42,8.93c0,6.11-2.96,8.69-6.8,8.69s-6.45-2.58-6.45-8.69Zm8.52-.38c0-3.09-.7-4.55-1.88-4.55-1.26,0-1.94,1.45-1.94,4.55s.54,4.41,1.91,4.41,1.91-1.4,1.91-4.41Z"/><path class="t" d="M549.53,285.74c0-.4,.19-.54,.48-.57,.48-.05,1.21-.11,1.93-.11s1.48,.05,2.02,.11c.48,.05,.73,.3,.83,.89,.03,.35,.05,.81,.05,1.34,0,9.09-3.63,13.32-5.7,14.85-.16,.11-.32,.13-.48,.13s-.3-.03-.4-.11c-1.21-.94-2.58-2.5-3.57-4.01-.11-.19-.21-.24-.35-.24-.16,0-.3,.11-.43,.27-.83,1.29-2.66,3.23-3.84,4.01-.13,.08-.24,.11-.35,.11s-.21-.03-.32-.11c-3.25-2.53-5-7.16-5-14.53,0-.7,.03-1.29,.11-1.8,.08-.51,.3-.75,.78-.81,.51-.05,1.29-.08,2.04-.08,.83,0,1.61,.03,2.12,.08,.32,.03,.51,.19,.51,.54s-.29,2.53-.29,4.92c0,2.02,.24,4.04,.91,5.33,.05,.19,.16,.27,.3,.27,.11,0,.24-.08,.32-.27,.89-1.91,1.24-3.93,1.24-6.99,0-1.21-.08-2.85-.08-3.25,0-.32,.16-.46,.43-.51,.54-.08,1.26-.13,1.99-.13s1.48,.05,1.96,.13c.24,.05,.43,.16,.43,.46,0,.7-.24,3.36-.24,5.33,0,2.26,.3,3.55,1.13,4.98,.05,.16,.16,.24,.27,.24s.24-.08,.32-.24c.83-1.56,1.05-3.93,1.05-6.16,0-1.78-.16-3.58-.16-4.06Z"/><path class="t" d="M562.05,302.39c-4.84,0-6.45-3.71-6.45-8.23,0-6.64,3.39-9.36,7.42-9.36,2.71,0,4.84,1.45,4.84,4.47,0,4.6-3.84,5.14-6.21,6.19-.83,.3-1.18,.54-1.18,1,0,.78,.56,1.4,1.85,1.4,1.85,0,3.55-.81,4.59-2.18,.16-.13,.27-.21,.4-.21,.38,0,.67,.7,.67,1.96,0,3.12-2.77,4.98-5.94,4.98Zm.38-13.85c-1.48,0-2.5,1.61-2.5,3.47,0,.27,.08,.48,.32,.48,.16,0,.35-.05,.51-.13,1.07-.65,2.9-1.32,2.9-2.61,0-.7-.46-1.21-1.24-1.21Z"/><path class="t" d="M573.66,294.54c0-6.7,3.01-9.76,6.96-9.76,3.14,0,4.67,2.21,4.67,5,0,1.8-1.91,3.17-3.33,3.17-.38,0-.54-.11-.56-.43-.08-1.72-.11-3.39-1.21-3.39-.99,0-1.69,1.53-1.69,4.33,0,2.29,.46,3.95,2.2,3.95s2.71-1.32,3.28-2.56c.08-.16,.19-.24,.35-.24,.08,0,.19,.05,.29,.19,.43,.48,.83,1.34,.83,2.53,0,2.77-1.91,5.06-5.67,5.06-4.3,0-6.13-3.28-6.13-7.86Z"/><path class="t" d="M586.42,296.96c0-3.9,3.06-5.46,6.56-5.97,.83-.13,1.24-.32,1.24-.81,0-.83-.46-1.37-1.75-1.37-1.4,0-2.79,.59-4.06,1.72-.16,.16-.32,.24-.46,.24-.11,0-.24-.05-.35-.16-.51-.48-.99-1.35-.99-2.45,0-1.91,2.34-3.39,6.18-3.39,4.51,0,6.1,2.26,6.1,6.27,0,1.64-.13,4.22-.13,6.21,0,1.56,.21,3.33,.21,3.77,0,.46-.21,.75-.67,.83-.86,.19-3.82,.22-5.59,.22-4.11,0-6.29-1.53-6.29-5.11Zm7.82-1.91c0-.81-.11-1.02-.56-1.02-1.48,0-2.69,.86-2.69,2.26,0,1.18,.81,1.69,2.18,1.69,.86,0,1.07-.38,1.07-1.18v-1.75Z"/><path class="t" d="M613.78,291.74c0,4.09-.4,8.39-.56,9.52-.08,.51-.35,.75-.75,.78-.43,.05-1.02,.05-1.64,.05-.67,0-1.32-.03-1.88-.05-.43-.05-.59-.24-.59-.56,0-1.24,.4-5.73,.4-9.25,0-1.91-.32-2.82-1.32-2.82-.48,0-.91,.16-1.24,.48-.46,.43-.64,1.18-.64,3.15,0,4.04,.38,7.5,.38,8.31,0,.48-.21,.67-.7,.7-.48,.03-1,.05-1.5,.05-.67,0-1.32-.03-1.8-.05-.46-.03-.75-.16-.81-.86-.19-2.07-.32-4.71-.32-7.75,0-2.18,.05-4.57,.24-7.1,.05-.86,.56-1.08,1.26-1.16,.48-.03,1.05-.05,1.58-.05,.46,0,.91,.03,1.24,.05,.48,.03,.67,.24,.67,.62s.13,.51,.38,.51c.81,0,1.83-1.43,3.84-1.43,2.55,0,3.76,1.86,3.76,6.86Z"/><path class="t" d="M619.98,294.46c0-6.19,1.93-9.66,4.76-9.66,1.34,0,2.34,.83,2.98,1.4,.08,.08,.19,.11,.27,.11,.16,0,.27-.11,.27-.38,0-1.64-.67-4.68-.67-5.25,0-.4,.27-.57,.64-.59,.48-.03,.99-.05,1.5-.05,.73,0,1.48,.03,2.18,.08,.46,.05,.75,.19,.83,.92,.29,2.23,.59,7.1,.59,11.62,0,3.01-.13,5.92-.43,7.88-.05,.4-.32,.78-.83,.97-.86,.32-2.53,.7-5.38,.7-4.76,0-6.72-2.37-6.72-7.75Zm8.49-1.72c0-2.96-.81-4.01-1.77-4.01-1.05,0-1.69,1.21-1.69,5.08,0,3.6,.65,4.65,1.83,4.65,1.29,0,1.64-.73,1.64-5.73Z"/><path class="t" d="M640.51,302.02c-.51,.03-1.13,.05-1.83,.05s-1.42,0-2.18-.05c-.38-.03-.65-.27-.75-.73-.32-1.37-.54-4.22-.54-7.69,0-4.68,.21-6.81,.46-7.69,.11-.43,.29-.59,.51-.67,.32-.08,1.21-.16,2.04-.16,.46,0,.89,0,1.21,.08,.29,.05,.38,.24,.4,.56,.03,.32,.16,.43,.29,.43s.27-.08,.46-.22c.54-.48,1.1-.94,1.69-.94,.48,0,.81,.62,.81,2.74,0,1-.05,1.94-.21,2.42-.13,.46-.35,.57-.59,.57-.32,0-.75-.24-1.26-.24s-.94,.51-.94,2.61c0,3.39,1.13,7.75,1.13,8.29,0,.35-.16,.59-.7,.65Z"/><path class="t" d="M649.44,302.04c-.64,.05-1.4,.08-2.18,.08s-1.53-.03-2.2-.08c-.27-.03-.62-.13-.67-.7-.22-1.8-.32-3.93-.32-6.13,0-3.25,.21-6.67,.67-9.39,.11-.54,.4-.65,.75-.67,.59-.05,1.13-.05,1.64-.05,.54,0,1.08,0,1.67,.05,.4,.03,.62,.21,.62,.54,0,.59-.19,3.04-.19,5.89,0,5.35,.73,9.04,.73,9.98,0,.32-.24,.46-.51,.48Zm-5.16-20.18c0-1.43,.94-2.31,2.93-2.31,2.1,0,2.93,.89,2.93,2.31s-.83,2.21-2.93,2.21-2.93-.81-2.93-2.21Z"/><path class="t" d="M664.64,291.74c0,4.09-.4,8.39-.56,9.52-.08,.51-.35,.75-.75,.78-.43,.05-1.02,.05-1.64,.05-.67,0-1.32-.03-1.88-.05-.43-.05-.59-.24-.59-.56,0-1.24,.4-5.73,.4-9.25,0-1.91-.32-2.82-1.32-2.82-.48,0-.91,.16-1.24,.48-.46,.43-.64,1.18-.64,3.15,0,4.04,.38,7.5,.38,8.31,0,.48-.21,.67-.7,.7-.48,.03-.99,.05-1.5,.05-.67,0-1.32-.03-1.8-.05-.46-.03-.75-.16-.81-.86-.19-2.07-.32-4.71-.32-7.75,0-2.18,.05-4.57,.24-7.1,.05-.86,.56-1.08,1.26-1.16,.48-.03,1.05-.05,1.59-.05,.46,0,.91,.03,1.24,.05,.48,.03,.67,.24,.67,.62s.13,.51,.38,.51c.81,0,1.83-1.43,3.84-1.43,2.55,0,3.76,1.86,3.76,6.86Z"/><path class="t" d="M671.69,302.04c-.62,.05-1.37,.05-2.12,.05s-1.5,0-2.18-.05c-.3-.03-.7-.16-.75-.78-.16-2.21-.19-4.79-.19-7.48,0-4.38,.21-9.15,.73-13.05,.08-.57,.43-.67,.73-.7,.56-.03,1.18-.05,1.83-.05s1.29,.03,1.88,.05c.38,.03,.64,.19,.64,.54s-1.02,6.99-1.02,10.71c0,.4,.13,.65,.43,.65,1.72,0,2.85-2.88,2.98-6.16,.03-.46,.24-.56,.65-.62,.4-.03,1.07-.03,1.8-.03,.86,0,1.75,0,2.12,.03,.32,.03,.59,.13,.59,.67,0,2.85-2.07,5.6-3.06,6.51-.16,.16-.27,.32-.27,.46s.11,.24,.27,.38c1.88,1.4,3.55,3.2,3.55,8.02,0,.62-.08,.78-.7,.86-.43,.03-1.08,.05-1.8,.05-.64,0-1.32,0-1.88-.05-.67-.05-.83-.13-.86-.83-.13-3.93-1.34-6.4-2.82-6.4-.59,0-.83,.56-.83,1.45,0,1.99,.83,4.6,.83,5.25,0,.32-.22,.51-.54,.54Z"/><path class="t" d="M690.71,302.04c-.38,.03-.89,.05-1.4,.05-.54,0-1.16,0-1.8-.05-.46-.03-.73-.19-.78-.94-.19-2.26-.35-4.82-.35-7.86,0-2.07,.08-4.38,.3-6.97,.05-.83,.54-1.08,1.21-1.16,.46-.05,.99-.05,1.58-.05s1.21,0,1.5,.05c.38,.05,.51,.19,.51,.48,0,.21-.11,.51-.11,.78,0,.16,.11,.27,.3,.27,.7,0,1.75-1.78,3.63-1.78,1.75,0,2.34,1.32,3.01,1.32,.78,0,1.91-1.32,3.95-1.32,3.17,0,4.46,2.99,4.46,8.69,0,4.25-.3,6.86-.56,7.75-.13,.54-.59,.7-.97,.73s-.91,.05-1.48,.05-1.21-.03-1.83-.05-.81-.35-.81-.78c0-.78,.51-3.39,.51-7.88,0-2.83-.3-3.98-1.32-3.98-.86,0-1.59,.73-1.59,2.42,0,1.48,.05,2.56,.05,3.96,0,2.26-.16,4.17-.32,5.38-.08,.56-.32,.81-.73,.83-.48,.05-1.13,.08-1.77,.08-.54,0-1.13-.03-1.64-.05-.51-.05-.62-.27-.62-.65,0-.4,.27-5.14,.27-8.53,0-2.39-.21-3.39-1.24-3.39-1.13,0-1.69,1.1-1.69,3.69,0,4.76,.35,7.67,.35,8.23,0,.43-.24,.62-.65,.67Z"/><path class="t" d="M708.07,293.7c0-5.33,2.28-8.93,6.83-8.93s6.42,3.44,6.42,8.93c0,6.11-2.96,8.69-6.8,8.69s-6.45-2.58-6.45-8.69Zm8.52-.38c0-3.09-.7-4.55-1.88-4.55-1.26,0-1.93,1.45-1.93,4.55s.54,4.41,1.91,4.41,1.91-1.4,1.91-4.41Z"/><path class="t" d="M728.04,302.02c-.51,.03-1.13,.05-1.83,.05s-1.42,0-2.18-.05c-.38-.03-.65-.27-.75-.73-.32-1.37-.54-4.22-.54-7.69,0-4.68,.21-6.81,.46-7.69,.11-.43,.3-.59,.51-.67,.32-.08,1.21-.16,2.04-.16,.46,0,.89,0,1.21,.08,.29,.05,.38,.24,.4,.56,.03,.32,.16,.43,.29,.43s.27-.08,.46-.22c.54-.48,1.1-.94,1.69-.94,.48,0,.81,.62,.81,2.74,0,1-.05,1.94-.21,2.42-.13,.46-.35,.57-.59,.57-.32,0-.75-.24-1.26-.24s-.94,.51-.94,2.61c0,3.39,1.13,7.75,1.13,8.29,0,.35-.16,.59-.7,.65Z"/><path class="t" d="M737.71,302.39c-4.84,0-6.45-3.71-6.45-8.23,0-6.64,3.39-9.36,7.42-9.36,2.71,0,4.84,1.45,4.84,4.47,0,4.6-3.84,5.14-6.21,6.19-.83,.3-1.18,.54-1.18,1,0,.78,.56,1.4,1.85,1.4,1.85,0,3.55-.81,4.59-2.18,.16-.13,.27-.21,.4-.21,.38,0,.67,.7,.67,1.96,0,3.12-2.77,4.98-5.94,4.98Zm.38-13.85c-1.48,0-2.5,1.61-2.5,3.47,0,.27,.08,.48,.32,.48,.16,0,.35-.05,.51-.13,1.08-.65,2.9-1.32,2.9-2.61,0-.7-.46-1.21-1.24-1.21Z"/><path class="t" d="M750.96,281.57c.38,.05,.51,.27,.51,.56,0,.7-1.07,3.28-1.48,12.46-.03,.73-.32,.94-1.64,1.08-.4,.05-.75,.05-1.05,.05-.67,0-.99-.13-1.13-.62-.59-2.29-.97-4.82-1.13-7.83-.08-1.61-.11-2.93-.11-4.63,.03-.59,.16-1.02,1.02-1.1,.64-.05,1.53-.08,2.45-.08s1.88,.03,2.55,.11Zm-5.88,18.05c0-1.75,1.16-2.77,2.96-2.77s2.96,1.02,2.96,2.77-1.07,2.64-2.96,2.64-2.96-.91-2.96-2.64Z"/></g><g><path class="n" d="M152.98,441.14c-33.2,17-34.82,22.7-37.07,4.84-1.25-9.89-8.2-25.49,5.85-38.36,14.06-12.86,51.16-25.11,46.41-3.34-2.46,11.28,1.77,28.16-15.19,36.85Z"/><path class="q" d="M145.65,385.56c-7.51-5.42-20.94-22.59-16.21-5.07,.47,1.74,4.46,13.02,11.97,18.44s14.18,2.66,15.23,1.19c1.06-1.46-3.48-9.14-10.99-14.56Z"/><path class="q" d="M179.68,385.03c5.03-7.26,16.36-13.43-3.27-9.98-1.58,.28-11.41,4.51-15.92,11.42s-1.78,12.73-.43,13.61,16.22-10.13,19.63-15.05Z"/></g><g><path class="n" d="M117.59,324.26c-26.53,26.22-26.35,32.14-33.89,15.79-4.17-9.05-15.51-21.83-5.98-38.34,9.53-16.5,41.21-39.37,43.24-17.17,1.06,11.5,10.18,26.32-3.37,39.72Z"/><path class="q" d="M93.84,273.47c-8.8-2.9-26.77-15.23-16.99,.05,.97,1.52,8.18,11.07,16.97,13.97s14.32-1.74,14.88-3.45c.57-1.71-6.07-7.66-14.87-10.57Z"/><path class="q" d="M126.12,262.71c2.61-8.43,11.55-17.73-6.13-8.53-1.43,.74-9.52,7.74-11.74,15.69-2.22,7.95,2.14,12.68,3.69,13.11s12.41-14.55,14.18-20.27Z"/></g><g><path class="n" d="M168.79,452.75c-7.27,36.58-3.81,41.39-19.21,32.07-8.53-5.16-25.08-9.39-26.44-28.4-1.36-19.01,12.06-55.7,26.19-38.46,7.32,8.93,23.18,16.09,19.46,34.78Z"/><path class="q" d="M120.66,424c-8.91,2.52-30.71,2.39-14.04,9.56,1.66,.71,12.97,4.58,21.89,2.06s10.88-9.46,10.39-11.2c-.49-1.74-9.32-2.94-18.24-.42Z"/><path class="q" d="M141.37,397c-2.57-8.45-.37-21.16-9.86-3.63-.77,1.42-3.54,11.74-.93,19.57s8.88,9.3,10.4,8.79,2.12-19.01,.38-24.73Z"/></g><g><path class="n" d="M175.1,309.21c-5.96,36.82-2.32,41.5-18.05,32.74-8.71-4.85-25.4-8.49-27.44-27.43-2.04-18.95,10.06-56.09,24.79-39.37,7.63,8.66,23.74,15.25,20.7,34.06Z"/><path class="q" d="M125.98,282.2c-8.82,2.84-30.6,3.49-13.69,10.06,1.68,.65,13.13,4.12,21.95,1.27s10.54-9.85,9.98-11.57c-.55-1.72-9.42-2.61-18.24,.23Z"/><path class="q" d="M145.7,254.47c-2.87-8.35-1.13-21.13-9.98-3.27-.71,1.44-3.12,11.86-.23,19.59,2.9,7.73,9.2,8.98,10.71,8.41s1.44-19.07-.51-24.73Z"/></g><g><path class="n" d="M131.87,365c-7.27,36.58-3.81,41.39-19.21,32.07-8.53-5.16-25.08-9.39-26.44-28.4-1.36-19.01,12.06-55.7,26.19-38.46,7.32,8.93,23.18,16.09,19.46,34.78Z"/><path class="q" d="M83.74,336.25c-8.91,2.52-30.71,2.39-14.04,9.56,1.66,.71,12.97,4.58,21.89,2.06s10.88-9.46,10.39-11.2c-.49-1.74-9.32-2.94-18.24-.42Z"/><path class="q" d="M104.44,309.25c-2.57-8.45-.37-21.16-9.86-3.63-.77,1.42-3.54,11.74-.93,19.57s8.88,9.3,10.4,8.79,2.12-19.01,.38-24.73Z"/></g><g><path class="n" d="M204.3,329.65c6.53,36.72,11.51,39.94-6.23,36.87-9.82-1.7-26.78,.38-34.96-16.83-8.18-17.21-9.03-56.27,10.4-45.35,10.06,5.65,27.45,6.56,30.79,25.32Z"/><path class="q" d="M149.02,320.38c-7.38,5.59-27.73,13.4-9.6,14.02,1.8,.06,13.75-.45,21.14-6.05s6.69-12.78,5.6-14.21c-1.09-1.44-9.76,.65-17.14,6.24Z"/><path class="q" d="M158.48,287.7c-5.46-6.93-8.05-19.58-10.5,.2-.2,1.6,.97,12.23,6.26,18.57s11.65,5.43,12.89,4.4c1.24-1.03-4.94-18.47-8.64-23.18Z"/></g><g><path class="n" d="M44.87,478.32c-32.13-18.95-37.81-17.27-23.93-28.73,7.69-6.35,17.15-20.57,35.54-15.57,18.39,5,48.59,29.78,27.65,37.42-10.84,3.96-22.85,16.56-39.26,6.88Z"/><path class="q" d="M87.9,442.39c.56-9.25,7.88-29.78-4.39-16.41-1.22,1.33-8.61,10.73-9.17,19.98s5.34,13.4,7.14,13.51c1.8,.11,5.86-7.83,6.42-17.08Z"/><path class="q" d="M106.55,470.85c8.82,.37,20.1,6.64,6.68-8.1-1.08-1.19-9.91-7.22-18.17-7.34-8.26-.12-11.71,5.31-11.73,6.92s17.24,8.28,23.22,8.53Z"/></g><g><path class="n" d="M144.77,482.16c-32.13-18.95-37.81-17.27-23.93-28.73,7.69-6.35,17.15-20.57,35.54-15.57,18.39,5,48.59,29.78,27.65,37.42-10.84,3.96-22.85,16.56-39.26,6.88Z"/><path class="q" d="M187.8,446.24c.56-9.25,7.88-29.78-4.39-16.41-1.22,1.33-8.61,10.73-9.17,19.98s5.34,13.4,7.14,13.51c1.8,.11,5.86-7.83,6.42-17.08Z"/><path class="q" d="M206.45,474.7c8.82,.37,20.1,6.64,6.68-8.1-1.08-1.19-9.91-7.22-18.17-7.34-8.26-.12-11.71,5.31-11.73,6.92s17.24,8.28,23.22,8.53Z"/></g><g><path class="n" d="M44.77,397.16c-32.13-18.95-37.81-17.27-23.93-28.73,7.69-6.35,17.15-20.57,35.54-15.57,18.39,5,48.59,29.78,27.65,37.42-10.84,3.96-22.85,16.56-39.26,6.88Z"/><path class="q" d="M87.8,361.24c.56-9.25,7.88-29.78-4.39-16.41-1.22,1.33-8.61,10.73-9.17,19.98s5.34,13.4,7.14,13.51c1.8,.11,5.86-7.83,6.42-17.08Z"/><path class="q" d="M106.45,389.7c8.82,.37,20.1,6.64,6.68-8.1-1.08-1.19-9.91-7.22-18.17-7.34-8.26-.12-11.71,5.31-11.73,6.92s17.24,8.28,23.22,8.53Z"/></g><g><path class="n" d="M145.1,377.7c-32.13-18.95-37.81-17.27-23.93-28.73,7.69-6.35,17.15-20.57,35.54-15.57,18.39,5,48.59,29.78,27.65,37.42-10.84,3.96-22.85,16.56-39.26,6.88Z"/><path class="q" d="M188.13,341.77c.56-9.25,7.88-29.78-4.39-16.41-1.22,1.33-8.61,10.73-9.17,19.98s5.34,13.4,7.14,13.51c1.8,.11,5.86-7.83,6.42-17.08Z"/><path class="q" d="M206.78,370.23c8.82,.37,20.1,6.64,6.68-8.1-1.08-1.19-9.91-7.22-18.17-7.34-8.26-.12-11.71,5.31-11.73,6.92s17.24,8.28,23.22,8.53Z"/></g></g></g><g id="g"/><g id="h"/><g id="i"/><g id="j"/><g id="k"/><g id="l"/></svg>