<?xml version="1.0" encoding="UTF-8"?><svg xmlns="http://www.w3.org/2000/svg" width="1920" height="1080" viewBox="0 0 1920 1080"><defs><style>.j{fill:#eedec0;}.k{fill:#ea968c;}.l{fill:#fff;}.m{fill:#638dbb;}.n{fill:#293f02;}.o{fill:#2e3e0e;}</style></defs><g id="a"/><g id="b"/><g id="c"/><g id="d"/><g id="e"><g><rect class="m" width="1920" height="1080"/><g><g><rect class="n" x="292.57" y="625.88" width="18.11" height="342.6" rx="4.1" ry="4.1"/><rect class="n" x="256.35" y="946.86" width="54.33" height="21.62" rx="3.58" ry="3.58"/></g><g><rect class="n" x="331.45" y="614.58" width="18.11" height="342.6" rx="4.1" ry="4.1" transform="translate(681.01 1571.77) rotate(-180)"/><rect class="n" x="331.45" y="935.56" width="54.33" height="21.62" rx="3.58" ry="3.58" transform="translate(717.24 1892.74) rotate(-180)"/></g><g><rect class="n" x="260.88" y="630.41" width="18.11" height="310.9" rx="4.1" ry="4.1"/><rect class="n" x="224.66" y="921.69" width="54.33" height="19.62" rx="3.58" ry="3.58"/></g><path class="k" d="M420.86,381.38c-38.49,148.8-54.18,270.87-122.25,268.64-85.98-2.81-135.74-117.53-125.27-262.61,10.6-146.82-20.78-270.34,125.27-276.19,158.19-6.34,161.49,118.46,122.25,270.15Z"/><path class="l" d="M274.51,535.69v.23s0,.08-.02,.12c-4.56-1.81-8.8-4.11-12.59-6.72l-1.25-21.57c-.15-2.66,2.31-15.73,5.66-15.92,3.35-.2,6.38,12,6.55,14.65l1.65,29.2Z"/><path class="l" d="M343.19,506.65c-3.94,11.58-9.3,19.76-15.21,25.49-2.97,2.88-6.07,5.15-9.21,6.9-8.1,4.57-16.41,5.81-23.03,5.81-1.27,0-2.46-.05-3.59-.12-6.81-.45-13.7-2.2-20.13-4.86-3.43-1.4-6.7-3.06-9.79-4.94-11.36-6.9-19.98-16.56-21.9-26.23-.24-1.22,.56-2.41,1.78-2.66,1.22-.24,2.41,.54,2.66,1.78,1.42,7.12,7.91,15.2,17.14,21.49,3.79,2.61,8.03,4.91,12.59,6.72,5.63,2.25,11.73,3.76,17.96,4.18,9.51,.63,17.22-1.36,23.48-4.81,4.98-2.73,9.03-6.41,12.32-10.43,5.34-6.52,8.66-13.96,10.66-19.79,.41-1.18,1.69-1.81,2.87-1.4,1.19,.41,1.83,1.69,1.42,2.87Z"/><path class="l" d="M329.34,497.22l-1.09,27.75c-3.29,4.01-7.33,7.7-12.32,10.43-.17-.59-.26-1.22-.23-1.87l1.36-36.07c.12-3.35,3.94-19.45,7.29-19.33,3.37,.12,5.1,15.74,4.98,19.09Z"/><ellipse class="l" cx="294.08" cy="357.24" rx="60.37" ry="86.03"/><ellipse cx="294.08" cy="386.67" rx="19.62" ry="29.43"/></g><g><path class="j" d="M596.74,898.49h0c-6.94-4.51-8.46,4.85-8.47,10.87l-1.16,56.4c-.03,10.9,5.73,13.48,10.39,13.49h0c8.43,3.23,8.46-4.85,8.47-10.87l.09-30.77c.02-6.02-4.86-37.19-9.32-39.13Z"/><path class="j" d="M599.1,95.67h0c-6.94-4.51-8.46,4.85-8.47,10.87l-1.16,56.4c-.03,10.9,5.73,13.48,10.39,13.49h0c8.43,3.23,8.46-4.85,8.47-10.87l.09-30.77c.02-6.02-4.86-37.19-9.32-39.13Z"/><path class="j" d="M598.72,225.79h0c-6.94-4.51-8.46,4.85-8.47,10.87l-1.16,56.4c-.03,10.9,5.73,13.48,10.39,13.49h0c8.43,3.23,8.46-4.85,8.47-10.87l.09-30.77c.02-6.02-4.86-37.19-9.32-39.13Z"/><path class="j" d="M598.32,362.32h0c-6.94-4.51-8.46,4.85-8.47,10.87l-1.16,56.4c-.03,10.9,5.73,13.48,10.39,13.49h0c8.43,3.23,8.46-4.85,8.47-10.87l.09-30.77c.02-6.02-4.86-37.19-9.32-39.13Z"/><path class="j" d="M597.89,508.47h0c-6.94-4.51-8.46,4.85-8.47,10.87l-1.16,56.4c-.03,10.9,5.73,13.48,10.39,13.49h0c8.43,3.23,8.46-4.85,8.47-10.87l.09-30.77c.02-6.02-4.86-37.19-9.32-39.13Z"/><path class="j" d="M597.47,648.85h0c-6.94-4.51-8.46,4.85-8.47,10.87l-1.16,56.4c-.03,10.9,5.73,13.48,10.39,13.49h0c8.43,3.23,8.46-4.85,8.47-10.87l.09-30.77c.02-6.02-4.86-37.19-9.32-39.13Z"/><path class="j" d="M597.11,774.48h0c-6.94-4.51-8.46,4.85-8.47,10.87l-1.16,56.4c-.03,10.9,5.73,13.48,10.39,13.49h0c8.43,3.23,8.46-4.85,8.47-10.87l.09-30.77c.02-6.02-4.86-37.19-9.32-39.13Z"/></g><g><path class="j" d="M1792.24,905.12h0c6.94-4.51,8.46,4.85,8.47,10.87l1.16,56.4c.03,10.9-5.73,13.48-10.39,13.49h0c-8.43,3.23-8.46-4.85-8.47-10.87l-.09-30.77c-.02-6.02,4.86-37.19,9.32-39.13Z"/><path class="j" d="M1789.89,102.3h0c6.94-4.51,8.46,4.85,8.47,10.87l1.16,56.4c.03,10.9-5.73,13.48-10.39,13.49h0c-8.43,3.23-8.46-4.85-8.47-10.87l-.09-30.77c-.02-6.02,4.86-37.19,9.32-39.13Z"/><path class="j" d="M1790.27,232.42h0c6.94-4.51,8.46,4.85,8.47,10.87l1.16,56.4c.03,10.9-5.73,13.48-10.39,13.49h0c-8.43,3.23-8.46-4.85-8.47-10.87l-.09-30.77c-.02-6.02,4.86-37.19,9.32-39.13Z"/><path class="j" d="M1790.67,368.95h0c6.94-4.51,8.46,4.85,8.47,10.87l1.16,56.4c.03,10.9-5.73,13.48-10.39,13.49h0c-8.43,3.23-8.46-4.85-8.47-10.87l-.09-30.77c-.02-6.02,4.86-37.19,9.32-39.13Z"/><path class="j" d="M1791.1,515.1h0c6.94-4.51,8.46,4.85,8.47,10.87l1.16,56.4c.03,10.9-5.73,13.48-10.39,13.49h0c-8.43,3.23-8.46-4.85-8.47-10.87l-.09-30.77c-.02-6.02,4.86-37.19,9.32-39.13Z"/><path class="j" d="M1791.51,655.48h0c6.94-4.51,8.46,4.85,8.47,10.87l1.16,56.4c.03,10.9-5.73,13.48-10.39,13.49h0c-8.43,3.23-8.46-4.85-8.47-10.87l-.09-30.77c-.02-6.02,4.86-37.19,9.32-39.13Z"/><path class="j" d="M1791.88,781.11h0c6.94-4.51,8.46,4.85,8.47,10.87l1.16,56.4c.03,10.9-5.73,13.48-10.39,13.49h0c-8.43,3.23-8.46-4.85-8.47-10.87l-.09-30.77c-.02-6.02,4.86-37.19,9.32-39.13Z"/></g><path class="j" d="M1741.27,855.38c39.69,224.02-614.94-26.08-874.81,117.52-250.52,138.43-265.59-865.78-61.62-838.54,350.53,46.81,524.28-77.68,853.6,6.97,164.61,42.31-1.21,239.72,82.83,714.06Z"/><g><path class="j" d="M1687.91,1010.74h0c-4.54-6.92,4.82-8.48,10.84-8.52l56.4-1.39c10.9-.08,13.5,5.67,13.53,10.34h0c3.26,8.42-4.82,8.48-10.84,8.52l-30.77,.22c-6.02,.04-37.21-4.71-39.17-9.16Z"/><path class="j" d="M885.09,1016.37h0c-4.54-6.92,4.82-8.48,10.84-8.52l56.4-1.39c10.9-.08,13.5,5.67,13.53,10.34h0c3.26,8.42-4.82,8.48-10.84,8.52l-30.77,.22c-6.02,.04-37.21-4.71-39.17-9.16Z"/><path class="j" d="M1015.22,1015.46h0c-4.54-6.92,4.82-8.48,10.84-8.52l56.4-1.39c10.9-.08,13.5,5.67,13.53,10.34h0c3.26,8.42-4.82,8.48-10.84,8.52l-30.77,.22c-6.02,.04-37.21-4.71-39.17-9.16Z"/><path class="j" d="M1151.74,1014.5h0c-4.54-6.92,4.82-8.48,10.84-8.52l56.4-1.39c10.9-.08,13.5,5.67,13.53,10.34h0c3.26,8.42-4.82,8.48-10.84,8.52l-30.77,.22c-6.02,.04-37.21-4.71-39.17-9.16Z"/><path class="j" d="M1297.89,1013.48h0c-4.54-6.92,4.82-8.48,10.84-8.52l56.4-1.39c10.9-.08,13.5,5.67,13.53,10.34h0c3.26,8.42-4.82,8.48-10.84,8.52l-30.77,.22c-6.02,.04-37.21-4.71-39.17-9.16Z"/><path class="j" d="M1438.27,1012.49h0c-4.54-6.92,4.82-8.48,10.84-8.52l56.4-1.39c10.9-.08,13.5,5.67,13.53,10.34h0c3.26,8.42-4.82,8.48-10.84,8.52l-30.77,.22c-6.02,.04-37.21-4.71-39.17-9.16Z"/><path class="j" d="M1563.9,1011.61h0c-4.54-6.92,4.82-8.48,10.84-8.52l56.4-1.39c10.9-.08,13.5,5.67,13.53,10.34h0c3.26,8.42-4.82,8.48-10.84,8.52l-30.77,.22c-6.02,.04-37.21-4.71-39.17-9.16Z"/><path class="j" d="M632.9,1017.3h0c-4.54-6.92,4.82-8.48,10.84-8.52l56.4-1.39c10.9-.08,13.5,5.67,13.53,10.34h0c3.26,8.42-4.82,8.48-10.84,8.52l-30.77,.22c-6.02,.04-37.21-4.71-39.17-9.16Z"/><path class="j" d="M763.02,1016.39h0c-4.54-6.92,4.82-8.48,10.84-8.52l56.4-1.39c10.9-.08,13.5,5.67,13.53,10.34h0c3.26,8.42-4.82,8.48-10.84,8.52l-30.77,.22c-6.02,.04-37.21-4.71-39.17-9.16Z"/></g><g><path class="j" d="M1697.61,80.23h0c-4.54-6.92,4.82-8.48,10.84-8.52l56.4-1.39c10.9-.08,13.5,5.67,13.53,10.34h0c3.26,8.42-4.82,8.48-10.84,8.52l-30.77,.22c-6.02,.04-37.21-4.71-39.17-9.16Z"/><path class="j" d="M894.8,85.86h0c-4.54-6.92,4.82-8.48,10.84-8.52l56.4-1.39c10.9-.08,13.5,5.67,13.53,10.34h0c3.26,8.42-4.82,8.48-10.84,8.52l-30.77,.22c-6.02,.04-37.21-4.71-39.17-9.16Z"/><path class="j" d="M1024.92,84.95h0c-4.54-6.92,4.82-8.48,10.84-8.52l56.4-1.39c10.9-.08,13.5,5.67,13.53,10.34h0c3.26,8.42-4.82,8.48-10.84,8.52l-30.77,.22c-6.02,.04-37.21-4.71-39.17-9.16Z"/><path class="j" d="M1161.45,83.99h0c-4.54-6.92,4.82-8.48,10.84-8.52l56.4-1.39c10.9-.08,13.5,5.67,13.53,10.34h0c3.26,8.42-4.82,8.48-10.84,8.52l-30.77,.22c-6.02,.04-37.21-4.71-39.17-9.16Z"/><path class="j" d="M1307.59,82.96h0c-4.54-6.92,4.82-8.48,10.84-8.52l56.4-1.39c10.9-.08,13.5,5.67,13.53,10.34h0c3.26,8.42-4.82,8.48-10.84,8.52l-30.77,.22c-6.02,.04-37.21-4.71-39.17-9.16Z"/><path class="j" d="M1447.97,81.98h0c-4.54-6.92,4.82-8.48,10.84-8.52l56.4-1.39c10.9-.08,13.5,5.67,13.53,10.34h0c3.26,8.42-4.82,8.48-10.84,8.52l-30.77,.22c-6.02,.04-37.21-4.71-39.17-9.16Z"/><path class="j" d="M1573.6,81.1h0c-4.54-6.92,4.82-8.48,10.84-8.52l56.4-1.39c10.9-.08,13.5,5.67,13.53,10.34h0c3.26,8.42-4.82,8.48-10.84,8.52l-30.77,.22c-6.02,.04-37.21-4.71-39.17-9.16Z"/><path class="j" d="M642.61,86.79h0c-4.54-6.92,4.82-8.48,10.84-8.52l56.4-1.39c10.9-.08,13.5,5.67,13.53,10.34h0c3.26,8.42-4.82,8.48-10.84,8.52l-30.77,.22c-6.02,.04-37.21-4.71-39.17-9.16Z"/><path class="j" d="M772.73,85.87h0c-4.54-6.92,4.82-8.48,10.84-8.52l56.4-1.39c10.9-.08,13.5,5.67,13.53,10.34h0c3.26,8.42-4.82,8.48-10.84,8.52l-30.77,.22c-6.02,.04-37.21-4.71-39.17-9.16Z"/></g><g><path class="o" d="M884.81,324.06c-4.05-.15-4.65-2.7-4.65-6.15,0-14.25,6.6-25.65,8.7-31.65,.3-.9,.45-1.65,.45-2.4,0-1.05-.6-2.1-1.8-3.6-7.2-8.7-24.45-27.75-24.45-65.4,0-4.35,1.5-5.1,4.65-5.4,3.6-.45,7.8-.45,12.15-.45s8.4,.15,10.95,.3c5.25,.3,5.7,2.25,5.4,4.8-.45,3-1.5,10.65-1.5,18.45,0,14.7,5.1,26.4,9.45,30.3,1.05,1.05,1.8,1.5,2.85,1.5,.75,0,1.5-.45,2.25-1.05,4.5-4.8,8.85-20.55,8.85-34.05,0-9.15-.9-13.8-.9-16.35,0-2.25,1.2-3.15,3.3-3.45,2.25-.15,6.15-.3,10.05-.3,4.8,0,9.75,.15,12.75,.45,4.8,.3,5.85,1.35,5.85,6,0,23.4-8.55,37.5-16.65,51.15-7.2,12.45-14.1,24.6-14.1,43.2,0,4.35,.9,7.95,.9,10.65,0,1.65-.6,3.3-4.05,3.45-3.6,.15-9.3,.3-15,.3s-11.55-.15-15.45-.3Z"/><path class="o" d="M982,326.01c-27,0-36-20.7-36-45.9,0-37.05,18.9-52.2,41.4-52.2,15.15,0,27,8.1,27,24.9,0,25.65-21.45,28.65-34.65,34.5-4.65,1.65-6.6,3-6.6,5.55,0,4.35,3.15,7.8,10.35,7.8,10.35,0,19.8-4.5,25.65-12.15,.9-.75,1.5-1.2,2.25-1.2,2.1,0,3.75,3.9,3.75,10.95,0,17.4-15.45,27.75-33.15,27.75Zm2.1-77.25c-8.25,0-13.95,9-13.95,19.35,0,1.5,.45,2.7,1.8,2.7,.9,0,1.95-.3,2.85-.75,6-3.6,16.2-7.35,16.2-14.55,0-3.9-2.55-6.75-6.9-6.75Z"/><path class="o" d="M1056.55,326.01c-27,0-36-20.7-36-45.9,0-37.05,18.9-52.2,41.4-52.2,15.15,0,27,8.1,27,24.9,0,25.65-21.45,28.65-34.65,34.5-4.65,1.65-6.6,3-6.6,5.55,0,4.35,3.15,7.8,10.35,7.8,10.35,0,19.8-4.5,25.65-12.15,.9-.75,1.5-1.2,2.25-1.2,2.1,0,3.75,3.9,3.75,10.95,0,17.4-15.45,27.75-33.15,27.75Zm2.1-77.25c-8.25,0-13.95,9-13.95,19.35,0,1.5,.45,2.7,1.8,2.7,.9,0,1.95-.3,2.85-.75,6-3.6,16.2-7.35,16.2-14.55,0-3.9-2.55-6.75-6.9-6.75Z"/><path class="o" d="M1131.1,326.01c-27,0-36-20.7-36-45.9,0-37.05,18.9-52.2,41.4-52.2,15.15,0,27,8.1,27,24.9,0,25.65-21.45,28.65-34.65,34.5-4.65,1.65-6.6,3-6.6,5.55,0,4.35,3.15,7.8,10.35,7.8,10.35,0,19.8-4.5,25.65-12.15,.9-.75,1.5-1.2,2.25-1.2,2.1,0,3.75,3.9,3.75,10.95,0,17.4-15.45,27.75-33.15,27.75Zm2.1-77.25c-8.25,0-13.95,9-13.95,19.35,0,1.5,.45,2.7,1.8,2.7,.9,0,1.95-.3,2.85-.75,6-3.6,16.2-7.35,16.2-14.55,0-3.9-2.55-6.75-6.9-6.75Z"/><path class="o" d="M1205.65,326.01c-27,0-36-20.7-36-45.9,0-37.05,18.9-52.2,41.4-52.2,15.15,0,27,8.1,27,24.9,0,25.65-21.45,28.65-34.65,34.5-4.65,1.65-6.6,3-6.6,5.55,0,4.35,3.15,7.8,10.35,7.8,10.35,0,19.8-4.5,25.65-12.15,.9-.75,1.5-1.2,2.25-1.2,2.1,0,3.75,3.9,3.75,10.95,0,17.4-15.45,27.75-33.15,27.75Zm2.1-77.25c-8.25,0-13.95,9-13.95,19.35,0,1.5,.45,2.7,1.8,2.7,.9,0,1.95-.3,2.85-.75,6-3.6,16.2-7.35,16.2-14.55,0-3.9-2.55-6.75-6.9-6.75Z"/><path class="o" d="M1249.15,296.91c4.2,0,9.75,.9,14.55,1.05,5.4,0,9.45-.75,9.45-3.9,0-.9-.75-1.65-1.95-2.25-17.85-8.7-25.95-22.5-25.95-56.25,0-4.05,1.2-5.4,4.95-5.7,2.7-.3,6-.45,9.6-.45s7.65,.15,11.25,.45c1.65,.15,3.15,.6,3.15,2.7,0,1.5-.6,6.3-.6,10.8,0,18.9,6.75,33.6,12,33.6,1.05,0,1.8-.6,2.25-2.1,1.65-5.1,2.55-15,2.55-24.6,0-7.5-1.05-15.6-1.05-17.4,0-1.95,1.65-2.85,3.15-3,2.55-.3,6.45-.3,9.9-.3s7.05,0,9,.3c4.2,.6,5.4,3.75,5.4,8.25,0,51.9-9.9,88.5-66.9,88.5-4.05,0-4.95-1.65-5.25-4.8-.15-2.1-.3-4.5-.3-7.2,0-4.65,.3-9.6,.75-13.95,.3-2.55,1.8-3.75,4.05-3.75Z"/><path class="o" d="M1325.95,296.91c4.2,0,9.75,.9,14.55,1.05,5.4,0,9.45-.75,9.45-3.9,0-.9-.75-1.65-1.95-2.25-17.85-8.7-25.95-22.5-25.95-56.25,0-4.05,1.2-5.4,4.95-5.7,2.7-.3,6-.45,9.6-.45s7.65,.15,11.25,.45c1.65,.15,3.15,.6,3.15,2.7,0,1.5-.6,6.3-.6,10.8,0,18.9,6.75,33.6,12,33.6,1.05,0,1.8-.6,2.25-2.1,1.65-5.1,2.55-15,2.55-24.6,0-7.5-1.05-15.6-1.05-17.4,0-1.95,1.65-2.85,3.15-3,2.55-.3,6.45-.3,9.9-.3s7.05,0,9,.3c4.2,.6,5.4,3.75,5.4,8.25,0,51.9-9.9,88.5-66.9,88.5-4.05,0-4.95-1.65-5.25-4.8-.15-2.1-.3-4.5-.3-7.2,0-4.65,.3-9.6,.75-13.95,.3-2.55,1.8-3.75,4.05-3.75Z"/><path class="o" d="M1402.75,296.91c4.2,0,9.75,.9,14.55,1.05,5.4,0,9.45-.75,9.45-3.9,0-.9-.75-1.65-1.95-2.25-17.85-8.7-25.95-22.5-25.95-56.25,0-4.05,1.2-5.4,4.95-5.7,2.7-.3,6-.45,9.6-.45s7.65,.15,11.25,.45c1.65,.15,3.15,.6,3.15,2.7,0,1.5-.6,6.3-.6,10.8,0,18.9,6.75,33.6,12,33.6,1.05,0,1.8-.6,2.25-2.1,1.65-5.1,2.55-15,2.55-24.6,0-7.5-1.05-15.6-1.05-17.4,0-1.95,1.65-2.85,3.15-3,2.55-.3,6.45-.3,9.9-.3s7.05,0,9,.3c4.2,.6,5.4,3.75,5.4,8.25,0,51.9-9.9,88.5-66.9,88.5-4.05,0-4.95-1.65-5.25-4.8-.15-2.1-.3-4.5-.3-7.2,0-4.65,.3-9.6,.75-13.95,.3-2.55,1.8-3.75,4.05-3.75Z"/><path class="o" d="M1510,209.91c2.1,.3,2.85,1.5,2.85,3.15,0,3.9-6,18.3-8.25,69.45-.15,4.05-1.8,5.25-9.15,6-2.25,.3-4.2,.3-5.85,.3-3.75,0-5.55-.75-6.3-3.45-3.3-12.75-5.4-26.85-6.3-43.65-.45-9-.6-16.35-.6-25.8,.15-3.3,.9-5.7,5.7-6.15,3.6-.3,8.55-.45,13.65-.45s10.5,.15,14.25,.6Zm-32.85,100.65c0-9.75,6.45-15.45,16.5-15.45s16.5,5.7,16.5,15.45-6,14.7-16.5,14.7-16.5-5.1-16.5-14.7Z"/><path class="o" d="M1551.84,209.91c2.1,.3,2.85,1.5,2.85,3.15,0,3.9-6,18.3-8.25,69.45-.15,4.05-1.8,5.25-9.15,6-2.25,.3-4.2,.3-5.85,.3-3.75,0-5.55-.75-6.3-3.45-3.3-12.75-5.4-26.85-6.3-43.65-.45-9-.6-16.35-.6-25.8,.15-3.3,.9-5.7,5.7-6.15,3.6-.3,8.55-.45,13.65-.45s10.5,.15,14.25,.6Zm-32.85,100.65c0-9.75,6.45-15.45,16.5-15.45s16.5,5.7,16.5,15.45-6,14.7-16.5,14.7-16.5-5.1-16.5-14.7Z"/></g><g><path class="o" d="M817.96,465.67c-1.58-.06-1.82-1.05-1.82-2.4,0-5.57,2.58-10.02,3.4-12.36,.12-.35,.18-.64,.18-.94,0-.41-.23-.82-.7-1.41-2.81-3.4-9.55-10.84-9.55-25.55,0-1.7,.59-1.99,1.82-2.11,1.41-.18,3.05-.18,4.75-.18s3.28,.06,4.28,.12c2.05,.12,2.23,.88,2.11,1.88-.18,1.17-.59,4.16-.59,7.21,0,5.74,1.99,10.31,3.69,11.84,.41,.41,.7,.59,1.11,.59,.29,0,.59-.18,.88-.41,1.76-1.88,3.46-8.03,3.46-13.3,0-3.57-.35-5.39-.35-6.39,0-.88,.47-1.23,1.29-1.35,.88-.06,2.4-.12,3.93-.12,1.88,0,3.81,.06,4.98,.18,1.88,.12,2.29,.53,2.29,2.34,0,9.14-3.34,14.65-6.5,19.98-2.81,4.86-5.51,9.61-5.51,16.88,0,1.7,.35,3.11,.35,4.16,0,.64-.23,1.29-1.58,1.35-1.41,.06-3.63,.12-5.86,.12s-4.51-.06-6.04-.12Z"/><path class="o" d="M841.69,447.51c0-11.6,4.98-19.45,14.88-19.45s14,7.5,14,19.45c0,13.3-6.45,18.93-14.82,18.93s-14.06-5.62-14.06-18.93Zm18.57-.82c0-6.74-1.52-9.9-4.1-9.9-2.75,0-4.22,3.16-4.22,9.9s1.17,9.61,4.16,9.61,4.16-3.05,4.16-9.61Z"/><path class="o" d="M873.68,447.62c0-4.92,.82-14.3,1.23-16.88,.18-1.23,.7-1.76,1.64-1.88,1.17-.06,2.64-.12,4.04-.12s2.58,.06,3.57,.12c1,.12,1.29,.59,1.29,1.35,0,1.88-.88,12.01-.88,19.63,0,4.8,1.11,6.39,3.05,6.39,1,0,1.76-.35,2.4-.94,1.17-1.11,1.64-3.11,1.64-7.03,0-10.37-.88-16.58-.94-17.7-.06-1.17,.41-1.58,1.52-1.7,.88-.12,1.99-.12,3.16-.12,1.46,0,2.87,0,3.98,.12,1.11,.06,1.76,.41,1.93,2.05,.59,4.75,.82,9.79,.82,15.35,0,5.1-.23,10.66-.76,16.88-.12,1.76-1.23,2.29-2.58,2.4-.94,.12-2.11,.12-3.16,.12-.82,0-1.64,0-2.23-.06-1-.12-1.41-.53-1.41-1.46,0-.82-.29-1.11-.94-1.11-1.88,0-4.39,3.16-8.55,3.16-6.56,0-8.85-4.57-8.85-18.57Z"/><path class="o" d="M916.16,449.15c0-13.48,4.22-21.04,10.37-21.04,2.93,0,5.1,1.82,6.5,3.05,.18,.18,.41,.23,.59,.23,.35,0,.59-.23,.59-.82,0-3.57-1.46-10.2-1.46-11.43,0-.88,.59-1.23,1.41-1.29,1.05-.06,2.17-.12,3.28-.12,1.58,0,3.22,.06,4.75,.18,1,.12,1.64,.41,1.82,1.99,.64,4.86,1.29,15.47,1.29,25.31,0,6.56-.29,12.89-.94,17.17-.12,.88-.7,1.7-1.82,2.11-1.88,.7-5.51,1.52-11.72,1.52-10.37,0-14.65-5.16-14.65-16.88Zm18.52-3.75c0-6.45-1.76-8.73-3.87-8.73-2.29,0-3.69,2.64-3.69,11.07,0,7.85,1.41,10.14,3.98,10.14,2.81,0,3.57-1.58,3.57-12.48Z"/><path class="o" d="M961.03,465.67c-1.41,.12-3.05,.18-4.75,.18s-3.34-.06-4.8-.18c-.59-.06-1.35-.29-1.46-1.52-.47-3.93-.7-8.55-.7-13.36,0-7.09,.47-14.53,1.46-20.45,.23-1.17,.88-1.41,1.64-1.46,1.29-.12,2.46-.12,3.57-.12,1.17,0,2.34,0,3.63,.12,.88,.06,1.35,.47,1.35,1.17,0,1.29-.41,6.62-.41,12.83,0,11.66,1.58,19.69,1.58,21.74,0,.7-.53,1-1.11,1.05Zm-11.25-43.95c0-3.11,2.05-5.04,6.39-5.04,4.57,0,6.39,1.93,6.39,5.04s-1.82,4.8-6.39,4.8-6.39-1.76-6.39-4.8Z"/><path class="o" d="M965.31,449.15c0-13.48,4.22-21.04,10.37-21.04,2.93,0,5.1,1.82,6.5,3.05,.18,.18,.41,.23,.59,.23,.35,0,.59-.23,.59-.82,0-3.57-1.46-10.2-1.46-11.43,0-.88,.59-1.23,1.41-1.29,1.05-.06,2.17-.12,3.28-.12,1.58,0,3.22,.06,4.75,.18,1,.12,1.64,.41,1.82,1.99,.64,4.86,1.29,15.47,1.29,25.31,0,6.56-.29,12.89-.94,17.17-.12,.88-.7,1.7-1.82,2.11-1.88,.7-5.51,1.52-11.72,1.52-10.37,0-14.65-5.16-14.65-16.88Zm18.52-3.75c0-6.45-1.76-8.73-3.87-8.73-2.29,0-3.69,2.64-3.69,11.07,0,7.85,1.41,10.14,3.98,10.14,2.81,0,3.57-1.58,3.57-12.48Z"/><path class="o" d="M1020.44,465.67c-1.41,.12-3.05,.18-4.75,.18s-3.34-.06-4.8-.18c-.59-.06-1.35-.29-1.46-1.52-.47-3.93-.7-8.55-.7-13.36,0-7.09,.47-14.53,1.46-20.45,.23-1.17,.88-1.41,1.64-1.46,1.29-.12,2.46-.12,3.57-.12,1.17,0,2.34,0,3.63,.12,.88,.06,1.35,.47,1.35,1.17,0,1.29-.41,6.62-.41,12.83,0,11.66,1.58,19.69,1.58,21.74,0,.7-.53,1-1.11,1.05Zm-11.25-43.95c0-3.11,2.05-5.04,6.39-5.04,4.57,0,6.39,1.93,6.39,5.04s-1.82,4.8-6.39,4.8-6.39-1.76-6.39-4.8Z"/><path class="o" d="M1039.89,421.38c-.18,.76-1.88,4.51-1.88,6.91,0,.53,.29,.82,1.11,.82,.59,0,1.82-.23,2.64-.23,.53,0,.82,.35,.94,1.05,.18,1,.29,2.4,.29,3.93s-.12,3.22-.41,4.69c-.12,.53-.47,.7-.88,.7-.76,0-1.76-.29-2.81-.29-.94,0-1.17,.7-1.23,1.7-.12,1-.18,2.29-.18,3.63,0,6.09,1.35,12.89,2.7,18.16,.06,.41,.23,.82,.23,1.11,0,.47-.23,.76-.64,1.05-2.17,1.41-6.91,2.34-9.61,2.34-.82,0-1.29-.18-1.52-.82-1.17-3.22-1.82-10.61-1.88-17.17,0-3.34,.18-6.5,.23-8.26,.06-1-.23-1.41-.88-1.41-.47,0-1,.06-1.35,.06-.53,0-.82-.29-.88-1-.06-.41-.12-.88-.12-1.46,0-2.29,.29-5.04,.59-6.56,.18-1.11,.64-1.41,1.29-1.41,.47,0,.88,.06,1.29,.06,1.41,0,1.46-1.29,1.82-4.28,.06-1.29,.41-1.76,1.29-2.29,2.87-1.58,7.97-2.11,9.08-2.11,.64,0,.88,.47,.76,1.05Z"/><path class="o" d="M1058.11,421.08c.82,.12,1.11,.59,1.11,1.23,0,1.52-2.34,7.15-3.22,27.13-.06,1.58-.7,2.05-3.57,2.34-.88,.12-1.64,.12-2.29,.12-1.46,0-2.17-.29-2.46-1.35-1.29-4.98-2.11-10.49-2.46-17.05-.18-3.52-.23-6.39-.23-10.08,.06-1.29,.35-2.23,2.23-2.4,1.41-.12,3.34-.18,5.33-.18s4.1,.06,5.57,.23Zm-12.83,39.32c0-3.81,2.52-6.04,6.45-6.04s6.45,2.23,6.45,6.04-2.34,5.74-6.45,5.74-6.45-1.99-6.45-5.74Z"/><path class="o" d="M1120.44,465.67c-1.58-.06-1.82-1.05-1.82-2.4,0-5.57,2.58-10.02,3.4-12.36,.12-.35,.18-.64,.18-.94,0-.41-.23-.82-.7-1.41-2.81-3.4-9.55-10.84-9.55-25.55,0-1.7,.59-1.99,1.82-2.11,1.41-.18,3.05-.18,4.75-.18s3.28,.06,4.28,.12c2.05,.12,2.23,.88,2.11,1.88-.18,1.17-.59,4.16-.59,7.21,0,5.74,1.99,10.31,3.69,11.84,.41,.41,.7,.59,1.11,.59,.29,0,.59-.18,.88-.41,1.76-1.88,3.46-8.03,3.46-13.3,0-3.57-.35-5.39-.35-6.39,0-.88,.47-1.23,1.29-1.35,.88-.06,2.4-.12,3.93-.12,1.88,0,3.81,.06,4.98,.18,1.88,.12,2.29,.53,2.29,2.34,0,9.14-3.34,14.65-6.5,19.98-2.81,4.86-5.51,9.61-5.51,16.88,0,1.7,.35,3.11,.35,4.16,0,.64-.23,1.29-1.58,1.35-1.41,.06-3.63,.12-5.86,.12s-4.51-.06-6.04-.12Z"/><path class="o" d="M1144.17,447.51c0-11.6,4.98-19.45,14.88-19.45s14,7.5,14,19.45c0,13.3-6.45,18.93-14.82,18.93s-14.06-5.62-14.06-18.93Zm18.57-.82c0-6.74-1.52-9.9-4.1-9.9-2.75,0-4.22,3.16-4.22,9.9s1.17,9.61,4.16,9.61,4.16-3.05,4.16-9.61Z"/><path class="o" d="M1176.16,447.62c0-4.92,.82-14.3,1.23-16.88,.18-1.23,.7-1.76,1.64-1.88,1.17-.06,2.64-.12,4.04-.12s2.58,.06,3.57,.12c1,.12,1.29,.59,1.29,1.35,0,1.88-.88,12.01-.88,19.63,0,4.8,1.11,6.39,3.05,6.39,1,0,1.76-.35,2.4-.94,1.17-1.11,1.64-3.11,1.64-7.03,0-10.37-.88-16.58-.94-17.7-.06-1.17,.41-1.58,1.52-1.7,.88-.12,1.99-.12,3.16-.12,1.46,0,2.87,0,3.98,.12,1.11,.06,1.76,.41,1.93,2.05,.59,4.75,.82,9.79,.82,15.35,0,5.1-.23,10.66-.76,16.88-.12,1.76-1.23,2.29-2.58,2.4-.94,.12-2.11,.12-3.16,.12-.82,0-1.64,0-2.23-.06-1-.12-1.41-.53-1.41-1.46,0-.82-.29-1.11-.94-1.11-1.88,0-4.39,3.16-8.55,3.16-6.56,0-8.85-4.57-8.85-18.57Z"/><path class="o" d="M1230.12,457.59c2.05,0,2.93-.82,2.93-2.29s-1.05-2.46-4.28-3.98c-5.62-2.7-10.2-5.1-10.2-11.95s5.27-11.31,13.59-11.31c3.75,0,7.62,.94,9.61,2.11,.88,.53,1.11,1.05,1.11,1.93,0,2.17-1.05,5.74-1.99,7.68-.23,.53-.59,.7-.94,.7-.29,0-.59-.12-.82-.35-2.17-1.82-5.57-3.69-8.32-3.69-1.88,0-2.81,.88-2.81,2.11,0,1.52,1.05,2.23,4.39,3.75,5.21,2.34,11.02,5.1,11.02,12.36,0,7.85-5.04,11.78-12.71,11.78s-12.71-3.75-12.71-9.79c0-2.4,.59-4.22,1.11-5.04,.23-.35,.53-.59,.88-.59,.29,0,.59,.12,.76,.47,1.7,2.93,5.27,6.09,9.38,6.09Z"/><path class="o" d="M1245.52,454.6c0-8.5,6.68-11.89,14.3-13.01,1.82-.29,2.7-.7,2.7-1.76,0-1.82-1-2.99-3.81-2.99-3.05,0-6.09,1.29-8.85,3.75-.35,.35-.7,.53-1,.53-.23,0-.53-.12-.76-.35-1.11-1.05-2.17-2.93-2.17-5.33,0-4.16,5.1-7.38,13.48-7.38,9.84,0,13.3,4.92,13.3,13.65,0,3.57-.29,9.2-.29,13.54,0,3.4,.47,7.27,.47,8.2,0,1-.47,1.64-1.46,1.82-1.88,.41-8.32,.47-12.19,.47-8.96,0-13.71-3.34-13.71-11.13Zm17.05-4.16c0-1.76-.23-2.23-1.23-2.23-3.22,0-5.86,1.88-5.86,4.92,0,2.58,1.76,3.69,4.75,3.69,1.88,0,2.34-.82,2.34-2.58v-3.81Z"/><path class="o" d="M1290.58,465.91c-.53,.23-1,.47-1.52,.47-.47,0-1-.18-1.58-.47-8.03-4.39-11.89-13.36-11.89-29.88,0-1.58,0-3.22,.18-4.86,.06-1.46,.41-2.05,2.11-2.23,1.05-.12,2.64-.18,4.16-.18s2.99,.06,3.87,.18c.53,.06,.94,.47,.94,1.23,0,1.93-.59,6.86-.59,12.3,0,3.63,.47,8.44,2.4,10.96,.23,.35,.47,.47,.76,.47,.23,0,.53-.12,.7-.47,1.99-2.93,2.46-7.97,2.46-12.07,0-4.92-.59-9.84-.59-11.13,0-.94,.41-1.23,1.05-1.29,.88-.18,2.34-.18,3.81-.18s2.87,0,3.93,.18c1.64,.12,1.82,.7,1.99,2.4,.12,1.46,.12,2.87,.12,4.28,0,17.34-4.34,26.07-12.3,30.29Z"/><path class="o" d="M1318.7,466.43c-10.55,0-14.06-8.09-14.06-17.93,0-14.47,7.38-20.39,16.17-20.39,5.92,0,10.55,3.16,10.55,9.73,0,10.02-8.38,11.19-13.54,13.48-1.82,.64-2.58,1.17-2.58,2.17,0,1.7,1.23,3.05,4.04,3.05,4.04,0,7.73-1.76,10.02-4.75,.35-.29,.59-.47,.88-.47,.82,0,1.46,1.52,1.46,4.28,0,6.8-6.04,10.84-12.95,10.84Zm.82-30.18c-3.22,0-5.45,3.52-5.45,7.56,0,.59,.18,1.05,.7,1.05,.35,0,.76-.12,1.11-.29,2.34-1.41,6.33-2.87,6.33-5.68,0-1.52-1-2.64-2.7-2.64Z"/><path class="o" d="M1334.28,449.15c0-13.48,4.22-21.04,10.37-21.04,2.93,0,5.1,1.82,6.5,3.05,.18,.18,.41,.23,.59,.23,.35,0,.59-.23,.59-.82,0-3.57-1.46-10.2-1.46-11.43,0-.88,.59-1.23,1.41-1.29,1.05-.06,2.17-.12,3.28-.12,1.58,0,3.22,.06,4.75,.18,1,.12,1.64,.41,1.82,1.99,.64,4.86,1.29,15.47,1.29,25.31,0,6.56-.29,12.89-.94,17.17-.12,.88-.7,1.7-1.82,2.11-1.88,.7-5.51,1.52-11.72,1.52-10.37,0-14.65-5.16-14.65-16.88Zm18.52-3.75c0-6.45-1.76-8.73-3.87-8.73-2.29,0-3.69,2.64-3.69,11.07,0,7.85,1.41,10.14,3.98,10.14,2.81,0,3.57-1.58,3.57-12.48Z"/><path class="o" d="M1376.76,447.51c0-11.6,4.98-19.45,14.88-19.45s14,7.5,14,19.45c0,13.3-6.45,18.93-14.82,18.93s-14.06-5.62-14.06-18.93Zm18.57-.82c0-6.74-1.52-9.9-4.1-9.9-2.75,0-4.22,3.16-4.22,9.9s1.17,9.61,4.16,9.61,4.16-3.05,4.16-9.61Z"/><path class="o" d="M1408.75,447.62c0-4.92,.82-14.3,1.23-16.88,.18-1.23,.7-1.76,1.64-1.88,1.17-.06,2.64-.12,4.04-.12s2.58,.06,3.57,.12c1,.12,1.29,.59,1.29,1.35,0,1.88-.88,12.01-.88,19.63,0,4.8,1.11,6.39,3.05,6.39,1,0,1.76-.35,2.4-.94,1.17-1.11,1.64-3.11,1.64-7.03,0-10.37-.88-16.58-.94-17.7-.06-1.17,.41-1.58,1.52-1.7,.88-.12,1.99-.12,3.16-.12,1.46,0,2.87,0,3.98,.12,1.11,.06,1.76,.41,1.93,2.05,.59,4.75,.82,9.79,.82,15.35,0,5.1-.23,10.66-.76,16.88-.12,1.76-1.23,2.29-2.58,2.4-.94,.12-2.11,.12-3.16,.12-.82,0-1.64,0-2.23-.06-1-.12-1.41-.53-1.41-1.46,0-.82-.29-1.11-.94-1.11-1.88,0-4.39,3.16-8.55,3.16-6.56,0-8.85-4.57-8.85-18.57Z"/><path class="o" d="M1453.04,465.61c-1.11,.06-2.46,.12-3.98,.12s-3.11,0-4.75-.12c-.82-.06-1.41-.59-1.64-1.58-.7-2.99-1.17-9.2-1.17-16.76,0-10.2,.47-14.82,1-16.76,.23-.94,.64-1.29,1.11-1.46,.7-.18,2.64-.35,4.45-.35,1,0,1.93,0,2.64,.18,.64,.12,.82,.53,.88,1.23s.35,.94,.64,.94,.59-.18,1-.47c1.17-1.05,2.4-2.05,3.69-2.05,1.05,0,1.76,1.35,1.76,5.98,0,2.17-.12,4.22-.47,5.27-.29,1-.76,1.23-1.29,1.23-.7,0-1.64-.53-2.75-.53s-2.05,1.11-2.05,5.68c0,7.38,2.46,16.88,2.46,18.05,0,.76-.35,1.29-1.52,1.41Z"/><path class="o" d="M1475.36,467.02c-.88,0-1.52-.35-1.99-2.23-1.11-4.63-1.7-12.3-1.7-19.16,0-15.7,1.23-17.58,11.13-17.58,13.3,0,16.93,5.98,16.93,13.77,0,12.77-6.5,19.16-11.07,19.16-2.7,0-4.57-3.98-5.57-3.98-.47,0-.7,.41-.7,.94,0,3.69,1.17,6.04,1.17,6.91,0,.64-.53,.94-1.29,1.11-2.17,.41-5.45,1.05-6.91,1.05Zm6.74-21.74c0,5.8,1.35,7.15,3.16,7.15,2.64,0,3.98-4.34,3.98-10.84,0-4.1-1.46-5.8-4.39-5.8-1.93,0-2.75,1.76-2.75,9.49Z"/><path class="o" d="M1514.26,465.67c-1.41,.12-3.05,.18-4.75,.18s-3.34-.06-4.8-.18c-.59-.06-1.35-.29-1.46-1.52-.47-3.93-.7-8.55-.7-13.36,0-7.09,.47-14.53,1.46-20.45,.23-1.17,.88-1.41,1.64-1.46,1.29-.12,2.46-.12,3.57-.12,1.17,0,2.34,0,3.63,.12,.88,.06,1.35,.47,1.35,1.17,0,1.29-.41,6.62-.41,12.83,0,11.66,1.58,19.69,1.58,21.74,0,.7-.53,1-1.11,1.05Zm-11.25-43.95c0-3.11,2.05-5.04,6.39-5.04,4.57,0,6.39,1.93,6.39,5.04s-1.82,4.8-6.39,4.8-6.39-1.76-6.39-4.8Z"/><path class="o" d="M1518.01,449.32c0-14.59,6.56-21.27,15.18-21.27,6.86,0,10.2,4.8,10.2,10.9,0,3.93-4.16,6.91-7.27,6.91-.82,0-1.17-.23-1.23-.94-.18-3.75-.23-7.38-2.64-7.38-2.17,0-3.69,3.34-3.69,9.43,0,4.98,1,8.61,4.8,8.61s5.92-2.87,7.15-5.57c.18-.35,.41-.53,.76-.53,.18,0,.41,.12,.64,.41,.94,1.05,1.82,2.93,1.82,5.51,0,6.04-4.16,11.02-12.36,11.02-9.38,0-13.36-7.15-13.36-17.11Z"/><path class="o" d="M1574.96,443.23c0,8.91-.88,18.28-1.23,20.74-.18,1.11-.76,1.64-1.64,1.7-.94,.12-2.23,.12-3.57,.12-1.46,0-2.87-.06-4.1-.12-.94-.12-1.29-.53-1.29-1.23,0-2.7,.88-12.48,.88-20.16,0-4.16-.7-6.15-2.87-6.15-1.05,0-1.99,.35-2.7,1.05-1,.94-1.41,2.58-1.41,6.86,0,8.79,.82,16.35,.82,18.11,0,1.05-.47,1.46-1.52,1.52s-2.17,.12-3.28,.12c-1.46,0-2.87-.06-3.93-.12-1-.06-1.64-.35-1.76-1.88-.41-4.51-.7-10.25-.7-16.88,0-4.75,.12-9.96,.53-15.47,.12-1.88,1.23-2.34,2.75-2.52,1.05-.06,2.29-.12,3.46-.12,1,0,1.99,.06,2.7,.12,1.05,.06,1.46,.53,1.46,1.35s.29,1.11,.82,1.11c1.76,0,3.98-3.11,8.38-3.11,5.57,0,8.2,4.04,8.2,14.94Z"/><path class="o" d="M1590.43,465.67c-1.41,.12-3.05,.18-4.75,.18s-3.34-.06-4.8-.18c-.59-.06-1.35-.29-1.46-1.52-.47-3.93-.7-8.55-.7-13.36,0-7.09,.47-14.53,1.46-20.45,.23-1.17,.88-1.41,1.64-1.46,1.29-.12,2.46-.12,3.57-.12,1.17,0,2.34,0,3.63,.12,.88,.06,1.35,.47,1.35,1.17,0,1.29-.41,6.62-.41,12.83,0,11.66,1.58,19.69,1.58,21.74,0,.7-.53,1-1.11,1.05Zm-11.25-43.95c0-3.11,2.05-5.04,6.39-5.04,4.57,0,6.39,1.93,6.39,5.04s-1.82,4.8-6.39,4.8-6.39-1.76-6.39-4.8Z"/><path class="o" d="M1594.17,449.32c0-14.59,6.56-21.27,15.18-21.27,6.86,0,10.2,4.8,10.2,10.9,0,3.93-4.16,6.91-7.27,6.91-.82,0-1.17-.23-1.23-.94-.18-3.75-.23-7.38-2.64-7.38-2.17,0-3.69,3.34-3.69,9.43,0,4.98,1,8.61,4.8,8.61s5.92-2.87,7.15-5.57c.18-.35,.41-.53,.76-.53,.18,0,.41,.12,.64,.41,.94,1.05,1.82,2.93,1.82,5.51,0,6.04-4.16,11.02-12.36,11.02-9.38,0-13.36-7.15-13.36-17.11Z"/><path class="o" d="M1635.54,421.08c.82,.12,1.11,.59,1.11,1.23,0,1.52-2.34,7.15-3.22,27.13-.06,1.58-.7,2.05-3.57,2.34-.88,.12-1.64,.12-2.29,.12-1.46,0-2.17-.29-2.46-1.35-1.29-4.98-2.11-10.49-2.46-17.05-.18-3.52-.23-6.39-.23-10.08,.06-1.29,.35-2.23,2.23-2.4,1.41-.12,3.34-.18,5.33-.18s4.1,.06,5.57,.23Zm-12.83,39.32c0-3.81,2.52-6.04,6.45-6.04s6.45,2.23,6.45,6.04-2.34,5.74-6.45,5.74-6.45-1.99-6.45-5.74Z"/></g><g><path class="o" d="M764.53,562.02c-.3-.3-.42-.65-.42-1.13,0-1.66,.89-6.29,2.19-10.14,.18-.53,.59-.71,.89-.71,.47,0,.77,.3,1.25,.77,.42,.42,1.01,.77,1.84,.77,2.25,0,3.02-3.5,3.02-8.6,0-11.62-2.31-21.59-2.31-22.78,0-1.07,.53-1.36,1.36-1.42,1.19-.06,3.08-.12,4.98-.12s3.97,0,5.34,.12c.77,.06,1.3,.36,1.54,1.3,.65,2.61,1.25,14.12,1.25,20.46,0,18.56-5.46,24.44-13.23,24.44-4.45,0-6.76-1.6-7.71-2.97Z"/><path class="o" d="M788.79,545.71c0-11.74,5.04-19.69,15.06-19.69s14.18,7.59,14.18,19.69c0,13.46-6.52,19.16-15.01,19.16s-14.23-5.69-14.23-19.16Zm18.8-.83c0-6.82-1.54-10.02-4.15-10.02-2.79,0-4.27,3.2-4.27,10.02s1.19,9.73,4.21,9.73,4.21-3.08,4.21-9.73Z"/><path class="o" d="M832.97,564.1c-1.42,.12-3.08,.18-4.8,.18s-3.38-.06-4.86-.18c-.59-.06-1.36-.3-1.48-1.54-.47-3.97-.71-8.66-.71-13.52,0-7.18,.47-14.71,1.48-20.7,.24-1.19,.89-1.42,1.66-1.48,1.3-.12,2.49-.12,3.62-.12,1.19,0,2.37,0,3.68,.12,.89,.06,1.36,.47,1.36,1.19,0,1.3-.42,6.7-.42,12.99,0,11.8,1.6,19.93,1.6,22,0,.71-.53,1.01-1.13,1.07Zm-11.39-44.48c0-3.14,2.08-5.1,6.46-5.1,4.63,0,6.46,1.96,6.46,5.1s-1.84,4.86-6.46,4.86-6.46-1.78-6.46-4.86Z"/><path class="o" d="M866.54,541.38c0,9.02-.89,18.51-1.25,21-.18,1.13-.77,1.66-1.66,1.72-.95,.12-2.25,.12-3.62,.12-1.48,0-2.91-.06-4.15-.12-.95-.12-1.3-.53-1.3-1.25,0-2.73,.89-12.63,.89-20.4,0-4.21-.71-6.23-2.91-6.23-1.07,0-2.02,.36-2.73,1.07-1.01,.95-1.42,2.61-1.42,6.94,0,8.9,.83,16.55,.83,18.33,0,1.07-.47,1.48-1.54,1.54-1.07,.06-2.19,.12-3.32,.12-1.48,0-2.91-.06-3.97-.12-1.01-.06-1.66-.36-1.78-1.9-.42-4.57-.71-10.38-.71-17.08,0-4.8,.12-10.08,.53-15.66,.12-1.9,1.25-2.37,2.79-2.55,1.07-.06,2.31-.12,3.5-.12,1.01,0,2.02,.06,2.73,.12,1.07,.06,1.48,.53,1.48,1.36s.3,1.13,.83,1.13c1.78,0,4.03-3.14,8.48-3.14,5.63,0,8.3,4.09,8.3,15.12Z"/><path class="o" d="M880.77,545.83c0-4.98,.83-14.47,1.25-17.08,.18-1.25,.71-1.78,1.66-1.9,1.19-.06,2.67-.12,4.09-.12s2.61,.06,3.62,.12c1.01,.12,1.31,.59,1.31,1.36,0,1.9-.89,12.16-.89,19.87,0,4.86,1.13,6.47,3.08,6.47,1.01,0,1.78-.36,2.43-.95,1.19-1.13,1.66-3.14,1.66-7.12,0-10.5-.89-16.79-.95-17.91-.06-1.19,.42-1.6,1.54-1.72,.89-.12,2.02-.12,3.2-.12,1.48,0,2.91,0,4.03,.12,1.13,.06,1.78,.42,1.96,2.08,.59,4.8,.83,9.9,.83,15.54,0,5.16-.24,10.79-.77,17.08-.12,1.78-1.25,2.31-2.61,2.43-.95,.12-2.14,.12-3.2,.12-.83,0-1.66,0-2.25-.06-1.01-.12-1.42-.53-1.42-1.48,0-.83-.3-1.13-.95-1.13-1.9,0-4.45,3.2-8.66,3.2-6.64,0-8.96-4.63-8.96-18.8Z"/><path class="o" d="M925.01,555.91c2.08,0,2.97-.83,2.97-2.31s-1.07-2.49-4.33-4.03c-5.69-2.73-10.32-5.16-10.32-12.1s5.34-11.45,13.76-11.45c3.8,0,7.71,.95,9.73,2.14,.89,.53,1.13,1.07,1.13,1.96,0,2.19-1.07,5.81-2.02,7.77-.24,.53-.59,.71-.95,.71-.3,0-.59-.12-.83-.36-2.19-1.84-5.63-3.74-8.42-3.74-1.9,0-2.85,.89-2.85,2.14,0,1.54,1.07,2.25,4.45,3.8,5.28,2.37,11.15,5.16,11.15,12.51,0,7.95-5.1,11.92-12.87,11.92s-12.87-3.8-12.87-9.9c0-2.43,.59-4.27,1.13-5.1,.24-.36,.53-.59,.89-.59,.3,0,.59,.12,.77,.47,1.72,2.97,5.34,6.17,9.49,6.17Z"/><path class="o" d="M950.51,552.89c0-8.6,6.76-12.04,14.47-13.17,1.84-.3,2.73-.71,2.73-1.78,0-1.84-1.01-3.02-3.86-3.02-3.08,0-6.17,1.31-8.96,3.8-.36,.36-.71,.53-1.01,.53-.24,0-.53-.12-.77-.36-1.13-1.07-2.19-2.97-2.19-5.4,0-4.21,5.16-7.47,13.64-7.47,9.96,0,13.46,4.98,13.46,13.82,0,3.62-.3,9.31-.3,13.7,0,3.44,.47,7.35,.47,8.3,0,1.01-.47,1.66-1.48,1.84-1.9,.42-8.42,.47-12.34,.47-9.07,0-13.88-3.38-13.88-11.27Zm17.26-4.21c0-1.78-.24-2.25-1.25-2.25-3.26,0-5.93,1.9-5.93,4.98,0,2.61,1.78,3.74,4.8,3.74,1.9,0,2.37-.83,2.37-2.61v-3.86Z"/><path class="o" d="M1010.88,541.38c0,9.02-.89,18.51-1.25,21-.18,1.13-.77,1.66-1.66,1.72-.95,.12-2.25,.12-3.62,.12-1.48,0-2.91-.06-4.15-.12-.95-.12-1.3-.53-1.3-1.25,0-2.73,.89-12.63,.89-20.4,0-4.21-.71-6.23-2.91-6.23-1.07,0-2.02,.36-2.73,1.07-1.01,.95-1.42,2.61-1.42,6.94,0,8.9,.83,16.55,.83,18.33,0,1.07-.47,1.48-1.54,1.54-1.07,.06-2.19,.12-3.32,.12-1.48,0-2.91-.06-3.97-.12-1.01-.06-1.66-.36-1.78-1.9-.42-4.57-.71-10.38-.71-17.08,0-4.8,.12-10.08,.53-15.66,.12-1.9,1.25-2.37,2.79-2.55,1.07-.06,2.31-.12,3.5-.12,1.01,0,2.02,.06,2.73,.12,1.07,.06,1.48,.53,1.48,1.36s.3,1.13,.83,1.13c1.78,0,4.03-3.14,8.48-3.14,5.63,0,8.3,4.09,8.3,15.12Z"/><path class="o" d="M1014.2,547.37c0-13.64,4.27-21.29,10.5-21.29,2.97,0,5.16,1.84,6.58,3.08,.18,.18,.42,.24,.59,.24,.36,0,.59-.24,.59-.83,0-3.62-1.48-10.32-1.48-11.57,0-.89,.59-1.25,1.42-1.3,1.07-.06,2.19-.12,3.32-.12,1.6,0,3.26,.06,4.8,.18,1.01,.12,1.66,.42,1.84,2.02,.65,4.92,1.3,15.66,1.3,25.62,0,6.64-.3,13.05-.95,17.38-.12,.89-.71,1.72-1.84,2.14-1.9,.71-5.58,1.54-11.86,1.54-10.5,0-14.83-5.22-14.83-17.08Zm18.74-3.8c0-6.52-1.78-8.84-3.91-8.84-2.31,0-3.74,2.67-3.74,11.21,0,7.95,1.42,10.26,4.03,10.26,2.85,0,3.62-1.6,3.62-12.63Z"/><path class="o" d="M1071.37,564.87c-10.68,0-14.23-8.19-14.23-18.15,0-14.65,7.47-20.64,16.37-20.64,5.99,0,10.68,3.2,10.68,9.85,0,10.14-8.48,11.33-13.7,13.64-1.84,.65-2.61,1.19-2.61,2.19,0,1.72,1.25,3.08,4.09,3.08,4.09,0,7.83-1.78,10.14-4.8,.36-.3,.59-.47,.89-.47,.83,0,1.48,1.54,1.48,4.33,0,6.88-6.11,10.97-13.11,10.97Zm.83-30.54c-3.26,0-5.52,3.56-5.52,7.65,0,.59,.18,1.07,.71,1.07,.36,0,.77-.12,1.13-.3,2.37-1.42,6.41-2.91,6.41-5.75,0-1.54-1.01-2.67-2.73-2.67Z"/><path class="o" d="M1116.39,541.38c0,9.02-.89,18.51-1.25,21-.18,1.13-.77,1.66-1.66,1.72-.95,.12-2.25,.12-3.62,.12-1.48,0-2.91-.06-4.15-.12-.95-.12-1.3-.53-1.3-1.25,0-2.73,.89-12.63,.89-20.4,0-4.21-.71-6.23-2.91-6.23-1.07,0-2.02,.36-2.73,1.07-1.01,.95-1.42,2.61-1.42,6.94,0,8.9,.83,16.55,.83,18.33,0,1.07-.47,1.48-1.54,1.54-1.07,.06-2.19,.12-3.32,.12-1.48,0-2.91-.06-3.97-.12-1.01-.06-1.66-.36-1.78-1.9-.42-4.57-.71-10.38-.71-17.08,0-4.8,.12-10.08,.53-15.66,.12-1.9,1.25-2.37,2.79-2.55,1.07-.06,2.31-.12,3.5-.12,1.01,0,2.02,.06,2.73,.12,1.07,.06,1.48,.53,1.48,1.36s.3,1.13,.83,1.13c1.78,0,4.03-3.14,8.48-3.14,5.63,0,8.3,4.09,8.3,15.12Z"/><path class="o" d="M1133.23,528.63c.71,5.34,.95,11.57,.95,16.61,0,15.78-3.02,19.75-9.43,19.75-3.26,0-5.22-.71-5.87-1.07-.42-.24-.65-.65-.65-1.48,0-2.02,.42-5.75,.77-7,.18-.59,.53-.89,.95-1.01,.59-.06,.95,.18,1.48-.06,.95-.36,1.25-1.72,1.25-5.04,0-9.02-.59-18.39-.59-20.23,0-1.01,.24-1.6,1.19-1.9,.89-.3,2.73-.36,4.63-.36,1.42,0,2.79,.06,3.8,.18,1.07,.12,1.42,.65,1.54,1.6Zm-11.98-9.02c0-3.14,2.08-5.1,6.46-5.1,4.63,0,6.47,1.96,6.47,5.1s-1.84,4.86-6.47,4.86c-4.39,0-6.46-1.78-6.46-4.86Z"/><path class="o" d="M1137.5,545.71c0-11.74,5.04-19.69,15.07-19.69s14.18,7.59,14.18,19.69c0,13.46-6.52,19.16-15.01,19.16s-14.23-5.69-14.23-19.16Zm18.8-.83c0-6.82-1.54-10.02-4.15-10.02-2.79,0-4.27,3.2-4.27,10.02s1.19,9.73,4.21,9.73,4.21-3.08,4.21-9.73Z"/><path class="o" d="M1170.77,553.36c1.66,0,3.86,.36,5.75,.42,2.14,0,3.74-.3,3.74-1.54,0-.36-.3-.65-.77-.89-7.06-3.44-10.26-8.9-10.26-22.24,0-1.6,.47-2.13,1.96-2.25,1.07-.12,2.37-.18,3.8-.18s3.02,.06,4.45,.18c.65,.06,1.25,.24,1.25,1.07,0,.59-.24,2.49-.24,4.27,0,7.47,2.67,13.29,4.74,13.29,.42,0,.71-.24,.89-.83,.65-2.02,1.01-5.93,1.01-9.73,0-2.97-.42-6.17-.42-6.88,0-.77,.65-1.13,1.25-1.19,1.01-.12,2.55-.12,3.91-.12s2.79,0,3.56,.12c1.66,.24,2.14,1.48,2.14,3.26,0,20.52-3.91,34.99-26.45,34.99-1.6,0-1.96-.65-2.08-1.9-.06-.83-.12-1.78-.12-2.85,0-1.84,.12-3.8,.3-5.52,.12-1.01,.71-1.48,1.6-1.48Z"/><path class="o" d="M1225.44,519.26c-.18,.77-1.9,4.57-1.9,7,0,.53,.3,.83,1.13,.83,.59,0,1.84-.24,2.67-.24,.53,0,.83,.36,.95,1.07,.18,1.01,.3,2.43,.3,3.97s-.12,3.26-.42,4.75c-.12,.53-.47,.71-.89,.71-.77,0-1.78-.3-2.85-.3-.95,0-1.19,.71-1.25,1.72-.12,1.01-.18,2.31-.18,3.68,0,6.17,1.36,13.05,2.73,18.39,.06,.42,.24,.83,.24,1.13,0,.47-.24,.77-.65,1.07-2.19,1.42-7,2.37-9.73,2.37-.83,0-1.31-.18-1.54-.83-1.19-3.26-1.84-10.74-1.9-17.38,0-3.38,.18-6.58,.24-8.36,.06-1.01-.24-1.42-.89-1.42-.47,0-1.01,.06-1.36,.06-.53,0-.83-.3-.89-1.01-.06-.42-.12-.89-.12-1.48,0-2.31,.3-5.1,.59-6.64,.18-1.13,.65-1.42,1.31-1.42,.47,0,.89,.06,1.3,.06,1.42,0,1.48-1.31,1.84-4.33,.06-1.3,.42-1.78,1.3-2.31,2.91-1.6,8.07-2.14,9.19-2.14,.65,0,.89,.47,.77,1.07Z"/><path class="o" d="M1243.47,515.76c.59,.12,.89,.59,.89,1.25,0,1.36-2.19,6.35-2.19,10.14,0,.95,.3,1.42,.95,1.42,1.25,0,3.8-2.55,8.3-2.55,5.69,0,9.13,3.74,9.13,15.6,0,8.48-.83,17.32-1.42,20.88-.18,1.13-.77,1.6-1.6,1.66-.71,0-2.02,.06-3.44,.06-1.6,0-3.44-.06-4.74-.18-.77-.06-1.42-.3-1.42-1.36,0-1.42,1.54-10.85,1.54-18.21,0-6.64-.89-8.07-3.08-8.07-2.49,0-4.27,2.25-4.27,8.84,0,9.31,.59,15.72,.59,17.38,0,1.13-.77,1.36-1.54,1.48-1.07,.06-2.49,.12-3.97,.12s-3.08-.06-4.33-.12c-.59-.06-1.19-.3-1.42-1.42-.3-2.49-.53-7.65-.53-14,0-9.49,.53-21.29,2.19-31.02,.24-1.19,.89-1.78,1.54-1.84,1.42-.18,3.08-.24,4.75-.24,1.42,0,2.85,0,4.09,.18Z"/><path class="o" d="M1277.39,564.87c-10.68,0-14.23-8.19-14.23-18.15,0-14.65,7.47-20.64,16.37-20.64,5.99,0,10.68,3.2,10.68,9.85,0,10.14-8.48,11.33-13.7,13.64-1.84,.65-2.61,1.19-2.61,2.19,0,1.72,1.25,3.08,4.09,3.08,4.09,0,7.83-1.78,10.14-4.8,.36-.3,.59-.47,.89-.47,.83,0,1.48,1.54,1.48,4.33,0,6.88-6.11,10.97-13.11,10.97Zm.83-30.54c-3.26,0-5.52,3.56-5.52,7.65,0,.59,.18,1.07,.71,1.07,.36,0,.77-.12,1.13-.3,2.37-1.42,6.41-2.91,6.41-5.75,0-1.54-1.01-2.67-2.73-2.67Z"/><path class="o" d="M1316.53,564.1c-1.36,.12-2.97,.12-4.63,.12s-3.38,0-4.8-.12c-.65-.06-1.54-.36-1.66-1.72-.47-4.86-.71-10.56-.71-16.49,0-9.67,.59-20.11,1.78-28.77,.18-1.25,.83-1.42,1.6-1.54,1.36-.06,2.67-.12,4.03-.12s2.73,.06,3.97,.12c.83,.06,1.36,.42,1.36,1.25,0,1.01-1.07,11.39-1.07,22.3,0,11.51,1.25,22.06,1.25,23.78,0,.77-.47,1.13-1.13,1.19Z"/><path class="o" d="M1334.8,564.87c-10.68,0-14.23-8.19-14.23-18.15,0-14.65,7.47-20.64,16.37-20.64,5.99,0,10.68,3.2,10.68,9.85,0,10.14-8.48,11.33-13.7,13.64-1.84,.65-2.61,1.19-2.61,2.19,0,1.72,1.25,3.08,4.09,3.08,4.09,0,7.83-1.78,10.14-4.8,.36-.3,.59-.47,.89-.47,.83,0,1.48,1.54,1.48,4.33,0,6.88-6.11,10.97-13.11,10.97Zm.83-30.54c-3.26,0-5.52,3.56-5.52,7.65,0,.59,.18,1.07,.71,1.07,.36,0,.77-.12,1.13-.3,2.37-1.42,6.41-2.91,6.41-5.75,0-1.54-1.01-2.67-2.73-2.67Z"/><path class="o" d="M1360.71,564.1c-.83,.06-1.96,.12-3.08,.12-1.19,0-2.55,0-3.97-.12-1.01-.06-1.6-.42-1.72-2.08-.42-4.98-.77-10.62-.77-17.32,0-4.57,.18-9.67,.65-15.36,.12-1.84,1.19-2.37,2.67-2.55,1.01-.12,2.19-.12,3.5-.12s2.67,0,3.32,.12c.83,.12,1.13,.42,1.13,1.07,0,.47-.24,1.13-.24,1.72,0,.36,.24,.59,.65,.59,1.54,0,3.86-3.91,8.01-3.91,3.86,0,5.16,2.91,6.64,2.91,1.72,0,4.21-2.91,8.72-2.91,7,0,9.85,6.58,9.85,19.16,0,9.37-.65,15.12-1.25,17.08-.3,1.19-1.3,1.54-2.14,1.6s-2.02,.12-3.26,.12-2.67-.06-4.03-.12c-1.36-.06-1.78-.77-1.78-1.72,0-1.72,1.13-7.47,1.13-17.38,0-6.23-.65-8.78-2.91-8.78-1.9,0-3.5,1.6-3.5,5.34,0,3.26,.12,5.63,.12,8.72,0,4.98-.36,9.19-.71,11.86-.18,1.25-.71,1.78-1.6,1.84-1.07,.12-2.49,.18-3.91,.18-1.19,0-2.49-.06-3.62-.12-1.13-.12-1.36-.59-1.36-1.42,0-.89,.59-11.33,.59-18.8,0-5.28-.47-7.47-2.73-7.47-2.49,0-3.74,2.43-3.74,8.13,0,10.5,.77,16.9,.77,18.15,0,.95-.53,1.36-1.42,1.48Z"/><path class="o" d="M1399.02,545.71c0-11.74,5.04-19.69,15.07-19.69s14.18,7.59,14.18,19.69c0,13.46-6.52,19.16-15.01,19.16s-14.23-5.69-14.23-19.16Zm18.8-.83c0-6.82-1.54-10.02-4.15-10.02-2.79,0-4.27,3.2-4.27,10.02s1.19,9.73,4.21,9.73,4.21-3.08,4.21-9.73Z"/><path class="o" d="M1460.11,541.38c0,9.02-.89,18.51-1.25,21-.18,1.13-.77,1.66-1.66,1.72-.95,.12-2.25,.12-3.62,.12-1.48,0-2.91-.06-4.15-.12-.95-.12-1.3-.53-1.3-1.25,0-2.73,.89-12.63,.89-20.4,0-4.21-.71-6.23-2.91-6.23-1.07,0-2.02,.36-2.73,1.07-1.01,.95-1.42,2.61-1.42,6.94,0,8.9,.83,16.55,.83,18.33,0,1.07-.47,1.48-1.54,1.54-1.07,.06-2.19,.12-3.32,.12-1.48,0-2.91-.06-3.97-.12-1.01-.06-1.66-.36-1.78-1.9-.42-4.57-.71-10.38-.71-17.08,0-4.8,.12-10.08,.53-15.66,.12-1.9,1.25-2.37,2.79-2.55,1.07-.06,2.31-.12,3.5-.12,1.01,0,2.02,.06,2.73,.12,1.07,.06,1.48,.53,1.48,1.36s.3,1.13,.83,1.13c1.78,0,4.03-3.14,8.48-3.14,5.63,0,8.3,4.09,8.3,15.12Z"/><path class="o" d="M1462.9,552.89c0-8.6,6.76-12.04,14.47-13.17,1.84-.3,2.73-.71,2.73-1.78,0-1.84-1.01-3.02-3.86-3.02-3.08,0-6.17,1.31-8.96,3.8-.36,.36-.71,.53-1.01,.53-.24,0-.53-.12-.77-.36-1.13-1.07-2.19-2.97-2.19-5.4,0-4.21,5.16-7.47,13.64-7.47,9.96,0,13.46,4.98,13.46,13.82,0,3.62-.3,9.31-.3,13.7,0,3.44,.47,7.35,.47,8.3,0,1.01-.47,1.66-1.48,1.84-1.9,.42-8.42,.47-12.34,.47-9.07,0-13.88-3.38-13.88-11.27Zm17.26-4.21c0-1.78-.24-2.25-1.25-2.25-3.26,0-5.93,1.9-5.93,4.98,0,2.61,1.78,3.74,4.8,3.74,1.9,0,2.37-.83,2.37-2.61v-3.86Z"/><path class="o" d="M1494.03,547.37c0-13.64,4.27-21.29,10.5-21.29,2.97,0,5.16,1.84,6.58,3.08,.18,.18,.42,.24,.59,.24,.36,0,.59-.24,.59-.83,0-3.62-1.48-10.32-1.48-11.57,0-.89,.59-1.25,1.42-1.3,1.07-.06,2.19-.12,3.32-.12,1.6,0,3.26,.06,4.8,.18,1.01,.12,1.66,.42,1.84,2.02,.65,4.92,1.3,15.66,1.3,25.62,0,6.64-.3,13.05-.95,17.38-.12,.89-.71,1.72-1.84,2.14-1.9,.71-5.58,1.54-11.86,1.54-10.5,0-14.83-5.22-14.83-17.08Zm18.74-3.8c0-6.52-1.78-8.84-3.91-8.84-2.31,0-3.74,2.67-3.74,11.21,0,7.95,1.42,10.26,4.03,10.26,2.85,0,3.62-1.6,3.62-12.63Z"/><path class="o" d="M1540.82,564.87c-10.68,0-14.23-8.19-14.23-18.15,0-14.65,7.47-20.64,16.37-20.64,5.99,0,10.68,3.2,10.68,9.85,0,10.14-8.48,11.33-13.7,13.64-1.84,.65-2.61,1.19-2.61,2.19,0,1.72,1.25,3.08,4.09,3.08,4.09,0,7.83-1.78,10.14-4.8,.36-.3,.59-.47,.89-.47,.83,0,1.48,1.54,1.48,4.33,0,6.88-6.11,10.97-13.11,10.97Zm.83-30.54c-3.26,0-5.52,3.56-5.52,7.65,0,.59,.18,1.07,.71,1.07,.36,0,.77-.12,1.13-.3,2.37-1.42,6.41-2.91,6.41-5.75,0-1.54-1.01-2.67-2.73-2.67Z"/><path class="o" d="M1582.33,519.26c-.18,.77-1.9,4.57-1.9,7,0,.53,.3,.83,1.13,.83,.59,0,1.84-.24,2.67-.24,.53,0,.83,.36,.95,1.07,.18,1.01,.3,2.43,.3,3.97s-.12,3.26-.42,4.75c-.12,.53-.47,.71-.89,.71-.77,0-1.78-.3-2.85-.3-.95,0-1.19,.71-1.25,1.72-.12,1.01-.18,2.31-.18,3.68,0,6.17,1.36,13.05,2.73,18.39,.06,.42,.24,.83,.24,1.13,0,.47-.24,.77-.65,1.07-2.19,1.42-7,2.37-9.73,2.37-.83,0-1.31-.18-1.54-.83-1.19-3.26-1.84-10.74-1.9-17.38,0-3.38,.18-6.58,.24-8.36,.06-1.01-.24-1.42-.89-1.42-.47,0-1.01,.06-1.36,.06-.53,0-.83-.3-.89-1.01-.06-.42-.12-.89-.12-1.48,0-2.31,.3-5.1,.59-6.64,.18-1.13,.65-1.42,1.31-1.42,.47,0,.89,.06,1.3,.06,1.42,0,1.48-1.31,1.84-4.33,.06-1.3,.42-1.78,1.3-2.31,2.91-1.6,8.07-2.14,9.19-2.14,.65,0,.89,.47,.77,1.07Z"/><path class="o" d="M1586.84,545.71c0-11.74,5.04-19.69,15.06-19.69s14.18,7.59,14.18,19.69c0,13.46-6.52,19.16-15.01,19.16s-14.23-5.69-14.23-19.16Zm18.8-.83c0-6.82-1.54-10.02-4.15-10.02-2.79,0-4.27,3.2-4.27,10.02s1.19,9.73,4.21,9.73,4.21-3.08,4.21-9.73Z"/><path class="o" d="M1618.21,545.71c0-11.74,5.04-19.69,15.07-19.69s14.18,7.59,14.18,19.69c0,13.46-6.52,19.16-15.01,19.16s-14.23-5.69-14.23-19.16Zm18.8-.83c0-6.82-1.54-10.02-4.15-10.02-2.79,0-4.27,3.2-4.27,10.02s1.19,9.73,4.21,9.73,4.21-3.08,4.21-9.73Z"/><path class="o" d="M1663.52,518.96c.83,.12,1.13,.59,1.13,1.25,0,1.54-2.37,7.24-3.26,27.46-.06,1.6-.71,2.08-3.62,2.37-.89,.12-1.66,.12-2.31,.12-1.48,0-2.19-.3-2.49-1.36-1.3-5.04-2.14-10.62-2.49-17.26-.18-3.56-.24-6.46-.24-10.2,.06-1.3,.36-2.25,2.25-2.43,1.42-.12,3.38-.18,5.4-.18s4.15,.06,5.63,.24Zm-12.99,39.8c0-3.86,2.55-6.11,6.52-6.11s6.52,2.25,6.52,6.11-2.37,5.81-6.52,5.81-6.52-2.02-6.52-5.81Z"/></g><g><path class="o" d="M789.57,664.41c-13.34,0-17.56-7.95-17.56-17.85,0-15.24,5.99-29.36,17.44-29.36s17.44,14.12,17.44,29.36c0,9.9-4.15,17.85-17.32,17.85Zm5.52-20.11c0-9.55-2.37-16.31-5.63-16.31-3.44,0-5.58,6.88-5.58,16.25,0,6.23,2.02,8.66,5.63,8.66s5.58-2.49,5.58-8.6Z"/><path class="o" d="M822.01,663.46c-1.13,.06-2.49,.12-4.03,.12s-3.14,0-4.8-.12c-.83-.06-1.42-.59-1.66-1.6-.71-3.02-1.19-9.31-1.19-16.96,0-10.32,.47-15.01,1.01-16.96,.24-.95,.65-1.31,1.13-1.48,.71-.18,2.67-.36,4.51-.36,1.01,0,1.96,0,2.67,.18,.65,.12,.83,.53,.89,1.25,.06,.71,.36,.95,.65,.95s.59-.18,1.01-.47c1.19-1.07,2.43-2.08,3.74-2.08,1.07,0,1.78,1.36,1.78,6.05,0,2.19-.12,4.27-.47,5.34-.3,1.01-.77,1.25-1.3,1.25-.71,0-1.66-.53-2.79-.53s-2.08,1.13-2.08,5.75c0,7.47,2.49,17.08,2.49,18.27,0,.77-.36,1.31-1.54,1.42Z"/><path class="o" d="M844.6,664.89c-.89,0-1.54-.36-2.02-2.25-1.13-4.69-1.72-12.46-1.72-19.39,0-15.9,1.25-17.79,11.27-17.79,13.46,0,17.14,6.05,17.14,13.94,0,12.93-6.58,19.39-11.21,19.39-2.73,0-4.63-4.03-5.63-4.03-.47,0-.71,.42-.71,.95,0,3.74,1.19,6.11,1.19,7,0,.65-.53,.95-1.31,1.13-2.19,.42-5.52,1.07-7,1.07Zm6.82-22c0,5.87,1.36,7.24,3.2,7.24,2.67,0,4.03-4.39,4.03-10.97,0-4.15-1.48-5.87-4.45-5.87-1.96,0-2.79,1.78-2.79,9.61Z"/><path class="o" d="M884.64,663.52c-1.36,.12-2.97,.12-4.63,.12s-3.38,0-4.8-.12c-.65-.06-1.54-.36-1.66-1.72-.47-4.86-.71-10.56-.71-16.49,0-9.67,.59-20.11,1.78-28.77,.18-1.25,.83-1.42,1.6-1.54,1.36-.06,2.67-.12,4.03-.12s2.73,.06,3.97,.12c.83,.06,1.36,.42,1.36,1.25,0,1.01-1.07,11.39-1.07,22.3,0,11.51,1.25,22.06,1.25,23.78,0,.77-.47,1.13-1.13,1.19Z"/><path class="o" d="M888.67,652.31c0-8.6,6.76-12.04,14.47-13.17,1.84-.3,2.73-.71,2.73-1.78,0-1.84-1.01-3.02-3.86-3.02-3.08,0-6.17,1.31-8.96,3.8-.36,.36-.71,.53-1.01,.53-.24,0-.53-.12-.77-.36-1.13-1.07-2.19-2.97-2.19-5.4,0-4.21,5.16-7.47,13.64-7.47,9.96,0,13.46,4.98,13.46,13.82,0,3.62-.3,9.31-.3,13.7,0,3.44,.47,7.35,.47,8.3,0,1.01-.47,1.66-1.48,1.84-1.9,.42-8.42,.47-12.34,.47-9.07,0-13.88-3.38-13.88-11.27Zm17.26-4.21c0-1.78-.24-2.25-1.25-2.25-3.26,0-5.93,1.9-5.93,4.98,0,2.61,1.78,3.74,4.8,3.74,1.9,0,2.37-.83,2.37-2.61v-3.86Z"/><path class="o" d="M921.23,652.79c1.66,0,3.86,.36,5.75,.42,2.14,0,3.74-.3,3.74-1.54,0-.36-.3-.65-.77-.89-7.06-3.44-10.26-8.9-10.26-22.24,0-1.6,.47-2.13,1.96-2.25,1.07-.12,2.37-.18,3.8-.18s3.02,.06,4.45,.18c.65,.06,1.25,.24,1.25,1.07,0,.59-.24,2.49-.24,4.27,0,7.47,2.67,13.29,4.74,13.29,.42,0,.71-.24,.89-.83,.65-2.02,1.01-5.93,1.01-9.73,0-2.97-.42-6.17-.42-6.88,0-.77,.65-1.13,1.25-1.19,1.01-.12,2.55-.12,3.91-.12s2.79,0,3.56,.12c1.66,.24,2.14,1.48,2.14,3.26,0,20.52-3.91,34.99-26.45,34.99-1.6,0-1.96-.65-2.08-1.9-.06-.83-.12-1.78-.12-2.85,0-1.84,.12-3.8,.3-5.52,.12-1.01,.71-1.48,1.6-1.48Z"/><path class="o" d="M960.01,652.31c0-8.6,6.76-12.04,14.47-13.17,1.84-.3,2.73-.71,2.73-1.78,0-1.84-1.01-3.02-3.86-3.02-3.08,0-6.17,1.31-8.96,3.8-.36,.36-.71,.53-1.01,.53-.24,0-.53-.12-.77-.36-1.13-1.07-2.19-2.97-2.19-5.4,0-4.21,5.16-7.47,13.64-7.47,9.96,0,13.46,4.98,13.46,13.82,0,3.62-.3,9.31-.3,13.7,0,3.44,.47,7.35,.47,8.3,0,1.01-.47,1.66-1.48,1.84-1.9,.42-8.42,.47-12.34,.47-9.07,0-13.88-3.38-13.88-11.27Zm17.26-4.21c0-1.78-.24-2.25-1.25-2.25-3.26,0-5.93,1.9-5.93,4.98,0,2.61,1.78,3.74,4.8,3.74,1.9,0,2.37-.83,2.37-2.61v-3.86Z"/><path class="o" d="M1005.02,625.45c2.49,0,3.5,.36,4.63,.36,1.54,0,2.37-2.14,3.62-3.8,.59-1.01,1.25-1.48,1.9-1.48,1.48,0,5.34,3.74,5.34,5.28,0,.36-.18,.77-.59,1.01-1.31,.71-2.67,1.42-2.67,2.91,0,1.6,2.61,2.55,2.61,8.19,0,6.82-4.33,11.51-13.94,11.51-5.1,0-6.52,1.96-6.52,3.74,0,1.19,.65,1.72,2.02,1.72,2.73,0,7.12-2.61,12.04-2.61,2.43,0,4.45,.53,5.75,1.42,.83,.53,1.07,1.3,1.07,2.14,0,2.73-1.66,8.3-3.56,8.3-.42,0-.83-.12-1.25-.3-1.13-.71-2.55-1.3-4.98-1.3-3.62,0-6.35,1.9-11.33,1.9-5.52,0-8.66-2.67-8.66-7.53,0-4.09,2.19-6.88,4.15-8.6,.42-.42,.65-.71,.65-1.07,0-.3-.24-.59-.47-.89-1.6-1.6-3.56-4.45-3.56-8.9,0-7.41,5.52-11.98,13.76-11.98Zm.71,15.42c2.31,0,4.15-1.54,4.15-3.97s-1.66-3.91-4.09-3.91-4.09,1.6-4.09,3.91,1.6,3.97,4.03,3.97Z"/><path class="o" d="M1022.52,652.31c0-8.6,6.76-12.04,14.47-13.17,1.84-.3,2.73-.71,2.73-1.78,0-1.84-1.01-3.02-3.86-3.02-3.08,0-6.17,1.31-8.96,3.8-.36,.36-.71,.53-1.01,.53-.24,0-.53-.12-.77-.36-1.13-1.07-2.19-2.97-2.19-5.4,0-4.21,5.16-7.47,13.64-7.47,9.96,0,13.46,4.98,13.46,13.82,0,3.62-.3,9.31-.3,13.7,0,3.44,.47,7.35,.47,8.3,0,1.01-.47,1.66-1.48,1.84-1.9,.42-8.42,.47-12.34,.47-9.07,0-13.88-3.38-13.88-11.27Zm17.26-4.21c0-1.78-.24-2.25-1.25-2.25-3.26,0-5.93,1.9-5.93,4.98,0,2.61,1.78,3.74,4.8,3.74,1.9,0,2.37-.83,2.37-2.61v-3.86Z"/><path class="o" d="M1065.99,663.52c-1.42,.12-3.08,.18-4.8,.18s-3.38-.06-4.86-.18c-.59-.06-1.36-.3-1.48-1.54-.47-3.97-.71-8.66-.71-13.52,0-7.18,.47-14.71,1.48-20.7,.24-1.19,.89-1.42,1.66-1.48,1.3-.12,2.49-.12,3.62-.12,1.19,0,2.37,0,3.68,.12,.89,.06,1.36,.47,1.36,1.19,0,1.3-.42,6.7-.42,12.99,0,11.8,1.6,19.93,1.6,22,0,.71-.53,1.01-1.13,1.07Zm-11.39-44.48c0-3.14,2.08-5.1,6.46-5.1,4.63,0,6.46,1.96,6.46,5.1s-1.84,4.86-6.46,4.86-6.46-1.78-6.46-4.86Z"/><path class="o" d="M1099.55,640.81c0,9.02-.89,18.51-1.25,21-.18,1.13-.77,1.66-1.66,1.72-.95,.12-2.25,.12-3.62,.12-1.48,0-2.91-.06-4.15-.12-.95-.12-1.3-.53-1.3-1.25,0-2.73,.89-12.63,.89-20.4,0-4.21-.71-6.23-2.91-6.23-1.07,0-2.02,.36-2.73,1.07-1.01,.95-1.42,2.61-1.42,6.94,0,8.9,.83,16.55,.83,18.33,0,1.07-.47,1.48-1.54,1.54-1.07,.06-2.19,.12-3.32,.12-1.48,0-2.91-.06-3.97-.12-1.01-.06-1.66-.36-1.78-1.9-.42-4.57-.71-10.38-.71-17.08,0-4.8,.12-10.08,.53-15.66,.12-1.9,1.25-2.37,2.79-2.55,1.07-.06,2.31-.12,3.5-.12,1.01,0,2.02,.06,2.73,.12,1.07,.06,1.48,.53,1.48,1.36s.3,1.13,.83,1.13c1.78,0,4.03-3.14,8.48-3.14,5.63,0,8.3,4.09,8.3,15.12Z"/><path class="o" d="M1124.88,655.34c2.08,0,2.97-.83,2.97-2.31s-1.07-2.49-4.33-4.03c-5.69-2.73-10.32-5.16-10.32-12.1s5.34-11.45,13.76-11.45c3.8,0,7.71,.95,9.73,2.14,.89,.53,1.13,1.07,1.13,1.96,0,2.19-1.07,5.81-2.02,7.77-.24,.53-.59,.71-.95,.71-.3,0-.59-.12-.83-.36-2.19-1.84-5.63-3.74-8.42-3.74-1.9,0-2.85,.89-2.85,2.14,0,1.54,1.07,2.25,4.45,3.8,5.28,2.37,11.15,5.16,11.15,12.51,0,7.95-5.1,11.92-12.87,11.92s-12.87-3.8-12.87-9.9c0-2.43,.59-4.27,1.13-5.1,.24-.36,.53-.59,.89-.59,.3,0,.59,.12,.77,.47,1.72,2.97,5.34,6.17,9.49,6.17Z"/><path class="o" d="M1140.05,645.14c0-11.74,5.04-19.69,15.07-19.69s14.18,7.59,14.18,19.69c0,13.46-6.52,19.16-15.01,19.16s-14.23-5.69-14.23-19.16Zm18.8-.83c0-6.82-1.54-10.02-4.15-10.02-2.79,0-4.27,3.2-4.27,10.02s1.19,9.73,4.21,9.73,4.21-3.08,4.21-9.73Z"/><path class="o" d="M1214.96,627.58c0-.89,.42-1.19,1.07-1.25,1.07-.12,2.67-.24,4.27-.24s3.26,.12,4.45,.24c1.07,.12,1.6,.65,1.84,1.96,.06,.77,.12,1.78,.12,2.97,0,20.05-8.01,29.36-12.57,32.74-.36,.24-.71,.3-1.07,.3s-.65-.06-.89-.24c-2.67-2.08-5.69-5.52-7.89-8.84-.24-.42-.47-.53-.77-.53-.36,0-.65,.24-.95,.59-1.84,2.85-5.87,7.12-8.48,8.84-.3,.18-.53,.24-.77,.24s-.47-.06-.71-.24c-7.18-5.58-11.03-15.78-11.03-32.03,0-1.54,.06-2.85,.24-3.97,.18-1.13,.65-1.66,1.72-1.78,1.13-.12,2.85-.18,4.51-.18,1.84,0,3.56,.06,4.69,.18,.71,.06,1.13,.42,1.13,1.19s-.65,5.58-.65,10.85c0,4.45,.53,8.9,2.02,11.74,.12,.42,.36,.59,.65,.59,.24,0,.53-.18,.71-.59,1.96-4.21,2.73-8.66,2.73-15.42,0-2.67-.18-6.29-.18-7.18,0-.71,.36-1.01,.95-1.13,1.19-.18,2.79-.3,4.39-.3s3.26,.12,4.33,.3c.53,.12,.95,.36,.95,1.01,0,1.54-.53,7.41-.53,11.74,0,4.98,.65,7.83,2.49,10.97,.12,.36,.36,.53,.59,.53s.53-.18,.71-.53c1.84-3.44,2.31-8.66,2.31-13.58,0-3.91-.36-7.89-.36-8.96Z"/><path class="o" d="M1242.59,664.29c-10.68,0-14.23-8.19-14.23-18.15,0-14.65,7.47-20.64,16.37-20.64,5.99,0,10.68,3.2,10.68,9.85,0,10.14-8.48,11.33-13.7,13.64-1.84,.65-2.61,1.19-2.61,2.19,0,1.72,1.25,3.08,4.09,3.08,4.09,0,7.83-1.78,10.14-4.8,.36-.3,.59-.47,.89-.47,.83,0,1.48,1.54,1.48,4.33,0,6.88-6.11,10.97-13.11,10.97Zm.83-30.54c-3.26,0-5.52,3.56-5.52,7.65,0,.59,.18,1.07,.71,1.07,.36,0,.77-.12,1.13-.3,2.37-1.42,6.41-2.91,6.41-5.75,0-1.54-1.01-2.67-2.73-2.67Z"/><path class="o" d="M1268.21,646.98c0-14.77,6.64-21.53,15.36-21.53,6.94,0,10.32,4.86,10.32,11.03,0,3.97-4.21,7-7.35,7-.83,0-1.19-.24-1.25-.95-.18-3.8-.24-7.47-2.67-7.47-2.19,0-3.74,3.38-3.74,9.55,0,5.04,1.01,8.72,4.86,8.72s5.99-2.91,7.24-5.63c.18-.36,.42-.53,.77-.53,.18,0,.42,.12,.65,.42,.95,1.07,1.84,2.97,1.84,5.58,0,6.11-4.21,11.15-12.51,11.15-9.49,0-13.52-7.24-13.52-17.32Z"/><path class="o" d="M1296.38,652.31c0-8.6,6.76-12.04,14.47-13.17,1.84-.3,2.73-.71,2.73-1.78,0-1.84-1.01-3.02-3.86-3.02-3.08,0-6.17,1.31-8.96,3.8-.36,.36-.71,.53-1.01,.53-.24,0-.53-.12-.77-.36-1.13-1.07-2.19-2.97-2.19-5.4,0-4.21,5.16-7.47,13.64-7.47,9.96,0,13.46,4.98,13.46,13.82,0,3.62-.3,9.31-.3,13.7,0,3.44,.47,7.35,.47,8.3,0,1.01-.47,1.66-1.48,1.84-1.9,.42-8.42,.47-12.34,.47-9.07,0-13.88-3.38-13.88-11.27Zm17.26-4.21c0-1.78-.24-2.25-1.25-2.25-3.26,0-5.93,1.9-5.93,4.98,0,2.61,1.78,3.74,4.8,3.74,1.9,0,2.37-.83,2.37-2.61v-3.86Z"/><path class="o" d="M1356.75,640.81c0,9.02-.89,18.51-1.25,21-.18,1.13-.77,1.66-1.66,1.72-.95,.12-2.25,.12-3.62,.12-1.48,0-2.91-.06-4.15-.12-.95-.12-1.3-.53-1.3-1.25,0-2.73,.89-12.63,.89-20.4,0-4.21-.71-6.23-2.91-6.23-1.07,0-2.02,.36-2.73,1.07-1.01,.95-1.42,2.61-1.42,6.94,0,8.9,.83,16.55,.83,18.33,0,1.07-.47,1.48-1.54,1.54-1.07,.06-2.19,.12-3.32,.12-1.48,0-2.91-.06-3.97-.12-1.01-.06-1.66-.36-1.78-1.9-.42-4.57-.71-10.38-.71-17.08,0-4.8,.12-10.08,.53-15.66,.12-1.9,1.25-2.37,2.79-2.55,1.07-.06,2.31-.12,3.5-.12,1.01,0,2.02,.06,2.73,.12,1.07,.06,1.48,.53,1.48,1.36s.3,1.13,.83,1.13c1.78,0,4.03-3.14,8.48-3.14,5.63,0,8.3,4.09,8.3,15.12Z"/><path class="o" d="M1370.45,646.8c0-13.64,4.27-21.29,10.5-21.29,2.97,0,5.16,1.84,6.58,3.08,.18,.18,.42,.24,.59,.24,.36,0,.59-.24,.59-.83,0-3.62-1.48-10.32-1.48-11.57,0-.89,.59-1.25,1.42-1.3,1.07-.06,2.19-.12,3.32-.12,1.6,0,3.26,.06,4.8,.18,1.01,.12,1.66,.42,1.84,2.02,.65,4.92,1.3,15.66,1.3,25.62,0,6.64-.3,13.05-.95,17.38-.12,.89-.71,1.72-1.84,2.14-1.9,.71-5.58,1.54-11.86,1.54-10.5,0-14.83-5.22-14.83-17.08Zm18.74-3.8c0-6.52-1.78-8.84-3.91-8.84-2.31,0-3.74,2.67-3.74,11.21,0,7.95,1.42,10.26,4.03,10.26,2.85,0,3.62-1.6,3.62-12.63Z"/><path class="o" d="M1415.76,663.46c-1.13,.06-2.49,.12-4.03,.12s-3.14,0-4.8-.12c-.83-.06-1.42-.59-1.66-1.6-.71-3.02-1.19-9.31-1.19-16.96,0-10.32,.47-15.01,1.01-16.96,.24-.95,.65-1.31,1.13-1.48,.71-.18,2.67-.36,4.51-.36,1.01,0,1.96,0,2.67,.18,.65,.12,.83,.53,.89,1.25,.06,.71,.36,.95,.65,.95s.59-.18,1.01-.47c1.19-1.07,2.43-2.08,3.74-2.08,1.07,0,1.78,1.36,1.78,6.05,0,2.19-.12,4.27-.47,5.34-.3,1.01-.77,1.25-1.3,1.25-.71,0-1.66-.53-2.79-.53s-2.08,1.13-2.08,5.75c0,7.47,2.49,17.08,2.49,18.27,0,.77-.36,1.31-1.54,1.42Z"/><path class="o" d="M1435.45,663.52c-1.42,.12-3.08,.18-4.8,.18s-3.38-.06-4.86-.18c-.59-.06-1.36-.3-1.48-1.54-.47-3.97-.71-8.66-.71-13.52,0-7.18,.47-14.71,1.48-20.7,.24-1.19,.89-1.42,1.66-1.48,1.3-.12,2.49-.12,3.62-.12,1.19,0,2.37,0,3.68,.12,.89,.06,1.36,.47,1.36,1.19,0,1.3-.42,6.7-.42,12.99,0,11.8,1.6,19.93,1.6,22,0,.71-.53,1.01-1.13,1.07Zm-11.39-44.48c0-3.14,2.08-5.1,6.46-5.1,4.63,0,6.46,1.96,6.46,5.1s-1.84,4.86-6.46,4.86-6.46-1.78-6.46-4.86Z"/><path class="o" d="M1469.02,640.81c0,9.02-.89,18.51-1.25,21-.18,1.13-.77,1.66-1.66,1.72-.95,.12-2.25,.12-3.62,.12-1.48,0-2.91-.06-4.15-.12-.95-.12-1.3-.53-1.3-1.25,0-2.73,.89-12.63,.89-20.4,0-4.21-.71-6.23-2.91-6.23-1.07,0-2.02,.36-2.73,1.07-1.01,.95-1.42,2.61-1.42,6.94,0,8.9,.83,16.55,.83,18.33,0,1.07-.47,1.48-1.54,1.54-1.07,.06-2.19,.12-3.32,.12-1.48,0-2.91-.06-3.97-.12-1.01-.06-1.66-.36-1.78-1.9-.42-4.57-.71-10.38-.71-17.08,0-4.8,.12-10.08,.53-15.66,.12-1.9,1.25-2.37,2.79-2.55,1.07-.06,2.31-.12,3.5-.12,1.01,0,2.02,.06,2.73,.12,1.07,.06,1.48,.53,1.48,1.36s.3,1.13,.83,1.13c1.78,0,4.03-3.14,8.48-3.14,5.63,0,8.3,4.09,8.3,15.12Z"/><path class="o" d="M1484.55,663.52c-1.36,.12-3.02,.12-4.69,.12s-3.32,0-4.8-.12c-.65-.06-1.54-.36-1.66-1.72-.36-4.86-.42-10.56-.42-16.49,0-9.67,.47-20.17,1.6-28.77,.18-1.25,.95-1.48,1.6-1.54,1.25-.06,2.61-.12,4.03-.12s2.85,.06,4.15,.12c.83,.06,1.42,.42,1.42,1.19s-2.25,15.42-2.25,23.61c0,.89,.3,1.42,.95,1.42,3.8,0,6.29-6.35,6.58-13.58,.06-1.01,.53-1.25,1.42-1.36,.89-.06,2.37-.06,3.97-.06,1.9,0,3.85,0,4.69,.06,.71,.06,1.3,.3,1.3,1.48,0,6.29-4.57,12.34-6.76,14.35-.36,.36-.59,.71-.59,1.01s.24,.53,.59,.83c4.15,3.08,7.83,7.06,7.83,17.67,0,1.36-.18,1.72-1.54,1.9-.95,.06-2.37,.12-3.97,.12-1.42,0-2.91,0-4.15-.12-1.48-.12-1.84-.3-1.9-1.84-.3-8.66-2.97-14.12-6.23-14.12-1.3,0-1.84,1.25-1.84,3.2,0,4.39,1.84,10.14,1.84,11.57,0,.71-.47,1.13-1.19,1.19Z"/><path class="o" d="M1526.54,663.52c-.83,.06-1.96,.12-3.08,.12-1.19,0-2.55,0-3.97-.12-1.01-.06-1.6-.42-1.72-2.08-.42-4.98-.77-10.62-.77-17.32,0-4.57,.18-9.67,.65-15.36,.12-1.84,1.19-2.37,2.67-2.55,1.01-.12,2.19-.12,3.5-.12s2.67,0,3.32,.12c.83,.12,1.13,.42,1.13,1.07,0,.47-.24,1.13-.24,1.72,0,.36,.24,.59,.65,.59,1.54,0,3.86-3.91,8.01-3.91,3.86,0,5.16,2.91,6.64,2.91,1.72,0,4.21-2.91,8.72-2.91,7,0,9.85,6.58,9.85,19.16,0,9.37-.65,15.12-1.25,17.08-.3,1.19-1.3,1.54-2.14,1.6s-2.02,.12-3.26,.12-2.67-.06-4.03-.12c-1.36-.06-1.78-.77-1.78-1.72,0-1.72,1.13-7.47,1.13-17.38,0-6.23-.65-8.78-2.91-8.78-1.9,0-3.5,1.6-3.5,5.34,0,3.26,.12,5.63,.12,8.72,0,4.98-.36,9.19-.71,11.86-.18,1.25-.71,1.78-1.6,1.84-1.07,.12-2.49,.18-3.91,.18-1.19,0-2.49-.06-3.62-.12-1.13-.12-1.36-.59-1.36-1.42,0-.89,.59-11.33,.59-18.8,0-5.28-.47-7.47-2.73-7.47-2.49,0-3.74,2.43-3.74,8.13,0,10.5,.77,16.9,.77,18.15,0,.95-.53,1.36-1.42,1.48Z"/><path class="o" d="M1564.85,645.14c0-11.74,5.04-19.69,15.06-19.69s14.18,7.59,14.18,19.69c0,13.46-6.52,19.16-15.01,19.16s-14.23-5.69-14.23-19.16Zm18.8-.83c0-6.82-1.54-10.02-4.15-10.02-2.79,0-4.27,3.2-4.27,10.02s1.19,9.73,4.21,9.73,4.21-3.08,4.21-9.73Z"/><path class="o" d="M1608.91,663.46c-1.13,.06-2.49,.12-4.03,.12s-3.14,0-4.8-.12c-.83-.06-1.42-.59-1.66-1.6-.71-3.02-1.19-9.31-1.19-16.96,0-10.32,.47-15.01,1.01-16.96,.24-.95,.65-1.31,1.13-1.48,.71-.18,2.67-.36,4.51-.36,1.01,0,1.96,0,2.67,.18,.65,.12,.83,.53,.89,1.25,.06,.71,.36,.95,.65,.95s.59-.18,1.01-.47c1.19-1.07,2.43-2.08,3.74-2.08,1.07,0,1.78,1.36,1.78,6.05,0,2.19-.12,4.27-.47,5.34-.3,1.01-.77,1.25-1.3,1.25-.71,0-1.66-.53-2.79-.53s-2.08,1.13-2.08,5.75c0,7.47,2.49,17.08,2.49,18.27,0,.77-.36,1.31-1.54,1.42Z"/><path class="o" d="M1630.26,664.29c-10.68,0-14.23-8.19-14.23-18.15,0-14.65,7.47-20.64,16.37-20.64,5.99,0,10.68,3.2,10.68,9.85,0,10.14-8.48,11.33-13.7,13.64-1.84,.65-2.61,1.19-2.61,2.19,0,1.72,1.25,3.08,4.09,3.08,4.09,0,7.83-1.78,10.14-4.8,.36-.3,.59-.47,.89-.47,.83,0,1.48,1.54,1.48,4.33,0,6.88-6.11,10.97-13.11,10.97Zm.83-30.54c-3.26,0-5.52,3.56-5.52,7.65,0,.59,.18,1.07,.71,1.07,.36,0,.77-.12,1.13-.3,2.37-1.42,6.41-2.91,6.41-5.75,0-1.54-1.01-2.67-2.73-2.67Z"/><path class="o" d="M1659.5,618.39c.83,.12,1.13,.59,1.13,1.25,0,1.54-2.37,7.24-3.26,27.46-.06,1.6-.71,2.08-3.62,2.37-.89,.12-1.66,.12-2.31,.12-1.48,0-2.19-.3-2.49-1.36-1.3-5.04-2.14-10.62-2.49-17.26-.18-3.56-.24-6.46-.24-10.2,.06-1.3,.36-2.25,2.25-2.43,1.42-.12,3.38-.18,5.4-.18s4.15,.06,5.63,.24Zm-12.99,39.8c0-3.86,2.55-6.11,6.52-6.11s6.52,2.25,6.52,6.11-2.37,5.81-6.52,5.81-6.52-2.02-6.52-5.81Z"/></g></g></g><g id="f"/><g id="g"/><g id="h"/><g id="i"/></svg>