<svg xmlns="http://www.w3.org/2000/svg" width="203" height="210" viewBox="0 0 203 210"><defs><style>.cls-1{fill:#cd3d33;}.cls-2{fill:#324a10;}</style></defs><g id="objects"><path class="cls-1" d="M191.24,112.56c-2.34,19.1-17.38,87-56.91,76-21.62-6-34-6.49-55,1.56C55.29,199.37,9.22,145.89,9.22,113,9.22,75,51.76,21.69,77,36.56c33.13,19.48,44.21,4.59,59.63.78C164.72,30.39,197.43,61.93,191.24,112.56Z"/><path class="cls-2" d="M97.46,36.44c11.49,18.46,11,34.2,9,35S97.18,57.73,90.2,39.18s-11-34.21-9-35S81.43,10.72,97.46,36.44Z"/></g></svg>