<svg id="background" xmlns="http://www.w3.org/2000/svg" width="870" height="490" viewBox="0 0 870 490"><defs><style>.cls-1{fill:#578a55;}.cls-2{fill:#eedec0;}.cls-3{fill:#f5bd58;}.cls-4{fill:#638dbb;}.cls-5{fill:#fff;}.cls-6{fill:#f4be58;}.cls-7{fill:#e7a947;}.cls-8{fill:#df4b37;}.cls-9{fill:#da7e68;}.cls-10{fill:#151225;}.cls-11{fill:#141a21;}.cls-12{fill:#ebc8c3;}.cls-13{fill:#df9b90;}.cls-14{fill:#4f7f50;}.cls-15{fill:#e16b3d;}.cls-16{fill:#e17d70;}.cls-17{fill:#cd3d31;}.cls-18{fill:#f1622c;}.cls-19{fill:#22210c;}.cls-20{fill:#3c6088;}.cls-21{fill:#5e7c9d;}.cls-22{fill:#3c6087;}.cls-23{fill:#293f02;}.cls-24{fill:#ea968c;}</style></defs><rect class="cls-1" x="0.12" y="-0.97" width="870" height="490"/><path class="cls-2" d="M303.16,413.59c-62.15,23.12-112.7,50.46-155.41,76.59H.12V311.28C49.27,293.72,110,267.83,185.58,225,239.62,194.44,394.76,379.52,303.16,413.59Z"/><g id="fork"><path class="cls-3" d="M103.33,343.67c0,10.23,1,17.85-1,18.53-1.14.37-2.36-8.36-1.22-18.52,1.06-9.5-.84-18.51,1.06-18.52C104.37,325.15,103.29,333.45,103.33,343.67Z"/><path class="cls-3" d="M102.32,340.44h0a4.81,4.81,0,0,1-4.68-4.89l0-8.92c1.64-2.26,4.52,8.57,4.52,8.57,1.92-1.9,2.23-11.36,4.79-8.1l0,8.41A4.81,4.81,0,0,1,102.32,340.44Z"/></g><g id="spoon"><path class="cls-3" d="M114.74,336.93c0,9.42.91,16.44-1.11,17.06-1.1.33-2.25-7.71-1.1-17.06,1.07-8.74-.74-17.05,1.1-17.05C115.82,319.88,114.74,327.52,114.74,336.93Z"/><path class="cls-3" d="M117.06,326.59c0,5.63-1.58,6.7-3.52,6.7-3.79,0-3.41-3.8-3.52-6.7-.14-3.42,1.57-6.7,3.52-6.7C117.06,319.89,117.06,322.89,117.06,326.59Z"/></g><g id="cinnamonrolls"><path class="cls-4" d="M139.76,285.67v4.56h-4A8.35,8.35,0,0,1,139.76,285.67Z"/><path class="cls-4" d="M135.34,291.4h4.42v6.06h-5.42A25.52,25.52,0,0,1,135.34,291.4Z"/><path class="cls-4" d="M134.28,298.63h5.48v7.51H134.5a50,50,0,0,1-.25-5.58C134.25,299.89,134.26,299.25,134.28,298.63Z"/><path class="cls-4" d="M134.66,307.31h5.1v5.09h-3.59A17.78,17.78,0,0,1,134.66,307.31Z"/><path class="cls-4" d="M136.84,313.57h2.92v3A10,10,0,0,1,136.84,313.57Z"/><path class="cls-4" d="M140.93,285.17a22,22,0,0,1,6.4-.89v6h-6.4Z"/><rect class="cls-4" x="140.93" y="291.4" width="6.4" height="6.06"/><rect class="cls-4" x="140.93" y="298.63" width="6.4" height="7.5"/><rect class="cls-4" x="140.93" y="307.31" width="6.4" height="5.09"/><path class="cls-4" d="M140.93,313.57h6.4v5.11a15.67,15.67,0,0,1-6.4-1.45Z"/><path class="cls-4" d="M152.29,284.11c1-.06,2-.1,2.89-.12v6.24H148.5v-6C149.72,284.21,151,284.18,152.29,284.11Z"/><rect class="cls-4" x="148.5" y="291.4" width="6.68" height="6.06"/><rect class="cls-4" x="148.5" y="298.63" width="6.68" height="7.5"/><rect class="cls-4" x="148.5" y="307.31" width="6.68" height="5.09"/><path class="cls-4" d="M148.5,313.57h6.68V318c-.85.14-1.74.28-2.69.4a32.71,32.71,0,0,1-4,.3Z"/><path class="cls-4" d="M156.35,284a38,38,0,0,1,6.68.47v5.78h-6.68Z"/><rect class="cls-4" x="156.35" y="291.4" width="6.68" height="6.06"/><rect class="cls-4" x="156.35" y="298.63" width="6.68" height="7.5"/><rect class="cls-4" x="156.35" y="307.31" width="6.68" height="5.09"/><path class="cls-4" d="M156.35,313.57H163V316a38.12,38.12,0,0,1-6.68,1.77Z"/><path class="cls-4" d="M164.2,313.57h3.15a12.91,12.91,0,0,1-3.15,2Z"/><path class="cls-4" d="M164.2,307.31h6.08a9.37,9.37,0,0,1-1.81,5.09H164.2Z"/><path class="cls-4" d="M170.39,298.63c0,.64-.07,1.29-.07,1.93,0,2,.1,3.87,0,5.58H164.2v-7.51Z"/><path class="cls-4" d="M170.53,290.23H164.2V284.7C168.38,285.7,170,287.69,170.53,290.23Z"/><path class="cls-4" d="M170.47,297.46H164.2V291.4h6.5A37.38,37.38,0,0,1,170.47,297.46Z"/><path class="cls-5" d="M164.2,291.4h6.5a8.91,8.91,0,0,0-.17-1.17H164.2V284.7c-.37-.09-.76-.17-1.17-.25v5.78h-6.68V284h-1.17v6.24H148.5v-6l-1.17,0v6h-6.4v-5.06a8.76,8.76,0,0,0-1.17.5v4.56h-4q-.22.56-.42,1.17h4.42v6.06h-5.42q0,.57-.06,1.17h5.48v7.51H134.5c.05.39.1.78.16,1.17h5.1v5.09h-3.59a9.59,9.59,0,0,0,.67,1.17h2.92v3a9.44,9.44,0,0,0,1.17.68v-3.66h6.4v5.11c.38,0,.77,0,1.17,0v-5.12h6.68V318l1.17-.2v-4.22H163V316c.41-.16.8-.32,1.17-.49v-2h3.15a8.18,8.18,0,0,0,1.12-1.17H164.2v-5.09h6.08c0-.38.06-.77.08-1.17H164.2v-7.51h6.19c0-.39.05-.78.08-1.17H164.2Zm-16.87,21h-6.4v-5.09h6.4Zm0-6.26h-6.4v-7.51h6.4Zm0-8.68h-6.4V291.4h6.4Zm7.85,14.94H148.5v-5.09h6.68Zm0-6.26H148.5v-7.51h6.68Zm0-8.68H148.5V291.4h6.68ZM163,312.4h-6.68v-5.09H163Zm0-6.26h-6.68v-7.51H163Zm0-8.68h-6.68V291.4H163Z"/><path class="cls-2" d="M153.08,294.17c-.29,3.16-3.49,7.49-7.63,6.61-4.65-1-7.35-3.46-7.69-6.61-.37-3.38,3.46-6.23,7.69-6.23S153.51,289.43,153.08,294.17Z"/><path class="cls-3" d="M145.51,299.59a4.51,4.51,0,0,1-2.1-.49,5.59,5.59,0,0,1-2.65-3.5,3.91,3.91,0,0,1,.37-3.15,4.73,4.73,0,0,1,4.24-1.73,3.9,3.9,0,0,1,3.36,1.64c.54,1.07,0,2.65-.72,3.74a3,3,0,0,1-2.44,1.61c-1.1-.11-2-1.55-2.39-2.93-.14-.49-.41-1.68.13-2.09s1.4,0,3.05,1.37l-.39.48c-1.91-1.56-2.13-1-2.13-1s-.33.14,0,1.12a2.15,2.15,0,0,0,1.84,1.68,1.65,1.65,0,0,0,1.86-.63,3.2,3.2,0,0,0,.12-3.16,2.35,2.35,0,0,0-2.28-1.25,3.22,3.22,0,0,0-3.12,1.5,3.33,3.33,0,0,0-.86,2.6,4,4,0,0,0,2.41,2.49,4.54,4.54,0,0,0,4.31.37,4.64,4.64,0,0,0,2.33-3.78,3.93,3.93,0,0,0-1.64-4.06c-2.43-1.73-6.94-.36-10,2.19l.27-1.26c3.29-2.73,7.45-3.32,10.11-1.44a5.44,5.44,0,0,1,2.43,4.82,5.74,5.74,0,0,1-3.19,4.08A6.25,6.25,0,0,1,145.51,299.59Z"/><path class="cls-2" d="M168.16,307c-.32,3.51-3.88,8.32-8.47,7.34-5.16-1.11-8.15-3.84-8.54-7.34-.41-3.75,3.84-6.91,8.54-6.91S168.64,301.77,168.16,307Z"/><path class="cls-3" d="M159.76,313.05a4.94,4.94,0,0,1-2.33-.55,6.23,6.23,0,0,1-3-3.88,4.33,4.33,0,0,1,.41-3.49c1-1.56,3.1-2,4.72-1.93,1.78.1,3.21.8,3.73,1.82.59,1.18,0,2.94-.81,4.15s-1.83,1.87-2.7,1.79c-1.23-.12-2.22-1.72-2.66-3.25-.15-.55-.45-1.87.14-2.33s1.56,0,3.39,1.53l-.44.53c-2.11-1.73-2.36-1.06-2.36-1.06s-.37.15,0,1.23a2.38,2.38,0,0,0,2,1.87,1.81,1.81,0,0,0,2.06-.69,3.54,3.54,0,0,0,.14-3.51,2.59,2.59,0,0,0-2.53-1.39,3.56,3.56,0,0,0-3.46,1.66c-.5.77-1.26,1.77-1,2.89.38,1.47,1.48,2.13,2.68,2.76a5.06,5.06,0,0,0,4.78.42,5.2,5.2,0,0,0,2.59-4.21,4.37,4.37,0,0,0-1.82-4.5c-2.7-1.91-7.71-.4-11.12,2.44l.29-1.4c3.66-3,8.27-3.69,11.23-1.6a6,6,0,0,1,2.69,5.35,6.38,6.38,0,0,1-3.54,4.53A7,7,0,0,1,159.76,313.05Z"/></g><g id="baguette"><path class="cls-6" d="M234.57,307.21c1.84,2.51-7.06,16.67-23.94,31.91-16.19,14.61-30.51,26.72-31.91,23.94-2.09-4.16,7.7-17.49,23.95-31.9S230.93,302.23,234.57,307.21Z"/><path class="cls-7" d="M188.13,351.36a3.47,3.47,0,0,0,2.63,2.76c1,.17,1.37-1.92.89-3.71s-1.11-4.14-2.62-2.75A3.53,3.53,0,0,0,188.13,351.36Z"/><path class="cls-7" d="M195.54,344.31c.58,2.3,2,3.37,3.21,3.62s1.7-2.41,1.11-4.71-1.34-5.34-3.21-3.61A4.59,4.59,0,0,0,195.54,344.31Z"/><path class="cls-7" d="M203.38,336.79a4.54,4.54,0,0,0,3.38,3.66c1.35.25,1.83-2.49,1.24-4.83s-1.37-5.44-3.38-3.66A4.66,4.66,0,0,0,203.38,336.79Z"/><path class="cls-7" d="M211.21,329.52a4.09,4.09,0,0,0,3,3.3c1.17.23,1.56-2.21,1-4.31s-1.23-4.89-2.95-3.3A4.18,4.18,0,0,0,211.21,329.52Z"/><path class="cls-7" d="M218.74,322a3.66,3.66,0,0,0,2.95,2.95c1.21.18,1.69-2.08,1.2-4s-1.12-4.46-2.95-2.95A3.74,3.74,0,0,0,218.74,322Z"/></g><g id="platebread"><path id="plate" class="cls-4" d="M293.74,333.68c3.31,8.47-14.06,25.91-20.57,20.57-8.79-7.2-18.62-11.85-20.57-20.57-2.48-11.09,8.46-16.92,20.57-20.57C284.05,309.84,287.86,318.63,293.74,333.68Z"/><path class="cls-7" d="M286.24,325c0-1.92-2.71-3.48-13.06-3.48-7.41,0-13.05,1.56-13.05,3.48,0,1.23,2.36,2.3,5.94,2.93-.88,1.62.11,8.78-.26,10.84-1.17,6.58,2.64,5.13,7.28,5.13s10.25,1.45,9.7-4.17c-.21-2.07-.1-10.5-1-12.12C285.49,327,286.24,326.21,286.24,325Z"/><path class="cls-8" d="M279.76,329c3.69-2.8-1.08-2.9-2.59-3.36a1.65,1.65,0,0,1-1-1c-.46-1.24-1.31,1.14-2.11,1.14s-1.32-2.41-1.78-1.21a1.55,1.55,0,0,1-1.42,1.07h0c-1.87,0-5.06,4.73-3.39,5,1,.13-.87,2.22.73,3.08a1.06,1.06,0,0,1,.2,1.34c-2.41,3.09,0,2.18,0,2.64,0,2.74,1.4,3.66,3.28,3.66a3.05,3.05,0,0,0,2.53-1.66,1.46,1.46,0,0,1,1.48-.75,3,3,0,0,1,.41,0c6.75,2.37,1.1-4.31,3.39-5,2.62-.75-.49-2.19.49-3,1.43-1.13-2.06-.76-1.82-1.21S279.35,329.31,279.76,329Z"/></g><path class="cls-9" d="M75,463.33a50,50,0,0,1-1.39,4.89,1.37,1.37,0,0,1-1.3.92H35.1v0a55.33,55.33,0,0,1-1.5-5.72c-1.06-5.15-1.87-12.6.87-17.38,1.37-2.38,9.88-1.51,12.82-1.14a1.36,1.36,0,0,0,1.42-.79l.55-1.21a1.37,1.37,0,0,1,1.25-.8h6.44a2.81,2.81,0,0,1,2.56,1.63l.2.43a1.34,1.34,0,0,0,1.36.78c2.88-.25,11.39-.8,12.86,1.53C77,451.27,76.16,458.36,75,463.33Z"/><path class="cls-10" d="M74.94,463.65a46.53,46.53,0,0,1-1.6,5.33.22.22,0,0,1-.22.16H35.17a.11.11,0,0,1-.08,0,35.82,35.82,0,0,1-1.45-5.5.24.24,0,0,1,.25-.29h0c23.37,2.38,31.26.54,40.8,0A.24.24,0,0,1,74.94,463.65Z"/><circle class="cls-11" cx="54.3" cy="456.88" r="8.86"/><circle class="cls-12" cx="54.3" cy="456.88" r="7.22"/><circle class="cls-12" cx="54.3" cy="456.88" r="6.24"/><path d="M54.3,463.3a6.42,6.42,0,1,1,6.42-6.42A6.43,6.43,0,0,1,54.3,463.3Zm0-12.48a6.07,6.07,0,1,0,6.06,6.06A6.07,6.07,0,0,0,54.3,450.82Z"/><path class="cls-13" d="M70.62,445.33H66.88c-.47.15-.61-.27-.61-.6v-.06a.54.54,0,0,1,.61-.61h3.74c.47-.07.61.27.61.61v.06C71.23,445.06,71.09,445.48,70.62,445.33Z"/><path class="cls-13" d="M43.07,444.77H38.78c-.74.18-.74-.32-.74-.71h0c0-.39-.11-.74.71-.71h4.32c.67-.07.71.32.71.71h0C43.81,444.84,43.46,444.77,43.07,444.77Z"/><path class="cls-13" d="M41.86,443.49H40c-.33,0-.6.07-.6-.6h0c0-.33-.18-.46.57-.53l1.94-.07c.54,0,.61.27.61.6h0C42.47,443.56,42.2,443.49,41.86,443.49Z"/><path class="cls-13" d="M69.59,450.86l-1.54.07a.85.85,0,0,1-.86-.86v-1.61a.86.86,0,0,1,.86-.86h1.54c.47,0,.93.17.93.65L70.45,450A.86.86,0,0,1,69.59,450.86Z"/><path d="M69.59,450.86l-1.61.07a.85.85,0,0,1-.86-.86v-1.68a.86.86,0,0,1,.86-.86h1.61c.47,0,.93.17.93.65L70.45,450A.86.86,0,0,1,69.59,450.86Zm-1.54,0,1.47-.07a.87.87,0,0,0,.86-.86l.07-1.69c0-.48-.28-.64-.93-.64H68.05a.86.86,0,0,0-.86.86V450A.85.85,0,0,0,68.05,450.86Z"/><path class="cls-14" d="M226.18,401.47c.94,1.6,8.31,11,7.72,11.47s-5-3.87-9.84-9.72-6.56-7.75-6.16-8.39C218.92,393.18,222.36,394.9,226.18,401.47Z"/><path class="cls-14" d="M228.44,397.05c.32,2.81,4.05,20.71,3.3,20.88s-3.42-8.91-6-20.28-3.54-15.16-2.92-15.68C224.42,380.65,227.13,385.56,228.44,397.05Z"/><path class="cls-14" d="M235.1,395.86c-.61,3-2.87,22.43-3.62,22.36s-.36-10.21.88-22.63,1.55-16.61,2.31-16.93C236.6,377.84,237.57,383.74,235.1,395.86Z"/><path class="cls-14" d="M236.47,395.6c-1.2,2.78-7.34,21.39-8.06,21.16s1.7-10.07,5.43-22,4.87-16,5.68-16.12C241.57,378.25,241.33,384.22,236.47,395.6Z"/><path class="cls-14" d="M236.05,404.51c-1.28,1.35-8.2,11.07-8.83,10.64s2.3-5.88,6.55-12.18,5.58-8.49,6.32-8.28C242,395.21,241.28,399,236.05,404.51Z"/><path class="cls-14" d="M231.81,400.85c-.29,1.84-.51,13.77-1.27,13.78s-1.43-6.16-1.48-13.76-.19-10.15.53-10.4C231.42,389.85,233,393.35,231.81,400.85Z"/><path class="cls-15" d="M247.45,386.1c0-.09-.06-.22,0-.28,3.21-2.41-.62-6.69-2.76-6.69-1.48,0-3.88,2.64-4.54,4.24-1.7-.84-4.84-4.18-5.58.39a8.47,8.47,0,0,0,1.65,6.44c-1.51,2.72-1.42,5.81.27,7.07,1.51,1.13,3.48,2.81,5.21.82,1.51,2.11,4.92,2.49,6.16,1.71,1-.65,2.64-4.05,2.2-6,2.26-.1,4.76-2.2,4.28-3.57C252.86,385.91,250.41,387.45,247.45,386.1Z"/><path class="cls-11" d="M245.71,389.92a2.66,2.66,0,0,1-2.34,2.74c-2.15.4-2.68-1.22-2.68-2.74s.67-3.62,2.68-2.75S245.71,388.41,245.71,389.92Z"/><path class="cls-7" d="M251.16,374.79c-.66-.65-2.13-.83-1.75-1.49,3-5.24,3-8.18-4.14-7.76-1,.06-2.35,1.55-3.19,2-.89-1.3-2.4-2.27-3.62-3.43-2.81-2.65-4.93,2.26-4.93,5a23.33,23.33,0,0,0,.27,2.79c-1.71.82-5,.8-3.83,3.43,1.06,2.37,3.35,3.23,5.82,3.56.17,2.76-.37,5.86,3.37,6.92,4.43,1.26,3.75-1.81,5.18-3.85,2.58,1.68,4,1.33,8,.88C255.06,382.59,253.6,377.22,251.16,374.79Z"/><path class="cls-16" d="M245.57,374.84a4,4,0,0,1-3.93,3.07c-1.68,0-4.48-2.34-3.66-4.12.71-1.56,3-2.52,4.72-2.52S246.16,372,245.57,374.84Z"/><path class="cls-17" d="M236.5,380.37c5-.4,5-4.4,2.93-6.59-.07-.08,1.13,1.9,0-.26-1.77-3.45,5.09-2,1.77-7.51a4.68,4.68,0,0,0-5.77-1.58.17.17,0,0,1-.23-.11c-.57-2.27-.81-5.07-4.2-3.29a9,9,0,0,0-4.2,5.3.17.17,0,0,1-.23.12c-2.6-1.1-2-.52-5.87,1.46-1.67.84-1,4.16,2.51,5.69a.16.16,0,0,1,.06.26c-1.65,2-3.91,7.46-2.48,8,4.56,1.75,4.9-.42,8.61-1.71"/><path class="cls-2" d="M234.16,371.84c-.45,1.16-.7,3.06-2.6,2.3-3.53-1.39-2.63-1-2.63-2.3a2.48,2.48,0,0,1,2.63-2.3C233,369.54,235.07,369.54,234.16,371.84Z"/><path class="cls-17" d="M225,397c4.07-2.5,2.29-5.89-.38-6.86-.09,0,1.79,1.12-.08-.23-3-2.16,3.45-3.92-1.76-7.14a4.43,4.43,0,0,0-5.59,1.16.16.16,0,0,1-.24,0c-1.47-1.67-2.89-3.95-5-1a8.57,8.57,0,0,0-1.26,6.33.16.16,0,0,1-.14.2c-2.69.19-1.9.42-4.35,3.78-1,1.45.93,4,4.6,3.74a.17.17,0,0,1,.17.2c-.52,2.44-.08,8,1.37,7.88,4.63-.49,4-2.49,6.57-5.19"/><path class="cls-2" d="M219.27,390.75c.11,1.18.73,2.9-1.21,3.09-3.6.35-2.68.27-3.23-.81a2.37,2.37,0,0,1,1.23-3.1C217.29,389.3,219,388.4,219.27,390.75Z"/><path class="cls-7" d="M236.88,384.85c-.69-.38-1.95-.17-1.79-.8,1.22-5,.51-7.44-5.26-5.38-.81.28-1.56,1.83-2.13,2.42a22.2,22.2,0,0,0-3.8-1.94c-3-1.51-3.51,3-2.85,5.31a18.22,18.22,0,0,0,.9,2.23c-1.22,1.09-3.92,1.86-2.33,3.73,1.43,1.71,3.52,1.86,5.63,1.54.8,2.23,1.1,4.91,4.43,4.88,3.94,0,2.65-2.38,3.34-4.4,2.51.76,3.58.14,6.75-1.19C242,390.33,239.47,386.26,236.88,384.85Z"/><path class="cls-16" d="M232.3,386.23a3.41,3.41,0,0,1-2.49,3.47c-1.38.4-4.25-.85-4-2.51.22-1.45,1.9-2.8,3.28-3.2S232.11,383.76,232.3,386.23Z"/><path class="cls-15" d="M224.57,373.48c0-.09-.06-.21,0-.26,3-2.26-.57-6.26-2.58-6.26-1.38,0-3.63,2.47-4.24,4-1.58-.78-4.52-3.9-5.21.36a8,8,0,0,0,1.54,6c-1.41,2.53-1.32,5.42.25,6.6,1.41,1,3.26,2.62,4.87.77,1.41,2,4.6,2.32,5.75,1.59.95-.6,2.47-3.78,2.06-5.61,2.11-.09,4.44-2.06,4-3.34C229.62,373.29,227.33,374.73,224.57,373.48Z"/><path class="cls-11" d="M222.94,377a2.48,2.48,0,0,1-2.18,2.56c-2,.38-2.5-1.14-2.5-2.56s.62-3.38,2.5-2.56S222.94,375.63,222.94,377Z"/><path class="cls-18" d="M200.6,263.37s-4.93-12.39-3.67-13.32,6.57,8.89,6.57,8.89-1.22-10.36-.45-11.61c2.83-4.55,3.62,8.44,3.62,8.44s2.06-10.13,3.34-9.57,3.4,12.35,3.4,12.35,6.35-9.64,7.25-8.5c3.88,5-4.25,14.56-4.25,14.56s6.87-4.77,7.36-3.29c2,5.95-9.31,11.13-9.31,11.13S223.52,276,224,278c1.28,5.34-7.08,1.87-7.08,1.87s3.45,7.11,1.64,8.43c-4.25,3.12-6.85-5.21-6.85-5.21s-1.28,6.45-5.89,4.87c-5.84-2-.82-7.43-.82-7.43s-4.93,5-6.21,4.48,1.3-7.39,1.3-7.39-4.89-.34-5.67-1.56,7.39-5,7.39-5-7.25,1.27-7.58-.26c-1.57-7.23,7.15-2.63,7.15-2.63s-11.52-8.77-9.43-12C194.19,252.67,200.6,263.37,200.6,263.37Z"/><ellipse class="cls-5" cx="201.84" cy="267.47" rx="5.22" ry="14.64"/><ellipse class="cls-5" cx="214.77" cy="265.6" rx="5.61" ry="15.54"/><path class="cls-19" d="M204.75,274.69c0,3.62-.57,5.51-2.44,5.51s-3.4-2.93-3.4-6.55,1.52-6.55,3.4-6.55S204.75,271.07,204.75,274.69Z"/><ellipse class="cls-19" cx="215.28" cy="273.14" rx="2.61" ry="6.78"/><path class="cls-19" d="M214.37,280.75c0,.53-1.7,2.77-4.92,2.77s-5.55-2.3-5.55-2.83,2.33,1.87,5.55,1.87S214.37,280.21,214.37,280.75Z"/><rect x="148.42" y="390.61" width="39.96" height="2.75" rx="1.05" transform="translate(-227.85 233.89) rotate(-45)"/><rect x="158.56" y="368.49" width="27.88" height="3.17" rx="1.22" transform="translate(312.21 -13.58) rotate(45)"/><rect x="105.87" y="396.94" width="39.96" height="2.75" rx="1.05" transform="translate(-66.81 768.96) rotate(-135)"/><rect x="107.81" y="374.82" width="27.88" height="3.17" rx="1.22" transform="translate(474.01 556.48) rotate(135)"/><path class="cls-20" d="M147.15,435.65h0a10.39,10.39,0,0,1-10.36-10.36s-4-22.59,0-40c1.27-5.55,4.66-10.36,10.36-10.36h0a10.39,10.39,0,0,1,10.36,10.36s6.61,30.49,0,40C152.63,432.29,152.85,435.65,147.15,435.65Z"/><path class="cls-21" d="M199.49,446.21c.35,0,.69,0,1-.08a3.7,3.7,0,0,1-.8.09Z"/><path class="cls-21" d="M202.17,422.74a11.47,11.47,0,0,0-2.21-.38l.52,0A3.89,3.89,0,0,1,202.17,422.74Z"/><path class="cls-22" d="M201.4,445.61H201s-55.45,1.48-74.69.64c-.6,0-33.92-.68-34.5-.77l.18,0h0c3.31-.36,7.1-5.51,7.1-11.75,0-4.89-2-9-4.31-10.91a4.89,4.89,0,0,0-2.21-1l-.26,0a10.69,10.69,0,0,1,1.27-.07s80.72-6.34,107.41,0a6.93,6.93,0,0,0,.91,0c5.17,11.59-11.2,6.56-6.93,11.38C199.43,438.22,204.29,431.67,201.4,445.61Z"/><path class="cls-21" d="M209.1,433.78c0,6.25-3.85,11-7.1,11.75h0a8.43,8.43,0,0,1-1,.08c-7.67.44-6.46-5.83-6.46-12.46,0-6.4-9.56-10.95,6.65-11.38a5.15,5.15,0,0,1,.56,0c.33,0,.65.08,1,.13a4.85,4.85,0,0,1,2.1,1C207.15,424.78,209.1,428.89,209.1,433.78Z"/><path class="cls-21" d="M99.06,433.72c0,6.24,6.49,10-7.1,11.75h0l-.18,0a11.21,11.21,0,0,1-1.82-.43,4.81,4.81,0,0,1-2.26-1.49c-1.86-2.24-3.22-6.15-3.22-10.49a13.18,13.18,0,0,1,3.94-9.9,4.77,4.77,0,0,1,1.8-1c.34-.1.69-.19,1-.26a4.7,4.7,0,0,1,2,0h0a4.08,4.08,0,0,0,.7.11C100.84,422.56,99.06,428.16,99.06,433.72Z"/><path class="cls-21" d="M90.37,422.39a12,12,0,0,0-3,.72,5.26,5.26,0,0,1,2.11-.81Q89.95,422.33,90.37,422.39Z"/><path d="M219.69,433.43H201v-1.7h18.5V433A.58.58,0,0,0,219.69,433.43Z"/><path d="M220.73,429v4a.61.61,0,0,1-.1.33l-.13.13h-.81a.58.58,0,0,1-.23-.46v-4a.56.56,0,0,1,.56-.56h.15A.56.56,0,0,1,220.73,429Z"/><path d="M73.57,434.59H92.3V432.9H73.8v1.24A.54.54,0,0,1,73.57,434.59Z"/><path d="M72.53,430.18v4a.57.57,0,0,0,.11.33.74.74,0,0,0,.13.12h.8a.54.54,0,0,0,.23-.45v-4a.56.56,0,0,0-.56-.56H73.1A.56.56,0,0,0,72.53,430.18Z"/><circle class="cls-20" cx="146.41" cy="374.01" r="20.19"/><path class="cls-21" d="M147.05,394.84a21.49,21.49,0,0,1-21.47-21.46c0-11.84,9.78-19.57,21.47-21.46,15.38-2.5,21.46,9.62,21.46,21.46A21.49,21.49,0,0,1,147.05,394.84Zm0-40.39c-10.44,0-17.14,8.65-18.93,18.93-2.27,13,8.49,18.92,18.93,18.92a18.93,18.93,0,0,0,0-37.85Z"/><path class="cls-5" d="M147.14,390c-.3,0-.58,0-.86,0a19.89,19.89,0,0,1-13.78-6.68,11.7,11.7,0,0,1-2.9-8.89v.14c-.33,2.93,1.25,5.77,3.39,8.34a19.24,19.24,0,0,0,13.34,6.46,17.4,17.4,0,0,0,13.11-5.28,12.71,12.71,0,0,0,3.36-10.15l.2.48a11.85,11.85,0,0,1-3.09,10.1A18.2,18.2,0,0,1,147.14,390Z"/><path class="cls-5" d="M146.9,386.24q-.36,0-.69,0a16.54,16.54,0,0,1-11.1-4.94,8.23,8.23,0,0,1-2.34-6.58v.11c-.27,2.17,1,4.27,2.73,6.17a16.08,16.08,0,0,0,10.74,4.78,14.74,14.74,0,0,0,10.57-3.91,8.93,8.93,0,0,0,2.7-7.51l.17.35a8.32,8.32,0,0,1-2.5,7.48A15.35,15.35,0,0,1,146.9,386.24Z"/><circle class="cls-5" cx="138.38" cy="368.3" r="2.85"/><circle class="cls-5" cx="142.39" cy="377.61" r="2.85"/><circle class="cls-5" cx="146.41" cy="362.59" r="2.85"/><circle class="cls-5" cx="154.45" cy="367.67" r="2.85"/><circle class="cls-5" cx="152.12" cy="377.39" r="2.85"/><circle cx="137.21" cy="367.77" r="1.06"/><circle cx="143.35" cy="378.56" r="1.06"/><circle cx="151.59" cy="378.56" r="1.06"/><circle cx="155.4" cy="367.35" r="1.06"/><circle cx="146.31" cy="361.64" r="1.06"/><rect class="cls-23" x="56.13" y="318.6" width="4.24" height="80.21" rx="1.63"/><rect class="cls-23" x="47.65" y="393.76" width="12.72" height="5.06" rx="1.94"/><rect class="cls-23" x="80.91" y="308.03" width="4.24" height="80.21" rx="1.63" transform="translate(318.18 617.95) rotate(152.34)"/><rect class="cls-23" x="97.87" y="376.92" width="12.72" height="5.06" rx="1.94" transform="translate(372.69 667.16) rotate(152.34)"/><path class="cls-23" d="M31.08,315.56h1a1.7,1.7,0,0,1,1.7,1.7V386.8a1.56,1.56,0,0,1-1.56,1.56H31.08a1.56,1.56,0,0,1-1.56-1.56V317.12a1.56,1.56,0,0,1,1.56-1.56Z" transform="translate(161.5 23.3) rotate(26.7)"/><rect class="cls-23" x="6.18" y="378.22" width="12.72" height="4.59" rx="1.76" transform="translate(172.29 34.93) rotate(26.7)"/><path class="cls-24" d="M86.16,261.36c-9,34.84-12.68,63.42-28.62,62.9-20.13-.66-31.78-27.52-29.33-61.49,2.48-34.37-4.86-63.29,29.33-64.66C94.58,196.62,95.35,225.84,86.16,261.36Z"/><ellipse class="cls-5" cx="56.48" cy="255.71" rx="14.13" ry="20.14"/><ellipse class="cls-11" cx="56.48" cy="265.76" rx="4.59" ry="6.89"/><path class="cls-4" d="M70.16,279.18c0,3.4-.63,3.49-1.49,3.49S67,282.58,67,279.18s.86-8.26,1.73-8.26S70.16,275.79,70.16,279.18Z"/><path class="cls-5" d="M64.42,305.23H64.3a.46.46,0,0,1-.41-.36A15.29,15.29,0,0,0,61.46,299a8.22,8.22,0,0,0-1.67-1.75,7,7,0,0,0-4.29-1.44,9.77,9.77,0,0,0-3.84.82,11,11,0,0,0-2.25,1.26,9.66,9.66,0,0,0-4,5.3.44.44,0,0,1-.53.33.44.44,0,0,1-.34-.53,10.14,10.14,0,0,1,3.94-5.53c.24-.18.49-.36.74-.52a12.55,12.55,0,0,1,2.41-1.25,10.31,10.31,0,0,1,3.84-.77,8.92,8.92,0,0,1,4.4,1.15A8.15,8.15,0,0,1,62.13,298a13.07,13.07,0,0,1,2.63,6.73A.45.45,0,0,1,64.42,305.23Z"/><path class="cls-5" d="M51.66,295.68a12.55,12.55,0,0,0-2.41,1.25l0-6.05c0-.6.67-3.5,1.33-3.5s1.09,2.76,1.09,3.36Z"/><path class="cls-5" d="M62.91,289.66l-.77,8.22a.28.28,0,0,1,0,.09,8.15,8.15,0,0,0-2.23-1.91l.6-6.49c.07-.75,1-4.32,1.69-4.25S63,288.91,62.91,289.66Z"/></svg>