<?xml version="1.0" encoding="UTF-8"?><svg xmlns="http://www.w3.org/2000/svg" width="870" height="490" viewBox="0 0 870 490"><defs><style>.j{fill:#eedec0;}.k{fill:#ea968c;}.l{fill:#fff;}.m{fill:#df4b37;}.n{fill:#293f02;}.o{fill:#2e3e0e;}</style></defs><g id="a"/><g id="b"/><g id="c"/><g id="d"><rect class="m" width="870" height="490"/><g><g><rect class="n" x="119.3" y="287.9" width="7.88" height="149.3" rx="3.94" ry="3.94"/><rect class="n" x="103.54" y="427.77" width="23.65" height="9.42" rx="3.58" ry="3.58"/></g><g><rect class="n" x="136.22" y="282.97" width="7.88" height="149.3" rx="3.94" ry="3.94" transform="translate(280.33 715.25) rotate(180)"/><rect class="n" x="136.22" y="422.85" width="23.65" height="9.42" rx="3.58" ry="3.58" transform="translate(296.09 855.12) rotate(-180)"/></g><g><rect class="n" x="105.51" y="289.87" width="7.88" height="135.49" rx="3.94" ry="3.94"/><rect class="n" x="89.74" y="416.81" width="23.65" height="8.55" rx="3.58" ry="3.58"/></g><path class="k" d="M175.13,181.35c-16.75,64.84-23.58,118.04-53.21,117.07-37.42-1.22-59.08-51.22-54.52-114.44,4.61-63.98-9.04-117.81,54.52-120.36,68.85-2.76,70.28,51.62,53.21,117.73Z"/><ellipse class="l" cx="119.96" cy="170.82" rx="26.27" ry="37.49"/><ellipse cx="119.96" cy="183.65" rx="8.54" ry="12.83"/><path class="l" d="M139.9,264.63c-.09,.01-.18,.02-.26,.02-.43-.03-.81-.34-.9-.78-1.15-5.39-2.97-9.78-5.37-13.06-1.11-1.53-2.35-2.82-3.71-3.86-2.72-2.1-5.9-3.18-9.48-3.2-2.92,0-5.82,.66-8.5,1.81-1.76,.75-3.44,1.69-4.97,2.79-4.53,3.22-7.87,7.65-8.77,11.73-.12,.53-.65,.86-1.18,.75-.53-.12-.87-.64-.75-1.18,.95-4.29,4.13-8.76,8.73-12.25,.53-.4,1.07-.79,1.62-1.15,1.71-1.13,3.51-2.07,5.34-2.77,2.84-1.12,5.74-1.71,8.49-1.7,2.54,.01,6.18,.5,9.72,2.55,1.72,1,3.41,2.36,4.94,4.21,2.68,3.24,4.86,7.99,5.82,14.91,.07,.54-.23,1.06-.76,1.17Z"/><path class="l" d="M111.69,243.49c-1.83,.71-3.63,1.64-5.34,2.77l.11-13.38c.01-1.33,1.46-7.75,2.93-7.76,1.46-.01,2.42,6.12,2.42,7.44l-.11,10.92Z"/><path class="l" d="M136.56,230.16l-1.7,18.21c0,.06-.01,.12-.02,.18-1.53-1.85-3.22-3.21-4.94-4.21l1.32-14.38c.15-1.66,2.28-9.55,3.74-9.4,1.45,.15,1.75,7.94,1.6,9.6Z"/></g><g><g><path class="j" d="M290.53,376.93h0c-2.83-1.87-3.45,2.01-3.45,4.5l-.47,23.36c-.01,4.51,2.33,5.58,4.23,5.59h0c3.44,1.34,3.45-2.01,3.45-4.5l.04-12.74c0-2.49-1.98-15.4-3.8-16.21Z"/><path class="j" d="M291.49,44.43h0c-2.83-1.87-3.45,2.01-3.45,4.5l-.47,23.36c-.01,4.51,2.33,5.58,4.23,5.59h0c3.44,1.34,3.45-2.01,3.45-4.5l.04-12.74c0-2.49-1.98-15.4-3.8-16.21Z"/><path class="j" d="M291.34,98.32h0c-2.83-1.87-3.45,2.01-3.45,4.5l-.47,23.36c-.01,4.51,2.33,5.58,4.23,5.59h0c3.44,1.34,3.45-2.01,3.45-4.5l.04-12.74c0-2.49-1.98-15.4-3.8-16.21Z"/><path class="j" d="M291.17,154.87h0c-2.83-1.87-3.45,2.01-3.45,4.5l-.47,23.36c-.01,4.51,2.33,5.58,4.23,5.59h0c3.44,1.34,3.45-2.01,3.45-4.5l.04-12.74c0-2.49-1.98-15.4-3.8-16.21Z"/><path class="j" d="M291,215.4h0c-2.83-1.87-3.45,2.01-3.45,4.5l-.47,23.36c-.01,4.51,2.33,5.58,4.23,5.59h0c3.44,1.34,3.45-2.01,3.45-4.5l.04-12.74c0-2.49-1.98-15.4-3.8-16.21Z"/><path class="j" d="M290.83,273.54h0c-2.83-1.87-3.45,2.01-3.45,4.5l-.47,23.36c-.01,4.51,2.33,5.58,4.23,5.59h0c3.44,1.34,3.45-2.01,3.45-4.5l.04-12.74c0-2.49-1.98-15.4-3.8-16.21Z"/><path class="j" d="M290.68,325.57h0c-2.83-1.87-3.45,2.01-3.45,4.5l-.47,23.36c-.01,4.51,2.33,5.58,4.23,5.59h0c3.44,1.34,3.45-2.01,3.45-4.5l.04-12.74c0-2.49-1.98-15.4-3.8-16.21Z"/></g><g><path class="j" d="M770.68,378.02h0c2.83-1.87,3.45,2.01,3.45,4.5l.47,23.36c.01,4.51-2.33,5.58-4.23,5.59h0c-3.44,1.34-3.45-2.01-3.45-4.5l-.04-12.74c0-2.49,1.98-15.4,3.8-16.21Z"/><path class="j" d="M769.72,45.52h0c2.83-1.87,3.45,2.01,3.45,4.5l.47,23.36c.01,4.51-2.33,5.58-4.23,5.59h0c-3.44,1.34-3.45-2.01-3.45-4.5l-.04-12.74c0-2.49,1.98-15.4,3.8-16.21Z"/><path class="j" d="M769.88,99.41h0c2.83-1.87,3.45,2.01,3.45,4.5l.47,23.36c.01,4.51-2.33,5.58-4.23,5.59h0c-3.44,1.34-3.45-2.01-3.45-4.5l-.04-12.74c0-2.49,1.98-15.4,3.8-16.21Z"/><path class="j" d="M770.04,155.96h0c2.83-1.87,3.45,2.01,3.45,4.5l.47,23.36c.01,4.51-2.33,5.58-4.23,5.59h0c-3.44,1.34-3.45-2.01-3.45-4.5l-.04-12.74c0-2.49,1.98-15.4,3.8-16.21Z"/><path class="j" d="M770.22,216.49h0c2.83-1.87,3.45,2.01,3.45,4.5l.47,23.36c.01,4.51-2.33,5.58-4.23,5.59h0c-3.44,1.34-3.45-2.01-3.45-4.5l-.04-12.74c0-2.49,1.98-15.4,3.8-16.21Z"/><path class="j" d="M770.38,274.63h0c2.83-1.87,3.45,2.01,3.45,4.5l.47,23.36c.01,4.51-2.33,5.58-4.23,5.59h0c-3.44,1.34-3.45-2.01-3.45-4.5l-.04-12.74c0-2.49,1.98-15.4,3.8-16.21Z"/><path class="j" d="M770.53,326.66h0c2.83-1.87,3.45,2.01,3.45,4.5l.47,23.36c.01,4.51-2.33,5.58-4.23,5.59h0c-3.44,1.34-3.45-2.01-3.45-4.5l-.04-12.74c0-2.49,1.98-15.4,3.8-16.21Z"/></g><path class="j" d="M749.92,357.42c16.17,92.78-250.54-10.8-356.42,48.67-102.07,57.33-108.21-358.58-25.11-347.3,142.81,19.39,213.6-32.17,347.78,2.89,67.07,17.53-.49,99.28,33.75,295.74Z"/><g><path class="j" d="M728.17,421.77h0c-1.85-2.87,1.96-3.51,4.42-3.53l22.98-.58c4.44-.03,5.5,2.35,5.51,4.28h0c1.33,3.49-1.96,3.51-4.42,3.53l-12.54,.09c-2.45,.02-15.16-1.95-15.96-3.79Z"/><path class="j" d="M401.09,424.1h0c-1.85-2.87,1.96-3.51,4.42-3.53l22.98-.58c4.44-.03,5.5,2.35,5.51,4.28h0c1.33,3.49-1.96,3.51-4.42,3.53l-12.54,.09c-2.45,.02-15.16-1.95-15.96-3.79Z"/><path class="j" d="M454.1,423.72h0c-1.85-2.87,1.96-3.51,4.42-3.53l22.98-.58c4.44-.03,5.5,2.35,5.51,4.28h0c1.33,3.49-1.96,3.51-4.42,3.53l-12.54,.09c-2.45,.02-15.16-1.95-15.96-3.79Z"/><path class="j" d="M509.73,423.32h0c-1.85-2.87,1.96-3.51,4.42-3.53l22.98-.58c4.44-.03,5.5,2.35,5.51,4.28h0c1.33,3.49-1.96,3.51-4.42,3.53l-12.54,.09c-2.45,.02-15.16-1.95-15.96-3.79Z"/><path class="j" d="M569.27,422.9h0c-1.85-2.87,1.96-3.51,4.42-3.53l22.98-.58c4.44-.03,5.5,2.35,5.51,4.28h0c1.33,3.49-1.96,3.51-4.42,3.53l-12.54,.09c-2.45,.02-15.16-1.95-15.96-3.79Z"/><path class="j" d="M626.46,422.49h0c-1.85-2.87,1.96-3.51,4.42-3.53l22.98-.58c4.44-.03,5.5,2.35,5.51,4.28h0c1.33,3.49-1.96,3.51-4.42,3.53l-12.54,.09c-2.45,.02-15.16-1.95-15.96-3.79Z"/><path class="j" d="M677.65,422.13h0c-1.85-2.87,1.96-3.51,4.42-3.53l22.98-.58c4.44-.03,5.5,2.35,5.51,4.28h0c1.33,3.49-1.96,3.51-4.42,3.53l-12.54,.09c-2.45,.02-15.16-1.95-15.96-3.79Z"/><path class="j" d="M298.34,424.48h0c-1.85-2.87,1.96-3.51,4.42-3.53l22.98-.58c4.44-.03,5.5,2.35,5.51,4.28h0c1.33,3.49-1.96,3.51-4.42,3.53l-12.54,.09c-2.45,.02-15.16-1.95-15.96-3.79Z"/><path class="j" d="M351.35,424.1h0c-1.85-2.87,1.96-3.51,4.42-3.53l22.98-.58c4.44-.03,5.5,2.35,5.51,4.28h0c1.33,3.49-1.96,3.51-4.42,3.53l-12.54,.09c-2.45,.02-15.16-1.95-15.96-3.79Z"/></g><g><path class="j" d="M732.13,36.38h0c-1.85-2.87,1.96-3.51,4.42-3.53l22.98-.58c4.44-.03,5.5,2.35,5.51,4.28h0c1.33,3.49-1.96,3.51-4.42,3.53l-12.54,.09c-2.45,.02-15.16-1.95-15.96-3.79Z"/><path class="j" d="M405.04,38.71h0c-1.85-2.87,1.96-3.51,4.42-3.53l22.98-.58c4.44-.03,5.5,2.35,5.51,4.28h0c1.33,3.49-1.96,3.51-4.42,3.53l-12.54,.09c-2.45,.02-15.16-1.95-15.96-3.79Z"/><path class="j" d="M458.06,38.33h0c-1.85-2.87,1.96-3.51,4.42-3.53l22.98-.58c4.44-.03,5.5,2.35,5.51,4.28h0c1.33,3.49-1.96,3.51-4.42,3.53l-12.54,.09c-2.45,.02-15.16-1.95-15.96-3.79Z"/><path class="j" d="M513.68,37.94h0c-1.85-2.87,1.96-3.51,4.42-3.53l22.98-.58c4.44-.03,5.5,2.35,5.51,4.28h0c1.33,3.49-1.96,3.51-4.42,3.53l-12.54,.09c-2.45,.02-15.16-1.95-15.96-3.79Z"/><path class="j" d="M573.22,37.51h0c-1.85-2.87,1.96-3.51,4.42-3.53l22.98-.58c4.44-.03,5.5,2.35,5.51,4.28h0c1.33,3.49-1.96,3.51-4.42,3.53l-12.54,.09c-2.45,.02-15.16-1.95-15.96-3.79Z"/><path class="j" d="M630.42,37.1h0c-1.85-2.87,1.96-3.51,4.42-3.53l22.98-.58c4.44-.03,5.5,2.35,5.51,4.28h0c1.33,3.49-1.96,3.51-4.42,3.53l-12.54,.09c-2.45,.02-15.16-1.95-15.96-3.79Z"/><path class="j" d="M681.6,36.74h0c-1.85-2.87,1.96-3.51,4.42-3.53l22.98-.58c4.44-.03,5.5,2.35,5.51,4.28h0c1.33,3.49-1.96,3.51-4.42,3.53l-12.54,.09c-2.45,.02-15.16-1.95-15.96-3.79Z"/><path class="j" d="M302.29,39.09h0c-1.85-2.87,1.96-3.51,4.42-3.53l22.98-.58c4.44-.03,5.5,2.35,5.51,4.28h0c1.33,3.49-1.96,3.51-4.42,3.53l-12.54,.09c-2.45,.02-15.16-1.95-15.96-3.79Z"/><path class="j" d="M355.31,38.72h0c-1.85-2.87,1.96-3.51,4.42-3.53l22.98-.58c4.44-.03,5.5,2.35,5.51,4.28h0c1.33,3.49-1.96,3.51-4.42,3.53l-12.54,.09c-2.45,.02-15.16-1.95-15.96-3.79Z"/></g></g><g><g><path class="o" d="M410.02,135.47c-1.21-.06-1.85-.32-1.98-1.47-.26-2.88-.45-5.83-.45-8.9,0-14.98,3.77-31.63,17.2-39.18,.64-.32,1.09-.51,1.53-.51,.51,0,.9,.19,1.47,.51,12.15,7.81,16.69,21.83,16.69,38.86,0,2.75-.13,5.63-.45,8.71-.13,1.34-.83,1.73-2.05,1.86-1.47,.13-3.26,.19-4.99,.19-2.11,0-4.16-.06-5.5-.19-.83-.13-1.28-.51-1.28-1.34,0-1.41,1.02-4.35,1.02-8.26,0-2.56-1.28-3.65-4.09-3.65-3.77,0-7.03,1.47-7.03,5.12,0,2.88,.7,5.25,.7,6.91,.06,.7-.19,1.09-1.02,1.22-1.41,.13-3.33,.19-5.37,.19-1.6,0-2.94,0-4.41-.06Zm16.62-21.77c1.53-.13,2.56-.19,3.32-.32,.77-.19,1.02-.64,1.02-1.54,0-4.03-2.05-9.48-3.96-12.23-.32-.38-.51-.64-.77-.64-.32,0-.58,.19-.96,.64-3.2,3.65-4.79,10.44-4.79,14.53,0,.58,.26,.77,.64,.77,.77,0,2.75-1.02,5.5-1.22Z"/><path class="o" d="M462.13,83.28c.64,.13,.96,.64,.96,1.34,0,1.47-2.37,6.85-2.37,10.95,0,1.02,.32,1.54,1.02,1.54,1.34,0,4.09-2.75,8.95-2.75,6.14,0,9.85,4.03,9.85,16.84,0,9.16-.89,18.7-1.53,22.54-.19,1.22-.83,1.73-1.73,1.79-.77,0-2.17,.06-3.71,.06-1.73,0-3.71-.06-5.11-.19-.83-.06-1.54-.32-1.54-1.47,0-1.54,1.66-11.72,1.66-19.66,0-7.17-.96-8.71-3.33-8.71-2.68,0-4.6,2.43-4.6,9.54,0,10.05,.64,16.97,.64,18.76,0,1.22-.83,1.47-1.66,1.6-1.15,.06-2.69,.13-4.28,.13s-3.33-.06-4.67-.13c-.64-.06-1.28-.32-1.53-1.54-.32-2.69-.58-8.26-.58-15.11,0-10.24,.58-22.98,2.37-33.49,.26-1.28,.96-1.92,1.66-1.98,1.54-.19,3.33-.26,5.12-.26,1.53,0,3.07,0,4.41,.19Z"/><path class="o" d="M498.32,83.28c.64,.13,.96,.64,.96,1.34,0,1.47-2.37,6.85-2.37,10.95,0,1.02,.32,1.54,1.02,1.54,1.34,0,4.09-2.75,8.95-2.75,6.14,0,9.85,4.03,9.85,16.84,0,9.16-.89,18.7-1.53,22.54-.19,1.22-.83,1.73-1.73,1.79-.77,0-2.17,.06-3.71,.06-1.73,0-3.71-.06-5.11-.19-.83-.06-1.54-.32-1.54-1.47,0-1.54,1.66-11.72,1.66-19.66,0-7.17-.96-8.71-3.33-8.71-2.68,0-4.6,2.43-4.6,9.54,0,10.05,.64,16.97,.64,18.76,0,1.22-.83,1.47-1.66,1.6-1.15,.06-2.69,.13-4.28,.13s-3.33-.06-4.67-.13c-.64-.06-1.28-.32-1.53-1.54-.32-2.69-.58-8.26-.58-15.11,0-10.24,.58-22.98,2.37-33.49,.26-1.28,.96-1.92,1.66-1.98,1.54-.19,3.33-.26,5.12-.26,1.53,0,3.07,0,4.41,.19Z"/><path class="o" d="M534.5,83.28c.64,.13,.96,.64,.96,1.34,0,1.47-2.37,6.85-2.37,10.95,0,1.02,.32,1.54,1.02,1.54,1.34,0,4.09-2.75,8.95-2.75,6.14,0,9.85,4.03,9.85,16.84,0,9.16-.89,18.7-1.53,22.54-.19,1.22-.83,1.73-1.73,1.79-.77,0-2.17,.06-3.71,.06-1.73,0-3.71-.06-5.11-.19-.83-.06-1.54-.32-1.54-1.47,0-1.54,1.66-11.72,1.66-19.66,0-7.17-.96-8.71-3.33-8.71-2.68,0-4.6,2.43-4.6,9.54,0,10.05,.64,16.97,.64,18.76,0,1.22-.83,1.47-1.66,1.6-1.15,.06-2.69,.13-4.28,.13s-3.33-.06-4.67-.13c-.64-.06-1.28-.32-1.53-1.54-.32-2.69-.58-8.26-.58-15.11,0-10.24,.58-22.98,2.37-33.49,.26-1.28,.96-1.92,1.66-1.98,1.54-.19,3.33-.26,5.12-.26,1.53,0,3.07,0,4.41,.19Z"/><path class="o" d="M599.01,110.94c0,9.73-.96,19.98-1.34,22.67-.19,1.22-.83,1.79-1.79,1.86-1.02,.13-2.43,.13-3.9,.13-1.6,0-3.13-.06-4.48-.13-1.02-.13-1.41-.58-1.41-1.34,0-2.94,.96-13.64,.96-22.02,0-4.55-.77-6.72-3.13-6.72-1.15,0-2.17,.38-2.94,1.15-1.09,1.02-1.53,2.82-1.53,7.49,0,9.6,.89,17.86,.89,19.78,0,1.15-.51,1.6-1.66,1.66-1.15,.06-2.37,.13-3.58,.13-1.6,0-3.13-.06-4.28-.13-1.09-.06-1.79-.38-1.92-2.05-.45-4.93-.77-11.2-.77-18.44,0-5.19,.13-10.88,.58-16.9,.13-2.05,1.34-2.56,3-2.75,1.15-.06,2.49-.13,3.77-.13,1.09,0,2.17,.06,2.94,.13,1.15,.06,1.6,.58,1.6,1.47s.32,1.22,.9,1.22c1.92,0,4.35-3.39,9.14-3.39,6.07,0,8.95,4.42,8.95,16.33Z"/><path class="o" d="M617.36,136.3c-11.51,0-15.34-8.84-15.34-19.59,0-15.81,8.06-22.28,17.65-22.28,6.46,0,11.51,3.46,11.51,10.63,0,10.95-9.14,12.23-14.77,14.73-1.98,.7-2.81,1.28-2.81,2.37,0,1.86,1.34,3.33,4.41,3.33,4.41,0,8.44-1.92,10.93-5.19,.38-.32,.64-.51,.96-.51,.9,0,1.6,1.67,1.6,4.67,0,7.43-6.58,11.84-14.13,11.84Zm.9-32.97c-3.52,0-5.95,3.84-5.95,8.26,0,.64,.19,1.15,.77,1.15,.38,0,.83-.13,1.21-.32,2.56-1.54,6.91-3.14,6.91-6.21,0-1.66-1.09-2.88-2.94-2.88Z"/><path class="o" d="M648.95,97.18c.77,5.76,1.02,12.49,1.02,17.93,0,17.03-3.26,21.32-10.17,21.32-3.52,0-5.63-.77-6.33-1.15-.45-.26-.7-.7-.7-1.6,0-2.18,.45-6.21,.83-7.56,.19-.64,.58-.96,1.02-1.09,.64-.06,1.02,.19,1.6-.06,1.02-.38,1.34-1.86,1.34-5.44,0-9.73-.64-19.85-.64-21.83,0-1.09,.26-1.73,1.28-2.05,.96-.32,2.94-.38,4.99-.38,1.53,0,3,.06,4.09,.19,1.15,.13,1.53,.7,1.66,1.73Zm-12.92-9.73c0-3.39,2.24-5.51,6.97-5.51,4.99,0,6.97,2.11,6.97,5.51s-1.98,5.25-6.97,5.25c-4.73,0-6.97-1.92-6.97-5.25Z"/><path class="o" d="M668.58,86.74c.89,.13,1.21,.64,1.21,1.34,0,1.67-2.56,7.81-3.52,29.64-.06,1.73-.77,2.24-3.9,2.56-.96,.13-1.79,.13-2.49,.13-1.6,0-2.37-.32-2.69-1.47-1.41-5.44-2.3-11.46-2.69-18.63-.19-3.84-.25-6.98-.25-11.01,.06-1.41,.38-2.43,2.43-2.62,1.54-.13,3.64-.19,5.82-.19s4.48,.06,6.07,.26Zm-14,42.96c0-4.16,2.75-6.59,7.03-6.59s7.03,2.43,7.03,6.59-2.56,6.27-7.03,6.27-7.03-2.18-7.03-6.27Z"/></g><path class="o" d="M420.64,78.23c0-4.28,1.83-7.18,5.48-7.18s5.16,2.77,5.16,7.18c0,4.91-2.38,6.98-5.46,6.98s-5.18-2.08-5.18-6.98Zm6.84-.3c0-2.49-.56-3.65-1.51-3.65-1.01,0-1.55,1.17-1.55,3.65s.43,3.55,1.53,3.55,1.53-1.12,1.53-3.55Z"/></g><g><g><path class="o" d="M375.69,182.78c-.13-.13-.23-.21-.34-.21s-.21,.08-.34,.21c-.93,1.04-1.92,2-3.01,2.76-.23,.16-.44,.23-.67,.23-.21,0-.44-.08-.73-.23-4.21-2.39-6.36-7.05-6.36-13.96,0-1.77,.13-3.69,.42-5.75,.05-.34,.34-.52,.62-.55,.75-.05,1.74-.08,2.75-.08,.78,0,1.58,.03,2.21,.08,.47,.03,.62,.23,.62,.6,0,.34-.34,3.54-.34,6.86,0,2.47,.34,3.64,.7,4.42,.1,.18,.21,.29,.34,.29,.1,0,.23-.1,.31-.29,.42-.62,.65-2.31,.65-4.39,0-3.09-.42-6.47-.42-6.99,0-.31,.13-.47,.52-.49,.65-.05,1.66-.08,2.67-.08,1.06,0,2.16,.03,2.88,.08,.47,.03,.62,.23,.62,.6,0,.34-.36,4.06-.36,6.86,0,2.47,.31,3.64,.67,4.42,.1,.18,.21,.29,.34,.29s.23-.1,.34-.29c.39-.62,.62-2.31,.62-4.39,0-3.04-.29-6.47-.29-6.99,0-.31,.13-.47,.52-.49,.55-.03,1.32-.05,2.1-.05,1.04,0,2.1,0,2.75,.05,.52,.03,.86,.26,.94,.86,.23,1.69,.34,3.3,.34,4.78,0,7.41-2.6,12.45-6.36,14.61-.26,.16-.47,.23-.7,.23-.21,0-.44-.08-.7-.23-1.25-.7-2.21-1.51-3.32-2.76Z"/><path class="o" d="M393.71,185.59c-4.99,0-6.57-3.85-6.57-8.01,0-6.81,3.48-9.41,7.51-9.41,2.88,0,5.01,1.51,5.01,4.58,0,4.37-3.09,5.25-5.4,5.85-1.01,.26-1.4,.44-1.4,.86,0,.39,.34,.62,1.19,.62,1.69,0,3.58-.68,4.67-1.53,.18-.16,.34-.23,.47-.23,.39,0,.68,.75,.68,2.08,0,3.3-2.91,5.2-6.16,5.2Zm.13-13.05c-.83,0-1.58,1.04-1.58,2.18,0,.23,.05,.42,.26,.42s.42-.08,.62-.18c.68-.36,1.56-.81,1.56-1.59,0-.44-.29-.83-.86-.83Z"/><path class="o" d="M405.06,177.69c0-5.88,1.84-9.49,4.49-9.49,1.22,0,2.16,.81,2.7,1.38,.08,.08,.16,.1,.23,.1,.16,0,.29-.1,.29-.34,0-1.12-.7-4.29-.7-4.76,0-.36,.31-.57,.73-.6,.57-.03,1.17-.05,1.79-.05,.93,0,1.92,.03,2.83,.1,.52,.05,.83,.18,.93,.96,.29,2.13,.54,6.76,.54,11.13,0,2.89-.1,5.64-.39,7.54-.05,.42-.34,.78-.86,.99-.91,.34-2.57,.7-5.74,.7-4.83,0-6.86-2.03-6.86-7.67Zm7.92-1.59c0-2.52-.26-3.28-.91-3.28-.54,0-.88,.75-.88,4.13s.31,4.13,.88,4.13,.91-.78,.91-4.99Z"/><path class="o" d="M419.78,176.85c0-5.2,2.34-8.68,7.01-8.68s6.54,3.35,6.54,8.68c0,6.11-3.14,8.74-6.96,8.74s-6.6-2.63-6.6-8.74Zm7.87-.47c0-2.5-.39-3.48-1.12-3.48s-1.12,.99-1.12,3.48,.31,3.56,1.12,3.56,1.12-1.04,1.12-3.56Z"/><path class="o" d="M447.7,174.83c0,4.16-.39,8.4-.54,9.54-.08,.55-.36,.81-.78,.83-.54,.05-1.32,.05-2.13,.05s-1.58,0-2.29-.05c-.47-.03-.62-.23-.62-.55,0-1.48,.31-6.16,.31-8.74,0-1.56-.31-2.13-.8-2.13-.21,0-.39,.05-.52,.18-.31,.31-.36,.94-.36,2.16,0,4.45,.36,7.49,.36,8.4,0,.47-.23,.65-.73,.68-.62,.03-1.3,.05-1.95,.05-.86,0-1.66-.03-2.26-.05-.49-.03-.8-.18-.86-.91-.16-2.05-.29-4.65-.29-7.64,0-2.08,.05-4.37,.23-6.79,.05-.91,.65-1.17,1.43-1.25,.6-.05,1.35-.08,2.03-.08,.57,0,1.12,.03,1.48,.05,.54,.05,.73,.26,.73,.65s.16,.52,.44,.52c.91,0,1.66-1.46,3.66-1.46,2.42,0,3.45,1.79,3.45,6.53Z"/><path class="o" d="M447.38,163.93c.29-.36,1.64-1.38,2.44-1.79,.21-.1,.47-.21,.75-.21,.91,0,2.08,1.14,2.08,3.04,0,3.12-3.14,4.5-4.42,4.5-.23,0-.44-.21-.44-.52s.08-.62,.08-.96c0-2.29-.75-2.96-.75-3.43,0-.18,.08-.39,.26-.62Z"/><path class="o" d="M459.2,165.31c-.1,.31-.78,1.95-.78,2.99,0,.26,.13,.39,.52,.39,.16,0,.49-.13,.73-.13s.36,.18,.44,.49c.1,.55,.18,1.4,.18,2.34,0,.88-.08,1.85-.26,2.68-.05,.23-.21,.31-.39,.31-.23,0-.52-.1-.83-.1-.44,0-.55,.31-.57,.75-.03,.31-.03,.65-.03,.99,0,2.63,.73,5.36,1.32,7.51,.05,.21,.16,.42,.16,.57,0,.21-.13,.34-.31,.47-1.17,.81-4.08,1.38-5.58,1.38-.36,0-.57-.08-.68-.36-.47-1.17-.83-4.58-.86-7.57,0-1.17,.05-2.31,.05-2.99,0-.42-.1-.6-.36-.6-.13,0-.23,.03-.34,.03-.21,0-.36-.18-.42-.49-.03-.21-.05-.49-.05-.81,0-1.38,.16-3.04,.31-3.95,.08-.49,.29-.62,.55-.62,.13,0,.21,.03,.34,.03,.7,0,.7-.62,.91-2.13,.03-.23,.21-.52,.52-.68,1.51-.78,4.47-1.04,5.12-1.04,.31,0,.42,.26,.31,.55Z"/><path class="o" d="M472.03,164.06c.29,.05,.42,.29,.42,.55,0,.55-.99,2.42-.99,4.13,0,.42,.16,.6,.44,.6,.47,0,1.58-1.17,3.56-1.17,2.47,0,4.05,1.69,4.05,7.25,0,3.74-.36,7.38-.67,9.13-.08,.47-.34,.65-.68,.68-.39,0-1.12,.03-1.95,.03-.96,0-2.03-.03-2.8-.08-.29-.03-.62-.1-.62-.65,0-.62,.62-4.55,.62-7.64,0-2.52-.23-2.94-.81-2.94-.73,0-1.04,.78-1.04,3.3,0,4.63,.21,6.63,.21,7.31,0,.55-.42,.62-.73,.65-.6,.05-1.43,.08-2.31,.08s-1.74-.03-2.47-.08c-.21-.03-.49-.08-.6-.49-.13-.55-.26-2.65-.26-5.54,0-3.98,.23-9.46,.93-14.3,.08-.49,.39-.78,.65-.81,.81-.08,1.77-.1,2.7-.1,.86,0,1.69,0,2.34,.1Z"/><path class="o" d="M480.1,180c0-3.98,3.04-5.41,5.95-5.85,.86-.13,1.38-.23,1.38-.68,0-.26-.21-.55-1.06-.55-1.35,0-2.8,.55-4.18,1.72-.16,.16-.34,.23-.47,.23s-.26-.05-.36-.16c-.62-.57-1.22-1.61-1.22-3.02,0-2.08,2.42-3.54,6.6-3.54,4.7,0,6.36,2.24,6.36,6.21,0,.99-.1,3.72-.1,5.93,0,1.61,.18,3.35,.18,3.87,0,.47-.23,.75-.67,.83-.93,.18-3.95,.21-6.05,.21-4.05,0-6.34-1.48-6.34-5.23Zm7.38-1.38c0-.86-.08-1.07-.49-1.07-.7,0-1.43,.65-1.43,1.53,0,.81,.57,1.27,1.2,1.27,.54,0,.73-.34,.73-1.14v-.6Z"/><path class="o" d="M500.93,185.3c-.23,.1-.44,.21-.67,.21-.21,0-.44-.08-.7-.21-3.82-1.98-5.74-5.72-5.74-14.17,0-.49,0-1.01,.03-1.53,.03-.65,.18-.91,.94-.99,.6-.08,1.53-.1,2.44-.1s1.79,.03,2.31,.1c.23,.03,.42,.21,.42,.57,0,1.01-.23,3.43-.23,5.69,0,1.4,.1,2.7,.42,3.43,.08,.18,.18,.23,.31,.23s.26-.08,.34-.23c.36-.78,.47-2.29,.47-3.87,0-2.31-.21-4.65-.21-5.28,0-.42,.18-.55,.47-.57,.52-.08,1.35-.1,2.18-.1s1.69,.03,2.29,.1c.73,.08,.83,.31,.88,1.07,.03,.49,.03,.96,.03,1.43,0,8.76-2.13,12.35-5.95,14.22Z"/><path class="o" d="M513.83,185.59c-4.99,0-6.57-3.85-6.57-8.01,0-6.81,3.48-9.41,7.51-9.41,2.88,0,5.01,1.51,5.01,4.58,0,4.37-3.09,5.25-5.4,5.85-1.01,.26-1.4,.44-1.4,.86,0,.39,.34,.62,1.19,.62,1.69,0,3.58-.68,4.67-1.53,.18-.16,.34-.23,.47-.23,.39,0,.68,.75,.68,2.08,0,3.3-2.91,5.2-6.16,5.2Zm.13-13.05c-.83,0-1.58,1.04-1.58,2.18,0,.23,.05,.42,.26,.42s.42-.08,.62-.18c.68-.36,1.56-.81,1.56-1.59,0-.44-.29-.83-.86-.83Z"/><path class="o" d="M531.49,185.59c-4.99,0-6.57-3.85-6.57-8.01,0-6.81,3.48-9.41,7.51-9.41,2.88,0,5.01,1.51,5.01,4.58,0,4.37-3.09,5.25-5.4,5.85-1.01,.26-1.4,.44-1.4,.86,0,.39,.34,.62,1.19,.62,1.69,0,3.58-.68,4.67-1.53,.18-.16,.34-.23,.47-.23,.39,0,.68,.75,.68,2.08,0,3.3-2.91,5.2-6.16,5.2Zm.13-13.05c-.83,0-1.58,1.04-1.58,2.18,0,.23,.05,.42,.26,.42s.42-.08,.62-.18c.68-.36,1.56-.81,1.56-1.59,0-.44-.29-.83-.86-.83Z"/><path class="o" d="M551.95,174.83c0,4.16-.39,8.4-.54,9.54-.08,.55-.36,.81-.78,.83-.54,.05-1.32,.05-2.13,.05s-1.58,0-2.29-.05c-.47-.03-.62-.23-.62-.55,0-1.48,.31-6.16,.31-8.74,0-1.56-.31-2.13-.8-2.13-.21,0-.39,.05-.52,.18-.31,.31-.36,.94-.36,2.16,0,4.45,.36,7.49,.36,8.4,0,.47-.23,.65-.73,.68-.62,.03-1.3,.05-1.95,.05-.86,0-1.66-.03-2.26-.05-.49-.03-.8-.18-.86-.91-.16-2.05-.29-4.65-.29-7.64,0-2.08,.05-4.37,.23-6.79,.05-.91,.65-1.17,1.43-1.25,.6-.05,1.35-.08,2.03-.08,.57,0,1.12,.03,1.48,.05,.54,.05,.73,.26,.73,.65s.16,.52,.44,.52c.91,0,1.66-1.46,3.66-1.46,2.42,0,3.45,1.79,3.45,6.53Z"/><path class="o" d="M552.73,176.85c0-5.2,2.34-8.68,7.01-8.68s6.54,3.35,6.54,8.68c0,6.11-3.14,8.74-6.96,8.74s-6.6-2.63-6.6-8.74Zm7.87-.47c0-2.5-.39-3.48-1.12-3.48s-1.12,.99-1.12,3.48,.31,3.56,1.12,3.56,1.12-1.04,1.12-3.56Z"/><path class="o" d="M567.19,176.59c0-1.82,.39-6.06,.54-7.2,.08-.55,.36-.78,.78-.83,.68-.05,1.51-.08,2.29-.08s1.51,.03,2.1,.08c.49,.05,.62,.26,.62,.62,0,.94-.29,5.41-.29,8.66,0,1.56,.31,2.13,.81,2.13,.18,0,.34-.05,.47-.18,.31-.31,.42-.94,.42-2.16,0-5.04-.29-7.77-.31-8.27-.05-.55,.18-.75,.73-.81,.49-.05,1.12-.08,1.79-.08,.86,0,1.74,.03,2.36,.08,.49,.03,.78,.18,.86,.91,.26,2.11,.36,4.21,.36,6.6s-.1,4.89-.31,7.83c-.05,.91-.65,1.17-1.43,1.25-.52,.05-1.19,.08-1.77,.08-.42,0-.8-.03-1.06-.05-.55-.05-.73-.23-.73-.65,0-.39-.16-.52-.44-.52-.86,0-1.95,1.46-3.84,1.46-2.88,0-3.95-1.79-3.95-8.87Z"/><path class="o" d="M588.23,168.17c1.06,0,1.32,.03,1.87,.03,.86,0,1.27-1.2,1.97-2.08,.16-.21,.39-.31,.62-.31,.73,0,2.8,1.98,2.8,2.68,0,.16-.08,.34-.26,.44-.57,.31-1.17,.6-1.17,1.27,0,.75,1.14,1.12,1.14,3.82,0,3.04-2.03,5.1-6.47,5.1-1.92,0-2.42,.36-2.42,.88,0,.31,.21,.49,.75,.49,1.04,0,3.17-1.04,5.3-1.04,1.09,0,2,.23,2.62,.65,.36,.23,.44,.6,.44,.96,0,1.4-.73,4.39-1.66,4.39-.21,0-.42-.05-.62-.1-.49-.16-1.14-.31-2.26-.31-1.61,0-2.88,.55-5.09,.55-2.7,0-4.23-1.22-4.23-3.43,0-1.72,.91-2.91,1.74-3.59,.21-.18,.31-.31,.31-.44s-.1-.26-.23-.42c-.65-.68-1.51-2.03-1.51-4.03,0-3.46,2.6-5.51,6.34-5.51Zm.44,6.29c.62,0,1.14-.44,1.14-1.2s-.52-1.2-1.14-1.2-1.14,.44-1.14,1.2c0,.7,.44,1.2,1.14,1.2Z"/><path class="o" d="M602.92,164.06c.29,.05,.42,.29,.42,.55,0,.55-.99,2.42-.99,4.13,0,.42,.16,.6,.44,.6,.47,0,1.58-1.17,3.56-1.17,2.47,0,4.05,1.69,4.05,7.25,0,3.74-.36,7.38-.67,9.13-.08,.47-.34,.65-.68,.68-.39,0-1.12,.03-1.95,.03-.96,0-2.03-.03-2.8-.08-.29-.03-.62-.1-.62-.65,0-.62,.62-4.55,.62-7.64,0-2.52-.23-2.94-.81-2.94-.73,0-1.04,.78-1.04,3.3,0,4.63,.21,6.63,.21,7.31,0,.55-.42,.62-.73,.65-.6,.05-1.43,.08-2.31,.08s-1.74-.03-2.47-.08c-.21-.03-.49-.08-.6-.49-.13-.55-.26-2.65-.26-5.54,0-3.98,.23-9.46,.93-14.3,.08-.49,.39-.78,.65-.81,.81-.08,1.77-.1,2.7-.1,.86,0,1.69,0,2.34,.1Z"/><path class="o" d="M618.94,165.31c-.1,.31-.78,1.95-.78,2.99,0,.26,.13,.39,.52,.39,.16,0,.49-.13,.73-.13s.36,.18,.44,.49c.1,.55,.18,1.4,.18,2.34,0,.88-.08,1.85-.26,2.68-.05,.23-.21,.31-.39,.31-.23,0-.52-.1-.83-.1-.44,0-.55,.31-.57,.75-.03,.31-.03,.65-.03,.99,0,2.63,.73,5.36,1.32,7.51,.05,.21,.16,.42,.16,.57,0,.21-.13,.34-.31,.47-1.17,.81-4.08,1.38-5.58,1.38-.36,0-.57-.08-.67-.36-.47-1.17-.83-4.58-.86-7.57,0-1.17,.05-2.31,.05-2.99,0-.42-.1-.6-.36-.6-.13,0-.23,.03-.34,.03-.21,0-.36-.18-.42-.49-.03-.21-.05-.49-.05-.81,0-1.38,.16-3.04,.31-3.95,.08-.49,.29-.62,.54-.62,.13,0,.21,.03,.34,.03,.7,0,.7-.62,.91-2.13,.03-.23,.21-.52,.52-.68,1.51-.78,4.47-1.04,5.12-1.04,.31,0,.42,.26,.31,.55Z"/><path class="o" d="M631.9,185.2c-.8,.05-1.77,.08-2.75,.08s-1.92-.03-2.75-.08c-.26-.03-.67-.16-.73-.75-.21-2.13-.29-4.63-.29-7.23,0-4.24,.26-8.81,.81-12.61,.08-.55,.42-.65,.75-.68,.78-.05,1.56-.08,2.34-.08s1.58,.03,2.34,.08c.42,.03,.67,.18,.67,.55,0,.44-.49,5.49-.49,9.54,0,4.71,.62,9.88,.62,10.63,0,.34-.23,.52-.52,.55Z"/><path class="o" d="M639.53,185.59c-4.99,0-6.57-3.85-6.57-8.01,0-6.81,3.48-9.41,7.51-9.41,2.88,0,5.01,1.51,5.01,4.58,0,4.37-3.09,5.25-5.4,5.85-1.01,.26-1.4,.44-1.4,.86,0,.39,.34,.62,1.19,.62,1.69,0,3.58-.68,4.67-1.53,.18-.16,.34-.23,.47-.23,.39,0,.68,.75,.68,2.08,0,3.3-2.91,5.2-6.16,5.2Zm.13-13.05c-.83,0-1.58,1.04-1.58,2.18,0,.23,.05,.42,.26,.42s.42-.08,.62-.18c.68-.36,1.56-.81,1.56-1.59,0-.44-.29-.83-.86-.83Z"/><path class="o" d="M651.63,185.2c-.44,.05-1.01,.05-1.64,.05-.7,0-1.45,0-2.26-.05-.49-.03-.8-.18-.86-.91-.18-2.21-.34-4.73-.34-7.72,0-2.03,.08-4.26,.29-6.79,.08-.91,.65-1.17,1.43-1.25,.49-.05,1.19-.08,1.9-.08,.81,0,1.58,.03,1.92,.08,.39,.05,.52,.21,.52,.47,0,.23-.16,.57-.16,.86,0,.16,.1,.26,.29,.26,.7,0,1.61-1.82,3.32-1.82s2.26,1.2,2.91,1.2c.73,0,1.77-1.2,3.71-1.2,3.06,0,4.39,2.99,4.39,8.76,0,4.06-.26,6.58-.52,7.44-.16,.52-.62,.68-1.01,.7-.49,.03-1.19,.05-1.92,.05s-1.56-.03-2.34-.05c-.65-.03-.83-.34-.83-.78,0-.75,.47-3.2,.47-7.41,0-2.26-.16-3.22-.75-3.22-.52,0-.78,.52-.78,2.03,0,1.59,.03,2.42,.03,3.8,0,2.26-.16,4-.26,4.76-.08,.55-.36,.81-.78,.83-.57,.05-1.38,.08-2.21,.08-.68,0-1.4-.03-2.05-.08-.49-.03-.62-.26-.62-.62,0-.39,.16-5.25,.16-8.71,0-1.56-.26-2.08-.83-2.08-.47,0-.75,.6-.75,2.34,0,5.02,.34,7.77,.34,8.4,0,.47-.26,.62-.75,.68Z"/><path class="o" d="M667.84,176.85c0-5.2,2.34-8.68,7.01-8.68s6.54,3.35,6.54,8.68c0,6.11-3.14,8.74-6.96,8.74s-6.6-2.63-6.6-8.74Zm7.87-.47c0-2.5-.39-3.48-1.12-3.48s-1.12,.99-1.12,3.48,.31,3.56,1.12,3.56,1.12-1.04,1.12-3.56Z"/><path class="o" d="M695.75,174.83c0,4.16-.39,8.4-.54,9.54-.08,.55-.36,.81-.78,.83-.54,.05-1.32,.05-2.13,.05s-1.58,0-2.29-.05c-.47-.03-.62-.23-.62-.55,0-1.48,.31-6.16,.31-8.74,0-1.56-.31-2.13-.8-2.13-.21,0-.39,.05-.52,.18-.31,.31-.36,.94-.36,2.16,0,4.45,.36,7.49,.36,8.4,0,.47-.23,.65-.73,.68-.62,.03-1.3,.05-1.95,.05-.86,0-1.66-.03-2.26-.05-.49-.03-.8-.18-.86-.91-.16-2.05-.29-4.65-.29-7.64,0-2.08,.05-4.37,.23-6.79,.05-.91,.65-1.17,1.43-1.25,.6-.05,1.35-.08,2.03-.08,.57,0,1.12,.03,1.48,.05,.54,.05,.73,.26,.73,.65s.16,.52,.44,.52c.91,0,1.66-1.46,3.66-1.46,2.42,0,3.45,1.79,3.45,6.53Z"/><path class="o" d="M702.09,180.78c.49,0,.67-.16,.67-.49,0-.42-.42-.7-1.43-1.17-2.39-1.12-4.7-2.21-4.7-5.56s2.6-5.38,6.57-5.38c1.82,0,3.71,.42,4.65,.94,.42,.23,.49,.49,.49,.91,0,1.25-.42,3.15-.86,4.24-.1,.26-.26,.36-.44,.36-.13,0-.26-.05-.36-.13-1.09-.83-2.96-1.87-4.18-1.87-.54,0-.75,.21-.75,.49,0,.39,.36,.6,1.48,1.07,2.16,.91,5.27,2.18,5.27,5.69,0,3.87-2.44,5.72-6,5.72s-6.05-1.61-6.05-4.65c0-1.25,.31-2.11,.52-2.47,.1-.18,.23-.29,.39-.29,.13,0,.26,.05,.36,.18,.94,1.04,2.83,2.42,4.36,2.42Z"/><path class="o" d="M373.33,195.21c-.05,.91-.23,2.52-.44,3.22-.08,.23-.18,.31-.34,.31-.21,0-.6-.16-.96-.16-.47,0-.73,.23-.73,.65,0,.36,.26,.6,.86,.6,.34,0,.75-.08,.99-.08,.26,0,.36,.18,.44,.49,.08,.52,.18,1.35,.18,2.26s-.08,1.92-.26,2.81c-.05,.23-.21,.31-.39,.31-.23,0-.55-.16-.86-.16-.26,0-.36,.18-.42,.75-.03,.23-.03,.55-.03,.96,0,2.26,.23,5.04,.68,8.48,.05,.31,.03,.6-.23,.65-.73,.16-1.95,.21-3.17,.21-.88,0-1.77,0-2.44-.05-.36-.03-.65-.08-.67-.36-.18-1.64-.23-3.28-.23-4.76,0-2.47,.16-4.45,.16-5.12,0-.39-.1-.68-.47-.68h-.31c-.26,0-.47-.18-.49-.52-.03-.29-.05-.7-.05-1.14,0-1.43,.13-3.04,.36-3.72,.08-.23,.23-.34,.49-.34,.13,0,.31,.03,.39,.03,.55,0,.49-.65,.75-2.18,.31-1.85,1.53-3.43,4.67-3.43,1.51,0,2.03,.21,2.23,.31,.18,.1,.31,.29,.29,.65Z"/><path class="o" d="M373.4,208.05c0-5.2,2.34-8.68,7.01-8.68s6.54,3.35,6.54,8.68c0,6.11-3.14,8.74-6.96,8.74s-6.6-2.63-6.6-8.74Zm7.87-.47c0-2.5-.39-3.48-1.12-3.48s-1.12,.99-1.12,3.48,.31,3.56,1.12,3.56,1.12-1.04,1.12-3.56Z"/><path class="o" d="M394.15,216.37c-.62,.05-1.4,.05-2.26,.05s-1.79,0-2.75-.05c-.39-.03-.65-.26-.75-.7-.31-1.33-.55-4.08-.55-7.62,0-4.52,.21-6.66,.44-7.57,.1-.39,.29-.55,.49-.62,.36-.1,1.48-.21,2.52-.21,.6,0,1.17,.03,1.53,.1,.29,.05,.39,.23,.42,.6,.03,.29,.16,.39,.29,.39s.29-.1,.47-.26c.36-.31,.8-.83,1.35-.83s.88,.81,.88,3.51c0,1.17-.08,2.34-.29,2.91-.16,.47-.36,.57-.6,.57s-.49-.29-.88-.29-.68,.39-.68,1.72c0,2.63,1.17,7.15,1.17,7.67,0,.34-.21,.57-.8,.62Z"/><path class="o" d="M401.27,208.05c0-5.2,2.34-8.68,7.01-8.68s6.54,3.35,6.54,8.68c0,6.11-3.14,8.74-6.96,8.74s-6.6-2.63-6.6-8.74Zm7.87-.47c0-2.5-.39-3.48-1.12-3.48s-1.12,.99-1.12,3.48,.31,3.56,1.12,3.56,1.12-1.04,1.12-3.56Z"/><path class="o" d="M415.73,207.79c0-1.82,.39-6.06,.54-7.2,.08-.55,.36-.78,.78-.83,.68-.05,1.51-.08,2.29-.08s1.51,.03,2.1,.08c.49,.05,.62,.26,.62,.62,0,.94-.29,5.41-.29,8.66,0,1.56,.31,2.13,.81,2.13,.18,0,.34-.05,.47-.18,.31-.31,.42-.94,.42-2.16,0-5.04-.29-7.77-.31-8.27-.05-.55,.18-.75,.73-.81,.49-.05,1.12-.08,1.79-.08,.86,0,1.74,.03,2.36,.08,.49,.03,.78,.18,.86,.91,.26,2.11,.36,4.21,.36,6.6s-.1,4.89-.31,7.83c-.05,.91-.65,1.17-1.43,1.25-.52,.05-1.19,.08-1.77,.08-.42,0-.8-.03-1.06-.05-.55-.05-.73-.23-.73-.65,0-.39-.16-.52-.44-.52-.86,0-1.95,1.46-3.84,1.46-2.88,0-3.95-1.79-3.95-8.87Z"/><path class="o" d="M436.89,216.37c-.62,.05-1.4,.05-2.26,.05s-1.79,0-2.75-.05c-.39-.03-.65-.26-.75-.7-.31-1.33-.55-4.08-.55-7.62,0-4.52,.21-6.66,.44-7.57,.1-.39,.29-.55,.49-.62,.36-.1,1.48-.21,2.52-.21,.6,0,1.17,.03,1.53,.1,.29,.05,.39,.23,.42,.6,.03,.29,.16,.39,.29,.39s.29-.1,.47-.26c.36-.31,.8-.83,1.35-.83s.88,.81,.88,3.51c0,1.17-.08,2.34-.29,2.91-.16,.47-.36,.57-.6,.57s-.49-.29-.88-.29-.68,.39-.68,1.72c0,2.63,1.17,7.15,1.17,7.67,0,.34-.21,.57-.8,.62Z"/><path class="o" d="M451.02,216.4c-.8,.05-1.77,.08-2.75,.08s-1.92-.03-2.75-.08c-.26-.03-.67-.16-.73-.75-.21-2.13-.29-4.63-.29-7.23,0-4.24,.26-8.81,.81-12.61,.08-.55,.42-.65,.75-.68,.78-.05,1.56-.08,2.34-.08s1.58,.03,2.34,.08c.42,.03,.67,.18,.67,.55,0,.44-.49,5.49-.49,9.54,0,4.71,.62,9.88,.62,10.63,0,.34-.23,.52-.52,.55Z"/><path class="o" d="M458.65,216.79c-4.99,0-6.57-3.85-6.57-8.01,0-6.81,3.48-9.41,7.51-9.41,2.88,0,5.01,1.51,5.01,4.58,0,4.37-3.09,5.25-5.4,5.85-1.01,.26-1.4,.44-1.4,.86,0,.39,.34,.62,1.19,.62,1.69,0,3.58-.68,4.67-1.53,.18-.16,.34-.23,.47-.23,.39,0,.68,.75,.68,2.08,0,3.3-2.91,5.2-6.16,5.2Zm.13-13.05c-.83,0-1.58,1.04-1.58,2.18,0,.23,.05,.42,.26,.42s.42-.08,.62-.18c.68-.36,1.56-.81,1.56-1.59,0-.44-.29-.83-.86-.83Z"/><path class="o" d="M470.75,216.4c-.44,.05-1.01,.05-1.64,.05-.7,0-1.45,0-2.26-.05-.49-.03-.8-.18-.86-.91-.18-2.21-.34-4.73-.34-7.72,0-2.03,.08-4.26,.29-6.79,.08-.91,.65-1.17,1.43-1.25,.49-.05,1.19-.08,1.9-.08,.81,0,1.58,.03,1.92,.08,.39,.05,.52,.21,.52,.47,0,.23-.16,.57-.16,.86,0,.16,.1,.26,.29,.26,.7,0,1.61-1.82,3.32-1.82s2.26,1.2,2.91,1.2c.73,0,1.77-1.2,3.71-1.2,3.06,0,4.39,2.99,4.39,8.76,0,4.06-.26,6.58-.52,7.44-.16,.52-.62,.68-1.01,.7-.49,.03-1.19,.05-1.92,.05s-1.56-.03-2.34-.05c-.65-.03-.83-.34-.83-.78,0-.75,.47-3.2,.47-7.41,0-2.26-.16-3.22-.75-3.22-.52,0-.78,.52-.78,2.03,0,1.59,.03,2.42,.03,3.8,0,2.26-.16,4-.26,4.76-.08,.55-.36,.81-.78,.83-.57,.05-1.38,.08-2.21,.08-.68,0-1.4-.03-2.05-.08-.49-.03-.62-.26-.62-.62,0-.39,.16-5.25,.16-8.71,0-1.56-.26-2.08-.83-2.08-.47,0-.75,.6-.75,2.34,0,5.02,.34,7.77,.34,8.4,0,.47-.26,.62-.75,.68Z"/><path class="o" d="M486.96,208.05c0-5.2,2.34-8.68,7.01-8.68s6.54,3.35,6.54,8.68c0,6.11-3.14,8.74-6.96,8.74s-6.6-2.63-6.6-8.74Zm7.87-.47c0-2.5-.39-3.48-1.12-3.48s-1.12,.99-1.12,3.48,.31,3.56,1.12,3.56,1.12-1.04,1.12-3.56Z"/><path class="o" d="M514.87,206.03c0,4.16-.39,8.4-.54,9.54-.08,.55-.36,.81-.78,.83-.54,.05-1.32,.05-2.13,.05s-1.58,0-2.29-.05c-.47-.03-.62-.23-.62-.55,0-1.48,.31-6.16,.31-8.74,0-1.56-.31-2.13-.8-2.13-.21,0-.39,.05-.52,.18-.31,.31-.36,.94-.36,2.16,0,4.45,.36,7.49,.36,8.4,0,.47-.23,.65-.73,.68-.62,.03-1.3,.05-1.95,.05-.86,0-1.66-.03-2.26-.05-.49-.03-.8-.18-.86-.91-.16-2.05-.29-4.65-.29-7.64,0-2.08,.05-4.37,.23-6.79,.05-.91,.65-1.17,1.43-1.25,.6-.05,1.35-.08,2.03-.08,.57,0,1.12,.03,1.48,.05,.54,.05,.73,.26,.73,.65s.16,.52,.44,.52c.91,0,1.66-1.46,3.66-1.46,2.42,0,3.45,1.79,3.45,6.53Z"/><path class="o" d="M515.6,211.2c0-3.98,3.04-5.41,5.95-5.85,.86-.13,1.38-.23,1.38-.68,0-.26-.21-.55-1.06-.55-1.35,0-2.8,.55-4.18,1.72-.16,.16-.34,.23-.47,.23s-.26-.05-.36-.16c-.62-.57-1.22-1.61-1.22-3.02,0-2.08,2.42-3.54,6.6-3.54,4.7,0,6.36,2.24,6.36,6.21,0,.99-.1,3.72-.1,5.93,0,1.61,.18,3.35,.18,3.87,0,.47-.23,.75-.67,.83-.93,.18-3.95,.21-6.05,.21-4.05,0-6.34-1.48-6.34-5.23Zm7.38-1.38c0-.86-.08-1.07-.49-1.07-.7,0-1.43,.65-1.43,1.53,0,.81,.57,1.27,1.2,1.27,.54,0,.73-.34,.73-1.14v-.6Z"/><path class="o" d="M529.67,208.89c0-5.88,1.84-9.49,4.49-9.49,1.22,0,2.16,.81,2.7,1.38,.08,.08,.16,.1,.23,.1,.16,0,.29-.1,.29-.34,0-1.12-.7-4.29-.7-4.76,0-.36,.31-.57,.73-.6,.57-.03,1.17-.05,1.79-.05,.93,0,1.92,.03,2.83,.1,.52,.05,.83,.18,.94,.96,.29,2.13,.54,6.76,.54,11.13,0,2.89-.1,5.64-.39,7.54-.05,.42-.34,.78-.86,.99-.91,.34-2.57,.7-5.74,.7-4.83,0-6.86-2.03-6.86-7.67Zm7.92-1.59c0-2.52-.26-3.28-.91-3.28-.54,0-.88,.75-.88,4.13s.31,4.13,.88,4.13,.91-.78,.91-4.99Z"/><path class="o" d="M550.96,216.79c-4.99,0-6.57-3.85-6.57-8.01,0-6.81,3.48-9.41,7.51-9.41,2.88,0,5.01,1.51,5.01,4.58,0,4.37-3.09,5.25-5.4,5.85-1.01,.26-1.4,.44-1.4,.86,0,.39,.34,.62,1.19,.62,1.69,0,3.58-.68,4.67-1.53,.18-.16,.34-.23,.47-.23,.39,0,.68,.75,.68,2.08,0,3.3-2.91,5.2-6.16,5.2Zm.13-13.05c-.83,0-1.58,1.04-1.58,2.18,0,.23,.05,.42,.26,.42s.42-.08,.62-.18c.68-.36,1.56-.81,1.56-1.59,0-.44-.29-.83-.86-.83Z"/></g><g><path class="o" d="M367.8,267.65c-.36-.03-.65-.1-.75-.62-.42-1.95-.67-4.76-.67-7.9,0-3.38,.26-7.23,1.06-10.76,.08-.31,.31-.52,.7-.55,.88-.08,2.26-.1,3.58-.1,4.34,0,6.05,.39,7.56,1.9,1.12,1.12,1.45,2.76,1.45,4.76,0,4.94-2.93,6.94-5.19,8.19-1.48,.81-2.08,1.35-2.08,2.29,0,.88,.49,2.03,.49,2.37,0,.29-.18,.42-.49,.44-.75,.05-1.87,.08-3.01,.08-.91,0-1.84-.03-2.65-.08Zm5.79-9.59c.62-.62,1.14-2.31,1.14-4.03,0-1.27-.36-1.87-.86-1.87-.18,0-.36,.08-.52,.23-.47,.47-.78,1.72-.78,4.24,0,1.17,.18,1.64,.6,1.64,.16,0,.29-.08,.42-.21Z"/><path class="o" d="M388.15,267.67c-.8,.05-1.77,.08-2.75,.08s-1.92-.03-2.75-.08c-.26-.03-.67-.16-.73-.75-.21-2.13-.29-4.63-.29-7.23,0-4.24,.26-8.81,.81-12.61,.08-.55,.42-.65,.75-.68,.78-.05,1.56-.08,2.34-.08s1.58,.03,2.34,.08c.42,.03,.67,.18,.67,.55,0,.44-.49,5.49-.49,9.54,0,4.71,.62,9.88,.62,10.63,0,.34-.23,.52-.52,.55Z"/><path class="o" d="M389.17,262.47c0-3.98,3.04-5.41,5.95-5.85,.86-.13,1.38-.23,1.38-.68,0-.26-.21-.55-1.06-.55-1.35,0-2.8,.55-4.18,1.72-.16,.16-.34,.23-.47,.23s-.26-.05-.36-.16c-.62-.57-1.22-1.61-1.22-3.02,0-2.08,2.42-3.54,6.6-3.54,4.7,0,6.36,2.24,6.36,6.21,0,.99-.1,3.72-.1,5.93,0,1.61,.18,3.35,.18,3.88,0,.47-.23,.75-.67,.83-.93,.18-3.95,.21-6.05,.21-4.05,0-6.34-1.48-6.34-5.23Zm7.38-1.38c0-.86-.08-1.07-.49-1.07-.7,0-1.43,.65-1.43,1.53,0,.81,.57,1.27,1.2,1.27,.54,0,.73-.34,.73-1.14v-.6Z"/><path class="o" d="M403.84,261.72c.42,0,1.25,.34,2,.55,.78,.23,1.48,.34,1.48-.18,0-.18-.16-.34-.39-.47-2.62-1.51-3.79-3.54-3.79-9.72,0-.62,.29-.81,.99-.86,.62-.05,1.32-.08,2.1-.08,.83,0,1.74,.03,2.6,.08,.31,.03,.6,.1,.6,.44s-.13,1.33-.13,2.37c0,2,.29,4.84,.94,4.84,.1,0,.23-.08,.29-.26,.26-.75,.39-2.24,.39-3.69s-.23-2.86-.23-3.17c0-.34,.31-.49,.57-.52,.54-.05,1.38-.08,2.16-.08s1.56,.03,1.97,.08c.86,.13,1.14,.81,1.14,1.69,0,9.02-1.53,15.42-12.39,15.42-.86,0-1.04-.34-1.09-.99-.03-.44-.05-.96-.05-1.56,0-1.01,.05-2.16,.16-3.15,.03-.44,.31-.73,.7-.73Z"/><path class="o" d="M421.31,262.47c0-3.98,3.04-5.41,5.95-5.85,.86-.13,1.38-.23,1.38-.68,0-.26-.21-.55-1.06-.55-1.35,0-2.8,.55-4.18,1.72-.16,.16-.34,.23-.47,.23s-.26-.05-.36-.16c-.62-.57-1.22-1.61-1.22-3.02,0-2.08,2.42-3.54,6.6-3.54,4.7,0,6.36,2.24,6.36,6.21,0,.99-.1,3.72-.1,5.93,0,1.61,.18,3.35,.18,3.88,0,.47-.23,.75-.67,.83-.93,.18-3.95,.21-6.05,.21-4.05,0-6.34-1.48-6.34-5.23Zm7.38-1.38c0-.86-.08-1.07-.49-1.07-.7,0-1.43,.65-1.43,1.53,0,.81,.57,1.27,1.2,1.27,.54,0,.73-.34,.73-1.14v-.6Z"/><path class="o" d="M441.67,250.64c1.06,0,1.32,.03,1.87,.03,.86,0,1.27-1.2,1.97-2.08,.16-.21,.39-.31,.62-.31,.73,0,2.8,1.98,2.8,2.68,0,.16-.08,.34-.26,.44-.57,.31-1.17,.6-1.17,1.27,0,.75,1.14,1.12,1.14,3.82,0,3.04-2.03,5.1-6.47,5.1-1.92,0-2.42,.36-2.42,.88,0,.31,.21,.49,.75,.49,1.04,0,3.17-1.04,5.3-1.04,1.09,0,2,.23,2.62,.65,.36,.23,.44,.6,.44,.96,0,1.4-.73,4.39-1.66,4.39-.21,0-.42-.05-.62-.1-.49-.16-1.14-.31-2.26-.31-1.61,0-2.88,.55-5.09,.55-2.7,0-4.23-1.22-4.23-3.43,0-1.72,.91-2.91,1.74-3.59,.21-.18,.31-.31,.31-.44s-.1-.26-.23-.42c-.65-.68-1.51-2.03-1.51-4.03,0-3.46,2.6-5.51,6.34-5.51Zm.44,6.29c.62,0,1.14-.44,1.14-1.2s-.52-1.2-1.14-1.2-1.14,.44-1.14,1.2c0,.7,.44,1.2,1.14,1.2Z"/><path class="o" d="M449.43,262.47c0-3.98,3.04-5.41,5.95-5.85,.86-.13,1.38-.23,1.38-.68,0-.26-.21-.55-1.06-.55-1.35,0-2.8,.55-4.18,1.72-.16,.16-.34,.23-.47,.23s-.26-.05-.36-.16c-.62-.57-1.22-1.61-1.22-3.02,0-2.08,2.42-3.54,6.6-3.54,4.7,0,6.36,2.24,6.36,6.21,0,.99-.1,3.72-.1,5.93,0,1.61,.18,3.35,.18,3.88,0,.47-.23,.75-.67,.83-.93,.18-3.95,.21-6.05,.21-4.05,0-6.34-1.48-6.34-5.23Zm7.38-1.38c0-.86-.08-1.07-.49-1.07-.7,0-1.43,.65-1.43,1.53,0,.81,.57,1.27,1.2,1.27,.54,0,.73-.34,.73-1.14v-.6Z"/><path class="o" d="M470.21,267.67c-.8,.05-1.77,.08-2.75,.08s-1.95-.03-2.78-.08c-.26-.03-.65-.16-.73-.75-.21-1.72-.31-3.74-.31-5.85,0-3.22,.23-6.63,.73-9.33,.1-.55,.42-.65,.75-.68,.78-.05,1.45-.08,2.1-.08s1.35,.03,2.1,.08c.44,.03,.67,.23,.67,.57,0,.62-.13,2.76-.13,4.39,0,5.95,.86,10.09,.86,11.15,0,.34-.23,.47-.52,.49Zm-6.36-19.73c0-1.64,1.09-2.6,3.48-2.6s3.48,.96,3.48,2.6-.99,2.5-3.48,2.5-3.48-.88-3.48-2.5Z"/><path class="o" d="M485.09,257.3c0,4.16-.39,8.4-.54,9.54-.08,.55-.36,.81-.78,.83-.54,.05-1.32,.05-2.13,.05s-1.58,0-2.29-.05c-.47-.03-.62-.23-.62-.55,0-1.48,.31-6.16,.31-8.74,0-1.56-.31-2.13-.8-2.13-.21,0-.39,.05-.52,.18-.31,.31-.36,.94-.36,2.16,0,4.45,.36,7.49,.36,8.4,0,.47-.23,.65-.73,.68-.62,.03-1.3,.05-1.95,.05-.86,0-1.66-.03-2.26-.05-.49-.03-.8-.18-.86-.91-.16-2.05-.29-4.65-.29-7.64,0-2.08,.05-4.37,.23-6.79,.05-.91,.65-1.17,1.43-1.25,.6-.05,1.35-.08,2.03-.08,.57,0,1.12,.03,1.48,.05,.54,.05,.73,.26,.73,.65s.16,.52,.44,.52c.91,0,1.66-1.46,3.66-1.46,2.42,0,3.45,1.79,3.45,6.53Z"/><path class="o" d="M490.28,262.47c0-3.98,3.04-5.41,5.95-5.85,.86-.13,1.38-.23,1.38-.68,0-.26-.21-.55-1.06-.55-1.35,0-2.8,.55-4.18,1.72-.16,.16-.34,.23-.47,.23s-.26-.05-.36-.16c-.62-.57-1.22-1.61-1.22-3.02,0-2.08,2.42-3.54,6.6-3.54,4.7,0,6.36,2.24,6.36,6.21,0,.99-.1,3.72-.1,5.93,0,1.61,.18,3.35,.18,3.88,0,.47-.23,.75-.67,.83-.93,.18-3.95,.21-6.05,.21-4.05,0-6.34-1.48-6.34-5.23Zm7.38-1.38c0-.86-.08-1.07-.49-1.07-.7,0-1.43,.65-1.43,1.53,0,.81,.57,1.27,1.2,1.27,.54,0,.73-.34,.73-1.14v-.6Z"/><path class="o" d="M517.94,257.3c0,4.16-.39,8.4-.54,9.54-.08,.55-.36,.81-.78,.83-.54,.05-1.32,.05-2.13,.05s-1.58,0-2.29-.05c-.47-.03-.62-.23-.62-.55,0-1.48,.31-6.16,.31-8.74,0-1.56-.31-2.13-.8-2.13-.21,0-.39,.05-.52,.18-.31,.31-.36,.94-.36,2.16,0,4.45,.36,7.49,.36,8.4,0,.47-.23,.65-.73,.68-.62,.03-1.3,.05-1.95,.05-.86,0-1.66-.03-2.26-.05-.49-.03-.8-.18-.86-.91-.16-2.05-.29-4.65-.29-7.64,0-2.08,.05-4.37,.23-6.79,.05-.91,.65-1.17,1.43-1.25,.6-.05,1.35-.08,2.03-.08,.57,0,1.12,.03,1.48,.05,.54,.05,.73,.26,.73,.65s.16,.52,.44,.52c.91,0,1.66-1.46,3.66-1.46,2.42,0,3.45,1.79,3.45,6.53Z"/><path class="o" d="M518.97,260.16c0-5.88,1.84-9.49,4.49-9.49,1.22,0,2.16,.81,2.7,1.38,.08,.08,.16,.1,.23,.1,.16,0,.29-.1,.29-.34,0-1.12-.7-4.29-.7-4.76,0-.36,.31-.57,.73-.6,.57-.03,1.17-.05,1.79-.05,.93,0,1.92,.03,2.83,.1,.52,.05,.83,.18,.94,.96,.29,2.13,.54,6.76,.54,11.13,0,2.89-.1,5.64-.39,7.54-.05,.42-.34,.78-.86,.99-.91,.34-2.57,.7-5.74,.7-4.83,0-6.86-2.03-6.86-7.67Zm7.92-1.59c0-2.52-.26-3.28-.91-3.28-.54,0-.88,.75-.88,4.13s.31,4.13,.88,4.13,.91-.78,.91-4.99Z"/><path class="o" d="M545.04,246.54c.29,.05,.42,.29,.42,.55,0,.55-.99,2.42-.99,4.13,0,.42,.16,.6,.44,.6,.47,0,1.58-1.17,3.56-1.17,2.47,0,4.05,1.69,4.05,7.25,0,3.74-.36,7.38-.67,9.13-.08,.47-.34,.65-.68,.68-.39,0-1.12,.03-1.95,.03-.96,0-2.03-.03-2.8-.08-.29-.03-.62-.1-.62-.65,0-.62,.62-4.55,.62-7.64,0-2.52-.23-2.94-.81-2.94-.73,0-1.04,.78-1.04,3.3,0,4.63,.21,6.63,.21,7.31,0,.55-.42,.62-.73,.65-.6,.05-1.43,.08-2.31,.08s-1.74-.03-2.47-.08c-.21-.03-.49-.08-.6-.49-.13-.55-.26-2.65-.26-5.54,0-3.98,.23-9.46,.93-14.3,.08-.49,.39-.78,.65-.81,.8-.08,1.77-.1,2.7-.1,.86,0,1.69,0,2.34,.1Z"/><path class="o" d="M559.74,268.06c-4.99,0-6.57-3.85-6.57-8.01,0-6.81,3.48-9.41,7.51-9.41,2.88,0,5.01,1.51,5.01,4.58,0,4.37-3.09,5.25-5.4,5.85-1.01,.26-1.4,.44-1.4,.86,0,.39,.34,.62,1.19,.62,1.69,0,3.58-.68,4.67-1.53,.18-.16,.34-.23,.47-.23,.39,0,.68,.75,.68,2.08,0,3.3-2.91,5.2-6.16,5.2Zm.13-13.05c-.83,0-1.58,1.04-1.58,2.18,0,.23,.05,.42,.26,.42s.42-.08,.62-.18c.68-.36,1.56-.81,1.56-1.59,0-.44-.29-.83-.86-.83Z"/><path class="o" d="M573.37,267.67c-.8,.05-1.77,.08-2.75,.08s-1.92-.03-2.75-.08c-.26-.03-.67-.16-.73-.75-.21-2.13-.29-4.63-.29-7.23,0-4.24,.26-8.81,.81-12.61,.08-.55,.42-.65,.75-.68,.78-.05,1.56-.08,2.34-.08s1.58,.03,2.34,.08c.42,.03,.67,.18,.67,.55,0,.44-.49,5.49-.49,9.54,0,4.71,.62,9.88,.62,10.63,0,.34-.23,.52-.52,.55Z"/><path class="o" d="M576.59,268.27c-.42,0-.7-.18-.99-1.17-.6-2.13-.81-5.04-.81-8.35,0-7.25,.57-8.11,5.4-8.11,6.18,0,7.87,2.73,7.87,6.27,0,6.34-3.25,8.92-4.86,8.92-1.07,0-1.69-1.95-2.18-1.95-.21,0-.31,.18-.31,.42,0,1.66,.54,2.47,.54,2.83,0,.29-.26,.44-.65,.52-1.25,.26-3.19,.62-4.03,.62Zm4-9.41c0,1.92,.18,2.34,.57,2.34,.73,0,1.09-1.59,1.09-4.47,0-1.43-.29-1.98-.83-1.98s-.83,.81-.83,4.11Z"/><path class="o" d="M593.42,259.07c0-1.82,.39-6.06,.54-7.2,.08-.55,.36-.78,.78-.83,.68-.05,1.51-.08,2.29-.08s1.51,.03,2.1,.08c.49,.05,.62,.26,.62,.62,0,.94-.29,5.41-.29,8.66,0,1.56,.31,2.13,.81,2.13,.18,0,.34-.05,.47-.18,.31-.31,.42-.94,.42-2.16,0-5.04-.29-7.77-.31-8.27-.05-.55,.18-.75,.73-.81,.49-.05,1.12-.08,1.79-.08,.86,0,1.74,.03,2.36,.08,.49,.03,.78,.18,.86,.91,.26,2.11,.36,4.21,.36,6.6s-.1,4.89-.31,7.83c-.05,.91-.65,1.17-1.43,1.25-.52,.05-1.19,.08-1.77,.08-.42,0-.8-.03-1.06-.05-.55-.05-.73-.23-.73-.65,0-.39-.16-.52-.44-.52-.86,0-1.95,1.46-3.84,1.46-2.88,0-3.95-1.79-3.95-8.87Z"/><path class="o" d="M613.46,263.25c.49,0,.67-.16,.67-.49,0-.42-.42-.7-1.43-1.17-2.39-1.12-4.7-2.21-4.7-5.56s2.6-5.38,6.57-5.38c1.82,0,3.71,.42,4.65,.94,.42,.23,.49,.49,.49,.91,0,1.25-.42,3.15-.86,4.24-.1,.26-.26,.36-.44,.36-.13,0-.26-.05-.36-.13-1.09-.83-2.96-1.87-4.18-1.87-.55,0-.75,.21-.75,.49,0,.39,.36,.6,1.48,1.07,2.16,.91,5.27,2.18,5.27,5.69,0,3.87-2.44,5.72-6,5.72s-6.05-1.61-6.05-4.65c0-1.25,.31-2.11,.52-2.47,.1-.18,.23-.29,.39-.29,.13,0,.26,.05,.36,.18,.94,1.04,2.83,2.42,4.36,2.42Z"/><path class="o" d="M630.21,267.67c-.44,.05-1.01,.05-1.64,.05-.7,0-1.45,0-2.26-.05-.49-.03-.8-.18-.86-.91-.18-2.21-.34-4.73-.34-7.72,0-2.03,.08-4.26,.29-6.79,.08-.91,.65-1.17,1.43-1.25,.49-.05,1.19-.08,1.9-.08,.81,0,1.58,.03,1.92,.08,.39,.05,.52,.21,.52,.47,0,.23-.16,.57-.16,.86,0,.16,.1,.26,.29,.26,.7,0,1.61-1.82,3.32-1.82s2.26,1.2,2.91,1.2c.73,0,1.77-1.2,3.71-1.2,3.06,0,4.39,2.99,4.39,8.76,0,4.06-.26,6.58-.52,7.44-.16,.52-.62,.68-1.01,.7-.49,.03-1.19,.05-1.92,.05s-1.56-.03-2.34-.05c-.65-.03-.83-.34-.83-.78,0-.75,.47-3.2,.47-7.41,0-2.26-.16-3.22-.75-3.22-.52,0-.78,.52-.78,2.03,0,1.59,.03,2.42,.03,3.8,0,2.26-.16,4-.26,4.76-.08,.55-.36,.81-.78,.83-.57,.05-1.38,.08-2.21,.08-.68,0-1.4-.03-2.05-.08-.49-.03-.62-.26-.62-.62,0-.39,.16-5.25,.16-8.71,0-1.56-.26-2.08-.83-2.08-.47,0-.75,.6-.75,2.34,0,5.02,.34,7.77,.34,8.4,0,.47-.26,.62-.75,.68Z"/><path class="o" d="M646.36,262.47c0-3.98,3.04-5.41,5.95-5.85,.86-.13,1.38-.23,1.38-.68,0-.26-.21-.55-1.06-.55-1.35,0-2.8,.55-4.18,1.72-.16,.16-.34,.23-.47,.23s-.26-.05-.36-.16c-.62-.57-1.22-1.61-1.22-3.02,0-2.08,2.42-3.54,6.6-3.54,4.7,0,6.36,2.24,6.36,6.21,0,.99-.1,3.72-.1,5.93,0,1.61,.18,3.35,.18,3.88,0,.47-.23,.75-.67,.83-.93,.18-3.95,.21-6.05,.21-4.05,0-6.34-1.48-6.34-5.23Zm7.38-1.38c0-.86-.08-1.07-.49-1.07-.7,0-1.43,.65-1.43,1.53,0,.81,.57,1.27,1.2,1.27,.54,0,.73-.34,.73-1.14v-.6Z"/><path class="o" d="M666.96,267.67c-.78,.05-1.77,.08-2.73,.08s-1.95-.03-2.78-.08c-.26-.03-.67-.16-.73-.75-.16-2.13-.16-4.63-.16-7.23,0-4.24,.18-8.84,.67-12.61,.08-.55,.42-.65,.75-.68,.7-.05,1.48-.08,2.29-.08s1.64,.03,2.39,.08c.42,.03,.68,.18,.68,.52,0,.29-.94,6.6-.94,10.09,0,.39,.13,.62,.39,.62,1.01,0,1.61-2.78,1.74-5.98,.03-.44,.23-.57,.62-.6,.49-.03,1.38-.05,2.29-.05,1.09,0,2.23,.03,2.7,.05,.31,.03,.57,.13,.57,.65,0,2.81-1.69,5.49-2.47,6.4-.16,.18-.23,.31-.23,.44s.08,.23,.23,.39c1.58,1.4,3.01,3.07,3.01,7.9,0,.6-.08,.78-.73,.83-.49,.05-1.32,.05-2.21,.05s-1.77,0-2.44-.05c-.7-.05-.86-.13-.88-.81-.16-3.56-.94-5.95-1.84-5.95-.42,0-.6,.52-.6,1.35,0,1.53,.91,4.29,.91,4.89,0,.31-.21,.49-.52,.52Z"/><path class="o" d="M682.2,268.06c-4.99,0-6.57-3.85-6.57-8.01,0-6.81,3.48-9.41,7.51-9.41,2.88,0,5.01,1.51,5.01,4.58,0,4.37-3.09,5.25-5.4,5.85-1.01,.26-1.4,.44-1.4,.86,0,.39,.34,.62,1.19,.62,1.69,0,3.58-.68,4.67-1.53,.18-.16,.34-.23,.47-.23,.39,0,.68,.75,.68,2.08,0,3.3-2.91,5.2-6.16,5.2Zm.13-13.05c-.83,0-1.58,1.04-1.58,2.18,0,.23,.05,.42,.26,.42s.42-.08,.62-.18c.68-.36,1.56-.81,1.56-1.59,0-.44-.29-.83-.86-.83Z"/><path class="o" d="M372.73,298.87c-.8,.05-1.77,.08-2.75,.08s-1.92-.03-2.75-.08c-.26-.03-.67-.16-.73-.75-.21-2.13-.29-4.63-.29-7.23,0-4.24,.26-8.81,.81-12.61,.08-.55,.42-.65,.75-.68,.78-.05,1.56-.08,2.34-.08s1.58,.03,2.34,.08c.42,.03,.67,.18,.67,.55,0,.44-.49,5.49-.49,9.54,0,4.71,.62,9.88,.62,10.63,0,.34-.23,.52-.52,.55Z"/><path class="o" d="M380.36,299.26c-4.99,0-6.57-3.85-6.57-8.01,0-6.81,3.48-9.41,7.51-9.41,2.88,0,5.01,1.51,5.01,4.58,0,4.37-3.09,5.25-5.4,5.85-1.01,.26-1.4,.44-1.4,.86,0,.39,.34,.62,1.19,.62,1.69,0,3.58-.68,4.67-1.53,.18-.16,.34-.23,.47-.23,.39,0,.68,.75,.68,2.08,0,3.3-2.91,5.2-6.16,5.2Zm.13-13.05c-.83,0-1.58,1.04-1.58,2.18,0,.23,.05,.42,.26,.42s.42-.08,.62-.18c.68-.36,1.56-.81,1.56-1.59,0-.44-.29-.83-.86-.83Z"/><path class="o" d="M392.46,298.87c-.44,.05-1.01,.05-1.64,.05-.7,0-1.45,0-2.26-.05-.49-.03-.8-.18-.86-.91-.18-2.21-.34-4.73-.34-7.72,0-2.03,.08-4.26,.29-6.79,.08-.91,.65-1.17,1.43-1.25,.49-.05,1.19-.08,1.9-.08,.81,0,1.58,.03,1.92,.08,.39,.05,.52,.21,.52,.47,0,.23-.16,.57-.16,.86,0,.16,.1,.26,.29,.26,.7,0,1.61-1.82,3.32-1.82s2.26,1.2,2.91,1.2c.73,0,1.77-1.2,3.71-1.2,3.06,0,4.39,2.99,4.39,8.76,0,4.06-.26,6.58-.52,7.44-.16,.52-.62,.68-1.01,.7-.49,.03-1.19,.05-1.92,.05s-1.56-.03-2.34-.05c-.65-.03-.83-.34-.83-.78,0-.75,.47-3.2,.47-7.41,0-2.26-.16-3.22-.75-3.22-.52,0-.78,.52-.78,2.03,0,1.59,.03,2.42,.03,3.8,0,2.26-.16,4-.26,4.76-.08,.55-.36,.81-.78,.83-.57,.05-1.38,.08-2.21,.08-.68,0-1.4-.03-2.05-.08-.49-.03-.62-.26-.62-.62,0-.39,.16-5.25,.16-8.71,0-1.56-.26-2.08-.83-2.08-.47,0-.75,.6-.75,2.34,0,5.02,.34,7.77,.34,8.4,0,.47-.26,.62-.75,.68Z"/><path class="o" d="M408.67,290.53c0-5.2,2.34-8.68,7.01-8.68s6.54,3.35,6.54,8.68c0,6.11-3.14,8.74-6.96,8.74s-6.6-2.63-6.6-8.74Zm7.87-.47c0-2.5-.39-3.48-1.12-3.48s-1.12,.99-1.12,3.48,.31,3.56,1.12,3.56,1.12-1.04,1.12-3.56Z"/><path class="o" d="M436.58,288.5c0,4.16-.39,8.4-.54,9.54-.08,.55-.36,.81-.78,.83-.54,.05-1.32,.05-2.13,.05s-1.58,0-2.29-.05c-.47-.03-.62-.23-.62-.55,0-1.48,.31-6.16,.31-8.74,0-1.56-.31-2.13-.8-2.13-.21,0-.39,.05-.52,.18-.31,.31-.36,.94-.36,2.16,0,4.45,.36,7.49,.36,8.4,0,.47-.23,.65-.73,.68-.62,.03-1.3,.05-1.95,.05-.86,0-1.66-.03-2.26-.05-.49-.03-.8-.18-.86-.91-.16-2.05-.29-4.65-.29-7.64,0-2.08,.05-4.37,.23-6.79,.05-.91,.65-1.17,1.43-1.25,.6-.05,1.35-.08,2.03-.08,.57,0,1.12,.03,1.48,.05,.54,.05,.73,.26,.73,.65s.16,.52,.44,.52c.91,0,1.66-1.46,3.66-1.46,2.42,0,3.45,1.79,3.45,6.53Z"/><path class="o" d="M437.31,293.67c0-3.98,3.04-5.41,5.95-5.85,.86-.13,1.38-.23,1.38-.68,0-.26-.21-.55-1.06-.55-1.35,0-2.8,.55-4.18,1.72-.16,.16-.34,.23-.47,.23s-.26-.05-.36-.16c-.62-.57-1.22-1.61-1.22-3.02,0-2.08,2.42-3.54,6.6-3.54,4.7,0,6.36,2.24,6.36,6.21,0,.99-.1,3.72-.1,5.93,0,1.61,.18,3.35,.18,3.87,0,.47-.23,.75-.67,.83-.93,.18-3.95,.21-6.05,.21-4.05,0-6.34-1.48-6.34-5.23Zm7.38-1.38c0-.86-.08-1.07-.49-1.07-.7,0-1.43,.65-1.43,1.53,0,.81,.57,1.27,1.2,1.27,.54,0,.73-.34,.73-1.14v-.6Z"/><path class="o" d="M451.38,291.36c0-5.88,1.84-9.49,4.49-9.49,1.22,0,2.16,.81,2.7,1.38,.08,.08,.16,.1,.23,.1,.16,0,.29-.1,.29-.34,0-1.12-.7-4.29-.7-4.76,0-.36,.31-.57,.73-.6,.57-.03,1.17-.05,1.79-.05,.93,0,1.92,.03,2.83,.1,.52,.05,.83,.18,.93,.96,.29,2.13,.54,6.76,.54,11.13,0,2.89-.1,5.64-.39,7.54-.05,.42-.34,.78-.86,.99-.91,.34-2.57,.7-5.74,.7-4.83,0-6.86-2.03-6.86-7.67Zm7.92-1.59c0-2.52-.26-3.28-.91-3.28-.54,0-.88,.75-.88,4.13s.31,4.13,.88,4.13,.91-.78,.91-4.99Z"/><path class="o" d="M472.67,299.26c-4.99,0-6.57-3.85-6.57-8.01,0-6.81,3.48-9.41,7.51-9.41,2.88,0,5.01,1.51,5.01,4.58,0,4.37-3.09,5.25-5.4,5.85-1.01,.26-1.4,.44-1.4,.86,0,.39,.34,.62,1.19,.62,1.69,0,3.58-.68,4.67-1.53,.18-.16,.34-.23,.47-.23,.39,0,.68,.75,.68,2.08,0,3.3-2.91,5.2-6.16,5.2Zm.13-13.05c-.83,0-1.58,1.04-1.58,2.18,0,.23,.05,.42,.26,.42s.42-.08,.62-.18c.68-.36,1.56-.81,1.56-1.59,0-.44-.29-.83-.86-.83Z"/><path class="o" d="M492.85,277.68c-.05,.91-.23,2.52-.44,3.22-.08,.23-.18,.31-.34,.31-.21,0-.6-.16-.96-.16-.47,0-.73,.23-.73,.65,0,.36,.26,.6,.86,.6,.34,0,.75-.08,.99-.08,.26,0,.36,.18,.44,.49,.08,.52,.18,1.35,.18,2.26s-.08,1.92-.26,2.81c-.05,.23-.21,.31-.39,.31-.23,0-.55-.16-.86-.16-.26,0-.36,.18-.42,.75-.03,.23-.03,.55-.03,.96,0,2.26,.23,5.04,.68,8.48,.05,.31,.03,.6-.23,.65-.73,.16-1.95,.21-3.17,.21-.88,0-1.77,0-2.44-.05-.36-.03-.65-.08-.67-.36-.18-1.64-.23-3.28-.23-4.76,0-2.47,.16-4.45,.16-5.12,0-.39-.1-.68-.47-.68h-.31c-.26,0-.47-.18-.49-.52-.03-.29-.05-.7-.05-1.14,0-1.43,.13-3.04,.36-3.72,.08-.23,.23-.34,.49-.34,.13,0,.31,.03,.39,.03,.55,0,.49-.65,.75-2.18,.31-1.85,1.53-3.43,4.67-3.43,1.51,0,2.03,.21,2.23,.31,.18,.1,.31,.29,.29,.65Z"/><path class="o" d="M492.93,290.53c0-5.2,2.34-8.68,7.01-8.68s6.54,3.35,6.54,8.68c0,6.11-3.14,8.74-6.96,8.74s-6.6-2.63-6.6-8.74Zm7.87-.47c0-2.5-.39-3.48-1.12-3.48s-1.12,.99-1.12,3.48,.31,3.56,1.12,3.56,1.12-1.04,1.12-3.56Z"/><path class="o" d="M513.68,298.85c-.62,.05-1.4,.05-2.26,.05s-1.79,0-2.75-.05c-.39-.03-.65-.26-.75-.7-.31-1.33-.55-4.08-.55-7.62,0-4.52,.21-6.66,.44-7.57,.1-.39,.29-.55,.49-.62,.36-.1,1.48-.21,2.52-.21,.6,0,1.17,.03,1.53,.1,.29,.05,.39,.23,.42,.6,.03,.29,.16,.39,.29,.39s.29-.1,.47-.26c.36-.31,.8-.83,1.35-.83s.88,.81,.88,3.51c0,1.17-.08,2.34-.29,2.91-.16,.47-.36,.57-.6,.57s-.49-.29-.88-.29-.68,.39-.68,1.72c0,2.63,1.17,7.15,1.17,7.67,0,.34-.21,.57-.8,.62Z"/><path class="o" d="M520.79,290.53c0-5.2,2.34-8.68,7.01-8.68s6.54,3.35,6.54,8.68c0,6.11-3.14,8.74-6.96,8.74s-6.6-2.63-6.6-8.74Zm7.87-.47c0-2.5-.39-3.48-1.12-3.48s-1.12,.99-1.12,3.48,.31,3.56,1.12,3.56,1.12-1.04,1.12-3.56Z"/><path class="o" d="M535.25,290.27c0-1.82,.39-6.06,.54-7.2,.08-.55,.36-.78,.78-.83,.68-.05,1.51-.08,2.29-.08s1.51,.03,2.1,.08c.49,.05,.62,.26,.62,.62,0,.94-.29,5.41-.29,8.66,0,1.56,.31,2.13,.81,2.13,.18,0,.34-.05,.47-.18,.31-.31,.42-.94,.42-2.16,0-5.04-.29-7.77-.31-8.27-.05-.55,.18-.75,.73-.81,.49-.05,1.12-.08,1.79-.08,.86,0,1.74,.03,2.36,.08,.49,.03,.78,.18,.86,.91,.26,2.11,.36,4.21,.36,6.6s-.1,4.89-.31,7.83c-.05,.91-.65,1.17-1.43,1.25-.52,.05-1.19,.08-1.77,.08-.42,0-.8-.03-1.06-.05-.55-.05-.73-.23-.73-.65,0-.39-.16-.52-.44-.52-.86,0-1.95,1.46-3.84,1.46-2.88,0-3.95-1.79-3.95-8.87Z"/><path class="o" d="M556.42,298.85c-.62,.05-1.4,.05-2.26,.05s-1.79,0-2.75-.05c-.39-.03-.65-.26-.75-.7-.31-1.33-.55-4.08-.55-7.62,0-4.52,.21-6.66,.44-7.57,.1-.39,.29-.55,.49-.62,.36-.1,1.48-.21,2.52-.21,.6,0,1.17,.03,1.53,.1,.29,.05,.39,.23,.42,.6,.03,.29,.16,.39,.29,.39s.29-.1,.47-.26c.36-.31,.8-.83,1.35-.83s.88,.81,.88,3.51c0,1.17-.08,2.34-.29,2.91-.16,.47-.36,.57-.6,.57s-.49-.29-.88-.29-.68,.39-.68,1.72c0,2.63,1.17,7.15,1.17,7.67,0,.34-.21,.57-.8,.62Z"/><path class="o" d="M565.69,299.47c-.42,0-.7-.18-.99-1.17-.6-2.13-.81-5.04-.81-8.35,0-7.25,.57-8.11,5.4-8.11,6.18,0,7.87,2.73,7.87,6.27,0,6.34-3.25,8.92-4.86,8.92-1.07,0-1.69-1.95-2.18-1.95-.21,0-.31,.18-.31,.42,0,1.66,.54,2.47,.54,2.83,0,.29-.26,.44-.65,.52-1.25,.26-3.19,.62-4.03,.62Zm4-9.41c0,1.92,.18,2.34,.57,2.34,.73,0,1.09-1.59,1.09-4.47,0-1.43-.29-1.98-.83-1.98s-.83,.81-.83,4.11Z"/><path class="o" d="M584.62,298.87c-.8,.05-1.77,.08-2.75,.08s-1.95-.03-2.78-.08c-.26-.03-.65-.16-.73-.75-.21-1.72-.31-3.74-.31-5.85,0-3.22,.23-6.63,.73-9.33,.1-.55,.42-.65,.75-.68,.78-.05,1.45-.08,2.1-.08s1.35,.03,2.1,.08c.44,.03,.67,.23,.67,.57,0,.62-.13,2.76-.13,4.39,0,5.95,.86,10.09,.86,11.15,0,.34-.23,.47-.52,.49Zm-6.36-19.73c0-1.64,1.09-2.6,3.48-2.6s3.48,.96,3.48,2.6-.99,2.5-3.48,2.5-3.48-.88-3.48-2.5Z"/><path class="o" d="M585.65,291.39c0-6.47,3.12-9.54,7.19-9.54,3.22,0,4.78,2.11,4.78,4.78,0,2.13-2.23,3.64-4,3.64-.39,0-.54-.1-.57-.39-.08-1.43-.05-2.83-.73-2.83-.55,0-.88,1.09-.88,3.09,0,1.77,.31,2.99,1.61,2.99,1.48,0,2.47-1.2,3.04-2.16,.08-.16,.21-.21,.34-.21,.08,0,.18,.03,.34,.18,.47,.49,.96,1.46,.96,2.83,0,2.96-1.9,5.49-5.95,5.49-4.31,0-6.13-3.46-6.13-7.88Z"/><path class="o" d="M612.04,288.5c0,4.16-.39,8.4-.54,9.54-.08,.55-.36,.81-.78,.83-.54,.05-1.32,.05-2.13,.05s-1.58,0-2.29-.05c-.47-.03-.62-.23-.62-.55,0-1.48,.31-6.16,.31-8.74,0-1.56-.31-2.13-.8-2.13-.21,0-.39,.05-.52,.18-.31,.31-.36,.94-.36,2.16,0,4.45,.36,7.49,.36,8.4,0,.47-.23,.65-.73,.68-.62,.03-1.3,.05-1.95,.05-.86,0-1.66-.03-2.26-.05-.49-.03-.8-.18-.86-.91-.16-2.05-.29-4.65-.29-7.64,0-2.08,.05-4.37,.23-6.79,.05-.91,.65-1.17,1.43-1.25,.6-.05,1.35-.08,2.03-.08,.57,0,1.12,.03,1.48,.05,.54,.05,.73,.26,.73,.65s.16,.52,.44,.52c.91,0,1.66-1.46,3.66-1.46,2.42,0,3.45,1.79,3.45,6.53Z"/><path class="o" d="M619.77,298.87c-.8,.05-1.77,.08-2.75,.08s-1.95-.03-2.78-.08c-.26-.03-.65-.16-.73-.75-.21-1.72-.31-3.74-.31-5.85,0-3.22,.23-6.63,.73-9.33,.1-.55,.42-.65,.75-.68,.78-.05,1.45-.08,2.1-.08s1.35,.03,2.1,.08c.44,.03,.67,.23,.67,.57,0,.62-.13,2.76-.13,4.39,0,5.95,.86,10.09,.86,11.15,0,.34-.23,.47-.52,.49Zm-6.36-19.73c0-1.64,1.09-2.6,3.48-2.6s3.48,.96,3.48,2.6-.99,2.5-3.48,2.5-3.48-.88-3.48-2.5Z"/><path class="o" d="M620.81,291.39c0-6.47,3.12-9.54,7.19-9.54,3.22,0,4.78,2.11,4.78,4.78,0,2.13-2.23,3.64-4,3.64-.39,0-.54-.1-.57-.39-.08-1.43-.05-2.83-.73-2.83-.55,0-.88,1.09-.88,3.09,0,1.77,.31,2.99,1.61,2.99,1.48,0,2.47-1.2,3.04-2.16,.08-.16,.21-.21,.34-.21,.08,0,.18,.03,.34,.18,.47,.49,.96,1.46,.96,2.83,0,2.96-1.9,5.49-5.95,5.49-4.31,0-6.13-3.46-6.13-7.88Z"/><path class="o" d="M640.96,279.09c.39,.05,.52,.29,.52,.57,0,.75-1.14,3.33-1.71,11.39-.05,.81-.39,1.01-2,1.17-.52,.05-.96,.08-1.32,.08-.78,0-1.2-.16-1.35-.62-.7-2.11-1.17-4.03-1.38-6.68-.13-1.64-.18-2.86-.18-4.68,0-.65,.18-1.14,1.12-1.22,.8-.08,1.97-.1,3.17-.1s2.36,.03,3.14,.1Zm-7.12,16.98c0-1.95,1.35-3.12,3.48-3.12s3.48,1.17,3.48,3.12-1.25,2.99-3.48,2.99-3.48-1.04-3.48-2.99Z"/></g></g><g><path class="o" d="M572.5,194.51c3.3-.03,5.23,1.83,5.25,4.74,.02,3.05-1.87,4.8-5.18,4.83-3.26,.03-4.97-1.7-4.99-4.75-.02-2.91,1.66-4.8,4.92-4.82Zm14.21-.11c3.3-.03,5.23,1.83,5.25,4.74,.02,3.05-1.87,4.8-5.18,4.83-3.26,.03-4.97-1.7-4.99-4.75-.02-2.91,1.66-4.8,4.92-4.82Z"/><path class="o" d="M586.06,206.29c11.39-.09,18.06,3.21,18.1,7.99,.02,3.04-3.18,3.94-3.75,3.94-.35,0-.61-.12-.92-.47-2.76-2.67-8.29-3.98-14.98-3.93-6.21,.05-12.46,1.45-16.23,2.78-.22,.09-.35,.13-.48,.13-.3,0-.44-.13-.66-.43-.53-.95-1.16-3.56-1.16-4.17,0-.35,.08-.65,.43-.92,2.03-1.8,11.13-4.87,19.65-4.94Z"/></g></g><g id="e"/><g id="f"/><g id="g"/><g id="h"/><g id="i"/></svg>