<svg xmlns="http://www.w3.org/2000/svg" width="200" height="210" viewBox="0 0 200 210"><defs><style>.cls-1{fill:#f6c945;}.cls-2{fill:#3e773f;}</style></defs><g id="objects"><path class="cls-1" d="M132.69,157c-56,55.34-55.61,67.84-71.52,33.33-8.81-19.1-32.73-46.08-12.62-80.9s87-83.09,91.26-36.25C142,97.4,161.29,128.69,132.69,157Z"/><path class="cls-2" d="M82.59,49.78C64,43.65,26.08,17.64,46.73,49.89,48.79,53.1,64,73.25,82.55,79.38s30.22-3.67,31.42-7.29S101.15,55.91,82.59,49.78Z"/><path class="cls-2" d="M150.71,27.07c5.5-17.79,24.38-37.42-12.94-18-3,1.57-20.08,16.33-24.77,33.12s4.52,26.75,7.79,27.66S147,39.14,150.71,27.07Z"/></g></svg>