<svg xmlns="http://www.w3.org/2000/svg" width="150" height="220" viewBox="0 0 150 220"><defs><style>.cls-1{fill:#638dbb;}.cls-2{fill:#f8d347;}.cls-3{fill:#df9b90;}</style></defs><g id="ui_elements"><path class="cls-1" d="M124,193.42c-9.15,26.62-53.85,22.88-59.31,11.7C48,170.87,50.42,94.42,47.14,85.67c-15.08-40.26,83.69-38.16,85.2-8.35C135.06,131.12,133.17,166.69,124,193.42Z"/><path class="cls-2" d="M116,134.85c0,30.21,8.59,53.6-26.31,54.71-26.31.83-26.36-24.5-26.31-54.71.05-34.69-13.75-58,23.39-45.53C112.94,98.1,116,104.63,116,134.85Z"/><path class="cls-3" d="M21.9,47.92C35.39,13.33,60.16-2.2,69.29.88c14.49,4.9,20.2,53.77,18.48,158.31a3.34,3.34,0,0,1-3.48,3.28h0a3.34,3.34,0,0,1-3.2-3.4c.79-48-.1-85.06-2.63-110.18-1.09-10.75-11.31-32-17.64-34.12-2.57-.87-28.73,25-32.58,35.91-.66,1.87-6.62,5.72-8.35,4.18"/></g></svg>