<svg xmlns="http://www.w3.org/2000/svg" width="200" height="229" viewBox="0 0 200 229"><defs><style>.cls-1{fill:#e16b3d;}.cls-2{fill:#387945;}.cls-3{fill:#e59c59;}</style></defs><g id="objects"><path class="cls-1" d="M181.67,124.87c-11.06,58.7-26.81,71-71.72,79-50.13,8.92-101.25-39.08-93.47-79C25.39,79,52.15,44.78,99.07,51.2,144.27,57.38,189.2,84.89,181.67,124.87Z"/><path class="cls-2" d="M135.58,72.58C126,85,107.59,86.7,105.05,84.81s-12.24-19.29-3.52-31,24.84-33.43,36.94-31C153,25.79,153.25,49.81,135.58,72.58Z"/><path class="cls-3" d="M94.13,74.92C91.17,71,77.39,79.39,82,81.17c0,0,.68-1.12,14.54,5.68C100.93,89,101.74,85,94.13,74.92Z"/></g></svg>