<svg xmlns="http://www.w3.org/2000/svg" width="100" height="95.76" viewBox="0 0 100 95.76"><defs><style>.cls-1{fill:#709dcc;}.cls-2{fill:#638dbb;}.cls-3{fill:#f4be58;}.cls-4{fill:#e7a947;}</style></defs><g id="buttons"><path class="cls-1" d="M98.22,52.42c-3.63,24.71-24.81,45.41-49.4,41.05C18.34,88.06,4.08,72.77,8.75,48.24,13.67,22.43,23.84,9.41,48.57,8.42S101.91,27.34,98.22,52.42Z"/><path class="cls-2" d="M96,47.59C92.21,73.13,70.31,94.52,44.87,90,13.34,84.42-1.41,68.63,3.42,43.27,8.51,16.6,19,3.15,44.61,2.13S99.79,21.68,96,47.59Z"/><path class="cls-3" d="M45.63,45.57c0,13.16,0,25.63-4.6,25.63-4.06,0-4.88-12.47-4.88-25.63s0-23.82,4.74-23.82S45.63,32.41,45.63,45.57Z"/><path class="cls-4" d="M44,44.53c0,13.16,0,25.63-4.61,25.63-4.06,0-4.87-12.47-4.87-25.63s0-23.83,4.74-23.83S44,31.37,44,44.53Z"/><path class="cls-3" d="M60.56,46.2c0,13.16,0,25.63-4.6,25.63-4.07,0-4.88-12.47-4.88-25.63s0-23.83,4.74-23.83S60.56,33,60.56,46.2Z"/><path class="cls-4" d="M58.92,45.15c0,13.16,0,25.63-4.61,25.63-4.06,0-4.87-12.47-4.87-25.63s0-23.82,4.74-23.82S58.92,32,58.92,45.15Z"/></g></svg>