<svg xmlns="http://www.w3.org/2000/svg" width="870" height="490" viewBox="0 0 870 490"><defs><style>.cls-1{fill:#578a55;}.cls-2{fill:#e7a947;}.cls-3{fill:#f5bd57;}.cls-4{fill:#eedec0;}.cls-5{fill:#f5bd58;}.cls-6{fill:#638dbb;}.cls-7{fill:#fff;}.cls-8{fill:#f4be58;}.cls-9{fill:#df4b37;}.cls-10{fill:#da7e68;}.cls-11{fill:#151225;}.cls-12{fill:#141a21;}.cls-13{fill:#ebc8c3;}.cls-14{fill:#df9b90;}.cls-15{fill:#4f7f50;}.cls-16{fill:#e16b3d;}.cls-17{fill:#e17d70;}.cls-18{fill:#cd3d31;}.cls-19{fill:#f1622c;}.cls-20{fill:#22210c;}.cls-21{fill:#3c6088;}.cls-22{fill:#5e7c9d;}.cls-23{fill:#3c6087;}.cls-24{fill:#293f02;}.cls-25{fill:#ea968c;}.cls-26{fill:#565d88;}.cls-27{fill:#2e3e0e;}</style></defs><g id="foreground"><rect class="cls-1" x="0.09" y="0.66" width="870" height="490"/><path class="cls-2" d="M275.08,72.23C141.44,84.71,49.92,144.87-.72,94.71V1.91H279.46C282.85,31.56,285.44,71.26,275.08,72.23Z"/><path class="cls-3" d="M269.35,67.36C137.59,79.68,48,139.71-.72,86.9v-85H273.92C277.05,30.34,279.08,66.45,269.35,67.36Z"/><path class="cls-4" d="M303.73,413.5c-62.35,23.19-113.06,50.62-155.9,76.82H-.26V310.87c49.3-17.62,110.26-43.59,186-86.51C240,193.66,395.61,379.32,303.73,413.5Z"/><g id="fork"><path class="cls-5" d="M103.28,343.36c0,10.26,1,17.9-1.06,18.58-1.14.37-2.36-8.38-1.22-18.57,1.06-9.53-.84-18.57,1.06-18.58C104.31,324.78,103.23,333.1,103.28,343.36Z"/><path class="cls-5" d="M102.26,340.12h0a4.82,4.82,0,0,1-4.69-4.91l0-8.94c1.65-2.27,4.54,8.59,4.54,8.59,1.93-1.9,2.23-11.4,4.81-8.12l0,8.43A4.83,4.83,0,0,1,102.26,340.12Z"/></g><g id="spoon"><path class="cls-5" d="M114.72,336.6c0,9.45.92,16.49-1.11,17.11-1.11.33-2.26-7.73-1.11-17.11,1.08-8.77-.73-17.11,1.11-17.11C115.8,319.49,114.72,327.15,114.72,336.6Z"/><path class="cls-5" d="M117,326.22c0,5.65-1.58,6.73-3.53,6.73-3.8,0-3.41-3.82-3.53-6.73-.13-3.43,1.58-6.72,3.53-6.72C117,319.5,117,322.51,117,326.22Z"/></g><g id="cinnamonrolls"><path class="cls-6" d="M139.82,285.17v4.58h-4A8.38,8.38,0,0,1,139.82,285.17Z"/><path class="cls-6" d="M135.38,290.93h4.44V297h-5.44A26.13,26.13,0,0,1,135.38,290.93Z"/><path class="cls-6" d="M134.32,298.18h5.5v7.53h-5.27a50.31,50.31,0,0,1-.26-5.6C134.29,299.44,134.3,298.8,134.32,298.18Z"/><path class="cls-6" d="M134.7,306.88h5.12V312h-3.6A17.52,17.52,0,0,1,134.7,306.88Z"/><path class="cls-6" d="M136.89,313.17h2.93v3A10,10,0,0,1,136.89,313.17Z"/><path class="cls-6" d="M141,284.67a22.18,22.18,0,0,1,6.42-.89v6H141Z"/><rect class="cls-6" x="140.99" y="290.93" width="6.42" height="6.08"/><rect class="cls-6" x="140.99" y="298.18" width="6.42" height="7.53"/><rect class="cls-6" x="140.99" y="306.88" width="6.42" height="5.11"/><path class="cls-6" d="M141,313.17h6.42v5.12a15.56,15.56,0,0,1-6.42-1.46Z"/><path class="cls-6" d="M152.38,283.61c1-.06,2-.1,2.91-.12v6.26h-6.7v-6C149.81,283.71,151.08,283.68,152.38,283.61Z"/><rect class="cls-6" x="148.59" y="290.93" width="6.7" height="6.08"/><rect class="cls-6" x="148.59" y="298.18" width="6.7" height="7.53"/><rect class="cls-6" x="148.59" y="306.88" width="6.7" height="5.11"/><path class="cls-6" d="M148.59,313.17h6.7v4.43c-.85.14-1.75.27-2.7.4a32.86,32.86,0,0,1-4,.3Z"/><path class="cls-6" d="M156.46,283.48a37.08,37.08,0,0,1,6.7.48v5.79h-6.7Z"/><rect class="cls-6" x="156.46" y="290.93" width="6.7" height="6.08"/><rect class="cls-6" x="156.46" y="298.18" width="6.7" height="7.53"/><rect class="cls-6" x="156.46" y="306.88" width="6.7" height="5.11"/><path class="cls-6" d="M156.46,313.17h6.7v2.45a38.4,38.4,0,0,1-6.7,1.77Z"/><path class="cls-6" d="M164.33,313.17h3.16a13.1,13.1,0,0,1-3.16,2Z"/><path class="cls-6" d="M164.33,306.88h6.11a9.34,9.34,0,0,1-1.82,5.11h-4.29Z"/><path class="cls-6" d="M170.54,298.18c0,.64-.06,1.28-.06,1.93,0,2,.09,3.88,0,5.6h-6.18v-7.53Z"/><path class="cls-6" d="M170.69,289.75h-6.36V284.2C168.53,285.21,170.15,287.21,170.69,289.75Z"/><path class="cls-6" d="M170.62,297h-6.29v-6.07h6.53A37.6,37.6,0,0,1,170.62,297Z"/><path class="cls-7" d="M164.33,290.93h6.53a11.17,11.17,0,0,0-.17-1.18h-6.36V284.2q-.56-.13-1.17-.24v5.79h-6.7v-6.27h-1.17v6.26h-6.7v-6l-1.18,0v6H141v-5.08a10.29,10.29,0,0,0-1.17.5v4.58h-4a11.61,11.61,0,0,0-.43,1.18h4.44V297h-5.44c0,.38,0,.78-.06,1.18h5.5v7.53h-5.27q.06.59.15,1.17h5.12V312h-3.6a10.54,10.54,0,0,0,.67,1.18h2.93v3a9.44,9.44,0,0,0,1.17.68v-3.66h6.42v5.12h1.18v-5.13h6.7v4.43l1.17-.21v-4.22h6.7v2.45c.41-.16.8-.32,1.17-.49v-2h3.16a8.89,8.89,0,0,0,1.13-1.18h-4.29v-5.11h6.11c0-.38.05-.77.07-1.17h-6.18v-7.53h6.21c0-.39.05-.79.08-1.18h-6.29ZM147.41,312H141v-5.11h6.42Zm0-6.28H141v-7.53h6.42Zm0-8.71H141v-6.07h6.42Zm7.88,15h-6.7v-5.11h6.7Zm0-6.28h-6.7v-7.53h6.7Zm0-8.71h-6.7v-6.07h6.7Zm7.87,15h-6.7v-5.11h6.7Zm0-6.28h-6.7v-7.53h6.7Zm0-8.71h-6.7v-6.07h6.7Z"/><path class="cls-4" d="M153.18,293.71c-.29,3.16-3.5,7.51-7.65,6.62-4.67-1-7.37-3.46-7.72-6.62-.37-3.4,3.47-6.26,7.72-6.26S153.62,289,153.18,293.71Z"/><path class="cls-5" d="M145.59,299.14a4.52,4.52,0,0,1-2.11-.49,5.61,5.61,0,0,1-2.66-3.51,3.93,3.93,0,0,1,.37-3.16,4.77,4.77,0,0,1,4.26-1.74,3.9,3.9,0,0,1,3.37,1.65c.54,1.06,0,2.65-.73,3.75a3,3,0,0,1-2.44,1.61c-1.11-.11-2-1.55-2.4-2.94-.14-.49-.41-1.68.13-2.1s1.41,0,3.06,1.38l-.39.48c-1.92-1.56-2.14-1-2.14-1s-.33.14,0,1.12a2.13,2.13,0,0,0,1.84,1.68,1.63,1.63,0,0,0,1.87-.62,3.17,3.17,0,0,0,.12-3.17,2.35,2.35,0,0,0-2.29-1.26,3.22,3.22,0,0,0-3.12,1.51,3.35,3.35,0,0,0-.87,2.61,4,4,0,0,0,2.43,2.49,4.57,4.57,0,0,0,4.31.38,4.68,4.68,0,0,0,2.34-3.8,4,4,0,0,0-1.64-4.07c-2.44-1.73-7-.36-10.05,2.2l.26-1.26c3.31-2.75,7.48-3.34,10.15-1.45a5.44,5.44,0,0,1,2.43,4.84,5.72,5.72,0,0,1-3.2,4.09A6.25,6.25,0,0,1,145.59,299.14Z"/><path class="cls-4" d="M168.31,306.61c-.33,3.51-3.89,8.33-8.5,7.35-5.18-1.1-8.18-3.85-8.56-7.35-.42-3.77,3.85-6.94,8.56-6.94S168.79,301.32,168.31,306.61Z"/><path class="cls-5" d="M159.88,312.64a4.91,4.91,0,0,1-2.33-.55,6.23,6.23,0,0,1-3-3.89,4.34,4.34,0,0,1,.41-3.51c1-1.56,3.11-2,4.73-1.93,1.79.1,3.22.8,3.74,1.83.6,1.18,0,2.94-.81,4.16s-1.84,1.88-2.71,1.79c-1.23-.12-2.22-1.72-2.66-3.26-.16-.55-.46-1.87.14-2.33s1.56,0,3.39,1.53l-.43.53C158.26,305.28,158,306,158,306s-.37.15,0,1.24a2.37,2.37,0,0,0,2,1.87,1.82,1.82,0,0,0,2.07-.7,3.54,3.54,0,0,0,.14-3.51,2.61,2.61,0,0,0-2.54-1.4,3.57,3.57,0,0,0-3.47,1.67c-.5.77-1.26,1.77-1,2.9a4.42,4.42,0,0,0,2.69,2.76,5,5,0,0,0,4.79.42,5.19,5.19,0,0,0,2.6-4.21,4.41,4.41,0,0,0-1.83-4.52c-2.71-1.92-7.73-.4-11.16,2.44l.3-1.4c3.67-3,8.3-3.7,11.26-1.61a6.06,6.06,0,0,1,2.7,5.37,6.4,6.4,0,0,1-3.55,4.55A7,7,0,0,1,159.88,312.64Z"/></g><g id="baguette"><path class="cls-8" d="M234.93,306.79c1.84,2.51-7.09,16.72-24,32-16.24,14.66-30.61,26.81-32,24-2.09-4.18,7.73-17.55,24-32S231.27,301.78,234.93,306.79Z"/><path class="cls-2" d="M188.34,351.07a3.45,3.45,0,0,0,2.63,2.76c1,.18,1.38-1.92.9-3.71s-1.11-4.15-2.63-2.76A3.54,3.54,0,0,0,188.34,351.07Z"/><path class="cls-2" d="M195.77,344c.58,2.31,2,3.38,3.23,3.63s1.69-2.42,1.11-4.72-1.35-5.36-3.22-3.63A4.61,4.61,0,0,0,195.77,344Z"/><path class="cls-2" d="M203.64,336.45a4.53,4.53,0,0,0,3.39,3.67c1.36.25,1.84-2.49,1.24-4.84s-1.38-5.46-3.39-3.67A4.66,4.66,0,0,0,203.64,336.45Z"/><path class="cls-2" d="M211.49,329.16a4.11,4.11,0,0,0,3,3.31c1.18.23,1.57-2.22,1-4.32s-1.24-4.9-3-3.31A4.19,4.19,0,0,0,211.49,329.16Z"/><path class="cls-2" d="M219,321.6a3.68,3.68,0,0,0,3,3c1.21.18,1.69-2.09,1.2-4s-1.13-4.48-3-3A3.8,3.8,0,0,0,219,321.6Z"/></g><g id="platebread"><path id="plate" class="cls-6" d="M294.28,333.34c3.32,8.49-14.11,26-20.64,20.63-8.81-7.23-18.67-11.88-20.63-20.63-2.49-11.12,8.49-17,20.63-20.64C284.56,309.42,288.38,318.24,294.28,333.34Z"/><path class="cls-2" d="M286.75,324.59c0-1.93-2.71-3.49-13.09-3.49-7.44,0-13.09,1.56-13.09,3.49,0,1.23,2.37,2.31,5.95,2.93-.87,1.63.11,8.81-.26,10.88-1.17,6.6,2.65,5.14,7.31,5.14s10.27,1.46,9.72-4.17c-.2-2.08-.1-10.53-1-12.16C286,326.59,286.75,325.84,286.75,324.59Z"/><path class="cls-9" d="M280.26,328.64c3.7-2.81-1.09-2.91-2.6-3.37a1.62,1.62,0,0,1-1-1c-.46-1.24-1.32,1.14-2.12,1.14s-1.33-2.41-1.79-1.21a1.55,1.55,0,0,1-1.42,1.07h0c-1.88,0-5.07,4.75-3.4,5,1,.14-.88,2.23.73,3.1a1,1,0,0,1,.2,1.34c-2.42,3.1,0,2.18,0,2.65,0,2.75,1.41,3.67,3.29,3.67a3.06,3.06,0,0,0,2.54-1.67,1.47,1.47,0,0,1,1.48-.75,2.85,2.85,0,0,1,.41,0c6.77,2.38,1.11-4.32,3.4-5,2.63-.75-.48-2.2.5-3,1.43-1.13-2.07-.76-1.83-1.22S279.84,329,280.26,328.64Z"/></g><path class="cls-10" d="M74.87,463.39a49,49,0,0,1-1.4,4.9,1.37,1.37,0,0,1-1.3.93H34.83v0a51.56,51.56,0,0,1-1.51-5.74c-1.07-5.16-1.88-12.64.87-17.43,1.37-2.39,9.91-1.52,12.86-1.15a1.36,1.36,0,0,0,1.42-.79l.56-1.22a1.36,1.36,0,0,1,1.25-.8h6.46a2.83,2.83,0,0,1,2.57,1.64l.2.43a1.38,1.38,0,0,0,1.36.79c2.89-.26,11.43-.81,12.9,1.53C76.81,451.29,76,458.41,74.87,463.39Z"/><path class="cls-11" d="M74.8,463.71a46.58,46.58,0,0,1-1.61,5.35.24.24,0,0,1-.22.16H34.9s0,0-.07,0a34.15,34.15,0,0,1-1.46-5.52.24.24,0,0,1,.25-.29h0c23.44,2.38,31.36.54,40.93,0A.25.25,0,0,1,74.8,463.71Z"/><circle class="cls-12" cx="54.09" cy="456.92" r="8.88"/><circle class="cls-13" cx="54.09" cy="456.92" r="7.25"/><circle class="cls-13" cx="54.09" cy="456.92" r="6.26"/><path d="M54.09,463.36a6.44,6.44,0,1,1,6.44-6.44A6.45,6.45,0,0,1,54.09,463.36Zm0-12.52a6.09,6.09,0,1,0,6.08,6.08A6.09,6.09,0,0,0,54.09,450.84Z"/><path class="cls-14" d="M70.46,445.34H66.71c-.47.14-.61-.27-.61-.61v-.06a.54.54,0,0,1,.61-.61h3.75c.47-.07.61.27.61.61v.06C71.07,445.07,70.93,445.48,70.46,445.34Z"/><path class="cls-14" d="M42.83,444.77h-4.3c-.75.18-.75-.32-.75-.71h0c0-.39-.11-.75.71-.71h4.34c.67-.07.71.32.71.71h0C43.57,444.84,43.22,444.77,42.83,444.77Z"/><path class="cls-14" d="M41.62,443.49H39.7c-.34,0-.61.07-.61-.6h0c0-.34-.17-.46.57-.54l2-.07c.53,0,.6.27.6.61h0C42.22,443.56,42,443.49,41.62,443.49Z"/><path class="cls-14" d="M69.43,450.88l-1.55.07a.86.86,0,0,1-.86-.86v-1.62a.87.87,0,0,1,.86-.86h1.55c.48,0,.93.18.93.65L70.29,450A.85.85,0,0,1,69.43,450.88Z"/><path d="M69.43,450.88l-1.62.07a.86.86,0,0,1-.86-.86V448.4a.87.87,0,0,1,.86-.86h1.62c.48,0,.93.17.93.65L70.29,450A.85.85,0,0,1,69.43,450.88Zm-1.55,0,1.48-.07a.87.87,0,0,0,.86-.86l.07-1.7c0-.47-.28-.64-.93-.64H67.88a.87.87,0,0,0-.86.86V450A.86.86,0,0,0,67.88,450.88Z"/><path class="cls-15" d="M226.51,401.33c.94,1.62,8.33,11,7.75,11.51s-5-3.88-9.88-9.75-6.58-7.77-6.18-8.42C219.23,393,222.68,394.74,226.51,401.33Z"/><path class="cls-15" d="M228.78,396.9c.32,2.82,4.05,20.78,3.31,21s-3.43-8.94-6-20.34-3.54-15.22-2.92-15.74C224.75,380.45,227.46,385.38,228.78,396.9Z"/><path class="cls-15" d="M235.46,395.71c-.61,3-2.88,22.5-3.64,22.42s-.36-10.23.89-22.69,1.56-16.66,2.32-17C237,377.64,237.93,383.55,235.46,395.71Z"/><path class="cls-15" d="M236.83,395.45c-1.2,2.79-7.36,21.45-8.09,21.22s1.72-10.09,5.45-22.05,4.89-16,5.7-16.16C241.94,378.05,241.71,384,236.83,395.45Z"/><path class="cls-15" d="M236.41,404.38c-1.28,1.36-8.23,11.11-8.86,10.68s2.31-5.9,6.57-12.22,5.6-8.51,6.34-8.31C242.33,395.05,241.65,398.85,236.41,404.38Z"/><path class="cls-15" d="M232.15,400.72c-.29,1.84-.51,13.81-1.27,13.81s-1.43-6.17-1.49-13.79-.18-10.19.54-10.44C231.76,389.68,233.35,393.19,232.15,400.72Z"/><path class="cls-16" d="M247.85,385.92c0-.09-.07-.22,0-.28,3.22-2.41-.61-6.72-2.77-6.72-1.47,0-3.89,2.66-4.55,4.26-1.7-.84-4.86-4.19-5.59.39a8.5,8.5,0,0,0,1.65,6.47c-1.51,2.72-1.42,5.82.27,7.08,1.52,1.14,3.5,2.82,5.23.83,1.51,2.11,4.93,2.49,6.18,1.71,1-.65,2.64-4.06,2.21-6,2.26-.09,4.76-2.2,4.29-3.57C253.27,385.72,250.81,387.27,247.85,385.92Z"/><path class="cls-12" d="M246.1,389.75a2.67,2.67,0,0,1-2.34,2.75c-2.16.4-2.69-1.23-2.69-2.75s.67-3.63,2.69-2.75S246.1,388.23,246.1,389.75Z"/><path class="cls-2" d="M251.56,374.57c-.65-.65-2.13-.83-1.75-1.49,3-5.26,3-8.2-4.15-7.78-1,.06-2.36,1.55-3.2,2-.89-1.3-2.41-2.27-3.64-3.43-2.81-2.67-4.94,2.25-4.94,5a21.74,21.74,0,0,0,.28,2.81c-1.73.82-5,.8-3.85,3.43,1.06,2.39,3.36,3.25,5.84,3.58.17,2.76-.37,5.88,3.38,6.94,4.44,1.26,3.76-1.82,5.2-3.86,2.58,1.68,4,1.33,8,.88C255.48,382.4,254,377,251.56,374.57Z"/><path class="cls-17" d="M246,374.62A4,4,0,0,1,242,377.7c-1.69,0-4.5-2.34-3.68-4.13.72-1.56,3-2.52,4.74-2.52S246.55,371.77,246,374.62Z"/><path class="cls-18" d="M236.86,380.17c5-.4,5-4.42,2.94-6.61-.07-.08,1.13,1.9,0-.26-1.77-3.46,5.11-2,1.77-7.53a4.67,4.67,0,0,0-5.79-1.59.16.16,0,0,1-.22-.11c-.58-2.27-.82-5.09-4.21-3.3a9,9,0,0,0-4.22,5.32.17.17,0,0,1-.23.12c-2.61-1.11-2-.52-5.89,1.46-1.67.85-1,4.18,2.52,5.7a.17.17,0,0,1,.06.27c-1.66,2-3.92,7.48-2.49,8,4.58,1.75,4.92-.43,8.64-1.72"/><path class="cls-4" d="M234.52,371.62c-.46,1.15-.71,3.06-2.62,2.31-3.54-1.4-2.63-1-2.63-2.31a2.48,2.48,0,0,1,2.63-2.31C233.35,369.31,235.43,369.31,234.52,371.62Z"/><path class="cls-18" d="M225.28,396.83c4.09-2.52,2.31-5.91-.37-6.89-.09,0,1.79,1.12-.09-.23-3-2.17,3.46-3.94-1.77-7.17a4.46,4.46,0,0,0-5.6,1.17.16.16,0,0,1-.24,0c-1.47-1.68-2.9-4-5-1a8.52,8.52,0,0,0-1.26,6.35.17.17,0,0,1-.15.2c-2.7.19-1.91.42-4.36,3.8-1.06,1.44.93,4,4.61,3.75a.16.16,0,0,1,.17.19c-.52,2.45-.08,8.06,1.38,7.91,4.64-.5,4-2.5,6.58-5.21"/><path class="cls-4" d="M219.58,390.59c.11,1.18.73,2.9-1.22,3.09-3.61.35-2.68.27-3.24-.81a2.39,2.39,0,0,1,1.24-3.11C217.59,389.13,219.35,388.23,219.58,390.59Z"/><path class="cls-2" d="M237.24,384.67c-.69-.38-2-.18-1.8-.81,1.23-5,.52-7.46-5.27-5.4-.81.29-1.57,1.84-2.14,2.44a22.36,22.36,0,0,0-3.81-2c-2.95-1.51-3.52,3.05-2.86,5.34a20.77,20.77,0,0,0,.9,2.23c-1.22,1.09-3.92,1.87-2.34,3.75,1.45,1.7,3.54,1.86,5.66,1.54.8,2.23,1.1,4.92,4.44,4.89,3.95,0,2.65-2.39,3.35-4.41,2.52.76,3.59.14,6.77-1.2C242.34,390.16,239.84,386.08,237.24,384.67Z"/><path class="cls-17" d="M232.65,386.05a3.42,3.42,0,0,1-2.5,3.48c-1.39.4-4.26-.86-4-2.52.22-1.45,1.9-2.81,3.29-3.21S232.45,383.57,232.65,386.05Z"/><path class="cls-16" d="M224.9,373.26c0-.09-.06-.22,0-.27,3-2.25-.57-6.27-2.58-6.27-1.38,0-3.64,2.48-4.26,4-1.59-.78-4.53-3.91-5.22.37a8,8,0,0,0,1.54,6c-1.41,2.54-1.32,5.44.25,6.62s3.27,2.63,4.89.77c1.41,2,4.61,2.33,5.77,1.6,1-.61,2.47-3.8,2.06-5.63,2.12-.09,4.46-2.06,4-3.34C230,373.07,227.67,374.51,224.9,373.26Z"/><path class="cls-12" d="M223.26,376.84a2.48,2.48,0,0,1-2.19,2.56c-2,.38-2.51-1.14-2.51-2.56s.63-3.4,2.51-2.58S223.26,375.42,223.26,376.84Z"/><path class="cls-19" d="M200.85,262.81s-4.95-12.43-3.68-13.36,6.59,8.92,6.59,8.92-1.23-10.41-.46-11.65c2.84-4.57,3.64,8.46,3.64,8.46s2.06-10.16,3.35-9.6S213.7,258,213.7,258s6.37-9.67,7.27-8.52c3.9,5-4.26,14.6-4.26,14.6s6.89-4.79,7.39-3.3c2,6-9.35,11.16-9.35,11.16s9.09,3.57,9.57,5.6c1.29,5.36-7.1,1.87-7.1,1.87s3.46,7.14,1.65,8.47c-4.26,3.12-6.87-5.23-6.87-5.23s-1.29,6.47-5.91,4.89c-5.86-2-.82-7.46-.82-7.46s-5,5.06-6.24,4.49,1.31-7.41,1.31-7.41-4.91-.34-5.69-1.57,7.41-5,7.41-5-7.27,1.27-7.6-.26c-1.58-7.26,7.17-2.64,7.17-2.64s-11.56-8.8-9.46-12.07C194.42,252.08,200.85,262.81,200.85,262.81Z"/><ellipse class="cls-7" cx="202.1" cy="266.91" rx="5.24" ry="14.68"/><ellipse class="cls-7" cx="215.06" cy="265.04" rx="5.62" ry="15.59"/><path class="cls-20" d="M205,274.16c0,3.63-.57,5.53-2.45,5.53s-3.41-2.94-3.41-6.57,1.53-6.57,3.41-6.57S205,270.53,205,274.16Z"/><ellipse class="cls-20" cx="215.58" cy="272.6" rx="2.62" ry="6.8"/><path class="cls-20" d="M214.67,280.24c0,.53-1.71,2.78-4.95,2.78s-5.56-2.31-5.56-2.84,2.33,1.87,5.56,1.87S214.67,279.7,214.67,280.24Z"/><rect x="148.51" y="390.44" width="40.09" height="2.76" rx="0.71" transform="translate(-227.69 233.94) rotate(-45)"/><rect x="158.67" y="368.25" width="27.97" height="3.18" rx="0.82" transform="translate(312.09 -13.76) rotate(45)"/><rect x="105.82" y="396.8" width="40.09" height="2.76" rx="0.71" transform="translate(-66.68 768.73) rotate(-135)"/><rect x="107.77" y="374.61" width="27.97" height="3.18" rx="0.82" transform="translate(473.86 556.11) rotate(135)"/><path class="cls-21" d="M147.23,435.62h0a10.43,10.43,0,0,1-10.39-10.39s-4-22.66,0-40.09c1.27-5.57,4.68-10.39,10.39-10.39h0a10.42,10.42,0,0,1,10.4,10.39s6.62,30.58,0,40.09C152.73,432.25,153,435.62,147.23,435.62Z"/><path class="cls-22" d="M199.74,446.22c.34,0,.68,0,1-.08a4.45,4.45,0,0,1-.81.08Z"/><path class="cls-22" d="M202.42,422.67a12.3,12.3,0,0,0-2.21-.38l.52,0A3.89,3.89,0,0,1,202.42,422.67Z"/><path class="cls-23" d="M201.65,445.62h-.44s-55.62,1.48-74.92.63c-.61,0-34-.68-34.61-.77l.18,0h0C95.19,445.11,99,440,99,433.68c0-4.9-2-9-4.34-10.94a4.8,4.8,0,0,0-2.21-1l-.26,0a10.75,10.75,0,0,1,1.28-.07s81-6.36,107.74,0a6.93,6.93,0,0,0,.91,0c5.19,11.63-11.23,6.58-7,11.41C199.67,438.2,204.55,431.63,201.65,445.62Z"/><path class="cls-22" d="M209.38,433.75c0,6.26-3.86,11.07-7.13,11.79h0c-.33,0-.67.07-1,.08-7.7.43-6.48-5.86-6.48-12.51,0-6.41-9.59-11,6.67-11.41a5.43,5.43,0,0,1,.57,0c.32,0,.65.08,1,.14a4.71,4.71,0,0,1,2.11.95C207.42,424.72,209.38,428.85,209.38,433.75Z"/><path class="cls-22" d="M99,433.68c0,6.27,6.5,10-7.13,11.79h0l-.18,0a11.06,11.06,0,0,1-1.83-.42,4.83,4.83,0,0,1-2.26-1.5c-1.87-2.25-3.23-6.17-3.23-10.52a13.19,13.19,0,0,1,4-9.93,4.8,4.8,0,0,1,1.8-1c.34-.1.69-.19,1-.26a4.7,4.7,0,0,1,2,0h0a4.2,4.2,0,0,0,.71.11C100.77,422.49,99,428.11,99,433.68Z"/><path class="cls-22" d="M90.28,422.33a11.56,11.56,0,0,0-3,.72,5.14,5.14,0,0,1,2.11-.82A8.46,8.46,0,0,1,90.28,422.33Z"/><path d="M220,433.39H201.21V431.7h18.56v1.24A.54.54,0,0,0,220,433.39Z"/><path d="M221,429v4a.64.64,0,0,1-.1.33.74.74,0,0,1-.13.12H220a.54.54,0,0,1-.23-.45v-4a.56.56,0,0,1,.56-.56h.15A.56.56,0,0,1,221,429Z"/><path d="M73.43,434.56H92.22v-1.69H73.66v1.24A.56.56,0,0,1,73.43,434.56Z"/><path d="M72.38,430.14v4a.57.57,0,0,0,.11.33l.12.12h.82a.56.56,0,0,0,.23-.45v-4a.56.56,0,0,0-.57-.56H73A.56.56,0,0,0,72.38,430.14Z"/><circle class="cls-21" cx="146.49" cy="373.79" r="20.26"/><path class="cls-22" d="M147.13,394.68a21.55,21.55,0,0,1-21.53-21.52c0-11.87,9.81-19.63,21.53-21.53,15.43-2.51,21.53,9.66,21.53,21.53A21.55,21.55,0,0,1,147.13,394.68Zm0-40.51c-10.47,0-17.19,8.67-19,19-2.28,13.08,8.52,19,19,19a19,19,0,0,0,0-38Z"/><path class="cls-7" d="M147.22,389.83l-.86,0a20,20,0,0,1-13.82-6.71,11.7,11.7,0,0,1-2.91-8.92v.14c-.34,2.94,1.25,5.79,3.4,8.37a19.31,19.31,0,0,0,13.37,6.48,17.47,17.47,0,0,0,13.16-5.3,12.72,12.72,0,0,0,3.37-10.18l.2.48A11.83,11.83,0,0,1,160,384.3,18.27,18.27,0,0,1,147.22,389.83Z"/><path class="cls-7" d="M147,386.06q-.36,0-.69,0a16.61,16.61,0,0,1-11.13-5,8.24,8.24,0,0,1-2.35-6.59v.1c-.27,2.18,1,4.28,2.74,6.19a16.08,16.08,0,0,0,10.77,4.79,14.73,14.73,0,0,0,10.6-3.92,8.93,8.93,0,0,0,2.71-7.53l.17.36a8.31,8.31,0,0,1-2.5,7.49A15.37,15.37,0,0,1,147,386.06Z"/><circle class="cls-7" cx="138.43" cy="368.07" r="2.86"/><circle class="cls-7" cx="142.46" cy="377.4" r="2.86"/><circle class="cls-7" cx="146.49" cy="362.34" r="2.86"/><circle class="cls-7" cx="154.55" cy="367.43" r="2.86"/><circle class="cls-7" cx="152.22" cy="377.19" r="2.86"/><circle cx="137.26" cy="367.54" r="1.06"/><circle cx="143.42" cy="378.35" r="1.06"/><circle cx="151.69" cy="378.35" r="1.06"/><circle cx="155.51" cy="367.11" r="1.06"/><circle cx="146.38" cy="361.38" r="1.06"/><rect class="cls-24" x="55.92" y="318.21" width="4.25" height="80.46" rx="1.1"/><rect class="cls-24" x="47.42" y="393.6" width="12.76" height="5.08" rx="1.31"/><rect class="cls-24" x="80.78" y="307.61" width="4.25" height="80.46" rx="1.1" transform="translate(317.82 617.44) rotate(152.34)"/><rect class="cls-24" x="97.8" y="376.71" width="12.76" height="5.08" rx="1.31" transform="translate(372.5 666.8) rotate(152.34)"/><path class="cls-24" d="M30.29,315.16h2.06a1.14,1.14,0,0,1,1.14,1.14v70.83a1,1,0,0,1-1,1H30.29a1,1,0,0,1-1-1V316.21a1,1,0,0,1,1-1Z" transform="translate(161.34 23.4) rotate(26.7)"/><rect class="cls-24" x="5.82" y="378.02" width="12.76" height="4.61" rx="1.19" transform="translate(172.16 35.06) rotate(26.7)"/><path class="cls-25" d="M86.05,260.79c-9,34.95-12.72,63.62-28.71,63.09-20.19-.66-31.88-27.6-29.42-61.67,2.49-34.49-4.88-63.5,29.42-64.87C94.5,195.85,95.27,225.16,86.05,260.79Z"/><ellipse class="cls-7" cx="56.28" cy="255.12" rx="14.18" ry="20.2"/><ellipse class="cls-12" cx="56.28" cy="265.2" rx="4.61" ry="6.91"/><path class="cls-6" d="M70,278.67c0,3.41-.63,3.5-1.49,3.5s-1.65-.09-1.65-3.5.86-8.29,1.72-8.29S70,275.26,70,278.67Z"/><path class="cls-7" d="M64.24,304.79a.25.25,0,0,1-.12,0,.46.46,0,0,1-.41-.35,15.45,15.45,0,0,0-2.43-5.92,8.5,8.5,0,0,0-1.68-1.75,6.9,6.9,0,0,0-4.3-1.44,9.69,9.69,0,0,0-3.86.82,11.36,11.36,0,0,0-2.26,1.26,9.75,9.75,0,0,0-4,5.32.45.45,0,0,1-.53.34.46.46,0,0,1-.34-.54,10.17,10.17,0,0,1,4-5.55c.24-.18.48-.36.73-.52a13.06,13.06,0,0,1,2.43-1.26,10.69,10.69,0,0,1,3.85-.77,9,9,0,0,1,4.41,1.16A8.33,8.33,0,0,1,62,297.51a13.19,13.19,0,0,1,2.64,6.75A.46.46,0,0,1,64.24,304.79Z"/><path class="cls-7" d="M51.45,295.21A13.06,13.06,0,0,0,49,296.47l0-6.06c0-.61.67-3.52,1.33-3.52s1.1,2.77,1.09,3.37Z"/><path class="cls-7" d="M62.73,289.17,62,297.43s0,.05,0,.08a8.33,8.33,0,0,0-2.24-1.91l.6-6.51c.07-.76,1-4.33,1.7-4.27S62.8,288.42,62.73,289.17Z"/><path class="cls-26" d="M798.37,414c-6.55,86.26-329.8,95.51-333.14,9.08C457.67,227.9,360.14,173.6,435,101.69,498.64,40.53,661.81,80.35,760.1,94,864.86,108.49,809.24,271,798.37,414Z"/><path class="cls-6" d="M787.13,402.65c-6.56,86.26-329.8,95.51-333.15,9.08C446.42,216.51,348.89,162.21,423.74,90.3,487.39,29.14,650.56,69,748.85,82.58,853.62,97.1,798,259.64,787.13,402.65Z"/><path class="cls-17" d="M391.54,136c6.4,22.67-46.46,69.63-121.46,78.55-105.92,12.58-122.27-.45-152.94,2-38.24,3.05,45.36-63.8,129.8-84.13C361.79,104.72,385.15,113.27,391.54,136Z"/><path class="cls-14" d="M387.84,131.58c6.4,22.68-46.46,69.64-121.46,78.55-105.92,12.59-122.27-.45-152.94,2C75.2,215.2,158.8,148.35,243.24,128,358.09,100.35,381.45,108.9,387.84,131.58Z"/><path class="cls-27" d="M149.71,183.8c-.38-2,1.4-3,3.93-3.83-.26-1.17-.71-1.46-1.5-1.3a4,4,0,0,0-2.18,1.6,6.73,6.73,0,0,0-1.34-1.37A7,7,0,0,1,152,177c2.17-.43,3.21.5,3.59,2.41.22,1.2.41,2.37.61,3.47q.15.75.3,1.44a9.42,9.42,0,0,1-3.08,1.1C151.12,185.91,150,185.31,149.71,183.8Zm2-.63c.15.79.69.93,1.54.76s1.11-.51.68-2.61C152.46,181.61,151.51,182.3,151.68,183.17Z"/><path class="cls-27" d="M158.83,184.31a28,28,0,0,1-1-3.72,35.06,35.06,0,0,1-.73-7.12,19.62,19.62,0,0,0,2.26-.45,16.38,16.38,0,0,0-.08,3.42,5,5,0,0,1,2.33-1.28c1.46-.29,2.47.33,3,2.79a43.84,43.84,0,0,1,.63,5.09,22.21,22.21,0,0,0-2.27.45,35.36,35.36,0,0,0-.44-4.57c-.33-1.66-.7-2-1.47-1.85s-1.43.89-1.11,2.52a37.5,37.5,0,0,0,1.14,4.27A16.88,16.88,0,0,0,158.83,184.31Z"/><path class="cls-27" d="M167.7,182.56a28.42,28.42,0,0,1-.95-3.72,35.21,35.21,0,0,1-.73-7.12c.73-.11,1.49-.26,2.26-.45a16.4,16.4,0,0,0-.07,3.42,4.78,4.78,0,0,1,2.32-1.28c1.46-.29,2.47.33,3,2.78a46.55,46.55,0,0,1,.64,5.1,22.36,22.36,0,0,0-2.28.44,35.22,35.22,0,0,0-.44-4.56c-.32-1.66-.69-2-1.47-1.86s-1.43.9-1.11,2.53a38.11,38.11,0,0,0,1.14,4.27A15.45,15.45,0,0,0,167.7,182.56Z"/><path class="cls-27" d="M183.85,179.36a47.53,47.53,0,0,0-.65-5c-.23-1.07-.54-1.61-1.34-1.45a1.67,1.67,0,0,0-1,.56c-.27.34-.36.79-.12,2,.36,1.72.93,3.52,1.13,4.19a16.3,16.3,0,0,0-2.19.43c-.33-1.08-.69-2.45-1-4.06-.21-1.06-.4-2.25-.59-4.07a13.9,13.9,0,0,0,2-.41,7.11,7.11,0,0,0,.12.89,4.12,4.12,0,0,1,2.24-1.45c1.47-.29,2.4.44,2.89,2.95a36.51,36.51,0,0,1,.6,4.91A12.09,12.09,0,0,0,183.85,179.36Z"/><path class="cls-27" d="M187.06,174.73c-.61-3.06.92-4.76,3.12-5.19,1.41-.28,2.7.15,3,1.55.43,2.15-2.35,3.36-3.9,4.13a1.65,1.65,0,0,0,2,1.06,2.74,2.74,0,0,0,2.12-2c.31.07.55.36.65.87.28,1.4-1,2.56-2.68,2.89C188.77,178.56,187.51,177,187.06,174.73Zm1.82-.72c1.24-.6,2.58-1.54,2.41-2.43-.09-.4-.46-.64-1-.53C189.17,171.26,188.62,172.4,188.88,174Z"/><path class="cls-27" d="M194.32,167.16c-.12-.58.24-1,1.11-1.21s1.37.12,1.49.7-.19,1-1.12,1.18S194.43,167.73,194.32,167.16Zm1,8a1.49,1.49,0,0,0,.66.09c.41-.08.59-.42.2-2.35a25.35,25.35,0,0,0-1.16-4.18,19.2,19.2,0,0,0,2.11-.42,27,27,0,0,1,1.07,3.93c.68,3.38.26,4.43-1.32,4.74a3,3,0,0,1-1.56-.06A11.35,11.35,0,0,0,195.28,175.15Z"/><path class="cls-27" d="M206.59,175.09c-2.14-.88-3.46-3-4.08-6.19a6.08,6.08,0,0,1-.16-1.65,17.14,17.14,0,0,0,2.33-.46,20.36,20.36,0,0,0,.32,2.74,5.24,5.24,0,0,0,1.66,3.21,5.7,5.7,0,0,0,.38-4.23c-.14-.67-.45-1.93-.48-2.07a20.52,20.52,0,0,0,2.18-.44c0,.25.26,2,.45,3a3.86,3.86,0,0,0,1.77,2.87,6.59,6.59,0,0,0,.22-4.22,15.45,15.45,0,0,0-.56-2c.79-.12,1.62-.28,2.39-.47a10.59,10.59,0,0,1,.31,1.22c.85,4.3-.64,6.65-1.8,7.78a8.9,8.9,0,0,1-2.86-2.05A9.41,9.41,0,0,1,206.59,175.09Z"/><path class="cls-27" d="M215.08,169.19c-.61-3.06.91-4.76,3.12-5.19,1.41-.28,2.69.15,3,1.55.43,2.15-2.35,3.37-3.91,4.14a1.67,1.67,0,0,0,2,1.05,2.74,2.74,0,0,0,2.12-2c.31.08.55.36.65.87.27,1.41-1,2.56-2.68,2.89C216.79,173,215.53,171.5,215.08,169.19Zm1.82-.71c1.23-.6,2.58-1.55,2.4-2.43-.08-.41-.45-.65-1-.54C217.19,165.73,216.64,166.86,216.9,168.48Z"/><path class="cls-27" d="M227.69,170.7a23,23,0,0,1-1.27-4.35,19.19,19.19,0,0,1-.42-3.77,14.77,14.77,0,0,0,1.78-.35c0,.24.06.46.11.7a3,3,0,0,1,1.91-1.2,19,19,0,0,0,.26,2.27,5.35,5.35,0,0,0-1.1,0c-.57.12-.76.45-.58,1.35a19.41,19.41,0,0,0,1.66,4.84A18.1,18.1,0,0,0,227.69,170.7Z"/><path class="cls-27" d="M237.18,168a3.83,3.83,0,0,1-2.24,1.43c-1.72.34-2.51-.68-3.05-3.43a32.39,32.39,0,0,1-.5-4.44,19.9,19.9,0,0,0,2.15-.42,32.66,32.66,0,0,0,.58,4.82c.26,1.34.73,1.68,1.42,1.54a1.37,1.37,0,0,0,.87-.51c.36-.41.41-1,.2-2.13a19,19,0,0,0-1.16-4.1,13.89,13.89,0,0,0,2.17-.43,27.81,27.81,0,0,1,1.08,3.95c.23,1.13.41,2.33.65,4.16a11.77,11.77,0,0,0-2,.4C237.33,168.59,237.26,168.27,237.18,168Z"/><path class="cls-27" d="M245.81,167.12a41.84,41.84,0,0,0-.65-5c-.22-1.08-.53-1.62-1.34-1.46a1.72,1.72,0,0,0-1,.56c-.27.34-.36.8-.11,2,.35,1.72.93,3.51,1.13,4.18a16.47,16.47,0,0,0-2.2.44c-.32-1.09-.69-2.46-1-4.06a41.12,41.12,0,0,1-.58-4.08,14,14,0,0,0,2-.4,7,7,0,0,0,.13.89,4.16,4.16,0,0,1,2.23-1.46c1.48-.29,2.4.45,2.9,3a36.24,36.24,0,0,1,.6,4.9A12,12,0,0,0,245.81,167.12Z"/><path class="cls-27" d="M252.25,161.75c-.51-2.59.37-4.6,2.78-5.07s3.79,1,4.32,3.66c.57,2.9-.72,4.41-2.83,4.83S252.83,164.64,252.25,161.75Zm5-1.12c-.34-1.74-1.07-2.54-2-2.36s-1.29,1.2-.95,2.93.92,2.4,1.95,2.2S257.57,162.27,257.23,160.63Z"/><path class="cls-27" d="M266.25,162.2a3.83,3.83,0,0,1-2.24,1.43c-1.72.34-2.51-.68-3.05-3.42a32.56,32.56,0,0,1-.5-4.44,19.3,19.3,0,0,0,2.14-.43,34.07,34.07,0,0,0,.59,4.82c.26,1.34.73,1.69,1.42,1.55a1.37,1.37,0,0,0,.87-.51c.36-.42.41-1,.2-2.13a19,19,0,0,0-1.16-4.1,16.66,16.66,0,0,0,2.17-.43,28.81,28.81,0,0,1,1.08,4c.23,1.13.41,2.32.65,4.16a11,11,0,0,0-2,.39C266.39,162.84,266.33,162.53,266.25,162.2Z"/><path class="cls-27" d="M271.67,162.33a18,18,0,0,1-1.46-4.53c-.11-.51-.23-1.29-.34-2.13l-1.1.26c0-.62-.06-1.28-.14-1.82.41,0,.67-.06,1.05-.12,0-.51-.09-1-.1-1.43a6.79,6.79,0,0,1,2.19-1.06,11.74,11.74,0,0,0-.1,2.13c.48-.09.92-.19,1.48-.33a12.35,12.35,0,0,0,.3,1.77c-.31,0-.92.1-1.65.23,0,.35.1.71.17,1.06a17.44,17.44,0,0,0,1.87,5A12.94,12.94,0,0,0,271.67,162.33Z"/><path class="cls-27" d="M278.13,156.63c-.51-2.59.37-4.59,2.78-5.07s3.79,1,4.31,3.67c.57,2.89-.71,4.4-2.83,4.82S278.71,159.52,278.13,156.63Zm5-1.12c-.35-1.73-1.08-2.53-2-2.35s-1.29,1.19-.95,2.93.91,2.4,1.95,2.2S283.45,157.15,283.11,155.51Z"/><path class="cls-27" d="M288.9,152c.41,1.82,1.06,4.46,1.69,6.28a9.2,9.2,0,0,0-2.42.48c-.27-1-.54-2.14-.87-3.78-.18-.91-.34-1.78-.44-2.56l-1,.23c0-.54-.11-1.17-.2-1.83l.95-.12c-.27-2.23.37-3.15,1.87-3.44a2.7,2.7,0,0,1,1.31,0,8.62,8.62,0,0,0-.09,1.54,1.57,1.57,0,0,0-.72,0c-.5.09-.68.55-.52,1.38,0,.05,0,.12,0,.18.59-.12,1.21-.28,1.51-.35a14.83,14.83,0,0,0,.26,1.81Z"/><path class="cls-27" d="M296.78,157a29.53,29.53,0,0,1-1-4,50.54,50.54,0,0,1-.89-6.81,19.23,19.23,0,0,0,2.06-.41,51.32,51.32,0,0,0,.73,5.4,33,33,0,0,0,1.47,5.33A18.67,18.67,0,0,0,296.78,157Z"/><path class="cls-27" d="M299.87,152.43c-.61-3.06.92-4.75,3.12-5.19,1.41-.28,2.7.15,3,1.56.43,2.14-2.35,3.36-3.9,4.13a1.65,1.65,0,0,0,2,1,2.75,2.75,0,0,0,2.12-2c.31.07.55.35.65.86.28,1.41-1,2.56-2.68,2.9C301.58,156.26,300.33,154.75,299.87,152.43Zm1.82-.71c1.24-.6,2.58-1.55,2.4-2.43-.08-.41-.45-.65-1-.53C302,149,301.43,150.1,301.69,151.72Z"/><path class="cls-27" d="M317.28,153a27.51,27.51,0,0,0-.5-4.39c-.31-1.59-.68-2.19-1.48-2a1.27,1.27,0,0,0-1,1.59c.13.63.29,1.26.42,1.94a22.08,22.08,0,0,1,.39,3.32,14.07,14.07,0,0,0-2.09.42,41.18,41.18,0,0,0-.6-4.34c-.32-1.53-.55-2.18-1.34-2-1,.19-1.29,1-1,2.64a27.69,27.69,0,0,0,1.11,4.08,12.83,12.83,0,0,0-2,.41,31.11,31.11,0,0,1-1.13-4.19,32.42,32.42,0,0,1-.53-3.94,13.59,13.59,0,0,0,2.11-.42c0,.27,0,.57.08.86a4.2,4.2,0,0,1,2.11-1.41,1.83,1.83,0,0,1,1.85.62,4.08,4.08,0,0,1,2.13-1.41c1.8-.35,2.75.95,3.28,3.6a27.1,27.1,0,0,1,.49,4.23A17.84,17.84,0,0,0,317.28,153Z"/><path class="cls-27" d="M320.67,148.23c-.51-2.59.37-4.6,2.78-5.07s3.79,1,4.31,3.66c.57,2.9-.71,4.41-2.83,4.82S321.25,151.12,320.67,148.23Zm5-1.13c-.35-1.73-1.08-2.53-2-2.35s-1.29,1.2-.95,2.93.91,2.4,1.95,2.2S326,148.75,325.65,147.1Z"/><path class="cls-27" d="M334.48,149.59a47.53,47.53,0,0,0-.65-5c-.22-1.07-.54-1.61-1.34-1.45a1.67,1.67,0,0,0-1,.56c-.27.34-.36.79-.11,2,.35,1.72.92,3.52,1.13,4.19a14.75,14.75,0,0,0-2.2.43c-.32-1.08-.69-2.46-1-4.06-.21-1.06-.4-2.25-.59-4.08a12.69,12.69,0,0,0,2-.4c0,.35.07.6.12.89a4.15,4.15,0,0,1,2.24-1.45c1.47-.29,2.4.44,2.89,2.95a33.39,33.39,0,0,1,.6,4.91A12.09,12.09,0,0,0,334.48,149.59Z"/><path class="cls-27" d="M338.05,146.58c-.39-2,1.4-3,3.93-3.84-.26-1.16-.71-1.45-1.5-1.3a3.94,3.94,0,0,0-2.18,1.61,6.81,6.81,0,0,0-1.34-1.38,7,7,0,0,1,3.41-1.86c2.17-.43,3.22.5,3.59,2.4.23,1.2.42,2.38.62,3.47.1.51.2,1,.3,1.45a9.56,9.56,0,0,1-3.09,1.1C339.45,148.69,338.35,148.09,338.05,146.58Zm2-.63c.15.78.69.92,1.54.76s1.1-.51.67-2.61C340.8,144.38,339.84,145.08,340,146Z"/><path class="cls-27" d="M351.23,135.11a44,44,0,0,1,1.61,6.1,30.26,30.26,0,0,1,.57,4.16,7.25,7.25,0,0,1-3.06,1.17c-2.58.51-3.87-.58-4.35-3-.6-3.05.19-4.84,1.84-5.17a3.42,3.42,0,0,1,2.3.48,16.13,16.13,0,0,0-1.14-3.29A20,20,0,0,0,351.23,135.11Zm-.38,6.92c-.38-1.93-1.26-2.43-2-2.29s-1.19,1-.78,3.13c.36,1.85,1,2.34,2,2.14S351.34,144.43,350.85,142Z"/><path class="cls-27" d="M354.56,141.62c-.6-3.06.92-4.75,3.13-5.19,1.4-.28,2.69.15,3,1.56.42,2.14-2.35,3.36-3.91,4.13a1.66,1.66,0,0,0,2,1,2.76,2.76,0,0,0,2.13-2c.31.08.54.36.64.87.28,1.41-1,2.56-2.67,2.9C356.28,145.45,355,143.94,354.56,141.62Zm1.83-.71c1.23-.6,2.57-1.55,2.4-2.43-.08-.41-.46-.65-1-.53C356.68,138.16,356.12,139.29,356.39,140.91Z"/><path class="cls-27" d="M364.33,133.26a42.48,42.48,0,0,0,.7,7.1c-.52.13-1,.29-1.56.47a27.27,27.27,0,0,1-1.72-5.76c-.12-.61-.14-.93-.18-1.26Zm-1.06,9.63c-.15-.72.28-1.26,1.1-1.42a1.17,1.17,0,0,1,1.55.9c.14.71-.27,1.18-1.11,1.35S363.41,143.6,363.27,142.89Z"/><path class="cls-27" d="M153.8,201.69a27.78,27.78,0,0,1-1-3.72,35.75,35.75,0,0,1-.72-7.12,19.62,19.62,0,0,0,2.26-.45,16.38,16.38,0,0,0-.08,3.42,5,5,0,0,1,2.33-1.28c1.46-.29,2.47.33,3,2.79a43.84,43.84,0,0,1,.63,5.09,22.21,22.21,0,0,0-2.27.45,35.36,35.36,0,0,0-.44-4.57c-.33-1.66-.7-2-1.47-1.85s-1.44.89-1.11,2.52a37.5,37.5,0,0,0,1.14,4.27A16.58,16.58,0,0,0,153.8,201.69Z"/><path class="cls-27" d="M161.28,196.21c-.61-3.06.91-4.76,3.12-5.19,1.41-.28,2.69.15,3,1.55.42,2.15-2.35,3.36-3.91,4.14a1.67,1.67,0,0,0,2,1,2.74,2.74,0,0,0,2.12-2c.31.08.55.36.65.87.27,1.41-1,2.56-2.68,2.89C163,200,161.73,198.52,161.28,196.21Zm1.82-.72c1.23-.59,2.58-1.54,2.4-2.42-.08-.41-.45-.65-1-.54C163.39,192.75,162.84,193.88,163.1,195.49Z"/><path class="cls-27" d="M170.78,198.33a29.53,29.53,0,0,1-1.05-4,52.28,52.28,0,0,1-.9-6.81,18.93,18.93,0,0,0,2.07-.41,54.07,54.07,0,0,0,.72,5.4,33.72,33.72,0,0,0,1.48,5.33A18.67,18.67,0,0,0,170.78,198.33Z"/><path class="cls-27" d="M175.56,197.74a22.91,22.91,0,0,1-1.51-4.9,17.71,17.71,0,0,1-.38-3.3,6.57,6.57,0,0,1,2.29-.82c3.29-.65,4.44.47,4.77,2.16.51,2.57-.68,4.42-2.06,4.69a3.25,3.25,0,0,1-2.06-.67,10.2,10.2,0,0,0,.88,2.16A15.54,15.54,0,0,0,175.56,197.74Zm.45-5.4c.31,1.59,1,1.87,1.72,1.72,1-.19,1.23-1.41,1-2.87-.2-1-.89-1.3-2.08-1.07C175.79,190.28,175.66,190.58,176,192.34Z"/><path class="cls-27" d="M190.9,193.48a3.86,3.86,0,0,1-2.24,1.43c-1.72.34-2.51-.68-3.06-3.43a32.14,32.14,0,0,1-.49-4.43,19.3,19.3,0,0,0,2.14-.43,35.43,35.43,0,0,0,.58,4.82c.27,1.34.73,1.68,1.43,1.55a1.36,1.36,0,0,0,.87-.52c.35-.41.41-1,.19-2.12a19.2,19.2,0,0,0-1.15-4.1,16.66,16.66,0,0,0,2.17-.43,30.31,30.31,0,0,1,1.08,4c.22,1.13.41,2.32.65,4.16a11,11,0,0,0-2,.39C191,194.12,191,193.81,190.9,193.48Z"/><path class="cls-27" d="M194.71,190.37a2.8,2.8,0,0,0,2.83,1.17c.76-.15,1-.48.94-.94s-.45-.69-1.6-.92c-1.62-.32-2.74-.68-3-2s.74-2.61,2.73-3a5.14,5.14,0,0,1,2.89.18,14.53,14.53,0,0,0-.45,1.9,3.74,3.74,0,0,0-2.42-.5c-.64.13-.94.49-.86.88s.47.6,1.62.84c1.54.31,2.88.66,3.17,2.15s-.71,2.66-2.63,3-3.28-.21-3.51-1.38A1.72,1.72,0,0,1,194.71,190.37Z"/><path class="cls-27" d="M211.22,188.22c.24,1.21-.61,2.4-2.5,2.78-2.36.47-3.64-.83-4.08-3.06-.65-3.27.65-5,2.72-5.43,1.69-.33,2.74.69,3.21,2.52-.6.33-1,.59-1.64,1-.26-1-.55-2-1.43-1.86s-1.17,1.22-.82,2.9c.26,1.31.78,2.24,2,2a2.16,2.16,0,0,0,1.7-1.89A1.26,1.26,0,0,1,211.22,188.22Z"/><path class="cls-27" d="M212,186.08c-.51-2.59.37-4.59,2.78-5.07s3.79,1,4.31,3.67c.58,2.89-.71,4.4-2.83,4.82S212.62,189,212,186.08Zm5-1.12c-.34-1.73-1.08-2.53-2-2.35s-1.29,1.19-1,2.93.91,2.4,2,2.19S217.36,186.6,217,185Z"/><path class="cls-27" d="M222,188.21a30,30,0,0,1-1-4,50.55,50.55,0,0,1-.9-6.82,17.6,17.6,0,0,0,2.07-.41,53.84,53.84,0,0,0,.72,5.41,32.61,32.61,0,0,0,1.48,5.33A18.83,18.83,0,0,0,222,188.21Z"/><path class="cls-27" d="M226.7,187.28a29.53,29.53,0,0,1-1-4,52.2,52.2,0,0,1-.9-6.82,16.78,16.78,0,0,0,2.07-.4,54.07,54.07,0,0,0,.72,5.4,33.72,33.72,0,0,0,1.48,5.33A18.67,18.67,0,0,0,226.7,187.28Z"/><path class="cls-27" d="M229.78,182.67c-.6-3.06.92-4.76,3.13-5.19,1.41-.28,2.69.15,3,1.55.42,2.15-2.35,3.36-3.91,4.14a1.67,1.67,0,0,0,2,1.05,2.74,2.74,0,0,0,2.12-2c.31.08.54.36.64.87.28,1.41-1,2.56-2.67,2.89C231.5,186.5,230.24,185,229.78,182.67Zm1.83-.72c1.23-.6,2.57-1.54,2.4-2.42-.08-.41-.46-.65-1-.54C231.9,179.21,231.34,180.34,231.61,182Z"/><path class="cls-27" d="M244.34,181.68c.24,1.21-.61,2.4-2.5,2.77-2.37.47-3.65-.82-4.09-3-.64-3.28.66-5,2.73-5.43,1.69-.34,2.74.69,3.21,2.52-.6.32-1,.59-1.64,1-.26-1-.55-2-1.43-1.86s-1.17,1.21-.82,2.89c.26,1.31.78,2.25,2,2a2.16,2.16,0,0,0,1.7-1.89A1.27,1.27,0,0,1,244.34,181.68Z"/><path class="cls-27" d="M247.52,183.49a18.37,18.37,0,0,1-1.47-4.53c-.1-.51-.23-1.29-.34-2.13l-1.09.26c0-.62-.07-1.29-.14-1.82.41,0,.67-.06,1.05-.12-.05-.51-.09-1-.1-1.43a6.69,6.69,0,0,1,2.19-1.06,11.74,11.74,0,0,0-.1,2.13c.48-.09.92-.19,1.48-.33a10.08,10.08,0,0,0,.3,1.77c-.31,0-.93.1-1.65.23,0,.35.1.71.17,1.06a17.44,17.44,0,0,0,1.87,5A12.94,12.94,0,0,0,247.52,183.49Z"/><path class="cls-27" d="M256.21,181.78a18,18,0,0,1-1.47-4.53c-.1-.52-.23-1.3-.34-2.14l-1.1.26a16.45,16.45,0,0,0-.14-1.81c.42,0,.67-.07,1.06-.13-.05-.51-.09-1-.11-1.43a6.94,6.94,0,0,1,2.2-1.06,11,11,0,0,0-.1,2.14c.47-.1.92-.2,1.48-.34a11,11,0,0,0,.29,1.78c-.31,0-.92.1-1.65.23.05.34.1.7.17,1.05a17.74,17.74,0,0,0,1.87,5A12.88,12.88,0,0,0,256.21,181.78Z"/><path class="cls-27" d="M260.76,180.55a28,28,0,0,1-.95-3.72,35.06,35.06,0,0,1-.73-7.12,19.62,19.62,0,0,0,2.26-.45,16.44,16.44,0,0,0-.07,3.42,4.86,4.86,0,0,1,2.32-1.28c1.46-.29,2.47.33,3,2.79a46.4,46.4,0,0,1,.64,5.09,22.4,22.4,0,0,0-2.28.45,35.36,35.36,0,0,0-.44-4.57c-.32-1.66-.69-2-1.47-1.85s-1.43.89-1.11,2.52A37.5,37.5,0,0,0,263,180.1,16.88,16.88,0,0,0,260.76,180.55Z"/><path class="cls-27" d="M268.24,175.07c-.61-3.06.91-4.76,3.12-5.19,1.41-.28,2.7.15,3,1.55.43,2.15-2.35,3.36-3.91,4.14a1.67,1.67,0,0,0,2,1.05,2.74,2.74,0,0,0,2.12-2c.31.08.55.36.65.87.28,1.41-1,2.56-2.68,2.89C270,178.9,268.69,177.38,268.24,175.07Zm1.82-.72c1.24-.6,2.58-1.54,2.4-2.42-.08-.41-.45-.65-1-.54C270.35,171.61,269.8,172.74,270.06,174.35Z"/><path class="cls-27" d="M281,176.56a29.7,29.7,0,0,1-1-4,50.34,50.34,0,0,1-.89-6.81,19.23,19.23,0,0,0,2.06-.41,51.32,51.32,0,0,0,.73,5.4,32.88,32.88,0,0,0,1.47,5.34A15.62,15.62,0,0,0,281,176.56Z"/><path class="cls-27" d="M284.05,172c-.61-3.07.91-4.76,3.12-5.2,1.41-.27,2.7.15,3,1.56.43,2.14-2.35,3.36-3.91,4.13a1.66,1.66,0,0,0,2,1.06,2.76,2.76,0,0,0,2.12-2c.31.07.55.35.65.87.27,1.4-1,2.56-2.68,2.89C285.76,175.77,284.5,174.26,284.05,172Zm1.82-.72c1.24-.6,2.58-1.55,2.4-2.43-.08-.4-.45-.65-1-.53C286.16,168.48,285.61,169.62,285.87,171.23Z"/><path class="cls-27" d="M301.46,172.51a27.49,27.49,0,0,0-.5-4.4c-.31-1.59-.68-2.19-1.48-2a1.27,1.27,0,0,0-1,1.59c.12.63.29,1.26.42,1.94a23.75,23.75,0,0,1,.39,3.33,14,14,0,0,0-2.09.41,40.73,40.73,0,0,0-.6-4.33c-.32-1.54-.55-2.19-1.34-2-1,.19-1.29,1-1,2.63a28.37,28.37,0,0,0,1.11,4.09,12.81,12.81,0,0,0-2.05.4,31.11,31.11,0,0,1-1.13-4.19,32.5,32.5,0,0,1-.53-3.93,15.15,15.15,0,0,0,2.11-.42,6.71,6.71,0,0,0,.08.86A4.21,4.21,0,0,1,296,165a1.88,1.88,0,0,1,1.85.62,4,4,0,0,1,2.13-1.4c1.8-.36,2.75.94,3.28,3.59a27.2,27.2,0,0,1,.49,4.24A16.25,16.25,0,0,0,301.46,172.51Z"/><path class="cls-27" d="M304.85,167.74c-.52-2.59.37-4.6,2.78-5.07s3.79,1,4.31,3.67c.57,2.89-.71,4.4-2.83,4.82S305.43,170.63,304.85,167.74Zm5-1.12c-.35-1.74-1.08-2.53-2-2.36s-1.29,1.2-.95,2.93.91,2.41,1.95,2.2S310.17,168.26,309.83,166.62Z"/><path class="cls-27" d="M318.66,169.11a47.27,47.27,0,0,0-.65-5c-.22-1.07-.54-1.61-1.34-1.45a1.72,1.72,0,0,0-1,.56c-.27.34-.36.8-.11,2,.35,1.72.92,3.52,1.12,4.19a16.33,16.33,0,0,0-2.19.44c-.32-1.09-.69-2.46-1-4.07-.21-1.06-.4-2.25-.59-4.07a13.88,13.88,0,0,0,2-.4c0,.35.07.6.12.89a4.22,4.22,0,0,1,2.24-1.46c1.47-.29,2.4.44,2.89,3a34.63,34.63,0,0,1,.6,4.9A12.11,12.11,0,0,0,318.66,169.11Z"/><path class="cls-27" d="M322.5,165.11a2.82,2.82,0,0,0,2.83,1.18c.76-.16,1-.48.95-.94s-.45-.69-1.61-.93c-1.62-.32-2.74-.67-3-2s.74-2.6,2.73-3a5.23,5.23,0,0,1,2.89.18,16,16,0,0,0-.45,1.91,3.69,3.69,0,0,0-2.42-.51c-.64.13-.94.49-.86.88s.47.61,1.63.84c1.53.31,2.87.66,3.17,2.15s-.72,2.67-2.64,3-3.28-.22-3.51-1.39A1.72,1.72,0,0,1,322.5,165.11Z"/><path class="cls-27" d="M331,156.23a42.61,42.61,0,0,0,.71,7.1c-.52.13-1,.29-1.56.47a26.43,26.43,0,0,1-1.73-5.76c-.12-.6-.14-.93-.18-1.26Zm-1.06,9.64a1.37,1.37,0,0,1,2.66-.53c.14.71-.27,1.19-1.11,1.35S330.08,166.58,329.94,165.87Z"/></g></svg>