<svg xmlns="http://www.w3.org/2000/svg" width="100" height="95.76" viewBox="0 0 100 95.76"><defs><style>.cls-1{fill:#709dcc;}.cls-2{fill:#638dbb;}.cls-3{fill:#f4be58;}.cls-4{fill:#e7a947;stroke:#e7a947;stroke-miterlimit:10;}</style></defs><g id="buttons"><path class="cls-1" d="M97.82,53.05C94.18,77.76,73,98.46,48.41,94.1,17.93,88.69,3.67,73.41,8.35,48.87,13.26,23.06,23.44,10,48.17,9.05,72.75,8.07,101.5,28,97.82,53.05Z"/><path class="cls-2" d="M95.56,48.23C91.81,73.76,69.9,95.15,44.46,90.64,12.93,85.06-1.82,69.26,3,43.91,8.1,17.24,18.62,3.78,44.2,2.76,69.63,1.74,99.38,22.32,95.56,48.23Z"/><path class="cls-3" d="M45.93,80.21a15.09,15.09,0,0,1-8.72-2.82C33.3,74.7,29.81,70,26.82,63.47,23.7,56.62,23.06,49.63,25,43.24a24.41,24.41,0,0,1,10.86-14,25.32,25.32,0,0,1,19.31-2.66,33.09,33.09,0,0,1,13,6.84l-6-7.12L60.27,24l-.54-.65-.16-.19a2.21,2.21,0,0,1,.24-3.13,2.25,2.25,0,0,1,3.28.42c.12.14.3.36.56.65l0,0,1.94,2.31c3.67,4.37,10.49,12.49,13,15.72a3.4,3.4,0,0,1-.43,4.94c-2.54,2.13-9.15,2.3-12.86,2.21s-10.21-.56-12.12-2.69a2.84,2.84,0,0,1,.21-4.09c.87-.84,1.88-.71,3.57-.5l4,.57c2.14.32,5.73.85,8.46,1.14-4.64-5.13-9.9-8.52-15.36-9.9a20.87,20.87,0,0,0-16,2.18,20,20,0,0,0-8.9,11.48c-1.59,5.34-1,11.26,1.66,17.13C35,70.85,40,75.61,45.62,75.78s11.3-4.28,15-8.06A58.38,58.38,0,0,0,67,60c.44-.73.74-1.21.93-1.5.44-.71,1.28-2,2.91-1.53l1.57,2.23c0,.48,0,.83-1.68,3.19l-.23.38h0l-.23.32a65,65,0,0,1-4.91,6.09c-5.57,6.11-11.09,9.72-16.41,10.73A16.21,16.21,0,0,1,45.93,80.21Z"/><path class="cls-4" d="M46,78a15.12,15.12,0,0,1-8.73-2.82c-3.91-2.69-7.4-7.37-10.38-13.92C23.74,54.41,23.09,47.42,25,41A24.45,24.45,0,0,1,35.85,27a25.32,25.32,0,0,1,19.31-2.66,33,33,0,0,1,13,6.84c-2.17-2.61-4.36-5.22-6-7.12L60.3,21.81l-.54-.65L59.6,21a2.22,2.22,0,1,1,3.52-2.71l.56.65,0,0,1.93,2.31c3.67,4.37,10.5,12.49,13,15.72a3.4,3.4,0,0,1-.44,4.94C75.63,44,69,44.2,65.31,44.11s-10.2-.56-12.12-2.69a2.85,2.85,0,0,1,.21-4.09c.87-.84,1.89-.71,3.57-.5l4,.57c2.15.32,5.73.85,8.47,1.14-4.65-5.13-9.9-8.52-15.37-9.9a20.87,20.87,0,0,0-16,2.18A20,20,0,0,0,29.23,42.3c-1.6,5.34-1,11.26,1.65,17.13,4.2,9.21,9.17,14,14.78,14.14s11.29-4.28,15-8.06a59.2,59.2,0,0,0,6.37-7.7c.44-.73.74-1.21.92-1.5.45-.71,1.28-2,2.91-1.53L72.45,57c0,.48,0,.83-1.68,3.19l-.23.38h0l-.23.32A64.55,64.55,0,0,1,65.38,67C59.8,73.09,54.28,76.7,49,77.71A16.19,16.19,0,0,1,46,78Z"/></g></svg>