<svg xmlns="http://www.w3.org/2000/svg" width="230" height="100" viewBox="0 0 230 100"><defs><style>.cls-1{fill:#387945;}.cls-2{fill:#578a55;}.cls-3{fill:#e7a947;}.cls-4{fill:#f4be56;}</style></defs><g id="buttons"><path class="cls-1" d="M18.4,38.46C35.4,21.93,76.79,11,132.46,9.83c80.63-1.66,97.35,32.52,94.18,56S176.66,94.15,121,95C7.51,96.58-5.76,62,18.4,38.46Z"/><path class="cls-2" d="M11.57,33.09C28.57,16.56,70,5.6,125.63,4.46,206.26,2.8,223,37,219.81,60.49s-50,28.29-105.66,29.09C.69,91.21-12.59,56.58,11.57,33.09Z"/><path class="cls-3" d="M55.77,64.4c-1.19.06-2.62.13-4.25.15s-3.31.06-5.06,0a1.77,1.77,0,0,1-1.77-1.14c-.79-2.2-1.37-6.8-1.46-12.4-.12-7.56.32-11,.86-12.44a1.58,1.58,0,0,1,1.17-1.1A37.33,37.33,0,0,1,50,37.13a17.71,17.71,0,0,1,2.82.08c.69.08.88.38,1,.9s.39.69.7.68a2.5,2.5,0,0,0,1.06-.36,7.76,7.76,0,0,1,3.91-1.59c1.12,0,1.89,1,2,4.4A10.91,10.91,0,0,1,61,45.16a1.33,1.33,0,0,1-1.36.93c-.75,0-1.75-.36-2.94-.34s-2.18.86-2.12,4.25c.09,5.47,2.83,12.46,2.85,13.33C57.39,63.89,57,64.29,55.77,64.4Z"/><path class="cls-3" d="M67.3,50.87a84.22,84.22,0,0,1,1.11-12.53c.17-.91.72-1.31,1.72-1.41,1.25-.07,2.81-.14,4.32-.16s2.75,0,3.81,0,1.38.41,1.39,1c0,1.39-.79,8.91-.69,14.56C79,55.89,80.22,57,82.28,57a4.58,4.58,0,0,0,2.55-.74c1.24-.85,1.72-2.33,1.67-5.24a83.79,83.79,0,0,0-1.22-13.1c-.08-.86.42-1.18,1.61-1.28.93-.1,2.12-.12,3.37-.14,1.56,0,3.06,0,4.25,0s1.88.27,2.09,1.49a65.2,65.2,0,0,1,1.06,11.36,102.59,102.59,0,0,1-.6,12.52c-.11,1.3-1.29,1.71-2.72,1.82-1,.11-2.25.13-3.38.15-.87,0-1.75,0-2.37,0-1.07-.07-1.51-.36-1.52-1.06s-.33-.82-1-.81c-2,0-4.64,2.43-9.08,2.5C70,64.59,67.47,61.25,67.3,50.87Z"/><path class="cls-3" d="M118.72,63.4c-1.44.11-3.13.14-4.88.16s-3.56.06-5.06,0c-.69,0-1.63-.23-1.77-1.23a88.39,88.39,0,0,1-1-12.06,114.15,114.15,0,0,1,1.52-21.09c.18-.91.86-1.05,1.67-1.15,1.44-.07,2.81-.14,4.25-.16s2.88,0,4.19,0c.88,0,1.44.28,1.45.88a163.68,163.68,0,0,0-.85,16.35c.14,8.42,1.58,16.13,1.6,17.39C119.9,63.07,119.4,63.34,118.72,63.4Z"/><path class="cls-3" d="M141.1,63.59c-11.25.19-15.1-5.74-15.22-13-.18-10.72,7.63-15.24,17-15.39,6.32-.11,11.29,2.15,11.37,7,.13,7.42-8.8,8.44-14.27,10.22-1.93.51-2.74.92-2.72,1.65,0,1.26,1.35,2.24,4.35,2.19,4.31-.07,8.23-1.44,10.63-3.69a1.94,1.94,0,0,1,.93-.37c.87,0,1.58,1.11,1.61,3.15C154.87,60.37,148.48,63.47,141.1,63.59Zm.51-22.38a5.64,5.64,0,0,0-5.72,5.7c0,.44.2.78.76.77a3.6,3.6,0,0,0,1.19-.24c2.48-1.08,6.71-2.24,6.68-4.32C144.5,42,143.42,41.18,141.61,41.21Z"/><path class="cls-3" d="M173,56.5c2.19,0,3.12-.66,3.1-1.74s-1.16-1.81-4.61-2.88c-6-1.9-10.94-3.6-11-8.68s5.49-8.47,14.37-8.62A31.07,31.07,0,0,1,185.1,36c1,.37,1.2.76,1.21,1.41a12.4,12.4,0,0,1-2,5.72,1.11,1.11,0,0,1-1,.54,1.51,1.51,0,0,1-.88-.25,19.87,19.87,0,0,0-8.92-2.58c-2,0-3,.7-3,1.61,0,1.13,1.15,1.63,4.73,2.7,5.59,1.65,11.81,3.58,11.9,9,.1,5.82-5.23,8.81-13.42,8.95-8.37.14-13.61-2.55-13.68-7a5.68,5.68,0,0,1,1.13-3.75,1.26,1.26,0,0,1,.93-.45.94.94,0,0,1,.81.33A13.67,13.67,0,0,0,173,56.5Z"/><path class="cls-4" d="M54,62.21c-1.19.06-2.63.13-4.25.15s-3.31.06-5.06,0A1.77,1.77,0,0,1,43,61.22c-.79-2.2-1.37-6.8-1.46-12.4-.13-7.55.32-11,.86-12.44a1.57,1.57,0,0,1,1.17-1.1,37.17,37.17,0,0,1,4.74-.34,19.07,19.07,0,0,1,2.82.08c.69.08.88.38.95.9s.39.69.7.68a2.5,2.5,0,0,0,1.06-.36,7.85,7.85,0,0,1,3.91-1.59c1.12,0,1.89,1,1.95,4.4A10.91,10.91,0,0,1,59.22,43a1.34,1.34,0,0,1-1.36.93c-.75,0-1.76-.36-2.94-.34s-2.18.86-2.12,4.25c.09,5.47,2.83,12.46,2.85,13.33C55.66,61.7,55.29,62.1,54,62.21Z"/><path class="cls-4" d="M65.57,48.68a83.94,83.94,0,0,1,1.11-12.52,1.64,1.64,0,0,1,1.72-1.42c1.25-.07,2.81-.14,4.31-.16s2.75,0,3.82,0,1.38.41,1.39,1c0,1.39-.79,8.92-.7,14.56.06,3.56,1.27,4.71,3.33,4.68a4.58,4.58,0,0,0,2.55-.74c1.24-.84,1.72-2.33,1.67-5.24a83.79,83.79,0,0,0-1.22-13.1c-.08-.86.42-1.17,1.6-1.28.94-.1,2.13-.12,3.38-.14,1.56,0,3.06,0,4.25,0s1.88.28,2.09,1.49a65.29,65.29,0,0,1,1.06,11.36,104.63,104.63,0,0,1-.6,12.52c-.11,1.3-1.29,1.71-2.72,1.82-1,.11-2.25.13-3.38.15-.87,0-1.75,0-2.37,0-1.07-.07-1.51-.36-1.52-1.06s-.33-.82-1-.81c-2,0-4.65,2.43-9.08,2.5C68.24,62.41,65.74,59.06,65.57,48.68Z"/><path class="cls-4" d="M117,61.21c-1.44.11-3.13.14-4.88.17s-3.56,0-5.06,0c-.69,0-1.63-.23-1.77-1.23a88.52,88.52,0,0,1-1-12.06A114.15,114.15,0,0,1,105.85,27c.17-.91.86-1,1.67-1.15,1.44-.07,2.81-.14,4.25-.16s2.88,0,4.19,0c.88,0,1.44.28,1.45.88a163.68,163.68,0,0,0-.85,16.35c.14,8.42,1.58,16.13,1.6,17.39C118.17,60.88,117.67,61.15,117,61.21Z"/><path class="cls-4" d="M139.37,61.4c-11.25.19-15.1-5.74-15.22-13-.18-10.72,7.63-15.24,17-15.39,6.32-.11,11.29,2.15,11.37,7,.13,7.42-8.8,8.44-14.27,10.22-1.93.51-2.74.92-2.72,1.66,0,1.25,1.35,2.23,4.35,2.18,4.31-.07,8.23-1.44,10.63-3.69a1.74,1.74,0,0,1,.93-.36c.87,0,1.58,1.1,1.61,3.14C153.14,58.18,146.75,61.28,139.37,61.4ZM139.88,39a5.62,5.62,0,0,0-5.72,5.69.68.68,0,0,0,.76.77,3.5,3.5,0,0,0,1.18-.24c2.49-1.08,6.72-2.24,6.69-4.32C142.77,39.8,141.69,39,139.88,39Z"/><path class="cls-4" d="M171.27,54.31c2.19,0,3.11-.65,3.1-1.74s-1.16-1.81-4.62-2.88c-6-1.9-10.93-3.6-11-8.68s5.49-8.47,14.36-8.62a31.4,31.4,0,0,1,10.28,1.4c.95.37,1.2.76,1.21,1.41a12.4,12.4,0,0,1-2,5.72,1.11,1.11,0,0,1-1,.54,1.51,1.51,0,0,1-.88-.25,19.87,19.87,0,0,0-8.92-2.58c-2,0-3,.7-3,1.61,0,1.13,1.15,1.63,4.73,2.7,5.59,1.65,11.81,3.58,11.9,9,.1,5.82-5.23,8.81-13.42,9-8.37.14-13.61-2.55-13.68-7a5.74,5.74,0,0,1,1.12-3.75,1.34,1.34,0,0,1,.94-.45.94.94,0,0,1,.81.33A13.63,13.63,0,0,0,171.27,54.31Z"/></g></svg>