<svg xmlns="http://www.w3.org/2000/svg" width="100" height="95.76" viewBox="0 0 100 95.76"><defs><style>.cls-1{fill:#709dcc;}.cls-2{fill:#638dbb;}.cls-3{fill:#f4be58;}.cls-4{fill:#e7a947;}</style></defs><g id="buttons"><path class="cls-1" d="M97.52,51.13C93.89,75.84,72.71,96.54,48.11,92.18,17.63,86.77,3.37,71.49,8.05,47,13,21.14,23.14,8.12,47.87,7.13S101.21,26.06,97.52,51.13Z"/><path class="cls-2" d="M95.27,46.31C91.51,71.84,69.6,93.23,44.16,88.72,12.63,83.14-2.12,67.34,2.72,42,7.8,15.32,18.33,1.86,43.91.84,69.33-.17,99.08,20.4,95.27,46.31Z"/><path class="cls-3" d="M57.39,50.64c.74-5.44,1.68-19.14-1.91-24.21a3,3,0,0,0-2.2-1.08h0c-9.39-1.11-11.32,3-16.36,9.68-.67.89-2.43,1.24-3.95,1.14a1.24,1.24,0,0,0-.27,0c-12.29.78-19.27,3.39-17.75,11.18C16.88,57.38,20.74,57.87,33.63,59l.28,0c1.46-.1,3.43.13,3.84,1.05,2.14,4.82,15,14.57,18.45,8.13"/><path class="cls-4" d="M56.74,49c.74-5.44,1.68-19.14-1.91-24.21a3,3,0,0,0-2.19-1.08h0c-9.4-1.11-11.33,3-16.37,9.68-.67.89-2.42,1.24-3.94,1.14a1.27,1.27,0,0,0-.28,0c-12.28.78-19.26,3.39-17.75,11.18,2,10.06,5.82,10.55,18.7,11.72a2.85,2.85,0,0,0,.29,0c1.46-.1,3.42.13,3.83,1,2.15,4.82,15,14.57,18.46,8.13"/><path class="cls-3" d="M76.93,48.06l-.29.39c-.51.68-1,1.38-1.59,2.09s-1,1.31-1.53,1.93l-.3.36c-4.11,5-7.94,8.16-9,7.36A1.1,1.1,0,0,1,64,60c-1.52-1.7,1.58-6,5.69-11.44l.3-.39.71-.92c.81-1.06,1.62-2.07,2.42-3,.78.92,1.6,1.91,2.45,2.93.23.28.47.56.69.84l.28-.39c-.13-.16-.26-.33-.4-.49-.94-1.13-1.85-2.23-2.72-3.24,3.49-4,6.62-6.64,7.84-6.42a.8.8,0,0,1,.25.11C83.4,39,80.76,43,76.93,48.06Z"/><path class="cls-3" d="M83.17,59.81a1.5,1.5,0,0,1-1.17.34c-2-.19-5-3.47-8.48-7.68L73.15,52,72,50.61c-.69-.83-1.35-1.65-2-2.46l-.36-.47C66,42.84,64,38.73,65,37.93a1.33,1.33,0,0,1,.6-.31c1.7-.43,4.32,2.13,7.51,5.82l.37.44-.3.35c.78.92,1.6,1.91,2.45,2.93.23.28.47.56.69.84l.28-.39.37.45C81.51,53.74,84.27,58.89,83.17,59.81Z"/><path class="cls-4" d="M73.44,43.88l-.3.35c.78.92,1.6,1.91,2.45,2.93.23.28.47.56.69.84l-1.7,2.22c-.48.63-1,1.23-1.43,1.81l-.29.36C69,57.08,65.34,60.24,64,60a.51.51,0,0,1-.25-.1c-2-1.56,1.24-6.1,5.58-11.8l.3-.4c.2-.25.4-.51.59-.77.85-1.1,1.7-2.15,2.52-3.11l.31-.36c3.73-4.28,7-6.91,8-6.18a1.5,1.5,0,0,1,.23.2c1.4,1.57-1.11,5.36-4.72,10.15-.13-.16-.26-.33-.4-.49C75.22,46,74.31,44.89,73.44,43.88Z"/><path class="cls-4" d="M76.56,47.61l-.28.39c-.22-.28-.46-.56-.69-.84-.85-1-1.67-2-2.45-2.93l.3-.35c.87,1,1.78,2.11,2.72,3.24C76.3,47.28,76.43,47.45,76.56,47.61Z"/><path class="cls-4" d="M82.6,59.84a1.38,1.38,0,0,1-.6.31c-1.92.48-5-2.85-8.78-7.32l-.36-.44c-.48-.56-1-1.15-1.46-1.74s-1.16-1.42-1.69-2.11l-.36-.46c-3.78-5-5.95-9.29-5-10.12a1.5,1.5,0,0,1,1.17-.34c1.74.17,4.24,2.71,7.2,6.18l.38.43c.78.92,1.6,1.91,2.45,2.93.23.28.47.56.69.84l.36.45C81.05,54,83.68,59,82.6,59.84Z"/></g></svg>