<svg xmlns="http://www.w3.org/2000/svg" width="100" height="95.76" viewBox="0 0 100 95.76"><defs><style>.cls-1{fill:#709dcc;}.cls-2{fill:#638dbb;}.cls-3{fill:#f4be58;}.cls-4{fill:#e7a947;}</style></defs><g id="buttons"><path class="cls-1" d="M97.64,51.41C94,76.12,72.83,96.82,48.24,92.46,17.76,87.05,3.5,71.77,8.17,47.23,13.09,21.42,23.26,8.4,48,7.41,72.57,6.43,101.33,26.34,97.64,51.41Z"/><path class="cls-2" d="M95.39,46.59C91.63,72.12,69.73,93.51,44.29,89,12.76,83.42-2,67.62,2.84,42.27,7.93,15.6,18.45,2.14,44,1.12,69.46.11,99.21,20.68,95.39,46.59Z"/><path class="cls-3" d="M58.05,51.81c.76-5.63,1.73-19.83-2-25.08a3,3,0,0,0-2.27-1.12h0c-9.73-1.15-11.73,3.11-17,10-.7.93-2.52,1.29-4.1,1.18a1.27,1.27,0,0,0-.28,0c-12.73.81-20,3.51-18.39,11.58,2,10.43,6,10.93,19.38,12.14a2.83,2.83,0,0,0,.29,0c1.51-.11,3.55.13,4,1.08,2.23,5,15.52,15.11,19.13,8.43"/><path class="cls-4" d="M57.38,50.08c.77-5.63,1.74-19.83-2-25.08a3,3,0,0,0-2.27-1.12h0c-9.73-1.15-11.73,3.11-17,10-.7.93-2.52,1.29-4.09,1.18a1.43,1.43,0,0,0-.29,0c-12.73.81-20,3.51-18.39,11.58,2,10.43,6,10.93,19.38,12.14a2.83,2.83,0,0,0,.29,0c1.51-.11,3.55.13,4,1.08,2.23,5,15.52,15.11,19.13,8.43"/><path class="cls-3" d="M73.51,33.65c-3.65,3.27-7.08,5.12-8,4.42-1.92-1.53,1.61-4.16,5.26-7.43s7-4.94,8-4.42C81.84,27.81,77.17,30.37,73.51,33.65Z"/><path class="cls-4" d="M72.77,33.53c-3.68,3.24-7.13,5-8,4.35-1.9-1.55,1.66-4.14,5.34-7.38s7-4.88,8-4.35C81.15,27.77,76.46,30.29,72.77,33.53Z"/><path class="cls-3" d="M76.09,46.93c-4.77,1.15-8.67,1.14-9.1.12-1-2.26,3.39-2.9,8.16-4s8.48-1,9.1-.12C86.19,45.75,80.86,45.78,76.09,46.93Z"/><path class="cls-4" d="M75.57,46.6c-4.78,1.1-8.68,1.06-9.1,0-.94-2.27,3.41-2.86,8.19-4s8.49-1,9.11,0C85.68,45.51,80.35,45.5,75.57,46.6Z"/><path class="cls-3" d="M73.21,60.73c-4.69-1.45-8-3.45-7.89-4.56.33-2.43,4.4-.75,9.08.7s7.82,3.44,7.89,4.55C82.49,64.87,77.89,62.18,73.21,60.73Z"/><path class="cls-4" d="M73.17,60.1c-4.67-1.49-8-3.52-7.84-4.63.35-2.43,4.4-.71,9.07.79s7.79,3.51,7.84,4.62C82.41,64.33,77.84,61.59,73.17,60.1Z"/></g></svg>