<svg xmlns="http://www.w3.org/2000/svg" width="100" height="100" viewBox="0 0 100 100"><defs><style>.cls-1{fill:#709dcc;}.cls-2{fill:#638dbb;}.cls-3{fill:#f4be58;}.cls-4{fill:#e7a947;}</style></defs><g id="buttons"><path class="cls-1" d="M97.2,53.85C93.57,78.56,72.39,99.26,47.8,94.9,17.32,89.49,3.06,74.21,7.73,49.67,12.65,23.86,22.82,10.84,47.55,9.85,72.13,8.87,100.89,28.78,97.2,53.85Z"/><path class="cls-2" d="M95,49C91.19,74.56,69.29,96,43.84,91.44,12.32,85.85-2.43,70.06,2.4,44.71,7.49,18,18,4.58,43.59,3.56,69,2.54,98.76,23.12,95,49Z"/><path class="cls-3" d="M66.37,44.43S51.12,33.06,42.92,30.89c-5.15-1.36-5.89.38-5.89,3.4V61.37c0,3,2.88,3.72,5.89,3.4,9.43-1,23.45-13.54,23.45-13.54A3.92,3.92,0,0,0,66.37,44.43Z"/><path class="cls-4" d="M64.81,43.69S49.56,32.32,41.36,30.15c-5.15-1.36-5.89.38-5.89,3.4V60.63c0,3,2.89,3.71,5.89,3.4,9.43-1,23.45-13.54,23.45-13.54A3.92,3.92,0,0,0,64.81,43.69Z"/></g></svg>