<svg xmlns="http://www.w3.org/2000/svg" width="550" height="100" viewBox="0 0 550 100"><defs><style>.cls-1{fill:#f4be58;}.cls-2{fill:#e7a947;}</style></defs><g id="ui_elements"><g id="baguette"><path class="cls-1" d="M536.85,50.53C533.66,70,424.63,93.65,272.75,86.26,127.08,79.17,2.1,69.26,8.64,50.53,18.45,22.47,127.78,6.59,272.75,14.81,418.35,23.06,543.2,11.8,536.85,50.53Z"/><path class="cls-2" d="M108.46,40.22c-6.17,10.15-4.51,19-.61,24.16,4.07,5.45,15.56-2.44,21.74-12.58s14.35-23.58.61-24.16C123.47,27.35,114.64,30.07,108.46,40.22Z"/><path class="cls-2" d="M176.81,41.86c-8.12,12.92-6.47,24.07-1.89,30.65,4.79,6.88,19.4-3.22,27.52-16.14s18.89-30,1.9-30.64C196,25.42,184.94,28.94,176.81,41.86Z"/><path class="cls-2" d="M249.5,43.28c-8.28,13.17-6.3,24.7-1.31,31.59,5.2,7.19,20.39-2.93,28.67-16.1s19.24-30.59,1.31-31.59C269.38,26.69,257.78,30.11,249.5,43.28Z"/><path class="cls-2" d="M320.91,45.78c-7.43,11.81-5.87,22-1.62,28.08,4.43,6.33,17.84-2.88,25.27-14.69s17.27-27.44,1.62-28.08C338.52,30.77,328.34,34,320.91,45.78Z"/><path class="cls-2" d="M392.14,45.74c-6.79,10.8-4.61,20.56,0,26.52,4.84,6.22,17.81-1.79,24.6-12.58s15.78-25.08,0-26.52C409,32.46,398.93,34.94,392.14,45.74Z"/></g></g></svg>