<?xml version="1.0" encoding="utf-8"?>
<!-- Generator: Adobe Illustrator 26.2.1, SVG Export Plug-In . SVG Version: 6.00 Build 0)  -->
<svg version="1.1" xmlns="http://www.w3.org/2000/svg" xmlns:xlink="http://www.w3.org/1999/xlink" x="0px" y="0px"
	 viewBox="0 0 870 490" style="enable-background:new 0 0 870 490;" xml:space="preserve">
<style type="text/css">
	.st0{fill:#CF5540;}
	.st1{fill:#EEDEC0;}
	.st2{fill:#F1622C;}
	.st3{fill:#FFFFFF;}
	.st4{fill:#22210C;}
	.st5{fill:#293F02;}
	.st6{fill:#EA968C;}
	.st7{fill:#F4BE58;}
	.st8{fill:#F4BE56;}
	.st9{fill:#3E773F;}
	.st10{fill:#387945;}
	.st11{fill:#578A55;}
	.st12{fill:#E7A947;}
	.st13{fill:#3C6088;}
	.st14{fill:#5E7C9D;}
	.st15{fill:#3C6087;}
	.st16{fill:#C62C26;}
</style>
<g id="colors">
</g>
<g id="Layer_2">
	<rect class="st0" width="870" height="490"/>
	<path class="st1" d="M700.8,421.8H162.7c0,0,15.8-120.6-3.6-171.4c-40.6-106,366.7,1.4,523.7-46.9
		C734.7,187.5,700.8,421.7,700.8,421.8L700.8,421.8z"/>
	<g>
		<g>
			<path class="st1" d="M142.4,211.9L142.4,211.9c-4.3,1.7-5.3-1.8-5.3-4.1l-0.6-21.2c0-4.1,3.6-5.1,6.5-5.1l0,0
				c5.3-1.2,5.3,1.8,5.3,4.1v11.5C148.3,199.5,145.2,211.2,142.4,211.9L142.4,211.9z"/>
			<path class="st1" d="M142.4,435.2L142.4,435.2c-4.3,1.7-5.3-1.8-5.3-4.1l-0.6-21.2c0-4.1,3.6-5,6.5-5l0,0
				c5.3-1.2,5.3,1.8,5.3,4.1v11.5C148.3,422.8,145.2,434.5,142.4,435.2L142.4,435.2z"/>
			<path class="st1" d="M142.4,391.7L142.4,391.7c-4.3,1.7-5.3-1.8-5.3-4.1l-0.6-21.2c0-4.1,3.6-5,6.5-5l0,0
				c5.3-1.2,5.3,1.8,5.3,4.1v11.5C148.3,379.3,145.2,391,142.4,391.7L142.4,391.7z"/>
			<path class="st1" d="M142.4,346.8L142.4,346.8c-4.3,1.7-5.3-1.8-5.3-4.1l-0.6-21.2c0-4.1,3.6-5,6.5-5l0,0
				c5.3-1.2,5.3,1.8,5.3,4.1v11.5C148.3,334.4,145.2,346.1,142.4,346.8L142.4,346.8z"/>
			<path class="st1" d="M142.4,301.8L142.4,301.8c-4.3,1.7-5.3-1.8-5.3-4.1l-0.6-21.2c0-4.1,3.6-5,6.5-5l0,0
				c5.3-1.2,5.3,1.8,5.3,4.1v11.5C148.3,289.4,145.2,301.1,142.4,301.8L142.4,301.8z"/>
			<path class="st1" d="M142.4,256.8L142.4,256.8c-4.3,1.7-5.3-1.8-5.3-4.1l-0.6-21.2c0-4.1,3.6-5.1,6.5-5.1l0,0
				c5.3-1.2,5.3,1.8,5.3,4.1v11.5C148.3,244.4,145.2,256.1,142.4,256.8L142.4,256.8z"/>
		</g>
		<g>
			<path class="st1" d="M194.3,186.9L194.3,186.9c2.2,3.4-2.4,4.1-5.3,4.1l-27.3,0.5c-5.3,0-6.5-2.8-6.5-5.1l0,0
				c-1.6-4.1,2.4-4.1,5.3-4.1h14.9C178.3,182.3,193.3,184.7,194.3,186.9z"/>
			<path class="st1" d="M708.3,186.9L708.3,186.9c2.2,3.4-2.4,4.1-5.3,4.1l-27.3,0.5c-5.3,0-6.5-2.8-6.5-5.1l0,0
				c-1.5-4.1,2.4-4.1,5.3-4.1h14.9C692.3,182.3,707.4,184.7,708.3,186.9z"/>
			<path class="st1" d="M648.7,186.9L648.7,186.9c2.2,3.4-2.4,4.1-5.3,4.1l-27.3,0.5c-5.3,0-6.5-2.8-6.5-5.1l0,0
				c-1.5-4.1,2.4-4.1,5.3-4.1h14.9C632.7,182.3,647.8,184.7,648.7,186.9z"/>
			<path class="st1" d="M583,186.9L583,186.9c2.2,3.4-2.4,4.1-5.3,4.1l-27.3,0.5c-5.3,0-6.5-2.8-6.5-5.1l0,0
				c-1.5-4.1,2.4-4.1,5.3-4.1H564C566.9,182.3,582,184.7,583,186.9z"/>
			<path class="st1" d="M520,186.9L520,186.9c2.2,3.4-2.4,4.1-5.3,4.1l-27.3,0.5c-5.3,0-6.5-2.8-6.5-5.1l0,0
				c-1.5-4.1,2.4-4.1,5.3-4.1H501C503.9,182.3,519,184.7,520,186.9z"/>
			<path class="st1" d="M453.9,186.9L453.9,186.9c2.2,3.4-2.4,4.1-5.3,4.1l-27.3,0.5c-5.3,0-6.5-2.8-6.5-5.1l0,0
				c-1.5-4.1,2.4-4.1,5.3-4.1h14.9C437.8,182.3,452.9,184.7,453.9,186.9z"/>
			<path class="st1" d="M383.1,186.9L383.1,186.9c2.2,3.4-2.4,4.1-5.3,4.1l-27.3,0.5c-5.3,0-6.5-2.8-6.5-5.1l0,0
				c-1.5-4.1,2.4-4.1,5.3-4.1h14.9C367.1,182.3,382.2,184.7,383.1,186.9z"/>
			<path class="st1" d="M315.1,186.9L315.1,186.9c2.2,3.4-2.4,4.1-5.3,4.1l-27.3,0.5c-5.3,0-6.5-2.8-6.5-5.1l0,0
				c-1.5-4.1,2.4-4.1,5.3-4.1h14.9C299.1,182.3,314.2,184.7,315.1,186.9z"/>
			<path class="st1" d="M254.3,186.9L254.3,186.9c2.2,3.4-2.4,4.1-5.3,4.1l-27.3,0.5c-5.3,0-6.5-2.8-6.5-5.1l0,0
				c-1.6-4.1,2.4-4.1,5.3-4.1h14.9C238.3,182.3,253.4,184.7,254.3,186.9z"/>
		</g>
		<g>
			<path class="st1" d="M664.3,432.9L664.3,432.9c-2.2,3.4,2.4,4.1,5.3,4.1l27.3,0.5c5.3,0,6.5-2.8,6.5-5l0,0
				c1.5-4.1-2.4-4.1-5.3-4.1h-14.9C680.4,428.3,665.3,430.7,664.3,432.9L664.3,432.9z"/>
			<path class="st1" d="M150.3,432.9L150.3,432.9c-2.2,3.4,2.4,4.1,5.3,4.1l27.3,0.5c5.3,0,6.5-2.8,6.5-5l0,0
				c1.6-4.1-2.4-4.1-5.3-4.1h-14.9C166.3,428.3,151.2,430.7,150.3,432.9L150.3,432.9z"/>
			<path class="st1" d="M209.9,432.9L209.9,432.9c-2.2,3.4,2.4,4.1,5.3,4.1l27.3,0.5c5.3,0,6.5-2.8,6.5-5l0,0
				c1.6-4.1-2.4-4.1-5.3-4.1h-14.9C225.9,428.3,210.8,430.7,209.9,432.9L209.9,432.9z"/>
			<path class="st1" d="M275.7,432.9L275.7,432.9c-2.2,3.4,2.4,4.1,5.3,4.1l27.3,0.5c5.3,0,6.5-2.8,6.5-5l0,0
				c1.5-4.1-2.4-4.1-5.3-4.1h-14.9C291.7,428.3,276.6,430.7,275.7,432.9L275.7,432.9z"/>
			<path class="st1" d="M338.6,432.9L338.6,432.9c-2.2,3.4,2.4,4.1,5.3,4.1l27.3,0.5c5.3,0,6.5-2.8,6.5-5l0,0
				c1.5-4.1-2.4-4.1-5.3-4.1h-14.9C354.7,428.3,339.6,430.7,338.6,432.9L338.6,432.9z"/>
			<path class="st1" d="M404.8,432.9L404.8,432.9c-2.2,3.4,2.4,4.1,5.3,4.1l27.3,0.5c5.3,0,6.5-2.8,6.5-5l0,0
				c1.5-4.1-2.4-4.1-5.3-4.1h-14.9C420.8,428.3,405.7,430.7,404.8,432.9L404.8,432.9z"/>
			<path class="st1" d="M475.5,432.9L475.5,432.9c-2.2,3.4,2.4,4.1,5.3,4.1l27.3,0.5c5.3,0,6.5-2.8,6.5-5l0,0
				c1.5-4.1-2.4-4.1-5.3-4.1h-14.9C491.5,428.3,476.4,430.7,475.5,432.9L475.5,432.9z"/>
			<path class="st1" d="M543.5,432.9L543.5,432.9c-2.2,3.4,2.4,4.1,5.3,4.1l27.3,0.5c5.3,0,6.5-2.8,6.5-5l0,0
				c1.5-4.1-2.4-4.1-5.3-4.1h-14.9C559.5,428.3,544.4,430.7,543.5,432.9L543.5,432.9z"/>
			<path class="st1" d="M604.3,432.9L604.3,432.9c-2.2,3.4,2.4,4.1,5.3,4.1l27.3,0.5c5.3,0,6.5-2.8,6.5-5l0,0
				c1.5-4.1-2.4-4.1-5.3-4.1h-14.9C620.3,428.3,605.2,430.7,604.3,432.9L604.3,432.9z"/>
		</g>
		<g>
			<path class="st1" d="M721.5,214.1L721.5,214.1c4.3,1.7,5.3-1.8,5.3-4.1l0.6-21.2c0-4.1-3.6-5.1-6.5-5.1l0,0
				c-5.3-1.2-5.3,1.8-5.3,4.1v11.5C715.6,201.7,718.7,213.4,721.5,214.1L721.5,214.1z"/>
			<path class="st1" d="M721.5,437.4L721.5,437.4c4.3,1.7,5.3-1.8,5.3-4.1l0.6-21.2c0-4.1-3.6-5-6.5-5l0,0c-5.3-1.2-5.3,1.8-5.3,4.1
				v11.5C715.6,425,718.7,436.7,721.5,437.4L721.5,437.4z"/>
			<path class="st1" d="M721.5,393.9L721.5,393.9c4.3,1.7,5.3-1.8,5.3-4.1l0.6-21.2c0-4.1-3.6-5-6.5-5l0,0c-5.3-1.2-5.3,1.8-5.3,4.1
				v11.5C715.6,381.5,718.7,393.2,721.5,393.9L721.5,393.9z"/>
			<path class="st1" d="M721.5,348.9L721.5,348.9c4.3,1.7,5.3-1.8,5.3-4.1l0.6-21.2c0-4.1-3.6-5-6.5-5l0,0c-5.3-1.2-5.3,1.8-5.3,4.1
				v11.5C715.6,336.5,718.7,348.2,721.5,348.9L721.5,348.9z"/>
			<path class="st1" d="M721.5,304L721.5,304c4.3,1.7,5.3-1.8,5.3-4.1l0.6-21.2c0-4.1-3.6-5-6.5-5l0,0c-5.3-1.2-5.3,1.8-5.3,4.1
				v11.5C715.6,291.6,718.7,303.3,721.5,304L721.5,304z"/>
			<path class="st1" d="M721.5,259L721.5,259c4.3,1.7,5.3-1.8,5.3-4.1l0.6-21.2c0-4.1-3.6-5.1-6.5-5.1l0,0c-5.3-1.2-5.3,1.8-5.3,4.1
				v11.5C715.6,246.6,718.7,258.3,721.5,259z"/>
		</g>
	</g>
	<g>
		<path class="st2" d="M299.5,282.3c0,0-8.3-20.4-6.1-21.9c2.2-1.6,11,14.6,11,14.6s-2-17.1-0.8-19.1c4.7-7.5,6.1,13.9,6.1,13.9
			s3.4-16.7,5.6-15.8s5.7,20.3,5.7,20.3s10.6-15.9,12.1-14c6.5,8.2-7.1,24-7.1,24s11.5-7.9,12.3-5.4c3.3,9.8-15.6,18.3-15.6,18.3
			s15.1,5.9,16,9.2c2.1,8.8-11.8,3.1-11.8,3.1s5.8,11.7,2.8,13.9c-7.1,5.1-11.5-8.6-11.5-8.6s-2.1,10.6-9.9,8
			c-9.8-3.3-1.4-12.2-1.4-12.2s-8.3,8.3-10.4,7.4c-2.2-1,2.2-12.2,2.2-12.2s-8.2-0.5-9.5-2.6s12.4-8.2,12.4-8.2s-12.1,2.1-12.7-0.4
			c-2.6-11.9,12-4.3,12-4.3s-19.3-14.5-15.8-19.8C288.7,264.7,299.5,282.3,299.5,282.3L299.5,282.3z"/>
		<ellipse class="st3" cx="301.5" cy="289" rx="8.7" ry="24.1"/>
		<ellipse class="st3" cx="323.2" cy="285.9" rx="9.4" ry="25.6"/>
		<path class="st4" d="M306.4,299.3c0,6-0.9,9.1-4.1,9.1s-5.7-4.8-5.7-10.8s2.5-10.8,5.7-10.8S306.4,293.4,306.4,299.3L306.4,299.3z
			"/>
		<ellipse class="st4" cx="324.1" cy="296.8" rx="4.4" ry="11.2"/>
		<path class="st4" d="M324.6,308.9c0,2.1-3.9,10.8-11.2,10.8c-7.3,0-12.6-8.9-12.6-11c0-2.1,5.3,7.2,12.6,7.2
			C320.8,316,324.6,306.9,324.6,308.9z"/>
	</g>
	<g>
		<g>
			<path class="st5" d="M425.8,307.6h1.3c1.4,0,2.5,1.1,2.5,2.5V424c0,1.4-1.1,2.5-2.5,2.5h-1.3c-1.4,0-2.5-1.1-2.5-2.5V310.1
				C423.3,308.8,424.4,307.6,425.8,307.6z"/>
			<path class="st5" d="M413.7,419h12.9c1.7,0,3,1.3,3,3v1.5c0,1.7-1.3,3-3,3h-12.9c-1.7,0-3-1.3-3-3V422
				C410.7,420.3,412,419,413.7,419z"/>
		</g>
		<g>
			<path class="st5" d="M440.5,422.6h-1.3c-1.4,0-2.5-1.1-2.5-2.5V306.2c0-1.4,1.1-2.5,2.5-2.5h1.3c1.4,0,2.5,1.1,2.5,2.5v113.8
				C443,421.4,441.9,422.6,440.5,422.6z"/>
			<path class="st5" d="M452.6,422.6h-12.9c-1.7,0-3-1.3-3-3v-1.5c0-1.7,1.3-3,3-3h12.9c1.7,0,3,1.3,3,3v1.5
				C455.6,421.2,454.3,422.6,452.6,422.6z"/>
		</g>
		<g>
			<path class="st5" d="M414.8,309.2h1.3c1.4,0,2.5,1.1,2.5,2.5v102.8c0,1.4-1.1,2.5-2.5,2.5h-1.3c-1.4,0-2.5-1.1-2.5-2.5V311.7
				C412.3,310.3,413.4,309.2,414.8,309.2z"/>
			<path class="st5" d="M402.4,410.2h13.4c1.5,0,2.7,1.2,2.7,2.7v1.4c0,1.5-1.2,2.7-2.7,2.7h-13.4c-1.5,0-2.7-1.2-2.7-2.7V413
				C399.7,411.5,400.9,410.2,402.4,410.2z"/>
		</g>
		<path class="st6" d="M467.8,222.8c-13.4,51.6-18.8,94-42.4,93.2c-29.8-1-47.1-40.8-43.5-91.1c3.7-50.9-7.2-93.8,43.5-95.8
			C480.2,126.9,481.4,170.2,467.8,222.8z"/>
		<path class="st3" d="M417,276.4L417,276.4c0,0.1,0,0.1,0,0.1c-1.6-0.6-3-1.4-4.4-2.3l-0.4-7.5c0-0.9,0.8-5.5,2-5.5
			c1.2-0.1,2.2,4.2,2.3,5.1L417,276.4z"/>
		<path class="st3" d="M440.8,266.3c-1.4,4-3.2,6.9-5.3,8.8c-1,1-2.1,1.8-3.2,2.4c-2.8,1.6-5.7,2-8,2c-0.4,0-0.9,0-1.2,0
			c-2.4-0.2-4.8-0.8-7-1.7c-1.2-0.5-2.3-1.1-3.4-1.7c-3.9-2.4-6.9-5.7-7.6-9.1c-0.1-0.4,0.2-0.8,0.6-0.9c0.4-0.1,0.8,0.2,0.9,0.6
			c0.5,2.5,2.7,5.3,6,7.5c1.3,0.9,2.8,1.7,4.4,2.3c2,0.8,4.1,1.3,6.2,1.5c3.3,0.2,6-0.5,8.1-1.7c1.7-1,3.1-2.2,4.3-3.6
			c1.9-2.3,3-4.8,3.7-6.9c0.1-0.4,0.6-0.6,1-0.5C440.7,265.4,441,265.9,440.8,266.3L440.8,266.3z"/>
		<path class="st3" d="M436,263l-0.4,9.6c-1.1,1.4-2.5,2.7-4.3,3.6c-0.1-0.2-0.1-0.4-0.1-0.6l0.5-12.5c0-1.2,1.4-6.8,2.5-6.7
			C435.5,256.4,436.1,261.8,436,263L436,263z"/>
		<ellipse class="st3" cx="423.8" cy="214.4" rx="20.9" ry="29.8"/>
		<ellipse cx="423.8" cy="224.6" rx="6.8" ry="10.2"/>
	</g>
	<g>
		<g>
			<path class="st7" d="M200.3,111.2c-1.9,0.2-4.1,0.2-6.4,0.2s-4.6,0-6.6-0.2c-0.9-0.1-2.1-0.5-2.3-2.4c-0.6-6.7-1-14.5-1-22.6
				c0-13.3,0.8-27.6,2.4-39.5c0.2-1.7,1.1-2,2.2-2.1c1.9-0.1,3.7-0.2,5.5-0.2s3.8,0.1,5.5,0.2c1.1,0.1,1.9,0.6,1.9,1.7
				c0,1.4-1.5,15.6-1.5,30.6c0,15.8,1.7,30.3,1.7,32.7C201.8,110.6,201.2,111.1,200.3,111.2L200.3,111.2z"/>
			<path class="st7" d="M241.7,112.3c-14.7,0-19.5-11.2-19.5-24.9c0-20.1,10.3-28.3,22.5-28.3c8.2,0,14.7,4.4,14.7,13.5
				c0,13.9-11.6,15.6-18.8,18.7c-2.5,0.9-3.6,1.6-3.6,3c0,2.4,1.7,4.2,5.6,4.2c5.6,0,10.8-2.4,13.9-6.6c0.5-0.4,0.8-0.7,1.2-0.7
				c1.1,0,2,2.1,2,5.9C259.7,106.6,251.3,112.2,241.7,112.3L241.7,112.3z M242.8,70.3c-4.5,0-7.6,4.9-7.6,10.5c0,0.8,0.2,1.5,1,1.5
				c0.5,0,1.1-0.2,1.6-0.4c3.3-1.9,8.8-4,8.8-7.9C246.6,71.9,245.2,70.3,242.8,70.3L242.8,70.3z"/>
			<path class="st7" d="M293.5,111.2c-1.1,0.1-2.7,0.2-4.2,0.2c-1.6,0-3.5,0-5.5-0.2c-1.4-0.1-2.2-0.6-2.4-2.8
				c-0.6-6.8-1.1-14.6-1.1-23.8c0-6.3,0.2-13.3,0.9-21.1c0.2-2.5,1.6-3.3,3.7-3.5c1.4-0.2,3-0.2,4.8-0.2s3.7,0,4.6,0.2
				c1.1,0.2,1.5,0.6,1.5,1.5c0,0.7-0.3,1.5-0.3,2.4c0,0.5,0.3,0.8,0.9,0.8c2.1,0,5.3-5.4,11-5.4c5.3,0,7.1,4,9.1,4c2.4,0,5.8-4,12-4
				c9.6,0,13.5,9,13.5,26.3c0,12.9-0.9,20.8-1.7,23.5c-0.4,1.6-1.8,2.1-2.9,2.2s-2.8,0.2-4.5,0.2s-3.7-0.1-5.5-0.2
				c-1.9-0.1-2.4-1.1-2.4-2.4c0-2.4,1.5-10.3,1.5-23.9c0-8.6-0.9-12.1-4-12.1c-2.6,0-4.8,2.2-4.8,7.3c0,4.5,0.2,7.7,0.2,12
				c0,6.8-0.5,12.6-1,16.3c-0.2,1.7-1,2.4-2.2,2.5c-1.5,0.2-3.4,0.2-5.4,0.2c-1.6,0-3.4-0.1-5-0.2c-1.5-0.2-1.9-0.8-1.9-1.9
				c0-1.2,0.8-15.6,0.8-25.8c0-7.2-0.6-10.3-3.8-10.3c-3.4,0-5.1,3.3-5.1,11.2c0,14.4,1.1,23.2,1.1,24.9
				C295.5,110.5,294.8,111.1,293.5,111.2L293.5,111.2z"/>
			<path class="st7" d="M462.6,80c0,12.4-1.2,25.4-1.7,28.8c-0.2,1.6-1.1,2.3-2.3,2.4c-1.3,0.2-3.1,0.2-5,0.2c-2,0-4-0.1-5.7-0.2
				c-1.3-0.2-1.8-0.7-1.8-1.7c0-3.8,1.2-17.3,1.2-28c0-5.8-1-8.6-4-8.6c-1.5,0-2.8,0.5-3.8,1.5c-1.4,1.3-2,3.6-2,9.5
				c0,12.2,1.1,22.7,1.1,25.2c0,1.5-0.6,2-2.1,2.1s-3,0.2-4.6,0.2c-2,0-4-0.1-5.5-0.2c-1.4-0.1-2.3-0.5-2.4-2.6
				c-0.6-6.3-1-14.2-1-23.5c0-6.6,0.2-13.8,0.7-21.5c0.2-2.6,1.7-3.3,3.8-3.5c1.5-0.1,3.2-0.2,4.8-0.2c1.4,0,2.8,0.1,3.8,0.2
				c1.5,0.1,2,0.7,2,1.9s0.4,1.5,1.1,1.5c2.4,0,5.5-4.3,11.6-4.3C458.9,59.3,462.6,64.9,462.6,80L462.6,80z"/>
			<path class="st7" d="M499.4,100c2.9,0,4.1-1.1,4.1-3.2s-1.5-3.4-5.9-5.5c-7.8-3.8-14.2-7.1-14.2-16.6s7.3-15.7,18.9-15.7
				c5.2,0,10.6,1.3,13.3,2.9c1.2,0.7,1.5,1.5,1.5,2.7c0,3-1.5,8-2.8,10.7c-0.3,0.7-0.8,1-1.3,1c-0.4,0-0.8-0.2-1.1-0.5
				c-3-2.5-7.7-5.1-11.6-5.1c-2.6,0-3.9,1.2-3.9,2.9c0,2.1,1.5,3.1,6.1,5.2c7.2,3.3,15.3,7.1,15.3,17.2c0,10.9-7,16.4-17.7,16.4
				s-17.7-5.2-17.7-13.6c0-3.3,0.8-5.9,1.5-7c0.3-0.5,0.7-0.8,1.2-0.8c0.4,0,0.8,0.2,1.1,0.7C488.7,95.6,493.7,100,499.4,100
				L499.4,100z"/>
			<path class="st7" d="M556.3,48.2c0.7,0,1.1,0.5,1.1,1.1c0,1.2-2.7,6.1-2.7,10c0,0.7,0.4,1.1,1.3,1.1c1.1,0,2.8-0.3,3.9-0.3
				c0.7,0,1.1,0.5,1.3,1.5c0.2,1.4,0.4,3.4,0.4,5.5s-0.2,4.4-0.6,6.4c-0.2,0.7-0.7,1-1.2,1c-1.1,0-2.4-0.4-3.9-0.4
				c-1.2,0-1.5,0.7-1.7,2.8c-0.2,1.4-0.2,3.2-0.2,5.1c0,8.5,2,18.4,3.9,25.4c0.1,0.4,0.2,0.7,0.2,0.9c0,0.7-0.3,1.1-0.9,1.5
				c-3.1,2-10.2,3.3-13.6,3.3c-1,0-1.5-0.3-1.9-1.1c-1.8-4.5-2.5-11.2-2.5-18.5c0-8.1,0.9-14.7,1-17.3c0.1-0.9-0.2-1.2-1-1.4
				c-0.4-0.1-0.8-0.2-1.1-0.2c-0.8-0.2-1.3-0.7-1.3-1.7c0-3.4,0.2-6.9,0.7-11c0.2-1.2,0.7-1.7,1.5-1.7h1.2c1.1,0,1.2-1.3,1.5-4.2
				c0.3-3.4,0.5-4,2-4.9C547.6,48.9,554.8,48.2,556.3,48.2L556.3,48.2z"/>
			<path class="st7" d="M599.3,112.3c-14.7,0-19.5-11.2-19.5-24.9c0-20.1,10.3-28.3,22.5-28.3c8.2,0,14.7,4.4,14.7,13.5
				c0,13.9-11.6,15.6-18.8,18.7c-2.5,0.9-3.6,1.6-3.6,3c0,2.4,1.7,4.2,5.6,4.2c5.6,0,10.8-2.4,13.9-6.6c0.5-0.4,0.8-0.7,1.2-0.7
				c1.1,0,2,2.1,2,5.9C617.3,106.6,608.9,112.2,599.3,112.3L599.3,112.3z M600.5,70.3c-4.5,0-7.6,4.9-7.6,10.5c0,0.8,0.2,1.5,1,1.5
				c0.5,0,1.1-0.2,1.5-0.4c3.3-1.9,8.8-4,8.8-7.9C604.2,71.9,602.8,70.3,600.5,70.3L600.5,70.3z"/>
			<path class="st7" d="M654,111.1c-1.5,0.1-3.4,0.2-5.5,0.2s-4.3,0-6.6-0.2c-1.1-0.1-2-0.8-2.3-2.2c-1-4.2-1.6-12.8-1.6-23.3
				c0-14.2,0.7-20.6,1.4-23.3c0.3-1.3,0.9-1.8,1.5-2c1-0.2,3.7-0.5,6.2-0.5c1.4,0,2.7,0,3.7,0.2c0.9,0.2,1.1,0.7,1.2,1.7
				c0.1,1,0.5,1.3,0.9,1.3s0.8-0.2,1.4-0.7c1.6-1.5,3.3-2.8,5.1-2.8c1.5,0,2.4,1.9,2.4,8.3c0,3-0.2,5.9-0.7,7.3
				c-0.4,1.4-1.1,1.7-1.8,1.7c-1,0-2.3-0.7-3.8-0.7s-2.8,1.6-2.8,7.9c0,10.3,3.4,23.4,3.4,25.1C656.1,110.2,655.6,111,654,111.1
				L654,111.1z"/>
			<path class="st7" d="M697.2,100c2.8,0,4.1-1.1,4.1-3.2s-1.5-3.4-5.9-5.5c-7.8-3.8-14.2-7.1-14.2-16.6s7.3-15.7,18.9-15.7
				c5.2,0,10.6,1.3,13.3,2.9c1.2,0.7,1.5,1.5,1.5,2.7c0,3-1.5,8-2.8,10.7c-0.3,0.7-0.8,1-1.3,1c-0.4,0-0.8-0.2-1.1-0.5
				c-3-2.5-7.7-5.1-11.6-5.1c-2.6,0-3.9,1.2-3.9,2.9c0,2.1,1.5,3.1,6.1,5.2c7.2,3.3,15.3,7.1,15.3,17.2c0,10.9-7,16.4-17.7,16.4
				s-17.7-5.2-17.7-13.6c0-3.3,0.8-5.9,1.5-7c0.3-0.5,0.7-0.8,1.2-0.8c0.4,0,0.8,0.2,1.1,0.7C686.5,95.6,691.5,100,697.2,100
				L697.2,100z"/>
		</g>
		<path class="st8" d="M402.8,97.1c-31.1,30.7-30.9,37.7-39.7,18.5c-4.9-10.6-18.2-25.6-7-44.9s48.3-46.1,50.7-20.1
			C408,64,418.7,81.4,402.8,97.1L402.8,97.1z"/>
		<path class="st9" d="M375,37.6c-10.3-3.4-31.4-17.8-19.9,0.1c1.1,1.8,9.6,13,19.9,16.4s16.8-2,17.4-4S385.3,41,375,37.6L375,37.6z
			"/>
		<path class="st9" d="M412.8,25c3-9.9,13.5-20.8-7.2-10c-1.7,0.9-11.1,9.1-13.8,18.4s2.5,14.8,4.3,15.4S410.8,31.7,412.8,25
			L412.8,25z"/>
	</g>
	<g>
		<g>
			<path class="st10" d="M489.4,590.9c13.7-15.8,49.2-28.5,98.1-33.7c70.7-7.5,88,21.3,86.9,42.2c-1,20.9-41.8,28.6-90.7,33.5
				C484.2,642.8,469.9,613.3,489.4,590.9L489.4,590.9z"/>
			<path class="st11" d="M483,586.7c13.7-15.8,49.2-28.5,98.1-33.7c70.7-7.5,88,21.3,86.9,42.2c-1,20.9-41.8,28.6-90.7,33.5
				C477.8,638.6,463.5,609.1,483,586.7L483,586.7z"/>
		</g>
		<g>
			<g>
				<path class="st12" d="M524.2,610.9c-1,0.1-2.3,0.3-3.7,0.5c-1.4,0.2-2.9,0.3-4.5,0.4c-0.8,0-1.4-0.2-1.6-0.9
					c-0.9-1.9-1.7-5.9-2.2-10.8c-0.7-6.6-0.5-9.7-0.2-11c0.2-0.6,0.5-0.9,0.9-1.1c0.7-0.2,2.5-0.5,4.2-0.7c0.9-0.1,1.8-0.2,2.5-0.1
					c0.6,0,0.8,0.3,0.9,0.7c0.1,0.5,0.4,0.6,0.7,0.5c0.3,0,0.5-0.2,0.9-0.4c1-0.8,2.1-1.6,3.3-1.7c1-0.1,1.7,0.7,2,3.7
					c0.1,1.4,0.2,2.8-0.1,3.5c-0.2,0.7-0.6,0.9-1.1,0.9c-0.7,0.1-1.6-0.2-2.6-0.1s-1.8,0.9-1.5,3.9c0.5,4.8,3.4,10.7,3.5,11.5
					C525.6,610.4,525.3,610.7,524.2,610.9L524.2,610.9z"/>
				<path class="st12" d="M533.4,598.2c-0.3-3.2-0.2-9.4,0-11.1c0.1-0.8,0.5-1.2,1.4-1.4c1.1-0.2,2.5-0.3,3.8-0.5
					c1.3-0.1,2.4-0.2,3.3-0.3c0.9,0,1.2,0.3,1.3,0.8c0.1,1.2,0,7.9,0.5,12.9c0.3,3.1,1.5,4,3.3,3.9c0.9-0.1,1.6-0.4,2.2-0.8
					c1-0.8,1.3-2.2,1.1-4.7c-0.7-6.7-1.9-10.7-2-11.4c-0.1-0.8,0.3-1.1,1.3-1.2c0.8-0.2,1.9-0.3,3-0.4c1.4-0.1,2.7-0.3,3.7-0.3
					c1-0.1,1.7,0.1,2,1.2c0.9,3,1.4,6.3,1.8,9.9c0.3,3.3,0.5,7,0.4,11c0,1.2-1,1.6-2.2,1.8c-0.9,0.2-2,0.3-3,0.4
					c-0.8,0.1-1.5,0.2-2.1,0.2c-0.9,0-1.3-0.2-1.4-0.8c0-0.5-0.3-0.7-1-0.6c-1.8,0.2-3.9,2.5-7.8,2.9
					C536.7,610.1,534.3,607.3,533.4,598.2L533.4,598.2z"/>
				<path class="st12" d="M579.5,605.4c-1.2,0.2-2.7,0.4-4.3,0.5c-1.5,0.2-3.1,0.3-4.5,0.4c-0.6,0-1.5-0.1-1.7-1
					c-0.8-3.1-1.3-6.7-1.7-10.5c-0.6-6.2-0.8-13-0.2-18.6c0.1-0.8,0.7-1,1.4-1.1c1.3-0.2,2.5-0.3,3.7-0.5s2.5-0.2,3.7-0.3
					c0.8,0,1.3,0.1,1.3,0.7c0.1,0.6-0.2,7.4,0.5,14.4c0.8,7.4,2.6,14.1,2.7,15.2C580.5,605,580,605.3,579.5,605.4L579.5,605.4z"/>
				<path class="st12" d="M599.1,603.9c-9.9,1-13.7-3.9-14.3-10.3c-1-9.4,5.6-14,13.8-14.8c5.5-0.6,10.1,1,10.5,5.3
					c0.7,6.5-7.1,8.1-11.8,10c-1.7,0.6-2.3,1-2.3,1.7c0.1,1.1,1.3,1.9,4,1.6c3.8-0.4,7.1-1.9,9.1-4c0.3-0.2,0.5-0.4,0.8-0.4
					c0.8-0.1,1.5,0.9,1.7,2.6C611,600,605.6,603.2,599.1,603.9L599.1,603.9z M597.9,584.2c-3,0.3-4.9,2.8-4.6,5.4
					c0,0.4,0.2,0.7,0.7,0.6c0.3,0,0.7-0.2,1-0.3c2.1-1.1,5.7-2.5,5.5-4.3C600.5,584.6,599.5,584,597.9,584.2L597.9,584.2z"/>
				<path class="st12" d="M626.6,595.3c1.9-0.2,2.7-0.8,2.6-1.8c-0.1-1-1.2-1.5-4.3-2.2c-5.4-1.2-9.9-2.3-10.3-6.8
					c-0.5-4.6,4.2-7.9,12-8.7c3.5-0.4,7.2-0.1,9.1,0.5c0.9,0.3,1.1,0.6,1.2,1.1c0.1,1.4-0.6,3.8-1.4,5.2c-0.2,0.4-0.5,0.5-0.8,0.5
					c-0.3,0-0.6,0-0.8-0.1c-2.2-1-5.5-1.9-8-1.6c-1.8,0.2-2.6,0.8-2.5,1.6c0.1,1,1.1,1.3,4.4,2c5,1,10.7,2.3,11.1,7
					c0.5,5.1-3.9,8.1-11.1,8.9c-7.3,0.8-12.2-1.2-12.5-5.1c-0.2-1.6,0.3-2.8,0.7-3.4c0.2-0.2,0.5-0.4,0.8-0.5c0.3,0,0.6,0,0.7,0.2
					C619.3,593.9,622.8,595.7,626.6,595.3L626.6,595.3z"/>
			</g>
			<g>
				<path class="st8" d="M522.5,609.2c-1,0.1-2.3,0.3-3.7,0.5c-1.4,0.1-2.9,0.3-4.5,0.4c-0.8,0-1.3-0.2-1.6-0.9
					c-0.9-1.9-1.7-5.9-2.2-10.8c-0.7-6.6-0.5-9.7-0.2-11c0.2-0.6,0.5-0.9,0.9-1.1c0.7-0.2,2.5-0.5,4.2-0.7c0.9-0.1,1.8-0.2,2.5-0.1
					c0.6,0,0.8,0.3,0.9,0.7c0.1,0.5,0.4,0.6,0.7,0.5c0.3,0,0.5-0.2,0.9-0.4c1-0.8,2.1-1.6,3.3-1.7c1-0.1,1.7,0.7,2,3.7
					c0.1,1.4,0.2,2.8-0.1,3.5c-0.2,0.7-0.6,0.9-1.1,0.9c-0.7,0.1-1.6-0.2-2.6-0.1s-1.8,0.9-1.5,3.9c0.5,4.8,3.4,10.7,3.5,11.5
					C523.9,608.6,523.6,609,522.5,609.2L522.5,609.2z"/>
				<path class="st8" d="M531.7,596.4c-0.3-3.2-0.2-9.4,0-11.1c0.1-0.8,0.5-1.2,1.4-1.4c1.1-0.1,2.5-0.3,3.8-0.5
					c1.3-0.1,2.4-0.2,3.3-0.3c0.9,0,1.2,0.3,1.3,0.8c0.1,1.2,0,7.9,0.5,12.8c0.3,3.1,1.5,4,3.3,3.9c0.9-0.1,1.6-0.4,2.2-0.8
					c1-0.8,1.3-2.2,1.1-4.7c-0.7-6.7-1.9-10.7-2-11.4c-0.1-0.8,0.3-1.1,1.3-1.2c0.8-0.2,1.9-0.3,3-0.4c1.4-0.1,2.7-0.3,3.7-0.3
					c1-0.1,1.7,0.1,1.9,1.1c0.9,3,1.4,6.3,1.8,9.9c0.3,3.3,0.5,7,0.4,11c0,1.1-1,1.6-2.2,1.8c-0.9,0.2-2,0.3-3,0.4
					c-0.8,0.1-1.5,0.2-2.1,0.2c-0.9,0-1.3-0.2-1.4-0.8c0-0.5-0.3-0.7-1-0.6c-1.8,0.2-3.9,2.5-7.8,2.9
					C535,608.3,532.6,605.5,531.7,596.4L531.7,596.4z"/>
				<path class="st8" d="M577.8,603.6c-1.2,0.2-2.7,0.4-4.3,0.5c-1.5,0.2-3.1,0.3-4.5,0.4c-0.6,0-1.5-0.1-1.7-1
					c-0.8-3.1-1.3-6.7-1.7-10.5c-0.6-6.2-0.8-13-0.2-18.7c0.1-0.8,0.7-1,1.4-1.1c1.3-0.2,2.5-0.3,3.7-0.5c1.3-0.1,2.5-0.2,3.7-0.3
					c0.8,0,1.3,0.1,1.3,0.7c0.1,0.6-0.2,7.4,0.5,14.4c0.8,7.4,2.6,14.1,2.7,15.2C578.8,603.2,578.4,603.5,577.8,603.6L577.8,603.6z"
					/>
				<path class="st8" d="M597.5,602.1c-9.9,1-13.7-3.9-14.3-10.3c-1-9.4,5.6-14,13.8-14.8c5.5-0.6,10.1,1,10.5,5.3
					c0.7,6.5-7.1,8.1-11.8,10c-1.7,0.6-2.3,1-2.3,1.7c0.1,1.1,1.3,1.9,4,1.6c3.8-0.4,7.1-1.9,9.1-4c0.3-0.2,0.5-0.4,0.8-0.4
					c0.8-0.1,1.5,0.8,1.7,2.6C609.3,598.2,603.9,601.4,597.5,602.1z M596.2,582.4c-3,0.3-4.9,2.8-4.6,5.4c0,0.4,0.2,0.7,0.7,0.6
					c0.3,0,0.7-0.1,1-0.3c2.1-1.1,5.7-2.5,5.5-4.3C598.8,582.8,597.8,582.2,596.2,582.4L596.2,582.4z"/>
				<path class="st8" d="M625,593.5c1.9-0.2,2.7-0.8,2.6-1.8c-0.1-1-1.2-1.5-4.3-2.2c-5.4-1.2-9.9-2.3-10.3-6.8
					c-0.5-4.6,4.2-7.9,12-8.7c3.5-0.4,7.2-0.1,9.1,0.5c0.9,0.3,1.1,0.6,1.2,1.1c0.1,1.4-0.6,3.8-1.4,5.2c-0.2,0.4-0.5,0.5-0.8,0.5
					c-0.3,0-0.6,0-0.8-0.1c-2.2-1-5.5-1.9-8-1.6c-1.8,0.2-2.6,0.8-2.5,1.6c0.1,1,1.1,1.3,4.4,2c5,1,10.7,2.3,11.1,7
					c0.5,5.1-3.9,8.1-11.1,8.9c-7.3,0.8-12.2-1.2-12.5-5.1c-0.2-1.6,0.3-2.8,0.7-3.4c0.2-0.2,0.5-0.4,0.8-0.5c0.3,0,0.6,0,0.7,0.2
					C617.6,592.1,621.1,593.8,625,593.5L625,593.5z"/>
			</g>
		</g>
	</g>
	<g>
		<path class="st10" d="M352.6,617.5c-15.5,13.1-51.6,20-99.2,17.6c-69-3.4-81.3-33.6-77.1-53.5c4.1-19.9,44.4-21.2,92.1-18.5
			C365.3,568.5,374.6,598.9,352.6,617.5z"/>
		<path class="st11" d="M348.3,612.7c-15.5,13.1-51.6,20-99.2,17.6c-69-3.4-81.3-33.6-77.1-53.5c4.1-19.9,44.4-21.2,92.1-18.5
			C361,563.7,370.3,594,348.3,612.7z"/>
		<g>
			<path class="st12" d="M205.5,604.9c-0.9-0.1-1.6-0.4-1.9-1.8c-0.9-3.4-1.1-9-0.7-13.9c0.8-11.3,2.2-12.5,12.5-11.8
				c13.8,1,17.2,5.6,16.8,11.2c-0.7,9.2-7.8,13.3-12.5,12.9c-2.8-0.2-4.5-3.2-5.6-3.3c-0.5,0-0.8,0.2-0.8,0.6
				c-0.2,2.7,0.9,4.4,0.8,5.1c0,0.5-0.6,0.6-1.4,0.7C210.4,604.8,207,605,205.5,604.9L205.5,604.9z M213.6,589.8
				c-0.3,4.2,1,5.2,2.9,5.4c2.7,0.2,4.4-2.8,4.7-7.5c0.2-3-1.2-4.3-4.2-4.5C215,583,214,584.2,213.6,589.8L213.6,589.8z"/>
			<path class="st12" d="M249.5,607.2c-1.4,0-3-0.1-4.7-0.3c-1.7-0.1-3.5-0.3-4.9-0.5c-0.7-0.1-1.6-0.4-1.6-1.4
				c-0.2-3.5-0.2-7.5,0.1-11.8c0.5-6.9,1.7-14.2,3.3-20.3c0.2-0.9,0.9-1,1.7-1c1.4,0.1,2.7,0.1,4.1,0.2c1.4,0.1,2.8,0.2,4.1,0.4
				c0.9,0.1,1.4,0.4,1.3,1c0,0.7-1.7,8-2.3,15.8c-0.6,8.2,0.1,15.8,0,17C250.7,607,250.2,607.2,249.5,607.2L249.5,607.2z"/>
			<path class="st12" d="M257.3,599.8c0.5-6.1,7.5-8,15.5-8.2c1.9-0.1,2.8-0.3,2.9-1.1c0.1-1.3-0.9-2.2-3.8-2.4
				c-3.1-0.2-6.4,0.5-9.4,2c-0.4,0.2-0.8,0.3-1.1,0.3c-0.2,0-0.5-0.1-0.8-0.3c-1.1-0.8-2.1-2.3-2-4c0.2-3,5.7-4.9,14.3-4.3
				c10.2,0.8,13.5,4.6,13,10.8c-0.2,2.6-0.8,6.6-1,9.7c-0.2,2.4,0.1,5.3,0,5.9c0,0.7-0.6,1.1-1.6,1.2c-2,0.1-8.6-0.3-12.6-0.6
				C261.6,608.1,256.9,605.4,257.3,599.8L257.3,599.8z M275.1,598.1c0.1-1.3-0.1-1.6-1.2-1.7c-3.3-0.2-6.2,0.9-6.3,3.1
				c-0.1,1.8,1.6,2.8,4.7,3c1.9,0.1,2.5-0.4,2.6-1.7L275.1,598.1L275.1,598.1z"/>
			<path class="st12" d="M293.6,602.8c1.7,0.1,3.9,0.5,5.9,0.7c2.2,0.2,3.8,0.1,3.9-0.8c0-0.2-0.3-0.5-0.7-0.7c-7-3-10-7.1-9.3-16.6
				c0.1-1.1,0.6-1.5,2.1-1.5c1.1,0,2.4,0,3.9,0.2c1.5,0.1,3.1,0.3,4.5,0.5c0.7,0.1,1.3,0.3,1.2,0.9c0,0.4-0.4,1.8-0.5,3
				c-0.4,5.3,2,9.6,4.1,9.8c0.4,0,0.7-0.1,1-0.5c0.8-1.4,1.3-4.1,1.5-6.8c0.2-2.1-0.1-4.4-0.1-4.9c0-0.5,0.7-0.8,1.3-0.8
				c1,0,2.6,0.1,4,0.2c1.5,0.1,2.9,0.2,3.6,0.3c1.7,0.3,2.1,1.2,2,2.5c-1.1,14.6-5.9,24.5-28.9,22.8c-1.6-0.1-2-0.6-2-1.5
				c0-0.6,0-1.3,0-2c0.1-1.3,0.3-2.7,0.6-3.9C292,603,292.7,602.7,293.6,602.8L293.6,602.8z"/>
		</g>
		<g>
			<path class="st7" d="M203.6,603.6c-0.9-0.1-1.6-0.4-1.9-1.8c-0.9-3.4-1.1-9-0.7-13.9c0.8-11.3,2.2-12.5,12.5-11.8
				c13.8,1,17.2,5.6,16.8,11.2c-0.7,9.2-7.8,13.3-12.5,12.9c-2.8-0.2-4.5-3.2-5.6-3.3c-0.5,0-0.8,0.2-0.8,0.6
				c-0.2,2.7,0.9,4.4,0.8,5.1c0,0.5-0.6,0.6-1.4,0.7C208.5,603.5,205.1,603.7,203.6,603.6L203.6,603.6z M211.7,588.4
				c-0.3,4.2,1,5.2,2.9,5.4c2.7,0.2,4.4-2.8,4.7-7.5c0.2-3-1.2-4.3-4.2-4.5C213.1,581.7,212.1,582.9,211.7,588.4L211.7,588.4z"/>
			<path class="st7" d="M247.6,605.9c-1.4,0-3-0.1-4.7-0.3c-1.7-0.1-3.5-0.3-4.9-0.5c-0.7-0.1-1.6-0.4-1.6-1.3
				c-0.2-3.5-0.2-7.5,0.1-11.8c0.5-6.9,1.7-14.2,3.3-20.3c0.2-0.9,0.9-1,1.7-1c1.4,0.1,2.7,0.1,4.1,0.2c1.4,0.1,2.8,0.2,4.1,0.4
				c0.9,0.1,1.4,0.4,1.3,1c0,0.7-1.7,8-2.3,15.8c-0.6,8.2,0.1,15.8,0,17C248.8,605.7,248.3,605.9,247.6,605.9L247.6,605.9z"/>
			<path class="st7" d="M255.4,598.4c0.5-6.1,7.5-8,15.5-8.2c1.9-0.1,2.8-0.3,2.9-1.1c0.1-1.3-0.9-2.2-3.8-2.4
				c-3.1-0.2-6.4,0.5-9.4,2c-0.4,0.2-0.8,0.3-1.1,0.3c-0.2,0-0.5-0.1-0.8-0.3c-1.1-0.8-2.1-2.3-2-4c0.2-3,5.7-4.9,14.3-4.3
				c10.2,0.8,13.5,4.6,13,10.8c-0.2,2.6-0.8,6.6-1,9.7c-0.2,2.4,0.1,5.3,0,5.9c0,0.7-0.6,1.1-1.6,1.2c-2,0.1-8.6-0.3-12.6-0.6
				C259.7,606.8,254.9,604,255.4,598.4L255.4,598.4z M273.2,596.8c0.1-1.3-0.1-1.6-1.1-1.7c-3.3-0.2-6.2,0.9-6.3,3.1
				c-0.1,1.8,1.6,2.8,4.7,3c1.9,0.1,2.5-0.4,2.6-1.7L273.2,596.8L273.2,596.8z"/>
			<path class="st7" d="M291.7,601.5c1.7,0.1,3.9,0.5,5.9,0.7c2.2,0.2,3.8,0.1,3.9-0.8c0-0.2-0.3-0.5-0.7-0.7c-7-3-10-7.1-9.3-16.6
				c0.1-1.1,0.6-1.5,2.1-1.5c1.1,0,2.4,0,3.9,0.2c1.5,0.1,3.1,0.3,4.5,0.5c0.7,0.1,1.3,0.3,1.2,0.8c0,0.4-0.4,1.8-0.5,3
				c-0.4,5.3,2,9.6,4.1,9.8c0.4,0,0.7-0.1,1-0.5c0.8-1.4,1.3-4.1,1.5-6.8c0.2-2.1-0.1-4.4-0.1-4.9c0-0.5,0.7-0.8,1.3-0.8
				c1,0,2.6,0.1,4,0.2c1.5,0.1,2.9,0.2,3.6,0.4c1.7,0.3,2.1,1.2,2,2.5c-1.1,14.6-5.9,24.5-28.9,22.8c-1.6-0.1-2-0.6-2-1.5
				c0-0.6,0-1.3,0-2c0.1-1.3,0.3-2.7,0.6-3.9C290.1,601.7,290.7,601.4,291.7,601.5L291.7,601.5z"/>
		</g>
	</g>
	<g>
		<path d="M576.4,296.9l54.9-54.9c0.7-0.7,1.8-0.7,2.5,0v0c0.7,0.7,0.7,1.8,0,2.5l-54.9,54.9c-0.7,0.7-1.8,0.7-2.5,0v0
			C575.7,298.7,575.7,297.6,576.4,296.9z"/>
		<path d="M551.5,312.2L489.4,250c-0.6-0.6-0.6-1.6,0-2.1l0,0c0.6-0.6,1.6-0.6,2.1,0l62.2,62.2c0.6,0.6,0.6,1.6,0,2.1v0
			C553.1,312.8,552.1,312.8,551.5,312.2z"/>
		<path class="st13" d="M563.8,345L563.8,345c-7,0-12.7-5.7-12.7-12.7c0,0-4.9-27.7,0-49c1.5-6.8,5.7-12.7,12.7-12.7l0,0
			c7,0,12.7,5.7,12.7,12.7c0,0,8.1,37.4,0,49C570.5,340.8,570.8,345,563.8,345z"/>
		<path class="st14" d="M628,357.9c0.4,0,0.8,0,1.2-0.1c-0.3,0.1-0.7,0.1-1,0.1C628.1,357.9,628.1,357.9,628,357.9L628,357.9z"/>
		<path class="st14" d="M631.2,329.1c-0.9-0.2-1.8-0.4-2.7-0.5c0.2,0,0.4,0,0.6,0C629.8,328.6,630.5,328.8,631.2,329.1L631.2,329.1z
			"/>
		<path class="st15" d="M630.3,357.2c-0.2,0-0.3,0-0.5,0c0,0-68,1.8-91.5,0.8c-0.7,0-41.6-0.8-42.3-0.9c0.1,0,0.1,0,0.2,0h0
			c4.1-0.4,8.7-6.8,8.7-14.4c0-6-2.4-11-5.3-13.4c-0.8-0.6-1.7-1-2.7-1.2c-0.1,0-0.2,0-0.3,0c0.5,0,1-0.1,1.6-0.1
			c0,0,98.9-7.8,131.6,0c0.4,0.1,0.7,0,1.1,0c6.3,14.2-13.7,8-8.5,14C627.9,348.1,633.8,340.1,630.3,357.2L630.3,357.2z"/>
		<path class="st14" d="M639.7,342.7c0,7.6-4.7,13.5-8.7,14.4h0c-0.4,0-0.8,0.1-1.2,0.1c-9.4,0.5-7.9-7.1-7.9-15.3
			s-11.7-13.4,8.2-13.9c0.2,0,0.5,0,0.7,0c0.4,0,0.8,0.1,1.2,0.2c0.9,0.2,1.8,0.6,2.6,1.2C637.3,331.7,639.7,336.7,639.7,342.7
			L639.7,342.7z"/>
		<path class="st14" d="M504.9,342.6c0,7.6,8,12.3-8.7,14.4h0c-0.1,0-0.1,0-0.2,0c-0.8-0.1-1.5-0.3-2.2-0.5c-1.1-0.3-2-1-2.8-1.8
			c-2.3-2.8-3.9-7.5-3.9-12.9s2.2-9.8,4.8-12.1c0.6-0.5,1.4-1,2.2-1.2c0.4-0.1,0.9-0.2,1.3-0.3c0.8-0.2,1.6-0.1,2.5,0h0
			c0.3,0.1,0.6,0.1,0.9,0.1C507.1,328.9,504.9,335.8,504.9,342.6L504.9,342.6z"/>
		<path class="st14" d="M494.2,328.7c-1.3,0.1-2.5,0.4-3.6,0.9c0.9-0.5,1.7-0.9,2.6-1C493.5,328.6,493.9,328.7,494.2,328.7z"/>
		<g>
			<path d="M652.7,342.2h-23v-2.1h22.7v1.5C652.4,341.9,652.5,342.1,652.7,342.2L652.7,342.2z"/>
			<path d="M654,336.9v4.9c0,0.1,0,0.3-0.1,0.4c0,0.1-0.1,0.1-0.2,0.1h-1c-0.2-0.1-0.3-0.3-0.3-0.6v-4.9c0-0.4,0.3-0.7,0.7-0.7h0.2
				C653.7,336.1,654,336.5,654,336.9L654,336.9z"/>
		</g>
		<g>
			<path d="M473.6,343.7h23v-2.1h-22.7v1.5C473.9,343.4,473.8,343.6,473.6,343.7L473.6,343.7z"/>
			<path d="M472.4,338.3v4.9c0,0.1,0,0.3,0.1,0.4c0,0.1,0.1,0.1,0.1,0.1h1c0.2-0.1,0.3-0.3,0.3-0.6v-4.9c0-0.4-0.3-0.7-0.7-0.7h-0.2
				C472.7,337.6,472.4,337.9,472.4,338.3L472.4,338.3z"/>
		</g>
		<g>
			<circle class="st13" cx="562.9" cy="269.4" r="24.7"/>
			<path class="st14" d="M563.7,295c-14.5,0-26.3-11.8-26.3-26.3s12-24,26.3-26.3c18.8-3.1,26.3,11.8,26.3,26.3S578.2,295,563.7,295
				z M563.7,245.5c-12.8,0-21,10.6-23.2,23.2c-2.8,16,10.4,23.2,23.2,23.2s23.2-10.4,23.2-23.2S576.5,245.5,563.7,245.5L563.7,245.5
				z"/>
		</g>
		<path class="st3" d="M563.8,289c-0.4,0-0.7,0-1,0c-6.7-0.5-13-3.5-16.9-8.2c-2.8-3.3-4-7.1-3.6-10.9v0.2
			c-0.4,3.6,1.5,7.1,4.2,10.2c3.8,4.5,9.9,7.5,16.3,7.9c4.6,0.3,11.6-1.6,16.1-6.5c3-3.3,4.8-8,4.1-12.4l0.2,0.6
			c0.7,4.6-0.6,8.9-3.8,12.4C575.1,287,568.5,289,563.8,289L563.8,289z"/>
		<path class="st3" d="M563.5,284.4c-0.3,0-0.6,0-0.8,0c-5.4-0.3-10.5-2.6-13.6-6.1c-2.2-2.5-3.2-5.2-2.9-8.1v0.1
			c-0.3,2.7,1.2,5.2,3.3,7.6c3,3.3,7.9,5.5,13.2,5.9c3.7,0.2,9.3-1.2,13-4.8c2.4-2.4,3.8-6,3.3-9.2l0.2,0.4c0.6,3.4-0.5,6.6-3,9.2
			C572.6,282.9,567.3,284.4,563.5,284.4L563.5,284.4z"/>
		<circle class="st3" cx="553.1" cy="262.5" r="3.5"/>
		<circle class="st3" cx="558" cy="273.9" r="3.5"/>
		<circle class="st3" cx="562.9" cy="255.4" r="3.5"/>
		<circle class="st3" cx="572.8" cy="261.7" r="3.5"/>
		<circle class="st3" cx="569.9" cy="273.6" r="3.5"/>
		<circle cx="551.6" cy="261.8" r="1.3"/>
		<circle cx="559.2" cy="275" r="1.3"/>
		<circle cx="569.3" cy="275" r="1.3"/>
		<circle cx="573.9" cy="261.3" r="1.3"/>
		<circle cx="562.8" cy="254.3" r="1.3"/>
		<path class="st16" d="M570.9,287.8l2.8-1.3c1.6,3.4,1.6,6.8,0.1,7.5s-4.1-1.5-5.7-4.9c-0.1-0.1-0.1-0.3-0.2-0.4L570.9,287.8
			L570.9,287.8z"/>
		<path class="st16" d="M560.3,284l3.1,0.4c-0.4,3.7-2.2,6.7-3.9,6.5s-2.7-3.4-2.3-7.2c0-0.1,0-0.3,0.1-0.4L560.3,284L560.3,284z"/>
	</g>
</g>
</svg>
