<svg xmlns="http://www.w3.org/2000/svg" width="870" height="490" viewBox="0 0 870 490"><defs><style>.cls-1{fill:#638dbb;}.cls-2{fill:#293f02;}.cls-3{fill:#ea968c;}.cls-4{fill:#fff;}.cls-5{fill:#eedec0;}.cls-6{fill:#2e3e0e;}</style></defs><g id="youwon"><rect class="cls-1" x="-1" y="1" width="870" height="490"/><rect class="cls-2" x="131.57" y="284.96" width="8.21" height="155.44" rx="4.1"/><rect class="cls-2" x="115.16" y="430.59" width="24.62" height="9.81" rx="3.58"/><rect class="cls-2" x="149.19" y="279.84" width="8.21" height="155.44" rx="4.1" transform="translate(306.58 715.12) rotate(-180)"/><rect class="cls-2" x="149.19" y="425.47" width="24.62" height="9.81" rx="3.58" transform="translate(323 860.74) rotate(-180)"/><rect class="cls-2" x="117.21" y="287.02" width="8.21" height="141.06" rx="4.1"/><rect class="cls-2" x="100.8" y="419.17" width="24.62" height="8.9" rx="3.58"/><path class="cls-3" d="M189.7,174c-17.44,67.5-24.55,122.89-55.39,121.88-39-1.27-61.51-53.33-56.76-119.15,4.8-66.61-9.42-122.65,56.76-125.3C206,48.59,207.48,105.21,189.7,174Z"/><path class="cls-4" d="M123.39,244v.11a.09.09,0,0,1,0,0,28.17,28.17,0,0,1-5.7-3l-.57-9.78c-.07-1.21,1-7.14,2.56-7.23s2.9,5.45,3,6.65Z"/><path class="cls-4" d="M154.51,230.87a28.57,28.57,0,0,1-6.89,11.56,19.64,19.64,0,0,1-4.18,3.13A21,21,0,0,1,133,248.2c-.58,0-1.12,0-1.63,0a29.2,29.2,0,0,1-9.12-2.21,32.37,32.37,0,0,1-4.44-2.24c-5.15-3.13-9.06-7.51-9.92-11.9a1,1,0,0,1,2-.4c.64,3.24,3.58,6.9,7.77,9.75a28.17,28.17,0,0,0,5.7,3,26.87,26.87,0,0,0,8.14,1.9,18.87,18.87,0,0,0,10.64-2.19,19.27,19.27,0,0,0,5.58-4.73,29.36,29.36,0,0,0,4.83-9,1,1,0,0,1,1.94.67Z"/><path class="cls-4" d="M148.23,226.59l-.49,12.59a19.27,19.27,0,0,1-5.58,4.73,2.37,2.37,0,0,1-.1-.85l.61-16.36c.06-1.52,1.79-8.83,3.3-8.77S148.29,225.07,148.23,226.59Z"/><ellipse class="cls-4" cx="132.26" cy="163.08" rx="27.35" ry="39.03"/><ellipse cx="132.26" cy="176.43" rx="8.89" ry="13.35"/><path class="cls-5" d="M269.4,408.65h0c-3.15-2-3.83,2.2-3.84,4.93L265,439.17c0,4.95,2.6,6.12,4.71,6.12h0c3.82,1.47,3.83-2.2,3.84-4.93l0-14C273.63,423.67,271.42,409.53,269.4,408.65Z"/><path class="cls-5" d="M270.47,44.4h0c-3.15-2-3.84,2.21-3.84,4.94l-.53,25.59c0,4.94,2.6,6.11,4.71,6.12h0c3.82,1.46,3.83-2.2,3.84-4.93l0-14C274.7,59.43,272.49,45.28,270.47,44.4Z"/><path class="cls-5" d="M270.29,103.44h0c-3.14-2-3.83,2.2-3.84,4.93L265.93,134c0,4.95,2.59,6.12,4.71,6.13h0c3.82,1.46,3.83-2.21,3.84-4.94l0-14C274.53,118.46,272.32,104.32,270.29,103.44Z"/><path class="cls-5" d="M270.11,165.39h0c-3.14-2-3.83,2.2-3.84,4.93l-.52,25.59c0,4.94,2.59,6.12,4.7,6.12h0c3.83,1.47,3.84-2.2,3.84-4.93l0-14C274.34,180.41,272.13,166.26,270.11,165.39Z"/><path class="cls-5" d="M269.92,231.69h0c-3.15-2-3.83,2.21-3.84,4.94l-.53,25.59c0,4.94,2.6,6.11,4.71,6.12h0c3.82,1.46,3.83-2.2,3.84-4.93l0-14C274.15,246.72,271.94,232.57,269.92,231.69Z"/><path class="cls-5" d="M269.73,295.38h0c-3.14-2-3.83,2.21-3.84,4.94l-.52,25.59c0,4.94,2.59,6.11,4.7,6.12h0c3.82,1.46,3.84-2.2,3.84-4.93l0-14C274,310.41,271.75,296.26,269.73,295.38Z"/><path class="cls-5" d="M269.56,352.39h0c-3.14-2.05-3.83,2.2-3.84,4.93l-.52,25.59c0,4.94,2.59,6.11,4.71,6.12h0c3.82,1.47,3.83-2.2,3.84-4.93l0-14C273.8,367.41,271.59,353.26,269.56,352.39Z"/><path class="cls-5" d="M811.11,411.66h0c3.14-2.05,3.83,2.2,3.84,4.93l.53,25.59c0,4.95-2.6,6.12-4.71,6.12h0c-3.82,1.47-3.83-2.2-3.84-4.93l0-14C806.88,426.68,809.09,412.54,811.11,411.66Z"/><path class="cls-5" d="M810,47.41h0c3.15-2,3.83,2.2,3.84,4.94l.53,25.59c0,4.94-2.6,6.11-4.71,6.12h0c-3.82,1.46-3.83-2.2-3.84-4.94l0-14C805.81,62.43,808,48.29,810,47.41Z"/><path class="cls-5" d="M810.22,106.45h0c3.14-2,3.83,2.2,3.84,4.93l.52,25.59c0,4.95-2.59,6.12-4.71,6.12h0c-3.82,1.47-3.83-2.2-3.84-4.93l0-14C806,121.47,808.19,107.33,810.22,106.45Z"/><path class="cls-5" d="M810.4,168.39h0c3.14-2,3.83,2.21,3.84,4.94l.52,25.59c0,4.94-2.59,6.11-4.71,6.12h0c-3.82,1.47-3.83-2.2-3.84-4.93l0-14C806.17,183.42,808.37,169.27,810.4,168.39Z"/><path class="cls-5" d="M810.59,234.7h0c3.15-2,3.83,2.2,3.84,4.94l.53,25.59c0,4.94-2.6,6.11-4.71,6.12h0c-3.82,1.46-3.83-2.2-3.84-4.94l0-14C806.36,249.72,808.57,235.58,810.59,234.7Z"/><path class="cls-5" d="M810.78,298.39h0c3.14-2,3.83,2.21,3.84,4.94l.52,25.59c0,4.94-2.59,6.11-4.7,6.12h0c-3.83,1.46-3.84-2.2-3.84-4.93l-.05-14C806.55,313.42,808.76,299.27,810.78,298.39Z"/><path class="cls-5" d="M811,355.39h0c3.14-2,3.83,2.21,3.84,4.94l.52,25.59c0,4.94-2.59,6.11-4.71,6.12h0c-3.82,1.46-3.83-2.2-3.84-4.93l0-14C806.71,370.42,808.92,356.27,811,355.39Z"/><path class="cls-5" d="M788,389.09c18,101.63-278.64-11.83-396.4,53.31C278.1,505.21,271.27,49.6,363.69,62c158.84,21.24,237.57-35.24,386.79,3.17C825.07,84.32,749.93,173.88,788,389.09Z"/><path class="cls-5" d="M763.83,459.58h0c-2.05-3.14,2.19-3.85,4.91-3.87l25.56-.63c4.94,0,6.12,2.58,6.13,4.69h0c1.48,3.82-2.18,3.85-4.91,3.87l-13.94.1C778.85,463.75,764.72,461.6,763.83,459.58Z"/><path class="cls-5" d="M400.06,462.13h0c-2.06-3.14,2.18-3.84,4.91-3.86l25.56-.63c4.93,0,6.11,2.57,6.13,4.69h0c1.48,3.82-2.19,3.84-4.91,3.86l-13.94.1C415.08,466.31,400.94,464.15,400.06,462.13Z"/><path class="cls-5" d="M459,461.72h0c-2.06-3.14,2.18-3.85,4.91-3.87l25.56-.63c4.93,0,6.11,2.58,6.13,4.69h0c1.48,3.82-2.19,3.85-4.91,3.87l-13.94.09C474,465.89,459.9,463.74,459,461.72Z"/><path class="cls-5" d="M520.88,461.28h0c-2-3.14,2.19-3.84,4.92-3.86l25.55-.63c4.94,0,6.12,2.57,6.13,4.69h0c1.48,3.82-2.18,3.84-4.91,3.86l-13.94.1C535.9,465.46,521.77,463.31,520.88,461.28Z"/><path class="cls-5" d="M587.11,460.82h0c-2.06-3.14,2.18-3.85,4.91-3.87l25.55-.63c4.94,0,6.12,2.58,6.14,4.69h0c1.47,3.82-2.19,3.85-4.92,3.87l-13.94.1C602.13,465,588,462.84,587.11,460.82Z"/><path class="cls-5" d="M650.71,460.37h0c-2.05-3.14,2.19-3.84,4.91-3.86l25.56-.63c4.94,0,6.12,2.57,6.13,4.69h0c1.48,3.82-2.18,3.84-4.91,3.86l-13.94.1C665.73,464.55,651.6,462.39,650.71,460.37Z"/><path class="cls-5" d="M707.64,460h0c-2-3.14,2.19-3.84,4.91-3.86l25.56-.63c4.94,0,6.12,2.57,6.13,4.69h0c1.48,3.82-2.18,3.84-4.91,3.86l-13.94.1C722.66,464.15,708.53,462,707.64,460Z"/><path class="cls-5" d="M285.78,462.55h0c-2-3.14,2.19-3.84,4.91-3.86l25.56-.63c4.94,0,6.12,2.57,6.13,4.69h0c1.48,3.82-2.18,3.84-4.91,3.86l-13.94.1C300.8,466.73,286.67,464.57,285.78,462.55Z"/><path class="cls-5" d="M344.74,462.14h0c-2.05-3.14,2.19-3.85,4.92-3.87l25.55-.63c4.94,0,6.12,2.58,6.13,4.69h0c1.48,3.82-2.18,3.85-4.91,3.87l-13.94.1C359.76,466.32,345.63,464.16,344.74,462.14Z"/><path class="cls-5" d="M768.23,37.4h0c-2.06-3.14,2.18-3.84,4.91-3.86l25.56-.63c4.93,0,6.11,2.57,6.13,4.68h0c1.48,3.83-2.18,3.85-4.91,3.87l-13.94.1C783.25,41.58,769.11,39.42,768.23,37.4Z"/><path class="cls-5" d="M404.46,40h0c-2.06-3.14,2.18-3.84,4.91-3.86l25.55-.63c4.94,0,6.12,2.57,6.13,4.69h0C442.53,44,438.87,44,436.14,44l-13.94.1C419.48,44.13,405.34,42,404.46,40Z"/><path class="cls-5" d="M463.42,39.54h0c-2.06-3.14,2.18-3.85,4.91-3.86l25.55-.63c4.94,0,6.12,2.57,6.14,4.68h0c1.47,3.82-2.19,3.85-4.92,3.87l-13.94.1C478.44,43.72,464.3,41.56,463.42,39.54Z"/><path class="cls-5" d="M525.28,39.11h0c-2-3.14,2.18-3.85,4.91-3.87l25.56-.63c4.94,0,6.12,2.57,6.13,4.69h0c1.48,3.82-2.18,3.85-4.91,3.87L543,43.26C540.3,43.28,526.17,41.13,525.28,39.11Z"/><path class="cls-5" d="M591.5,38.64h0c-2-3.14,2.19-3.84,4.91-3.86L622,34.15c4.94,0,6.12,2.57,6.13,4.69h0c1.48,3.82-2.18,3.84-4.91,3.86l-13.94.1C606.52,42.82,592.39,40.66,591.5,38.64Z"/><path class="cls-5" d="M655.11,38.2h0c-2.05-3.15,2.18-3.85,4.91-3.87l25.56-.63c4.94,0,6.12,2.57,6.13,4.69h0c1.48,3.82-2.18,3.84-4.91,3.86l-13.94.1C670.13,42.37,656,40.22,655.11,38.2Z"/><path class="cls-5" d="M712,37.8h0C710,34.66,714.22,34,717,33.93l25.56-.63c4.93,0,6.11,2.57,6.13,4.69h0c1.48,3.82-2.19,3.85-4.91,3.86l-13.94.1C727.06,42,712.92,39.82,712,37.8Z"/><path class="cls-5" d="M290.18,40.38h0c-2.05-3.14,2.18-3.85,4.91-3.87l25.56-.63c4.94,0,6.12,2.57,6.13,4.69h0c1.48,3.82-2.18,3.85-4.91,3.86l-13.94.1C305.2,44.55,291.07,42.4,290.18,40.38Z"/><path class="cls-5" d="M349.14,40h0c-2.05-3.14,2.19-3.84,4.91-3.86l25.56-.63c4.94,0,6.12,2.57,6.13,4.69h0C387.22,44,383.56,44,380.83,44l-13.94.1C364.16,44.14,350,42,349.14,40Z"/><path class="cls-6" d="M399.93,148c-1.84-.07-2.11-1.23-2.11-2.79,0-6.47,3-11.64,3.94-14.36a3.32,3.32,0,0,0,.21-1.09,2.84,2.84,0,0,0-.82-1.64c-3.26-3.94-11.08-12.59-11.08-29.67,0-2,.68-2.31,2.11-2.45a47.52,47.52,0,0,1,5.5-.2c2,0,3.81.07,5,.13,2.37.14,2.58,1,2.44,2.18a60.29,60.29,0,0,0-.68,8.37c0,6.67,2.31,12,4.28,13.75a1.75,1.75,0,0,0,1.3.68,1.66,1.66,0,0,0,1-.48c2-2.17,4-9.32,4-15.44,0-4.15-.4-6.27-.4-7.42s.54-1.43,1.49-1.57,2.79-.13,4.56-.13c2.17,0,4.41.06,5.77.2,2.18.14,2.65.61,2.65,2.72,0,10.62-3.87,17-7.54,23.21-3.26,5.65-6.39,11.16-6.39,19.6,0,2,.41,3.61.41,4.83,0,.75-.27,1.5-1.84,1.57s-4.21.13-6.79.13S401.69,148.09,399.93,148Z"/><path class="cls-6" d="M444,148.91c-12.23,0-16.31-9.39-16.31-20.82,0-16.81,8.56-23.69,18.76-23.69,6.86,0,12.23,3.68,12.23,11.3,0,11.64-9.72,13-15.7,15.65-2.11.75-3,1.36-3,2.52,0,2,1.43,3.54,4.69,3.54a14.5,14.5,0,0,0,11.62-5.51c.41-.34.68-.55,1-.55.95,0,1.7,1.77,1.7,5C459,144.21,452,148.91,444,148.91Zm.95-35c-3.74,0-6.32,4.09-6.32,8.78,0,.68.21,1.23.82,1.23a3.14,3.14,0,0,0,1.29-.34c2.72-1.64,7.34-3.34,7.34-6.6A2.92,2.92,0,0,0,444.92,113.86Z"/><path class="cls-6" d="M477.75,148.91c-12.23,0-16.31-9.39-16.31-20.82,0-16.81,8.56-23.69,18.76-23.69,6.86,0,12.23,3.68,12.23,11.3,0,11.64-9.72,13-15.7,15.65-2.11.75-3,1.36-3,2.52,0,2,1.43,3.54,4.69,3.54a14.5,14.5,0,0,0,11.62-5.51c.41-.34.68-.55,1-.55.95,0,1.7,1.77,1.7,5C492.77,144.21,485.77,148.91,477.75,148.91Zm.95-35c-3.74,0-6.32,4.09-6.32,8.78,0,.68.21,1.23.82,1.23a3.14,3.14,0,0,0,1.29-.34c2.72-1.64,7.34-3.34,7.34-6.6A2.92,2.92,0,0,0,478.7,113.86Z"/><path class="cls-6" d="M511.53,148.91c-12.23,0-16.31-9.39-16.31-20.82,0-16.81,8.56-23.69,18.76-23.69,6.86,0,12.23,3.68,12.23,11.3,0,11.64-9.72,13-15.7,15.65-2.11.75-3,1.36-3,2.52,0,2,1.43,3.54,4.69,3.54a14.5,14.5,0,0,0,11.62-5.51c.41-.34.68-.55,1-.55.95,0,1.7,1.77,1.7,5C526.55,144.21,519.55,148.91,511.53,148.91Zm1-35c-3.74,0-6.32,4.09-6.32,8.78,0,.68.21,1.23.82,1.23a3.14,3.14,0,0,0,1.29-.34c2.72-1.64,7.34-3.34,7.34-6.6A2.92,2.92,0,0,0,512.48,113.86Z"/><path class="cls-6" d="M545.31,148.91c-12.23,0-16.31-9.39-16.31-20.82,0-16.81,8.56-23.69,18.76-23.69,6.86,0,12.23,3.68,12.23,11.3,0,11.64-9.72,13-15.7,15.65-2.11.75-3,1.36-3,2.52,0,2,1.43,3.54,4.69,3.54a14.5,14.5,0,0,0,11.62-5.51c.41-.34.68-.55,1-.55,1,0,1.7,1.77,1.7,5C560.33,144.21,553.33,148.91,545.31,148.91Zm1-35c-3.74,0-6.32,4.09-6.32,8.78,0,.68.21,1.23.82,1.23a3.14,3.14,0,0,0,1.29-.34c2.72-1.64,7.34-3.34,7.34-6.6A2.92,2.92,0,0,0,546.26,113.86Z"/><path class="cls-6" d="M565,135.71c1.91,0,4.42.41,6.59.47,2.45,0,4.29-.34,4.29-1.76,0-.41-.34-.75-.89-1-8.08-3.94-11.75-10.2-11.75-25.52,0-1.83.54-2.45,2.24-2.58a39.45,39.45,0,0,1,4.35-.21c1.63,0,3.46.07,5.09.21.75.07,1.43.27,1.43,1.22,0,.68-.27,2.86-.27,4.9,0,8.58,3.06,15.25,5.44,15.25.47,0,.81-.28,1-1,.74-2.32,1.15-6.81,1.15-11.17,0-3.4-.47-7.07-.47-7.89a1.41,1.41,0,0,1,1.42-1.36,44,44,0,0,1,4.49-.14,33,33,0,0,1,4.08.14c1.9.27,2.44,1.7,2.44,3.74,0,23.55-4.48,40.15-30.31,40.15-1.83,0-2.24-.75-2.38-2.17-.06-1-.13-2-.13-3.27a61.7,61.7,0,0,1,.34-6.33A1.7,1.7,0,0,1,565,135.71Z"/><path class="cls-6" d="M599.82,135.71c1.9,0,4.42.41,6.59.47,2.45,0,4.29-.34,4.29-1.76,0-.41-.34-.75-.89-1-8.09-3.94-11.76-10.2-11.76-25.52,0-1.83.55-2.45,2.25-2.58a39.45,39.45,0,0,1,4.35-.21c1.63,0,3.46.07,5.09.21.75.07,1.43.27,1.43,1.22,0,.68-.27,2.86-.27,4.9,0,8.58,3.06,15.25,5.44,15.25.47,0,.81-.28,1-1,.74-2.32,1.15-6.81,1.15-11.17,0-3.4-.47-7.07-.47-7.89a1.41,1.41,0,0,1,1.42-1.36,44,44,0,0,1,4.49-.14,33,33,0,0,1,4.08.14c1.9.27,2.44,1.7,2.44,3.74,0,23.55-4.48,40.15-30.31,40.15-1.83,0-2.24-.75-2.38-2.17-.07-1-.13-2-.13-3.27a61.7,61.7,0,0,1,.34-6.33A1.7,1.7,0,0,1,599.82,135.71Z"/><path class="cls-6" d="M634.62,135.71c1.9,0,4.42.41,6.59.47,2.45,0,4.29-.34,4.29-1.76,0-.41-.34-.75-.89-1-8.09-3.94-11.76-10.2-11.76-25.52,0-1.83.55-2.45,2.25-2.58a39.45,39.45,0,0,1,4.35-.21c1.63,0,3.46.07,5.09.21.75.07,1.43.27,1.43,1.22,0,.68-.27,2.86-.27,4.9,0,8.58,3.06,15.25,5.44,15.25.47,0,.81-.28,1-1,.74-2.32,1.15-6.81,1.15-11.17,0-3.4-.47-7.07-.47-7.89a1.41,1.41,0,0,1,1.42-1.36,43.88,43.88,0,0,1,4.49-.14,33,33,0,0,1,4.08.14c1.9.27,2.44,1.7,2.44,3.74,0,23.55-4.48,40.15-30.31,40.15-1.83,0-2.24-.75-2.38-2.17-.07-1-.13-2-.13-3.27a61.7,61.7,0,0,1,.34-6.33A1.7,1.7,0,0,1,634.62,135.71Z"/><path class="cls-6" d="M683.22,96.24a1.31,1.31,0,0,1,1.29,1.43c0,1.77-2.72,8.3-3.74,31.51-.07,1.83-.81,2.38-4.15,2.72A20,20,0,0,1,674,132c-1.69,0-2.51-.34-2.85-1.56a98.72,98.72,0,0,1-2.85-19.8c-.21-4.09-.28-7.42-.28-11.71.07-1.5.41-2.59,2.59-2.79,1.63-.14,3.87-.21,6.18-.21A58,58,0,0,1,683.22,96.24ZM668.33,141.9c0-4.42,2.93-7,7.48-7,4.76,0,7.48,2.59,7.48,7s-2.72,6.67-7.48,6.67C671.26,148.57,668.33,146.26,668.33,141.9Z"/><path class="cls-6" d="M702.18,96.24a1.31,1.31,0,0,1,1.29,1.43c0,1.77-2.72,8.3-3.74,31.51-.06,1.83-.81,2.38-4.14,2.72a20.1,20.1,0,0,1-2.65.13c-1.7,0-2.52-.34-2.86-1.56a100.18,100.18,0,0,1-2.85-19.8C687,106.58,687,103.25,687,99c.06-1.5.4-2.59,2.58-2.79,1.63-.14,3.87-.21,6.18-.21A58,58,0,0,1,702.18,96.24ZM687.3,141.9c0-4.42,2.92-7,7.47-7,4.76,0,7.48,2.59,7.48,7s-2.72,6.67-7.48,6.67C690.22,148.57,687.3,146.26,687.3,141.9Z"/><path class="cls-6" d="M369.64,212.28c-.72,0-.82-.48-.82-1.09a14.83,14.83,0,0,1,1.54-5.61,1.41,1.41,0,0,0,.08-.43,1.1,1.1,0,0,0-.32-.63,16.52,16.52,0,0,1-4.33-11.59c0-.77.27-.91.82-1a18.18,18.18,0,0,1,2.15-.08c.77,0,1.49,0,1.94.05.93.06,1,.4,1,.85a23.27,23.27,0,0,0-.27,3.27c0,2.61.91,4.68,1.68,5.37a.65.65,0,0,0,.5.27.67.67,0,0,0,.4-.19c.79-.85,1.56-3.64,1.56-6,0-1.62-.15-2.45-.15-2.9s.21-.56.58-.61,1.09-.05,1.78-.05c.85,0,1.72,0,2.26.08.84.05,1,.24,1,1.06,0,4.15-1.51,6.65-2.95,9.06-1.27,2.21-2.49,4.36-2.49,7.66,0,.77.16,1.41.16,1.89,0,.29-.11.58-.72.61s-1.65.05-2.65.05S370.33,212.3,369.64,212.28Z"/><path class="cls-6" d="M380.39,204c0-5.27,2.26-8.83,6.75-8.83s6.34,3.41,6.34,8.83c0,6-2.92,8.58-6.72,8.58S380.39,210.07,380.39,204Zm8.42-.37c0-3.06-.69-4.5-1.86-4.5s-1.91,1.44-1.91,4.5.53,4.35,1.88,4.35S388.81,206.64,388.81,203.67Z"/><path class="cls-6" d="M394.89,204.09a75.75,75.75,0,0,1,.55-7.65c.08-.56.32-.8.75-.86s1.19-.05,1.83-.05,1.17,0,1.62.05.58.27.58.62c0,.85-.4,5.44-.4,8.9,0,2.18.51,2.9,1.39,2.9a1.51,1.51,0,0,0,1.08-.43c.54-.5.75-1.41.75-3.19a71.51,71.51,0,0,0-.43-8c0-.54.19-.72.69-.78a12.66,12.66,0,0,1,1.44-.05c.66,0,1.3,0,1.8.05s.8.19.88.93a58.12,58.12,0,0,1,.37,7c0,2.31-.11,4.84-.35,7.65-.05.8-.55,1-1.16,1.09a11.17,11.17,0,0,1-1.44.06c-.37,0-.74,0-1,0-.45-.05-.63-.24-.63-.66s-.14-.51-.43-.51c-.85,0-2,1.44-3.87,1.44C395.92,212.52,394.89,210.44,394.89,204.09Z"/><path class="cls-6" d="M414.13,204.78c0-6.11,1.91-9.54,4.7-9.54a4.54,4.54,0,0,1,2.95,1.38.39.39,0,0,0,.27.11c.15,0,.26-.11.26-.37,0-1.63-.66-4.63-.66-5.19,0-.4.26-.56.63-.58s1-.06,1.49-.06c.72,0,1.46,0,2.15.08.45.06.74.19.82.91a103.8,103.8,0,0,1,.59,11.48,56.38,56.38,0,0,1-.43,7.79,1.18,1.18,0,0,1-.82,1,16,16,0,0,1-5.31.69C416.07,212.44,414.13,210.1,414.13,204.78Zm8.39-1.7c0-2.92-.79-4-1.75-4s-1.67,1.2-1.67,5c0,3.57.64,4.6,1.8,4.6S422.52,208,422.52,203.08Z"/><path class="cls-6" d="M434.47,212.28c-.64.05-1.38.08-2.15.08s-1.51,0-2.18-.08a.68.68,0,0,1-.66-.69,53.11,53.11,0,0,1-.32-6.06,59.21,59.21,0,0,1,.66-9.28.73.73,0,0,1,.75-.67c.58-.05,1.11-.05,1.62-.05s1.06,0,1.64.05c.4,0,.61.22.61.54,0,.58-.18,3-.18,5.82a92.77,92.77,0,0,0,.71,9.86C435,212.12,434.73,212.25,434.47,212.28Zm-5.1-19.94c0-1.41.93-2.28,2.9-2.28s2.89.87,2.89,2.28-.82,2.18-2.89,2.18S429.37,193.72,429.37,192.34Z"/><path class="cls-6" d="M436.41,204.78c0-6.11,1.91-9.54,4.7-9.54a4.51,4.51,0,0,1,2.94,1.38.39.39,0,0,0,.27.11c.16,0,.26-.11.26-.37,0-1.63-.66-4.63-.66-5.19,0-.4.27-.56.64-.58s1-.06,1.48-.06c.72,0,1.46,0,2.15.08.46.06.75.19.83.91A106.85,106.85,0,0,1,449.6,203a58.2,58.2,0,0,1-.42,7.79,1.21,1.21,0,0,1-.83,1,15.93,15.93,0,0,1-5.31.69C438.34,212.44,436.41,210.1,436.41,204.78Zm8.39-1.7c0-2.92-.8-4-1.76-4s-1.67,1.2-1.67,5c0,3.57.64,4.6,1.81,4.6S444.8,208,444.8,203.08Z"/><path class="cls-6" d="M461.39,212.28c-.64.05-1.38.08-2.15.08s-1.52,0-2.18-.08a.67.67,0,0,1-.66-.69,50.91,50.91,0,0,1-.32-6.06,59.21,59.21,0,0,1,.66-9.28.72.72,0,0,1,.74-.67c.59-.05,1.12-.05,1.62-.05s1.07,0,1.65.05c.4,0,.61.22.61.54,0,.58-.18,3-.18,5.82a92.77,92.77,0,0,0,.71,9.86C461.89,212.12,461.65,212.25,461.39,212.28Zm-5.1-19.94c0-1.41.93-2.28,2.89-2.28s2.9.87,2.9,2.28-.83,2.18-2.9,2.18S456.29,193.72,456.29,192.34Z"/><path class="cls-6" d="M470.2,192.18a12.76,12.76,0,0,0-.85,3.14c0,.24.13.37.51.37s.82-.11,1.19-.11.37.16.43.48a10.83,10.83,0,0,1,.13,1.78,10.55,10.55,0,0,1-.19,2.13.37.37,0,0,1-.4.32c-.34,0-.79-.13-1.27-.13s-.53.32-.56.77a15.56,15.56,0,0,0-.08,1.65,35.35,35.35,0,0,0,1.22,8.24,4.68,4.68,0,0,1,.11.5.57.57,0,0,1-.29.48,10,10,0,0,1-4.36,1.06c-.37,0-.58-.08-.69-.37a30.45,30.45,0,0,1-.85-7.79c0-1.51.08-2.95.11-3.75,0-.45-.11-.63-.4-.63l-.61,0c-.24,0-.37-.13-.4-.45a5.58,5.58,0,0,1-.05-.66,17.36,17.36,0,0,1,.27-3c.08-.51.29-.64.58-.64s.4,0,.58,0c.64,0,.67-.59.83-1.94a1,1,0,0,1,.58-1,11.22,11.22,0,0,1,4.12-1C470.15,191.7,470.25,191.92,470.2,192.18Z"/><path class="cls-6" d="M478.46,192.05a.51.51,0,0,1,.5.56,64.73,64.73,0,0,0-1.46,12.3c0,.72-.32.93-1.62,1.07a7.9,7.9,0,0,1-1,.05c-.67,0-1-.13-1.12-.61a39.29,39.29,0,0,1-1.11-7.74c-.08-1.59-.11-2.89-.11-4.57,0-.58.16-1,1-1.09.64-.05,1.51-.08,2.41-.08A23.32,23.32,0,0,1,478.46,192.05Zm-5.82,17.83a2.62,2.62,0,0,1,2.92-2.73c1.86,0,2.92,1,2.92,2.73s-1.06,2.61-2.92,2.61S472.64,211.59,472.64,209.88Z"/><path class="cls-6" d="M506.7,212.28c-.72,0-.82-.48-.82-1.09a14.83,14.83,0,0,1,1.54-5.61,1.41,1.41,0,0,0,.08-.43,1.1,1.1,0,0,0-.32-.63,16.56,16.56,0,0,1-4.33-11.59c0-.77.27-.91.82-1a18.35,18.35,0,0,1,2.16-.08c.77,0,1.48,0,1.93.05.93.06,1,.4,1,.85a23.27,23.27,0,0,0-.27,3.27c0,2.61.91,4.68,1.68,5.37a.56.56,0,0,0,.9.08c.8-.85,1.57-3.64,1.57-6,0-1.62-.16-2.45-.16-2.9s.21-.56.58-.61,1.09-.05,1.78-.05c.85,0,1.73,0,2.26.08.85.05,1,.24,1,1.06,0,4.15-1.51,6.65-3,9.06-1.27,2.21-2.49,4.36-2.49,7.66,0,.77.16,1.41.16,1.89,0,.29-.11.58-.72.61s-1.64.05-2.65.05S507.39,212.3,506.7,212.28Z"/><path class="cls-6" d="M517.45,204c0-5.27,2.26-8.83,6.75-8.83s6.34,3.41,6.34,8.83c0,6-2.92,8.58-6.71,8.58S517.45,210.07,517.45,204Zm8.42-.37c0-3.06-.69-4.5-1.86-4.5s-1.91,1.44-1.91,4.5S522.63,208,524,208,525.87,206.64,525.87,203.67Z"/><path class="cls-6" d="M532,204.09a72.56,72.56,0,0,1,.56-7.65c.07-.56.31-.8.74-.86s1.19-.05,1.83-.05,1.17,0,1.62.05.58.27.58.62c0,.85-.39,5.44-.39,8.9,0,2.18.5,2.9,1.38,2.9a1.55,1.55,0,0,0,1.09-.43c.53-.5.74-1.41.74-3.19a71.51,71.51,0,0,0-.43-8c0-.54.19-.72.69-.78a12.66,12.66,0,0,1,1.44-.05c.66,0,1.3,0,1.8.05s.8.19.88.93a56.12,56.12,0,0,1,.37,7c0,2.31-.1,4.84-.34,7.65a1.09,1.09,0,0,1-1.17,1.09,11.17,11.17,0,0,1-1.44.06,10,10,0,0,1-1,0c-.46-.05-.64-.24-.64-.66s-.13-.51-.43-.51c-.85,0-2,1.44-3.87,1.44C533,212.52,532,210.44,532,204.09Z"/><path class="cls-6" d="M556.4,208.61c.93,0,1.33-.37,1.33-1s-.48-1.11-1.94-1.81c-2.55-1.22-4.62-2.31-4.62-5.42s2.39-5.13,6.16-5.13a9.6,9.6,0,0,1,4.35,1,.89.89,0,0,1,.51.88,9.86,9.86,0,0,1-.91,3.48.45.45,0,0,1-.42.32.54.54,0,0,1-.37-.16,6.76,6.76,0,0,0-3.77-1.68c-.85,0-1.28.4-1.28,1s.48,1,2,1.7c2.37,1.06,5,2.31,5,5.61,0,3.56-2.29,5.34-5.77,5.34s-5.76-1.7-5.76-4.44a4.53,4.53,0,0,1,.51-2.28.5.5,0,0,1,.39-.27.38.38,0,0,1,.35.21A5.34,5.34,0,0,0,556.4,208.61Z"/><path class="cls-6" d="M563.38,207.25c0-3.85,3-5.39,6.48-5.9.82-.13,1.22-.32,1.22-.79,0-.83-.45-1.36-1.73-1.36a6,6,0,0,0-4,1.7.67.67,0,0,1-.45.24.49.49,0,0,1-.34-.16,3.34,3.34,0,0,1-1-2.42c0-1.89,2.31-3.35,6.1-3.35,4.46,0,6,2.24,6,6.2,0,1.62-.13,4.17-.13,6.14,0,1.54.21,3.29.21,3.72a.74.74,0,0,1-.67.82,44.77,44.77,0,0,1-5.52.21C565.53,212.3,563.38,210.79,563.38,207.25Zm7.73-1.88c0-.8-.11-1-.56-1a2.38,2.38,0,0,0-2.66,2.23c0,1.17.8,1.67,2.15,1.67.85,0,1.07-.37,1.07-1.17Z"/><path class="cls-6" d="M583.79,212.38a1.64,1.64,0,0,1-.69.22,1.56,1.56,0,0,1-.71-.22c-3.64-2-5.39-6.06-5.39-13.55a20.68,20.68,0,0,1,.08-2.21c0-.66.18-.93.95-1,.48-.05,1.2-.08,1.89-.08a16,16,0,0,1,1.75.08.5.5,0,0,1,.43.56c0,.88-.27,3.11-.27,5.58,0,1.65.21,3.83,1.09,5a.38.38,0,0,0,.34.21.35.35,0,0,0,.32-.21c.9-1.33,1.12-3.61,1.12-5.47,0-2.24-.27-4.47-.27-5.05,0-.43.19-.56.48-.59a10.7,10.7,0,0,1,1.73-.08,12,12,0,0,1,1.77.08c.75,0,.83.32.91,1.09s0,1.3,0,1.94C589.37,206.51,587.41,210.47,583.79,212.38Z"/><path class="cls-6" d="M596.54,212.62c-4.78,0-6.37-3.66-6.37-8.13,0-6.57,3.34-9.25,7.32-9.25,2.68,0,4.78,1.43,4.78,4.41,0,4.55-3.79,5.08-6.13,6.11-.82.3-1.17.54-1.17,1,0,.77.56,1.38,1.83,1.38a5.67,5.67,0,0,0,4.54-2.15c.16-.14.27-.22.4-.22.37,0,.67.7.67,2C602.41,210.79,599.67,212.62,596.54,212.62Zm.37-13.69c-1.46,0-2.47,1.6-2.47,3.43,0,.27.08.48.32.48a1.16,1.16,0,0,0,.5-.13c1.06-.64,2.87-1.3,2.87-2.58A1.14,1.14,0,0,0,596.91,198.93Z"/><path class="cls-6" d="M603.6,204.78c0-6.11,1.91-9.54,4.7-9.54a4.49,4.49,0,0,1,2.94,1.38.39.39,0,0,0,.27.11c.16,0,.27-.11.27-.37,0-1.63-.67-4.63-.67-5.19,0-.4.27-.56.64-.58s1-.06,1.49-.06c.71,0,1.46,0,2.15.08.45.06.74.19.82.91a106.85,106.85,0,0,1,.58,11.48,58.2,58.2,0,0,1-.42,7.79,1.19,1.19,0,0,1-.82,1,16,16,0,0,1-5.31.69C605.54,212.44,603.6,210.1,603.6,204.78Zm8.39-1.7c0-2.92-.8-4-1.75-4s-1.68,1.2-1.68,5c0,3.57.64,4.6,1.81,4.6S612,208,612,203.08Z"/><path class="cls-6" d="M622.84,204c0-5.27,2.26-8.83,6.75-8.83s6.34,3.41,6.34,8.83c0,6-2.92,8.58-6.71,8.58S622.84,210.07,622.84,204Zm8.42-.37c0-3.06-.69-4.5-1.86-4.5s-1.91,1.44-1.91,4.5S628,208,629.38,208,631.26,206.64,631.26,203.67Z"/><path class="cls-6" d="M637.34,204.09a72.56,72.56,0,0,1,.56-7.65c.08-.56.32-.8.74-.86s1.2-.05,1.83-.05,1.17,0,1.62.05.59.27.59.62c0,.85-.4,5.44-.4,8.9,0,2.18.5,2.9,1.38,2.9a1.53,1.53,0,0,0,1.09-.43c.53-.5.74-1.41.74-3.19a76,76,0,0,0-.42-8c0-.54.18-.72.69-.78a12.38,12.38,0,0,1,1.43-.05c.66,0,1.3,0,1.81.05s.79.19.87.93a56.12,56.12,0,0,1,.37,7c0,2.31-.1,4.84-.34,7.65a1.09,1.09,0,0,1-1.17,1.09,11.09,11.09,0,0,1-1.43.06,10.07,10.07,0,0,1-1,0c-.45-.05-.64-.24-.64-.66s-.13-.51-.42-.51c-.85,0-2,1.44-3.88,1.44C638.38,212.52,637.34,210.44,637.34,204.09Z"/><path class="cls-6" d="M657.41,212.25c-.5,0-1.12.05-1.81.05s-1.4,0-2.15-.05a.81.81,0,0,1-.74-.72,40.09,40.09,0,0,1-.53-7.6c0-4.62.21-6.72.45-7.6.11-.43.29-.59.51-.67a10.9,10.9,0,0,1,2-.16,5.43,5.43,0,0,1,1.2.08c.29.06.37.24.4.56s.16.43.29.43a.88.88,0,0,0,.45-.21,2.83,2.83,0,0,1,1.67-.94c.48,0,.8.62.8,2.72a9.27,9.27,0,0,1-.21,2.39c-.14.45-.35.56-.59.56s-.74-.24-1.25-.24-.92.5-.92,2.58c0,3.35,1.11,7.65,1.11,8.18C658.1,212,657.94,212.2,657.41,212.25Z"/><path class="cls-6" d="M667.52,212.89c-.39,0-.69-.16-.9-1a43,43,0,0,1-.77-8.69c0-7.13.56-8,5-8,6,0,7.67,2.71,7.67,6.25,0,5.79-3,8.69-5,8.69-1.22,0-2.07-1.81-2.52-1.81-.21,0-.32.19-.32.43a14.65,14.65,0,0,0,.53,3.14c0,.29-.24.42-.58.5A24,24,0,0,1,667.52,212.89Zm3.06-9.86c0,2.63.61,3.24,1.43,3.24,1.2,0,1.81-2,1.81-4.92,0-1.86-.67-2.63-2-2.63C671,198.72,670.58,199.52,670.58,203Z"/><path class="cls-6" d="M685.15,212.28c-.64.05-1.38.08-2.15.08s-1.51,0-2.18-.08a.68.68,0,0,1-.66-.69,53.11,53.11,0,0,1-.32-6.06,58,58,0,0,1,.67-9.28.71.71,0,0,1,.74-.67c.58-.05,1.11-.05,1.62-.05s1.06,0,1.64.05c.4,0,.62.22.62.54,0,.58-.19,3-.19,5.82a91.51,91.51,0,0,0,.72,9.86C685.66,212.12,685.42,212.25,685.15,212.28Zm-5.1-19.94c0-1.41.93-2.28,2.9-2.28s2.89.87,2.89,2.28-.82,2.18-2.89,2.18S680.05,193.72,680.05,192.34Z"/><path class="cls-6" d="M686.85,204.86c0-6.62,3-9.65,6.88-9.65,3.1,0,4.62,2.18,4.62,4.95a3.47,3.47,0,0,1-3.3,3.13c-.37,0-.53-.1-.55-.42-.08-1.7-.11-3.35-1.2-3.35s-1.67,1.51-1.67,4.28c0,2.26.45,3.91,2.18,3.91a3.7,3.7,0,0,0,3.24-2.53.35.35,0,0,1,.34-.24.38.38,0,0,1,.29.19,3.74,3.74,0,0,1,.83,2.5c0,2.73-1.89,5-5.61,5C688.66,212.62,686.85,209.38,686.85,204.86Z"/><path class="cls-6" d="M712.66,202.1a84.22,84.22,0,0,1-.56,9.41.79.79,0,0,1-.75.77,15.47,15.47,0,0,1-1.62.05c-.66,0-1.3,0-1.85-.05s-.59-.24-.59-.56c0-1.22.4-5.66.4-9.14,0-1.89-.32-2.8-1.3-2.8a1.67,1.67,0,0,0-1.22.48c-.45.43-.64,1.17-.64,3.11,0,4,.37,7.42.37,8.22,0,.47-.21.66-.69.69s-1,.05-1.48.05c-.67,0-1.31,0-1.78-.05s-.75-.16-.8-.85c-.19-2.05-.32-4.65-.32-7.66,0-2.15,0-4.52.24-7,0-.85.56-1.06,1.25-1.14.48,0,1-.05,1.56-.05s.91,0,1.23.05.66.24.66.61.13.51.37.51c.8,0,1.81-1.41,3.8-1.41C711.46,195.32,712.66,197.15,712.66,202.1Z"/><path class="cls-6" d="M719.66,212.28c-.63.05-1.38.08-2.15.08s-1.51,0-2.17-.08a.68.68,0,0,1-.67-.69,53.11,53.11,0,0,1-.32-6.06,59.16,59.16,0,0,1,.67-9.28.71.71,0,0,1,.74-.67c.58-.05,1.12-.05,1.62-.05s1.06,0,1.65.05c.39,0,.61.22.61.54,0,.58-.19,3-.19,5.82a91.51,91.51,0,0,0,.72,9.86C720.17,212.12,719.93,212.25,719.66,212.28Zm-5.09-19.94c0-1.41.92-2.28,2.89-2.28s2.89.87,2.89,2.28-.82,2.18-2.89,2.18S714.57,193.72,714.57,192.34Z"/><path class="cls-6" d="M721.36,204.86c0-6.62,3-9.65,6.88-9.65,3.1,0,4.62,2.18,4.62,4.95a3.47,3.47,0,0,1-3.29,3.13c-.38,0-.54-.1-.56-.42-.08-1.7-.11-3.35-1.2-3.35s-1.67,1.51-1.67,4.28c0,2.26.45,3.91,2.18,3.91a3.7,3.7,0,0,0,3.24-2.53.36.36,0,0,1,.34-.24.38.38,0,0,1,.29.19,3.74,3.74,0,0,1,.83,2.5c0,2.73-1.89,5-5.61,5C723.17,212.62,721.36,209.38,721.36,204.86Z"/><path class="cls-6" d="M740.1,192.05a.51.51,0,0,1,.51.56,64.73,64.73,0,0,0-1.46,12.3c0,.72-.32.93-1.62,1.07a8,8,0,0,1-1,.05c-.66,0-1-.13-1.11-.61a38.51,38.51,0,0,1-1.12-7.74c-.08-1.59-.1-2.89-.1-4.57,0-.58.16-1,1-1.09.63-.05,1.51-.08,2.41-.08A23,23,0,0,1,740.1,192.05Zm-5.81,17.83a2.62,2.62,0,0,1,2.92-2.73c1.86,0,2.92,1,2.92,2.73s-1.06,2.61-2.92,2.61S734.29,211.59,734.29,209.88Z"/><path class="cls-6" d="M345.43,256a.67.67,0,0,1-.19-.51,19.22,19.22,0,0,1,1-4.6.42.42,0,0,1,.4-.32c.21,0,.35.13.56.35a1.15,1.15,0,0,0,.84.35c1,0,1.37-1.59,1.37-3.9A66.21,66.21,0,0,0,348.36,237c0-.49.24-.62.62-.65s1.39,0,2.25,0,1.8,0,2.42,0a.69.69,0,0,1,.7.59,70.7,70.7,0,0,1,.56,9.28c0,8.42-2.47,11.09-6,11.09C346.91,257.34,345.86,256.61,345.43,256Z"/><path class="cls-6" d="M356.42,248.59c0-5.32,2.28-8.93,6.83-8.93s6.42,3.45,6.42,8.93c0,6.11-3,8.69-6.8,8.69S356.42,254.7,356.42,248.59Zm8.52-.37c0-3.1-.7-4.55-1.88-4.55s-1.94,1.45-1.94,4.55.54,4.41,1.91,4.41S364.94,251.23,364.94,248.22Z"/><path class="cls-6" d="M376.44,256.93c-.65.06-1.4.08-2.18.08s-1.53,0-2.2-.08a.67.67,0,0,1-.67-.7,52,52,0,0,1-.32-6.13,59.49,59.49,0,0,1,.67-9.39.71.71,0,0,1,.75-.67c.59,0,1.13,0,1.64,0s1.07,0,1.66,0c.41,0,.62.21.62.54,0,.59-.19,3-.19,5.89a92.55,92.55,0,0,0,.73,10A.48.48,0,0,1,376.44,256.93Zm-5.16-20.17c0-1.43.94-2.32,2.93-2.32s2.93.89,2.93,2.32-.83,2.2-2.93,2.2S371.28,238.16,371.28,236.76Z"/><path class="cls-6" d="M391.65,246.63a82.85,82.85,0,0,1-.57,9.52c-.08.52-.34.76-.75.78a13.33,13.33,0,0,1-1.64.06c-.67,0-1.31,0-1.88-.06s-.59-.24-.59-.56c0-1.24.4-5.73.4-9.26,0-1.9-.32-2.82-1.31-2.82a1.7,1.7,0,0,0-1.24.48c-.46.44-.64,1.19-.64,3.15,0,4,.37,7.51.37,8.31,0,.49-.21.68-.7.7s-1,.06-1.5.06c-.67,0-1.32,0-1.8-.06s-.75-.16-.81-.86c-.19-2.07-.32-4.7-.32-7.74,0-2.18.05-4.58.24-7.11.06-.86.57-1.07,1.27-1.15.48,0,1-.06,1.58-.06s.91,0,1.24.06c.48,0,.67.24.67.62s.13.51.37.51c.81,0,1.83-1.43,3.85-1.43C390.44,239.77,391.65,241.63,391.65,246.63Z"/><path class="cls-6" d="M398.1,248.65a74.54,74.54,0,0,1,.56-7.75c.08-.56.33-.81.76-.86s1.2,0,1.85,0,1.18,0,1.64,0,.59.27.59.62c0,.86-.4,5.51-.4,9,0,2.21.51,2.93,1.39,2.93a1.58,1.58,0,0,0,1.11-.43c.53-.51.75-1.42.75-3.23a76.33,76.33,0,0,0-.43-8.12c0-.54.19-.73.7-.78a12.75,12.75,0,0,1,1.45,0c.67,0,1.31,0,1.82,0s.81.19.89.94a57.25,57.25,0,0,1,.38,7.05c0,2.34-.11,4.9-.35,7.75a1.11,1.11,0,0,1-1.18,1.1,13.57,13.57,0,0,1-1.45.05c-.38,0-.76,0-1,0-.45-.06-.64-.24-.64-.68s-.14-.51-.43-.51c-.86,0-2,1.46-3.92,1.46C399.15,257.18,398.1,255.08,398.1,248.65Z"/><path class="cls-6" d="M418.15,253.22c.94,0,1.34-.38,1.34-1.05s-.49-1.13-2-1.83c-2.58-1.23-4.68-2.34-4.68-5.49s2.42-5.19,6.24-5.19a9.66,9.66,0,0,1,4.4,1,.89.89,0,0,1,.51.89,10,10,0,0,1-.91,3.52.46.46,0,0,1-.43.33.57.57,0,0,1-.38-.16,6.78,6.78,0,0,0-3.81-1.7c-.86,0-1.29.4-1.29,1s.48,1,2,1.72c2.39,1.08,5.05,2.34,5.05,5.68,0,3.6-2.31,5.4-5.83,5.4s-5.83-1.72-5.83-4.49a4.63,4.63,0,0,1,.51-2.31.53.53,0,0,1,.41-.27.37.37,0,0,1,.35.21A5.36,5.36,0,0,0,418.15,253.22Z"/><path class="cls-6" d="M429.7,251.85c0-3.9,3.06-5.46,6.56-6,.83-.14,1.23-.33,1.23-.81,0-.83-.45-1.37-1.74-1.37a6.11,6.11,0,0,0-4.06,1.72.69.69,0,0,1-.46.24.51.51,0,0,1-.35-.16,3.38,3.38,0,0,1-1-2.45c0-1.91,2.34-3.39,6.18-3.39,4.51,0,6.1,2.26,6.1,6.27,0,1.64-.14,4.22-.14,6.22,0,1.56.22,3.33.22,3.76a.76.76,0,0,1-.67.84A48.06,48.06,0,0,1,436,257C431.88,257,429.7,255.43,429.7,251.85Zm7.82-1.91c0-.81-.11-1-.56-1a2.41,2.41,0,0,0-2.69,2.26c0,1.18.8,1.69,2.17,1.69.86,0,1.08-.37,1.08-1.18Z"/><path class="cls-6" d="M457.06,246.63a85.31,85.31,0,0,1-.57,9.52c-.08.52-.35.76-.75.78a13.33,13.33,0,0,1-1.64.06c-.67,0-1.32,0-1.88-.06s-.59-.24-.59-.56c0-1.24.4-5.73.4-9.26,0-1.9-.32-2.82-1.32-2.82a1.7,1.7,0,0,0-1.23.48c-.46.44-.65,1.19-.65,3.15,0,4,.38,7.51.38,8.31,0,.49-.22.68-.7.7s-1,.06-1.5.06c-.68,0-1.32,0-1.8-.06s-.76-.16-.81-.86c-.19-2.07-.32-4.7-.32-7.74,0-2.18.05-4.58.24-7.11.05-.86.56-1.07,1.26-1.15.49,0,1.05-.06,1.59-.06s.91,0,1.23.06c.49,0,.67.24.67.62s.14.51.38.51c.81,0,1.83-1.43,3.84-1.43C455.85,239.77,457.06,241.63,457.06,246.63Z"/><path class="cls-6" d="M458.56,249.35c0-6.19,1.94-9.66,4.76-9.66a4.59,4.59,0,0,1,3,1.4.39.39,0,0,0,.27.11c.16,0,.27-.11.27-.38,0-1.64-.67-4.68-.67-5.25,0-.4.26-.56.64-.59s1,0,1.5,0c.73,0,1.48,0,2.18.08.46.05.75.19.83.91a106.11,106.11,0,0,1,.6,11.62,59.52,59.52,0,0,1-.43,7.89,1.23,1.23,0,0,1-.84,1,16,16,0,0,1-5.37.69C460.52,257.09,458.56,254.73,458.56,249.35Zm8.49-1.72c0-3-.8-4-1.77-4s-1.69,1.21-1.69,5.08c0,3.61.64,4.66,1.82,4.66S467.05,252.63,467.05,247.63Z"/><path class="cls-6" d="M484.47,257.28c-4.84,0-6.45-3.71-6.45-8.23,0-6.64,3.38-9.36,7.41-9.36,2.72,0,4.84,1.45,4.84,4.47,0,4.6-3.84,5.13-6.21,6.18-.83.3-1.18.54-1.18,1,0,.78.56,1.4,1.85,1.4a5.74,5.74,0,0,0,4.6-2.18c.16-.14.27-.22.4-.22.38,0,.67.7.67,2C490.4,255.43,487.64,257.28,484.47,257.28Zm.37-13.85c-1.48,0-2.5,1.61-2.5,3.47,0,.27.08.48.32.48a1.25,1.25,0,0,0,.52-.13c1.07-.65,2.9-1.32,2.9-2.61A1.15,1.15,0,0,0,484.84,243.43Z"/><path class="cls-6" d="M504.86,246.63a86.08,86.08,0,0,1-.56,9.52c-.08.52-.35.76-.76.78a13.24,13.24,0,0,1-1.63.06c-.68,0-1.32,0-1.89-.06s-.59-.24-.59-.56c0-1.24.41-5.73.41-9.26,0-1.9-.33-2.82-1.32-2.82a1.74,1.74,0,0,0-1.24.48c-.45.44-.64,1.19-.64,3.15,0,4,.37,7.51.37,8.31,0,.49-.21.68-.69.7s-1,.06-1.51.06c-.67,0-1.32,0-1.8-.06s-.75-.16-.81-.86c-.18-2.07-.32-4.7-.32-7.74,0-2.18.06-4.58.24-7.11.06-.86.57-1.07,1.27-1.15.48,0,1-.06,1.58-.06s.92,0,1.24.06c.48,0,.67.24.67.62s.13.51.38.51c.8,0,1.82-1.43,3.84-1.43C503.65,239.77,504.86,241.63,504.86,246.63Z"/><path class="cls-6" d="M512.49,240.85a58.93,58.93,0,0,1,.43,7.53c0,7.16-1.37,9-4.27,9a6,6,0,0,1-2.66-.49c-.19-.1-.3-.29-.3-.67A17.11,17.11,0,0,1,506,253a.63.63,0,0,1,.43-.46c.27,0,.43.08.68,0,.43-.16.56-.78.56-2.28,0-4.09-.27-8.34-.27-9.18,0-.46.11-.72.54-.86a8.69,8.69,0,0,1,2.09-.16,16.57,16.57,0,0,1,1.72.08C512.28,240.17,512.44,240.42,512.49,240.85Zm-5.42-4.09c0-1.43.94-2.32,2.92-2.32s2.93.89,2.93,2.32-.83,2.2-2.93,2.2S507.07,238.16,507.07,236.76Z"/><path class="cls-6" d="M514.43,248.59c0-5.32,2.28-8.93,6.82-8.93s6.43,3.45,6.43,8.93c0,6.11-3,8.69-6.8,8.69S514.43,254.7,514.43,248.59Zm8.52-.37c0-3.1-.7-4.55-1.88-4.55s-1.94,1.45-1.94,4.55.54,4.41,1.91,4.41S523,251.23,523,248.22Z"/><path class="cls-6" d="M529.5,252.06c.76,0,1.75.17,2.61.19s1.69-.13,1.69-.7c0-.16-.13-.29-.35-.4-3.19-1.56-4.65-4-4.65-10.09,0-.72.22-1,.89-1,.49,0,1.08-.08,1.72-.08s1.37,0,2,.08c.29,0,.56.11.56.48s-.11,1.13-.11,1.94c0,3.39,1.21,6,2.15,6,.19,0,.33-.11.41-.38a17.44,17.44,0,0,0,.45-4.41c0-1.35-.19-2.8-.19-3.12a.57.57,0,0,1,.57-.54c.46,0,1.15,0,1.77,0a14.22,14.22,0,0,1,1.61,0c.76.11,1,.67,1,1.48,0,9.31-1.77,15.87-12,15.87-.73,0-.89-.3-.94-.86,0-.38-.06-.81-.06-1.29,0-.83.06-1.72.14-2.5A.68.68,0,0,1,529.5,252.06Z"/><path class="cls-6" d="M554.28,236.6a12.86,12.86,0,0,0-.86,3.17c0,.24.13.38.51.38s.83-.11,1.21-.11.38.16.43.48a11.23,11.23,0,0,1,.13,1.81,11.63,11.63,0,0,1-.18,2.15.38.38,0,0,1-.41.32c-.35,0-.8-.13-1.29-.13s-.54.32-.56.78a13.56,13.56,0,0,0-.08,1.66,36.05,36.05,0,0,0,1.23,8.34c0,.19.11.38.11.51a.59.59,0,0,1-.29.49,10.29,10.29,0,0,1-4.41,1.08c-.38,0-.59-.09-.7-.38a30.65,30.65,0,0,1-.86-7.88c0-1.54.08-3,.11-3.8,0-.45-.11-.64-.41-.64l-.61,0c-.25,0-.38-.13-.41-.45a6,6,0,0,1-.05-.68,17.84,17.84,0,0,1,.27-3c.08-.51.29-.64.59-.64l.59,0c.65,0,.67-.59.83-2a1.07,1.07,0,0,1,.59-1,11.36,11.36,0,0,1,4.17-1C554.23,236.11,554.33,236.33,554.28,236.6Z"/><path class="cls-6" d="M562.45,235a.51.51,0,0,1,.4.56c0,.62-1,2.88-1,4.6,0,.43.13.65.43.65.56,0,1.72-1.16,3.76-1.16,2.58,0,4.14,1.7,4.14,7.08a69.21,69.21,0,0,1-.65,9.47c-.08.51-.35.72-.72.75s-.92,0-1.56,0-1.56,0-2.15-.08c-.35,0-.65-.14-.65-.62,0-.65.7-4.92.7-8.26,0-3-.4-3.66-1.4-3.66s-1.93,1-1.93,4c0,4.22.27,7.13.27,7.88,0,.51-.35.62-.7.67s-1.13.06-1.8.06-1.4,0-2-.06c-.27,0-.54-.13-.65-.64-.13-1.13-.24-3.47-.24-6.35a88.45,88.45,0,0,1,1-14.07c.1-.54.4-.81.69-.83a18.17,18.17,0,0,1,2.15-.11A13.86,13.86,0,0,1,562.45,235Z"/><path class="cls-6" d="M577.82,257.28c-4.84,0-6.45-3.71-6.45-8.23,0-6.64,3.39-9.36,7.42-9.36,2.71,0,4.83,1.45,4.83,4.47,0,4.6-3.84,5.13-6.2,6.18-.84.3-1.19.54-1.19,1,0,.78.57,1.4,1.86,1.4a5.74,5.74,0,0,0,4.59-2.18.64.64,0,0,1,.41-.22c.37,0,.67.7.67,2C583.76,255.43,581,257.28,577.82,257.28Zm.38-13.85c-1.48,0-2.5,1.61-2.5,3.47,0,.27.08.48.32.48a1.2,1.2,0,0,0,.51-.13c1.07-.65,2.9-1.32,2.9-2.61A1.15,1.15,0,0,0,578.2,243.43Z"/><path class="cls-6" d="M595.55,256.93c-.61.06-1.34.06-2.09.06s-1.53,0-2.18-.06a.76.76,0,0,1-.75-.78c-.22-2.2-.32-4.78-.32-7.48a102.27,102.27,0,0,1,.8-13,.71.71,0,0,1,.73-.7c.62,0,1.21-.05,1.83-.05s1.23,0,1.8.05c.37,0,.61.19.61.56s-.48,5.17-.48,10.12c0,5.22.56,10,.56,10.79A.49.49,0,0,1,595.55,256.93Z"/><path class="cls-6" d="M603.83,257.28c-4.84,0-6.45-3.71-6.45-8.23,0-6.64,3.39-9.36,7.42-9.36,2.71,0,4.83,1.45,4.83,4.47,0,4.6-3.84,5.13-6.2,6.18-.84.3-1.18.54-1.18,1,0,.78.56,1.4,1.85,1.4a5.73,5.73,0,0,0,4.59-2.18c.17-.14.27-.22.41-.22.37,0,.67.7.67,2C609.77,255.43,607,257.28,603.83,257.28Zm.38-13.85c-1.48,0-2.5,1.61-2.5,3.47,0,.27.08.48.32.48a1.2,1.2,0,0,0,.51-.13c1.08-.65,2.9-1.32,2.9-2.61A1.14,1.14,0,0,0,604.21,243.43Z"/><path class="cls-6" d="M615.57,256.93c-.37,0-.88.06-1.39.06s-1.16,0-1.8-.06c-.46,0-.73-.18-.78-.94-.19-2.26-.35-4.81-.35-7.85,0-2.07.08-4.39.29-7,.06-.83.54-1.08,1.21-1.16a15.56,15.56,0,0,1,1.59,0,12,12,0,0,1,1.5,0c.38.06.51.19.51.49s-.1.51-.1.78a.26.26,0,0,0,.29.27c.7,0,1.75-1.78,3.63-1.78s2.34,1.32,3,1.32,1.91-1.32,4-1.32c3.17,0,4.46,3,4.46,8.69a35.12,35.12,0,0,1-.57,7.75,1,1,0,0,1-1,.72c-.38,0-.92.06-1.48.06s-1.21,0-1.83-.06-.8-.35-.8-.78a76.08,76.08,0,0,0,.51-7.88c0-2.82-.3-4-1.32-4-.86,0-1.59.73-1.59,2.42,0,1.48.06,2.56.06,4a42.87,42.87,0,0,1-.32,5.38c-.08.56-.33.8-.73.83s-1.13.08-1.77.08-1.13,0-1.64,0-.62-.27-.62-.65.27-5.14.27-8.53c0-2.39-.22-3.39-1.24-3.39s-1.69,1.11-1.69,3.69c0,4.76.35,7.67.35,8.23S616,256.88,615.57,256.93Z"/><path class="cls-6" d="M632.93,248.59c0-5.32,2.29-8.93,6.83-8.93s6.42,3.45,6.42,8.93c0,6.11-2.95,8.69-6.8,8.69S632.93,254.7,632.93,248.59Zm8.52-.37c0-3.1-.7-4.55-1.88-4.55s-1.93,1.45-1.93,4.55.53,4.41,1.9,4.41S641.45,251.23,641.45,248.22Z"/><path class="cls-6" d="M660.61,246.63a86.08,86.08,0,0,1-.56,9.52c-.08.52-.35.76-.76.78a13.24,13.24,0,0,1-1.63.06c-.68,0-1.32,0-1.89-.06s-.59-.24-.59-.56c0-1.24.41-5.73.41-9.26,0-1.9-.33-2.82-1.32-2.82a1.74,1.74,0,0,0-1.24.48c-.45.44-.64,1.19-.64,3.15,0,4,.38,7.51.38,8.31,0,.49-.22.68-.7.7s-1,.06-1.51.06c-.67,0-1.31,0-1.8-.06s-.75-.16-.8-.86c-.19-2.07-.33-4.7-.33-7.74,0-2.18.06-4.58.24-7.11.06-.86.57-1.07,1.27-1.15.48,0,1.05-.06,1.58-.06s.92,0,1.24.06c.48,0,.67.24.67.62s.14.51.38.51c.8,0,1.82-1.43,3.84-1.43C659.4,239.77,660.61,241.63,660.61,246.63Z"/><path class="cls-6" d="M661.88,251.85c0-3.9,3.06-5.46,6.55-6,.83-.14,1.24-.33,1.24-.81,0-.83-.46-1.37-1.75-1.37a6.13,6.13,0,0,0-4.06,1.72.69.69,0,0,1-.45.24.51.51,0,0,1-.35-.16,3.38,3.38,0,0,1-1-2.45c0-1.91,2.34-3.39,6.18-3.39,4.52,0,6.1,2.26,6.1,6.27,0,1.64-.13,4.22-.13,6.22,0,1.56.21,3.33.21,3.76a.76.76,0,0,1-.67.84,48,48,0,0,1-5.59.21C664.05,257,661.88,255.43,661.88,251.85Zm7.81-1.91c0-.81-.1-1-.56-1a2.41,2.41,0,0,0-2.69,2.26c0,1.18.81,1.69,2.18,1.69.86,0,1.07-.37,1.07-1.18Z"/><path class="cls-6" d="M676,249.35c0-6.19,1.94-9.66,4.76-9.66a4.56,4.56,0,0,1,3,1.4.39.39,0,0,0,.27.11c.16,0,.27-.11.27-.38,0-1.64-.67-4.68-.67-5.25,0-.4.27-.56.64-.59s1,0,1.51,0c.72,0,1.48,0,2.17.08.46.05.76.19.84.91a109.22,109.22,0,0,1,.59,11.62,59.52,59.52,0,0,1-.43,7.89,1.22,1.22,0,0,1-.84,1,16,16,0,0,1-5.37.69C677.94,257.09,676,254.73,676,249.35Zm8.49-1.72c0-3-.8-4-1.77-4S681,244.83,681,248.7c0,3.61.64,4.66,1.83,4.66S684.47,252.63,684.47,247.63Z"/><path class="cls-6" d="M697.19,257.28c-4.84,0-6.45-3.71-6.45-8.23,0-6.64,3.38-9.36,7.41-9.36,2.72,0,4.84,1.45,4.84,4.47,0,4.6-3.84,5.13-6.21,6.18-.83.3-1.18.54-1.18,1,0,.78.56,1.4,1.85,1.4a5.74,5.74,0,0,0,4.6-2.18c.16-.14.27-.22.4-.22.38,0,.67.7.67,2C703.12,255.43,700.36,257.28,697.19,257.28Zm.37-13.85c-1.48,0-2.5,1.61-2.5,3.47,0,.27.08.48.32.48a1.25,1.25,0,0,0,.52-.13c1.07-.65,2.9-1.32,2.9-2.61A1.15,1.15,0,0,0,697.56,243.43Z"/><path class="cls-6" d="M716,236.6a12.43,12.43,0,0,0-.86,3.17c0,.24.13.38.51.38s.83-.11,1.21-.11.37.16.43.48a11.23,11.23,0,0,1,.13,1.81,10.82,10.82,0,0,1-.19,2.15.37.37,0,0,1-.4.32c-.35,0-.81-.13-1.29-.13s-.54.32-.57.78a15.9,15.9,0,0,0-.08,1.66,35.52,35.52,0,0,0,1.24,8.34c0,.19.11.38.11.51a.58.58,0,0,1-.3.49,10.21,10.21,0,0,1-4.41,1.08c-.37,0-.59-.09-.69-.38a30.21,30.21,0,0,1-.86-7.88c0-1.54.08-3,.1-3.8,0-.45-.1-.64-.4-.64l-.62,0c-.24,0-.37-.13-.4-.45a4.31,4.31,0,0,1,0-.68,19.07,19.07,0,0,1,.26-3c.09-.51.3-.64.6-.64l.59,0c.64,0,.67-.59.83-2a1.07,1.07,0,0,1,.59-1,11.36,11.36,0,0,1,4.17-1C715.94,236.11,716.05,236.33,716,236.6Z"/><path class="cls-6" d="M718,248.59c0-5.32,2.28-8.93,6.82-8.93s6.43,3.45,6.43,8.93c0,6.11-3,8.69-6.8,8.69S718,254.7,718,248.59Zm8.52-.37c0-3.1-.7-4.55-1.89-4.55s-1.93,1.45-1.93,4.55.54,4.41,1.91,4.41S726.56,251.23,726.56,248.22Z"/><path class="cls-6" d="M732.25,248.59c0-5.32,2.29-8.93,6.83-8.93s6.42,3.45,6.42,8.93c0,6.11-3,8.69-6.8,8.69S732.25,254.7,732.25,248.59Zm8.52-.37c0-3.1-.7-4.55-1.88-4.55s-1.93,1.45-1.93,4.55.53,4.41,1.9,4.41S740.77,251.23,740.77,248.22Z"/><path class="cls-6" d="M752.78,236.46a.52.52,0,0,1,.51.57,65.59,65.59,0,0,0-1.47,12.45c0,.73-.33.94-1.64,1.08a8.27,8.27,0,0,1-1,.05c-.67,0-1-.13-1.13-.62a39.21,39.21,0,0,1-1.13-7.82c-.08-1.62-.11-2.94-.11-4.63,0-.59.17-1,1-1.11.64-.05,1.53-.08,2.44-.08A23.59,23.59,0,0,1,752.78,236.46Zm-5.88,18a2.65,2.65,0,0,1,3-2.77c1.89,0,3,1,3,2.77s-1.07,2.64-3,2.64S746.9,256.23,746.9,254.51Z"/><path class="cls-6" d="M356.77,302.45c-6,0-7.95-3.61-7.95-8.1,0-6.91,2.71-13.32,7.9-13.32s7.9,6.41,7.9,13.32C364.62,298.84,362.74,302.45,356.77,302.45Zm2.5-9.12c0-4.33-1.07-7.4-2.55-7.4s-2.53,3.12-2.53,7.37c0,2.82.92,3.93,2.56,3.93S359.27,296.1,359.27,293.33Z"/><path class="cls-6" d="M371.47,302c-.51,0-1.13.05-1.82.05s-1.43,0-2.18-.05a.82.82,0,0,1-.75-.73,40,40,0,0,1-.54-7.69c0-4.68.21-6.81.46-7.7a.8.8,0,0,1,.51-.67,11.3,11.3,0,0,1,2-.16,5.48,5.48,0,0,1,1.21.08c.29.05.37.24.4.56s.16.43.3.43a.85.85,0,0,0,.45-.21,2.9,2.9,0,0,1,1.7-.94c.48,0,.8.62.8,2.74a9.43,9.43,0,0,1-.21,2.42c-.14.46-.35.57-.59.57s-.76-.24-1.27-.24-.94.51-.94,2.6c0,3.39,1.13,7.75,1.13,8.29C372.17,301.72,372,302,371.47,302Z"/><path class="cls-6" d="M381.71,302.66c-.4,0-.7-.16-.91-1a43.32,43.32,0,0,1-.78-8.8c0-7.21.56-8.07,5.1-8.07,6.1,0,7.77,2.75,7.77,6.32,0,5.87-3,8.8-5.08,8.8-1.23,0-2.09-1.83-2.55-1.83-.22,0-.32.19-.32.43a15,15,0,0,0,.53,3.18c0,.29-.24.43-.59.51A24.35,24.35,0,0,1,381.71,302.66Zm3.09-10c0,2.66.62,3.28,1.45,3.28,1.21,0,1.83-2,1.83-5,0-1.89-.67-2.67-2-2.67C385.18,288.32,384.8,289.13,384.8,292.68Z"/><path class="cls-6" d="M399.85,302c-.62.06-1.34.06-2.1.06s-1.53,0-2.17-.06a.75.75,0,0,1-.75-.78c-.22-2.2-.33-4.79-.33-7.48a100.43,100.43,0,0,1,.81-13,.7.7,0,0,1,.72-.7c.62,0,1.21-.06,1.83-.06s1.24,0,1.8.06c.38,0,.62.19.62.56s-.48,5.17-.48,10.12c0,5.22.56,10,.56,10.78A.5.5,0,0,1,399.85,302Z"/><path class="cls-6" d="M401.68,297c0-3.9,3.06-5.46,6.55-6,.84-.14,1.24-.33,1.24-.81,0-.83-.46-1.37-1.75-1.37a6.1,6.1,0,0,0-4.05,1.72.71.71,0,0,1-.46.24.51.51,0,0,1-.35-.16,3.4,3.4,0,0,1-1-2.45c0-1.91,2.33-3.39,6.18-3.39,4.51,0,6.1,2.26,6.1,6.27,0,1.64-.14,4.22-.14,6.21,0,1.56.22,3.34.22,3.77a.76.76,0,0,1-.68.83,45.42,45.42,0,0,1-5.58.22C403.85,302.07,401.68,300.54,401.68,297Zm7.82-1.91c0-.81-.11-1-.57-1a2.4,2.4,0,0,0-2.68,2.26c0,1.18.8,1.69,2.17,1.69.86,0,1.08-.38,1.08-1.18Z"/><path class="cls-6" d="M416.43,297.17c.75,0,1.75.16,2.61.19s1.69-.13,1.69-.7c0-.16-.13-.29-.35-.4-3.2-1.56-4.65-4-4.65-10.09,0-.72.22-1,.89-1a14.5,14.5,0,0,1,1.72-.08c.64,0,1.37,0,2,.08.3,0,.57.11.57.48s-.11,1.13-.11,1.94c0,3.39,1.21,6,2.15,6,.19,0,.32-.11.4-.38a17,17,0,0,0,.46-4.41c0-1.35-.19-2.8-.19-3.12a.57.57,0,0,1,.57-.54,15.84,15.84,0,0,1,1.77-.06,12,12,0,0,1,1.61.06c.75.11,1,.67,1,1.48,0,9.31-1.77,15.87-12,15.87-.72,0-.88-.3-.94-.86,0-.38-.05-.81-.05-1.29,0-.84.05-1.72.13-2.5A.69.69,0,0,1,416.43,297.17Z"/><path class="cls-6" d="M434,297c0-3.9,3.07-5.46,6.56-6,.83-.14,1.24-.33,1.24-.81,0-.83-.46-1.37-1.75-1.37a6.13,6.13,0,0,0-4.06,1.72.69.69,0,0,1-.45.24.49.49,0,0,1-.35-.16,3.4,3.4,0,0,1-1-2.45c0-1.91,2.34-3.39,6.18-3.39,4.52,0,6.1,2.26,6.1,6.27,0,1.64-.13,4.22-.13,6.21,0,1.56.21,3.34.21,3.77a.75.75,0,0,1-.67.83,45.51,45.51,0,0,1-5.59.22C436.18,302.07,434,300.54,434,297Zm7.82-1.91c0-.81-.1-1-.56-1a2.41,2.41,0,0,0-2.69,2.26c0,1.18.81,1.69,2.18,1.69.86,0,1.07-.38,1.07-1.18Z"/><path class="cls-6" d="M454.4,284.77c1.13,0,1.59.16,2.1.16.69,0,1.07-1,1.64-1.72.26-.46.56-.67.86-.67.67,0,2.41,1.69,2.41,2.39a.53.53,0,0,1-.27.46c-.59.32-1.2.65-1.2,1.32s1.18,1.16,1.18,3.71c0,3.1-2,5.22-6.32,5.22-2.31,0-2.95.89-2.95,1.69,0,.54.29.79.91.79,1.24,0,3.23-1.19,5.46-1.19a4.64,4.64,0,0,1,2.6.65,1.05,1.05,0,0,1,.49,1c0,1.23-.76,3.76-1.62,3.76a1.47,1.47,0,0,1-.56-.13,3.88,3.88,0,0,0-2.26-.59c-1.64,0-2.87.86-5.13.86-2.5,0-3.92-1.21-3.92-3.42a5.11,5.11,0,0,1,1.88-3.9c.19-.19.29-.32.29-.48a.74.74,0,0,0-.21-.41,5.52,5.52,0,0,1-1.61-4C448.17,286.84,450.67,284.77,454.4,284.77Zm.32,7A1.77,1.77,0,0,0,456.6,290a1.85,1.85,0,1,0-1.88,1.81Z"/><path class="cls-6" d="M462.33,297c0-3.9,3.06-5.46,6.55-6,.84-.14,1.24-.33,1.24-.81,0-.83-.46-1.37-1.75-1.37a6.1,6.1,0,0,0-4.05,1.72.71.71,0,0,1-.46.24.51.51,0,0,1-.35-.16,3.4,3.4,0,0,1-1-2.45c0-1.91,2.33-3.39,6.18-3.39,4.51,0,6.1,2.26,6.1,6.27,0,1.64-.14,4.22-.14,6.21,0,1.56.22,3.34.22,3.77a.76.76,0,0,1-.68.83,45.42,45.42,0,0,1-5.58.22C464.5,302.07,462.33,300.54,462.33,297Zm7.82-1.91c0-.81-.11-1-.57-1a2.41,2.41,0,0,0-2.68,2.26c0,1.18.8,1.69,2.17,1.69.86,0,1.08-.38,1.08-1.18Z"/><path class="cls-6" d="M482,302c-.64.06-1.39.08-2.17.08s-1.53,0-2.2-.08a.68.68,0,0,1-.68-.7,54.27,54.27,0,0,1-.32-6.13,60.71,60.71,0,0,1,.67-9.39.72.72,0,0,1,.75-.67,15.82,15.82,0,0,1,1.64-.06,16,16,0,0,1,1.67.06c.4,0,.62.21.62.54,0,.59-.19,3-.19,5.89a92.55,92.55,0,0,0,.73,10C482.54,301.88,482.29,302,482,302Zm-5.15-20.17c0-1.43.94-2.32,2.92-2.32s2.93.89,2.93,2.32-.83,2.2-2.93,2.2S476.87,283.27,476.87,281.87Z"/><path class="cls-6" d="M497.23,291.74a86.08,86.08,0,0,1-.56,9.52c-.08.51-.35.76-.75.78a13.33,13.33,0,0,1-1.64.06c-.67,0-1.32,0-1.88-.06s-.59-.24-.59-.56c0-1.24.4-5.73.4-9.26,0-1.91-.32-2.82-1.32-2.82a1.7,1.7,0,0,0-1.23.48c-.46.43-.65,1.19-.65,3.15,0,4,.38,7.51.38,8.31,0,.49-.22.68-.7.7s-1,.06-1.51.06c-.67,0-1.31,0-1.8-.06s-.75-.16-.8-.86c-.19-2.07-.32-4.71-.32-7.75,0-2.17.05-4.57.24-7.1.05-.86.56-1.07,1.26-1.15.48,0,1.05-.06,1.59-.06s.91,0,1.23.06c.49,0,.67.24.67.61s.14.52.38.52c.81,0,1.83-1.43,3.84-1.43C496,284.88,497.23,286.74,497.23,291.74Z"/><path class="cls-6" d="M508.71,298.33c.94,0,1.34-.38,1.34-1.05s-.48-1.13-2-1.83c-2.58-1.24-4.67-2.34-4.67-5.49s2.41-5.19,6.23-5.19a9.74,9.74,0,0,1,4.41,1,.89.89,0,0,1,.51.89,10.08,10.08,0,0,1-.92,3.52.47.47,0,0,1-.43.33.51.51,0,0,1-.37-.17,6.89,6.89,0,0,0-3.82-1.69c-.86,0-1.29.4-1.29,1s.49,1,2,1.72c2.39,1.08,5,2.34,5,5.68,0,3.6-2.31,5.4-5.83,5.4s-5.83-1.72-5.83-4.49a4.63,4.63,0,0,1,.51-2.31.48.48,0,0,1,.4-.27.37.37,0,0,1,.35.21A5.39,5.39,0,0,0,508.71,298.33Z"/><path class="cls-6" d="M515.59,293.7c0-5.32,2.28-8.93,6.82-8.93s6.43,3.45,6.43,8.93c0,6.11-3,8.69-6.8,8.69S515.59,299.81,515.59,293.7Zm8.52-.37c0-3.1-.7-4.55-1.88-4.55s-1.94,1.45-1.94,4.55.54,4.41,1.91,4.41S524.11,296.34,524.11,293.33Z"/><path class="cls-6" d="M549.53,285.74c0-.4.18-.54.48-.56a16.81,16.81,0,0,1,1.93-.11,19.34,19.34,0,0,1,2,.11c.48.05.73.29.83.88,0,.35.06.81.06,1.35,0,9.09-3.63,13.31-5.7,14.85a.79.79,0,0,1-.48.13.68.68,0,0,1-.41-.1,18.2,18.2,0,0,1-3.57-4,.38.38,0,0,0-.35-.24.59.59,0,0,0-.43.26,17.08,17.08,0,0,1-3.84,4,.67.67,0,0,1-.35.11.5.5,0,0,1-.32-.11c-3.25-2.53-5-7.15-5-14.52a11.94,11.94,0,0,1,.11-1.81c.08-.51.29-.75.78-.8a19.44,19.44,0,0,1,2-.09,20.17,20.17,0,0,1,2.12.09.48.48,0,0,1,.51.53c0,.35-.29,2.53-.29,4.93a12.48,12.48,0,0,0,.91,5.32c0,.19.16.27.29.27a.39.39,0,0,0,.33-.27,15.76,15.76,0,0,0,1.23-7c0-1.21-.08-2.85-.08-3.26a.47.47,0,0,1,.43-.51,14.43,14.43,0,0,1,2-.13,13.05,13.05,0,0,1,2,.13c.24.06.43.16.43.46,0,.7-.24,3.36-.24,5.33a8.81,8.81,0,0,0,1.13,5,.31.31,0,0,0,.27.25.42.42,0,0,0,.32-.25,14.08,14.08,0,0,0,1.05-6.16C549.69,288,549.53,286.22,549.53,285.74Z"/><path class="cls-6" d="M562.05,302.39c-4.84,0-6.45-3.71-6.45-8.23,0-6.64,3.39-9.36,7.42-9.36,2.71,0,4.83,1.45,4.83,4.46,0,4.61-3.84,5.14-6.2,6.19-.84.3-1.19.54-1.19,1,0,.78.57,1.4,1.86,1.4a5.73,5.73,0,0,0,4.59-2.18.64.64,0,0,1,.41-.22c.37,0,.67.7.67,2C568,300.54,565.22,302.39,562.05,302.39Zm.38-13.85c-1.48,0-2.5,1.61-2.5,3.47,0,.27.08.48.32.48a1.2,1.2,0,0,0,.51-.13c1.07-.65,2.9-1.32,2.9-2.61A1.14,1.14,0,0,0,562.43,288.54Z"/><path class="cls-6" d="M573.66,294.54c0-6.7,3-9.77,7-9.77,3.14,0,4.67,2.21,4.67,5A3.5,3.5,0,0,1,582,293c-.37,0-.54-.11-.56-.43-.08-1.72-.11-3.39-1.21-3.39s-1.69,1.53-1.69,4.33c0,2.29.45,4,2.2,4a3.74,3.74,0,0,0,3.28-2.56.37.37,0,0,1,.35-.24.4.4,0,0,1,.29.19,3.78,3.78,0,0,1,.83,2.52c0,2.78-1.9,5.06-5.66,5.06C575.49,302.39,573.66,299.11,573.66,294.54Z"/><path class="cls-6" d="M586.42,297c0-3.9,3.07-5.46,6.56-6,.83-.14,1.23-.33,1.23-.81,0-.83-.45-1.37-1.74-1.37a6.11,6.11,0,0,0-4.06,1.72.69.69,0,0,1-.46.24.53.53,0,0,1-.35-.16,3.4,3.4,0,0,1-1-2.45c0-1.91,2.34-3.39,6.18-3.39,4.52,0,6.1,2.26,6.1,6.27,0,1.64-.13,4.22-.13,6.21,0,1.56.21,3.34.21,3.77a.75.75,0,0,1-.67.83,45.6,45.6,0,0,1-5.59.22C588.6,302.07,586.42,300.54,586.42,297Zm7.82-1.91c0-.81-.11-1-.56-1a2.41,2.41,0,0,0-2.69,2.26c0,1.18.81,1.69,2.18,1.69.86,0,1.07-.38,1.07-1.18Z"/><path class="cls-6" d="M613.78,291.74a85.31,85.31,0,0,1-.57,9.52c-.08.51-.35.76-.75.78a13.33,13.33,0,0,1-1.64.06c-.67,0-1.31,0-1.88-.06s-.59-.24-.59-.56c0-1.24.4-5.73.4-9.26,0-1.91-.32-2.82-1.31-2.82a1.7,1.7,0,0,0-1.24.48c-.46.43-.64,1.19-.64,3.15,0,4,.37,7.51.37,8.31,0,.49-.21.68-.7.7s-1,.06-1.5.06c-.67,0-1.32,0-1.8-.06s-.75-.16-.81-.86c-.19-2.07-.32-4.71-.32-7.75,0-2.17.05-4.57.24-7.1.05-.86.57-1.07,1.26-1.15.49,0,1.05-.06,1.59-.06s.91,0,1.24.06.67.24.67.61.13.52.37.52c.81,0,1.83-1.43,3.85-1.43C612.57,284.88,613.78,286.74,613.78,291.74Z"/><path class="cls-6" d="M620,294.46c0-6.19,1.93-9.66,4.75-9.66a4.54,4.54,0,0,1,3,1.4.41.41,0,0,0,.27.11c.16,0,.27-.11.27-.38,0-1.64-.67-4.68-.67-5.25,0-.4.27-.56.64-.59s1,0,1.51,0c.73,0,1.48,0,2.18.08.45.05.75.19.83.91a109.06,109.06,0,0,1,.59,11.62,57.86,57.86,0,0,1-.43,7.89,1.18,1.18,0,0,1-.83,1,15.73,15.73,0,0,1-5.38.7C622,302.2,620,299.84,620,294.46Zm8.49-1.72c0-3-.81-4-1.78-4s-1.69,1.21-1.69,5.08c0,3.61.65,4.65,1.83,4.65S628.48,297.74,628.48,292.74Z"/><path class="cls-6" d="M640.52,302c-.51,0-1.13.05-1.83.05s-1.43,0-2.18-.05a.83.83,0,0,1-.75-.73,40.85,40.85,0,0,1-.54-7.69c0-4.68.22-6.81.46-7.7.11-.43.29-.59.51-.67a11.3,11.3,0,0,1,2-.16,5.48,5.48,0,0,1,1.21.08c.3.05.38.24.4.56s.17.43.3.43a.91.91,0,0,0,.46-.21,2.85,2.85,0,0,1,1.69-.94c.48,0,.81.62.81,2.74a9.35,9.35,0,0,1-.22,2.42c-.13.46-.35.57-.59.57s-.75-.24-1.26-.24-.94.51-.94,2.6c0,3.39,1.12,7.75,1.12,8.29C641.21,301.72,641.05,302,640.52,302Z"/><path class="cls-6" d="M649.44,302c-.65.06-1.4.08-2.18.08s-1.53,0-2.2-.08a.67.67,0,0,1-.67-.7,51.89,51.89,0,0,1-.33-6.13,59.44,59.44,0,0,1,.68-9.39.71.71,0,0,1,.75-.67,15.73,15.73,0,0,1,1.64-.06,15.91,15.91,0,0,1,1.66.06c.41,0,.62.21.62.54,0,.59-.19,3-.19,5.89a92.55,92.55,0,0,0,.73,10A.48.48,0,0,1,649.44,302Zm-5.16-20.17c0-1.43.94-2.32,2.93-2.32s2.93.89,2.93,2.32-.84,2.2-2.93,2.2S644.28,283.27,644.28,281.87Z"/><path class="cls-6" d="M664.65,291.74a85.31,85.31,0,0,1-.57,9.52c-.08.51-.35.76-.75.78a13.33,13.33,0,0,1-1.64.06c-.67,0-1.32,0-1.88-.06s-.59-.24-.59-.56c0-1.24.4-5.73.4-9.26,0-1.91-.32-2.82-1.31-2.82a1.7,1.7,0,0,0-1.24.48c-.46.43-.65,1.19-.65,3.15,0,4,.38,7.51.38,8.31,0,.49-.21.68-.7.7s-1,.06-1.5.06c-.67,0-1.32,0-1.8-.06s-.76-.16-.81-.86c-.19-2.07-.32-4.71-.32-7.75,0-2.17.05-4.57.24-7.1.05-.86.56-1.07,1.26-1.15.49,0,1.05-.06,1.59-.06s.91,0,1.23.06c.49,0,.68.24.68.61s.13.52.37.52c.81,0,1.83-1.43,3.84-1.43C663.44,284.88,664.65,286.74,664.65,291.74Z"/><path class="cls-6" d="M671.69,302c-.62.06-1.37.06-2.13.06s-1.5,0-2.17-.06a.75.75,0,0,1-.75-.78c-.17-2.2-.19-4.79-.19-7.48a106.16,106.16,0,0,1,.72-13,.71.71,0,0,1,.73-.7c.56,0,1.18-.06,1.83-.06s1.29,0,1.88.06c.37,0,.64.19.64.54s-1,7-1,10.7c0,.41.14.65.43.65,1.72,0,2.85-2.88,3-6.16,0-.46.25-.57.65-.62s1.07,0,1.8,0,1.75,0,2.12,0,.59.13.59.67a10.16,10.16,0,0,1-3.06,6.51.75.75,0,0,0-.27.46c0,.13.11.24.27.38,1.88,1.39,3.55,3.2,3.55,8,0,.62-.08.78-.7.86-.43,0-1.08.06-1.8.06a18.76,18.76,0,0,1-1.88-.06c-.68-.05-.84-.13-.86-.83-.14-3.93-1.35-6.4-2.82-6.4-.6,0-.84.56-.84,1.45,0,2,.84,4.6.84,5.24A.52.52,0,0,1,671.69,302Z"/><path class="cls-6" d="M690.71,302c-.37,0-.88.06-1.39.06s-1.16,0-1.8-.06c-.46,0-.73-.19-.78-.94-.19-2.26-.35-4.81-.35-7.85,0-2.08.08-4.39.29-7,.06-.83.54-1.08,1.21-1.16a15.56,15.56,0,0,1,1.59-.05,12,12,0,0,1,1.5.05c.38.06.51.19.51.49s-.11.51-.11.78a.27.27,0,0,0,.3.27c.7,0,1.75-1.78,3.63-1.78s2.34,1.32,3,1.32,1.91-1.32,3.95-1.32c3.17,0,4.46,3,4.46,8.69a35.12,35.12,0,0,1-.57,7.75,1,1,0,0,1-1,.72c-.38,0-.92.06-1.48.06s-1.21,0-1.83-.06-.8-.35-.8-.78a76.08,76.08,0,0,0,.51-7.88c0-2.82-.3-4-1.32-4-.86,0-1.59.73-1.59,2.42,0,1.48.06,2.56.06,4a42.87,42.87,0,0,1-.32,5.38c-.09.56-.33.8-.73.83s-1.13.08-1.77.08-1.13,0-1.64-.05-.62-.27-.62-.65.27-5.14.27-8.53c0-2.39-.22-3.39-1.24-3.39s-1.69,1.11-1.69,3.69c0,4.76.35,7.67.35,8.23S691.12,302,690.71,302Z"/><path class="cls-6" d="M708.07,293.7c0-5.32,2.29-8.93,6.83-8.93s6.42,3.45,6.42,8.93c0,6.11-3,8.69-6.8,8.69S708.07,299.81,708.07,293.7Zm8.52-.37c0-3.1-.7-4.55-1.88-4.55s-1.93,1.45-1.93,4.55.53,4.41,1.9,4.41S716.59,296.34,716.59,293.33Z"/><path class="cls-6" d="M728,302c-.51,0-1.13.05-1.83.05s-1.42,0-2.18-.05a.83.83,0,0,1-.75-.73,41.07,41.07,0,0,1-.53-7.69c0-4.68.21-6.81.45-7.7a.84.84,0,0,1,.51-.67,11.3,11.3,0,0,1,2-.16,5.48,5.48,0,0,1,1.21.08c.3.05.38.24.41.56s.16.43.29.43a.87.87,0,0,0,.46-.21,2.88,2.88,0,0,1,1.69-.94c.49,0,.81.62.81,2.74a9.35,9.35,0,0,1-.22,2.42c-.13.46-.35.57-.59.57s-.75-.24-1.26-.24-.94.51-.94,2.6c0,3.39,1.13,7.75,1.13,8.29C728.74,301.72,728.58,302,728,302Z"/><path class="cls-6" d="M737.71,302.39c-4.83,0-6.45-3.71-6.45-8.23,0-6.64,3.39-9.36,7.42-9.36,2.71,0,4.84,1.45,4.84,4.46,0,4.61-3.85,5.14-6.21,6.19-.83.3-1.18.54-1.18,1,0,.78.56,1.4,1.85,1.4a5.74,5.74,0,0,0,4.6-2.18c.16-.14.27-.22.4-.22.38,0,.67.7.67,2C743.65,300.54,740.88,302.39,737.71,302.39Zm.38-13.85c-1.48,0-2.5,1.61-2.5,3.47,0,.27.08.48.32.48a1.2,1.2,0,0,0,.51-.13c1.08-.65,2.91-1.32,2.91-2.61A1.15,1.15,0,0,0,738.09,288.54Z"/><path class="cls-6" d="M751,281.57a.52.52,0,0,1,.51.57A66,66,0,0,0,750,294.59c0,.73-.32.94-1.64,1.08a8,8,0,0,1-1,.05c-.67,0-1-.13-1.13-.62a39.21,39.21,0,0,1-1.13-7.83c-.08-1.61-.11-2.93-.11-4.62,0-.59.16-1,1-1.11.65-.05,1.53-.08,2.45-.08A23.59,23.59,0,0,1,751,281.57Zm-5.88,18.05a2.65,2.65,0,0,1,2.95-2.77c1.88,0,3,1,3,2.77s-1.08,2.64-3,2.64S745.08,301.34,745.08,299.62Z"/></g></svg>